<?xml version="1.0" encoding="UTF-8"?>
<svg id="Livello_1" data-name="Livello 1" xmlns="http://www.w3.org/2000/svg" xmlns:xlink="http://www.w3.org/1999/xlink" viewBox="0 0 1000 1000">
  <defs>
    <style>
      .cls-1 {
        fill: url(#Sfumatura_senza_nome_18);
      }

      .cls-2 {
        fill: url(#Sfumatura_senza_nome_11);
      }

      .cls-3 {
        fill: url(#Sfumatura_senza_nome_11-8);
      }

      .cls-4 {
        fill: url(#Sfumatura_senza_nome_11-9);
      }

      .cls-5 {
        fill: url(#Sfumatura_senza_nome_11-5);
      }

      .cls-6 {
        fill: url(#Sfumatura_senza_nome_11-6);
      }

      .cls-7 {
        fill: url(#Sfumatura_senza_nome_11-7);
      }

      .cls-8 {
        fill: url(#Sfumatura_senza_nome_11-4);
      }

      .cls-9 {
        fill: url(#Sfumatura_senza_nome_11-3);
      }

      .cls-10 {
        fill: url(#Sfumatura_senza_nome_11-2);
      }

      .cls-11 {
        fill: url(#Sfumatura_senza_nome_11-16);
      }

      .cls-12 {
        fill: url(#Sfumatura_senza_nome_11-10);
      }

      .cls-13 {
        fill: url(#Sfumatura_senza_nome_11-15);
      }

      .cls-14 {
        fill: url(#Sfumatura_senza_nome_11-12);
      }

      .cls-15 {
        fill: url(#Sfumatura_senza_nome_11-11);
      }

      .cls-16 {
        fill: url(#Sfumatura_senza_nome_11-13);
      }

      .cls-17 {
        fill: url(#Sfumatura_senza_nome_11-18);
      }

      .cls-18 {
        fill: url(#Sfumatura_senza_nome_11-17);
      }

      .cls-19 {
        fill: url(#Sfumatura_senza_nome_11-14);
      }
    </style>
    <linearGradient id="Sfumatura_senza_nome_11" data-name="Sfumatura senza nome 11" x1="4137.17" y1="10834.79" x2="4460.87" y2="10834.79" gradientTransform="translate(-2815.75 9454.33) scale(.72 -.84)" gradientUnits="userSpaceOnUse">
      <stop offset="0" stop-color="#90e0ef"/>
      <stop offset="1" stop-color="#00b4d8"/>
    </linearGradient>
    <linearGradient id="Sfumatura_senza_nome_11-2" data-name="Sfumatura senza nome 11" x1="9088.05" y1="9118.44" x2="9674.65" y2="9118.44" gradientTransform="translate(8042.91 7351.4) rotate(-90) scale(.73 -.84)" xlink:href="#Sfumatura_senza_nome_11"/>
    <linearGradient id="Sfumatura_senza_nome_11-3" data-name="Sfumatura senza nome 11" x1="1815.98" y1="10131.05" x2="2402.58" y2="10131.05" gradientTransform="translate(-1245.6 8863.83) scale(.8 -.84)" xlink:href="#Sfumatura_senza_nome_11"/>
    <linearGradient id="Sfumatura_senza_nome_11-4" data-name="Sfumatura senza nome 11" x1="26354.19" y1="6769.5" x2="26940.79" y2="6769.5" gradientTransform="translate(6155.58 6475.74) rotate(-90) scale(.23 -.84)" xlink:href="#Sfumatura_senza_nome_11"/>
    <linearGradient id="Sfumatura_senza_nome_11-5" data-name="Sfumatura senza nome 11" x1="19023.22" y1="5176.2" x2="19609.82" y2="5176.2" gradientTransform="translate(4623.42 7604.01) rotate(-90) scale(.36 -.84)" xlink:href="#Sfumatura_senza_nome_11"/>
    <linearGradient id="Sfumatura_senza_nome_11-6" data-name="Sfumatura senza nome 11" x1="-3321.66" y1="8671.46" x2="-2997.96" y2="8671.46" gradientTransform="translate(2168.01 7482.98) scale(.51 -.84)" xlink:href="#Sfumatura_senza_nome_11"/>
    <linearGradient id="Sfumatura_senza_nome_11-7" data-name="Sfumatura senza nome 11" x1="7156.87" y1="10455.26" x2="7480.57" y2="10455.26" gradientTransform="translate(-3092.23 9125.16) scale(.51 -.84)" xlink:href="#Sfumatura_senza_nome_11"/>
    <linearGradient id="Sfumatura_senza_nome_11-8" data-name="Sfumatura senza nome 11" x1="13961.35" y1="7029.5" x2="14285.06" y2="7029.5" gradientTransform="translate(6698.62 7967.45) rotate(-90) scale(.54 -.84)" xlink:href="#Sfumatura_senza_nome_11"/>
    <linearGradient id="Sfumatura_senza_nome_11-9" data-name="Sfumatura senza nome 11" x1="-7835.59" y1="8704.34" x2="-7511.89" y2="8704.34" gradientTransform="translate(2955.59 7836.5) scale(.29 -.84)" xlink:href="#Sfumatura_senza_nome_11"/>
    <linearGradient id="Sfumatura_senza_nome_11-10" data-name="Sfumatura senza nome 11" x1="-3872.94" y1="7635.36" x2="-3549.23" y2="7635.36" gradientTransform="translate(2448.96 7207.37) scale(.51 -.84)" xlink:href="#Sfumatura_senza_nome_11"/>
    <linearGradient id="Sfumatura_senza_nome_11-11" data-name="Sfumatura senza nome 11" x1="5051.34" y1="10228.82" x2="5375.04" y2="10228.82" gradientTransform="translate(-1054.46 9279.91) scale(.29 -.84)" xlink:href="#Sfumatura_senza_nome_11"/>
    <linearGradient id="Sfumatura_senza_nome_11-12" data-name="Sfumatura senza nome 11" x1="70.04" y1="503.56" x2="251.18" y2="503.56" gradientTransform="matrix(1,0,0,1,0,0)" xlink:href="#Sfumatura_senza_nome_11"/>
    <linearGradient id="Sfumatura_senza_nome_11-13" data-name="Sfumatura senza nome 11" x1="748.82" y1="503.56" x2="929.96" y2="503.56" gradientTransform="matrix(1,0,0,1,0,0)" xlink:href="#Sfumatura_senza_nome_11"/>
    <linearGradient id="Sfumatura_senza_nome_11-14" data-name="Sfumatura senza nome 11" x1="625.6" y1="199.33" x2="806.74" y2="199.33" gradientTransform="matrix(1,0,0,1,0,0)" xlink:href="#Sfumatura_senza_nome_11"/>
    <linearGradient id="Sfumatura_senza_nome_11-15" data-name="Sfumatura senza nome 11" x1="408.74" y1="7551.97" x2="697.76" y2="7551.97" gradientTransform="translate(0 8088.82) scale(1 -1)" xlink:href="#Sfumatura_senza_nome_11"/>
    <linearGradient id="Sfumatura_senza_nome_11-16" data-name="Sfumatura senza nome 11" x1="313.05" y1="215.27" x2="494.19" y2="215.27" gradientTransform="matrix(1,0,0,1,0,0)" xlink:href="#Sfumatura_senza_nome_11"/>
    <linearGradient id="Sfumatura_senza_nome_11-17" data-name="Sfumatura senza nome 11" x1="310.69" y1="793.66" x2="491.83" y2="793.66" gradientTransform="matrix(1,0,0,1,0,0)" xlink:href="#Sfumatura_senza_nome_11"/>
    <linearGradient id="Sfumatura_senza_nome_11-18" data-name="Sfumatura senza nome 11" x1="625.6" y1="793.66" x2="806.74" y2="793.66" gradientTransform="matrix(1,0,0,1,0,0)" xlink:href="#Sfumatura_senza_nome_11"/>
    <linearGradient id="Sfumatura_senza_nome_18" data-name="Sfumatura senza nome 18" x1="440.86" y1="7551.97" x2="648.53" y2="7551.97" gradientTransform="translate(0 8088.82) scale(1 -1)" gradientUnits="userSpaceOnUse">
      <stop offset="0" stop-color="#0077b6"/>
      <stop offset="1" stop-color="#03045e"/>
    </linearGradient>
  </defs>
  <g>
    <rect class="cls-2" x="159.41" y="333.29" width="232.24" height="39.65" transform="translate(-171.7 328.85) rotate(-48.93)"/>
    <rect class="cls-10" x="363.6" y="289.9" width="39.65" height="427.22"/>
    <rect class="cls-9" x="207.18" y="333.92" width="468.51" height="39.65" transform="translate(-114.27 247.97) rotate(-27.93)"/>
    <rect class="cls-8" x="449.38" y="281.23" width="39.65" height="133.46" transform="translate(-102.8 229.5) rotate(-24.86)"/>
    <rect class="cls-5" x="255.58" y="544.24" width="39.65" height="209.52" transform="translate(-366.2 356.79) rotate(-42.52)"/>
    <rect class="cls-6" x="475.55" y="179.13" width="166.51" height="39.65" transform="translate(-11.87 37.17) rotate(-3.77)"/>
    <rect class="cls-7" x="559.92" y="322.92" width="166.51" height="39.65" transform="translate(46.52 761.25) rotate(-63.1)"/>
    <rect class="cls-3" x="774.01" y="257.59" width="39.65" height="173.36" transform="translate(-71 316.71) rotate(-21.62)"/>
    <rect class="cls-4" x="680.19" y="505.02" width="92.32" height="39.65" transform="translate(-73.94 121.62) rotate(-9.11)"/>
    <rect class="cls-12" x="475.01" y="773.84" width="166.51" height="39.65"/>
    <rect class="cls-15" x="412.28" y="667.88" width="92.32" height="39.65" transform="translate(-367.42 655.09) rotate(-54.05)"/>
    <path class="cls-14" d="M160.61,412.99c-50.02,0-90.57,40.55-90.57,90.57s40.55,90.57,90.57,90.57,90.57-40.55,90.57-90.57-40.55-90.57-90.57-90.57ZM205.89,557.4c0,1.71-1.39,3.1-3.1,3.1h-18.86c-1.71,0-3.1-1.39-3.1-3.1v-39.12c0-1.71-1.39-3.1-3.1-3.1h-34.21c-1.71,0-3.1,1.39-3.1,3.1v39.12c0,1.71-1.39,3.1-3.1,3.1h-18.86c-1.71,0-3.1-1.39-3.1-3.1v-107.66c0-1.71,1.39-3.1,3.1-3.1h18.86c1.71,0,3.1,1.39,3.1,3.1v37.26c0,1.71,1.39,3.1,3.1,3.1h34.21c1.71,0,3.1-1.39,3.1-3.1v-37.26c0-1.71,1.39-3.1,3.1-3.1h18.86c1.71,0,3.1,1.39,3.1,3.1v107.66Z"/>
    <path class="cls-16" d="M839.39,412.99c-50.02,0-90.57,40.55-90.57,90.57s40.55,90.57,90.57,90.57,90.57-40.55,90.57-90.57-40.55-90.57-90.57-90.57ZM891.41,521.25c0,2.88-2.33,5.21-5.21,5.21h-18.71c-2.88,0-5.21,2.33-5.21,5.21v18.71c0,2.88-2.33,5.21-5.21,5.21h-35.37c-2.88,0-5.21-2.33-5.21-5.21v-18.71c0-2.88-2.33-5.21-5.21-5.21h-18.71c-2.88,0-5.21-2.33-5.21-5.21v-35.37c0-2.88,2.33-5.21,5.21-5.21h18.71c2.88,0,5.21-2.33,5.21-5.21v-18.71c0-2.88,2.33-5.21,5.21-5.21h35.37c2.88,0,5.21,2.33,5.21,5.21v18.71c0,2.88,2.33,5.21,5.21,5.21h18.71c2.88,0,5.21,2.33,5.21,5.21v35.37Z"/>
    <path class="cls-19" d="M716.17,108.76c-50.02,0-90.57,40.55-90.57,90.57s40.55,90.57,90.57,90.57,90.57-40.55,90.57-90.57-40.55-90.57-90.57-90.57ZM761.45,253.17c0,1.71-1.39,3.1-3.1,3.1h-18.86c-1.71,0-3.1-1.39-3.1-3.1v-39.12c0-1.71-1.39-3.1-3.1-3.1h-34.21c-1.71,0-3.1,1.39-3.1,3.1v39.12c0,1.71-1.39,3.1-3.1,3.1h-18.86c-1.71,0-3.1-1.39-3.1-3.1v-107.66c0-1.71,1.39-3.1,3.1-3.1h18.86c1.71,0,3.1,1.39,3.1,3.1v37.26c0,1.71,1.39,3.1,3.1,3.1h34.21c1.71,0,3.1-1.39,3.1-3.1v-37.26c0-1.71,1.39-3.1,3.1-3.1h18.86c1.71,0,3.1,1.39,3.1,3.1v107.66Z"/>
    <circle class="cls-13" cx="553.25" cy="536.85" r="144.51"/>
    <path class="cls-11" d="M403.62,124.7c-50.02,0-90.57,40.55-90.57,90.57s40.55,90.57,90.57,90.57,90.57-40.55,90.57-90.57-40.55-90.57-90.57-90.57ZM455.64,232.96c0,2.88-2.33,5.21-5.21,5.21h-18.71c-2.88,0-5.21,2.33-5.21,5.21v18.71c0,2.88-2.33,5.21-5.21,5.21h-35.37c-2.88,0-5.21-2.33-5.21-5.21v-18.71c0-2.88-2.33-5.21-5.21-5.21h-18.71c-2.88,0-5.21-2.33-5.21-5.21v-35.37c0-2.88,2.33-5.21,5.21-5.21h18.71c2.88,0,5.21-2.33,5.21-5.21v-18.71c0-2.88,2.33-5.21,5.21-5.21h35.37c2.88,0,5.21,2.33,5.21,5.21v18.71c0,2.88,2.33,5.21,5.21,5.21h18.71c2.88,0,5.21,2.33,5.21,5.21v35.37Z"/>
    <path class="cls-18" d="M401.26,703.09c-50.02,0-90.57,40.55-90.57,90.57s40.55,90.57,90.57,90.57,90.57-40.55,90.57-90.57-40.55-90.57-90.57-90.57ZM453.28,811.35c0,2.88-2.33,5.21-5.21,5.21h-18.71c-2.88,0-5.21,2.33-5.21,5.21v18.71c0,2.88-2.33,5.21-5.21,5.21h-35.37c-2.88,0-5.21-2.33-5.21-5.21v-18.71c0-2.88-2.33-5.21-5.21-5.21h-18.71c-2.88,0-5.21-2.33-5.21-5.21v-35.37c0-2.88,2.33-5.21,5.21-5.21h18.71c2.88,0,5.21-2.33,5.21-5.21v-18.71c0-2.88,2.33-5.21,5.21-5.21h35.37c2.88,0,5.21,2.33,5.21,5.21v18.71c0,2.88,2.33,5.21,5.21,5.21h18.71c2.88,0,5.21,2.33,5.21,5.21v35.37Z"/>
    <path class="cls-17" d="M716.17,703.09c-50.02,0-90.57,40.55-90.57,90.57s40.55,90.57,90.57,90.57,90.57-40.55,90.57-90.57-40.55-90.57-90.57-90.57ZM761.43,847.48c0,1.71-1.39,3.1-3.1,3.1h-18.86c-1.71,0-3.1-1.39-3.1-3.1v-39.11c0-1.71-1.39-3.1-3.1-3.1h-34.2c-1.71,0-3.1,1.39-3.1,3.1v39.11c0,1.71-1.39,3.1-3.1,3.1h-18.86c-1.71,0-3.1-1.39-3.1-3.1v-107.63c0-1.71,1.39-3.1,3.1-3.1h18.86c1.71,0,3.1,1.39,3.1,3.1v37.25c0,1.71,1.39,3.1,3.1,3.1h34.2c1.71,0,3.1-1.39,3.1-3.1v-37.25c0-1.71,1.39-3.1,3.1-3.1h18.86c1.71,0,3.1,1.39,3.1,3.1v107.63Z"/>
  </g>
  <path class="cls-1" d="M627.55,516.93l-14.62-36.67c3.85-3.93,6.23-9.31,6.23-15.25,0-12.04-9.76-21.79-21.79-21.79-10.03,0-18.48,6.78-21.01,16.01l-34.57,2.12c-3.02-8.41-11.06-14.43-20.51-14.43-12.04,0-21.79,9.76-21.79,21.79,0,4.44,1.33,8.58,3.62,12.02l-33.04,37.47c-2.31-.83-4.8-1.29-7.39-1.29-12.04,0-21.79,9.76-21.79,21.79s9.76,21.79,21.79,21.79c2.74,0,5.37-.51,7.79-1.43l33.42,36.52c-2.75,3.65-4.39,8.19-4.39,13.11,0,12.04,9.76,21.79,21.79,21.79,10.37,0,19.05-7.25,21.25-16.96h33.6c2.2,9.71,10.88,16.96,21.25,16.96,12.04,0,21.79-9.76,21.79-21.79s-9.76-21.79-21.79-21.79c-10.37,0-19.05,7.25-21.25,16.96h-33.6c-1.13-4.99-3.97-9.33-7.88-12.37l8.99-12.74c4.29,1.91,9.05,2.98,14.06,2.98,18.23,0,33.16-14.11,34.46-32.01l14.63-2.28c3.37,7.69,11.04,13.05,19.97,13.05,12.04,0,21.79-9.76,21.79-21.79s-9.32-21.34-20.97-21.77h0ZM575.91,517.83l15.77-31.77c1.81.49,3.72.75,5.69.75,2.55,0,4.99-.44,7.27-1.24l13.25,33.23c-7.41,3.29-12.63,10.6-12.93,19.15l-13.47,2.1c-1.97-9.36-7.72-17.32-15.59-22.22h0ZM511.75,589.09c-.17.08-.34.17-.51.26l-32.7-35.74c3.66-3.9,5.89-9.14,5.89-14.9,0-2.07-.29-4.06-.83-5.96l28.13-14.97v71.32h0ZM478.98,524.27c-.23-.26-.47-.52-.71-.77l31.82-36.08c.54.33,1.1.63,1.67.91v18.5l-32.78,17.45h0ZM521.42,490.5c1.86-.01,3.66-.26,5.38-.71l3.33,7.25-8.71,4.64v-11.18ZM535.38,485.31c4.16-3.54,6.97-8.61,7.56-14.35l32.99-2.02c.2,1.12.49,2.21.86,3.26l-38.11,20.28-3.3-7.18h0ZM525.72,587.36c-1.39-.29-2.83-.44-4.3-.45v-74.29l12.76-6.79,5.46,11.88c-9.9,6.08-16.51,17-16.51,29.47,0,10.6,4.78,20.09,12.3,26.43l-9.71,13.75h0ZM548.5,513.87l-5.78-12.58,39.22-20.88c.38.38.78.75,1.2,1.11l-16.08,32.4c-2.98-.84-6.13-1.29-9.38-1.29s-6.25.43-9.17,1.23h0Z"/>
</svg>