<?xml version="1.0" encoding="UTF-8"?>
<svg id="Livello_1" data-name="Livello 1" xmlns="http://www.w3.org/2000/svg" xmlns:xlink="http://www.w3.org/1999/xlink" viewBox="0 0 1000 1000">
  <defs>
    <style>
      .cls-1 {
        fill: url(#Sfumatura_senza_nome_18);
      }

      .cls-2 {
        fill: url(#Sfumatura_senza_nome_11);
      }

      .cls-3 {
        fill: url(#Sfumatura_senza_nome_11-2);
      }
    </style>
    <linearGradient id="Sfumatura_senza_nome_11" data-name="Sfumatura senza nome 11" x1="203.94" y1="613.02" x2="407.17" y2="613.02" gradientUnits="userSpaceOnUse">
      <stop offset="0" stop-color="#90e0ef"/>
      <stop offset="1" stop-color="#00b4d8"/>
    </linearGradient>
    <linearGradient id="Sfumatura_senza_nome_11-2" data-name="Sfumatura senza nome 11" x1="592.83" y1="613.01" x2="796.06" y2="613.01" xlink:href="#Sfumatura_senza_nome_11"/>
    <linearGradient id="Sfumatura_senza_nome_18" data-name="Sfumatura senza nome 18" x1="296.21" y1="378.98" x2="703.79" y2="378.98" gradientUnits="userSpaceOnUse">
      <stop offset="0" stop-color="#0077b6"/>
      <stop offset="1" stop-color="#03045e"/>
    </linearGradient>
  </defs>
  <path class="cls-2" d="M400.69,644.82l-62.72-88.31c-6.24-8.8-16.19-14.23-26.97-14.74l-1.99-.09c-10.39-.49-20.46,3.65-27.5,11.31-.79.64-1.99,1.73-3.08,3.35-.52.78-.95,1.59-1.31,2.45l-.17-63.09c.4-19.66-15.43-35.82-35.1-35.82h-2.8c-19.39,0-35.11,15.72-35.11,35.11v118.38c0,4.65.93,9.26,2.72,13.55l14.87,35.55c1.56,3.75,3.77,7.19,6.51,10.18,25.09,27.37,50.17,54.75,75.26,82.12,6.65,7.26,16.04,11.39,25.88,11.39h42.88c19.39,0,35.11-15.72,35.11-35.11v-65.9c0-7.28-2.27-14.39-6.48-20.33ZM307.92,629.16c-.95.7-16.36-14.21-25.94-37.8-1.23-3.03-2.06-6.33-2.68-9.57,8.58,21.95,29.8,46.51,28.62,47.37Z"/>
  <path class="cls-3" d="M760.95,459.87h-2.8c-19.67,0-35.5,16.16-35.1,35.82l-.17,63.09c-.36-.86-.79-1.67-1.31-2.45-1.09-1.62-2.29-2.71-3.08-3.35-7.04-7.66-17.11-11.8-27.5-11.31l-1.99.09c-10.78.51-20.73,5.94-26.97,14.74l-62.72,88.31c-4.21,5.94-6.48,13.05-6.48,20.33v65.9c0,19.39,15.72,35.11,35.11,35.11h42.88c9.84,0,19.23-4.13,25.88-11.39,25.09-27.37,50.17-54.75,75.26-82.12,2.74-2.99,4.95-6.43,6.51-10.18l14.87-35.55c1.79-4.29,2.72-8.9,2.72-13.55v-118.38c0-19.39-15.72-35.11-35.11-35.11ZM718.02,591.35c-9.58,23.59-24.99,38.5-25.94,37.8-1.18-.86,20.04-25.42,28.62-47.37-.62,3.24-1.45,6.54-2.68,9.57Z"/>
  <path class="cls-1" d="M674.16,266.95h-348.32c-16.36,0-29.63,13.26-29.63,29.63v164.8c0,16.36,13.26,29.63,29.63,29.63h348.32c16.36,0,29.63-13.26,29.63-29.63v-164.8c0-16.36-13.26-29.63-29.63-29.63ZM430.51,410.49c3.17,1.7,5.39,3.38,6.66,5.05,1.27,1.67,1.9,3.68,1.9,6.03,0,2.75-.75,4.97-2.25,6.67-1.5,1.7-3.49,2.55-5.97,2.55-1.04,0-2.18-.2-3.42-.59-1.24-.39-2.75-1.05-4.54-1.96l-68.15-35.62c-.35-.2-.89-.46-1.64-.78-6.11-3.2-9.17-6.97-9.17-11.28s3.2-8.24,9.6-11.58l.69-.49,68.67-36.3c2.31-1.18,4.01-1.95,5.1-2.31,1.09-.36,2.05-.54,2.85-.54,2.48,0,4.47.85,5.97,2.55,1.5,1.7,2.25,3.92,2.25,6.67,0,2.35-.65,4.4-1.95,6.13-1.3,1.73-3.5,3.45-6.62,5.15l-56.3,30.32,56.3,30.32ZM536.89,314.63c-.35,1.31-1.01,3.14-1.99,5.49l-50.68,123.14c-1.56,3.86-3,6.54-4.32,8.05-1.33,1.5-2.88,2.26-4.67,2.26-2.65,0-5-.95-7.05-2.85-2.05-1.9-3.07-4.25-3.07-7.06,0-1.9.78-4.84,2.34-8.83l.17-.39,50.6-122.94c1.61-3.99,3.08-6.74,4.41-8.24,1.33-1.5,2.88-2.26,4.67-2.26,2.59,0,4.93.95,7.01,2.85,2.08,1.9,3.11,4.25,3.11,7.06,0,1.18-.17,2.42-.52,3.73ZM646.82,391.85c-.58.39-1.04.65-1.38.78l-68.41,35.62c-1.73.92-3.22,1.57-4.45,1.96-1.24.39-2.41.59-3.5.59-2.42,0-4.35-.83-5.79-2.5-1.44-1.67-2.16-3.91-2.16-6.72,0-2.35.62-4.37,1.86-6.03,1.24-1.67,3.44-3.35,6.62-5.05l56.39-30.32-56.39-30.32c-3.06-1.7-5.23-3.42-6.53-5.15-1.3-1.73-1.95-3.78-1.95-6.13,0-2.75.72-4.97,2.16-6.67,1.44-1.7,3.37-2.55,5.79-2.55.92,0,1.97.2,3.16.59,1.18.39,2.87,1.15,5.06,2.26l68.5,36.3.69.49c6.4,3.34,9.6,7.2,9.6,11.58s-3.09,8.14-9.25,11.28Z"/>
</svg>