<?xml version="1.0" encoding="UTF-8"?>
<svg id="Livello_1" data-name="Livello 1" xmlns="http://www.w3.org/2000/svg" xmlns:xlink="http://www.w3.org/1999/xlink" viewBox="0 0 1920 1235.79">
  <defs>
    <style>
      .cls-1 {
        filter: url(#drop-shadow-118);
        stroke: url(#Sfumatura_senza_nome_14);
      }

      .cls-1, .cls-2, .cls-3, .cls-4, .cls-5, .cls-6, .cls-7, .cls-8, .cls-9, .cls-10, .cls-11, .cls-12 {
        stroke-miterlimit: 10;
      }

      .cls-1, .cls-7, .cls-8, .cls-9 {
        fill: #fff;
        stroke-width: 1.15px;
      }

      .cls-13 {
        fill: url(#Sfumatura_senza_nome_11);
      }

      .cls-2 {
        stroke: url(#Sfumatura_senza_nome_190-5);
      }

      .cls-2, .cls-3, .cls-4, .cls-5, .cls-6 {
        stroke-width: 3px;
      }

      .cls-2, .cls-3, .cls-4, .cls-5, .cls-6, .cls-10, .cls-11, .cls-12 {
        fill: none;
      }

      .cls-3 {
        stroke: url(#Sfumatura_senza_nome_190-3);
      }

      .cls-4 {
        stroke: url(#Sfumatura_senza_nome_190-2);
      }

      .cls-5 {
        stroke: url(#Sfumatura_senza_nome_190-4);
      }

      .cls-6 {
        stroke: url(#Sfumatura_senza_nome_190);
      }

      .cls-14 {
        fill: url(#Sfumatura_senza_nome_6);
        opacity: .15;
      }

      .cls-15 {
        fill: #03045e;
      }

      .cls-7 {
        filter: url(#drop-shadow-124);
        stroke: url(#Sfumatura_senza_nome_14-4);
      }

      .cls-8 {
        filter: url(#drop-shadow-120);
        stroke: url(#Sfumatura_senza_nome_14-2);
      }

      .cls-9 {
        filter: url(#drop-shadow-122);
        stroke: url(#Sfumatura_senza_nome_14-3);
      }

      .cls-16 {
        fill: url(#Sfumatura_senza_nome_8-10);
      }

      .cls-17 {
        fill: url(#Sfumatura_senza_nome_11-8);
      }

      .cls-18 {
        fill: url(#Sfumatura_senza_nome_11-9);
      }

      .cls-19 {
        fill: url(#Sfumatura_senza_nome_11-5);
      }

      .cls-20 {
        fill: url(#Sfumatura_senza_nome_11-6);
      }

      .cls-21 {
        fill: url(#Sfumatura_senza_nome_11-7);
      }

      .cls-22 {
        fill: url(#Sfumatura_senza_nome_11-4);
      }

      .cls-23 {
        fill: url(#Sfumatura_senza_nome_11-3);
      }

      .cls-24 {
        fill: url(#Sfumatura_senza_nome_11-2);
      }

      .cls-10 {
        stroke: url(#Sfumatura_senza_nome_190-6);
      }

      .cls-10, .cls-11, .cls-12 {
        stroke-width: 1.73px;
      }

      .cls-11 {
        stroke: url(#Sfumatura_senza_nome_190-7);
      }

      .cls-12 {
        stroke: url(#Sfumatura_senza_nome_190-8);
      }

      .cls-25 {
        fill: url(#Sfumatura_senza_nome_113-2);
        filter: url(#drop-shadow-119);
      }

      .cls-26 {
        fill: url(#Sfumatura_senza_nome_113-4);
        filter: url(#drop-shadow-121);
      }

      .cls-27 {
        fill: url(#Sfumatura_senza_nome_113-8);
        filter: url(#drop-shadow-125);
      }

      .cls-28 {
        fill: url(#Sfumatura_senza_nome_113-6);
        filter: url(#drop-shadow-123);
      }

      .cls-29 {
        fill: url(#Sfumatura_senza_nome_113-30);
      }

      .cls-30 {
        fill: url(#Sfumatura_senza_nome_113-13);
      }

      .cls-31 {
        fill: url(#Sfumatura_senza_nome_113-18);
      }

      .cls-32 {
        fill: url(#Sfumatura_senza_nome_113-19);
      }

      .cls-33 {
        fill: url(#Sfumatura_senza_nome_113-11);
      }

      .cls-34 {
        fill: url(#Sfumatura_senza_nome_113-12);
      }

      .cls-35 {
        fill: url(#Sfumatura_senza_nome_113-10);
      }

      .cls-36 {
        fill: url(#Sfumatura_senza_nome_113-15);
      }

      .cls-37 {
        fill: url(#Sfumatura_senza_nome_113-16);
      }

      .cls-38 {
        fill: url(#Sfumatura_senza_nome_113-14);
      }

      .cls-39 {
        fill: url(#Sfumatura_senza_nome_113-17);
      }

      .cls-40 {
        fill: url(#Sfumatura_senza_nome_113-29);
      }

      .cls-41 {
        fill: url(#Sfumatura_senza_nome_113-23);
      }

      .cls-42 {
        fill: url(#Sfumatura_senza_nome_113-25);
      }

      .cls-43 {
        fill: url(#Sfumatura_senza_nome_113-22);
      }

      .cls-44 {
        fill: url(#Sfumatura_senza_nome_113-26);
      }

      .cls-45 {
        fill: url(#Sfumatura_senza_nome_113-24);
      }

      .cls-46 {
        fill: url(#Sfumatura_senza_nome_113-21);
      }

      .cls-47 {
        fill: url(#Sfumatura_senza_nome_113-28);
      }

      .cls-48 {
        fill: url(#Sfumatura_senza_nome_113-27);
      }

      .cls-49 {
        fill: url(#Sfumatura_senza_nome_113-20);
      }

      .cls-50 {
        fill: url(#Sfumatura_senza_nome_113-31);
      }

      .cls-51 {
        fill: url(#Sfumatura_senza_nome_113-32);
      }

      .cls-52 {
        fill: url(#Sfumatura_senza_nome_11-16);
      }

      .cls-53 {
        fill: url(#Sfumatura_senza_nome_11-10);
      }

      .cls-54 {
        fill: url(#Sfumatura_senza_nome_11-15);
      }

      .cls-55 {
        fill: url(#Sfumatura_senza_nome_11-12);
      }

      .cls-56 {
        fill: url(#Sfumatura_senza_nome_11-11);
      }

      .cls-57 {
        fill: url(#Sfumatura_senza_nome_11-13);
      }

      .cls-58 {
        fill: url(#Sfumatura_senza_nome_11-18);
      }

      .cls-59 {
        fill: url(#Sfumatura_senza_nome_11-19);
      }

      .cls-60 {
        fill: url(#Sfumatura_senza_nome_11-17);
      }

      .cls-61 {
        fill: url(#Sfumatura_senza_nome_11-14);
      }

      .cls-62 {
        fill: url(#Sfumatura_senza_nome_11-25);
      }

      .cls-63 {
        fill: url(#Sfumatura_senza_nome_11-24);
      }

      .cls-64 {
        fill: url(#Sfumatura_senza_nome_11-23);
      }

      .cls-65 {
        fill: url(#Sfumatura_senza_nome_11-26);
      }

      .cls-66 {
        fill: url(#Sfumatura_senza_nome_11-21);
      }

      .cls-67 {
        fill: url(#Sfumatura_senza_nome_11-22);
      }

      .cls-68 {
        fill: url(#Sfumatura_senza_nome_11-20);
      }

      .cls-69 {
        fill: url(#Sfumatura_senza_nome_11-30);
      }

      .cls-70 {
        fill: url(#Sfumatura_senza_nome_11-31);
      }

      .cls-71 {
        fill: url(#Sfumatura_senza_nome_11-32);
      }

      .cls-72 {
        fill: url(#Sfumatura_senza_nome_11-33);
      }

      .cls-73 {
        fill: url(#Sfumatura_senza_nome_11-34);
      }

      .cls-74 {
        fill: url(#Sfumatura_senza_nome_11-27);
      }

      .cls-75 {
        fill: url(#Sfumatura_senza_nome_11-28);
      }

      .cls-76 {
        fill: url(#Sfumatura_senza_nome_11-29);
      }

      .cls-77 {
        fill: url(#Sfumatura_senza_nome_113-3);
      }

      .cls-78 {
        fill: url(#Sfumatura_senza_nome_113-5);
      }

      .cls-79 {
        fill: url(#Sfumatura_senza_nome_113-7);
      }

      .cls-80 {
        fill: url(#Sfumatura_senza_nome_113-9);
      }

      .cls-81 {
        fill: url(#Sfumatura_senza_nome_8);
      }

      .cls-82 {
        fill: url(#Sfumatura_senza_nome_113);
      }

      .cls-83 {
        fill: url(#Sfumatura_senza_nome_8-6);
      }

      .cls-84 {
        fill: url(#Sfumatura_senza_nome_8-9);
      }

      .cls-85 {
        fill: url(#Sfumatura_senza_nome_8-2);
      }

      .cls-86 {
        fill: url(#Sfumatura_senza_nome_8-7);
      }

      .cls-87 {
        fill: url(#Sfumatura_senza_nome_8-8);
      }

      .cls-88 {
        fill: url(#Sfumatura_senza_nome_8-5);
      }

      .cls-89 {
        fill: url(#Sfumatura_senza_nome_8-3);
      }

      .cls-90 {
        fill: url(#Sfumatura_senza_nome_8-4);
      }
    </style>
    <linearGradient id="Sfumatura_senza_nome_6" data-name="Sfumatura senza nome 6" x1="138.29" y1="625.44" x2="1780.44" y2="625.44" gradientUnits="userSpaceOnUse">
      <stop offset="0" stop-color="#a1ddec"/>
      <stop offset="1" stop-color="#50b0d3"/>
    </linearGradient>
    <linearGradient id="Sfumatura_senza_nome_190" data-name="Sfumatura senza nome 190" x1="619.67" y1="561.43" x2="797.36" y2="561.43" gradientUnits="userSpaceOnUse">
      <stop offset="0" stop-color="#030660"/>
      <stop offset="1" stop-color="#0076b5"/>
    </linearGradient>
    <linearGradient id="Sfumatura_senza_nome_190-2" data-name="Sfumatura senza nome 190" x1="631.78" y1="686.98" x2="797.37" y2="686.98" xlink:href="#Sfumatura_senza_nome_190"/>
    <linearGradient id="Sfumatura_senza_nome_190-3" data-name="Sfumatura senza nome 190" x1="1122.63" y1="547.25" x2="1330.77" y2="547.25" xlink:href="#Sfumatura_senza_nome_190"/>
    <linearGradient id="Sfumatura_senza_nome_190-4" data-name="Sfumatura senza nome 190" x1="1199.08" y1="670.46" x2="1199.09" y2="670.46" xlink:href="#Sfumatura_senza_nome_190"/>
    <linearGradient id="Sfumatura_senza_nome_190-5" data-name="Sfumatura senza nome 190" x1="1122.63" y1="703.9" x2="1330.78" y2="703.9" xlink:href="#Sfumatura_senza_nome_190"/>
    <linearGradient id="Sfumatura_senza_nome_11" data-name="Sfumatura senza nome 11" x1="304.9" y1="938.92" x2="325.06" y2="938.92" gradientUnits="userSpaceOnUse">
      <stop offset="0" stop-color="#90e0ef"/>
      <stop offset="1" stop-color="#00b4d8"/>
    </linearGradient>
    <linearGradient id="Sfumatura_senza_nome_11-2" data-name="Sfumatura senza nome 11" x1="333.82" y1="923.24" x2="353.98" y2="923.24" xlink:href="#Sfumatura_senza_nome_11"/>
    <linearGradient id="Sfumatura_senza_nome_11-3" data-name="Sfumatura senza nome 11" x1="362.75" y1="947.76" x2="382.91" y2="947.76" xlink:href="#Sfumatura_senza_nome_11"/>
    <linearGradient id="Sfumatura_senza_nome_11-4" data-name="Sfumatura senza nome 11" x1="391.68" y1="960.51" x2="411.84" y2="960.51" xlink:href="#Sfumatura_senza_nome_11"/>
    <linearGradient id="Sfumatura_senza_nome_11-5" data-name="Sfumatura senza nome 11" x1="275.97" y1="971.67" x2="296.13" y2="971.67" xlink:href="#Sfumatura_senza_nome_11"/>
    <linearGradient id="Sfumatura_senza_nome_190-6" data-name="Sfumatura senza nome 190" x1="401.86" y1="1118.47" x2="778.15" y2="1118.47" gradientTransform="translate(0 2137.24) scale(1 -1)" xlink:href="#Sfumatura_senza_nome_190"/>
    <linearGradient id="Sfumatura_senza_nome_190-7" data-name="Sfumatura senza nome 190" x1="-6827.78" y1="268.12" x2="-6447.49" y2="268.12" gradientTransform="translate(-5298.61) rotate(-180) scale(1 -1)" xlink:href="#Sfumatura_senza_nome_190"/>
    <linearGradient id="Sfumatura_senza_nome_11-6" data-name="Sfumatura senza nome 11" x1="-5932.35" y1="-12824.63" x2="-5871.74" y2="-12824.63" gradientTransform="translate(5847.92 -9860.37) scale(.73 -.84)" xlink:href="#Sfumatura_senza_nome_11"/>
    <linearGradient id="Sfumatura_senza_nome_11-7" data-name="Sfumatura senza nome 11" x1="-9720.49" y1="-7931.79" x2="-9610.64" y2="-7931.79" gradientTransform="translate(-5102.9 -6115.72) rotate(-90) scale(.73 -.84)" xlink:href="#Sfumatura_senza_nome_11"/>
    <linearGradient id="Sfumatura_senza_nome_11-8" data-name="Sfumatura senza nome 11" x1="-2389.98" y1="-14261.37" x2="-2280.13" y2="-14261.37" gradientTransform="translate(3438.78 -11067.36) scale(.8 -.84)" xlink:href="#Sfumatura_senza_nome_11"/>
    <linearGradient id="Sfumatura_senza_nome_11-9" data-name="Sfumatura senza nome 11" x1="-30536.58" y1="-4262.68" x2="-30426.73" y2="-4262.68" gradientTransform="translate(-2004.79 -6099.89) rotate(-90) scale(.23 -.84)" xlink:href="#Sfumatura_senza_nome_11"/>
    <linearGradient id="Sfumatura_senza_nome_11-10" data-name="Sfumatura senza nome 11" x1="-17887.54" y1="-1791.34" x2="-17777.69" y2="-1791.34" gradientTransform="translate(34.85 -5452.06) rotate(-90) scale(.36 -.84)" xlink:href="#Sfumatura_senza_nome_11"/>
    <linearGradient id="Sfumatura_senza_nome_11-11" data-name="Sfumatura senza nome 11" x1="1991.95" y1="-14487.46" x2="2052.57" y2="-14487.46" gradientTransform="translate(560.86 -11286.26) scale(.51 -.84)" xlink:href="#Sfumatura_senza_nome_11"/>
    <linearGradient id="Sfumatura_senza_nome_11-12" data-name="Sfumatura senza nome 11" x1="-10876.22" y1="-11304.2" x2="-10815.6" y2="-11304.2" gradientTransform="translate(7139.33 -8585.4) scale(.51 -.84)" xlink:href="#Sfumatura_senza_nome_11"/>
    <linearGradient id="Sfumatura_senza_nome_11-13" data-name="Sfumatura senza nome 11" x1="-12663.66" y1="-4518.4" x2="-12603.04" y2="-4518.4" gradientTransform="translate(-2158.8 -5912.22) rotate(-90) scale(.54 -.84)" xlink:href="#Sfumatura_senza_nome_11"/>
    <linearGradient id="Sfumatura_senza_nome_11-14" data-name="Sfumatura senza nome 11" x1="1047.75" y1="-14620.92" x2="1108.37" y2="-14620.92" gradientTransform="translate(1312.1 -11337.34) scale(.29 -.84)" xlink:href="#Sfumatura_senza_nome_11"/>
    <linearGradient id="Sfumatura_senza_nome_11-15" data-name="Sfumatura senza nome 11" x1="2843.84" y1="-14523.75" x2="2904.46" y2="-14523.75" gradientTransform="translate(126.36 -11205.37) scale(.51 -.84)" xlink:href="#Sfumatura_senza_nome_11"/>
    <linearGradient id="Sfumatura_senza_nome_11-16" data-name="Sfumatura senza nome 11" x1="-16435.71" y1="-12615.59" x2="-16375.09" y2="-12615.59" gradientTransform="translate(6331.22 -9622.37) scale(.29 -.84)" xlink:href="#Sfumatura_senza_nome_11"/>
    <linearGradient id="Sfumatura_senza_nome_11-17" data-name="Sfumatura senza nome 11" x1="1501.12" y1="-12865.27" x2="1535.04" y2="-12865.27" gradientTransform="translate(0 -11925.03) scale(1 -1)" xlink:href="#Sfumatura_senza_nome_11"/>
    <linearGradient id="Sfumatura_senza_nome_11-18" data-name="Sfumatura senza nome 11" x1="1546.62" y1="-12811.28" x2="1580.54" y2="-12811.28" gradientTransform="translate(0 -11925.03) scale(1 -1)" xlink:href="#Sfumatura_senza_nome_11"/>
    <linearGradient id="Sfumatura_senza_nome_11-19" data-name="Sfumatura senza nome 11" x1="1546.18" y1="-12919.6" x2="1580.1" y2="-12919.6" gradientTransform="translate(0 -11925.03) scale(1 -1)" xlink:href="#Sfumatura_senza_nome_11"/>
    <linearGradient id="Sfumatura_senza_nome_11-20" data-name="Sfumatura senza nome 11" x1="1605.15" y1="-12919.6" x2="1639.07" y2="-12919.6" gradientTransform="translate(0 -11925.03) scale(1 -1)" xlink:href="#Sfumatura_senza_nome_11"/>
    <linearGradient id="Sfumatura_senza_nome_11-21" data-name="Sfumatura senza nome 11" x1="1628.23" y1="-12865.27" x2="1662.15" y2="-12865.27" gradientTransform="translate(0 -11925.03) scale(1 -1)" xlink:href="#Sfumatura_senza_nome_11"/>
    <linearGradient id="Sfumatura_senza_nome_11-22" data-name="Sfumatura senza nome 11" x1="1605.15" y1="-12808.3" x2="1639.07" y2="-12808.3" gradientTransform="translate(0 -11925.03) scale(1 -1)" xlink:href="#Sfumatura_senza_nome_11"/>
    <linearGradient id="Sfumatura_senza_nome_11-23" data-name="Sfumatura senza nome 11" x1="1564.54" y1="-12871.51" x2="1618.67" y2="-12871.51" gradientTransform="translate(0 -11925.03) scale(1 -1)" xlink:href="#Sfumatura_senza_nome_11"/>
    <linearGradient id="Sfumatura_senza_nome_190-8" data-name="Sfumatura senza nome 190" x1="-7048.46" y1="984.51" x2="-6672.17" y2="984.51" gradientTransform="translate(-5521.29 2003.28) rotate(-180)" xlink:href="#Sfumatura_senza_nome_190"/>
    <linearGradient id="Sfumatura_senza_nome_8" data-name="Sfumatura senza nome 8" x1="400.6" y1="451.6" x2="675.52" y2="451.6" gradientUnits="userSpaceOnUse">
      <stop offset="0" stop-color="#00b4d8"/>
      <stop offset="1" stop-color="#0077b6"/>
    </linearGradient>
    <linearGradient id="Sfumatura_senza_nome_11-24" data-name="Sfumatura senza nome 11" x1="455.75" y1="426.63" x2="620.38" y2="426.63" xlink:href="#Sfumatura_senza_nome_11"/>
    <linearGradient id="Sfumatura_senza_nome_8-2" data-name="Sfumatura senza nome 8" x1="504.69" y1="-12408.1" x2="571.45" y2="-12408.1" gradientTransform="translate(0 -11925.03) scale(1 -1)" xlink:href="#Sfumatura_senza_nome_8"/>
    <linearGradient id="Sfumatura_senza_nome_113" data-name="Sfumatura senza nome 113" x1="502.86" y1="341.5" x2="573.27" y2="341.5" gradientUnits="userSpaceOnUse">
      <stop offset="0" stop-color="#0077b6"/>
      <stop offset="1" stop-color="#03045e"/>
    </linearGradient>
    <linearGradient id="Sfumatura_senza_nome_14" data-name="Sfumatura senza nome 14" x1="580.87" y1="515.76" x2="639.36" y2="515.76" gradientUnits="userSpaceOnUse">
      <stop offset="0" stop-color="#90e0ef"/>
      <stop offset="1" stop-color="#00b4d8"/>
    </linearGradient>
    <filter id="drop-shadow-118" x="575.84" y="477.49" width="71" height="78" filterUnits="userSpaceOnUse">
      <feOffset dx="1" dy="1"/>
      <feGaussianBlur result="blur" stdDeviation="2"/>
      <feFlood flood-color="#000" flood-opacity=".2"/>
      <feComposite in2="blur" operator="in"/>
      <feComposite in="SourceGraphic"/>
    </filter>
    <linearGradient id="Sfumatura_senza_nome_113-2" data-name="Sfumatura senza nome 113" x1="597.87" y1="507.88" x2="622.36" y2="507.88" xlink:href="#Sfumatura_senza_nome_113"/>
    <filter id="drop-shadow-119" x="592.84" y="484.49" width="37" height="48" filterUnits="userSpaceOnUse">
      <feOffset dx="1" dy="1"/>
      <feGaussianBlur result="blur-2" stdDeviation="2"/>
      <feFlood flood-color="#000" flood-opacity=".2"/>
      <feComposite in2="blur-2" operator="in"/>
      <feComposite in="SourceGraphic"/>
    </filter>
    <linearGradient id="Sfumatura_senza_nome_8-3" data-name="Sfumatura senza nome 8" x1="400.6" y1="845.8" x2="675.53" y2="845.8" xlink:href="#Sfumatura_senza_nome_8"/>
    <linearGradient id="Sfumatura_senza_nome_11-25" data-name="Sfumatura senza nome 11" x1="455.75" y1="820.82" x2="620.38" y2="820.82" xlink:href="#Sfumatura_senza_nome_11"/>
    <linearGradient id="Sfumatura_senza_nome_8-4" data-name="Sfumatura senza nome 8" x1="504.69" y1="-12802.29" x2="571.45" y2="-12802.29" gradientTransform="translate(0 -11925.03) scale(1 -1)" xlink:href="#Sfumatura_senza_nome_8"/>
    <linearGradient id="Sfumatura_senza_nome_113-3" data-name="Sfumatura senza nome 113" x1="502.86" y1="735.69" x2="573.28" y2="735.69" xlink:href="#Sfumatura_senza_nome_113"/>
    <linearGradient id="Sfumatura_senza_nome_14-2" data-name="Sfumatura senza nome 14" y1="737.28" y2="737.28" xlink:href="#Sfumatura_senza_nome_14"/>
    <filter id="drop-shadow-120" x="575.84" y="698.49" width="71" height="79" filterUnits="userSpaceOnUse">
      <feOffset dx="1" dy="1"/>
      <feGaussianBlur result="blur-3" stdDeviation="2"/>
      <feFlood flood-color="#000" flood-opacity=".2"/>
      <feComposite in2="blur-3" operator="in"/>
      <feComposite in="SourceGraphic"/>
    </filter>
    <linearGradient id="Sfumatura_senza_nome_113-4" data-name="Sfumatura senza nome 113" x1="597.87" y1="729.41" x2="622.36" y2="729.41" xlink:href="#Sfumatura_senza_nome_113"/>
    <filter id="drop-shadow-121" x="592.84" y="706.49" width="37" height="48" filterUnits="userSpaceOnUse">
      <feOffset dx="1" dy="1"/>
      <feGaussianBlur result="blur-4" stdDeviation="2"/>
      <feFlood flood-color="#000" flood-opacity=".2"/>
      <feComposite in2="blur-4" operator="in"/>
      <feComposite in="SourceGraphic"/>
    </filter>
    <linearGradient id="Sfumatura_senza_nome_8-5" data-name="Sfumatura senza nome 8" x1="1243.15" y1="845.8" x2="1518.08" y2="845.8" xlink:href="#Sfumatura_senza_nome_8"/>
    <linearGradient id="Sfumatura_senza_nome_11-26" data-name="Sfumatura senza nome 11" x1="1298.3" y1="820.82" x2="1462.93" y2="820.82" xlink:href="#Sfumatura_senza_nome_11"/>
    <linearGradient id="Sfumatura_senza_nome_8-6" data-name="Sfumatura senza nome 8" x1="1347.24" y1="-12802.29" x2="1414" y2="-12802.29" gradientTransform="translate(0 -11925.03) scale(1 -1)" xlink:href="#Sfumatura_senza_nome_8"/>
    <linearGradient id="Sfumatura_senza_nome_113-5" data-name="Sfumatura senza nome 113" x1="1345.41" y1="735.69" x2="1415.82" y2="735.69" xlink:href="#Sfumatura_senza_nome_113"/>
    <linearGradient id="Sfumatura_senza_nome_14-3" data-name="Sfumatura senza nome 14" x1="1280.64" y1="736.58" x2="1339.13" y2="736.58" xlink:href="#Sfumatura_senza_nome_14"/>
    <filter id="drop-shadow-122" x="1274.84" y="698.49" width="71" height="78" filterUnits="userSpaceOnUse">
      <feOffset dx="1" dy="1"/>
      <feGaussianBlur result="blur-5" stdDeviation="2"/>
      <feFlood flood-color="#000" flood-opacity=".2"/>
      <feComposite in2="blur-5" operator="in"/>
      <feComposite in="SourceGraphic"/>
    </filter>
    <linearGradient id="Sfumatura_senza_nome_113-6" data-name="Sfumatura senza nome 113" x1="1297.64" y1="728.71" x2="1322.13" y2="728.71" xlink:href="#Sfumatura_senza_nome_113"/>
    <filter id="drop-shadow-123" x="1291.84" y="705.49" width="38" height="48" filterUnits="userSpaceOnUse">
      <feOffset dx="1" dy="1"/>
      <feGaussianBlur result="blur-6" stdDeviation="2"/>
      <feFlood flood-color="#000" flood-opacity=".2"/>
      <feComposite in2="blur-6" operator="in"/>
      <feComposite in="SourceGraphic"/>
    </filter>
    <linearGradient id="Sfumatura_senza_nome_8-7" data-name="Sfumatura senza nome 8" x1="1243.16" y1="458.16" x2="1518.08" y2="458.16" xlink:href="#Sfumatura_senza_nome_8"/>
    <linearGradient id="Sfumatura_senza_nome_11-27" data-name="Sfumatura senza nome 11" x1="1298.3" y1="433.19" x2="1462.93" y2="433.19" xlink:href="#Sfumatura_senza_nome_11"/>
    <linearGradient id="Sfumatura_senza_nome_8-8" data-name="Sfumatura senza nome 8" x1="1347.24" y1="-12414.66" x2="1414.01" y2="-12414.66" gradientTransform="translate(0 -11925.03) scale(1 -1)" xlink:href="#Sfumatura_senza_nome_8"/>
    <linearGradient id="Sfumatura_senza_nome_113-7" data-name="Sfumatura senza nome 113" x1="1345.42" y1="348.06" x2="1415.83" y2="348.06" xlink:href="#Sfumatura_senza_nome_113"/>
    <linearGradient id="Sfumatura_senza_nome_14-4" data-name="Sfumatura senza nome 14" x1="1280.64" y1="515.06" x2="1339.13" y2="515.06" xlink:href="#Sfumatura_senza_nome_14"/>
    <filter id="drop-shadow-124" x="1274.84" y="476.49" width="71" height="79" filterUnits="userSpaceOnUse">
      <feOffset dx="1" dy="1"/>
      <feGaussianBlur result="blur-7" stdDeviation="2"/>
      <feFlood flood-color="#000" flood-opacity=".2"/>
      <feComposite in2="blur-7" operator="in"/>
      <feComposite in="SourceGraphic"/>
    </filter>
    <linearGradient id="Sfumatura_senza_nome_113-8" data-name="Sfumatura senza nome 113" x1="1297.64" y1="507.19" x2="1322.13" y2="507.19" xlink:href="#Sfumatura_senza_nome_113"/>
    <filter id="drop-shadow-125" x="1291.84" y="484.49" width="38" height="48" filterUnits="userSpaceOnUse">
      <feOffset dx="1" dy="1"/>
      <feGaussianBlur result="blur-8" stdDeviation="2"/>
      <feFlood flood-color="#000" flood-opacity=".2"/>
      <feComposite in2="blur-8" operator="in"/>
      <feComposite in="SourceGraphic"/>
    </filter>
    <linearGradient id="Sfumatura_senza_nome_11-28" data-name="Sfumatura senza nome 11" x1="1533.68" y1="349.62" x2="1620" y2="349.62" xlink:href="#Sfumatura_senza_nome_11"/>
    <linearGradient id="Sfumatura_senza_nome_113-9" data-name="Sfumatura senza nome 113" x1="1537.1" y1="322.81" x2="1602.15" y2="322.81" xlink:href="#Sfumatura_senza_nome_113"/>
    <linearGradient id="Sfumatura_senza_nome_8-9" data-name="Sfumatura senza nome 8" x1="796.46" y1="626.74" x2="1125.69" y2="626.74" xlink:href="#Sfumatura_senza_nome_8"/>
    <linearGradient id="Sfumatura_senza_nome_11-29" data-name="Sfumatura senza nome 11" x1="862.5" y1="567.9" x2="1059.65" y2="567.9" xlink:href="#Sfumatura_senza_nome_11"/>
    <linearGradient id="Sfumatura_senza_nome_8-10" data-name="Sfumatura senza nome 8" x1="921.11" y1="-12589.45" x2="1001.05" y2="-12589.45" gradientTransform="translate(0 -11925.03) scale(1 -1)" xlink:href="#Sfumatura_senza_nome_8"/>
    <linearGradient id="Sfumatura_senza_nome_113-10" data-name="Sfumatura senza nome 113" x1="897.4" y1="538.7" x2="1024.75" y2="538.7" xlink:href="#Sfumatura_senza_nome_113"/>
    <linearGradient id="Sfumatura_senza_nome_11-30" data-name="Sfumatura senza nome 11" x1="958.64" y1="540.17" x2="963.51" y2="540.17" xlink:href="#Sfumatura_senza_nome_11"/>
    <linearGradient id="Sfumatura_senza_nome_11-31" data-name="Sfumatura senza nome 11" x1="10044.66" y1="-8337.72" x2="10049.53" y2="-8337.72" gradientTransform="translate(-9086.02 8920.53)" xlink:href="#Sfumatura_senza_nome_11"/>
    <linearGradient id="Sfumatura_senza_nome_113-11" data-name="Sfumatura senza nome 113" x1="956.66" y1="582.81" x2="965.49" y2="582.81" xlink:href="#Sfumatura_senza_nome_113"/>
    <linearGradient id="Sfumatura_senza_nome_11-32" data-name="Sfumatura senza nome 11" x1="905" y1="504.35" x2="1017.45" y2="504.35" xlink:href="#Sfumatura_senza_nome_11"/>
    <linearGradient id="Sfumatura_senza_nome_113-12" data-name="Sfumatura senza nome 113" x1="914.29" y1="504.35" x2="921.71" y2="504.35" xlink:href="#Sfumatura_senza_nome_113"/>
    <linearGradient id="Sfumatura_senza_nome_113-13" data-name="Sfumatura senza nome 113" x1="929.76" y1="504.35" x2="937.18" y2="504.35" xlink:href="#Sfumatura_senza_nome_113"/>
    <linearGradient id="Sfumatura_senza_nome_113-14" data-name="Sfumatura senza nome 113" x1="945.23" y1="504.35" x2="952.65" y2="504.35" xlink:href="#Sfumatura_senza_nome_113"/>
    <linearGradient id="Sfumatura_senza_nome_113-15" data-name="Sfumatura senza nome 113" x1="972.1" y1="500.64" x2="981.13" y2="500.64" xlink:href="#Sfumatura_senza_nome_113"/>
    <linearGradient id="Sfumatura_senza_nome_113-16" data-name="Sfumatura senza nome 113" x1="972.1" y1="508.06" x2="981.13" y2="508.06" xlink:href="#Sfumatura_senza_nome_113"/>
    <linearGradient id="Sfumatura_senza_nome_113-17" data-name="Sfumatura senza nome 113" x1="984.71" y1="500.64" x2="1007.04" y2="500.64" xlink:href="#Sfumatura_senza_nome_113"/>
    <linearGradient id="Sfumatura_senza_nome_113-18" data-name="Sfumatura senza nome 113" x1="984.71" y1="508.06" x2="1007.04" y2="508.06" xlink:href="#Sfumatura_senza_nome_113"/>
    <linearGradient id="Sfumatura_senza_nome_11-33" data-name="Sfumatura senza nome 11" x1="904.85" y1="529.21" x2="1017.3" y2="529.21" xlink:href="#Sfumatura_senza_nome_11"/>
    <linearGradient id="Sfumatura_senza_nome_113-19" data-name="Sfumatura senza nome 113" x1="914.14" y1="529.21" x2="921.56" y2="529.21" xlink:href="#Sfumatura_senza_nome_113"/>
    <linearGradient id="Sfumatura_senza_nome_113-20" data-name="Sfumatura senza nome 113" x1="929.61" y1="529.21" x2="937.03" y2="529.21" xlink:href="#Sfumatura_senza_nome_113"/>
    <linearGradient id="Sfumatura_senza_nome_113-21" data-name="Sfumatura senza nome 113" x1="945.08" y1="529.21" x2="952.49" y2="529.21" xlink:href="#Sfumatura_senza_nome_113"/>
    <linearGradient id="Sfumatura_senza_nome_113-22" data-name="Sfumatura senza nome 113" x1="971.95" y1="525.51" x2="980.98" y2="525.51" xlink:href="#Sfumatura_senza_nome_113"/>
    <linearGradient id="Sfumatura_senza_nome_113-23" data-name="Sfumatura senza nome 113" x1="971.95" y1="532.92" x2="980.98" y2="532.92" xlink:href="#Sfumatura_senza_nome_113"/>
    <linearGradient id="Sfumatura_senza_nome_113-24" data-name="Sfumatura senza nome 113" x1="984.55" y1="525.51" x2="1006.89" y2="525.51" xlink:href="#Sfumatura_senza_nome_113"/>
    <linearGradient id="Sfumatura_senza_nome_113-25" data-name="Sfumatura senza nome 113" x1="984.55" y1="532.92" x2="1006.89" y2="532.92" xlink:href="#Sfumatura_senza_nome_113"/>
    <linearGradient id="Sfumatura_senza_nome_11-34" data-name="Sfumatura senza nome 11" x1="905" y1="554.08" x2="1017.45" y2="554.08" xlink:href="#Sfumatura_senza_nome_11"/>
    <linearGradient id="Sfumatura_senza_nome_113-26" data-name="Sfumatura senza nome 113" x1="914.29" y1="554.08" x2="921.71" y2="554.08" xlink:href="#Sfumatura_senza_nome_113"/>
    <linearGradient id="Sfumatura_senza_nome_113-27" data-name="Sfumatura senza nome 113" x1="929.76" y1="554.08" x2="937.18" y2="554.08" xlink:href="#Sfumatura_senza_nome_113"/>
    <linearGradient id="Sfumatura_senza_nome_113-28" data-name="Sfumatura senza nome 113" x1="945.23" y1="554.08" x2="952.65" y2="554.08" xlink:href="#Sfumatura_senza_nome_113"/>
    <linearGradient id="Sfumatura_senza_nome_113-29" data-name="Sfumatura senza nome 113" x1="972.1" y1="550.37" x2="981.13" y2="550.37" xlink:href="#Sfumatura_senza_nome_113"/>
    <linearGradient id="Sfumatura_senza_nome_113-30" data-name="Sfumatura senza nome 113" x1="972.1" y1="557.78" x2="981.13" y2="557.78" xlink:href="#Sfumatura_senza_nome_113"/>
    <linearGradient id="Sfumatura_senza_nome_113-31" data-name="Sfumatura senza nome 113" x1="984.71" y1="550.37" x2="1007.04" y2="550.37" xlink:href="#Sfumatura_senza_nome_113"/>
    <linearGradient id="Sfumatura_senza_nome_113-32" data-name="Sfumatura senza nome 113" x1="984.71" y1="557.78" x2="1007.04" y2="557.78" xlink:href="#Sfumatura_senza_nome_113"/>
  </defs>
  <rect class="cls-14" x="138.29" y="125.18" width="1642.14" height="1000.52" rx="130.01" ry="130.01"/>
  <path class="cls-6" d="M620.59,538.38c12.26,9.38,27.19,18.83,45,26.75,1.03.46,2.06.91,3.09,1.35,17.41,7.43,35.86,12.15,54.65,14.42l14.86,1.79c17.29,2.08,34.78,2,52.03-.37,2.55-.36,4.86-.72,6.9-1.06"/>
  <path class="cls-4" d="M632.61,706.52c9.43-6.23,21.01-13.92,32.98-19.24,2.2-.98,4.88-2.11,7.82-3.3,17.7-7.17,36.27-12,55.22-14.44,9.49-1.22,19.05-1.84,28.6-1.84s19.45.64,29.11,1.91c4.78.63,8.72,1.19,10.78,1.54"/>
  <path class="cls-3" d="M1122.88,580.88c2.38.4,5.12.82,8.19,1.23,16.48,2.18,33.18,2.19,49.68.2l16.91-2.04c18.47-2.22,36.58-6.88,53.68-14.19,1.02-.43,2.04-.88,3.06-1.33,36.77-16.36,61.33-39.23,75.26-54.51"/>
  <line class="cls-5" x1="1199.09" y1="670.46" x2="1199.08" y2="670.46"/>
  <path class="cls-2" d="M1329.67,741.41c-13.93-15.29-38.49-38.15-75.26-54.51-2.33-1.03-5.18-2.29-8.32-3.64-17.78-7.65-36.58-12.69-55.81-14.97h0c-14.97-1.77-30.09-1.86-45.08-.25-9.74,1.05-19,2.17-22.32,2.73"/>
  <g>
    <path class="cls-15" d="M1311.61,692.73h-8.49l-1.8,4.17h-1.94l7.15-16.26h1.64l7.15,16.26h-1.91l-1.8-4.17ZM1310.94,691.16l-3.57-8.32-3.57,8.32h7.15Z"/>
    <path class="cls-15" d="M1319.33,696.35c-.82-.48-1.44-1.15-1.88-2.02-.44-.87-.66-1.89-.66-3.05s.23-2.19.68-3.08c.45-.88,1.09-1.57,1.91-2.06.82-.49,1.79-.74,2.89-.74.75,0,1.49.13,2.21.4.72.27,1.31.63,1.75,1.07l-.62,1.38c-1.06-.86-2.14-1.29-3.23-1.29-1.15,0-2.05.38-2.7,1.13-.65.75-.97,1.81-.97,3.18s.32,2.4.97,3.14c.65.74,1.54,1.11,2.7,1.11,1.09,0,2.17-.43,3.23-1.29l.62,1.38c-.48.45-1.08.8-1.8,1.06-.72.26-1.47.39-2.24.39-1.11,0-2.07-.24-2.88-.71Z"/>
    <path class="cls-15" d="M1330.38,696.35c-.81-.48-1.44-1.15-1.88-2.02-.44-.87-.66-1.89-.66-3.05s.23-2.19.68-3.08c.45-.88,1.09-1.57,1.91-2.06.82-.49,1.79-.74,2.89-.74.75,0,1.49.13,2.21.4.72.27,1.31.63,1.75,1.07l-.62,1.38c-1.06-.86-2.14-1.29-3.23-1.29-1.15,0-2.05.38-2.7,1.13-.65.75-.97,1.81-.97,3.18s.32,2.4.97,3.14c.65.74,1.54,1.11,2.7,1.11,1.09,0,2.17-.43,3.23-1.29l.62,1.38c-.48.45-1.08.8-1.8,1.06-.72.26-1.47.39-2.24.39-1.11,0-2.07-.24-2.88-.71Z"/>
    <path class="cls-15" d="M1348.96,691.58h-8.21c.06,1.31.42,2.29,1.06,2.96s1.56,1,2.74,1c1.31,0,2.5-.45,3.6-1.34l.62,1.36c-.49.46-1.12.83-1.89,1.09s-1.55.4-2.35.4c-1.75,0-3.13-.51-4.14-1.54-1.01-1.03-1.51-2.45-1.51-4.27,0-1.15.22-2.17.67-3.06.45-.88,1.07-1.57,1.88-2.06.81-.49,1.73-.74,2.76-.74,1.49,0,2.66.49,3.5,1.46.84.98,1.27,2.32,1.27,4.02v.69ZM1341.85,687.77c-.59.61-.94,1.48-1.05,2.61h6.53c-.03-1.14-.32-2.01-.85-2.62s-1.29-.91-2.26-.91-1.77.31-2.36.92Z"/>
    <path class="cls-15" d="M1351.01,695.61l.62-1.38c.6.48,1.21.82,1.83,1.03.62.21,1.33.31,2.11.31.83,0,1.46-.14,1.9-.43.44-.28.66-.7.66-1.23,0-.45-.15-.8-.44-1.06-.29-.26-.78-.47-1.45-.62l-1.89-.44c-.95-.21-1.68-.58-2.19-1.11-.51-.52-.76-1.17-.76-1.94,0-1,.39-1.81,1.18-2.42.78-.61,1.83-.92,3.14-.92.78,0,1.53.13,2.24.38s1.3.62,1.78,1.1l-.62,1.36c-1.03-.88-2.16-1.31-3.39-1.31-.78,0-1.4.15-1.83.45-.44.3-.66.72-.66,1.26,0,.45.13.8.4,1.07.27.27.7.47,1.3.61l1.91.46c1.04.25,1.82.62,2.33,1.12.51.5.76,1.15.76,1.95,0,.98-.4,1.77-1.19,2.35-.79.58-1.87.88-3.24.88-1.89,0-3.39-.48-4.5-1.45Z"/>
    <path class="cls-15" d="M1362.08,695.61l.62-1.38c.6.48,1.21.82,1.83,1.03.62.21,1.33.31,2.11.31.83,0,1.46-.14,1.9-.43.44-.28.66-.7.66-1.23,0-.45-.15-.8-.44-1.06-.29-.26-.78-.47-1.45-.62l-1.89-.44c-.95-.21-1.68-.58-2.19-1.11s-.76-1.17-.76-1.94c0-1,.39-1.81,1.18-2.42.78-.61,1.83-.92,3.14-.92.78,0,1.53.13,2.24.38.71.25,1.3.62,1.78,1.1l-.62,1.36c-1.03-.88-2.16-1.31-3.39-1.31-.78,0-1.39.15-1.83.45-.44.3-.66.72-.66,1.26,0,.45.13.8.4,1.07s.7.47,1.3.61l1.91.46c1.04.25,1.82.62,2.33,1.12.51.5.76,1.15.76,1.95,0,.98-.4,1.77-1.19,2.35s-1.87.88-3.24.88c-1.89,0-3.39-.48-4.5-1.45Z"/>
    <path class="cls-15" d="M1383,696.09c-1.14-.67-2.01-1.63-2.62-2.88s-.91-2.73-.91-4.44.3-3.18.91-4.43c.61-1.25,1.48-2.2,2.62-2.87s2.47-1,4.01-1c1.12,0,2.15.17,3.09.52.94.35,1.75.86,2.44,1.53l-.71,1.45c-.78-.66-1.55-1.14-2.31-1.43-.75-.29-1.58-.44-2.49-.44-1.78,0-3.16.58-4.14,1.74-.98,1.16-1.46,2.8-1.46,4.92s.49,3.79,1.46,4.95c.98,1.16,2.36,1.74,4.14,1.74.91,0,1.74-.15,2.49-.44.75-.29,1.52-.77,2.31-1.43l.71,1.45c-.69.68-1.51,1.19-2.44,1.53-.94.35-1.97.52-3.09.52-1.54,0-2.88-.33-4.01-1Z"/>
    <path class="cls-15" d="M1397.03,696.35c-.81-.48-1.43-1.16-1.87-2.04-.44-.88-.66-1.91-.66-3.08s.22-2.19.66-3.08c.44-.88,1.06-1.56,1.87-2.04s1.74-.71,2.8-.71,2,.24,2.81.71c.82.48,1.44,1.16,1.88,2.04.44.88.66,1.91.66,3.08s-.22,2.2-.66,3.08c-.44.88-1.06,1.56-1.88,2.04-.81.48-1.75.71-2.81.71s-2-.24-2.8-.71ZM1402.38,694.43c.59-.73.89-1.79.89-3.19s-.3-2.42-.9-3.17-1.45-1.12-2.54-1.12-1.94.37-2.54,1.12c-.6.75-.9,1.8-.9,3.17s.3,2.44.89,3.18c.59.74,1.44,1.11,2.55,1.11s1.96-.36,2.55-1.09Z"/>
    <path class="cls-15" d="M1417.65,689.85v7.06h-1.87v-6.94c0-1.04-.2-1.81-.61-2.28s-1.06-.71-1.95-.71c-1.03,0-1.85.32-2.47.95-.62.63-.92,1.48-.92,2.56v6.43h-1.87v-11.23h1.84v1.84c.37-.69.88-1.22,1.54-1.58.66-.36,1.41-.54,2.26-.54,2.69,0,4.04,1.48,4.04,4.45Z"/>
    <path class="cls-15" d="M1427.01,695.5l-.09,1.48c-.35.06-.74.09-1.15.09-1.35,0-2.37-.35-3.06-1.06-.68-.71-1.03-1.69-1.03-2.95v-5.9h-2.19v-1.48h2.19v-3.41h1.87v3.41h3.18v1.48h-3.18v5.76c0,1.77.81,2.65,2.44,2.65.34,0,.68-.02,1.01-.07Z"/>
    <path class="cls-15" d="M1435.27,687.01l-1.22.12c-1.15.11-1.99.47-2.5,1.08-.52.62-.77,1.38-.77,2.28v6.41h-1.87v-11.23h1.82v1.96c.63-1.31,1.87-2.04,3.71-2.19l.67-.05.16,1.61Z"/>
    <path class="cls-15" d="M1438.67,696.35c-.81-.48-1.43-1.16-1.87-2.04-.44-.88-.66-1.91-.66-3.08s.22-2.19.66-3.08c.44-.88,1.06-1.56,1.87-2.04.81-.48,1.74-.71,2.8-.71s2,.24,2.81.71,1.44,1.16,1.88,2.04c.44.88.66,1.91.66,3.08s-.22,2.2-.66,3.08c-.44.88-1.07,1.56-1.88,2.04-.81.48-1.75.71-2.81.71s-2-.24-2.8-.71ZM1444.02,694.43c.59-.73.89-1.79.89-3.19s-.3-2.42-.9-3.17-1.45-1.12-2.54-1.12-1.94.37-2.54,1.12-.9,1.8-.9,3.17.3,2.44.89,3.18c.59.74,1.44,1.11,2.55,1.11s1.96-.36,2.55-1.09Z"/>
    <path class="cls-15" d="M1449.61,680.65h1.87v16.26h-1.87v-16.26Z"/>
  </g>
  <g>
    <path class="cls-15" d="M443.16,536.47h-8.49l-1.8,4.17h-1.94l7.15-16.26h1.64l7.15,16.26h-1.91l-1.8-4.17ZM442.49,534.9l-3.57-8.32-3.57,8.32h7.15Z"/>
    <path class="cls-15" d="M450.88,540.09c-.82-.48-1.44-1.15-1.88-2.02-.44-.87-.66-1.89-.66-3.05s.23-2.19.68-3.08c.45-.88,1.09-1.57,1.91-2.06.82-.49,1.79-.74,2.89-.74.75,0,1.49.13,2.21.4.72.27,1.31.63,1.75,1.07l-.62,1.38c-1.06-.86-2.14-1.29-3.23-1.29-1.15,0-2.05.38-2.7,1.13-.65.75-.97,1.81-.97,3.18s.32,2.4.97,3.14c.65.74,1.54,1.11,2.7,1.11,1.09,0,2.17-.43,3.23-1.29l.62,1.38c-.48.45-1.08.8-1.8,1.06-.72.26-1.47.39-2.24.39-1.11,0-2.07-.24-2.88-.71Z"/>
    <path class="cls-15" d="M461.92,540.09c-.81-.48-1.44-1.15-1.88-2.02-.44-.87-.66-1.89-.66-3.05s.23-2.19.68-3.08c.45-.88,1.09-1.57,1.91-2.06.82-.49,1.79-.74,2.89-.74.75,0,1.49.13,2.21.4.72.27,1.31.63,1.75,1.07l-.62,1.38c-1.06-.86-2.14-1.29-3.23-1.29-1.15,0-2.05.38-2.7,1.13-.65.75-.97,1.81-.97,3.18s.32,2.4.97,3.14c.65.74,1.54,1.11,2.7,1.11,1.09,0,2.17-.43,3.23-1.29l.62,1.38c-.48.45-1.08.8-1.8,1.06-.72.26-1.47.39-2.24.39-1.11,0-2.07-.24-2.88-.71Z"/>
    <path class="cls-15" d="M480.51,535.32h-8.21c.06,1.31.42,2.29,1.06,2.96s1.56,1,2.74,1c1.31,0,2.5-.45,3.6-1.34l.62,1.36c-.49.46-1.12.83-1.89,1.09s-1.55.4-2.35.4c-1.75,0-3.13-.51-4.14-1.54-1.01-1.03-1.51-2.45-1.51-4.27,0-1.15.22-2.17.67-3.06.45-.88,1.07-1.57,1.88-2.06.81-.49,1.73-.74,2.76-.74,1.49,0,2.66.49,3.5,1.46.84.98,1.27,2.32,1.27,4.02v.69ZM473.4,531.51c-.59.61-.94,1.48-1.05,2.61h6.53c-.03-1.14-.32-2.01-.85-2.62s-1.29-.91-2.26-.91-1.77.31-2.36.92Z"/>
    <path class="cls-15" d="M482.56,539.35l.62-1.38c.6.48,1.21.82,1.83,1.03.62.21,1.33.31,2.11.31.83,0,1.46-.14,1.9-.43.44-.28.66-.7.66-1.23,0-.45-.15-.8-.44-1.06-.29-.26-.78-.47-1.45-.62l-1.89-.44c-.95-.21-1.68-.58-2.19-1.11-.51-.52-.76-1.17-.76-1.94,0-1,.39-1.81,1.18-2.42.78-.61,1.83-.92,3.14-.92.78,0,1.53.13,2.24.38s1.3.62,1.78,1.1l-.62,1.36c-1.03-.88-2.16-1.31-3.39-1.31-.78,0-1.4.15-1.83.45-.44.3-.66.72-.66,1.26,0,.45.13.8.4,1.07.27.27.7.47,1.3.61l1.91.46c1.04.25,1.82.62,2.33,1.12.51.5.76,1.15.76,1.95,0,.98-.4,1.77-1.19,2.35-.79.58-1.87.88-3.24.88-1.89,0-3.39-.48-4.5-1.45Z"/>
    <path class="cls-15" d="M493.63,539.35l.62-1.38c.6.48,1.21.82,1.83,1.03.62.21,1.33.31,2.11.31.83,0,1.46-.14,1.9-.43.44-.28.66-.7.66-1.23,0-.45-.15-.8-.44-1.06-.29-.26-.78-.47-1.45-.62l-1.89-.44c-.95-.21-1.68-.58-2.19-1.11s-.76-1.17-.76-1.94c0-1,.39-1.81,1.18-2.42.78-.61,1.83-.92,3.14-.92.78,0,1.53.13,2.24.38.71.25,1.3.62,1.78,1.1l-.62,1.36c-1.03-.88-2.16-1.31-3.39-1.31-.78,0-1.39.15-1.83.45-.44.3-.66.72-.66,1.26,0,.45.13.8.4,1.07s.7.47,1.3.61l1.91.46c1.04.25,1.82.62,2.33,1.12.51.5.76,1.15.76,1.95,0,.98-.4,1.77-1.19,2.35s-1.87.88-3.24.88c-1.89,0-3.39-.48-4.5-1.45Z"/>
    <path class="cls-15" d="M514.54,539.82c-1.14-.67-2.01-1.63-2.62-2.88s-.91-2.73-.91-4.44.3-3.18.91-4.43c.61-1.25,1.48-2.2,2.62-2.87s2.47-1,4.01-1c1.12,0,2.15.17,3.09.52.94.35,1.75.86,2.44,1.53l-.71,1.45c-.78-.66-1.55-1.14-2.31-1.43-.75-.29-1.58-.44-2.49-.44-1.78,0-3.16.58-4.14,1.74-.98,1.16-1.46,2.8-1.46,4.92s.49,3.79,1.46,4.95c.98,1.16,2.36,1.74,4.14,1.74.91,0,1.74-.15,2.49-.44.75-.29,1.52-.77,2.31-1.43l.71,1.45c-.69.68-1.51,1.19-2.44,1.53-.94.35-1.97.52-3.09.52-1.54,0-2.88-.33-4.01-1Z"/>
    <path class="cls-15" d="M528.57,540.09c-.81-.48-1.43-1.16-1.87-2.04-.44-.88-.66-1.91-.66-3.08s.22-2.19.66-3.08c.44-.88,1.06-1.56,1.87-2.04s1.74-.71,2.8-.71,2,.24,2.81.71c.82.48,1.44,1.16,1.88,2.04.44.88.66,1.91.66,3.08s-.22,2.2-.66,3.08c-.44.88-1.06,1.56-1.88,2.04-.81.48-1.75.71-2.81.71s-2-.24-2.8-.71ZM533.92,538.16c.59-.73.89-1.79.89-3.19s-.3-2.42-.9-3.17-1.45-1.12-2.54-1.12-1.94.37-2.54,1.12c-.6.75-.9,1.8-.9,3.17s.3,2.44.89,3.18c.59.74,1.44,1.11,2.55,1.11s1.96-.36,2.55-1.09Z"/>
    <path class="cls-15" d="M549.2,533.59v7.06h-1.87v-6.94c0-1.04-.2-1.81-.61-2.28s-1.06-.71-1.95-.71c-1.03,0-1.85.32-2.47.95-.62.63-.92,1.48-.92,2.56v6.43h-1.87v-11.23h1.84v1.84c.37-.69.88-1.22,1.54-1.58.66-.36,1.41-.54,2.26-.54,2.69,0,4.04,1.48,4.04,4.45Z"/>
    <path class="cls-15" d="M558.56,539.24l-.09,1.48c-.35.06-.74.09-1.15.09-1.35,0-2.37-.35-3.06-1.06-.68-.71-1.03-1.69-1.03-2.95v-5.9h-2.19v-1.48h2.19v-3.41h1.87v3.41h3.18v1.48h-3.18v5.76c0,1.77.81,2.65,2.44,2.65.34,0,.68-.02,1.01-.07Z"/>
    <path class="cls-15" d="M566.82,530.75l-1.22.12c-1.15.11-1.99.47-2.5,1.08-.52.62-.77,1.38-.77,2.28v6.41h-1.87v-11.23h1.82v1.96c.63-1.31,1.87-2.04,3.71-2.19l.67-.05.16,1.61Z"/>
    <path class="cls-15" d="M570.22,540.09c-.81-.48-1.43-1.16-1.87-2.04-.44-.88-.66-1.91-.66-3.08s.22-2.19.66-3.08c.44-.88,1.06-1.56,1.87-2.04.81-.48,1.74-.71,2.8-.71s2,.24,2.81.71,1.44,1.16,1.88,2.04c.44.88.66,1.91.66,3.08s-.22,2.2-.66,3.08c-.44.88-1.07,1.56-1.88,2.04-.81.48-1.75.71-2.81.71s-2-.24-2.8-.71ZM575.57,538.16c.59-.73.89-1.79.89-3.19s-.3-2.42-.9-3.17-1.45-1.12-2.54-1.12-1.94.37-2.54,1.12-.9,1.8-.9,3.17.3,2.44.89,3.18c.59.74,1.44,1.11,2.55,1.11s1.96-.36,2.55-1.09Z"/>
    <path class="cls-15" d="M581.16,524.39h1.87v16.26h-1.87v-16.26Z"/>
  </g>
  <g>
    <rect class="cls-13" x="304.9" y="891.73" width="20.16" height="94.37" rx="2.15" ry="2.15"/>
    <rect class="cls-24" x="333.82" y="860.36" width="20.16" height="125.74" rx="2.01" ry="2.01"/>
    <rect class="cls-23" x="362.75" y="909.42" width="20.16" height="76.69" rx="2.13" ry="2.13"/>
    <rect class="cls-22" x="391.68" y="934.91" width="20.16" height="51.19" rx="2.5" ry="2.5"/>
    <rect class="cls-19" x="275.97" y="957.23" width="20.16" height="28.88" rx="2.43" ry="2.43"/>
  </g>
  <path class="cls-10" d="M402.52,996.61l26.94,31.57c6.75,7.91,16.62,12.46,27.01,12.46h321.69"/>
  <g>
    <path class="cls-15" d="M459.4,1006.26h15.49v2.45h-12.62v8.64h11.91v2.45h-11.91v11.51h-2.88v-25.05Z"/>
    <path class="cls-15" d="M492.91,1023.11h-12.65c.09,2.01.64,3.54,1.63,4.57s2.4,1.55,4.23,1.55c2.01,0,3.86-.69,5.54-2.06l.96,2.1c-.76.71-1.73,1.27-2.91,1.69-1.19.41-2.39.62-3.62.62-2.7,0-4.83-.79-6.38-2.38s-2.33-3.78-2.33-6.58c0-1.78.34-3.35,1.03-4.71.69-1.36,1.65-2.42,2.9-3.18,1.24-.76,2.66-1.14,4.25-1.14,2.3,0,4.1.75,5.4,2.26,1.3,1.5,1.95,3.57,1.95,6.2v1.07ZM481.95,1017.24c-.91.95-1.45,2.29-1.62,4.02h10.06c-.05-1.75-.49-3.1-1.31-4.03-.83-.94-1.99-1.4-3.48-1.4s-2.73.47-3.64,1.42Z"/>
    <path class="cls-15" d="M512.49,1006.26v25.05h-2.88v-3.16c-.52,1.09-1.29,1.93-2.29,2.52-1.01.59-2.19.89-3.54.89-1.52,0-2.86-.38-4.02-1.14-1.16-.76-2.06-1.82-2.7-3.18-.64-1.36-.96-2.94-.96-4.74s.32-3.34.96-4.69,1.54-2.39,2.7-3.13c1.16-.73,2.5-1.1,4.02-1.1,1.35,0,2.53.3,3.54.89,1.01.59,1.77,1.43,2.29,2.52v-10.73h2.88ZM508.24,1027.46c.91-1.15,1.37-2.78,1.37-4.89s-.46-3.73-1.37-4.87c-.91-1.14-2.21-1.71-3.89-1.71s-2.99.57-3.93,1.71c-.94,1.14-1.4,2.74-1.4,4.8s.47,3.75,1.4,4.92c.94,1.17,2.24,1.76,3.93,1.76s2.98-.57,3.89-1.72Z"/>
    <path class="cls-15" d="M532.32,1023.11h-12.65c.09,2.01.64,3.54,1.63,4.57.99,1.03,2.4,1.55,4.23,1.55,2.01,0,3.86-.69,5.54-2.06l.96,2.1c-.76.71-1.73,1.27-2.91,1.69s-2.39.62-3.62.62c-2.7,0-4.83-.79-6.38-2.38-1.55-1.59-2.33-3.78-2.33-6.58,0-1.78.34-3.35,1.03-4.71.69-1.36,1.65-2.42,2.9-3.18,1.24-.76,2.66-1.14,4.25-1.14,2.3,0,4.1.75,5.4,2.26,1.3,1.5,1.95,3.57,1.95,6.2v1.07ZM521.36,1017.24c-.91.95-1.45,2.29-1.62,4.02h10.06c-.05-1.75-.49-3.1-1.32-4.03-.83-.94-1.99-1.4-3.48-1.4s-2.73.47-3.64,1.42Z"/>
    <path class="cls-15" d="M546.36,1016.07l-1.88.18c-1.78.17-3.06.72-3.86,1.67-.79.95-1.19,2.12-1.19,3.52v9.88h-2.88v-17.31h2.81v3.02c.97-2.01,2.88-3.14,5.72-3.38l1.03-.07.25,2.49Z"/>
    <path class="cls-15" d="M560.91,1015.27c1.08,1.13,1.62,2.84,1.62,5.13v10.91h-2.81v-2.95c-.45,1.02-1.14,1.81-2.06,2.36s-1.99.83-3.2.83c-1.11,0-2.14-.23-3.07-.68-.94-.45-1.68-1.08-2.22-1.88s-.82-1.69-.82-2.67c0-1.3.33-2.32,1-3.04.66-.72,1.75-1.24,3.27-1.56,1.52-.32,3.62-.48,6.33-.48h.78v-1.17c0-1.45-.3-2.49-.89-3.15-.59-.65-1.55-.98-2.88-.98-1.99,0-3.97.62-5.93,1.85l-.96-2.1c.9-.64,1.98-1.16,3.25-1.55,1.27-.39,2.49-.59,3.68-.59,2.2,0,3.84.56,4.92,1.69ZM558.35,1027.85c.91-.96,1.37-2.2,1.37-3.71v-1.03h-.64c-2.08,0-3.67.09-4.76.27-1.09.18-1.87.47-2.33.89-.46.41-.69,1.02-.69,1.83,0,.92.34,1.69,1.01,2.29.67.6,1.52.91,2.54.91,1.42,0,2.59-.48,3.5-1.44Z"/>
    <path class="cls-15" d="M576.95,1029.15l-.14,2.27c-.54.09-1.14.14-1.78.14-2.08,0-3.66-.54-4.71-1.63-1.05-1.09-1.58-2.61-1.58-4.55v-9.1h-3.38v-2.27h3.38v-5.26h2.88v5.26h4.9v2.27h-4.9v8.88c0,2.72,1.26,4.09,3.77,4.09.52,0,1.04-.04,1.56-.11Z"/>
    <path class="cls-15" d="M594.37,1023.11h-12.65c.09,2.01.64,3.54,1.63,4.57s2.4,1.55,4.23,1.55c2.01,0,3.86-.69,5.54-2.06l.96,2.1c-.76.71-1.73,1.27-2.91,1.69-1.19.41-2.39.62-3.62.62-2.7,0-4.83-.79-6.38-2.38-1.55-1.59-2.33-3.78-2.33-6.58,0-1.78.34-3.35,1.03-4.71.69-1.36,1.65-2.42,2.9-3.18,1.24-.76,2.66-1.14,4.25-1.14,2.3,0,4.1.75,5.4,2.26,1.3,1.5,1.96,3.57,1.96,6.2v1.07ZM583.4,1017.24c-.91.95-1.45,2.29-1.62,4.02h10.06c-.05-1.75-.49-3.1-1.31-4.03-.83-.94-1.99-1.4-3.48-1.4s-2.73.47-3.64,1.42Z"/>
    <path class="cls-15" d="M613.95,1006.26v25.05h-2.88v-3.16c-.52,1.09-1.29,1.93-2.29,2.52-1.01.59-2.19.89-3.54.89-1.52,0-2.86-.38-4.02-1.14-1.16-.76-2.06-1.82-2.7-3.18-.64-1.36-.96-2.94-.96-4.74s.32-3.34.96-4.69,1.54-2.39,2.7-3.13c1.16-.73,2.5-1.1,4.02-1.1,1.35,0,2.53.3,3.54.89,1.01.59,1.77,1.43,2.29,2.52v-10.73h2.88ZM609.7,1027.46c.91-1.15,1.37-2.78,1.37-4.89s-.46-3.73-1.37-4.87c-.91-1.14-2.21-1.71-3.89-1.71s-2.99.57-3.93,1.71c-.94,1.14-1.4,2.74-1.4,4.8s.47,3.75,1.4,4.92c.94,1.17,2.24,1.76,3.93,1.76s2.98-.57,3.89-1.72Z"/>
    <path class="cls-15" d="M645.25,1024.88h-13.08l-2.77,6.43h-2.99l11.02-25.05h2.52l11.02,25.05h-2.95l-2.77-6.43ZM644.22,1022.47l-5.51-12.83-5.51,12.83h11.02Z"/>
    <path class="cls-15" d="M669.21,1020.44v10.87h-2.88v-10.7c0-1.61-.31-2.78-.94-3.52s-1.63-1.1-3-1.1c-1.59,0-2.85.49-3.8,1.46-.95.97-1.42,2.29-1.42,3.94v9.92h-2.88v-17.31h2.84v2.84c.57-1.07,1.36-1.88,2.38-2.43,1.02-.56,2.18-.84,3.48-.84,4.15,0,6.22,2.29,6.22,6.86Z"/>
    <path class="cls-15" d="M686.42,1015.27c1.08,1.13,1.62,2.84,1.62,5.13v10.91h-2.81v-2.95c-.45,1.02-1.14,1.81-2.06,2.36s-1.99.83-3.2.83c-1.11,0-2.14-.23-3.07-.68-.94-.45-1.68-1.08-2.22-1.88s-.82-1.69-.82-2.67c0-1.3.33-2.32,1-3.04.66-.72,1.75-1.24,3.27-1.56,1.52-.32,3.62-.48,6.33-.48h.78v-1.17c0-1.45-.3-2.49-.89-3.15-.59-.65-1.55-.98-2.88-.98-1.99,0-3.97.62-5.93,1.85l-.96-2.1c.9-.64,1.98-1.16,3.25-1.55,1.27-.39,2.49-.59,3.68-.59,2.2,0,3.84.56,4.92,1.69ZM683.86,1027.85c.91-.96,1.37-2.2,1.37-3.71v-1.03h-.64c-2.08,0-3.67.09-4.76.27-1.09.18-1.87.47-2.33.89-.46.41-.69,1.02-.69,1.83,0,.92.34,1.69,1.01,2.29.67.6,1.52.91,2.54.91,1.42,0,2.59-.48,3.5-1.44Z"/>
    <path class="cls-15" d="M693.3,1006.26h2.88v25.05h-2.88v-25.05Z"/>
    <path class="cls-15" d="M716.82,1014.04l-10.23,23.67h-2.95l2.91-6.61-7.32-17.06h3.06l5.79,14.14,5.86-14.14h2.88Z"/>
    <path class="cls-15" d="M729.37,1029.15l-.14,2.27c-.54.09-1.14.14-1.78.14-2.08,0-3.66-.54-4.71-1.63-1.05-1.09-1.58-2.61-1.58-4.55v-9.1h-3.38v-2.27h3.38v-5.26h2.88v5.26h4.9v2.27h-4.9v8.88c0,2.72,1.26,4.09,3.77,4.09.52,0,1.04-.04,1.56-.11Z"/>
    <path class="cls-15" d="M735.48,1006.51v3.23h-3.48v-3.23h3.48ZM732.28,1014.01h2.88v17.31h-2.88v-17.31Z"/>
    <path class="cls-15" d="M743.41,1030.46c-1.26-.73-2.22-1.77-2.9-3.11-.68-1.34-1.01-2.91-1.01-4.71s.35-3.38,1.05-4.74c.7-1.36,1.68-2.42,2.95-3.18,1.27-.76,2.75-1.14,4.46-1.14,1.16,0,2.3.21,3.41.62,1.11.42,2.01.97,2.7,1.65l-.96,2.13c-1.63-1.33-3.29-1.99-4.98-1.99-1.78,0-3.16.58-4.16,1.74-1,1.16-1.49,2.8-1.49,4.9s.5,3.7,1.49,4.83c1,1.14,2.38,1.71,4.16,1.71,1.68,0,3.34-.66,4.98-1.99l.96,2.13c-.74.69-1.66,1.23-2.77,1.63-1.11.4-2.26.6-3.45.6-1.71,0-3.19-.37-4.44-1.1Z"/>
    <path class="cls-15" d="M756.48,1029.32l.96-2.13c.92.73,1.87,1.26,2.83,1.58.96.32,2.04.48,3.25.48,1.28,0,2.26-.22,2.93-.66.67-.44,1.01-1.07,1.01-1.9,0-.69-.23-1.23-.67-1.63-.45-.4-1.2-.72-2.24-.96l-2.91-.68c-1.47-.33-2.59-.9-3.38-1.71s-1.17-1.8-1.17-2.99c0-1.54.6-2.78,1.81-3.73,1.21-.95,2.82-1.42,4.83-1.42,1.21,0,2.36.2,3.45.59,1.09.39,2,.95,2.74,1.69l-.96,2.1c-1.59-1.35-3.33-2.03-5.22-2.03-1.21,0-2.15.23-2.83.69-.67.46-1.01,1.11-1.01,1.94,0,.69.21,1.24.62,1.65.41.42,1.08.73,2.01.94l2.95.71c1.61.38,2.81.95,3.59,1.72.78.77,1.17,1.77,1.17,3,0,1.52-.61,2.72-1.83,3.62-1.22.9-2.88,1.35-4.99,1.35-2.91,0-5.22-.75-6.93-2.24Z"/>
  </g>
  <path class="cls-11" d="M1528.51,290.29l-26.94-31.57c-6.75-7.91-16.62-12.46-27.01-12.46h-325.69"/>
  <g>
    <path class="cls-15" d="M1157.04,212.11h15.49v2.45h-12.62v8.64h11.91v2.45h-11.91v11.51h-2.88v-25.05Z"/>
    <path class="cls-15" d="M1190.55,228.96h-12.65c.09,2.01.64,3.54,1.63,4.57s2.4,1.55,4.23,1.55c2.01,0,3.86-.69,5.54-2.06l.96,2.1c-.76.71-1.73,1.27-2.91,1.69s-2.39.62-3.62.62c-2.7,0-4.83-.79-6.38-2.38s-2.33-3.78-2.33-6.58c0-1.78.34-3.35,1.03-4.71.69-1.36,1.65-2.42,2.9-3.18,1.24-.76,2.66-1.14,4.25-1.14,2.3,0,4.1.75,5.4,2.26,1.3,1.5,1.96,3.57,1.96,6.2v1.07ZM1179.58,223.1c-.91.95-1.45,2.29-1.62,4.02h10.06c-.05-1.75-.49-3.1-1.31-4.03-.83-.94-1.99-1.4-3.48-1.4s-2.73.47-3.64,1.42Z"/>
    <path class="cls-15" d="M1210.13,212.11v25.05h-2.88v-3.16c-.52,1.09-1.29,1.93-2.29,2.52-1.01.59-2.19.89-3.54.89-1.52,0-2.86-.38-4.02-1.14-1.16-.76-2.06-1.82-2.7-3.18-.64-1.36-.96-2.94-.96-4.74s.32-3.34.96-4.69,1.54-2.39,2.7-3.13c1.16-.73,2.5-1.1,4.02-1.1,1.35,0,2.53.3,3.54.89,1.01.59,1.77,1.43,2.29,2.52v-10.73h2.88ZM1205.88,233.31c.91-1.15,1.37-2.78,1.37-4.89s-.46-3.73-1.37-4.87c-.91-1.14-2.21-1.71-3.89-1.71s-2.99.57-3.93,1.71c-.94,1.14-1.4,2.74-1.4,4.8s.47,3.75,1.4,4.92c.94,1.17,2.24,1.76,3.93,1.76s2.98-.57,3.89-1.72Z"/>
    <path class="cls-15" d="M1229.96,228.96h-12.65c.09,2.01.64,3.54,1.63,4.57s2.4,1.55,4.23,1.55c2.01,0,3.86-.69,5.54-2.06l.96,2.1c-.76.71-1.73,1.27-2.91,1.69s-2.39.62-3.62.62c-2.7,0-4.83-.79-6.38-2.38-1.55-1.59-2.33-3.78-2.33-6.58,0-1.78.34-3.35,1.03-4.71s1.65-2.42,2.9-3.18c1.24-.76,2.66-1.14,4.25-1.14,2.3,0,4.1.75,5.4,2.26,1.3,1.5,1.95,3.57,1.95,6.2v1.07ZM1218.99,223.1c-.91.95-1.45,2.29-1.62,4.02h10.06c-.05-1.75-.49-3.1-1.32-4.03-.83-.94-1.99-1.4-3.48-1.4s-2.73.47-3.64,1.42Z"/>
    <path class="cls-15" d="M1243.99,221.92l-1.88.18c-1.78.17-3.06.72-3.86,1.67-.79.95-1.19,2.12-1.19,3.52v9.88h-2.88v-17.31h2.81v3.02c.97-2.01,2.88-3.14,5.72-3.38l1.03-.07.25,2.49Z"/>
    <path class="cls-15" d="M1258.55,221.12c1.08,1.13,1.62,2.84,1.62,5.13v10.91h-2.81v-2.95c-.45,1.02-1.14,1.81-2.06,2.36s-1.99.83-3.2.83c-1.11,0-2.14-.23-3.07-.68-.94-.45-1.68-1.08-2.22-1.88s-.82-1.69-.82-2.67c0-1.3.33-2.32,1-3.04.66-.72,1.75-1.24,3.27-1.56,1.52-.32,3.62-.48,6.33-.48h.78v-1.17c0-1.45-.3-2.49-.89-3.15-.59-.65-1.55-.98-2.88-.98-1.99,0-3.97.62-5.93,1.85l-.96-2.1c.9-.64,1.98-1.16,3.25-1.55s2.49-.59,3.68-.59c2.2,0,3.84.56,4.92,1.69ZM1255.99,233.7c.91-.96,1.37-2.2,1.37-3.71v-1.03h-.64c-2.08,0-3.67.09-4.76.27s-1.87.47-2.33.89c-.46.41-.69,1.02-.69,1.83,0,.92.34,1.69,1.01,2.29.68.6,1.52.91,2.54.91,1.42,0,2.59-.48,3.5-1.44Z"/>
    <path class="cls-15" d="M1274.59,235l-.14,2.27c-.54.09-1.14.14-1.78.14-2.08,0-3.66-.54-4.71-1.63-1.05-1.09-1.58-2.61-1.58-4.55v-9.1h-3.38v-2.27h3.38v-5.26h2.88v5.26h4.9v2.27h-4.9v8.88c0,2.72,1.26,4.09,3.77,4.09.52,0,1.04-.04,1.56-.11Z"/>
    <path class="cls-15" d="M1292,228.96h-12.65c.09,2.01.64,3.54,1.63,4.57s2.4,1.55,4.23,1.55c2.01,0,3.86-.69,5.54-2.06l.96,2.1c-.76.71-1.73,1.27-2.91,1.69-1.19.41-2.39.62-3.62.62-2.7,0-4.83-.79-6.38-2.38s-2.33-3.78-2.33-6.58c0-1.78.34-3.35,1.03-4.71.69-1.36,1.65-2.42,2.9-3.18,1.24-.76,2.66-1.14,4.25-1.14,2.3,0,4.1.75,5.4,2.26,1.3,1.5,1.96,3.57,1.96,6.2v1.07ZM1281.04,223.1c-.91.95-1.45,2.29-1.62,4.02h10.06c-.05-1.75-.49-3.1-1.31-4.03-.83-.94-1.99-1.4-3.48-1.4s-2.73.47-3.64,1.42Z"/>
    <path class="cls-15" d="M1311.58,212.11v25.05h-2.88v-3.16c-.52,1.09-1.29,1.93-2.29,2.52-1.01.59-2.18.89-3.54.89-1.52,0-2.86-.38-4.02-1.14-1.16-.76-2.06-1.82-2.7-3.18-.64-1.36-.96-2.94-.96-4.74s.32-3.34.96-4.69,1.54-2.39,2.7-3.13c1.16-.73,2.5-1.1,4.02-1.1,1.35,0,2.53.3,3.54.89,1.01.59,1.77,1.43,2.29,2.52v-10.73h2.88ZM1307.34,233.31c.91-1.15,1.37-2.78,1.37-4.89s-.46-3.73-1.37-4.87c-.91-1.14-2.21-1.71-3.89-1.71s-2.99.57-3.93,1.71c-.94,1.14-1.4,2.74-1.4,4.8s.47,3.75,1.4,4.92c.94,1.17,2.24,1.76,3.93,1.76s2.98-.57,3.89-1.72Z"/>
    <path class="cls-15" d="M1326.51,212.11h8.42c4,0,7.1,1.08,9.29,3.25,2.19,2.17,3.29,5.25,3.29,9.26s-1.1,7.1-3.29,9.28c-2.19,2.18-5.29,3.27-9.29,3.27h-8.42v-25.05ZM1334.75,234.68c6.49,0,9.74-3.35,9.74-10.06s-3.25-10.02-9.74-10.02h-5.33v20.08h5.33Z"/>
    <path class="cls-15" d="M1355.54,212.36v3.23h-3.48v-3.23h3.48ZM1352.34,219.86h2.88v17.31h-2.88v-17.31Z"/>
    <path class="cls-15" d="M1359.52,235.18l.96-2.13c.92.73,1.87,1.26,2.82,1.58.96.32,2.04.48,3.25.48,1.28,0,2.26-.22,2.93-.66.68-.44,1.01-1.07,1.01-1.9,0-.69-.23-1.23-.68-1.63-.45-.4-1.2-.72-2.24-.96l-2.91-.68c-1.47-.33-2.59-.9-3.38-1.71-.78-.81-1.17-1.8-1.17-2.99,0-1.54.6-2.78,1.81-3.73,1.21-.95,2.82-1.42,4.83-1.42,1.21,0,2.36.2,3.45.59s2,.95,2.74,1.69l-.96,2.1c-1.59-1.35-3.33-2.03-5.22-2.03-1.21,0-2.15.23-2.83.69-.68.46-1.01,1.11-1.01,1.94,0,.69.21,1.24.62,1.65.42.42,1.08.73,2.01.94l2.95.71c1.61.38,2.81.95,3.59,1.72.78.77,1.17,1.77,1.17,3,0,1.52-.61,2.72-1.83,3.62-1.22.9-2.88,1.35-4.99,1.35-2.91,0-5.22-.75-6.93-2.24Z"/>
    <path class="cls-15" d="M1380.52,236.32c-1.26-.73-2.22-1.77-2.9-3.11-.68-1.34-1.01-2.91-1.01-4.71s.35-3.38,1.05-4.74c.7-1.36,1.68-2.42,2.95-3.18,1.27-.76,2.75-1.14,4.46-1.14,1.16,0,2.3.21,3.41.62,1.11.42,2.01.97,2.7,1.65l-.96,2.13c-1.63-1.33-3.29-1.99-4.98-1.99-1.78,0-3.16.58-4.16,1.74-1,1.16-1.49,2.8-1.49,4.9s.5,3.7,1.49,4.83c.99,1.14,2.38,1.71,4.16,1.71,1.68,0,3.34-.66,4.98-1.99l.96,2.13c-.73.69-1.66,1.23-2.77,1.63-1.11.4-2.26.6-3.45.6-1.71,0-3.19-.37-4.44-1.1Z"/>
    <path class="cls-15" d="M1397.53,236.32c-1.24-.73-2.2-1.78-2.88-3.15-.68-1.36-1.01-2.94-1.01-4.74s.34-3.38,1.01-4.74c.67-1.36,1.63-2.41,2.88-3.14,1.24-.73,2.68-1.1,4.32-1.1s3.08.37,4.33,1.1,2.22,1.78,2.9,3.14c.68,1.36,1.01,2.94,1.01,4.74s-.34,3.38-1.01,4.74c-.67,1.36-1.64,2.41-2.9,3.15s-2.7,1.1-4.33,1.1-3.07-.37-4.32-1.1ZM1405.77,233.35c.91-1.12,1.37-2.77,1.37-4.92s-.46-3.74-1.39-4.89c-.92-1.15-2.23-1.72-3.91-1.72s-2.99.57-3.91,1.72c-.92,1.15-1.39,2.78-1.39,4.89s.46,3.77,1.37,4.9c.91,1.14,2.22,1.71,3.93,1.71s3.01-.56,3.93-1.69Z"/>
    <path class="cls-15" d="M1429.46,219.9l-7.46,17.27h-2.7l-7.43-17.27h3.06l5.79,14.14,5.86-14.14h2.88Z"/>
    <path class="cls-15" d="M1446.73,228.96h-12.65c.09,2.01.64,3.54,1.63,4.57s2.4,1.55,4.23,1.55c2.01,0,3.86-.69,5.54-2.06l.96,2.1c-.76.71-1.73,1.27-2.91,1.69-1.19.41-2.39.62-3.62.62-2.7,0-4.83-.79-6.38-2.38s-2.33-3.78-2.33-6.58c0-1.78.34-3.35,1.03-4.71.69-1.36,1.65-2.42,2.9-3.18,1.24-.76,2.66-1.14,4.25-1.14,2.3,0,4.1.75,5.4,2.26,1.3,1.5,1.96,3.57,1.96,6.2v1.07ZM1435.77,223.1c-.91.95-1.45,2.29-1.62,4.02h10.06c-.05-1.75-.49-3.1-1.31-4.03-.83-.94-1.99-1.4-3.48-1.4s-2.73.47-3.64,1.42Z"/>
    <path class="cls-15" d="M1460.77,221.92l-1.88.18c-1.78.17-3.06.72-3.86,1.67-.79.95-1.19,2.12-1.19,3.52v9.88h-2.88v-17.31h2.81v3.02c.97-2.01,2.88-3.14,5.72-3.38l1.03-.07.25,2.49Z"/>
    <path class="cls-15" d="M1479.85,219.9l-10.23,23.67h-2.95l2.91-6.61-7.32-17.06h3.06l5.79,14.14,5.86-14.14h2.88Z"/>
  </g>
  <g>
    <rect class="cls-20" x="1517.31" y="908.61" width="44.15" height="7.43" transform="translate(-159.77 1473.49) rotate(-48.93)"/>
    <rect class="cls-21" x="1556.09" y="900.23" width="7.43" height="80"/>
    <rect class="cls-17" x="1526.8" y="908.48" width="87.74" height="7.43" transform="translate(-244.31 841.94) rotate(-27.93)"/>
    <rect class="cls-18" x="1572.15" y="898.61" width="7.43" height="24.99" transform="translate(-237.01 746.92) rotate(-24.86)"/>
    <rect class="cls-53" x="1535.86" y="947.86" width="7.43" height="39.24" transform="translate(-249.02 1294.92) rotate(-42.52)"/>
    <rect class="cls-56" x="1577.05" y="879.49" width="31.18" height="7.43" transform="translate(-54.63 106.63) rotate(-3.77)"/>
    <rect class="cls-55" x="1592.85" y="906.42" width="31.18" height="7.43" transform="translate(69.08 1932.76) rotate(-63.1)"/>
    <rect class="cls-57" x="1632.95" y="894.18" width="7.43" height="32.46" transform="translate(-220.3 667.07) rotate(-21.62)"/>
    <rect class="cls-61" x="1615.38" y="940.52" width="17.29" height="7.43" transform="translate(-129.02 269.04) rotate(-9.11)"/>
    <rect class="cls-54" x="1576.95" y="990.86" width="31.18" height="7.43"/>
    <rect class="cls-52" x="1565.21" y="971.02" width="17.29" height="7.43" transform="translate(-139.2 1676.56) rotate(-54.05)"/>
    <circle class="cls-60" cx="1518.08" cy="940.24" r="16.96"/>
    <circle class="cls-58" cx="1563.58" cy="886.26" r="16.96"/>
    <circle class="cls-59" cx="1563.14" cy="994.57" r="16.96"/>
    <circle class="cls-68" cx="1622.11" cy="994.57" r="16.96"/>
    <circle class="cls-66" cx="1645.19" cy="940.24" r="16.96"/>
    <circle class="cls-67" cx="1622.11" cy="883.27" r="16.96"/>
    <circle class="cls-64" cx="1591.6" cy="946.48" r="27.06"/>
  </g>
  <path class="cls-12" d="M1526.51,996.61l-26.94,31.57c-6.75,7.91-16.62,12.46-27.01,12.46h-321.69"/>
  <g>
    <path class="cls-15" d="M1160.13,1006.26h15.49v2.45h-12.62v8.64h11.9v2.45h-11.9v11.51h-2.88v-25.05Z"/>
    <path class="cls-15" d="M1193.64,1023.11h-12.65c.09,2.01.64,3.54,1.63,4.57s2.4,1.55,4.23,1.55c2.01,0,3.86-.69,5.54-2.06l.96,2.1c-.76.71-1.73,1.27-2.91,1.69s-2.39.62-3.62.62c-2.7,0-4.83-.79-6.38-2.38-1.55-1.59-2.33-3.78-2.33-6.58,0-1.78.34-3.35,1.03-4.71.69-1.36,1.65-2.42,2.9-3.18,1.24-.76,2.66-1.14,4.25-1.14,2.3,0,4.1.75,5.4,2.26,1.3,1.5,1.96,3.57,1.96,6.2v1.07ZM1182.68,1017.24c-.91.95-1.45,2.29-1.62,4.02h10.06c-.05-1.75-.49-3.1-1.31-4.03-.83-.94-1.99-1.4-3.48-1.4s-2.73.47-3.64,1.42Z"/>
    <path class="cls-15" d="M1213.22,1006.26v25.05h-2.88v-3.16c-.52,1.09-1.29,1.93-2.29,2.52-1.01.59-2.19.89-3.54.89-1.52,0-2.86-.38-4.02-1.14-1.16-.76-2.06-1.82-2.7-3.18-.64-1.36-.96-2.94-.96-4.74s.32-3.34.96-4.69,1.54-2.39,2.7-3.13c1.16-.73,2.5-1.1,4.02-1.1,1.35,0,2.53.3,3.54.89,1.01.59,1.77,1.43,2.29,2.52v-10.73h2.88ZM1208.97,1027.46c.91-1.15,1.37-2.78,1.37-4.89s-.46-3.73-1.37-4.87c-.91-1.14-2.21-1.71-3.89-1.71s-2.99.57-3.93,1.71c-.94,1.14-1.4,2.74-1.4,4.8s.47,3.75,1.4,4.92c.94,1.17,2.24,1.76,3.93,1.76s2.98-.57,3.89-1.72Z"/>
    <path class="cls-15" d="M1233.05,1023.11h-12.65c.09,2.01.64,3.54,1.63,4.57s2.4,1.55,4.23,1.55c2.01,0,3.86-.69,5.54-2.06l.96,2.1c-.76.71-1.73,1.27-2.91,1.69s-2.39.62-3.62.62c-2.7,0-4.83-.79-6.38-2.38s-2.33-3.78-2.33-6.58c0-1.78.34-3.35,1.03-4.71.69-1.36,1.65-2.42,2.9-3.18,1.24-.76,2.66-1.14,4.25-1.14,2.3,0,4.1.75,5.4,2.26,1.3,1.5,1.95,3.57,1.95,6.2v1.07ZM1222.09,1017.24c-.91.95-1.45,2.29-1.62,4.02h10.06c-.05-1.75-.49-3.1-1.32-4.03-.83-.94-1.99-1.4-3.48-1.4s-2.73.47-3.64,1.42Z"/>
    <path class="cls-15" d="M1247.09,1016.07l-1.88.18c-1.78.17-3.06.72-3.86,1.67-.79.95-1.19,2.12-1.19,3.52v9.88h-2.88v-17.31h2.81v3.02c.97-2.01,2.88-3.14,5.72-3.38l1.03-.07.25,2.49Z"/>
    <path class="cls-15" d="M1261.64,1015.27c1.08,1.13,1.62,2.84,1.62,5.13v10.91h-2.81v-2.95c-.45,1.02-1.14,1.81-2.06,2.36s-1.99.83-3.2.83c-1.11,0-2.14-.23-3.07-.68-.94-.45-1.68-1.08-2.22-1.88-.55-.81-.82-1.69-.82-2.67,0-1.3.33-2.32,1-3.04.66-.72,1.75-1.24,3.27-1.56,1.52-.32,3.62-.48,6.33-.48h.78v-1.17c0-1.45-.3-2.49-.89-3.15-.59-.65-1.55-.98-2.88-.98-1.99,0-3.97.62-5.93,1.85l-.96-2.1c.9-.64,1.98-1.16,3.25-1.55s2.49-.59,3.68-.59c2.2,0,3.84.56,4.92,1.69ZM1259.08,1027.85c.91-.96,1.37-2.2,1.37-3.71v-1.03h-.64c-2.08,0-3.67.09-4.76.27s-1.87.47-2.33.89c-.46.41-.69,1.02-.69,1.83,0,.92.34,1.69,1.01,2.29.68.6,1.52.91,2.54.91,1.42,0,2.59-.48,3.5-1.44Z"/>
    <path class="cls-15" d="M1277.68,1029.15l-.14,2.27c-.55.09-1.14.14-1.78.14-2.08,0-3.65-.54-4.71-1.63-1.05-1.09-1.58-2.61-1.58-4.55v-9.1h-3.38v-2.27h3.38v-5.26h2.88v5.26h4.9v2.27h-4.9v8.88c0,2.72,1.26,4.09,3.77,4.09.52,0,1.04-.04,1.56-.11Z"/>
    <path class="cls-15" d="M1295.1,1023.11h-12.65c.09,2.01.64,3.54,1.63,4.57,1,1.03,2.4,1.55,4.23,1.55,2.01,0,3.86-.69,5.54-2.06l.96,2.1c-.76.71-1.73,1.27-2.91,1.69s-2.39.62-3.62.62c-2.7,0-4.83-.79-6.38-2.38s-2.33-3.78-2.33-6.58c0-1.78.34-3.35,1.03-4.71s1.65-2.42,2.9-3.18c1.24-.76,2.66-1.14,4.25-1.14,2.3,0,4.1.75,5.4,2.26,1.3,1.5,1.95,3.57,1.95,6.2v1.07ZM1284.13,1017.24c-.91.95-1.45,2.29-1.62,4.02h10.06c-.05-1.75-.49-3.1-1.32-4.03-.83-.94-1.99-1.4-3.48-1.4s-2.73.47-3.64,1.42Z"/>
    <path class="cls-15" d="M1314.68,1006.26v25.05h-2.88v-3.16c-.52,1.09-1.29,1.93-2.29,2.52-1.01.59-2.19.89-3.54.89-1.52,0-2.85-.38-4.02-1.14-1.16-.76-2.06-1.82-2.7-3.18-.64-1.36-.96-2.94-.96-4.74s.32-3.34.96-4.69,1.54-2.39,2.7-3.13,2.5-1.1,4.02-1.1c1.35,0,2.53.3,3.54.89,1.01.59,1.77,1.43,2.29,2.52v-10.73h2.88ZM1310.43,1027.46c.91-1.15,1.37-2.78,1.37-4.89s-.46-3.73-1.37-4.87c-.91-1.14-2.21-1.71-3.89-1.71s-2.99.57-3.93,1.71c-.94,1.14-1.4,2.74-1.4,4.8s.47,3.75,1.4,4.92c.94,1.17,2.24,1.76,3.93,1.76s2.98-.57,3.89-1.72Z"/>
    <path class="cls-15" d="M1329.6,1006.26h2.91v22.57h12.54v2.49h-15.46v-25.05Z"/>
    <path class="cls-15" d="M1362.83,1023.11h-12.65c.09,2.01.64,3.54,1.63,4.57s2.4,1.55,4.23,1.55c2.01,0,3.86-.69,5.54-2.06l.96,2.1c-.76.71-1.73,1.27-2.91,1.69s-2.39.62-3.62.62c-2.7,0-4.83-.79-6.38-2.38-1.55-1.59-2.33-3.78-2.33-6.58,0-1.78.34-3.35,1.03-4.71s1.65-2.42,2.9-3.18c1.24-.76,2.66-1.14,4.25-1.14,2.3,0,4.1.75,5.4,2.26,1.3,1.5,1.95,3.57,1.95,6.2v1.07ZM1351.86,1017.24c-.91.95-1.45,2.29-1.62,4.02h10.06c-.05-1.75-.49-3.1-1.32-4.03-.83-.94-1.99-1.4-3.48-1.4s-2.73.47-3.64,1.42Z"/>
    <path class="cls-15" d="M1379.01,1015.27c1.08,1.13,1.62,2.84,1.62,5.13v10.91h-2.81v-2.95c-.45,1.02-1.14,1.81-2.06,2.36s-1.99.83-3.2.83c-1.11,0-2.14-.23-3.07-.68-.94-.45-1.68-1.08-2.22-1.88s-.82-1.69-.82-2.67c0-1.3.33-2.32,1-3.04.66-.72,1.75-1.24,3.27-1.56,1.52-.32,3.62-.48,6.33-.48h.78v-1.17c0-1.45-.3-2.49-.89-3.15-.59-.65-1.55-.98-2.88-.98-1.99,0-3.97.62-5.93,1.85l-.96-2.1c.9-.64,1.98-1.16,3.25-1.55s2.49-.59,3.68-.59c2.2,0,3.84.56,4.92,1.69ZM1376.46,1027.85c.91-.96,1.37-2.2,1.37-3.71v-1.03h-.64c-2.08,0-3.67.09-4.76.27s-1.87.47-2.33.89c-.46.41-.69,1.02-.69,1.83,0,.92.34,1.69,1.01,2.29.68.6,1.52.91,2.54.91,1.42,0,2.59-.48,3.5-1.44Z"/>
    <path class="cls-15" d="M1395.7,1016.07l-1.88.18c-1.78.17-3.06.72-3.86,1.67-.79.95-1.19,2.12-1.19,3.52v9.88h-2.88v-17.31h2.81v3.02c.97-2.01,2.88-3.14,5.72-3.38l1.03-.07.25,2.49Z"/>
    <path class="cls-15" d="M1413.36,1020.44v10.87h-2.88v-10.7c0-1.61-.31-2.78-.94-3.52-.63-.73-1.63-1.1-3-1.1-1.59,0-2.85.49-3.8,1.46-.95.97-1.42,2.29-1.42,3.94v9.92h-2.88v-17.31h2.84v2.84c.57-1.07,1.36-1.88,2.38-2.43s2.18-.84,3.48-.84c4.15,0,6.22,2.29,6.22,6.86Z"/>
    <path class="cls-15" d="M1421.82,1006.51v3.23h-3.48v-3.23h3.48ZM1418.62,1014.01h2.88v17.31h-2.88v-17.31Z"/>
    <path class="cls-15" d="M1441.79,1020.44v10.87h-2.88v-10.7c0-1.61-.31-2.78-.94-3.52-.63-.73-1.63-1.1-3-1.1-1.59,0-2.86.49-3.8,1.46s-1.42,2.29-1.42,3.94v9.92h-2.88v-17.31h2.84v2.84c.57-1.07,1.36-1.88,2.38-2.43s2.18-.84,3.48-.84c4.15,0,6.22,2.29,6.22,6.86Z"/>
    <path class="cls-15" d="M1462.54,1014.01v16.13c0,2.58-.66,4.53-1.99,5.85-1.33,1.32-3.29,1.97-5.9,1.97-3.03,0-5.58-.78-7.64-2.35l.96-2.13c1.16.76,2.25,1.3,3.27,1.63,1.02.33,2.16.5,3.41.5,1.66,0,2.91-.44,3.77-1.33.85-.89,1.28-2.19,1.28-3.89v-3.06c-.5,1.11-1.26,1.97-2.29,2.56-1.03.59-2.25.89-3.64.89-1.52,0-2.86-.36-4.03-1.07-1.17-.71-2.08-1.72-2.74-3.02-.65-1.3-.98-2.81-.98-4.51s.33-3.21.98-4.51c.65-1.3,1.56-2.31,2.74-3.02,1.17-.71,2.52-1.07,4.03-1.07,1.37,0,2.57.3,3.59.89,1.02.59,1.79,1.43,2.31,2.52v-2.99h2.88ZM1458.24,1026.75c.95-1.1,1.42-2.62,1.42-4.57s-.47-3.43-1.4-4.53-2.25-1.65-3.93-1.65-3,.55-3.96,1.65c-.96,1.1-1.44,2.61-1.44,4.53s.48,3.46,1.44,4.57c.96,1.1,2.28,1.65,3.96,1.65s2.96-.55,3.91-1.65Z"/>
  </g>
  <g>
    <path class="cls-15" d="M483.57,692.73h-8.49l-1.8,4.17h-1.94l7.15-16.26h1.64l7.15,16.26h-1.91l-1.8-4.17ZM482.9,691.16l-3.57-8.32-3.57,8.32h7.15Z"/>
    <path class="cls-15" d="M491.3,696.35c-.82-.48-1.44-1.15-1.88-2.02-.44-.87-.66-1.89-.66-3.05s.23-2.19.68-3.08c.45-.88,1.09-1.57,1.91-2.06.82-.49,1.79-.74,2.89-.74.75,0,1.49.13,2.21.4.72.27,1.31.63,1.75,1.07l-.62,1.38c-1.06-.86-2.14-1.29-3.23-1.29-1.15,0-2.05.38-2.7,1.13-.65.75-.97,1.81-.97,3.18s.32,2.4.97,3.14c.65.74,1.54,1.11,2.7,1.11,1.09,0,2.17-.43,3.23-1.29l.62,1.38c-.48.45-1.08.8-1.8,1.06-.72.26-1.47.39-2.24.39-1.11,0-2.07-.24-2.88-.71Z"/>
    <path class="cls-15" d="M502.34,696.35c-.81-.48-1.44-1.15-1.88-2.02-.44-.87-.66-1.89-.66-3.05s.23-2.19.68-3.08c.45-.88,1.09-1.57,1.91-2.06.82-.49,1.79-.74,2.89-.74.75,0,1.49.13,2.21.4.72.27,1.31.63,1.75,1.07l-.62,1.38c-1.06-.86-2.14-1.29-3.23-1.29-1.15,0-2.05.38-2.7,1.13-.65.75-.97,1.81-.97,3.18s.32,2.4.97,3.14c.65.74,1.54,1.11,2.7,1.11,1.09,0,2.17-.43,3.23-1.29l.62,1.38c-.48.45-1.08.8-1.8,1.06-.72.26-1.47.39-2.24.39-1.11,0-2.07-.24-2.88-.71Z"/>
    <path class="cls-15" d="M520.92,691.58h-8.21c.06,1.31.42,2.29,1.06,2.96s1.56,1,2.74,1c1.31,0,2.5-.45,3.6-1.34l.62,1.36c-.49.46-1.12.83-1.89,1.09s-1.55.4-2.35.4c-1.75,0-3.13-.51-4.14-1.54-1.01-1.03-1.51-2.45-1.51-4.27,0-1.15.22-2.17.67-3.06.45-.88,1.07-1.57,1.88-2.06.81-.49,1.73-.74,2.76-.74,1.49,0,2.66.49,3.5,1.46.84.98,1.27,2.32,1.27,4.02v.69ZM513.81,687.77c-.59.61-.94,1.48-1.05,2.61h6.53c-.03-1.14-.32-2.01-.85-2.62s-1.29-.91-2.26-.91-1.77.31-2.36.92Z"/>
    <path class="cls-15" d="M522.98,695.61l.62-1.38c.6.48,1.21.82,1.83,1.03.62.21,1.33.31,2.11.31.83,0,1.46-.14,1.9-.43s.66-.7.66-1.23c0-.45-.15-.8-.44-1.06-.29-.26-.78-.47-1.45-.62l-1.89-.44c-.95-.21-1.68-.58-2.19-1.11-.51-.52-.76-1.17-.76-1.94,0-1,.39-1.81,1.18-2.42.78-.61,1.83-.92,3.14-.92.78,0,1.53.13,2.24.38s1.3.62,1.78,1.1l-.62,1.36c-1.03-.88-2.16-1.31-3.39-1.31-.78,0-1.4.15-1.83.45-.44.3-.66.72-.66,1.26,0,.45.13.8.4,1.07.27.27.7.47,1.3.61l1.91.46c1.04.25,1.82.62,2.33,1.12.51.5.76,1.15.76,1.95,0,.98-.4,1.77-1.19,2.35-.79.58-1.87.88-3.24.88-1.89,0-3.39-.48-4.5-1.45Z"/>
    <path class="cls-15" d="M534.04,695.61l.62-1.38c.6.48,1.21.82,1.83,1.03.62.21,1.33.31,2.11.31.83,0,1.46-.14,1.9-.43.44-.28.66-.7.66-1.23,0-.45-.15-.8-.44-1.06-.29-.26-.78-.47-1.45-.62l-1.89-.44c-.95-.21-1.68-.58-2.19-1.11-.51-.52-.76-1.17-.76-1.94,0-1,.39-1.81,1.18-2.42.78-.61,1.83-.92,3.14-.92.78,0,1.53.13,2.24.38.71.25,1.3.62,1.78,1.1l-.62,1.36c-1.03-.88-2.16-1.31-3.39-1.31-.78,0-1.39.15-1.83.45s-.66.72-.66,1.26c0,.45.13.8.4,1.07s.7.47,1.3.61l1.91.46c1.05.25,1.82.62,2.33,1.12.51.5.76,1.15.76,1.95,0,.98-.4,1.77-1.19,2.35s-1.87.88-3.24.88c-1.89,0-3.39-.48-4.5-1.45Z"/>
    <path class="cls-15" d="M554.96,696.09c-1.14-.67-2.01-1.63-2.62-2.88s-.91-2.73-.91-4.44.3-3.18.91-4.43c.61-1.25,1.48-2.2,2.62-2.87s2.47-1,4.01-1c1.12,0,2.15.17,3.09.52.94.35,1.75.86,2.44,1.53l-.71,1.45c-.78-.66-1.55-1.14-2.31-1.43s-1.58-.44-2.49-.44c-1.78,0-3.16.58-4.14,1.74-.98,1.16-1.46,2.8-1.46,4.92s.49,3.79,1.46,4.95c.98,1.16,2.36,1.74,4.14,1.74.91,0,1.74-.15,2.49-.44s1.52-.77,2.31-1.43l.71,1.45c-.69.68-1.51,1.19-2.44,1.53-.94.35-1.97.52-3.09.52-1.54,0-2.88-.33-4.01-1Z"/>
    <path class="cls-15" d="M568.99,696.35c-.81-.48-1.43-1.16-1.87-2.04-.44-.88-.66-1.91-.66-3.08s.22-2.19.66-3.08c.44-.88,1.06-1.56,1.87-2.04.81-.48,1.74-.71,2.8-.71s2,.24,2.81.71c.82.48,1.44,1.16,1.88,2.04.44.88.66,1.91.66,3.08s-.22,2.2-.66,3.08c-.44.88-1.06,1.56-1.88,2.04-.81.48-1.75.71-2.81.71s-2-.24-2.8-.71ZM574.34,694.43c.59-.73.89-1.79.89-3.19s-.3-2.42-.9-3.17-1.45-1.12-2.54-1.12-1.94.37-2.54,1.12c-.6.75-.9,1.8-.9,3.17s.29,2.44.89,3.18c.59.74,1.44,1.11,2.55,1.11s1.96-.36,2.55-1.09Z"/>
    <path class="cls-15" d="M589.62,689.85v7.06h-1.87v-6.94c0-1.04-.2-1.81-.61-2.28s-1.06-.71-1.95-.71c-1.03,0-1.85.32-2.47.95-.62.63-.92,1.48-.92,2.56v6.43h-1.87v-11.23h1.84v1.84c.37-.69.88-1.22,1.54-1.58.66-.36,1.41-.54,2.26-.54,2.69,0,4.04,1.48,4.04,4.45Z"/>
    <path class="cls-15" d="M598.98,695.5l-.09,1.48c-.35.06-.74.09-1.15.09-1.35,0-2.37-.35-3.06-1.06s-1.03-1.69-1.03-2.95v-5.9h-2.19v-1.48h2.19v-3.41h1.87v3.41h3.18v1.48h-3.18v5.76c0,1.77.81,2.65,2.44,2.65.34,0,.68-.02,1.01-.07Z"/>
    <path class="cls-15" d="M607.23,687.01l-1.22.12c-1.15.11-1.99.47-2.5,1.08-.52.62-.77,1.38-.77,2.28v6.41h-1.87v-11.23h1.82v1.96c.63-1.31,1.87-2.04,3.71-2.19l.67-.05.16,1.61Z"/>
    <path class="cls-15" d="M610.63,696.35c-.81-.48-1.43-1.16-1.87-2.04s-.66-1.91-.66-3.08.22-2.19.66-3.08c.44-.88,1.06-1.56,1.87-2.04.81-.48,1.74-.71,2.8-.71s2,.24,2.81.71,1.44,1.16,1.88,2.04c.44.88.66,1.91.66,3.08s-.22,2.2-.66,3.08c-.44.88-1.07,1.56-1.88,2.04-.81.48-1.75.71-2.81.71s-2-.24-2.8-.71ZM615.98,694.43c.59-.73.89-1.79.89-3.19s-.3-2.42-.9-3.17-1.45-1.12-2.54-1.12-1.94.37-2.54,1.12-.9,1.8-.9,3.17.3,2.44.89,3.18c.59.74,1.44,1.11,2.55,1.11s1.96-.36,2.55-1.09Z"/>
    <path class="cls-15" d="M621.57,680.65h1.87v16.26h-1.87v-16.26Z"/>
  </g>
  <g>
    <path class="cls-15" d="M1351.19,536.65h-8.49l-1.8,4.17h-1.94l7.15-16.26h1.64l7.15,16.26h-1.91l-1.8-4.17ZM1350.53,535.09l-3.57-8.32-3.57,8.32h7.15Z"/>
    <path class="cls-15" d="M1358.92,540.27c-.82-.48-1.44-1.15-1.88-2.02-.44-.87-.66-1.89-.66-3.05s.23-2.19.68-3.08c.45-.88,1.09-1.57,1.91-2.06.82-.49,1.79-.74,2.89-.74.75,0,1.49.13,2.21.4.72.27,1.31.63,1.75,1.07l-.62,1.38c-1.06-.86-2.14-1.29-3.23-1.29-1.15,0-2.05.38-2.7,1.13-.65.75-.97,1.81-.97,3.18s.32,2.4.97,3.14c.65.74,1.54,1.11,2.7,1.11,1.09,0,2.17-.43,3.23-1.29l.62,1.38c-.48.45-1.08.8-1.8,1.06-.72.26-1.47.39-2.24.39-1.11,0-2.07-.24-2.88-.71Z"/>
    <path class="cls-15" d="M1369.96,540.27c-.81-.48-1.44-1.15-1.88-2.02-.44-.87-.66-1.89-.66-3.05s.23-2.19.68-3.08c.45-.88,1.09-1.57,1.91-2.06.82-.49,1.79-.74,2.89-.74.75,0,1.49.13,2.21.4.72.27,1.31.63,1.75,1.07l-.62,1.38c-1.06-.86-2.14-1.29-3.23-1.29-1.15,0-2.05.38-2.7,1.13-.65.75-.97,1.81-.97,3.18s.32,2.4.97,3.14c.65.74,1.54,1.11,2.7,1.11,1.09,0,2.17-.43,3.23-1.29l.62,1.38c-.48.45-1.08.8-1.8,1.06-.72.26-1.47.39-2.24.39-1.11,0-2.07-.24-2.88-.71Z"/>
    <path class="cls-15" d="M1388.55,535.5h-8.21c.06,1.31.42,2.29,1.06,2.96s1.56,1,2.74,1c1.31,0,2.5-.45,3.6-1.34l.62,1.36c-.49.46-1.12.83-1.89,1.09s-1.55.4-2.35.4c-1.75,0-3.13-.51-4.14-1.54-1.01-1.03-1.51-2.45-1.51-4.27,0-1.15.22-2.17.67-3.06.45-.88,1.07-1.57,1.88-2.06.81-.49,1.73-.74,2.76-.74,1.49,0,2.66.49,3.5,1.46.84.98,1.27,2.32,1.27,4.02v.69ZM1381.43,531.7c-.59.61-.94,1.48-1.05,2.61h6.53c-.03-1.14-.32-2.01-.85-2.62s-1.29-.91-2.26-.91-1.77.31-2.36.92Z"/>
    <path class="cls-15" d="M1390.6,539.54l.62-1.38c.6.48,1.21.82,1.83,1.03.62.21,1.33.31,2.11.31.83,0,1.46-.14,1.9-.43.44-.28.66-.7.66-1.23,0-.45-.15-.8-.44-1.06-.29-.26-.78-.47-1.45-.62l-1.89-.44c-.95-.21-1.68-.58-2.19-1.11-.51-.52-.76-1.17-.76-1.94,0-1,.39-1.81,1.18-2.42.78-.61,1.83-.92,3.14-.92.78,0,1.53.13,2.24.38s1.3.62,1.78,1.1l-.62,1.36c-1.03-.88-2.16-1.31-3.39-1.31-.78,0-1.4.15-1.83.45-.44.3-.66.72-.66,1.26,0,.45.13.8.4,1.07.27.27.7.47,1.3.61l1.91.46c1.04.25,1.82.62,2.33,1.12.51.5.76,1.15.76,1.95,0,.98-.4,1.77-1.19,2.35-.79.58-1.87.88-3.24.88-1.89,0-3.39-.48-4.5-1.45Z"/>
    <path class="cls-15" d="M1401.67,539.54l.62-1.38c.6.48,1.21.82,1.83,1.03.62.21,1.33.31,2.11.31.83,0,1.46-.14,1.9-.43.44-.28.66-.7.66-1.23,0-.45-.15-.8-.44-1.06-.29-.26-.78-.47-1.45-.62l-1.89-.44c-.95-.21-1.68-.58-2.19-1.11s-.76-1.17-.76-1.94c0-1,.39-1.81,1.18-2.42.78-.61,1.83-.92,3.14-.92.78,0,1.53.13,2.24.38.71.25,1.3.62,1.78,1.1l-.62,1.36c-1.03-.88-2.16-1.31-3.39-1.31-.78,0-1.39.15-1.83.45-.44.3-.66.72-.66,1.26,0,.45.13.8.4,1.07s.7.47,1.3.61l1.91.46c1.04.25,1.82.62,2.33,1.12.51.5.76,1.15.76,1.95,0,.98-.4,1.77-1.19,2.35s-1.87.88-3.24.88c-1.89,0-3.39-.48-4.5-1.45Z"/>
    <path class="cls-15" d="M1422.58,540.01c-1.14-.67-2.01-1.63-2.62-2.88s-.91-2.73-.91-4.44.3-3.18.91-4.43c.61-1.25,1.48-2.2,2.62-2.87s2.47-1,4.01-1c1.12,0,2.15.17,3.09.52.94.35,1.75.86,2.44,1.53l-.71,1.45c-.78-.66-1.55-1.14-2.31-1.43-.75-.29-1.58-.44-2.49-.44-1.78,0-3.16.58-4.14,1.74-.98,1.16-1.46,2.8-1.46,4.92s.49,3.79,1.46,4.95c.98,1.16,2.36,1.74,4.14,1.74.91,0,1.74-.15,2.49-.44.75-.29,1.52-.77,2.31-1.43l.71,1.45c-.69.68-1.51,1.19-2.44,1.53-.94.35-1.97.52-3.09.52-1.54,0-2.88-.33-4.01-1Z"/>
    <path class="cls-15" d="M1436.61,540.27c-.81-.48-1.43-1.16-1.87-2.04-.44-.88-.66-1.91-.66-3.08s.22-2.19.66-3.08c.44-.88,1.06-1.56,1.87-2.04s1.74-.71,2.8-.71,2,.24,2.81.71c.82.48,1.44,1.16,1.88,2.04.44.88.66,1.91.66,3.08s-.22,2.2-.66,3.08c-.44.88-1.06,1.56-1.88,2.04-.81.48-1.75.71-2.81.71s-2-.24-2.8-.71ZM1441.96,538.35c.59-.73.89-1.79.89-3.19s-.3-2.42-.9-3.17-1.45-1.12-2.54-1.12-1.94.37-2.54,1.12c-.6.75-.9,1.8-.9,3.17s.3,2.44.89,3.18c.59.74,1.44,1.11,2.55,1.11s1.96-.36,2.55-1.09Z"/>
    <path class="cls-15" d="M1457.24,533.77v7.06h-1.87v-6.94c0-1.04-.2-1.81-.61-2.28s-1.06-.71-1.95-.71c-1.03,0-1.85.32-2.47.95-.62.63-.92,1.48-.92,2.56v6.43h-1.87v-11.23h1.84v1.84c.37-.69.88-1.22,1.54-1.58.66-.36,1.41-.54,2.26-.54,2.69,0,4.04,1.48,4.04,4.45Z"/>
    <path class="cls-15" d="M1466.6,539.42l-.09,1.48c-.35.06-.74.09-1.15.09-1.35,0-2.37-.35-3.06-1.06-.68-.71-1.03-1.69-1.03-2.95v-5.9h-2.19v-1.48h2.19v-3.41h1.87v3.41h3.18v1.48h-3.18v5.76c0,1.77.81,2.65,2.44,2.65.34,0,.68-.02,1.01-.07Z"/>
    <path class="cls-15" d="M1474.86,530.93l-1.22.12c-1.15.11-1.99.47-2.5,1.08-.52.62-.77,1.38-.77,2.28v6.41h-1.87v-11.23h1.82v1.96c.63-1.31,1.87-2.04,3.71-2.19l.67-.05.16,1.61Z"/>
    <path class="cls-15" d="M1478.26,540.27c-.81-.48-1.43-1.16-1.87-2.04-.44-.88-.66-1.91-.66-3.08s.22-2.19.66-3.08c.44-.88,1.06-1.56,1.87-2.04.81-.48,1.74-.71,2.8-.71s2,.24,2.81.71,1.44,1.16,1.88,2.04c.44.88.66,1.91.66,3.08s-.22,2.2-.66,3.08c-.44.88-1.07,1.56-1.88,2.04-.81.48-1.75.71-2.81.71s-2-.24-2.8-.71ZM1483.61,538.35c.59-.73.89-1.79.89-3.19s-.3-2.42-.9-3.17-1.45-1.12-2.54-1.12-1.94.37-2.54,1.12-.9,1.8-.9,3.17.3,2.44.89,3.18c.59.74,1.44,1.11,2.55,1.11s1.96-.36,2.55-1.09Z"/>
    <path class="cls-15" d="M1489.2,524.57h1.87v16.26h-1.87v-16.26Z"/>
  </g>
  <g>
    <path class="cls-81" d="M675.52,394.62v113.97c0,1.75-1.42,3.17-3.17,3.17h-268.59c-1.75,0-3.17-1.42-3.17-3.17v-113.97c0-1.75,1.42-3.17,3.17-3.17h74.24v47.31c0,3.8,3.09,6.88,6.88,6.88h106.34c3.8,0,6.88-3.09,6.88-6.88v-47.31h74.24c1.75,0,3.17,1.42,3.17,3.17Z"/>
    <path class="cls-63" d="M617.21,341.5h-38.36v29.57c0,4.16-3.39,7.55-7.55,7.55h-66.45c-4.17,0-7.56-3.39-7.56-7.55v-29.57h-38.37c-1.75,0-3.17,1.42-3.17,3.17v163.92c0,1.75,1.42,3.17,3.17,3.17h158.3c1.75,0,3.17-1.42,3.17-3.17v-163.92c0-1.75-1.42-3.17-3.17-3.17Z"/>
    <path class="cls-85" d="M504.69,457.56h0c0,1.75,1.42,3.17,3.17,3.17h1.53c1.75,0,3.17,1.42,3.17,3.17v44.69c0,1.75,1.42,3.17,3.17,3.17h44.69c1.75,0,3.17-1.42,3.17-3.17v-44.69c0-1.75,1.42-3.17,3.17-3.17h1.53c1.75,0,3.17-1.42,3.17-3.17h0c0-1.75-1.42-3.17-3.17-3.17h-60.42c-1.75,0-3.17,1.42-3.17,3.17h0Z"/>
    <path class="cls-82" d="M571.29,309.95h-66.45c-1.09,0-1.98.88-1.98,1.98v59.14c0,1.09.89,1.98,1.98,1.98h66.45c1.09,0,1.98-.88,1.98-1.98v-59.14c0-1.09-.88-1.98-1.98-1.98ZM563.05,349.99c0,1.38-1.12,2.5-2.5,2.5h-8.99c-1.38,0-2.5,1.12-2.5,2.5v8.99c0,1.38-1.12,2.5-2.5,2.5h-16.99c-1.38,0-2.5-1.12-2.5-2.5v-8.99c0-1.38-1.12-2.5-2.5-2.5h-8.99c-1.38,0-2.5-1.12-2.5-2.5v-16.99c0-1.38,1.12-2.5,2.5-2.5h8.99c1.38,0,2.5-1.12,2.5-2.5v-8.99c0-1.38,1.12-2.5,2.5-2.5h16.99c1.38,0,2.5,1.12,2.5,2.5v8.99c0,1.38,1.12,2.5,2.5,2.5h8.99c1.38,0,2.5,1.12,2.5,2.5v16.99Z"/>
  </g>
  <g>
    <path class="cls-1" d="M638.77,485.17c-.89,6.62-.47,16.94-2.33,26.59-.6,3.15-1.45,6.24-2.67,9.1-3.29,7.73-8.32,12.93-13.18,17.52-3.36,3.15-6.64,6.02-9.2,9.21-.65.82-1.89.82-2.55,0-6.27-7.82-16.82-13.67-22.38-26.73-1.22-2.86-2.06-5.95-2.67-9.1-1.85-9.65-1.43-19.97-2.33-26.59-.13-.98.63-1.85,1.62-1.85h54.08c.99,0,1.75.87,1.61,1.85Z"/>
    <path class="cls-25" d="M621.14,502.87h-1.58c.03-1.49.05-3.61-.04-4.56-.04-.41-.11-.81-.21-1.19-.98-3.87-4.83-6.53-8.83-6.68-4.65-.18-9.31,3.1-9.77,7.87-.09.95-.07,3.07-.04,4.56h-1.58c-.67,0-1.22.55-1.22,1.22v20.03c0,.68.55,1.22,1.22,1.22h22.05c.68,0,1.22-.54,1.22-1.22v-20.03c0-.67-.54-1.22-1.22-1.22ZM602.88,501.92c-.01-1.02-.01-2.11.05-2.7.35-3.91,3.53-6.7,7.19-6.76,3.45-.06,6.93,3.07,7.27,6.76.05.59.06,1.67.05,2.7-.01.49-.4.88-.89.88h-12.79c-.48,0-.87-.39-.88-.88ZM611.7,517.65h-3.16l.81-3.23c-.58-.29-.98-.89-.96-1.59.01-.4.16-.78.42-1.07.29-.35.71-.58,1.19-.61.57-.03,1.09.21,1.43.61.26.3.41.69.41,1.12,0,.67-.39,1.26-.96,1.54l.82,3.23Z"/>
  </g>
  <g>
    <path class="cls-89" d="M675.53,788.81v113.97c0,1.75-1.42,3.17-3.17,3.17h-268.59c-1.75,0-3.17-1.42-3.17-3.17v-113.97c0-1.75,1.42-3.17,3.17-3.17h74.24v47.31c0,3.8,3.09,6.88,6.88,6.88h106.34c3.8,0,6.88-3.09,6.88-6.88v-47.31h74.24c1.75,0,3.17,1.42,3.17,3.17Z"/>
    <path class="cls-62" d="M617.21,735.7h-38.36v29.57c0,4.16-3.39,7.55-7.55,7.55h-66.45c-4.17,0-7.56-3.39-7.56-7.55v-29.57h-38.37c-1.75,0-3.17,1.42-3.17,3.17v163.92c0,1.75,1.42,3.17,3.17,3.17h158.3c1.75,0,3.17-1.42,3.17-3.17v-163.92c0-1.75-1.42-3.17-3.17-3.17Z"/>
    <path class="cls-90" d="M504.69,851.75h0c0,1.75,1.42,3.17,3.17,3.17h1.53c1.75,0,3.17,1.42,3.17,3.17v44.69c0,1.75,1.42,3.17,3.17,3.17h44.69c1.75,0,3.17-1.42,3.17-3.17v-44.69c0-1.75,1.42-3.17,3.17-3.17h1.53c1.75,0,3.17-1.42,3.17-3.17h0c0-1.75-1.42-3.17-3.17-3.17h-60.42c-1.75,0-3.17,1.42-3.17,3.17h0Z"/>
    <path class="cls-77" d="M571.3,704.15h-66.45c-1.09,0-1.98.88-1.98,1.98v59.14c0,1.09.89,1.98,1.98,1.98h66.45c1.09,0,1.98-.88,1.98-1.98v-59.14c0-1.09-.88-1.98-1.98-1.98ZM563.05,744.19c0,1.38-1.12,2.5-2.5,2.5h-8.99c-1.38,0-2.5,1.12-2.5,2.5v8.99c0,1.38-1.12,2.5-2.5,2.5h-16.99c-1.38,0-2.5-1.12-2.5-2.5v-8.99c0-1.38-1.12-2.5-2.5-2.5h-8.99c-1.38,0-2.5-1.12-2.5-2.5v-16.99c0-1.38,1.12-2.5,2.5-2.5h8.99c1.38,0,2.5-1.12,2.5-2.5v-8.99c0-1.38,1.12-2.5,2.5-2.5h16.99c1.38,0,2.5,1.12,2.5,2.5v8.99c0,1.38,1.12,2.5,2.5,2.5h8.99c1.38,0,2.5,1.12,2.5,2.5v16.99Z"/>
  </g>
  <g>
    <path class="cls-8" d="M638.77,706.69c-1.18,8.8-.06,24.07-5,35.69-3.47,8.15-8.87,13.49-13.97,18.25-3.08,2.88-6.05,5.55-8.41,8.49-.65.81-1.89.81-2.55,0-6.27-7.83-16.82-13.67-22.38-26.74-.92-2.15-1.62-4.43-2.17-6.77-2.43-10.29-1.86-21.75-2.83-28.92-.13-.98.63-1.85,1.62-1.85h54.08c.99,0,1.75.87,1.61,1.85Z"/>
    <path class="cls-26" d="M621.14,724.4h-1.58c.03-1.5.05-3.61-.04-4.56-.42-4.5-4.64-7.71-9.04-7.88-4.65-.17-9.31,3.11-9.77,7.88-.09.95-.07,3.06-.04,4.56h-1.58c-.67,0-1.22.54-1.22,1.22v20.03c0,.67.55,1.22,1.22,1.22h22.05c.68,0,1.22-.55,1.22-1.22v-20.03c0-.68-.54-1.22-1.22-1.22ZM602.93,720.74c.35-3.91,3.53-6.69,7.19-6.76,3.45-.05,6.93,3.08,7.27,6.76.05.59.06,1.68.05,2.71-.01.48-.4.87-.89.87h-12.79c-.48,0-.87-.39-.88-.87-.01-1.03-.01-2.12.05-2.71ZM608.54,739.17l.81-3.22c-.18-.09-.33-.2-.47-.34-.31-.33-.5-.77-.49-1.25.02-.89.73-1.63,1.61-1.69,1.01-.06,1.84.74,1.84,1.73,0,.47-.19.9-.5,1.21-.13.14-.29.25-.46.34l.82,3.22h-3.16Z"/>
  </g>
  <g>
    <path class="cls-88" d="M1518.08,788.81v113.97c0,1.75-1.42,3.17-3.17,3.17h-268.59c-1.75,0-3.17-1.42-3.17-3.17v-113.97c0-1.75,1.42-3.17,3.17-3.17h74.24v47.31c0,3.8,3.09,6.88,6.88,6.88h106.34c3.8,0,6.88-3.09,6.88-6.88v-47.31h74.24c1.75,0,3.17,1.42,3.17,3.17Z"/>
    <path class="cls-65" d="M1459.76,735.7h-38.36v29.57c0,4.16-3.39,7.55-7.55,7.55h-66.45c-4.17,0-7.56-3.39-7.56-7.55v-29.57h-38.37c-1.75,0-3.17,1.42-3.17,3.17v163.92c0,1.75,1.42,3.17,3.17,3.17h158.3c1.75,0,3.17-1.42,3.17-3.17v-163.92c0-1.75-1.42-3.17-3.17-3.17Z"/>
    <path class="cls-83" d="M1347.24,851.75h0c0,1.75,1.42,3.17,3.17,3.17h1.53c1.75,0,3.17,1.42,3.17,3.17v44.69c0,1.75,1.42,3.17,3.17,3.17h44.69c1.75,0,3.17-1.42,3.17-3.17v-44.69c0-1.75,1.42-3.17,3.17-3.17h1.53c1.75,0,3.17-1.42,3.17-3.17h0c0-1.75-1.42-3.17-3.17-3.17h-60.42c-1.75,0-3.17,1.42-3.17,3.17h0Z"/>
    <path class="cls-78" d="M1413.85,704.15h-66.45c-1.09,0-1.98.88-1.98,1.98v59.14c0,1.09.89,1.98,1.98,1.98h66.45c1.09,0,1.98-.88,1.98-1.98v-59.14c0-1.09-.88-1.98-1.98-1.98ZM1405.6,744.19c0,1.38-1.12,2.5-2.5,2.5h-8.99c-1.38,0-2.5,1.12-2.5,2.5v8.99c0,1.38-1.12,2.5-2.5,2.5h-16.99c-1.38,0-2.5-1.12-2.5-2.5v-8.99c0-1.38-1.12-2.5-2.5-2.5h-8.99c-1.38,0-2.5-1.12-2.5-2.5v-16.99c0-1.38,1.12-2.5,2.5-2.5h8.99c1.38,0,2.5-1.12,2.5-2.5v-8.99c0-1.38,1.12-2.5,2.5-2.5h16.99c1.38,0,2.5,1.12,2.5,2.5v8.99c0,1.38,1.12,2.5,2.5,2.5h8.99c1.38,0,2.5,1.12,2.5,2.5v16.99Z"/>
  </g>
  <g>
    <path class="cls-9" d="M1308.61,768.42c.65.81,1.89.81,2.55,0,6.28-7.82,16.82-13.67,22.38-26.73,4.94-11.62,3.82-26.9,5-35.69.13-.98-.63-1.85-1.62-1.85h-54.08c-.99,0-1.75.87-1.62,1.85,1.19,8.79.06,24.07,5,35.69,5.55,13.06,16.1,18.91,22.38,26.73Z"/>
    <path class="cls-28" d="M1319.33,723.7c.03-1.49.05-3.61-.04-4.56-.43-4.5-4.64-7.71-9.04-7.88-4.66-.18-9.32,3.1-9.77,7.88-.09.95-.07,3.06-.04,4.56h-1.58c-.67,0-1.22.55-1.22,1.22v20.03c0,.67.55,1.22,1.22,1.22h22.05c.67,0,1.22-.55,1.22-1.22v-20.03c0-.67-.55-1.22-1.22-1.22h-1.58ZM1311.47,738.47h-3.16l.81-3.22c-.58-.29-.98-.89-.96-1.59.02-.89.73-1.63,1.62-1.68,1.01-.06,1.84.73,1.84,1.73,0,.68-.39,1.26-.96,1.55l.81,3.22h0ZM1316.32,723.62h-12.79c-.48,0-.88-.39-.88-.87-.01-1.03,0-2.12.05-2.7.36-3.91,3.53-6.7,7.19-6.76,3.46-.06,6.94,3.07,7.27,6.76.05.59.06,1.67.05,2.7,0,.48-.4.87-.88.87h0Z"/>
  </g>
  <g>
    <path class="cls-86" d="M1518.08,401.18v113.97c0,1.75-1.42,3.17-3.17,3.17h-268.59c-1.75,0-3.17-1.42-3.17-3.17v-113.97c0-1.75,1.42-3.17,3.17-3.17h74.24v47.31c0,3.8,3.09,6.88,6.88,6.88h106.34c3.8,0,6.88-3.09,6.88-6.88v-47.31h74.24c1.75,0,3.17,1.42,3.17,3.17Z"/>
    <path class="cls-74" d="M1459.77,348.06h-38.36v29.57c0,4.16-3.39,7.55-7.55,7.55h-66.45c-4.17,0-7.56-3.39-7.56-7.55v-29.57h-38.37c-1.75,0-3.17,1.42-3.17,3.17v163.92c0,1.75,1.42,3.17,3.17,3.17h158.3c1.75,0,3.17-1.42,3.17-3.17v-163.92c0-1.75-1.42-3.17-3.17-3.17Z"/>
    <path class="cls-87" d="M1347.24,464.12h0c0,1.75,1.42,3.17,3.17,3.17h1.53c1.75,0,3.17,1.42,3.17,3.17v44.69c0,1.75,1.42,3.17,3.17,3.17h44.69c1.75,0,3.17-1.42,3.17-3.17v-44.69c0-1.75,1.42-3.17,3.17-3.17h1.53c1.75,0,3.17-1.42,3.17-3.17h0c0-1.75-1.42-3.17-3.17-3.17h-60.42c-1.75,0-3.17,1.42-3.17,3.17h0Z"/>
    <path class="cls-79" d="M1413.85,316.51h-66.45c-1.09,0-1.98.88-1.98,1.98v59.14c0,1.09.89,1.98,1.98,1.98h66.45c1.09,0,1.98-.88,1.98-1.98v-59.14c0-1.09-.88-1.98-1.98-1.98ZM1405.61,356.55c0,1.38-1.12,2.5-2.5,2.5h-8.99c-1.38,0-2.5,1.12-2.5,2.5v8.99c0,1.38-1.12,2.5-2.5,2.5h-16.99c-1.38,0-2.5-1.12-2.5-2.5v-8.99c0-1.38-1.12-2.5-2.5-2.5h-8.99c-1.38,0-2.5-1.12-2.5-2.5v-16.99c0-1.38,1.12-2.5,2.5-2.5h8.99c1.38,0,2.5-1.12,2.5-2.5v-8.99c0-1.38,1.12-2.5,2.5-2.5h16.99c1.38,0,2.5,1.12,2.5,2.5v8.99c0,1.38,1.12,2.5,2.5,2.5h8.99c1.38,0,2.5,1.12,2.5,2.5v16.99Z"/>
  </g>
  <g>
    <path class="cls-7" d="M1308.61,546.89c.65.81,1.89.81,2.55,0,6.28-7.82,16.82-13.67,22.38-26.73,4.94-11.62,3.82-26.9,5-35.69.13-.98-.63-1.85-1.62-1.85h-54.08c-.99,0-1.75.87-1.62,1.85,1.19,8.79.06,24.07,5,35.69,5.55,13.06,16.1,18.91,22.38,26.73Z"/>
    <path class="cls-27" d="M1319.33,502.17c.03-1.49.05-3.61-.04-4.56-.43-4.5-4.64-7.71-9.04-7.88-4.66-.18-9.32,3.1-9.77,7.88-.09.95-.07,3.06-.04,4.56h-1.58c-.67,0-1.22.55-1.22,1.22v20.03c0,.67.55,1.22,1.22,1.22h22.05c.67,0,1.22-.55,1.22-1.22v-20.03c0-.67-.55-1.22-1.22-1.22h-1.58ZM1311.47,516.95h-3.16l.81-3.22c-.58-.29-.98-.89-.96-1.59.02-.89.73-1.63,1.62-1.68,1.01-.06,1.84.73,1.84,1.73,0,.68-.39,1.26-.96,1.55l.81,3.22h0ZM1316.32,502.1h-12.79c-.48,0-.88-.39-.88-.87-.01-1.03,0-2.12.05-2.7.36-3.91,3.53-6.7,7.19-6.76,3.46-.06,6.94,3.07,7.27,6.76.05.59.06,1.67.05,2.7,0,.48-.4.87-.88.87h0Z"/>
  </g>
  <g>
    <path class="cls-75" d="M1617.8,410.71l-2.32,1.2c-2,1.03-4.46.25-5.5-1.75l-27.76-53.68c-3.92,1.47-8.17,2.27-12.6,2.27-19.85,0-35.94-16.09-35.94-35.94s16.09-35.94,35.94-35.94,35.94,16.09,35.94,35.94c0,11.55-5.45,21.83-13.93,28.41l27.91,53.99c1.03,2,.25,4.46-1.75,5.5Z"/>
    <circle class="cls-80" cx="1569.62" cy="322.81" r="32.53"/>
  </g>
  <g>
    <g>
      <path class="cls-84" d="M1125.69,558.5v136.48c0,2.1-1.7,3.79-3.79,3.79h-321.64c-2.1,0-3.79-1.7-3.79-3.79v-136.48c0-2.1,1.7-3.79,3.79-3.79h88.9v56.65c0,4.55,3.7,8.24,8.24,8.24h127.34c4.55,0,8.24-3.7,8.24-8.24v-56.65h88.9c2.1,0,3.79,1.7,3.79,3.79Z"/>
      <path class="cls-76" d="M866.29,437.02c-2.09,0-3.79,1.7-3.79,3.79v254.17c0,2.09,1.7,3.79,3.79,3.79h189.56c2.1,0,3.79-1.7,3.79-3.79v-254.17c0-2.09-1.7-3.79-3.79-3.79h-189.56ZM1033,595.35c0,4.55-3.69,8.24-8.24,8.24h-127.34c-4.55,0-8.24-3.7-8.24-8.24v-113.32c0-4.54,3.7-8.24,8.24-8.24h127.34c4.55,0,8.24,3.7,8.24,8.24v113.32Z"/>
      <path class="cls-16" d="M921.11,633.87h0c0,2.09,1.7,3.79,3.79,3.79h1.83c2.09,0,3.79,1.7,3.79,3.79v53.52c0,2.09,1.7,3.79,3.79,3.79h53.52c2.09,0,3.79-1.7,3.79-3.79v-53.52c0-2.09,1.7-3.79,3.79-3.79h1.83c2.09,0,3.79-1.7,3.79-3.79h0c0-2.09-1.7-3.79-3.79-3.79h-72.36c-2.09,0-3.79,1.7-3.79,3.79h0Z"/>
      <path class="cls-35" d="M1024.75,485.22v106.95c0,1.98-1.6,3.58-3.58,3.58h-120.18c-1.97,0-3.58-1.6-3.58-3.58v-106.95c0-1.97,1.61-3.58,3.58-3.58h120.18c1.98,0,3.58,1.6,3.58,3.58Z"/>
    </g>
    <g>
      <rect class="cls-69" x="958.64" y="497.53" width="4.87" height="85.28" rx="1.44" ry="1.44"/>
      <rect class="cls-70" x="958.64" y="540.17" width="4.87" height="85.28" rx="1.44" ry="1.44" transform="translate(1543.88 -378.27) rotate(90)"/>
      <circle class="cls-33" cx="961.08" cy="582.81" r="4.41"/>
    </g>
    <g>
      <rect class="cls-71" x="905" y="493.6" width="112.45" height="21.5" rx="5.51" ry="5.51"/>
      <circle class="cls-34" cx="918" cy="504.35" r="3.71"/>
      <circle class="cls-30" cx="933.47" cy="504.35" r="3.71"/>
      <circle class="cls-38" cx="948.94" cy="504.35" r="3.71"/>
      <rect class="cls-36" x="972.1" y="498.67" width="9.03" height="3.95" rx="1.98" ry="1.98"/>
      <rect class="cls-37" x="972.1" y="506.08" width="9.03" height="3.95" rx="1.98" ry="1.98"/>
      <rect class="cls-39" x="984.71" y="498.67" width="22.33" height="3.95" rx="1.98" ry="1.98"/>
      <rect class="cls-31" x="984.71" y="506.08" width="22.33" height="3.95" rx="1.98" ry="1.98"/>
    </g>
    <g>
      <rect class="cls-72" x="904.85" y="518.46" width="112.45" height="21.5" rx="5.51" ry="5.51"/>
      <circle class="cls-32" cx="917.85" cy="529.21" r="3.71"/>
      <circle class="cls-49" cx="933.32" cy="529.21" r="3.71"/>
      <circle class="cls-46" cx="948.79" cy="529.21" r="3.71"/>
      <rect class="cls-43" x="971.95" y="523.53" width="9.03" height="3.95" rx="1.98" ry="1.98"/>
      <rect class="cls-41" x="971.95" y="530.94" width="9.03" height="3.95" rx="1.98" ry="1.98"/>
      <rect class="cls-45" x="984.55" y="523.53" width="22.33" height="3.95" rx="1.98" ry="1.98"/>
      <rect class="cls-42" x="984.55" y="530.94" width="22.33" height="3.95" rx="1.98" ry="1.98"/>
    </g>
    <g>
      <rect class="cls-73" x="905" y="543.33" width="112.45" height="21.5" rx="5.51" ry="5.51"/>
      <circle class="cls-44" cx="918" cy="554.08" r="3.71"/>
      <circle class="cls-48" cx="933.47" cy="554.08" r="3.71"/>
      <circle class="cls-47" cx="948.94" cy="554.08" r="3.71"/>
      <rect class="cls-40" x="972.1" y="548.39" width="9.03" height="3.95" rx="1.98" ry="1.98"/>
      <rect class="cls-29" x="972.1" y="555.81" width="9.03" height="3.95" rx="1.98" ry="1.98"/>
      <rect class="cls-50" x="984.71" y="548.39" width="22.33" height="3.95" rx="1.98" ry="1.98"/>
      <rect class="cls-51" x="984.71" y="555.81" width="22.33" height="3.95" rx="1.98" ry="1.98"/>
    </g>
  </g>
</svg>