<?xml version="1.0" encoding="UTF-8"?>
<svg id="Livello_1" data-name="Livello 1" xmlns="http://www.w3.org/2000/svg" xmlns:xlink="http://www.w3.org/1999/xlink" viewBox="0 0 1000 1000">
  <defs>
    <style>
      .cls-1 {
        fill: url(#Sfumatura_senza_nome_6);
      }
    </style>
    <linearGradient id="Sfumatura_senza_nome_6" data-name="Sfumatura senza nome 6" x1="166.76" y1="500" x2="816.78" y2="500" gradientUnits="userSpaceOnUse">
      <stop offset="0" stop-color="#a1ddec"/>
      <stop offset="1" stop-color="#50b0d3"/>
    </linearGradient>
  </defs>
  <path class="cls-1" d="M816.78,488.77v38.11c-7.6,120.45-86.43,229.64-198.21,275.02-14.2,5.76-41.11,19.31-46.91-2.6-1.85-32.38,2.18-66.94-.03-99.06-1.3-18.92-7.98-37.94-21.65-51.39,53.82-4.77,106.76-23.47,131.76-74.69,15.79-32.35,21.17-84.17,11.44-118.69-5.26-18.66-15.57-35.56-28.43-49.88,7.97-21.1,7.69-44.78,2.53-66.5-.75-3.14-4.04-15.37-5.36-17.22-4.07-5.71-34.48,3.41-41.12,5.86-17.35,6.4-32.98,16.61-48.73,26.04-52.61-14.14-108.86-14.32-161.45.03-16.49-9.4-32.51-19.9-50.54-26.4-12.21-4.4-27.01-8.87-39.77-6.06-10.45,26.45-13.37,57.04-3.02,84.02-34.5,36.54-38.56,86.95-28.61,134.45,15.33,73.16,73.35,102.98,143.16,109.64-5.4,5.03-10.23,11.67-13.37,18.39-3.92,8.39-4.4,16.92-8.26,24.77-24.07,10.49-53.33,11.74-74.81-5.15-14.36-11.29-20.42-28.91-34.39-40.56-9.85-8.21-34.35-20.16-46.28-11.95-9.79,6.73,15.95,20.39,20.18,24.07,22.42,19.53,23.96,49.25,46.39,67.94,24.23,20.19,59.38,21.56,88.94,14.6.05,14.61-.01,29.25-.05,43.87,0,2.69,1.33,5.15,1.32,7.57-.18,33.41-41.83,12.1-58.02,4.68-235.34-107.84-252.15-433.87-27.94-564.48,206.41-120.25,477.21,15.62,491.25,255.56Z"/>
</svg>