<?xml version="1.0" encoding="UTF-8"?>
<svg id="Livello_1" data-name="Livello 1" xmlns="http://www.w3.org/2000/svg" xmlns:xlink="http://www.w3.org/1999/xlink" viewBox="0 0 1000 1000">
  <defs>
    <style>
      .cls-1 {
        fill: url(#Sfumatura_senza_nome_15);
      }

      .cls-2 {
        fill: url(#Sfumatura_senza_nome_11);
      }

      .cls-3 {
        fill: url(#Sfumatura_senza_nome_15-6);
      }

      .cls-4 {
        fill: url(#Sfumatura_senza_nome_15-5);
      }

      .cls-5 {
        fill: url(#Sfumatura_senza_nome_15-2);
      }

      .cls-6 {
        fill: url(#Sfumatura_senza_nome_15-4);
      }

      .cls-7 {
        fill: url(#Sfumatura_senza_nome_15-3);
      }

      .cls-8 {
        fill: url(#Sfumatura_senza_nome_11-3);
      }

      .cls-9 {
        fill: url(#Sfumatura_senza_nome_11-2);
      }

      .cls-10 {
        fill: url(#Sfumatura_senza_nome_113-13);
      }

      .cls-11 {
        fill: url(#Sfumatura_senza_nome_113-11);
      }

      .cls-12 {
        fill: url(#Sfumatura_senza_nome_113-12);
      }

      .cls-13 {
        fill: url(#Sfumatura_senza_nome_113-10);
      }

      .cls-14 {
        fill: url(#Sfumatura_senza_nome_113-14);
      }

      .cls-15 {
        fill: url(#Sfumatura_senza_nome_113-4);
      }

      .cls-16 {
        fill: url(#Sfumatura_senza_nome_113-3);
      }

      .cls-17 {
        fill: url(#Sfumatura_senza_nome_113-2);
      }

      .cls-18 {
        fill: url(#Sfumatura_senza_nome_113-5);
      }

      .cls-19 {
        fill: url(#Sfumatura_senza_nome_113-6);
      }

      .cls-20 {
        fill: url(#Sfumatura_senza_nome_113-8);
      }

      .cls-21 {
        fill: url(#Sfumatura_senza_nome_113-7);
      }

      .cls-22 {
        fill: url(#Sfumatura_senza_nome_113-9);
      }

      .cls-23 {
        fill: url(#Sfumatura_senza_nome_113);
      }
    </style>
    <linearGradient id="Sfumatura_senza_nome_15" data-name="Sfumatura senza nome 15" x1="231.86" y1="369.11" x2="737.99" y2="369.11" gradientUnits="userSpaceOnUse">
      <stop offset="0" stop-color="#90e0ef"/>
      <stop offset="1" stop-color="#00b4d8"/>
    </linearGradient>
    <linearGradient id="Sfumatura_senza_nome_113" data-name="Sfumatura senza nome 113" x1="273.68" y1="369.11" x2="307.06" y2="369.11" gradientUnits="userSpaceOnUse">
      <stop offset="0" stop-color="#0077b6"/>
      <stop offset="1" stop-color="#03045e"/>
    </linearGradient>
    <linearGradient id="Sfumatura_senza_nome_113-2" data-name="Sfumatura senza nome 113" x1="343.31" y1="369.11" x2="376.68" y2="369.11" xlink:href="#Sfumatura_senza_nome_113"/>
    <linearGradient id="Sfumatura_senza_nome_113-3" data-name="Sfumatura senza nome 113" x1="412.93" x2="446.3" xlink:href="#Sfumatura_senza_nome_113"/>
    <linearGradient id="Sfumatura_senza_nome_113-4" data-name="Sfumatura senza nome 113" x1="533.85" y1="352.42" x2="574.51" y2="352.42" xlink:href="#Sfumatura_senza_nome_113"/>
    <linearGradient id="Sfumatura_senza_nome_113-5" data-name="Sfumatura senza nome 113" x1="533.85" y1="385.79" x2="574.51" y2="385.79" xlink:href="#Sfumatura_senza_nome_113"/>
    <linearGradient id="Sfumatura_senza_nome_113-6" data-name="Sfumatura senza nome 113" x1="590.6" y1="352.42" x2="691.12" y2="352.42" xlink:href="#Sfumatura_senza_nome_113"/>
    <linearGradient id="Sfumatura_senza_nome_113-7" data-name="Sfumatura senza nome 113" x1="590.6" y1="385.79" x2="691.12" y2="385.79" xlink:href="#Sfumatura_senza_nome_113"/>
    <linearGradient id="Sfumatura_senza_nome_15-2" data-name="Sfumatura senza nome 15" x1="231.86" y1="490.85" x2="334.01" y2="490.85" xlink:href="#Sfumatura_senza_nome_15"/>
    <linearGradient id="Sfumatura_senza_nome_15-3" data-name="Sfumatura senza nome 15" x1="657.65" y1="490.85" x2="737.98" y2="490.85" xlink:href="#Sfumatura_senza_nome_15"/>
    <linearGradient id="Sfumatura_senza_nome_113-8" data-name="Sfumatura senza nome 113" y1="490.85" y2="490.85" xlink:href="#Sfumatura_senza_nome_113"/>
    <linearGradient id="Sfumatura_senza_nome_113-9" data-name="Sfumatura senza nome 113" x1="660.67" y1="474.17" x2="691.11" y2="474.17" xlink:href="#Sfumatura_senza_nome_113"/>
    <linearGradient id="Sfumatura_senza_nome_113-10" data-name="Sfumatura senza nome 113" x1="659.02" y1="507.54" x2="691.11" y2="507.54" xlink:href="#Sfumatura_senza_nome_113"/>
    <linearGradient id="Sfumatura_senza_nome_15-4" data-name="Sfumatura senza nome 15" x1="231.86" y1="621.41" x2="366.82" y2="621.41" xlink:href="#Sfumatura_senza_nome_15"/>
    <linearGradient id="Sfumatura_senza_nome_15-5" data-name="Sfumatura senza nome 15" x1="487.11" y1="631.51" x2="504.55" y2="631.51" xlink:href="#Sfumatura_senza_nome_15"/>
    <linearGradient id="Sfumatura_senza_nome_15-6" data-name="Sfumatura senza nome 15" x1="624.84" y1="621.41" x2="737.98" y2="621.41" xlink:href="#Sfumatura_senza_nome_15"/>
    <linearGradient id="Sfumatura_senza_nome_113-11" data-name="Sfumatura senza nome 113" y1="621.41" y2="621.41" xlink:href="#Sfumatura_senza_nome_113"/>
    <linearGradient id="Sfumatura_senza_nome_113-12" data-name="Sfumatura senza nome 113" x1="343.3" y1="624.93" x2="351.42" y2="624.93" xlink:href="#Sfumatura_senza_nome_113"/>
    <linearGradient id="Sfumatura_senza_nome_113-13" data-name="Sfumatura senza nome 113" x1="646.83" y1="604.72" x2="691.11" y2="604.72" xlink:href="#Sfumatura_senza_nome_113"/>
    <linearGradient id="Sfumatura_senza_nome_113-14" data-name="Sfumatura senza nome 113" x1="635.91" y1="638.09" x2="691.11" y2="638.09" xlink:href="#Sfumatura_senza_nome_113"/>
    <linearGradient id="Sfumatura_senza_nome_11" data-name="Sfumatura senza nome 11" x1="487.11" y1="631.51" x2="504.55" y2="631.51" gradientUnits="userSpaceOnUse">
      <stop offset="0" stop-color="#90e0ef"/>
      <stop offset="1" stop-color="#00b4d8"/>
    </linearGradient>
    <linearGradient id="Sfumatura_senza_nome_11-2" data-name="Sfumatura senza nome 11" x1="459.32" y1="546.93" x2="532.78" y2="546.93" xlink:href="#Sfumatura_senza_nome_11"/>
    <linearGradient id="Sfumatura_senza_nome_11-3" data-name="Sfumatura senza nome 11" x1="343.33" y1="615.12" x2="648.33" y2="615.12" xlink:href="#Sfumatura_senza_nome_11"/>
  </defs>
  <g>
    <rect class="cls-1" x="231.86" y="320.72" width="506.13" height="96.78" rx="24.79" ry="24.79"/>
    <circle class="cls-23" cx="290.37" cy="369.11" r="16.69"/>
    <circle class="cls-17" cx="359.99" cy="369.11" r="16.69"/>
    <circle class="cls-16" cx="429.62" cy="369.11" r="16.69"/>
    <rect class="cls-15" x="533.85" y="343.53" width="40.66" height="17.79" rx="8.89" ry="8.89"/>
    <rect class="cls-18" x="533.85" y="376.9" width="40.66" height="17.79" rx="8.89" ry="8.89"/>
    <rect class="cls-19" x="590.6" y="343.53" width="100.52" height="17.79" rx="8.89" ry="8.89"/>
    <rect class="cls-21" x="590.6" y="376.9" width="100.52" height="17.79" rx="8.89" ry="8.89"/>
  </g>
  <path class="cls-5" d="M331.94,502.2c.55,11.72,1.14,24.19,2.07,37.04h-77.36c-13.69,0-24.79-11.1-24.79-24.79v-47.19c0-13.69,11.1-24.79,24.79-24.79h73.37c-1.5,3.75-2.03,7.86-1.48,11.95,1.78,13.17,2.57,29.98,3.4,47.78Z"/>
  <path class="cls-7" d="M737.98,467.26v47.19c0,13.69-11.1,24.79-24.79,24.79h-55.54c.56-7.77,1-15.39,1.37-22.8.25-4.85.47-9.6.69-14.24.06-1.19.11-2.37.17-3.55.25-5.32.51-10.55.79-15.59.35-6.25.75-12.22,1.25-17.78.35-3.83.74-7.47,1.2-10.86.55-4.09.02-8.2-1.48-11.95h51.55c13.69,0,24.79,11.1,24.79,24.79Z"/>
  <circle class="cls-20" cx="290.37" cy="490.85" r="16.69"/>
  <path class="cls-22" d="M691.11,474.17c0,2.45-1,4.68-2.6,6.29-1.61,1.6-3.84,2.6-6.29,2.6h-21.55c.35-6.25.75-12.22,1.25-17.78h20.3c4.91,0,8.89,3.98,8.89,8.89Z"/>
  <path class="cls-13" d="M691.11,507.54c0,2.46-1,4.68-2.6,6.29-1.61,1.61-3.84,2.61-6.29,2.61h-23.2c.25-4.85.47-9.6.69-14.24.06-1.19.11-2.37.17-3.55h22.34c4.91,0,8.89,3.98,8.89,8.89Z"/>
  <path class="cls-6" d="M366.82,669.8h-110.17c-13.69,0-24.79-11.1-24.79-24.8v-47.19c0-13.69,11.1-24.79,24.79-24.79h80.68c1.78,13.77,4.21,27.62,7.63,41.13,1.85,7.31,3.98,14.51,6.46,21.56h0c1.48,4.2,3.07,8.34,4.8,12.4,3.26,7.65,6.81,14.86,10.6,21.69Z"/>
  <path class="cls-4" d="M499.71,631.64l4.09,16.26h-15.95l4.1-16.26c-2.93-1.46-4.93-4.51-4.84-8.02.11-4.47,3.69-8.2,8.15-8.48,5.08-.32,9.29,3.7,9.29,8.7,0,3.42-1.98,6.37-4.84,7.8Z"/>
  <path class="cls-3" d="M737.98,597.81v47.19c0,13.7-11.1,24.8-24.79,24.8h-88.35c3.79-6.83,7.34-14.04,10.6-21.69.16-.37.32-.75.47-1.12,2.43-5.8,4.58-11.74,6.51-17.79,1.63-5.12,3.1-10.33,4.41-15.58,1.48-5.88,2.76-11.82,3.89-17.79,1.44-7.58,2.63-15.21,3.61-22.81h58.86c13.69,0,24.79,11.1,24.79,24.79Z"/>
  <circle class="cls-11" cx="290.37" cy="621.41" r="16.69"/>
  <path class="cls-12" d="M351.42,635.71c-4.87-2.9-8.12-8.22-8.12-14.3,0-2.6.6-5.06,1.66-7.26,1.85,7.31,3.98,14.51,6.46,21.56Z"/>
  <path class="cls-10" d="M691.11,604.72c0,2.46-1,4.68-2.6,6.3-1.61,1.6-3.84,2.6-6.29,2.6h-35.39c1.48-5.88,2.76-11.82,3.89-17.79h31.5c4.91,0,8.89,3.98,8.89,8.89Z"/>
  <path class="cls-14" d="M691.11,638.09c0,2.46-1,4.69-2.6,6.29-1.61,1.62-3.84,2.61-6.29,2.61h-46.31c2.43-5.8,4.58-11.74,6.51-17.79h39.8c4.91,0,8.89,3.98,8.89,8.89Z"/>
  <g>
    <path class="cls-2" d="M499.71,631.64l4.09,16.26h-15.95l4.1-16.26c-2.93-1.46-4.93-4.51-4.84-8.02.11-4.47,3.69-8.2,8.15-8.48,5.08-.32,9.29,3.7,9.29,8.7,0,3.42-1.98,6.37-4.84,7.8Z"/>
    <path class="cls-9" d="M532.75,568.59c-.02,1.22-.52,2.32-1.33,3.12-.76.76-1.79,1.23-2.93,1.28-.06.01-.13.01-.2.01h-64.5c-.21,0-.41-.01-.61-.05-2.15-.29-3.82-2.13-3.84-4.36-.06-5.18-.04-10.67.23-13.63.53-5.8,2.29-11.11,4.98-15.72,6.45-11.08,18.26-18.15,31.28-18.38,12.18-.2,24.41,7.43,31.26,18.38,2.96,4.74,4.92,10.1,5.43,15.72.27,2.96.29,8.45.23,13.63Z"/>
    <path class="cls-8" d="M639.66,442.56h-287.66c-5.26,0-9.3,4.64-8.59,9.86,1.18,8.73,1.92,18.66,2.53,29.44.35,6.2.66,12.66.97,19.35h0c.57,12.11,1.17,24.92,2.13,38.03.81,11.12,1.88,22.46,3.4,33.78,1.43,10.69,3.27,21.36,5.69,31.81,2.48,10.78,5.58,21.33,9.47,31.42.77,2.02,1.58,4.01,2.42,5.99,4.22,9.92,8.98,19.06,14.14,27.56,30.97,51.03,76.27,78.97,104.9,114.63,3.48,4.34,10.06,4.34,13.54,0,28.63-35.66,73.93-63.6,104.9-114.63,4.33-7.12,8.37-14.7,12.04-22.81.72-1.56,1.42-3.15,2.1-4.75,1.81-4.26,3.47-8.61,4.98-13.04,1.76-5.1,3.33-10.3,4.72-15.58,1.57-5.85,2.93-11.79,4.11-17.79,1.51-7.54,2.74-15.17,3.76-22.81,1.53-11.32,2.6-22.66,3.4-33.78.57-7.74,1.01-15.36,1.39-22.8.31-6.07.59-12.02.86-17.79.25-5.36.5-10.56.78-15.59.35-6.23.73-12.17,1.22-17.78.39-4.52.84-8.82,1.39-12.86.7-5.22-3.33-9.86-8.59-9.86ZM557.6,680.58c0,3.4-2.75,6.16-6.15,6.16h-111.23c-3.4,0-6.16-2.76-6.16-6.16v-101.04c0-3.4,2.76-6.15,6.16-6.15h7.96c0-.12,0-.25-.01-.37-.14-7.52-.23-17.93.21-22.62.38-3.94,1.32-7.67,2.74-11.16,7.25-17.86,26.91-29.31,46.55-28.57,18.35.69,36.07,11.88,42.87,28.57,1.43,3.49,2.38,7.23,2.75,11.16.44,4.69.34,15.1.21,22.62-.01.12-.01.25-.01.37h7.96c3.4,0,6.15,2.75,6.15,6.15v101.04Z"/>
  </g>
</svg>