<?xml version="1.0" encoding="UTF-8"?>
<svg id="Livello_1" data-name="Livello 1" xmlns="http://www.w3.org/2000/svg" xmlns:xlink="http://www.w3.org/1999/xlink" viewBox="0 0 1000 1000">
  <defs>
    <style>
      .cls-1 {
        fill: url(#Sfumatura_senza_nome_18);
      }

      .cls-2 {
        fill: url(#Sfumatura_senza_nome_11);
      }

      .cls-3 {
        fill: url(#Sfumatura_senza_nome_18-2);
      }

      .cls-4 {
        fill: url(#Sfumatura_senza_nome_113-4);
      }

      .cls-5 {
        fill: url(#Sfumatura_senza_nome_113-3);
      }

      .cls-6 {
        fill: url(#Sfumatura_senza_nome_113-2);
      }

      .cls-7 {
        fill: url(#Sfumatura_senza_nome_113-5);
      }

      .cls-8 {
        fill: url(#Sfumatura_senza_nome_113-6);
      }

      .cls-9 {
        fill: url(#Sfumatura_senza_nome_8);
      }

      .cls-10 {
        fill: url(#Sfumatura_senza_nome_113);
      }

      .cls-11 {
        fill: url(#Sfumatura_senza_nome_8-2);
      }
    </style>
    <linearGradient id="Sfumatura_senza_nome_8" data-name="Sfumatura senza nome 8" x1="130.24" y1="674.61" x2="869.76" y2="674.61" gradientUnits="userSpaceOnUse">
      <stop offset="0" stop-color="#00b4d8"/>
      <stop offset="1" stop-color="#0077b6"/>
    </linearGradient>
    <linearGradient id="Sfumatura_senza_nome_11" data-name="Sfumatura senza nome 11" x1="278.58" y1="542.43" x2="721.42" y2="542.43" gradientUnits="userSpaceOnUse">
      <stop offset="0" stop-color="#90e0ef"/>
      <stop offset="1" stop-color="#00b4d8"/>
    </linearGradient>
    <linearGradient id="Sfumatura_senza_nome_8-2" data-name="Sfumatura senza nome 8" x1="410.22" y1="7329.56" x2="589.8" y2="7329.56" gradientTransform="translate(0 8088.82) scale(1 -1)" xlink:href="#Sfumatura_senza_nome_8"/>
    <linearGradient id="Sfumatura_senza_nome_18" data-name="Sfumatura senza nome 18" x1="405.31" y1="248.44" x2="594.71" y2="248.44" gradientUnits="userSpaceOnUse">
      <stop offset="0" stop-color="#0077b6"/>
      <stop offset="1" stop-color="#03045e"/>
    </linearGradient>
    <linearGradient id="Sfumatura_senza_nome_18-2" data-name="Sfumatura senza nome 18" x1="356.98" y1="512.8" x2="643.02" y2="512.8" xlink:href="#Sfumatura_senza_nome_18"/>
    <linearGradient id="Sfumatura_senza_nome_113" data-name="Sfumatura senza nome 113" x1="412.25" y1="7630.91" x2="512" y2="7630.91" gradientTransform="translate(0 8088.82) scale(1 -1)" gradientUnits="userSpaceOnUse">
      <stop offset="0" stop-color="#0077b6"/>
      <stop offset="1" stop-color="#03045e"/>
    </linearGradient>
    <linearGradient id="Sfumatura_senza_nome_113-2" data-name="Sfumatura senza nome 113" y1="7613.67" y2="7613.67" xlink:href="#Sfumatura_senza_nome_113"/>
    <linearGradient id="Sfumatura_senza_nome_113-3" data-name="Sfumatura senza nome 113" y1="7596.44" y2="7596.44" xlink:href="#Sfumatura_senza_nome_113"/>
    <linearGradient id="Sfumatura_senza_nome_113-4" data-name="Sfumatura senza nome 113" x1="487.99" y1="7540.9" x2="587.74" y2="7540.9" xlink:href="#Sfumatura_senza_nome_113"/>
    <linearGradient id="Sfumatura_senza_nome_113-5" data-name="Sfumatura senza nome 113" x1="487.99" y1="7523.66" x2="587.74" y2="7523.66" xlink:href="#Sfumatura_senza_nome_113"/>
    <linearGradient id="Sfumatura_senza_nome_113-6" data-name="Sfumatura senza nome 113" x1="487.99" y1="7506.42" x2="587.74" y2="7506.42" xlink:href="#Sfumatura_senza_nome_113"/>
  </defs>
  <path class="cls-9" d="M869.76,521.32v306.57c0,4.71-3.82,8.52-8.52,8.52H138.76c-4.71,0-8.52-3.82-8.52-8.52v-306.57c0-4.71,3.82-8.52,8.52-8.52h199.7v127.26c0,10.21,8.31,18.52,18.52,18.52h286.04c10.22,0,18.52-8.31,18.52-18.52v-127.26h199.7c4.71,0,8.52,3.82,8.52,8.52Z"/>
  <path class="cls-2" d="M712.9,248.45h-103.19v79.53c0,11.2-9.11,20.32-20.32,20.32h-178.75c-11.21,0-20.33-9.12-20.33-20.32v-79.53h-103.21c-4.7,0-8.52,3.82-8.52,8.52v570.93c0,4.7,3.82,8.52,8.52,8.52h425.8c4.71,0,8.52-3.82,8.52-8.52V256.97c0-4.7-3.81-8.52-8.52-8.52ZM661.54,640.07c0,10.21-8.3,18.52-18.52,18.52h-286.04c-10.21,0-18.52-8.31-18.52-18.52v-254.54c0-10.2,8.31-18.51,18.52-18.51h286.04c10.22,0,18.52,8.31,18.52,18.51v254.54Z"/>
  <path class="cls-11" d="M410.22,690.63h0c0,4.7,3.81,8.52,8.52,8.52h4.12c4.7,0,8.52,3.81,8.52,8.52v120.22c0,4.7,3.81,8.52,8.52,8.52h120.22c4.7,0,8.52-3.81,8.52-8.52v-120.22c0-4.7,3.81-8.52,8.52-8.52h4.12c4.7,0,8.52-3.81,8.52-8.52h0c0-4.7-3.81-8.52-8.52-8.52h-162.53c-4.7,0-8.52,3.81-8.52,8.52h-.01Z"/>
  <path class="cls-1" d="M589.39,163.58h-178.75c-2.94,0-5.33,2.38-5.33,5.32v159.07c0,2.94,2.39,5.32,5.33,5.32h178.75c2.94,0,5.32-2.38,5.32-5.32v-159.07c0-2.94-2.38-5.32-5.32-5.32ZM567.21,271.29c0,3.72-3.01,6.73-6.73,6.73h-24.18c-3.72,0-6.73,3.01-6.73,6.73v24.18c0,3.72-3.01,6.73-6.73,6.73h-45.7c-3.72,0-6.73-3.01-6.73-6.73v-24.18c0-3.72-3.01-6.73-6.73-6.73h-24.18c-3.72,0-6.73-3.01-6.73-6.73v-45.7c0-3.72,3.01-6.73,6.73-6.73h24.18c3.72,0,6.73-3.01,6.73-6.73v-24.18c0-3.72,3.01-6.73,6.73-6.73h45.7c3.72,0,6.73,3.01,6.73,6.73v24.18c0,3.72,3.01,6.73,6.73,6.73h24.18c3.72,0,6.73,3.01,6.73,6.73v45.7Z"/>
  <path class="cls-3" d="M634.98,384.65h-269.96c-4.42,0-8.04,3.62-8.04,8.04v240.22c0,4.45,3.61,8.04,8.04,8.04h269.96c4.44,0,8.04-3.6,8.04-8.04v-240.23c0-4.43-3.59-8.03-8.04-8.03ZM621.58,615.34c0,2.72-2.2,4.92-4.92,4.92h0s-157.57,0-157.57,0c-2.72,0-4.92-2.2-4.92-4.92v-85.1h-70.82c-2.72,0-4.92-2.2-4.92-4.92v-100.52c0-2.72,2.2-4.92,4.92-4.92h93.71c1.45,0,2.83-.64,3.76-1.76l5.27-6.28c.93-1.11,2.31-1.76,3.76-1.76h51.05c2.72,0,4.92,2.2,4.92,4.92v94.88h6.97c1.45,0,2.83-.64,3.76-1.76l5.27-6.28c.94-1.11,2.31-1.76,3.76-1.76h51.05c2.72,0,4.92,2.2,4.92,4.92v110.31Z"/>
  <rect class="cls-10" x="412.25" y="453.68" width="99.76" height="8.47" rx="4.23" ry="4.23"/>
  <rect class="cls-6" x="412.25" y="470.92" width="99.76" height="8.47" rx="4.23" ry="4.23"/>
  <rect class="cls-5" x="412.25" y="488.15" width="99.76" height="8.47" rx="4.23" ry="4.23"/>
  <rect class="cls-4" x="487.99" y="543.69" width="99.76" height="8.47" rx="4.23" ry="4.23"/>
  <rect class="cls-7" x="487.99" y="560.93" width="99.76" height="8.47" rx="4.23" ry="4.23"/>
  <rect class="cls-8" x="487.99" y="578.17" width="99.76" height="8.47" rx="4.23" ry="4.23"/>
</svg>