<?xml version="1.0" encoding="UTF-8"?>
<svg id="Livello_1" data-name="Livello 1" xmlns="http://www.w3.org/2000/svg" xmlns:xlink="http://www.w3.org/1999/xlink" viewBox="0 0 1000 1000">
  <defs>
    <style>
      .cls-1 {
        fill: url(#Sfumatura_senza_nome_18);
      }

      .cls-2 {
        fill: url(#Sfumatura_senza_nome_11);
      }

      .cls-3 {
        fill: url(#Sfumatura_senza_nome_18-3);
      }

      .cls-4 {
        fill: url(#Sfumatura_senza_nome_18-4);
      }

      .cls-5 {
        fill: url(#Sfumatura_senza_nome_18-2);
      }

      .cls-6 {
        fill: url(#Sfumatura_senza_nome_8);
      }

      .cls-7 {
        fill: url(#Sfumatura_senza_nome_8-2);
      }
    </style>
    <linearGradient id="Sfumatura_senza_nome_8" data-name="Sfumatura senza nome 8" x1="130.24" y1="674.61" x2="869.76" y2="674.61" gradientUnits="userSpaceOnUse">
      <stop offset="0" stop-color="#00b4d8"/>
      <stop offset="1" stop-color="#0077b6"/>
    </linearGradient>
    <linearGradient id="Sfumatura_senza_nome_11" data-name="Sfumatura senza nome 11" x1="278.58" y1="542.43" x2="721.42" y2="542.43" gradientUnits="userSpaceOnUse">
      <stop offset="0" stop-color="#90e0ef"/>
      <stop offset="1" stop-color="#00b4d8"/>
    </linearGradient>
    <linearGradient id="Sfumatura_senza_nome_8-2" data-name="Sfumatura senza nome 8" x1="410.22" y1="7329.56" x2="589.8" y2="7329.56" gradientTransform="translate(0 8088.82) scale(1 -1)" xlink:href="#Sfumatura_senza_nome_8"/>
    <linearGradient id="Sfumatura_senza_nome_18" data-name="Sfumatura senza nome 18" x1="405.31" y1="248.44" x2="594.71" y2="248.44" gradientUnits="userSpaceOnUse">
      <stop offset="0" stop-color="#0077b6"/>
      <stop offset="1" stop-color="#03045e"/>
    </linearGradient>
    <linearGradient id="Sfumatura_senza_nome_18-2" data-name="Sfumatura senza nome 18" x1="459.5" y1="457.87" x2="540.96" y2="457.87" xlink:href="#Sfumatura_senza_nome_18"/>
    <linearGradient id="Sfumatura_senza_nome_18-3" data-name="Sfumatura senza nome 18" x1="490.33" y1="551.66" x2="509.66" y2="551.66" xlink:href="#Sfumatura_senza_nome_18"/>
    <linearGradient id="Sfumatura_senza_nome_18-4" data-name="Sfumatura senza nome 18" x1="356.98" y1="512.8" x2="643.02" y2="512.8" xlink:href="#Sfumatura_senza_nome_18"/>
  </defs>
  <path class="cls-6" d="M869.76,521.32v306.57c0,4.71-3.82,8.52-8.52,8.52H138.76c-4.71,0-8.52-3.82-8.52-8.52v-306.57c0-4.71,3.82-8.52,8.52-8.52h199.7v127.26c0,10.21,8.31,18.52,18.52,18.52h286.04c10.22,0,18.52-8.31,18.52-18.52v-127.26h199.7c4.71,0,8.52,3.82,8.52,8.52Z"/>
  <path class="cls-2" d="M712.9,248.44h-103.19v79.53c0,11.2-9.11,20.32-20.32,20.32h-178.75c-11.21,0-20.33-9.12-20.33-20.32v-79.53h-103.21c-4.7,0-8.52,3.82-8.52,8.52v570.93c0,4.7,3.82,8.52,8.52,8.52h425.8c4.71,0,8.52-3.82,8.52-8.52V256.96c0-4.7-3.81-8.52-8.52-8.52ZM661.54,640.06c0,10.21-8.3,18.52-18.52,18.52h-286.04c-10.21,0-18.52-8.31-18.52-18.52v-254.54c0-10.2,8.31-18.51,18.52-18.51h286.04c10.22,0,18.52,8.31,18.52,18.51v254.54Z"/>
  <path class="cls-7" d="M410.22,690.63h0c0,4.7,3.81,8.52,8.52,8.52h4.12c4.7,0,8.52,3.81,8.52,8.52v120.22c0,4.7,3.81,8.52,8.52,8.52h120.22c4.7,0,8.52-3.81,8.52-8.52v-120.22c0-4.7,3.81-8.52,8.52-8.52h4.12c4.7,0,8.52-3.81,8.52-8.52h0c0-4.7-3.81-8.52-8.52-8.52h-162.53c-4.7,0-8.52,3.81-8.52,8.52h-.01Z"/>
  <path class="cls-1" d="M589.39,163.58h-178.75c-2.94,0-5.33,2.38-5.33,5.32v159.07c0,2.94,2.39,5.32,5.33,5.32h178.75c2.94,0,5.32-2.38,5.32-5.32v-159.07c0-2.94-2.38-5.32-5.32-5.32ZM567.21,271.29c0,3.72-3.01,6.73-6.73,6.73h-24.18c-3.72,0-6.73,3.01-6.73,6.73v24.18c0,3.72-3.01,6.73-6.73,6.73h-45.7c-3.72,0-6.73-3.01-6.73-6.73v-24.18c0-3.72-3.01-6.73-6.73-6.73h-24.18c-3.72,0-6.73-3.01-6.73-6.73v-45.7c0-3.72,3.01-6.73,6.73-6.73h24.18c3.72,0,6.73-3.01,6.73-6.73v-24.18c0-3.72,3.01-6.73,6.73-6.73h45.7c3.72,0,6.73,3.01,6.73,6.73v24.18c0,3.72,3.01,6.73,6.73,6.73h24.18c3.72,0,6.73,3.01,6.73,6.73v45.7Z"/>
  <g>
    <path class="cls-5" d="M500,428.97c-20.45.35-38.21,15.94-40.21,37.81-.3,3.28-.32,9.37-.26,15.11.03,2.71,2.23,4.88,4.94,4.88h71.52c2.71,0,4.91-2.18,4.94-4.88.06-5.75.04-11.84-.25-15.11-1.87-20.63-21.34-38.14-40.68-37.81Z"/>
    <path class="cls-3" d="M499.37,533.51c-4.95.31-8.92,4.45-9.04,9.41-.1,3.9,2.12,7.28,5.36,8.89l-4.54,18.03h17.68l-4.54-18.03c3.18-1.59,5.37-4.86,5.37-8.65,0-5.55-4.67-10-10.29-9.65Z"/>
    <path class="cls-4" d="M634.98,384.65h-269.96c-4.44,0-8.04,3.6-8.04,8.03v240.23c0,4.45,3.61,8.04,8.04,8.04h269.96c4.45,0,8.04-3.6,8.04-8.04v-240.23c0-4.44-3.6-8.03-8.04-8.03ZM568.49,606.08c0,3.77-3.06,6.82-6.83,6.82h-123.34c-3.77,0-6.82-3.05-6.82-6.82v-112.04c0-3.77,3.05-6.83,6.82-6.83h8.83c-.17-8.36-.28-20.2.22-25.49,2.55-26.7,28.62-45.03,54.66-44.05,24.6.93,48.19,18.87,50.58,44.05.5,5.29.39,17.13.22,25.49h8.83c3.77,0,6.83,3.06,6.83,6.83v112.04Z"/>
  </g>
</svg>