<?xml version="1.0" encoding="UTF-8"?>
<svg id="Livello_1" data-name="Livello 1" xmlns="http://www.w3.org/2000/svg" xmlns:xlink="http://www.w3.org/1999/xlink" viewBox="0 0 1000 1000">
  <defs>
    <style>
      .cls-1 {
        fill: url(#Sfumatura_senza_nome_18);
      }

      .cls-2 {
        fill: url(#Sfumatura_senza_nome_11);
      }

      .cls-3 {
        fill: url(#Sfumatura_senza_nome_18-3);
      }

      .cls-4 {
        fill: url(#Sfumatura_senza_nome_18-5);
      }

      .cls-5 {
        fill: url(#Sfumatura_senza_nome_18-8);
      }

      .cls-6 {
        fill: url(#Sfumatura_senza_nome_18-6);
      }

      .cls-7 {
        fill: url(#Sfumatura_senza_nome_18-4);
      }

      .cls-8 {
        fill: url(#Sfumatura_senza_nome_18-7);
      }

      .cls-9 {
        fill: url(#Sfumatura_senza_nome_18-2);
      }

      .cls-10 {
        fill: url(#Sfumatura_senza_nome_11-8);
      }

      .cls-11 {
        fill: url(#Sfumatura_senza_nome_11-5);
      }

      .cls-12 {
        fill: url(#Sfumatura_senza_nome_11-6);
      }

      .cls-13 {
        fill: url(#Sfumatura_senza_nome_11-7);
      }

      .cls-14 {
        fill: url(#Sfumatura_senza_nome_11-4);
      }

      .cls-15 {
        fill: url(#Sfumatura_senza_nome_11-3);
      }

      .cls-16 {
        fill: url(#Sfumatura_senza_nome_11-2);
      }
    </style>
    <linearGradient id="Sfumatura_senza_nome_11" data-name="Sfumatura senza nome 11" x1="261.98" y1="684.35" x2="483.78" y2="684.35" gradientUnits="userSpaceOnUse">
      <stop offset="0" stop-color="#90e0ef"/>
      <stop offset="1" stop-color="#00b4d8"/>
    </linearGradient>
    <linearGradient id="Sfumatura_senza_nome_11-2" data-name="Sfumatura senza nome 11" y1="521.91" x2="738.02" y2="521.91" xlink:href="#Sfumatura_senza_nome_11"/>
    <linearGradient id="Sfumatura_senza_nome_18" data-name="Sfumatura senza nome 18" x1="453.41" y1="353.03" x2="738.02" y2="353.03" gradientUnits="userSpaceOnUse">
      <stop offset="0" stop-color="#0077b6"/>
      <stop offset="1" stop-color="#03045e"/>
    </linearGradient>
    <linearGradient id="Sfumatura_senza_nome_11-3" data-name="Sfumatura senza nome 11" y1="441.06" x2="738.03" y2="441.06" xlink:href="#Sfumatura_senza_nome_11"/>
    <linearGradient id="Sfumatura_senza_nome_11-4" data-name="Sfumatura senza nome 11" y1="521.91" x2="738.02" y2="521.91" xlink:href="#Sfumatura_senza_nome_11"/>
    <linearGradient id="Sfumatura_senza_nome_11-5" data-name="Sfumatura senza nome 11" y1="603.16" x2="475.79" y2="603.16" xlink:href="#Sfumatura_senza_nome_11"/>
    <linearGradient id="Sfumatura_senza_nome_11-6" data-name="Sfumatura senza nome 11" x1="698.88" y1="509.42" x2="738.03" y2="509.42" xlink:href="#Sfumatura_senza_nome_11"/>
    <linearGradient id="Sfumatura_senza_nome_18-2" data-name="Sfumatura senza nome 18" x1="261.98" y1="521.91" y2="521.91" xlink:href="#Sfumatura_senza_nome_18"/>
    <linearGradient id="Sfumatura_senza_nome_18-3" data-name="Sfumatura senza nome 18" x1="261.98" y1="521.91" y2="521.91" xlink:href="#Sfumatura_senza_nome_18"/>
    <linearGradient id="Sfumatura_senza_nome_11-7" data-name="Sfumatura senza nome 11" y1="766.3" x2="556.07" y2="766.3" xlink:href="#Sfumatura_senza_nome_11"/>
    <linearGradient id="Sfumatura_senza_nome_18-4" data-name="Sfumatura senza nome 18" x1="261.98" y1="684.35" x2="483.78" y2="684.35" xlink:href="#Sfumatura_senza_nome_18"/>
    <linearGradient id="Sfumatura_senza_nome_18-5" data-name="Sfumatura senza nome 18" x1="261.98" y1="684.35" x2="483.78" y2="684.35" xlink:href="#Sfumatura_senza_nome_18"/>
    <linearGradient id="Sfumatura_senza_nome_11-8" data-name="Sfumatura senza nome 11" x1="212" y1="353.01" x2="443.93" y2="353.01" xlink:href="#Sfumatura_senza_nome_11"/>
    <linearGradient id="Sfumatura_senza_nome_18-6" data-name="Sfumatura senza nome 18" x1="624.44" y1="743.73" x2="644.73" y2="743.73" xlink:href="#Sfumatura_senza_nome_18"/>
    <linearGradient id="Sfumatura_senza_nome_18-7" data-name="Sfumatura senza nome 18" x1="592.11" y1="645.36" x2="677.55" y2="645.36" xlink:href="#Sfumatura_senza_nome_18"/>
    <linearGradient id="Sfumatura_senza_nome_18-8" data-name="Sfumatura senza nome 18" x1="481.91" y1="734.21" x2="787.27" y2="734.21" xlink:href="#Sfumatura_senza_nome_18"/>
  </defs>
  <g>
    <path class="cls-2" d="M483.78,734.07c-123.89-1.98-221.8-26.55-221.8-56.56v-42.87c0,29.37,93.73,53.52,213.81,56.41,1.84,14.4,4.37,28.9,7.99,43.02Z"/>
    <path class="cls-16" d="M738.02,472.4v42.87c0,11.51-14.4,22.23-39.14,31.17h-208.28c-6.84,0-13.33,2.95-17.83,8.09-4.08,4.67-6.16,10.74-5.82,16.9-115.81-3.83-204.97-27.52-204.97-56.16v-42.87c0,31.32,106.57,56.7,238.02,56.7s238.02-25.39,238.02-56.7Z"/>
    <path class="cls-1" d="M738.02,353.02h0c0,31.32-106.57,56.71-238.02,56.71-15.95,0-31.52-.37-46.59-1.09,3.47-4.49,5.52-10.12,5.52-16.2v-78.84c0-6.09-2.05-11.7-5.51-16.19,15.06-.71,30.64-1.08,46.58-1.08,109.64,0,201.97,17.66,229.59,41.69,5.49,4.78,8.43,9.81,8.43,15Z"/>
    <path class="cls-15" d="M738.03,353.02v119.38h-.01c0,31.31-106.57,56.7-238.02,56.7s-238.02-25.38-238.02-56.7v-13.41c.3,4.96,1.96,9.55,4.61,13.41,4.8,6.99,12.85,11.58,21.95,11.58h78.85c14.67,0,26.61-11.93,26.61-26.61v-38.32h38.32c8.59,0,16.23-4.09,21.09-10.41,15.07.72,30.64,1.09,46.59,1.09,131.45,0,238.02-25.39,238.02-56.7h0s.01-.01.01-.01Z"/>
    <path class="cls-2" d="M483.78,734.07c-123.89-1.98-221.8-26.55-221.8-56.56v-42.87c0,29.37,93.73,53.52,213.81,56.41,1.84,14.4,4.37,28.9,7.99,43.02Z"/>
    <path class="cls-14" d="M738.02,472.4v42.87c0,11.51-14.4,22.23-39.14,31.17h-208.28c-6.84,0-13.33,2.95-17.83,8.09-4.08,4.67-6.16,10.74-5.82,16.9-115.81-3.83-204.97-27.52-204.97-56.16v-42.87c0,31.32,106.57,56.7,238.02,56.7s238.02-25.39,238.02-56.7Z"/>
    <path class="cls-11" d="M475.79,691.05c-120.08-2.89-213.81-27.04-213.81-56.41v-119.37c0,28.64,89.16,52.33,204.97,56.16.03.63.1,1.26.18,1.89.54,4.07,1,8.48,1.38,13.16.89,10.5,1.45,22.35,2.02,34.67.8,17.07,1.68,35.73,3.57,54.85.48,4.99,1.04,10.01,1.69,15.05Z"/>
    <path class="cls-12" d="M738.03,472.4v74.04h-39.15c24.74-8.94,39.14-19.66,39.14-31.17v-42.87h.01Z"/>
    <path class="cls-9" d="M738.02,472.4v42.87c0,11.51-14.4,22.23-39.14,31.17h-208.28c-6.84,0-13.33,2.95-17.83,8.09-4.08,4.67-6.16,10.74-5.82,16.9-115.81-3.83-204.97-27.52-204.97-56.16v-42.87c0,31.32,106.57,56.7,238.02,56.7s238.02-25.39,238.02-56.7Z"/>
    <path class="cls-3" d="M738.02,472.4v42.87c0,11.51-14.4,22.23-39.14,31.17h-208.28c-6.84,0-13.33,2.95-17.83,8.09-4.08,4.67-6.16,10.74-5.82,16.9-115.81-3.83-204.97-27.52-204.97-56.16v-42.87c0,31.32,106.57,56.7,238.02,56.7s238.02-25.39,238.02-56.7Z"/>
    <path class="cls-13" d="M556.07,853.51c-17.98,1.03-36.76,1.58-56.07,1.58-131.45,0-238.02-25.39-238.02-56.7v-120.88c0,30.01,97.91,54.58,221.8,56.56,1.29,5.08,2.74,10.11,4.34,15.07,1.98,6.16,4.2,12.2,6.71,18.09,15.76,37.07,38.47,63.74,61.24,86.28Z"/>
    <path class="cls-7" d="M483.78,734.07c-123.89-1.98-221.8-26.55-221.8-56.56v-42.87c0,29.37,93.73,53.52,213.81,56.41,1.84,14.4,4.37,28.9,7.99,43.02Z"/>
    <path class="cls-4" d="M483.78,734.07c-123.89-1.98-221.8-26.55-221.8-56.56v-42.87c0,29.37,93.73,53.52,213.81,56.41,1.84,14.4,4.37,28.9,7.99,43.02Z"/>
  </g>
  <path class="cls-10" d="M443.93,313.6v78.84c0,6.41-5.19,11.61-11.61,11.61h-41.71c-6.41,0-11.61,5.2-11.61,11.61v41.71c0,6.42-5.2,11.61-11.61,11.61h-78.85c-6.41,0-11.61-5.19-11.61-11.61v-41.71c0-6.41-5.19-11.61-11.6-11.61h-41.72c-6.41,0-11.61-5.2-11.61-11.61v-78.84c0-6.42,5.2-11.61,11.61-11.61h41.72c6.41,0,11.6-5.2,11.6-11.61v-41.72c0-6.41,5.2-11.61,11.61-11.61h78.85c6.41,0,11.61,5.2,11.61,11.61v41.72c0,6.41,5.2,11.61,11.61,11.61h41.71c6.42,0,11.61,5.19,11.61,11.61Z"/>
  <g>
    <path class="cls-6" d="M633.93,724.69c-5.19.33-9.35,4.66-9.48,9.87-.1,4.09,2.22,7.63,5.63,9.33l-4.76,18.91h18.54l-4.76-18.91c3.33-1.66,5.63-5.1,5.63-9.07,0-5.82-4.9-10.49-10.8-10.12Z"/>
    <path class="cls-8" d="M634.59,615.05c-21.45.37-40.08,16.72-42.17,39.66-.32,3.44-.34,9.83-.27,15.85.03,2.84,2.34,5.12,5.18,5.12h75.02c2.84,0,5.15-2.28,5.18-5.12.07-6.03.05-12.41-.27-15.85-1.97-21.63-22.38-40-42.67-39.66Z"/>
    <path class="cls-5" d="M778.59,561.44h-287.99c-5.27,0-9.31,4.65-8.61,9.87.02.16.04.33.06.5h0c.62,4.68,1.12,9.71,1.54,15.03,2.01,25.24,2.3,56.95,5.59,89.44.5,4.99,1.08,10.01,1.75,15.02,1.91,14.5,4.57,28.97,8.38,42.91,1.39,5.08,2.92,10.08,4.63,14.99,1.44,4.12,3,8.18,4.69,12.16,16.91,39.76,42.49,66.97,67.56,90.76,4.95,4.7,9.88,9.27,14.72,13.77,13.53,12.59,26.35,24.68,36.9,37.83,3.48,4.34,10.07,4.34,13.55,0,16.22-20.21,37.79-37.94,59.08-58.79,9.64-9.44,19.23-19.52,28.23-30.76t.02,0c2.95-3.68,5.84-7.5,8.64-11.45,5.61-7.88,10.88-16.33,15.69-25.49,2.66-5.06,5.17-10.34,7.52-15.86,26.32-61.89,20.33-143.23,26.65-190.05.7-5.22-3.34-9.87-8.61-9.87ZM706.43,800.8c0,3.95-3.2,7.16-7.16,7.16h-129.36c-3.95,0-7.16-3.2-7.16-7.16v-117.51c0-3.95,3.2-7.16,7.16-7.16h9.26c-.18-8.77-.29-21.19.23-26.74,2.68-28,30.02-47.23,57.32-46.2,25.8.97,50.54,19.79,53.05,46.2.52,5.55.41,17.97.23,26.74h9.26c3.95,0,7.16,3.2,7.16,7.16v117.51Z"/>
  </g>
</svg>