<?xml version="1.0" encoding="UTF-8"?>
<svg id="Livello_1" data-name="Livello 1" xmlns="http://www.w3.org/2000/svg" xmlns:xlink="http://www.w3.org/1999/xlink" viewBox="0 0 1000 1000">
  <defs>
    <style>
      .cls-1 {
        fill: url(#Sfumatura_senza_nome_18);
      }

      .cls-2 {
        fill: url(#Sfumatura_senza_nome_11);
      }

      .cls-3 {
        fill: url(#Sfumatura_senza_nome_18-3);
      }

      .cls-4 {
        fill: url(#Sfumatura_senza_nome_18-5);
      }

      .cls-5 {
        fill: url(#Sfumatura_senza_nome_18-8);
      }

      .cls-6 {
        fill: url(#Sfumatura_senza_nome_18-6);
      }

      .cls-7 {
        fill: url(#Sfumatura_senza_nome_18-4);
      }

      .cls-8 {
        fill: url(#Sfumatura_senza_nome_18-9);
      }

      .cls-9 {
        fill: url(#Sfumatura_senza_nome_18-7);
      }

      .cls-10 {
        fill: url(#Sfumatura_senza_nome_18-2);
      }

      .cls-11 {
        fill: url(#Sfumatura_senza_nome_18-13);
      }

      .cls-12 {
        fill: url(#Sfumatura_senza_nome_18-14);
      }

      .cls-13 {
        fill: url(#Sfumatura_senza_nome_18-15);
      }

      .cls-14 {
        fill: url(#Sfumatura_senza_nome_18-16);
      }

      .cls-15 {
        fill: url(#Sfumatura_senza_nome_18-17);
      }

      .cls-16 {
        fill: url(#Sfumatura_senza_nome_18-18);
      }

      .cls-17 {
        fill: url(#Sfumatura_senza_nome_18-10);
      }

      .cls-18 {
        fill: url(#Sfumatura_senza_nome_18-11);
      }

      .cls-19 {
        fill: url(#Sfumatura_senza_nome_18-12);
      }
    </style>
    <linearGradient id="Sfumatura_senza_nome_11" data-name="Sfumatura senza nome 11" x1="69.06" y1="536.85" x2="930.93" y2="536.85" gradientUnits="userSpaceOnUse">
      <stop offset="0" stop-color="#90e0ef"/>
      <stop offset="1" stop-color="#00b4d8"/>
    </linearGradient>
    <linearGradient id="Sfumatura_senza_nome_18" data-name="Sfumatura senza nome 18" x1="4195.25" y1="9671.44" x2="4314.9" y2="9671.44" gradientTransform="translate(-2689.51 8586.29) scale(.73 -.84)" gradientUnits="userSpaceOnUse">
      <stop offset="0" stop-color="#0077b6"/>
      <stop offset="1" stop-color="#03045e"/>
    </linearGradient>
    <linearGradient id="Sfumatura_senza_nome_18-2" data-name="Sfumatura senza nome 18" x1="8193.5" y1="7769.06" x2="8410.34" y2="7769.06" gradientTransform="translate(6982.91 6577.6) rotate(-90) scale(.73 -.84)" xlink:href="#Sfumatura_senza_nome_18"/>
    <linearGradient id="Sfumatura_senza_nome_18-3" data-name="Sfumatura senza nome 18" x1="2088.59" y1="9405.52" x2="2305.43" y2="9405.52" gradientTransform="translate(-1279.12 8362.66) scale(.8 -.84)" xlink:href="#Sfumatura_senza_nome_18"/>
    <linearGradient id="Sfumatura_senza_nome_18-4" data-name="Sfumatura senza nome 18" x1="23061.42" y1="5659.58" x2="23278.26" y2="5659.58" gradientTransform="translate(5242.65 5788.52) rotate(-90) scale(.23 -.84)" xlink:href="#Sfumatura_senza_nome_18"/>
    <linearGradient id="Sfumatura_senza_nome_18-5" data-name="Sfumatura senza nome 18" x1="16053.55" y1="4059.29" x2="16270.39" y2="4059.29" gradientTransform="translate(3826.78 6389.87) rotate(-90) scale(.36 -.84)" xlink:href="#Sfumatura_senza_nome_18"/>
    <linearGradient id="Sfumatura_senza_nome_18-6" data-name="Sfumatura senza nome 18" x1="-2301.93" y1="8346.86" x2="-2182.28" y2="8346.86" gradientTransform="translate(1664.36 7416.17) scale(.51 -.84)" xlink:href="#Sfumatura_senza_nome_18"/>
    <linearGradient id="Sfumatura_senza_nome_18-7" data-name="Sfumatura senza nome 18" x1="6861.25" y1="9363.66" x2="6980.9" y2="9363.66" gradientTransform="translate(-2977.88 8323.43) scale(.51 -.84)" xlink:href="#Sfumatura_senza_nome_18"/>
    <linearGradient id="Sfumatura_senza_nome_18-8" data-name="Sfumatura senza nome 18" x1="12205.91" y1="6111.48" x2="12325.57" y2="6111.48" gradientTransform="translate(5742.26 7080.78) rotate(-90) scale(.54 -.84)" xlink:href="#Sfumatura_senza_nome_18"/>
    <linearGradient id="Sfumatura_senza_nome_18-9" data-name="Sfumatura senza nome 18" x1="-5678.92" y1="8530.94" x2="-5559.26" y2="8530.94" gradientTransform="translate(2214.63 7691.26) scale(.29 -.84)" xlink:href="#Sfumatura_senza_nome_18"/>
    <linearGradient id="Sfumatura_senza_nome_18-10" data-name="Sfumatura senza nome 18" x1="-2822.08" y1="7836.58" x2="-2702.42" y2="7836.58" gradientTransform="translate(1929.56 7207.37) scale(.51 -.84)" xlink:href="#Sfumatura_senza_nome_18"/>
    <linearGradient id="Sfumatura_senza_nome_18-11" data-name="Sfumatura senza nome 18" x1="6579.99" y1="9253.48" x2="6699.64" y2="9253.48" gradientTransform="translate(-1441.31 8358.39) scale(.29 -.84)" xlink:href="#Sfumatura_senza_nome_18"/>
    <linearGradient id="Sfumatura_senza_nome_18-12" data-name="Sfumatura senza nome 18" x1="341.06" y1="7571.42" x2="408.02" y2="7571.42" gradientTransform="translate(0 8088.82) scale(1 -1)" xlink:href="#Sfumatura_senza_nome_18"/>
    <linearGradient id="Sfumatura_senza_nome_18-13" data-name="Sfumatura senza nome 18" x1="430.89" y1="7677.99" x2="497.85" y2="7677.99" gradientTransform="translate(0 8088.82) scale(1 -1)" xlink:href="#Sfumatura_senza_nome_18"/>
    <linearGradient id="Sfumatura_senza_nome_18-14" data-name="Sfumatura senza nome 18" x1="430.02" y1="7464.18" x2="496.98" y2="7464.18" gradientTransform="translate(0 8088.82) scale(1 -1)" xlink:href="#Sfumatura_senza_nome_18"/>
    <linearGradient id="Sfumatura_senza_nome_18-15" data-name="Sfumatura senza nome 18" x1="546.42" y1="7464.18" x2="613.38" y2="7464.18" gradientTransform="translate(0 8088.82) scale(1 -1)" xlink:href="#Sfumatura_senza_nome_18"/>
    <linearGradient id="Sfumatura_senza_nome_18-16" data-name="Sfumatura senza nome 18" x1="591.97" y1="7571.42" x2="658.93" y2="7571.42" gradientTransform="translate(0 8088.82) scale(1 -1)" xlink:href="#Sfumatura_senza_nome_18"/>
    <linearGradient id="Sfumatura_senza_nome_18-17" data-name="Sfumatura senza nome 18" x1="546.42" y1="7683.88" x2="613.38" y2="7683.88" gradientTransform="translate(0 8088.82) scale(1 -1)" xlink:href="#Sfumatura_senza_nome_18"/>
    <linearGradient id="Sfumatura_senza_nome_18-18" data-name="Sfumatura senza nome 18" x1="466.26" y1="7559.11" x2="573.1" y2="7559.11" gradientTransform="translate(0 8088.82) scale(1 -1)" xlink:href="#Sfumatura_senza_nome_18"/>
  </defs>
  <path class="cls-2" d="M910.21,709.79h-32.43c-11.44,0-20.72-9.28-20.72-20.72v-384.26c0-11.44-9.28-20.72-20.72-20.72H163.66c-11.44,0-20.72,9.28-20.72,20.72v384.26c0,11.44-9.28,20.72-20.72,20.72h-32.43c-11.44,0-20.72,9.28-20.72,20.72v38.39c0,11.44,9.28,20.72,20.72,20.72h820.43c11.44,0,20.72-9.28,20.72-20.72v-38.39c0-11.44-9.28-20.72-20.72-20.72ZM822.77,699.16c0,6.01-4.87,10.89-10.89,10.89H188.11c-6.01,0-10.89-4.87-10.89-10.89v-368.74c0-6.01,4.87-10.89,10.89-10.89h623.78c6.01,0,10.89,4.87,10.89,10.89v368.74Z"/>
  <g>
    <rect class="cls-1" x="373.02" y="454.95" width="87.15" height="14.66" transform="translate(-205.62 472.64) rotate(-48.93)"/>
    <rect class="cls-10" x="449.57" y="438.42" width="14.66" height="157.92"/>
    <rect class="cls-3" x="391.76" y="454.69" width="173.19" height="14.66" transform="translate(-160.69 277.87) rotate(-27.93)"/>
    <rect class="cls-7" x="481.28" y="435.22" width="14.66" height="49.33" transform="translate(-148.06 248.03) rotate(-24.86)"/>
    <rect class="cls-4" x="409.65" y="532.44" width="14.66" height="77.45" transform="translate(-276.37 432) rotate(-42.52)"/>
    <rect class="cls-6" x="490.96" y="397.47" width="61.55" height="14.66" transform="translate(-25.49 35.18) rotate(-3.77)"/>
    <rect class="cls-9" x="522.14" y="450.63" width="61.55" height="14.66" transform="translate(-105.64 743.85) rotate(-63.1)"/>
    <rect class="cls-5" x="601.29" y="426.48" width="14.66" height="64.08" transform="translate(-126.12 256.5) rotate(-21.62)"/>
    <rect class="cls-8" x="566.6" y="517.94" width="34.13" height="14.66" transform="translate(-75.8 99.04) rotate(-9.11)"/>
    <rect class="cls-17" x="490.76" y="617.31" width="61.55" height="14.66"/>
    <rect class="cls-18" x="467.57" y="578.14" width="34.13" height="14.66" transform="translate(-273.84 634.08) rotate(-54.05)"/>
    <circle class="cls-19" cx="374.54" cy="517.4" r="33.48"/>
    <circle class="cls-11" cx="464.37" cy="410.84" r="33.48"/>
    <circle class="cls-12" cx="463.5" cy="624.64" r="33.48"/>
    <circle class="cls-13" cx="579.9" cy="624.64" r="33.48"/>
    <circle class="cls-14" cx="625.45" cy="517.4" r="33.48"/>
    <circle class="cls-15" cx="579.9" cy="404.94" r="33.48"/>
    <circle class="cls-16" cx="519.68" cy="529.71" r="53.42"/>
  </g>
</svg>