<?xml version="1.0" encoding="UTF-8"?>
<svg id="Livello_1" data-name="Livello 1" xmlns="http://www.w3.org/2000/svg" xmlns:xlink="http://www.w3.org/1999/xlink" viewBox="0 0 2000 2000">
  <defs>
    <style>
      .cls-1 {
        stroke: url(#Sfumatura_senza_nome_599-8);
      }

      .cls-1, .cls-2, .cls-3, .cls-4, .cls-5, .cls-6, .cls-7, .cls-8, .cls-9, .cls-10, .cls-11, .cls-12, .cls-13, .cls-14, .cls-15, .cls-16, .cls-17, .cls-18, .cls-19, .cls-20, .cls-21, .cls-22 {
        fill: none;
        stroke-linecap: round;
        stroke-miterlimit: 10;
      }

      .cls-1, .cls-2, .cls-3, .cls-4, .cls-6, .cls-7, .cls-8, .cls-9, .cls-10, .cls-11, .cls-12, .cls-13, .cls-14, .cls-15, .cls-18, .cls-19, .cls-20, .cls-21, .cls-22 {
        stroke-width: 4.99px;
      }

      .cls-1, .cls-14 {
        stroke-dasharray: 27.35 27.35;
      }

      .cls-2 {
        stroke: url(#Sfumatura_senza_nome_599-4);
      }

      .cls-2, .cls-15 {
        stroke-dasharray: 29.13 29.13;
      }

      .cls-3 {
        stroke: url(#Sfumatura_senza_nome_605);
      }

      .cls-4, .cls-13 {
        stroke: url(#Sfumatura_senza_nome_599);
      }

      .cls-5 {
        stroke: url(#Sfumatura_senza_nome_599-20);
        stroke-dasharray: 37.88 37.88;
      }

      .cls-5, .cls-16, .cls-17 {
        stroke-width: 5.9px;
      }

      .cls-6 {
        stroke: url(#Sfumatura_senza_nome_605-3);
      }

      .cls-7 {
        stroke: url(#Sfumatura_senza_nome_605-5);
      }

      .cls-8 {
        stroke: url(#Sfumatura_senza_nome_599-3);
      }

      .cls-9 {
        stroke: url(#Sfumatura_senza_nome_599-9);
      }

      .cls-10 {
        stroke: url(#Sfumatura_senza_nome_599-5);
      }

      .cls-11 {
        stroke: url(#Sfumatura_senza_nome_599-7);
      }

      .cls-12 {
        stroke: url(#Sfumatura_senza_nome_599-6);
        stroke-dasharray: 32.06 32.06;
      }

      .cls-23 {
        fill: url(#Sfumatura_senza_nome_11);
      }

      .cls-13 {
        stroke-dasharray: 28.52 28.52;
      }

      .cls-14 {
        stroke: url(#Sfumatura_senza_nome_599-16);
      }

      .cls-24 {
        fill: url(#Sfumatura_senza_nome_11-8);
      }

      .cls-25 {
        fill: url(#Sfumatura_senza_nome_11-9);
      }

      .cls-26 {
        fill: url(#Sfumatura_senza_nome_11-5);
      }

      .cls-27 {
        fill: url(#Sfumatura_senza_nome_11-6);
      }

      .cls-28 {
        fill: url(#Sfumatura_senza_nome_11-7);
      }

      .cls-29 {
        fill: url(#Sfumatura_senza_nome_11-4);
      }

      .cls-30 {
        fill: url(#Sfumatura_senza_nome_11-3);
      }

      .cls-31 {
        fill: url(#Sfumatura_senza_nome_11-2);
      }

      .cls-15 {
        stroke: url(#Sfumatura_senza_nome_599-12);
      }

      .cls-16 {
        stroke: url(#Sfumatura_senza_nome_599-21);
      }

      .cls-17 {
        stroke: url(#Sfumatura_senza_nome_599-19);
      }

      .cls-18 {
        stroke: url(#Sfumatura_senza_nome_599-11);
      }

      .cls-19 {
        stroke: url(#Sfumatura_senza_nome_599-13);
      }

      .cls-20 {
        stroke: url(#Sfumatura_senza_nome_599-15);
      }

      .cls-21 {
        stroke: url(#Sfumatura_senza_nome_599-17);
      }

      .cls-32 {
        fill: url(#Sfumatura_senza_nome_113-30);
      }

      .cls-33 {
        fill: url(#Sfumatura_senza_nome_113-13);
      }

      .cls-34 {
        fill: url(#Sfumatura_senza_nome_113-18);
      }

      .cls-35 {
        fill: url(#Sfumatura_senza_nome_113-19);
      }

      .cls-36 {
        fill: url(#Sfumatura_senza_nome_113-11);
      }

      .cls-37 {
        fill: url(#Sfumatura_senza_nome_113-12);
      }

      .cls-38 {
        fill: url(#Sfumatura_senza_nome_113-10);
      }

      .cls-39 {
        fill: url(#Sfumatura_senza_nome_113-15);
      }

      .cls-40 {
        fill: url(#Sfumatura_senza_nome_113-16);
      }

      .cls-41 {
        fill: url(#Sfumatura_senza_nome_113-14);
      }

      .cls-42 {
        fill: url(#Sfumatura_senza_nome_113-17);
      }

      .cls-43 {
        fill: url(#Sfumatura_senza_nome_113-29);
      }

      .cls-44 {
        fill: url(#Sfumatura_senza_nome_113-23);
      }

      .cls-45 {
        fill: url(#Sfumatura_senza_nome_113-25);
      }

      .cls-46 {
        fill: url(#Sfumatura_senza_nome_113-22);
      }

      .cls-47 {
        fill: url(#Sfumatura_senza_nome_113-26);
      }

      .cls-48 {
        fill: url(#Sfumatura_senza_nome_113-24);
      }

      .cls-49 {
        fill: url(#Sfumatura_senza_nome_113-21);
      }

      .cls-50 {
        fill: url(#Sfumatura_senza_nome_113-28);
      }

      .cls-51 {
        fill: url(#Sfumatura_senza_nome_113-27);
      }

      .cls-52 {
        fill: url(#Sfumatura_senza_nome_113-39);
      }

      .cls-53 {
        fill: url(#Sfumatura_senza_nome_113-35);
      }

      .cls-54 {
        fill: url(#Sfumatura_senza_nome_113-36);
      }

      .cls-55 {
        fill: url(#Sfumatura_senza_nome_113-20);
      }

      .cls-56 {
        fill: url(#Sfumatura_senza_nome_113-33);
      }

      .cls-57 {
        fill: url(#Sfumatura_senza_nome_113-34);
      }

      .cls-58 {
        fill: url(#Sfumatura_senza_nome_113-31);
      }

      .cls-59 {
        fill: url(#Sfumatura_senza_nome_113-32);
      }

      .cls-60 {
        fill: url(#Sfumatura_senza_nome_113-37);
      }

      .cls-61 {
        fill: url(#Sfumatura_senza_nome_113-38);
      }

      .cls-62 {
        fill: url(#Sfumatura_senza_nome_113-49);
      }

      .cls-63 {
        fill: url(#Sfumatura_senza_nome_113-41);
      }

      .cls-64 {
        fill: url(#Sfumatura_senza_nome_113-42);
      }

      .cls-65 {
        fill: url(#Sfumatura_senza_nome_113-43);
      }

      .cls-66 {
        fill: url(#Sfumatura_senza_nome_113-51);
      }

      .cls-67 {
        fill: url(#Sfumatura_senza_nome_113-57);
      }

      .cls-68 {
        fill: url(#Sfumatura_senza_nome_113-54);
      }

      .cls-69 {
        fill: url(#Sfumatura_senza_nome_113-40);
      }

      .cls-70 {
        fill: url(#Sfumatura_senza_nome_113-48);
      }

      .cls-71 {
        fill: url(#Sfumatura_senza_nome_113-44);
      }

      .cls-72 {
        fill: url(#Sfumatura_senza_nome_113-45);
      }

      .cls-73 {
        fill: url(#Sfumatura_senza_nome_113-46);
      }

      .cls-74 {
        fill: url(#Sfumatura_senza_nome_113-47);
      }

      .cls-75 {
        fill: url(#Sfumatura_senza_nome_113-53);
      }

      .cls-76 {
        fill: url(#Sfumatura_senza_nome_113-55);
      }

      .cls-77 {
        fill: url(#Sfumatura_senza_nome_113-52);
      }

      .cls-78 {
        fill: url(#Sfumatura_senza_nome_113-58);
      }

      .cls-79 {
        fill: url(#Sfumatura_senza_nome_113-56);
      }

      .cls-80 {
        fill: url(#Sfumatura_senza_nome_113-59);
      }

      .cls-81 {
        fill: url(#Sfumatura_senza_nome_113-50);
      }

      .cls-82 {
        fill: url(#Sfumatura_senza_nome_113-62);
      }

      .cls-83 {
        fill: url(#Sfumatura_senza_nome_113-60);
      }

      .cls-84 {
        fill: url(#Sfumatura_senza_nome_113-61);
      }

      .cls-85 {
        fill: url(#Sfumatura_senza_nome_599-18);
      }

      .cls-86 {
        fill: url(#Sfumatura_senza_nome_599-10);
      }

      .cls-87 {
        fill: url(#Sfumatura_senza_nome_599-23);
      }

      .cls-88 {
        fill: url(#Sfumatura_senza_nome_599-22);
      }

      .cls-22 {
        stroke: url(#Sfumatura_senza_nome_599-14);
        stroke-dasharray: 32.28 32.28;
      }

      .cls-89 {
        fill: url(#Sfumatura_senza_nome_599-2);
      }

      .cls-90 {
        fill: url(#Sfumatura_senza_nome_605-4);
      }

      .cls-91 {
        fill: url(#Sfumatura_senza_nome_605-6);
      }

      .cls-92 {
        fill: url(#Sfumatura_senza_nome_605-2);
      }

      .cls-93 {
        fill: url(#Sfumatura_senza_nome_11-16);
      }

      .cls-94 {
        fill: url(#Sfumatura_senza_nome_11-10);
      }

      .cls-95 {
        fill: url(#Sfumatura_senza_nome_11-15);
      }

      .cls-96 {
        fill: url(#Sfumatura_senza_nome_11-12);
      }

      .cls-97 {
        fill: url(#Sfumatura_senza_nome_11-11);
      }

      .cls-98 {
        fill: url(#Sfumatura_senza_nome_11-13);
      }

      .cls-99 {
        fill: url(#Sfumatura_senza_nome_11-18);
      }

      .cls-100 {
        fill: url(#Sfumatura_senza_nome_11-19);
      }

      .cls-101 {
        fill: url(#Sfumatura_senza_nome_11-17);
      }

      .cls-102 {
        fill: url(#Sfumatura_senza_nome_11-14);
      }

      .cls-103 {
        fill: url(#Sfumatura_senza_nome_11-20);
      }

      .cls-104 {
        fill: url(#Sfumatura_senza_nome_113-4);
      }

      .cls-105 {
        fill: url(#Sfumatura_senza_nome_113-3);
      }

      .cls-106 {
        fill: url(#Sfumatura_senza_nome_113-2);
      }

      .cls-107 {
        fill: url(#Sfumatura_senza_nome_113-5);
      }

      .cls-108 {
        fill: url(#Sfumatura_senza_nome_113-6);
      }

      .cls-109 {
        fill: url(#Sfumatura_senza_nome_113-8);
      }

      .cls-110 {
        fill: url(#Sfumatura_senza_nome_113-7);
      }

      .cls-111 {
        fill: url(#Sfumatura_senza_nome_113-9);
      }

      .cls-112 {
        fill: url(#Sfumatura_senza_nome_8);
      }

      .cls-113 {
        fill: url(#Sfumatura_senza_nome_113);
      }

      .cls-114 {
        fill: url(#Sfumatura_senza_nome_8-6);
      }

      .cls-115 {
        fill: url(#Sfumatura_senza_nome_8-2);
      }

      .cls-116 {
        fill: url(#Sfumatura_senza_nome_8-7);
      }

      .cls-117 {
        fill: url(#Sfumatura_senza_nome_8-8);
      }

      .cls-118 {
        fill: url(#Sfumatura_senza_nome_8-5);
      }

      .cls-119 {
        fill: url(#Sfumatura_senza_nome_8-3);
      }

      .cls-120 {
        fill: url(#Sfumatura_senza_nome_8-4);
      }
    </style>
    <linearGradient id="Sfumatura_senza_nome_11" data-name="Sfumatura senza nome 11" x1="1375.93" y1="1632.27" x2="1653.13" y2="1632.27" gradientUnits="userSpaceOnUse">
      <stop offset="0" stop-color="#90e0ef"/>
      <stop offset="1" stop-color="#00b4d8"/>
    </linearGradient>
    <linearGradient id="Sfumatura_senza_nome_113" data-name="Sfumatura senza nome 113" x1="1410.72" y1="1625.18" x2="1618.34" y2="1625.18" gradientUnits="userSpaceOnUse">
      <stop offset="0" stop-color="#0077b6"/>
      <stop offset="1" stop-color="#03045e"/>
    </linearGradient>
    <linearGradient id="Sfumatura_senza_nome_599" data-name="Sfumatura senza nome 599" x1="541.32" y1="1101.67" x2="1148.24" y2="1101.67" gradientUnits="userSpaceOnUse">
      <stop offset="0" stop-color="#0077b6"/>
      <stop offset="1" stop-color="#03045e"/>
    </linearGradient>
    <linearGradient id="Sfumatura_senza_nome_599-2" data-name="Sfumatura senza nome 599" y1="1101.67" y2="1101.67" xlink:href="#Sfumatura_senza_nome_599"/>
    <linearGradient id="Sfumatura_senza_nome_605" data-name="Sfumatura senza nome 605" x1="541.32" y1="1071.76" x2="1148.24" y2="1071.76" gradientUnits="userSpaceOnUse">
      <stop offset="0" stop-color="#8edfef"/>
      <stop offset="1" stop-color="#06b6d9"/>
    </linearGradient>
    <linearGradient id="Sfumatura_senza_nome_605-2" data-name="Sfumatura senza nome 605" x1="541.32" y1="1071.76" x2="1148.24" y2="1071.76" xlink:href="#Sfumatura_senza_nome_605"/>
    <linearGradient id="Sfumatura_senza_nome_599-3" data-name="Sfumatura senza nome 599" y1="1592.57" y2="1592.57" xlink:href="#Sfumatura_senza_nome_599"/>
    <linearGradient id="Sfumatura_senza_nome_599-4" data-name="Sfumatura senza nome 599" y1="1592.57" y2="1592.57" xlink:href="#Sfumatura_senza_nome_599"/>
    <linearGradient id="Sfumatura_senza_nome_599-5" data-name="Sfumatura senza nome 599" y1="1585.09" y2="1585.09" xlink:href="#Sfumatura_senza_nome_599"/>
    <linearGradient id="Sfumatura_senza_nome_599-6" data-name="Sfumatura senza nome 599" y1="1393.24" y2="1393.24" xlink:href="#Sfumatura_senza_nome_599"/>
    <linearGradient id="Sfumatura_senza_nome_599-7" data-name="Sfumatura senza nome 599" y1="1217.43" y2="1217.43" xlink:href="#Sfumatura_senza_nome_599"/>
    <linearGradient id="Sfumatura_senza_nome_599-8" data-name="Sfumatura senza nome 599" y1="1209.95" y2="1209.95" xlink:href="#Sfumatura_senza_nome_599"/>
    <linearGradient id="Sfumatura_senza_nome_599-9" data-name="Sfumatura senza nome 599" y1="1209.95" y2="1209.95" xlink:href="#Sfumatura_senza_nome_599"/>
    <linearGradient id="Sfumatura_senza_nome_599-10" data-name="Sfumatura senza nome 599" y1="1592.58" y2="1592.58" xlink:href="#Sfumatura_senza_nome_599"/>
    <linearGradient id="Sfumatura_senza_nome_605-3" data-name="Sfumatura senza nome 605" y1="1430.16" y2="1430.16" xlink:href="#Sfumatura_senza_nome_605"/>
    <linearGradient id="Sfumatura_senza_nome_605-4" data-name="Sfumatura senza nome 605" x1="541.32" y1="1238.92" x2="1148.24" y2="1238.92" xlink:href="#Sfumatura_senza_nome_605"/>
    <linearGradient id="Sfumatura_senza_nome_599-11" data-name="Sfumatura senza nome 599" y1="603.28" y2="603.28" xlink:href="#Sfumatura_senza_nome_599"/>
    <linearGradient id="Sfumatura_senza_nome_599-12" data-name="Sfumatura senza nome 599" y1="603.28" y2="603.28" xlink:href="#Sfumatura_senza_nome_599"/>
    <linearGradient id="Sfumatura_senza_nome_599-13" data-name="Sfumatura senza nome 599" y1="610.76" y2="610.76" xlink:href="#Sfumatura_senza_nome_599"/>
    <linearGradient id="Sfumatura_senza_nome_599-14" data-name="Sfumatura senza nome 599" y1="803.86" y2="803.86" xlink:href="#Sfumatura_senza_nome_599"/>
    <linearGradient id="Sfumatura_senza_nome_599-15" data-name="Sfumatura senza nome 599" y1="980.81" y2="980.81" xlink:href="#Sfumatura_senza_nome_599"/>
    <linearGradient id="Sfumatura_senza_nome_599-16" data-name="Sfumatura senza nome 599" y1="988.3" y2="988.3" xlink:href="#Sfumatura_senza_nome_599"/>
    <linearGradient id="Sfumatura_senza_nome_599-17" data-name="Sfumatura senza nome 599" y1="988.3" y2="988.3" xlink:href="#Sfumatura_senza_nome_599"/>
    <linearGradient id="Sfumatura_senza_nome_599-18" data-name="Sfumatura senza nome 599" y1="603.28" y2="603.28" xlink:href="#Sfumatura_senza_nome_599"/>
    <linearGradient id="Sfumatura_senza_nome_605-5" data-name="Sfumatura senza nome 605" y1="764.43" y2="764.43" xlink:href="#Sfumatura_senza_nome_605"/>
    <linearGradient id="Sfumatura_senza_nome_605-6" data-name="Sfumatura senza nome 605" x1="541.32" y1="956.94" x2="1148.24" y2="956.94" xlink:href="#Sfumatura_senza_nome_605"/>
    <linearGradient id="Sfumatura_senza_nome_599-19" data-name="Sfumatura senza nome 599" x1="1517.14" y1="1555.17" x2="1517.14" y2="1253.24" xlink:href="#Sfumatura_senza_nome_599"/>
    <linearGradient id="Sfumatura_senza_nome_599-20" data-name="Sfumatura senza nome 599" x1="1517.14" y1="1555.17" x2="1517.14" y2="1253.24" xlink:href="#Sfumatura_senza_nome_599"/>
    <linearGradient id="Sfumatura_senza_nome_599-21" data-name="Sfumatura senza nome 599" x1="1517.14" y1="1555.17" x2="1517.14" y2="1253.24" xlink:href="#Sfumatura_senza_nome_599"/>
    <linearGradient id="Sfumatura_senza_nome_599-22" data-name="Sfumatura senza nome 599" x1="1517.14" y1="1555.17" x2="1517.14" y2="1253.24" xlink:href="#Sfumatura_senza_nome_599"/>
    <linearGradient id="Sfumatura_senza_nome_599-23" data-name="Sfumatura senza nome 599" x1="1517.14" y1="1555.17" x2="1517.14" y2="1253.24" xlink:href="#Sfumatura_senza_nome_599"/>
    <linearGradient id="Sfumatura_senza_nome_11-2" data-name="Sfumatura senza nome 11" x1="1465" y1="1612.17" x2="1499.51" y2="1612.17" xlink:href="#Sfumatura_senza_nome_11"/>
    <linearGradient id="Sfumatura_senza_nome_11-3" data-name="Sfumatura senza nome 11" x1="1502.06" y1="1607.16" x2="1524.83" y2="1607.16" xlink:href="#Sfumatura_senza_nome_11"/>
    <linearGradient id="Sfumatura_senza_nome_11-4" data-name="Sfumatura senza nome 11" x1="1527.44" y1="1612.17" x2="1561.96" y2="1612.17" xlink:href="#Sfumatura_senza_nome_11"/>
    <linearGradient id="Sfumatura_senza_nome_113-2" data-name="Sfumatura senza nome 113" x1="1353.48" y1="648.55" x2="1371.69" y2="648.55" xlink:href="#Sfumatura_senza_nome_113"/>
    <linearGradient id="Sfumatura_senza_nome_113-3" data-name="Sfumatura senza nome 113" x1="1374.61" y1="653.26" x2="1392.85" y2="653.26" xlink:href="#Sfumatura_senza_nome_113"/>
    <linearGradient id="Sfumatura_senza_nome_113-4" data-name="Sfumatura senza nome 113" x1="1396.61" y1="648.7" x2="1415.86" y2="648.7" xlink:href="#Sfumatura_senza_nome_113"/>
    <linearGradient id="Sfumatura_senza_nome_113-5" data-name="Sfumatura senza nome 113" x1="1420.91" y1="653.26" x2="1439.15" y2="653.26" xlink:href="#Sfumatura_senza_nome_113"/>
    <linearGradient id="Sfumatura_senza_nome_113-6" data-name="Sfumatura senza nome 113" x1="1444.12" y1="653.11" x2="1455.65" y2="653.11" xlink:href="#Sfumatura_senza_nome_113"/>
    <linearGradient id="Sfumatura_senza_nome_113-7" data-name="Sfumatura senza nome 113" x1="1457.98" y1="653.26" x2="1474.64" y2="653.26" xlink:href="#Sfumatura_senza_nome_113"/>
    <linearGradient id="Sfumatura_senza_nome_113-8" data-name="Sfumatura senza nome 113" x1="1477.98" y1="650.25" x2="1491.59" y2="650.25" xlink:href="#Sfumatura_senza_nome_113"/>
    <linearGradient id="Sfumatura_senza_nome_113-9" data-name="Sfumatura senza nome 113" x1="1494.68" y1="648.7" x2="1498.77" y2="648.7" xlink:href="#Sfumatura_senza_nome_113"/>
    <linearGradient id="Sfumatura_senza_nome_113-10" data-name="Sfumatura senza nome 113" x1="1503.49" y1="653.26" x2="1522.82" y2="653.26" xlink:href="#Sfumatura_senza_nome_113"/>
    <linearGradient id="Sfumatura_senza_nome_113-11" data-name="Sfumatura senza nome 113" x1="1527.87" y1="653.11" x2="1545.41" y2="653.11" xlink:href="#Sfumatura_senza_nome_113"/>
    <linearGradient id="Sfumatura_senza_nome_113-12" data-name="Sfumatura senza nome 113" x1="1561.11" y1="653.26" x2="1577.27" y2="653.26" xlink:href="#Sfumatura_senza_nome_113"/>
    <linearGradient id="Sfumatura_senza_nome_113-13" data-name="Sfumatura senza nome 113" x1="1581.19" y1="653.26" x2="1599.43" y2="653.26" xlink:href="#Sfumatura_senza_nome_113"/>
    <linearGradient id="Sfumatura_senza_nome_113-14" data-name="Sfumatura senza nome 113" x1="1604.4" y1="653.11" x2="1615.93" y2="653.11" xlink:href="#Sfumatura_senza_nome_113"/>
    <linearGradient id="Sfumatura_senza_nome_113-15" data-name="Sfumatura senza nome 113" x1="1617.68" y1="653.4" x2="1638.35" y2="653.4" xlink:href="#Sfumatura_senza_nome_113"/>
    <linearGradient id="Sfumatura_senza_nome_113-16" data-name="Sfumatura senza nome 113" x1="1640.39" y1="653.26" x2="1658.64" y2="653.26" xlink:href="#Sfumatura_senza_nome_113"/>
    <linearGradient id="Sfumatura_senza_nome_113-17" data-name="Sfumatura senza nome 113" x1="1663.61" y1="653.11" x2="1675.13" y2="653.11" xlink:href="#Sfumatura_senza_nome_113"/>
    <linearGradient id="Sfumatura_senza_nome_11-5" data-name="Sfumatura senza nome 11" x1="1474.25" y1="1664.71" x2="1491.74" y2="1664.71" xlink:href="#Sfumatura_senza_nome_11"/>
    <linearGradient id="Sfumatura_senza_nome_11-6" data-name="Sfumatura senza nome 11" x1="1496.88" y1="1664.46" x2="1513.32" y2="1664.46" xlink:href="#Sfumatura_senza_nome_11"/>
    <linearGradient id="Sfumatura_senza_nome_11-7" data-name="Sfumatura senza nome 11" x1="1517.31" y1="1664.46" x2="1535.86" y2="1664.46" xlink:href="#Sfumatura_senza_nome_11"/>
    <linearGradient id="Sfumatura_senza_nome_11-8" data-name="Sfumatura senza nome 11" x1="1540.91" y1="1664.31" x2="1552.63" y2="1664.31" xlink:href="#Sfumatura_senza_nome_11"/>
    <linearGradient id="Sfumatura_senza_nome_11-9" data-name="Sfumatura senza nome 11" x1="947.51" y1="8384.5" x2="992.49" y2="8384.5" gradientTransform="translate(0 9088.82) scale(1 -1)" xlink:href="#Sfumatura_senza_nome_11"/>
    <linearGradient id="Sfumatura_senza_nome_113-18" data-name="Sfumatura senza nome 113" x1="900.07" y1="8334.59" x2="945.05" y2="8334.59" gradientTransform="translate(0 9088.82) scale(1 -1)" xlink:href="#Sfumatura_senza_nome_113"/>
    <linearGradient id="Sfumatura_senza_nome_11-10" data-name="Sfumatura senza nome 11" x1="948.14" y1="7713.94" x2="993.11" y2="7713.94" gradientTransform="translate(0 9088.82) scale(1 -1)" xlink:href="#Sfumatura_senza_nome_11"/>
    <linearGradient id="Sfumatura_senza_nome_113-19" data-name="Sfumatura senza nome 113" x1="900.69" y1="7664.03" x2="945.67" y2="7664.03" gradientTransform="translate(0 9088.82) scale(1 -1)" xlink:href="#Sfumatura_senza_nome_113"/>
    <linearGradient id="Sfumatura_senza_nome_11-11" data-name="Sfumatura senza nome 11" x1="946.28" y1="8039.85" x2="991.26" y2="8039.85" gradientTransform="translate(0 9088.82) scale(1 -1)" xlink:href="#Sfumatura_senza_nome_11"/>
    <linearGradient id="Sfumatura_senza_nome_113-20" data-name="Sfumatura senza nome 113" x1="898.84" y1="7989.95" x2="943.82" y2="7989.95" gradientTransform="translate(0 9088.82) scale(1 -1)" xlink:href="#Sfumatura_senza_nome_113"/>
    <linearGradient id="Sfumatura_senza_nome_113-21" data-name="Sfumatura senza nome 113" x1="1494.65" y1="7688.15" x2="1539.63" y2="7688.15" gradientTransform="translate(0 9088.82) scale(1 -1)" xlink:href="#Sfumatura_senza_nome_113"/>
    <linearGradient id="Sfumatura_senza_nome_113-22" data-name="Sfumatura senza nome 113" x1="267.5" y1="323.43" x2="284.01" y2="323.43" xlink:href="#Sfumatura_senza_nome_113"/>
    <linearGradient id="Sfumatura_senza_nome_113-23" data-name="Sfumatura senza nome 113" x1="363.2" y1="319" x2="390.38" y2="319" xlink:href="#Sfumatura_senza_nome_113"/>
    <linearGradient id="Sfumatura_senza_nome_113-24" data-name="Sfumatura senza nome 113" x1="333.42" y1="323.58" x2="350.62" y2="323.58" xlink:href="#Sfumatura_senza_nome_113"/>
    <linearGradient id="Sfumatura_senza_nome_113-25" data-name="Sfumatura senza nome 113" x1="288.69" y1="323.58" x2="306.91" y2="323.58" xlink:href="#Sfumatura_senza_nome_113"/>
    <linearGradient id="Sfumatura_senza_nome_113-26" data-name="Sfumatura senza nome 113" x1="310.53" y1="319.15" x2="328.67" y2="319.15" xlink:href="#Sfumatura_senza_nome_113"/>
    <linearGradient id="Sfumatura_senza_nome_113-27" data-name="Sfumatura senza nome 113" x1="271.18" y1="838.17" x2="287.7" y2="838.17" xlink:href="#Sfumatura_senza_nome_113"/>
    <linearGradient id="Sfumatura_senza_nome_113-28" data-name="Sfumatura senza nome 113" x1="292.39" y1="838.32" x2="310.6" y2="838.32" xlink:href="#Sfumatura_senza_nome_113"/>
    <linearGradient id="Sfumatura_senza_nome_113-29" data-name="Sfumatura senza nome 113" x1="314.22" y1="833.89" x2="332.35" y2="833.89" xlink:href="#Sfumatura_senza_nome_113"/>
    <linearGradient id="Sfumatura_senza_nome_113-30" data-name="Sfumatura senza nome 113" x1="337.11" y1="838.32" x2="354.3" y2="838.32" xlink:href="#Sfumatura_senza_nome_113"/>
    <linearGradient id="Sfumatura_senza_nome_113-31" data-name="Sfumatura senza nome 113" x1="369.6" y1="833.74" x2="390.37" y2="833.74" xlink:href="#Sfumatura_senza_nome_113"/>
    <linearGradient id="Sfumatura_senza_nome_113-32" data-name="Sfumatura senza nome 113" x1="268.61" y1="1353.26" x2="285.13" y2="1353.26" xlink:href="#Sfumatura_senza_nome_113"/>
    <linearGradient id="Sfumatura_senza_nome_113-33" data-name="Sfumatura senza nome 113" x1="289.81" y1="1353.41" x2="308.02" y2="1353.41" xlink:href="#Sfumatura_senza_nome_113"/>
    <linearGradient id="Sfumatura_senza_nome_113-34" data-name="Sfumatura senza nome 113" x1="311.64" y1="1348.98" x2="329.78" y2="1348.98" xlink:href="#Sfumatura_senza_nome_113"/>
    <linearGradient id="Sfumatura_senza_nome_113-35" data-name="Sfumatura senza nome 113" x1="334.54" y1="1353.41" x2="351.73" y2="1353.41" xlink:href="#Sfumatura_senza_nome_113"/>
    <linearGradient id="Sfumatura_senza_nome_113-36" data-name="Sfumatura senza nome 113" x1="366.01" y1="1348.83" x2="388.31" y2="1348.83" xlink:href="#Sfumatura_senza_nome_113"/>
    <linearGradient id="Sfumatura_senza_nome_8" data-name="Sfumatura senza nome 8" x1="106.63" y1="590.31" x2="549.81" y2="590.31" gradientUnits="userSpaceOnUse">
      <stop offset="0" stop-color="#00b4d8"/>
      <stop offset="1" stop-color="#0077b6"/>
    </linearGradient>
    <linearGradient id="Sfumatura_senza_nome_11-12" data-name="Sfumatura senza nome 11" x1="195.53" y1="550.05" x2="460.91" y2="550.05" xlink:href="#Sfumatura_senza_nome_11"/>
    <linearGradient id="Sfumatura_senza_nome_8-2" data-name="Sfumatura senza nome 8" x1="274.42" y1="8447.79" x2="382.04" y2="8447.79" gradientTransform="translate(0 9088.82) scale(1 -1)" xlink:href="#Sfumatura_senza_nome_8"/>
    <linearGradient id="Sfumatura_senza_nome_113-37" data-name="Sfumatura senza nome 113" x1="271.48" y1="412.82" x2="384.98" y2="412.82" xlink:href="#Sfumatura_senza_nome_113"/>
    <linearGradient id="Sfumatura_senza_nome_8-3" data-name="Sfumatura senza nome 8" x1="106.14" y1="1102.3" x2="549.31" y2="1102.3" xlink:href="#Sfumatura_senza_nome_8"/>
    <linearGradient id="Sfumatura_senza_nome_11-13" data-name="Sfumatura senza nome 11" x1="195.03" y1="1062.04" x2="460.41" y2="1062.04" xlink:href="#Sfumatura_senza_nome_11"/>
    <linearGradient id="Sfumatura_senza_nome_8-4" data-name="Sfumatura senza nome 8" x1="273.92" y1="7935.79" x2="381.54" y2="7935.79" gradientTransform="translate(0 9088.82) scale(1 -1)" xlink:href="#Sfumatura_senza_nome_8"/>
    <linearGradient id="Sfumatura_senza_nome_113-38" data-name="Sfumatura senza nome 113" x1="270.98" y1="924.81" x2="384.48" y2="924.81" xlink:href="#Sfumatura_senza_nome_113"/>
    <linearGradient id="Sfumatura_senza_nome_8-5" data-name="Sfumatura senza nome 8" x1="106" y1="1619.21" x2="549.18" y2="1619.21" xlink:href="#Sfumatura_senza_nome_8"/>
    <linearGradient id="Sfumatura_senza_nome_11-14" data-name="Sfumatura senza nome 11" x1="194.9" y1="1578.96" x2="460.28" y2="1578.96" xlink:href="#Sfumatura_senza_nome_11"/>
    <linearGradient id="Sfumatura_senza_nome_8-6" data-name="Sfumatura senza nome 8" x1="273.79" y1="7418.88" x2="381.41" y2="7418.88" gradientTransform="translate(0 9088.82) scale(1 -1)" xlink:href="#Sfumatura_senza_nome_8"/>
    <linearGradient id="Sfumatura_senza_nome_113-39" data-name="Sfumatura senza nome 113" x1="270.84" y1="1441.73" x2="384.35" y2="1441.73" xlink:href="#Sfumatura_senza_nome_113"/>
    <linearGradient id="Sfumatura_senza_nome_8-7" data-name="Sfumatura senza nome 8" x1="1145.24" y1="1095.96" x2="1874" y2="1095.96" xlink:href="#Sfumatura_senza_nome_8"/>
    <linearGradient id="Sfumatura_senza_nome_11-15" data-name="Sfumatura senza nome 11" x1="1291.42" y1="965.7" x2="1727.82" y2="965.7" xlink:href="#Sfumatura_senza_nome_11"/>
    <linearGradient id="Sfumatura_senza_nome_8-8" data-name="Sfumatura senza nome 8" x1="1421.15" y1="7909.45" x2="1598.11" y2="7909.45" gradientTransform="translate(0 9088.82) scale(1 -1)" xlink:href="#Sfumatura_senza_nome_8"/>
    <linearGradient id="Sfumatura_senza_nome_113-40" data-name="Sfumatura senza nome 113" x1="1368.68" y1="901.06" x2="1650.56" y2="901.06" xlink:href="#Sfumatura_senza_nome_113"/>
    <linearGradient id="Sfumatura_senza_nome_11-16" data-name="Sfumatura senza nome 11" x1="1504.22" y1="904.32" x2="1515.01" y2="904.32" xlink:href="#Sfumatura_senza_nome_11"/>
    <linearGradient id="Sfumatura_senza_nome_11-17" data-name="Sfumatura senza nome 11" x1="-3762.27" y1="-2092.28" x2="-3751.48" y2="-2092.28" gradientTransform="translate(5266.49 3090.99)" xlink:href="#Sfumatura_senza_nome_11"/>
    <linearGradient id="Sfumatura_senza_nome_113-41" data-name="Sfumatura senza nome 113" x1="1499.85" y1="998.7" x2="1519.38" y2="998.7" xlink:href="#Sfumatura_senza_nome_113"/>
    <linearGradient id="Sfumatura_senza_nome_11-18" data-name="Sfumatura senza nome 11" x1="1385.5" y1="825.03" x2="1634.42" y2="825.03" xlink:href="#Sfumatura_senza_nome_11"/>
    <linearGradient id="Sfumatura_senza_nome_113-42" data-name="Sfumatura senza nome 113" x1="1406.06" y1="825.03" x2="1422.48" y2="825.03" xlink:href="#Sfumatura_senza_nome_113"/>
    <linearGradient id="Sfumatura_senza_nome_113-43" data-name="Sfumatura senza nome 113" x1="1440.31" y1="825.03" x2="1456.72" y2="825.03" xlink:href="#Sfumatura_senza_nome_113"/>
    <linearGradient id="Sfumatura_senza_nome_113-44" data-name="Sfumatura senza nome 113" x1="1474.55" y1="825.03" x2="1490.96" y2="825.03" xlink:href="#Sfumatura_senza_nome_113"/>
    <linearGradient id="Sfumatura_senza_nome_113-45" data-name="Sfumatura senza nome 113" x1="1534.02" y1="816.83" x2="1554.01" y2="816.83" xlink:href="#Sfumatura_senza_nome_113"/>
    <linearGradient id="Sfumatura_senza_nome_113-46" data-name="Sfumatura senza nome 113" x1="1534.02" y1="833.24" x2="1554.01" y2="833.24" xlink:href="#Sfumatura_senza_nome_113"/>
    <linearGradient id="Sfumatura_senza_nome_113-47" data-name="Sfumatura senza nome 113" x1="1561.93" y1="816.83" x2="1611.36" y2="816.83" xlink:href="#Sfumatura_senza_nome_113"/>
    <linearGradient id="Sfumatura_senza_nome_113-48" data-name="Sfumatura senza nome 113" x1="1561.93" y1="833.24" x2="1611.36" y2="833.24" xlink:href="#Sfumatura_senza_nome_113"/>
    <linearGradient id="Sfumatura_senza_nome_11-19" data-name="Sfumatura senza nome 11" x1="1385.16" y1="880.07" x2="1634.08" y2="880.07" xlink:href="#Sfumatura_senza_nome_11"/>
    <linearGradient id="Sfumatura_senza_nome_113-49" data-name="Sfumatura senza nome 113" x1="1405.73" y1="880.07" x2="1422.14" y2="880.07" xlink:href="#Sfumatura_senza_nome_113"/>
    <linearGradient id="Sfumatura_senza_nome_113-50" data-name="Sfumatura senza nome 113" x1="1439.97" y1="880.07" x2="1456.38" y2="880.07" xlink:href="#Sfumatura_senza_nome_113"/>
    <linearGradient id="Sfumatura_senza_nome_113-51" data-name="Sfumatura senza nome 113" x1="1474.21" y1="880.07" x2="1490.62" y2="880.07" xlink:href="#Sfumatura_senza_nome_113"/>
    <linearGradient id="Sfumatura_senza_nome_113-52" data-name="Sfumatura senza nome 113" x1="1533.68" y1="871.86" x2="1553.68" y2="871.86" xlink:href="#Sfumatura_senza_nome_113"/>
    <linearGradient id="Sfumatura_senza_nome_113-53" data-name="Sfumatura senza nome 113" x1="1533.68" y1="888.28" x2="1553.68" y2="888.28" xlink:href="#Sfumatura_senza_nome_113"/>
    <linearGradient id="Sfumatura_senza_nome_113-54" data-name="Sfumatura senza nome 113" x1="1561.59" y1="871.86" x2="1611.03" y2="871.86" xlink:href="#Sfumatura_senza_nome_113"/>
    <linearGradient id="Sfumatura_senza_nome_113-55" data-name="Sfumatura senza nome 113" x1="1561.59" y1="888.28" x2="1611.03" y2="888.28" xlink:href="#Sfumatura_senza_nome_113"/>
    <linearGradient id="Sfumatura_senza_nome_11-20" data-name="Sfumatura senza nome 11" x1="1385.5" y1="935.11" x2="1634.42" y2="935.11" xlink:href="#Sfumatura_senza_nome_11"/>
    <linearGradient id="Sfumatura_senza_nome_113-56" data-name="Sfumatura senza nome 113" x1="1406.06" y1="935.11" x2="1422.48" y2="935.11" xlink:href="#Sfumatura_senza_nome_113"/>
    <linearGradient id="Sfumatura_senza_nome_113-57" data-name="Sfumatura senza nome 113" x1="1440.31" y1="935.11" x2="1456.72" y2="935.11" xlink:href="#Sfumatura_senza_nome_113"/>
    <linearGradient id="Sfumatura_senza_nome_113-58" data-name="Sfumatura senza nome 113" x1="1474.55" y1="935.11" x2="1490.96" y2="935.11" xlink:href="#Sfumatura_senza_nome_113"/>
    <linearGradient id="Sfumatura_senza_nome_113-59" data-name="Sfumatura senza nome 113" x1="1534.02" y1="926.9" x2="1554.01" y2="926.9" xlink:href="#Sfumatura_senza_nome_113"/>
    <linearGradient id="Sfumatura_senza_nome_113-60" data-name="Sfumatura senza nome 113" x1="1534.02" y1="943.31" x2="1554.01" y2="943.31" xlink:href="#Sfumatura_senza_nome_113"/>
    <linearGradient id="Sfumatura_senza_nome_113-61" data-name="Sfumatura senza nome 113" x1="1561.93" y1="926.9" x2="1611.36" y2="926.9" xlink:href="#Sfumatura_senza_nome_113"/>
    <linearGradient id="Sfumatura_senza_nome_113-62" data-name="Sfumatura senza nome 113" x1="1561.93" y1="943.31" x2="1611.36" y2="943.31" xlink:href="#Sfumatura_senza_nome_113"/>
  </defs>
  <g>
    <path class="cls-23" d="M1629.37,1681.23v-123.59c0-3.68-2.98-6.66-6.66-6.66h-216.35c-3.68,0-6.66,2.98-6.66,6.66v123.59c0,3.68-2.98,6.66-6.66,6.66h-10.43c-3.68,0-6.66,2.98-6.66,6.66v12.35c0,3.68,2.98,6.66,6.66,6.66h263.87c3.68,0,6.66-2.98,6.66-6.66v-12.35c0-3.68-2.98-6.66-6.66-6.66h-10.43c-3.68,0-6.66-2.98-6.66-6.66Z"/>
    <rect class="cls-113" x="1410.72" y="1562.38" width="207.63" height="125.6" rx="3.5" ry="3.5"/>
  </g>
  <g>
    <line class="cls-4" x1="573.94" y1="1101.67" x2="588.91" y2="1101.67"/>
    <line class="cls-13" x1="617.43" y1="1101.67" x2="1116.51" y2="1101.67"/>
    <line class="cls-4" x1="1130.77" y1="1101.67" x2="1145.74" y2="1101.67"/>
    <path class="cls-89" d="M543.82,1101.67c14.17,5.26,31.76,14.23,42.66,23.73l-8.58-23.73,8.58-23.73c-10.9,9.5-28.48,18.48-42.66,23.73Z"/>
  </g>
  <g>
    <line class="cls-3" x1="543.82" y1="1071.76" x2="1115.62" y2="1071.76"/>
    <path class="cls-92" d="M1145.74,1071.76c-14.17,5.26-31.76,14.23-42.66,23.73l8.58-23.73-8.58-23.73c10.9,9.5,28.48,18.48,42.66,23.73Z"/>
  </g>
  <g>
    <line class="cls-8" x1="573.94" y1="1592.57" x2="588.91" y2="1592.57"/>
    <line class="cls-2" x1="618.04" y1="1592.57" x2="894.78" y2="1592.57"/>
    <polyline class="cls-10" points="909.34 1592.57 924.31 1592.57 924.31 1577.6"/>
    <line class="cls-12" x1="924.31" y1="1545.54" x2="924.31" y2="1240.95"/>
    <polyline class="cls-11" points="924.31 1224.92 924.31 1209.95 939.29 1209.95"/>
    <line class="cls-1" x1="966.64" y1="1209.95" x2="1117.09" y2="1209.95"/>
    <line class="cls-9" x1="1130.77" y1="1209.95" x2="1145.74" y2="1209.95"/>
    <path class="cls-86" d="M543.82,1592.57c14.17,5.26,31.76,14.23,42.66,23.73l-8.58-23.73,8.58-23.73c-10.9,9.5-28.48,18.48-42.66,23.73Z"/>
  </g>
  <g>
    <polyline class="cls-6" points="543.82 1621.39 964.24 1621.39 964.24 1238.92 1115.62 1238.92"/>
    <path class="cls-90" d="M1145.74,1238.92c-14.17,5.26-31.76,14.23-42.66,23.73l8.58-23.73-8.58-23.73c10.9,9.5,28.48,18.48,42.66,23.73Z"/>
  </g>
  <g>
    <line class="cls-18" x1="573.94" y1="603.28" x2="588.91" y2="603.28"/>
    <line class="cls-15" x1="618.04" y1="603.28" x2="894.78" y2="603.28"/>
    <polyline class="cls-19" points="909.34 603.28 924.31 603.28 924.31 618.25"/>
    <line class="cls-22" x1="924.31" y1="650.53" x2="924.31" y2="957.19"/>
    <polyline class="cls-20" points="924.31 973.33 924.31 988.3 939.29 988.3"/>
    <line class="cls-14" x1="966.64" y1="988.3" x2="1117.09" y2="988.3"/>
    <line class="cls-21" x1="1130.77" y1="988.3" x2="1145.74" y2="988.3"/>
    <path class="cls-85" d="M543.82,603.28c14.17,5.26,31.76,14.23,42.66,23.73l-8.58-23.73,8.58-23.73c-10.9,9.5-28.48,18.48-42.66,23.73Z"/>
  </g>
  <g>
    <polyline class="cls-7" points="543.82 571.92 964.24 571.92 964.24 956.93 1115.62 956.93"/>
    <path class="cls-91" d="M1145.74,956.93c-14.17,5.26-31.76,14.23-42.66,23.73l8.58-23.73-8.58-23.73c10.9,9.5,28.48,18.48,42.66,23.73Z"/>
  </g>
  <g>
    <line class="cls-17" x1="1517.14" y1="1516.6" x2="1517.14" y2="1498.9"/>
    <line class="cls-5" x1="1517.14" y1="1461.02" x2="1517.14" y2="1328.44"/>
    <line class="cls-16" x1="1517.14" y1="1309.51" x2="1517.14" y2="1291.8"/>
    <path class="cls-88" d="M1517.14,1552.22c6.22-16.76,16.83-37.55,28.06-50.43l-28.06,10.15-28.06-10.15c11.24,12.89,21.85,33.68,28.06,50.43Z"/>
    <path class="cls-87" d="M1517.14,1256.19c6.22,16.76,16.83,37.55,28.06,50.44l-28.06-10.15-28.06,10.15c11.24-12.89,21.84-33.68,28.06-50.44Z"/>
  </g>
  <g>
    <path class="cls-31" d="M1499.51,1596.81l-29.07,15.36,29.07,15.27v5.76l-34.51-18.44v-5.34l34.51-18.28v5.68Z"/>
    <path class="cls-30" d="M1502.06,1639.46l18.03-66.43,4.74,1.84-18.03,66.43-4.74-1.84Z"/>
    <path class="cls-29" d="M1561.96,1609.41v5.34l-34.51,18.44v-5.76l29.07-15.27-29.07-15.36v-5.68l34.51,18.28Z"/>
  </g>
  <g>
    <path class="cls-106" d="M1353.48,632.94h18.2v3.05h-14.82v10.76h13.99v3.05h-13.99v14.34h-3.38v-31.21Z"/>
    <path class="cls-105" d="M1392.85,653.93h-14.86c.11,2.51.75,4.41,1.92,5.69,1.17,1.28,2.83,1.93,4.97,1.93,2.37,0,4.54-.86,6.51-2.57l1.13,2.61c-.89.89-2.03,1.59-3.42,2.1-1.39.52-2.81.77-4.26.77-3.17,0-5.67-.99-7.49-2.97-1.82-1.98-2.73-4.71-2.73-8.19,0-2.21.4-4.17,1.21-5.87.81-1.7,1.94-3.02,3.4-3.96,1.46-.94,3.12-1.42,4.99-1.42,2.7,0,4.82.94,6.35,2.81,1.53,1.87,2.3,4.45,2.3,7.73v1.33ZM1379.97,646.62c-1.07,1.18-1.71,2.85-1.9,5h11.82c-.06-2.18-.57-3.86-1.54-5.03-.97-1.17-2.34-1.75-4.09-1.75s-3.21.59-4.28,1.77Z"/>
    <path class="cls-104" d="M1415.86,632.94v31.21h-3.38v-3.94c-.61,1.36-1.51,2.41-2.69,3.14-1.18.74-2.57,1.11-4.15,1.11-1.78,0-3.35-.47-4.72-1.42-1.36-.94-2.42-2.26-3.17-3.96-.75-1.7-1.13-3.67-1.13-5.91s.38-4.16,1.13-5.84c.75-1.68,1.81-2.98,3.17-3.9,1.36-.91,2.94-1.37,4.72-1.37,1.59,0,2.97.37,4.15,1.11,1.18.74,2.08,1.79,2.69,3.14v-13.37h3.38ZM1410.87,659.35c1.07-1.43,1.61-3.46,1.61-6.09s-.54-4.65-1.61-6.07c-1.07-1.42-2.6-2.13-4.57-2.13s-3.51.71-4.61,2.13c-1.1,1.42-1.65,3.41-1.65,5.98s.55,4.67,1.65,6.13c1.1,1.46,2.64,2.19,4.61,2.19s3.5-.72,4.57-2.15Z"/>
    <path class="cls-107" d="M1439.15,653.93h-14.86c.11,2.51.75,4.41,1.92,5.69,1.17,1.28,2.83,1.93,4.97,1.93,2.37,0,4.54-.86,6.51-2.57l1.13,2.61c-.89.89-2.03,1.59-3.42,2.1-1.39.52-2.81.77-4.26.77-3.17,0-5.67-.99-7.49-2.97-1.82-1.98-2.73-4.71-2.73-8.19,0-2.21.4-4.17,1.21-5.87.81-1.7,1.94-3.02,3.4-3.96,1.46-.94,3.12-1.42,4.99-1.42,2.7,0,4.82.94,6.35,2.81,1.53,1.87,2.3,4.45,2.3,7.73v1.33ZM1426.27,646.62c-1.07,1.18-1.71,2.85-1.9,5h11.82c-.06-2.18-.57-3.86-1.54-5.03-.97-1.17-2.34-1.75-4.09-1.75s-3.21.59-4.28,1.77Z"/>
    <path class="cls-108" d="M1455.65,645.16l-2.21.22c-2.09.21-3.6.9-4.53,2.08-.93,1.18-1.4,2.64-1.4,4.38v12.31h-3.38v-21.56h3.3v3.76c1.14-2.51,3.38-3.91,6.72-4.21l1.21-.09.29,3.1Z"/>
    <path class="cls-110" d="M1472.74,644.17c1.27,1.4,1.9,3.53,1.9,6.4v13.59h-3.3v-3.67c-.53,1.27-1.34,2.25-2.42,2.94-1.08.69-2.34,1.04-3.76,1.04-1.31,0-2.51-.28-3.61-.84-1.1-.56-1.97-1.34-2.61-2.35-.64-1-.96-2.11-.96-3.32,0-1.62.39-2.88,1.17-3.79.78-.9,2.06-1.55,3.84-1.95,1.78-.4,4.26-.6,7.43-.6h.92v-1.46c0-1.8-.35-3.11-1.04-3.92-.7-.81-1.82-1.22-3.38-1.22-2.34,0-4.66.77-6.97,2.3l-1.13-2.61c1.06-.8,2.33-1.44,3.82-1.93,1.49-.49,2.93-.73,4.32-.73,2.59,0,4.52.7,5.78,2.1ZM1469.74,659.84c1.07-1.2,1.61-2.74,1.61-4.63v-1.28h-.75c-2.45,0-4.31.11-5.59.33-1.28.22-2.19.59-2.73,1.11-.54.52-.81,1.28-.81,2.28,0,1.15.4,2.1,1.19,2.86.79.75,1.79,1.13,2.98,1.13,1.67,0,3.04-.6,4.11-1.79Z"/>
    <path class="cls-109" d="M1491.59,661.46l-.17,2.83c-.64.12-1.34.18-2.09.18-2.45,0-4.29-.68-5.53-2.04-1.24-1.36-1.86-3.25-1.86-5.67v-11.33h-3.97v-2.83h3.97v-6.55h3.38v6.55h5.76v2.83h-5.76v11.07c0,3.39,1.47,5.09,4.43,5.09.61,0,1.23-.04,1.84-.13Z"/>
    <path class="cls-111" d="M1498.77,633.25v4.03h-4.09v-4.03h4.09ZM1495.02,642.59h3.38v21.56h-3.38v-21.56Z"/>
    <path class="cls-38" d="M1508.06,663.09c-1.46-.91-2.59-2.22-3.38-3.92-.79-1.7-1.19-3.67-1.19-5.91s.4-4.21,1.19-5.91c.79-1.7,1.92-3,3.38-3.92,1.46-.91,3.15-1.37,5.07-1.37s3.62.46,5.09,1.37c1.47.92,2.61,2.22,3.4,3.92.79,1.7,1.19,3.67,1.19,5.91s-.4,4.21-1.19,5.91c-.79,1.7-1.93,3-3.4,3.92-1.48.92-3.17,1.37-5.09,1.37s-3.61-.46-5.07-1.37ZM1517.75,659.4c1.07-1.4,1.61-3.45,1.61-6.13s-.54-4.66-1.63-6.09c-1.09-1.43-2.62-2.15-4.59-2.15s-3.51.72-4.59,2.15c-1.08,1.43-1.63,3.46-1.63,6.09s.54,4.69,1.61,6.11c1.07,1.42,2.61,2.13,4.61,2.13s3.54-.7,4.61-2.1Z"/>
    <path class="cls-36" d="M1545.41,650.61v13.55h-3.38v-13.33c0-2.01-.37-3.47-1.11-4.38-.74-.91-1.91-1.37-3.53-1.37-1.86,0-3.35.61-4.47,1.82-1.11,1.21-1.67,2.85-1.67,4.91v12.35h-3.38v-21.56h3.34v3.54c.67-1.33,1.6-2.34,2.8-3.03,1.2-.69,2.56-1.04,4.09-1.04,4.87,0,7.31,2.85,7.31,8.54Z"/>
    <path class="cls-37" d="M1561.11,661.68l1.13-2.66c1.09.92,2.19,1.57,3.32,1.97,1.13.4,2.4.6,3.82.6,1.5,0,2.65-.27,3.44-.82.79-.55,1.19-1.34,1.19-2.37,0-.86-.27-1.53-.79-2.04-.53-.5-1.41-.9-2.63-1.2l-3.42-.84c-1.73-.41-3.05-1.12-3.97-2.13-.92-1-1.38-2.24-1.38-3.72,0-1.92.71-3.47,2.13-4.65,1.42-1.18,3.31-1.77,5.68-1.77,1.42,0,2.77.24,4.05.73,1.28.49,2.35,1.19,3.21,2.1l-1.13,2.61c-1.87-1.68-3.91-2.52-6.14-2.52-1.42,0-2.53.29-3.32.86-.79.58-1.19,1.38-1.19,2.41,0,.86.24,1.54.73,2.06.49.52,1.27.91,2.36,1.17l3.47.89c1.89.47,3.3,1.19,4.22,2.15.92.96,1.38,2.21,1.38,3.74,0,1.89-.72,3.39-2.15,4.52-1.43,1.12-3.39,1.68-5.87,1.68-3.42,0-6.14-.93-8.14-2.79Z"/>
    <path class="cls-33" d="M1599.43,653.93h-14.86c.11,2.51.75,4.41,1.92,5.69,1.17,1.28,2.83,1.93,4.97,1.93,2.37,0,4.54-.86,6.51-2.57l1.13,2.61c-.89.89-2.03,1.59-3.42,2.1-1.39.52-2.81.77-4.26.77-3.17,0-5.67-.99-7.49-2.97-1.82-1.98-2.73-4.71-2.73-8.19,0-2.21.4-4.17,1.21-5.87.81-1.7,1.94-3.02,3.4-3.96,1.46-.94,3.12-1.42,4.99-1.42,2.7,0,4.82.94,6.35,2.81,1.53,1.87,2.3,4.45,2.3,7.73v1.33ZM1586.55,646.62c-1.07,1.18-1.71,2.85-1.9,5h11.82c-.06-2.18-.57-3.86-1.54-5.03-.97-1.17-2.34-1.75-4.09-1.75s-3.21.59-4.28,1.77Z"/>
    <path class="cls-41" d="M1615.93,645.16l-2.21.22c-2.09.21-3.6.9-4.53,2.08-.93,1.18-1.4,2.64-1.4,4.38v12.31h-3.38v-21.56h3.3v3.76c1.14-2.51,3.38-3.91,6.72-4.21l1.21-.09.29,3.1Z"/>
    <path class="cls-39" d="M1638.35,642.64l-8.77,21.52h-3.17l-8.73-21.52h3.59l6.81,17.62,6.89-17.62h3.38Z"/>
    <path class="cls-40" d="M1658.64,653.93h-14.86c.11,2.51.75,4.41,1.92,5.69,1.17,1.28,2.83,1.93,4.97,1.93,2.37,0,4.54-.86,6.51-2.57l1.13,2.61c-.89.89-2.03,1.59-3.42,2.1-1.39.52-2.81.77-4.26.77-3.17,0-5.67-.99-7.49-2.97-1.82-1.98-2.73-4.71-2.73-8.19,0-2.21.4-4.17,1.21-5.87.81-1.7,1.94-3.02,3.4-3.96,1.46-.94,3.12-1.42,4.99-1.42,2.7,0,4.82.94,6.35,2.81,1.53,1.87,2.3,4.45,2.3,7.73v1.33ZM1645.76,646.62c-1.07,1.18-1.71,2.85-1.9,5h11.82c-.06-2.18-.57-3.86-1.54-5.03-.97-1.17-2.34-1.75-4.09-1.75s-3.21.59-4.28,1.77Z"/>
    <path class="cls-42" d="M1675.13,645.16l-2.21.22c-2.09.21-3.6.9-4.53,2.08-.93,1.18-1.4,2.64-1.4,4.38v12.31h-3.38v-21.56h3.3v3.76c1.14-2.51,3.38-3.91,6.72-4.21l1.21-.09.29,3.1Z"/>
  </g>
  <g>
    <path class="cls-26" d="M1491.74,1654.11v20.91h-3.35v-3.56c-.65,1.26-1.56,2.22-2.74,2.88-1.17.66-2.5.99-3.97.99-2.46,0-4.32-.69-5.56-2.08-1.25-1.39-1.87-3.44-1.87-6.16v-12.97h3.44v12.88c0,1.86.37,3.23,1.1,4.1.74.87,1.9,1.31,3.48,1.31,1.81,0,3.27-.59,4.37-1.78,1.1-1.19,1.66-2.75,1.66-4.7v-11.81h3.44Z"/>
    <path class="cls-27" d="M1496.88,1672.61l1.15-2.58c1.1.89,2.23,1.52,3.38,1.91s2.44.58,3.89.58c1.53,0,2.7-.26,3.5-.79.81-.53,1.21-1.29,1.21-2.3,0-.83-.27-1.49-.81-1.98-.54-.49-1.43-.87-2.67-1.16l-3.48-.82c-1.76-.4-3.1-1.09-4.03-2.06-.93-.97-1.4-2.18-1.4-3.61,0-1.86.72-3.36,2.17-4.51,1.44-1.14,3.37-1.72,5.78-1.72,1.44,0,2.82.24,4.12.71,1.3.47,2.39,1.15,3.27,2.04l-1.15,2.53c-1.9-1.63-3.98-2.45-6.24-2.45-1.44,0-2.57.28-3.38.84-.81.56-1.21,1.34-1.21,2.34,0,.83.25,1.5.74,2,.5.5,1.3.88,2.4,1.14l3.52.86c1.93.46,3.35,1.15,4.29,2.08.93.93,1.4,2.14,1.4,3.63,0,1.83-.73,3.29-2.19,4.38-1.46,1.09-3.45,1.63-5.97,1.63-3.48,0-6.24-.9-8.28-2.71Z"/>
    <path class="cls-28" d="M1535.86,1665.1h-15.12c.11,2.43.76,4.27,1.95,5.52,1.19,1.25,2.87,1.87,5.05,1.87,2.41,0,4.61-.83,6.62-2.49l1.15,2.53c-.91.86-2.07,1.54-3.48,2.04-1.42.5-2.86.75-4.33.75-3.23,0-5.77-.96-7.62-2.88-1.85-1.92-2.78-4.57-2.78-7.94,0-2.15.41-4.04,1.23-5.69.82-1.65,1.97-2.93,3.46-3.84,1.49-.92,3.18-1.37,5.07-1.37,2.75,0,4.9.91,6.45,2.73,1.56,1.82,2.34,4.32,2.34,7.49v1.29ZM1522.76,1658.01c-1.09,1.15-1.73,2.76-1.93,4.85h12.02c-.06-2.12-.58-3.74-1.57-4.87-.99-1.13-2.38-1.7-4.16-1.7s-3.26.57-4.35,1.72Z"/>
    <path class="cls-24" d="M1552.63,1656.6l-2.25.21c-2.12.2-3.66.87-4.61,2.02-.95,1.15-1.42,2.56-1.42,4.25v11.94h-3.44v-20.91h3.35v3.65c1.16-2.43,3.44-3.79,6.84-4.08l1.23-.09.3,3.01Z"/>
  </g>
  <path class="cls-25" d="M987.35,695.12c.05-2.74.09-6.63-.07-8.37-.78-8.27-8.53-14.16-16.61-14.46-8.55-.32-17.11,5.7-17.95,14.46-.17,1.74-.13,5.63-.07,8.37h-2.9c-1.24,0-2.24,1-2.24,2.24v36.79c0,1.24,1,2.24,2.24,2.24h40.5c1.24,0,2.24-1,2.24-2.24v-36.79c0-1.24-1-2.24-2.24-2.24h-2.9ZM972.91,722.25h-5.81l1.49-5.92c-1.07-.53-1.79-1.64-1.76-2.92.04-1.63,1.34-2.99,2.97-3.09,1.85-.12,3.38,1.35,3.38,3.17,0,1.24-.72,2.32-1.76,2.84l1.49,5.92h0ZM981.82,694.97h-23.48c-.89,0-1.61-.71-1.62-1.6-.02-1.89-.01-3.89.08-4.96.66-7.18,6.49-12.3,13.2-12.42,6.35-.11,12.74,5.64,13.36,12.42.1,1.08.1,3.08.08,4.96,0,.89-.73,1.6-1.62,1.6h0Z"/>
  <path class="cls-34" d="M939.91,745.02c.05-2.74.09-6.63-.07-8.37-.78-8.27-8.53-14.16-16.61-14.46-8.55-.32-17.11,5.7-17.95,14.46-.17,1.74-.13,5.63-.07,8.37h-2.9c-1.24,0-2.24,1-2.24,2.24v36.79c0,1.24,1,2.24,2.24,2.24h40.5c1.24,0,2.24-1,2.24-2.24v-36.79c0-1.24-1-2.24-2.24-2.24h-2.9ZM925.46,772.15h-5.81l1.49-5.92c-1.07-.53-1.79-1.64-1.76-2.92.04-1.63,1.34-2.99,2.97-3.09,1.85-.12,3.38,1.35,3.38,3.17,0,1.24-.72,2.32-1.76,2.84l1.49,5.92h0ZM934.38,744.88h-23.48c-.89,0-1.61-.71-1.62-1.6-.02-1.89-.01-3.89.08-4.96.66-7.18,6.49-12.3,13.2-12.42,6.35-.11,12.74,5.64,13.36,12.42.1,1.08.1,3.08.08,4.96,0,.89-.73,1.6-1.62,1.6h0Z"/>
  <path class="cls-94" d="M987.98,1365.67c.05-2.74.09-6.63-.07-8.37-.78-8.27-8.53-14.16-16.61-14.46-8.55-.32-17.11,5.7-17.95,14.46-.17,1.74-.13,5.63-.07,8.37h-2.9c-1.24,0-2.24,1-2.24,2.24v36.79c0,1.24,1,2.24,2.24,2.24h40.5c1.24,0,2.24-1,2.24-2.24v-36.79c0-1.24-1-2.24-2.24-2.24h-2.9ZM973.53,1392.8h-5.81l1.49-5.92c-1.07-.53-1.79-1.64-1.76-2.92.04-1.63,1.34-2.99,2.97-3.09,1.85-.12,3.38,1.35,3.38,3.17,0,1.24-.72,2.32-1.76,2.84l1.49,5.92h0ZM982.44,1365.53h-23.48c-.89,0-1.61-.71-1.62-1.6-.02-1.89-.01-3.89.08-4.96.66-7.18,6.49-12.3,13.2-12.42,6.35-.11,12.74,5.64,13.36,12.42.1,1.08.1,3.08.08,4.96,0,.89-.73,1.6-1.62,1.6h0Z"/>
  <path class="cls-35" d="M940.53,1415.58c.05-2.74.09-6.63-.07-8.37-.78-8.27-8.53-14.16-16.61-14.46-8.55-.32-17.11,5.7-17.95,14.46-.17,1.74-.13,5.63-.07,8.37h-2.9c-1.24,0-2.24,1-2.24,2.24v36.79c0,1.24,1,2.24,2.24,2.24h40.5c1.24,0,2.24-1,2.24-2.24v-36.79c0-1.24-1-2.24-2.24-2.24h-2.9ZM926.09,1442.71h-5.81l1.49-5.92c-1.07-.53-1.79-1.64-1.76-2.92.04-1.63,1.34-2.99,2.97-3.09,1.85-.12,3.38,1.35,3.38,3.17,0,1.24-.72,2.32-1.76,2.84l1.49,5.92h0ZM935,1415.43h-23.48c-.89,0-1.61-.71-1.62-1.6-.02-1.89-.01-3.89.08-4.96.66-7.18,6.49-12.3,13.2-12.42,6.35-.11,12.74,5.64,13.36,12.42.1,1.08.1,3.08.08,4.96,0,.89-.73,1.6-1.62,1.6h0Z"/>
  <path class="cls-97" d="M986.12,1039.76c.05-2.74.09-6.63-.07-8.37-.78-8.27-8.53-14.16-16.61-14.46-8.55-.32-17.11,5.7-17.95,14.46-.17,1.74-.13,5.63-.07,8.37h-2.9c-1.24,0-2.24,1-2.24,2.24v36.79c0,1.24,1,2.24,2.24,2.24h40.5c1.24,0,2.24-1,2.24-2.24v-36.79c0-1.24-1-2.24-2.24-2.24h-2.9ZM971.67,1066.89h-5.81l1.49-5.92c-1.07-.53-1.79-1.64-1.76-2.92.04-1.63,1.34-2.99,2.97-3.09,1.85-.12,3.38,1.35,3.38,3.17,0,1.24-.72,2.32-1.76,2.84l1.49,5.92h0ZM980.59,1039.61h-23.48c-.89,0-1.61-.71-1.62-1.6-.02-1.89-.01-3.89.08-4.96.66-7.18,6.49-12.3,13.2-12.42,6.35-.11,12.74,5.64,13.36,12.42.1,1.08.1,3.08.08,4.96,0,.89-.73,1.6-1.62,1.6h0Z"/>
  <path class="cls-55" d="M938.68,1089.66c.05-2.74.09-6.63-.07-8.37-.78-8.27-8.53-14.16-16.61-14.46-8.55-.32-17.11,5.7-17.95,14.46-.17,1.74-.13,5.63-.07,8.37h-2.9c-1.24,0-2.24,1-2.24,2.24v36.79c0,1.24,1,2.24,2.24,2.24h40.5c1.24,0,2.24-1,2.24-2.24v-36.79c0-1.24-1-2.24-2.24-2.24h-2.9ZM924.23,1116.79h-5.81l1.49-5.92c-1.07-.53-1.79-1.64-1.76-2.92.04-1.63,1.34-2.99,2.97-3.09,1.85-.12,3.38,1.35,3.38,3.17,0,1.24-.72,2.32-1.76,2.84l1.49,5.92h0ZM933.15,1089.52h-23.48c-.89,0-1.61-.71-1.62-1.6-.02-1.89-.01-3.89.08-4.96.66-7.18,6.49-12.3,13.2-12.42,6.35-.11,12.74,5.64,13.36,12.42.1,1.08.1,3.08.08,4.96,0,.89-.73,1.6-1.62,1.6h0Z"/>
  <path class="cls-49" d="M1534.49,1391.46c.05-2.74.09-6.63-.07-8.37-.78-8.27-8.53-14.16-16.61-14.46-8.55-.32-17.11,5.7-17.95,14.46-.17,1.74-.13,5.63-.07,8.37h-2.9c-1.24,0-2.24,1-2.24,2.24v36.79c0,1.24,1,2.24,2.24,2.24h40.5c1.24,0,2.24-1,2.24-2.24v-36.79c0-1.24-1-2.24-2.24-2.24h-2.9ZM1520.04,1418.59h-5.81l1.49-5.92c-1.07-.53-1.79-1.64-1.76-2.92.04-1.63,1.34-2.99,2.97-3.09,1.85-.12,3.38,1.35,3.38,3.17,0,1.24-.72,2.32-1.76,2.84l1.49,5.92h0ZM1528.96,1391.32h-23.48c-.89,0-1.61-.71-1.62-1.6-.02-1.89-.01-3.89.08-4.96.66-7.18,6.49-12.3,13.2-12.42,6.35-.11,12.74,5.64,13.36,12.42.1,1.08.1,3.08.08,4.96,0,.89-.73,1.6-1.62,1.6h0Z"/>
  <g>
    <path class="cls-46" d="M284.01,321v13.17h-3.18v-12.96c0-1.96-.35-3.37-1.04-4.26-.7-.9-1.81-1.34-3.32-1.34-1.77,0-3.16.59-4.21,1.77-1.05,1.18-1.58,2.76-1.58,4.77v12.02h-3.18v-20.97h3.14v3.44c.63-1.29,1.51-2.27,2.64-2.94,1.13-.68,2.42-1.01,3.86-1.01,4.58,0,6.88,2.76,6.88,8.3Z"/>
    <path class="cls-44" d="M378.19,303.82h-2.79l-12.2,30.35h3.3l3.07-7.8h14.47l3.06,7.8h3.26l-12.19-30.35ZM370.72,323.45l6.1-15.54,6.1,15.54h-12.2Z"/>
    <path class="cls-48" d="M342.47,312.69c-1.76,0-3.32.46-4.7,1.38-1.38.92-2.45,2.2-3.2,3.85-.77,1.65-1.15,3.54-1.15,5.7,0,3.38.86,6.04,2.58,7.96,1.72,1.93,4.06,2.88,7.06,2.88,1.37,0,2.7-.25,4.01-.76,1.31-.5,2.39-1.18,3.22-2.04l-1.06-2.55c-1.87,1.67-3.91,2.5-6.14,2.5-2.02,0-3.58-.62-4.68-1.87-1.1-1.25-1.71-3.09-1.81-5.54h14v-1.29c0-3.18-.73-5.69-2.17-7.52-1.45-1.82-3.43-2.72-5.98-2.72ZM336.68,321.98c.19-2.1.79-3.71,1.8-4.86,1.01-1.15,2.36-1.73,4.03-1.73s2.93.57,3.85,1.71c.92,1.13,1.41,2.75,1.46,4.88h-11.14Z"/>
    <path class="cls-45" d="M302.59,314.02c-1.4-.89-2.99-1.33-4.8-1.33s-3.4.44-4.78,1.33c-1.38.89-2.45,2.17-3.18,3.81-.75,1.65-1.13,3.56-1.13,5.75s.38,4.09,1.13,5.75c.74,1.65,1.81,2.91,3.18,3.8,1.38.89,2.96,1.34,4.78,1.34s3.4-.45,4.8-1.34c1.39-.89,2.46-2.16,3.2-3.8.75-1.66,1.12-3.57,1.12-5.75s-.37-4.1-1.12-5.75-1.82-2.92-3.2-3.81ZM302.13,329.54c-1.01,1.37-2.46,2.05-4.34,2.05s-3.34-.69-4.35-2.07c-1.01-1.38-1.52-3.35-1.52-5.94s.52-4.53,1.54-5.92c1.03-1.4,2.47-2.09,4.33-2.09s3.3.69,4.32,2.09c1.03,1.39,1.54,3.36,1.54,5.92s-.51,4.6-1.52,5.96Z"/>
    <path class="cls-47" d="M325.47,316.82c-.57-1.33-1.42-2.35-2.54-3.06-1.12-.71-2.42-1.07-3.91-1.07-1.68,0-3.16.44-4.44,1.33-1.29.89-2.29,2.16-2.99,3.79s-1.06,3.52-1.06,5.68.35,4.1,1.06,5.75c.71,1.65,1.71,2.93,2.99,3.85,1.28.92,2.76,1.38,4.44,1.38,1.5,0,2.79-.36,3.91-1.08,1.12-.72,1.97-1.74,2.54-3.05v3.83h3.19v-30.35h-3.19v13ZM323.97,329.5c-1.02,1.39-2.45,2.09-4.31,2.09s-3.31-.71-4.34-2.14c-1.04-1.42-1.56-3.4-1.56-5.96s.52-4.43,1.56-5.81c1.03-1.38,2.48-2.07,4.34-2.07s3.29.69,4.31,2.07c1.01,1.38,1.51,3.34,1.51,5.9s-.5,4.52-1.51,5.92Z"/>
  </g>
  <g>
    <path class="cls-51" d="M287.7,835.74v13.17h-3.19v-12.96c0-1.95-.35-3.37-1.04-4.26-.69-.89-1.8-1.33-3.32-1.33-1.76,0-3.16.59-4.21,1.76-1.05,1.18-1.57,2.77-1.57,4.78v12.01h-3.19v-20.96h3.15v3.44c.63-1.29,1.51-2.27,2.64-2.95,1.13-.67,2.41-1.01,3.85-1.01,4.59,0,6.88,2.77,6.88,8.31Z"/>
    <path class="cls-50" d="M296.69,847.88c-1.38-.89-2.44-2.16-3.19-3.81-.75-1.65-1.12-3.57-1.12-5.75s.37-4.1,1.12-5.75c.75-1.65,1.81-2.92,3.19-3.81,1.38-.89,2.97-1.33,4.78-1.33s3.41.45,4.8,1.33c1.39.89,2.46,2.16,3.21,3.81.75,1.65,1.12,3.57,1.12,5.75s-.37,4.1-1.12,5.75c-.75,1.65-1.82,2.92-3.21,3.81-1.39.89-2.99,1.33-4.8,1.33s-3.4-.44-4.78-1.33ZM305.82,844.29c1.01-1.36,1.51-3.35,1.51-5.96s-.51-4.53-1.53-5.92c-1.02-1.39-2.47-2.09-4.33-2.09s-3.31.7-4.33,2.09c-1.02,1.39-1.53,3.37-1.53,5.92s.5,4.56,1.51,5.94c1.01,1.38,2.46,2.07,4.35,2.07s3.34-.68,4.35-2.04Z"/>
    <path class="cls-43" d="M332.35,818.56v30.35h-3.19v-3.83c-.58,1.32-1.42,2.34-2.54,3.06-1.12.72-2.42,1.08-3.91,1.08-1.68,0-3.16-.46-4.44-1.38-1.29-.92-2.28-2.2-2.99-3.85-.71-1.65-1.06-3.57-1.06-5.75s.35-4.05,1.06-5.68c.71-1.64,1.7-2.9,2.99-3.79,1.28-.89,2.77-1.33,4.44-1.33,1.5,0,2.8.36,3.91,1.08,1.11.72,1.96,1.74,2.54,3.06v-13h3.19ZM327.65,844.24c1.01-1.39,1.51-3.36,1.51-5.92s-.5-4.52-1.51-5.9-2.45-2.07-4.31-2.07-3.31.69-4.35,2.07c-1.04,1.38-1.55,3.31-1.55,5.81s.52,4.54,1.55,5.96c1.04,1.42,2.48,2.13,4.35,2.13s3.3-.7,4.31-2.09Z"/>
    <path class="cls-32" d="M354.3,838.97h-14c.1,2.44.71,4.28,1.81,5.53,1.1,1.25,2.66,1.87,4.68,1.87,2.23,0,4.27-.83,6.14-2.5l1.06,2.54c-.84.86-1.92,1.54-3.23,2.04-1.31.5-2.65.75-4.01.75-2.99,0-5.34-.96-7.06-2.88-1.72-1.92-2.58-4.58-2.58-7.96,0-2.15.38-4.05,1.14-5.7.76-1.65,1.83-2.93,3.21-3.85,1.38-.92,2.94-1.38,4.7-1.38,2.54,0,4.54.91,5.98,2.73,1.44,1.82,2.16,4.33,2.16,7.51v1.29ZM342.17,831.87c-1.01,1.15-1.61,2.77-1.79,4.86h11.13c-.05-2.12-.54-3.75-1.46-4.89-.92-1.13-2.2-1.7-3.85-1.7s-3.02.57-4.03,1.72Z"/>
    <path class="cls-58" d="M389.06,835.91c.88,1.26,1.32,2.84,1.32,4.74,0,2.67-.8,4.71-2.4,6.13-1.6,1.42-3.87,2.13-6.81,2.13h-11.57v-30.35h11.13c2.86,0,5.07.69,6.65,2.07,1.57,1.38,2.36,3.33,2.36,5.85,0,1.64-.39,3.04-1.16,4.22-.77,1.18-1.86,2.05-3.25,2.63,1.6.46,2.84,1.32,3.72,2.58ZM372.79,832.04h7.47c2.07,0,3.64-.46,4.7-1.38,1.06-.92,1.59-2.25,1.59-4,0-3.44-2.1-5.17-6.29-5.17h-7.47v10.55ZM385.67,844.67c1.04-.88,1.55-2.25,1.55-4.11,0-3.73-2.12-5.6-6.37-5.6h-8.06v11.02h8.06c2.18,0,3.78-.44,4.82-1.31Z"/>
  </g>
  <g>
    <path class="cls-59" d="M285.13,1350.83v13.17h-3.19v-12.96c0-1.95-.35-3.37-1.04-4.26-.69-.89-1.8-1.33-3.32-1.33-1.76,0-3.16.59-4.21,1.76-1.05,1.18-1.57,2.77-1.57,4.78v12.01h-3.19v-20.96h3.15v3.44c.63-1.29,1.51-2.27,2.64-2.95,1.13-.67,2.41-1.01,3.85-1.01,4.59,0,6.88,2.77,6.88,8.31Z"/>
    <path class="cls-56" d="M294.12,1362.97c-1.38-.89-2.44-2.16-3.19-3.81-.75-1.65-1.12-3.57-1.12-5.75s.37-4.1,1.12-5.75c.75-1.65,1.81-2.92,3.19-3.81,1.38-.89,2.97-1.33,4.78-1.33s3.41.45,4.8,1.33c1.39.89,2.46,2.16,3.21,3.81.75,1.65,1.12,3.57,1.12,5.75s-.37,4.1-1.12,5.75c-.75,1.65-1.82,2.92-3.21,3.81-1.39.89-2.99,1.33-4.8,1.33s-3.4-.44-4.78-1.33ZM303.24,1359.37c1.01-1.36,1.51-3.35,1.51-5.96s-.51-4.53-1.53-5.92c-1.02-1.39-2.47-2.09-4.33-2.09s-3.31.7-4.33,2.09c-1.02,1.39-1.53,3.37-1.53,5.92s.5,4.56,1.51,5.94c1.01,1.38,2.46,2.07,4.35,2.07s3.34-.68,4.35-2.04Z"/>
    <path class="cls-57" d="M329.78,1333.65v30.35h-3.19v-3.83c-.58,1.32-1.42,2.34-2.54,3.06-1.12.72-2.42,1.08-3.91,1.08-1.68,0-3.16-.46-4.44-1.38-1.29-.92-2.28-2.2-2.99-3.85-.71-1.65-1.06-3.57-1.06-5.75s.35-4.05,1.06-5.68c.71-1.64,1.7-2.9,2.99-3.79,1.28-.89,2.77-1.33,4.44-1.33,1.5,0,2.8.36,3.91,1.08,1.11.72,1.96,1.74,2.54,3.06v-13h3.19ZM325.08,1359.33c1.01-1.39,1.51-3.36,1.51-5.92s-.5-4.52-1.51-5.9c-1.01-1.38-2.45-2.07-4.31-2.07s-3.31.69-4.35,2.07c-1.04,1.38-1.55,3.31-1.55,5.81s.52,4.54,1.55,5.96,2.48,2.13,4.35,2.13,3.3-.7,4.31-2.09Z"/>
    <path class="cls-53" d="M351.73,1354.06h-14c.1,2.44.71,4.28,1.81,5.53,1.1,1.25,2.66,1.87,4.68,1.87,2.23,0,4.27-.83,6.14-2.5l1.06,2.54c-.84.86-1.92,1.54-3.23,2.04-1.31.5-2.65.75-4.01.75-2.99,0-5.34-.96-7.06-2.88-1.72-1.92-2.58-4.58-2.58-7.96,0-2.15.38-4.05,1.14-5.7.76-1.65,1.83-2.93,3.21-3.85,1.38-.92,2.94-1.38,4.7-1.38,2.54,0,4.54.91,5.98,2.73,1.44,1.82,2.16,4.33,2.16,7.51v1.29ZM339.59,1346.95c-1.01,1.15-1.61,2.77-1.79,4.86h11.13c-.05-2.12-.54-3.75-1.46-4.89-.92-1.13-2.2-1.7-3.85-1.7s-3.02.57-4.03,1.72Z"/>
    <path class="cls-54" d="M372.03,1362.47c-1.94-1.25-3.43-3.04-4.47-5.38-1.04-2.34-1.55-5.1-1.55-8.29s.52-5.94,1.55-8.27c1.04-2.32,2.52-4.11,4.47-5.36,1.94-1.25,4.22-1.87,6.84-1.87,1.91,0,3.67.32,5.27.97,1.6.65,2.99,1.6,4.17,2.86l-1.22,2.71c-1.34-1.23-2.65-2.12-3.93-2.67-1.29-.54-2.7-.82-4.25-.82-3.04,0-5.4,1.08-7.06,3.25-1.67,2.17-2.5,5.23-2.5,9.19s.83,7.07,2.5,9.23c1.67,2.17,4.02,3.25,7.06,3.25,1.55,0,2.96-.27,4.25-.82,1.28-.54,2.6-1.43,3.93-2.67l1.22,2.71c-1.18,1.26-2.57,2.22-4.17,2.86-1.6.65-3.36.97-5.27.97-2.62,0-4.9-.62-6.84-1.87Z"/>
  </g>
  <g>
    <path class="cls-112" d="M549.81,498.45v183.72c0,2.82-2.29,5.11-5.11,5.11H111.74c-2.82,0-5.11-2.29-5.11-5.11v-183.72c0-2.82,2.29-5.11,5.11-5.11h119.67v76.26c0,6.12,4.98,11.1,11.1,11.1h171.42c6.12,0,11.1-4.98,11.1-11.1v-76.26h119.67c2.82,0,5.11,2.29,5.11,5.11Z"/>
    <path class="cls-96" d="M455.81,412.82h-61.84v47.66c0,6.71-5.46,12.18-12.18,12.18h-107.12c-6.72,0-12.18-5.47-12.18-12.18v-47.66h-61.85c-2.82,0-5.11,2.29-5.11,5.11v264.24c0,2.82,2.29,5.11,5.11,5.11h255.17c2.82,0,5.11-2.29,5.11-5.11v-264.24c0-2.82-2.28-5.11-5.11-5.11Z"/>
    <path class="cls-115" d="M274.42,599.91h0c0,2.82,2.28,5.11,5.11,5.11h2.47c2.82,0,5.11,2.28,5.11,5.11v72.04c0,2.82,2.28,5.11,5.11,5.11h72.04c2.82,0,5.11-2.28,5.11-5.11v-72.04c0-2.82,2.28-5.11,5.11-5.11h2.47c2.82,0,5.11-2.28,5.11-5.11h0c0-2.82-2.28-5.11-5.11-5.11h-97.4c-2.82,0-5.11,2.28-5.11,5.11h0Z"/>
    <path class="cls-60" d="M381.79,361.97h-107.12c-1.76,0-3.19,1.43-3.19,3.19v95.33c0,1.76,1.43,3.19,3.19,3.19h107.12c1.76,0,3.19-1.43,3.19-3.19v-95.33c0-1.76-1.43-3.19-3.19-3.19ZM368.5,426.51c0,2.23-1.81,4.03-4.03,4.03h-14.49c-2.23,0-4.03,1.81-4.03,4.03v14.49c0,2.23-1.81,4.03-4.03,4.03h-27.39c-2.23,0-4.03-1.81-4.03-4.03v-14.49c0-2.23-1.81-4.03-4.03-4.03h-14.49c-2.23,0-4.03-1.81-4.03-4.03v-27.39c0-2.23,1.81-4.03,4.03-4.03h14.49c2.23,0,4.03-1.81,4.03-4.03v-14.49c0-2.23,1.81-4.03,4.03-4.03h27.39c2.23,0,4.03,1.81,4.03,4.03v14.49c0,2.23,1.81,4.03,4.03,4.03h14.49c2.23,0,4.03,1.81,4.03,4.03v27.39Z"/>
  </g>
  <g>
    <path class="cls-119" d="M549.31,1010.44v183.72c0,2.82-2.29,5.11-5.11,5.11H111.24c-2.82,0-5.11-2.29-5.11-5.11v-183.72c0-2.82,2.29-5.11,5.11-5.11h119.67v76.26c0,6.12,4.98,11.1,11.1,11.1h171.42c6.12,0,11.1-4.98,11.1-11.1v-76.26h119.67c2.82,0,5.11,2.29,5.11,5.11Z"/>
    <path class="cls-98" d="M455.31,924.82h-61.84v47.66c0,6.71-5.46,12.18-12.18,12.18h-107.12c-6.72,0-12.18-5.47-12.18-12.18v-47.66h-61.85c-2.82,0-5.11,2.29-5.11,5.11v264.24c0,2.82,2.29,5.11,5.11,5.11h255.17c2.82,0,5.11-2.29,5.11-5.11v-264.24c0-2.82-2.28-5.11-5.11-5.11Z"/>
    <path class="cls-120" d="M273.92,1111.9h0c0,2.82,2.28,5.11,5.11,5.11h2.47c2.82,0,5.11,2.28,5.11,5.11v72.04c0,2.82,2.28,5.11,5.11,5.11h72.04c2.82,0,5.11-2.28,5.11-5.11v-72.04c0-2.82,2.28-5.11,5.11-5.11h2.47c2.82,0,5.11-2.28,5.11-5.11h0c0-2.82-2.28-5.11-5.11-5.11h-97.4c-2.82,0-5.11,2.28-5.11,5.11h0Z"/>
    <path class="cls-61" d="M381.29,873.96h-107.12c-1.76,0-3.19,1.43-3.19,3.19v95.33c0,1.76,1.43,3.19,3.19,3.19h107.12c1.76,0,3.19-1.43,3.19-3.19v-95.33c0-1.76-1.43-3.19-3.19-3.19ZM368,938.51c0,2.23-1.81,4.03-4.03,4.03h-14.49c-2.23,0-4.03,1.81-4.03,4.03v14.49c0,2.23-1.81,4.03-4.03,4.03h-27.39c-2.23,0-4.03-1.81-4.03-4.03v-14.49c0-2.23-1.81-4.03-4.03-4.03h-14.49c-2.23,0-4.03-1.81-4.03-4.03v-27.39c0-2.23,1.81-4.03,4.03-4.03h14.49c2.23,0,4.03-1.81,4.03-4.03v-14.49c0-2.23,1.81-4.03,4.03-4.03h27.39c2.23,0,4.03,1.81,4.03,4.03v14.49c0,2.23,1.81,4.03,4.03,4.03h14.49c2.23,0,4.03,1.81,4.03,4.03v27.39Z"/>
  </g>
  <g>
    <path class="cls-118" d="M549.18,1527.35v183.72c0,2.82-2.29,5.11-5.11,5.11H111.11c-2.82,0-5.11-2.29-5.11-5.11v-183.72c0-2.82,2.29-5.11,5.11-5.11h119.67v76.26c0,6.12,4.98,11.1,11.1,11.1h171.42c6.12,0,11.1-4.98,11.1-11.1v-76.26h119.67c2.82,0,5.11,2.29,5.11,5.11Z"/>
    <path class="cls-102" d="M455.18,1441.73h-61.84v47.66c0,6.71-5.46,12.18-12.18,12.18h-107.12c-6.72,0-12.18-5.47-12.18-12.18v-47.66h-61.85c-2.82,0-5.11,2.29-5.11,5.11v264.24c0,2.82,2.29,5.11,5.11,5.11h255.17c2.82,0,5.11-2.29,5.11-5.11v-264.24c0-2.82-2.28-5.11-5.11-5.11Z"/>
    <path class="cls-114" d="M273.79,1628.82h0c0,2.82,2.28,5.11,5.11,5.11h2.47c2.82,0,5.11,2.28,5.11,5.11v72.04c0,2.82,2.28,5.11,5.11,5.11h72.04c2.82,0,5.11-2.28,5.11-5.11v-72.04c0-2.82,2.28-5.11,5.11-5.11h2.47c2.82,0,5.11-2.28,5.11-5.11h0c0-2.82-2.28-5.11-5.11-5.11h-97.4c-2.82,0-5.11,2.28-5.11,5.11h0Z"/>
    <path class="cls-52" d="M381.16,1390.88h-107.12c-1.76,0-3.19,1.43-3.19,3.19v95.33c0,1.76,1.43,3.19,3.19,3.19h107.12c1.76,0,3.19-1.43,3.19-3.19v-95.33c0-1.76-1.43-3.19-3.19-3.19ZM367.87,1455.42c0,2.23-1.81,4.03-4.03,4.03h-14.49c-2.23,0-4.03,1.81-4.03,4.03v14.49c0,2.23-1.81,4.03-4.03,4.03h-27.39c-2.23,0-4.03-1.81-4.03-4.03v-14.49c0-2.23-1.81-4.03-4.03-4.03h-14.49c-2.23,0-4.03-1.81-4.03-4.03v-27.39c0-2.23,1.81-4.03,4.03-4.03h14.49c2.23,0,4.03-1.81,4.03-4.03v-14.49c0-2.23,1.81-4.03,4.03-4.03h27.39c2.23,0,4.03,1.81,4.03,4.03v14.49c0,2.23,1.81,4.03,4.03,4.03h14.49c2.23,0,4.03,1.81,4.03,4.03v27.39Z"/>
  </g>
  <g>
    <g>
      <path class="cls-116" d="M1874,944.9v302.11c0,4.64-3.76,8.4-8.4,8.4h-711.97c-4.64,0-8.4-3.76-8.4-8.4v-302.11c0-4.64,3.76-8.4,8.4-8.4h196.79v125.41c0,10.06,8.19,18.25,18.25,18.25h281.88c10.07,0,18.25-8.19,18.25-18.25v-125.41h196.79c4.64,0,8.4,3.76,8.4,8.4Z"/>
      <path class="cls-95" d="M1299.81,675.99c-4.63,0-8.4,3.76-8.4,8.4v562.62c0,4.63,3.76,8.4,8.4,8.4h419.6c4.64,0,8.4-3.76,8.4-8.4v-562.62c0-4.63-3.75-8.4-8.4-8.4h-419.6ZM1668.82,1026.48c0,10.06-8.18,18.25-18.25,18.25h-281.88c-10.06,0-18.25-8.19-18.25-18.25v-250.84c0-10.05,8.19-18.24,18.25-18.24h281.88c10.07,0,18.25,8.19,18.25,18.24v250.84Z"/>
      <path class="cls-117" d="M1421.15,1111.74h0c0,4.63,3.75,8.4,8.4,8.4h4.06c4.63,0,8.4,3.75,8.4,8.4v118.47c0,4.63,3.75,8.4,8.4,8.4h118.47c4.63,0,8.4-3.75,8.4-8.4v-118.47c0-4.63,3.75-8.4,8.4-8.4h4.06c4.63,0,8.4-3.75,8.4-8.4h0c0-4.63-3.75-8.4-8.4-8.4h-160.17c-4.63,0-8.4,3.75-8.4,8.4h0Z"/>
      <path class="cls-69" d="M1650.56,782.69v236.73c0,4.38-3.54,7.92-7.92,7.92h-266.03c-4.37,0-7.92-3.54-7.92-7.92v-236.73c0-4.37,3.55-7.91,7.92-7.91h266.03c4.38,0,7.92,3.54,7.92,7.91Z"/>
    </g>
    <g>
      <rect class="cls-93" x="1504.22" y="809.93" width="10.79" height="188.78" rx="3.19" ry="3.19"/>
      <rect class="cls-101" x="1504.22" y="904.32" width="10.79" height="188.78" rx="3.19" ry="3.19" transform="translate(2508.32 -510.91) rotate(90)"/>
      <circle class="cls-63" cx="1509.62" cy="998.7" r="9.76"/>
    </g>
    <g>
      <rect class="cls-99" x="1385.5" y="801.24" width="248.92" height="47.6" rx="12.19" ry="12.19"/>
      <circle class="cls-64" cx="1414.27" cy="825.03" r="8.21"/>
      <circle class="cls-65" cx="1448.51" cy="825.03" r="8.21"/>
      <circle class="cls-71" cx="1482.75" cy="825.03" r="8.21"/>
      <rect class="cls-72" x="1534.02" y="812.45" width="20" height="8.75" rx="4.37" ry="4.37"/>
      <rect class="cls-73" x="1534.02" y="828.87" width="20" height="8.75" rx="4.37" ry="4.37"/>
      <rect class="cls-74" x="1561.93" y="812.45" width="49.44" height="8.75" rx="4.37" ry="4.37"/>
      <rect class="cls-70" x="1561.93" y="828.87" width="49.44" height="8.75" rx="4.37" ry="4.37"/>
    </g>
    <g>
      <rect class="cls-100" x="1385.16" y="856.27" width="248.92" height="47.6" rx="12.19" ry="12.19"/>
      <circle class="cls-62" cx="1413.93" cy="880.07" r="8.21"/>
      <circle class="cls-81" cx="1448.17" cy="880.07" r="8.21"/>
      <circle class="cls-66" cx="1482.42" cy="880.07" r="8.21"/>
      <rect class="cls-77" x="1533.68" y="867.49" width="20" height="8.75" rx="4.37" ry="4.37"/>
      <rect class="cls-75" x="1533.68" y="883.9" width="20" height="8.75" rx="4.37" ry="4.37"/>
      <rect class="cls-68" x="1561.59" y="867.49" width="49.44" height="8.75" rx="4.37" ry="4.37"/>
      <rect class="cls-76" x="1561.59" y="883.9" width="49.44" height="8.75" rx="4.37" ry="4.37"/>
    </g>
    <g>
      <rect class="cls-103" x="1385.5" y="911.31" width="248.92" height="47.6" rx="12.19" ry="12.19"/>
      <circle class="cls-79" cx="1414.27" cy="935.11" r="8.21"/>
      <circle class="cls-67" cx="1448.51" cy="935.11" r="8.21"/>
      <circle class="cls-78" cx="1482.75" cy="935.11" r="8.21"/>
      <rect class="cls-80" x="1534.02" y="922.53" width="20" height="8.75" rx="4.37" ry="4.37"/>
      <rect class="cls-83" x="1534.02" y="938.94" width="20" height="8.75" rx="4.37" ry="4.37"/>
      <rect class="cls-84" x="1561.93" y="922.53" width="49.44" height="8.75" rx="4.37" ry="4.37"/>
      <rect class="cls-82" x="1561.93" y="938.94" width="49.44" height="8.75" rx="4.37" ry="4.37"/>
    </g>
  </g>
</svg>