<?xml version="1.0" encoding="UTF-8"?>
<svg id="Livello_1" data-name="Livello 1" xmlns="http://www.w3.org/2000/svg" xmlns:xlink="http://www.w3.org/1999/xlink" viewBox="0 0 1000 1000">
  <defs>
    <style>
      .cls-1 {
        fill: url(#Sfumatura_senza_nome_11);
      }

      .cls-2 {
        fill: url(#Sfumatura_senza_nome_11-5);
      }

      .cls-3 {
        fill: url(#Sfumatura_senza_nome_11-6);
      }

      .cls-4 {
        fill: url(#Sfumatura_senza_nome_11-4);
      }

      .cls-5 {
        fill: url(#Sfumatura_senza_nome_11-3);
      }

      .cls-6 {
        fill: url(#Sfumatura_senza_nome_11-2);
      }

      .cls-7 {
        fill: #fff;
      }

      .cls-8 {
        fill: url(#Sfumatura_senza_nome_113-13);
      }

      .cls-9 {
        fill: url(#Sfumatura_senza_nome_113-18);
      }

      .cls-10 {
        fill: url(#Sfumatura_senza_nome_113-19);
      }

      .cls-11 {
        fill: url(#Sfumatura_senza_nome_113-11);
      }

      .cls-12 {
        fill: url(#Sfumatura_senza_nome_113-12);
      }

      .cls-13 {
        fill: url(#Sfumatura_senza_nome_113-10);
      }

      .cls-14 {
        fill: url(#Sfumatura_senza_nome_113-15);
      }

      .cls-15 {
        fill: url(#Sfumatura_senza_nome_113-16);
      }

      .cls-16 {
        fill: url(#Sfumatura_senza_nome_113-14);
      }

      .cls-17 {
        fill: url(#Sfumatura_senza_nome_113-17);
      }

      .cls-18 {
        fill: url(#Sfumatura_senza_nome_113-23);
      }

      .cls-19 {
        fill: url(#Sfumatura_senza_nome_113-25);
      }

      .cls-20 {
        fill: url(#Sfumatura_senza_nome_113-22);
      }

      .cls-21 {
        fill: url(#Sfumatura_senza_nome_113-24);
      }

      .cls-22 {
        fill: url(#Sfumatura_senza_nome_113-21);
      }

      .cls-23 {
        fill: url(#Sfumatura_senza_nome_113-20);
      }

      .cls-24 {
        fill: url(#Sfumatura_senza_nome_113-4);
      }

      .cls-25 {
        fill: url(#Sfumatura_senza_nome_113-3);
      }

      .cls-26 {
        fill: url(#Sfumatura_senza_nome_113-2);
      }

      .cls-27 {
        fill: url(#Sfumatura_senza_nome_113-5);
      }

      .cls-28 {
        fill: url(#Sfumatura_senza_nome_113-6);
      }

      .cls-29 {
        fill: url(#Sfumatura_senza_nome_113-8);
      }

      .cls-30 {
        fill: url(#Sfumatura_senza_nome_113-7);
      }

      .cls-31 {
        fill: url(#Sfumatura_senza_nome_113-9);
      }

      .cls-32 {
        fill: url(#Sfumatura_senza_nome_8);
      }

      .cls-33 {
        fill: url(#Sfumatura_senza_nome_6);
      }

      .cls-34 {
        fill: url(#Sfumatura_senza_nome_113);
      }
    </style>
    <linearGradient id="Sfumatura_senza_nome_113" data-name="Sfumatura senza nome 113" x1="344.79" y1="489.35" x2="630.83" y2="489.35" gradientUnits="userSpaceOnUse">
      <stop offset="0" stop-color="#0077b6"/>
      <stop offset="1" stop-color="#03045e"/>
    </linearGradient>
    <linearGradient id="Sfumatura_senza_nome_8" data-name="Sfumatura senza nome 8" x1="115.02" y1="682.36" x2="859.62" y2="682.36" gradientUnits="userSpaceOnUse">
      <stop offset="0" stop-color="#00b4d8"/>
      <stop offset="1" stop-color="#0077b6"/>
    </linearGradient>
    <linearGradient id="Sfumatura_senza_nome_11" data-name="Sfumatura senza nome 11" x1="480.39" y1="493.64" x2="491.34" y2="493.64" gradientUnits="userSpaceOnUse">
      <stop offset="0" stop-color="#90e0ef"/>
      <stop offset="1" stop-color="#00b4d8"/>
    </linearGradient>
    <linearGradient id="Sfumatura_senza_nome_11-2" data-name="Sfumatura senza nome 11" x1="14815.01" y1="3210.72" x2="14825.95" y2="3210.72" gradientTransform="translate(-14334.62 -2621.3)" xlink:href="#Sfumatura_senza_nome_11"/>
    <linearGradient id="Sfumatura_senza_nome_113-2" data-name="Sfumatura senza nome 113" x1="475.96" y1="589.42" x2="495.77" y2="589.42" xlink:href="#Sfumatura_senza_nome_113"/>
    <linearGradient id="Sfumatura_senza_nome_11-3" data-name="Sfumatura senza nome 11" x1="359.91" y1="413.19" x2="612.5" y2="413.19" xlink:href="#Sfumatura_senza_nome_11"/>
    <linearGradient id="Sfumatura_senza_nome_113-3" data-name="Sfumatura senza nome 113" x1="380.78" y1="413.19" x2="397.44" y2="413.19" xlink:href="#Sfumatura_senza_nome_113"/>
    <linearGradient id="Sfumatura_senza_nome_113-4" data-name="Sfumatura senza nome 113" x1="415.53" y1="413.19" x2="432.18" y2="413.19" xlink:href="#Sfumatura_senza_nome_113"/>
    <linearGradient id="Sfumatura_senza_nome_113-5" data-name="Sfumatura senza nome 113" x1="450.28" y1="413.19" x2="466.93" y2="413.19" xlink:href="#Sfumatura_senza_nome_113"/>
    <linearGradient id="Sfumatura_senza_nome_113-6" data-name="Sfumatura senza nome 113" x1="510.62" y1="404.86" x2="530.92" y2="404.86" xlink:href="#Sfumatura_senza_nome_113"/>
    <linearGradient id="Sfumatura_senza_nome_113-7" data-name="Sfumatura senza nome 113" x1="510.62" y1="421.51" x2="530.92" y2="421.51" xlink:href="#Sfumatura_senza_nome_113"/>
    <linearGradient id="Sfumatura_senza_nome_113-8" data-name="Sfumatura senza nome 113" x1="538.95" y1="404.86" x2="589.11" y2="404.86" xlink:href="#Sfumatura_senza_nome_113"/>
    <linearGradient id="Sfumatura_senza_nome_113-9" data-name="Sfumatura senza nome 113" x1="538.95" y1="421.51" x2="589.11" y2="421.51" xlink:href="#Sfumatura_senza_nome_113"/>
    <linearGradient id="Sfumatura_senza_nome_11-4" data-name="Sfumatura senza nome 11" x1="359.57" y1="469.04" x2="612.16" y2="469.04" xlink:href="#Sfumatura_senza_nome_11"/>
    <linearGradient id="Sfumatura_senza_nome_113-10" data-name="Sfumatura senza nome 113" x1="380.44" y1="469.04" x2="397.09" y2="469.04" xlink:href="#Sfumatura_senza_nome_113"/>
    <linearGradient id="Sfumatura_senza_nome_113-11" data-name="Sfumatura senza nome 113" x1="415.19" y1="469.04" x2="431.84" y2="469.04" xlink:href="#Sfumatura_senza_nome_113"/>
    <linearGradient id="Sfumatura_senza_nome_113-12" data-name="Sfumatura senza nome 113" x1="449.93" y1="469.04" x2="466.59" y2="469.04" xlink:href="#Sfumatura_senza_nome_113"/>
    <linearGradient id="Sfumatura_senza_nome_113-13" data-name="Sfumatura senza nome 113" x1="510.28" y1="460.71" x2="530.57" y2="460.71" xlink:href="#Sfumatura_senza_nome_113"/>
    <linearGradient id="Sfumatura_senza_nome_113-14" data-name="Sfumatura senza nome 113" x1="510.28" y1="477.36" x2="530.57" y2="477.36" xlink:href="#Sfumatura_senza_nome_113"/>
    <linearGradient id="Sfumatura_senza_nome_113-15" data-name="Sfumatura senza nome 113" x1="538.6" y1="460.71" x2="588.77" y2="460.71" xlink:href="#Sfumatura_senza_nome_113"/>
    <linearGradient id="Sfumatura_senza_nome_113-16" data-name="Sfumatura senza nome 113" x1="538.6" y1="477.36" x2="588.77" y2="477.36" xlink:href="#Sfumatura_senza_nome_113"/>
    <linearGradient id="Sfumatura_senza_nome_11-5" data-name="Sfumatura senza nome 11" x1="359.91" y1="524.88" x2="612.5" y2="524.88" xlink:href="#Sfumatura_senza_nome_11"/>
    <linearGradient id="Sfumatura_senza_nome_113-17" data-name="Sfumatura senza nome 113" x1="380.78" y1="524.88" x2="397.44" y2="524.88" xlink:href="#Sfumatura_senza_nome_113"/>
    <linearGradient id="Sfumatura_senza_nome_113-18" data-name="Sfumatura senza nome 113" x1="415.53" y1="524.88" x2="432.18" y2="524.88" xlink:href="#Sfumatura_senza_nome_113"/>
    <linearGradient id="Sfumatura_senza_nome_113-19" data-name="Sfumatura senza nome 113" x1="450.28" y1="524.88" x2="466.93" y2="524.88" xlink:href="#Sfumatura_senza_nome_113"/>
    <linearGradient id="Sfumatura_senza_nome_113-20" data-name="Sfumatura senza nome 113" x1="510.62" y1="516.56" x2="530.92" y2="516.56" xlink:href="#Sfumatura_senza_nome_113"/>
    <linearGradient id="Sfumatura_senza_nome_113-21" data-name="Sfumatura senza nome 113" x1="510.62" y1="533.21" x2="530.92" y2="533.21" xlink:href="#Sfumatura_senza_nome_113"/>
    <linearGradient id="Sfumatura_senza_nome_113-22" data-name="Sfumatura senza nome 113" x1="538.95" y1="516.56" x2="589.11" y2="516.56" xlink:href="#Sfumatura_senza_nome_113"/>
    <linearGradient id="Sfumatura_senza_nome_113-23" data-name="Sfumatura senza nome 113" x1="538.95" y1="533.21" x2="589.11" y2="533.21" xlink:href="#Sfumatura_senza_nome_113"/>
    <linearGradient id="Sfumatura_senza_nome_113-24" data-name="Sfumatura senza nome 113" x1="390.45" y1="768.03" x2="581.62" y2="768.03" xlink:href="#Sfumatura_senza_nome_113"/>
    <linearGradient id="Sfumatura_senza_nome_6" data-name="Sfumatura senza nome 6" x1="265.72" y1="-6171.75" x2="708.55" y2="-6171.75" gradientTransform="translate(0 -5618.57) scale(1 -1)" gradientUnits="userSpaceOnUse">
      <stop offset="0" stop-color="#a1ddec"/>
      <stop offset="1" stop-color="#50b0d3"/>
    </linearGradient>
    <linearGradient id="Sfumatura_senza_nome_11-6" data-name="Sfumatura senza nome 11" x1="401.07" y1="233.46" x2="590.47" y2="233.46" xlink:href="#Sfumatura_senza_nome_11"/>
    <linearGradient id="Sfumatura_senza_nome_113-25" data-name="Sfumatura senza nome 113" x1="401.07" y1="233.46" x2="590.47" y2="233.46" xlink:href="#Sfumatura_senza_nome_113"/>
  </defs>
  <path class="cls-34" d="M630.83,369.23v240.23c0,4.45-3.6,8.04-8.04,8.04h-269.96c-4.44,0-8.04-3.6-8.04-8.04v-240.23c0-4.44,3.61-8.03,8.04-8.03h269.96c4.45,0,8.04,3.6,8.04,8.03Z"/>
  <path class="cls-32" d="M859.62,526.09v312.55c0,4.8-3.85,8.69-8.58,8.69H123.59c-4.74,0-8.58-3.89-8.58-8.69v-312.55c0-4.8,3.85-8.69,8.58-8.69h201.07v129.74c0,10.41,8.37,18.88,18.65,18.88h288.01c10.29,0,18.65-8.47,18.65-18.88v-129.74h201.07c4.74,0,8.58,3.89,8.58,8.69Z"/>
  <g>
    <rect class="cls-1" x="480.39" y="397.86" width="10.95" height="191.56" rx="3.24" ry="3.24"/>
    <rect class="cls-6" x="480.39" y="493.64" width="10.95" height="191.56" rx="3.24" ry="3.24" transform="translate(1075.29 103.56) rotate(90)"/>
    <circle class="cls-26" cx="485.86" cy="589.42" r="9.91"/>
  </g>
  <g>
    <rect class="cls-5" x="359.91" y="389.04" width="252.6" height="48.3" rx="12.37" ry="12.37"/>
    <circle class="cls-25" cx="389.11" cy="413.19" r="8.33"/>
    <circle class="cls-24" cx="423.86" cy="413.19" r="8.33"/>
    <circle class="cls-27" cx="458.6" cy="413.19" r="8.33"/>
    <rect class="cls-28" x="510.62" y="400.42" width="20.29" height="8.88" rx="4.44" ry="4.44"/>
    <rect class="cls-30" x="510.62" y="417.08" width="20.29" height="8.88" rx="4.44" ry="4.44"/>
    <rect class="cls-29" x="538.95" y="400.42" width="50.17" height="8.88" rx="4.44" ry="4.44"/>
    <rect class="cls-31" x="538.95" y="417.08" width="50.17" height="8.88" rx="4.44" ry="4.44"/>
  </g>
  <g>
    <rect class="cls-4" x="359.57" y="444.89" width="252.6" height="48.3" rx="12.37" ry="12.37"/>
    <circle class="cls-13" cx="388.77" cy="469.04" r="8.33"/>
    <circle class="cls-11" cx="423.51" cy="469.04" r="8.33"/>
    <circle class="cls-12" cx="458.26" cy="469.04" r="8.33"/>
    <rect class="cls-8" x="510.28" y="456.27" width="20.29" height="8.88" rx="4.44" ry="4.44"/>
    <rect class="cls-16" x="510.28" y="472.92" width="20.29" height="8.88" rx="4.44" ry="4.44"/>
    <rect class="cls-14" x="538.6" y="456.27" width="50.17" height="8.88" rx="4.44" ry="4.44"/>
    <rect class="cls-15" x="538.6" y="472.92" width="50.17" height="8.88" rx="4.44" ry="4.44"/>
  </g>
  <g>
    <rect class="cls-2" x="359.91" y="500.74" width="252.6" height="48.3" rx="12.37" ry="12.37"/>
    <circle class="cls-17" cx="389.11" cy="524.88" r="8.33"/>
    <circle class="cls-9" cx="423.86" cy="524.88" r="8.33"/>
    <circle class="cls-10" cx="458.6" cy="524.88" r="8.33"/>
    <rect class="cls-23" x="510.62" y="512.12" width="20.29" height="8.88" rx="4.44" ry="4.44"/>
    <rect class="cls-22" x="510.62" y="528.77" width="20.29" height="8.88" rx="4.44" ry="4.44"/>
    <rect class="cls-20" x="538.95" y="512.12" width="50.17" height="8.88" rx="4.44" ry="4.44"/>
    <rect class="cls-18" x="538.95" y="528.77" width="50.17" height="8.88" rx="4.44" ry="4.44"/>
  </g>
  <polygon class="cls-21" points="556.03 847.17 418.72 848.14 390.45 687.91 581.62 689.33 556.03 847.17"/>
  <path class="cls-33" d="M700.03,259.2h-99.56v53.79c0,8.45-6.87,15.32-15.32,15.32h-178.75c-8.45,0-15.33-6.87-15.33-15.32v-53.79h-116.83c-4.7,0-8.52,3.82-8.52,8.52v570.93c0,4.7,3.82,8.52,8.52,8.52h144.56v-128.49c-.01-4.71-3.83-8.52-8.53-8.52-5.83.83-12.73-1.67-12.64-8.52,0-2.36.95-4.48,2.5-6.03s3.67-2.49,6.02-2.49h162.53c4.71,0,8.52,3.82,8.52,8.52.07,6.87-6.8,9.33-12.64,8.52-4.71,0-8.52,3.82-8.52,8.52v128.49h143.99c4.71,0,8.52-3.82,8.52-8.52V267.72c0-4.7-3.81-8.52-8.52-8.52ZM649.35,615.22c0,10.21-8.3,18.52-18.52,18.52h-286.04c-10.21,0-18.52-8.31-18.52-18.52v-254.54c0-10.2,8.31-18.51,18.52-18.51h286.04c10.22,0,18.52,8.31,18.52,18.51v254.54Z"/>
  <path class="cls-3" d="M585.15,148.6h-178.75c-2.94,0-5.33,2.38-5.33,5.32v159.07c0,2.94,2.39,5.32,5.33,5.32h178.75c2.94,0,5.32-2.38,5.32-5.32v-159.07c0-2.94-2.38-5.32-5.32-5.32ZM562.98,256.31c0,1.03-.23,2.01-.66,2.89-1.07,2.27-3.39,3.84-6.07,3.84h-24.18c-3.71,0-6.73,3.01-6.73,6.73v24.17c0,3.72-3.01,6.73-6.73,6.73h-45.7c-3.71,0-6.73-3.01-6.73-6.73v-24.17c0-3.72-3.01-6.73-6.72-6.73h-24.18c-2.68,0-5-1.57-6.07-3.84-.43-.88-.66-1.86-.66-2.89v-45.7c0-3.72,3.01-6.73,6.73-6.73h24.18c3.71,0,6.72-3.01,6.72-6.73v-24.18c0-3.71,3.02-6.73,6.73-6.73h45.7c3.72,0,6.73,3.02,6.73,6.73v24.18c0,3.72,3.02,6.73,6.73,6.73h24.18c3.72,0,6.73,3.01,6.73,6.73v45.7Z"/>
  <path class="cls-19" d="M585.15,148.6h-178.75c-2.94,0-5.33,2.38-5.33,5.32v159.07c0,2.94,2.39,5.32,5.33,5.32h178.75c2.94,0,5.32-2.38,5.32-5.32v-159.07c0-2.94-2.38-5.32-5.32-5.32ZM562.98,256.31c0,1.03-.23,2.01-.66,2.89-1.07,2.27-3.39,3.84-6.07,3.84h-24.18c-3.71,0-6.73,3.01-6.73,6.73v24.17c0,3.72-3.01,6.73-6.73,6.73h-45.7c-3.71,0-6.73-3.01-6.73-6.73v-24.17c0-3.72-3.01-6.73-6.72-6.73h-24.18c-2.68,0-5-1.57-6.07-3.84-.43-.88-.66-1.86-.66-2.89v-45.7c0-3.72,3.01-6.73,6.73-6.73h24.18c3.71,0,6.72-3.01,6.72-6.73v-24.18c0-3.71,3.02-6.73,6.73-6.73h45.7c3.72,0,6.73,3.02,6.73,6.73v24.18c0,3.72,3.02,6.73,6.73,6.73h24.18c3.72,0,6.73,3.01,6.73,6.73v45.7Z"/>
  <path class="cls-7" d="M684.06,705.95c30.41-42.28,64.14-85.08,104.89-117.9,14.55-11.72,46.04-34.06,64.47-35.47,6.85-.53,13.16,1.06,11.77,9.19-1.51,8.81-26.23,27.51-33.71,34.63-50.57,48.15-91.43,111.74-121.45,174.54-3.05,6.38-8.57,23.01-13.31,26.67-5.64,4.35-13.48,3.47-18.4-1.58-5.62-5.77-12.78-19.84-17.89-27.25-16.91-24.55-40.39-56.91-65.19-73.45-7.46-4.98-17.38-6.17-12.17-17.8,2.98-6.65,10.74-14.2,17.04-17.78,33.81-19.21,62.77,23.08,81.4,45.38l2.54.83Z"/>
</svg>