<?xml version="1.0" encoding="UTF-8"?>
<svg id="Livello_1" data-name="Livello 1" xmlns="http://www.w3.org/2000/svg" xmlns:xlink="http://www.w3.org/1999/xlink" viewBox="0 0 1000 1000">
  <defs>
    <style>
      .cls-1 {
        fill: #fff;
        filter: url(#drop-shadow-24);
      }

      .cls-2 {
        fill: url(#Sfumatura_senza_nome_11);
      }

      .cls-3 {
        fill: #00b4d8;
      }

      .cls-4 {
        fill: url(#Sfumatura_senza_nome_11-2);
        filter: url(#drop-shadow-23);
      }

      .cls-5 {
        fill: url(#Sfumatura_senza_nome_113);
      }
    </style>
    <linearGradient id="Sfumatura_senza_nome_11" data-name="Sfumatura senza nome 11" x1="406.37" y1="259.55" x2="595.77" y2="259.55" gradientUnits="userSpaceOnUse">
      <stop offset="0" stop-color="#90e0ef"/>
      <stop offset="1" stop-color="#00b4d8"/>
    </linearGradient>
    <linearGradient id="Sfumatura_senza_nome_11-2" data-name="Sfumatura senza nome 11" x1="279.64" y1="553.55" x2="722.48" y2="553.55" xlink:href="#Sfumatura_senza_nome_11"/>
    <filter id="drop-shadow-23" x="241.55" y="221.26" width="533" height="679" filterUnits="userSpaceOnUse">
      <feOffset dx="7" dy="7"/>
      <feGaussianBlur result="blur" stdDeviation="15"/>
      <feFlood flood-color="#000" flood-opacity=".25"/>
      <feComposite in2="blur" operator="in"/>
      <feComposite in="SourceGraphic"/>
    </filter>
    <filter id="drop-shadow-24" x="395.84" y="153.41" width="225" height="226" filterUnits="userSpaceOnUse">
      <feOffset dx="7" dy="7"/>
      <feGaussianBlur result="blur-2" stdDeviation="15"/>
      <feFlood flood-color="#000" flood-opacity=".25"/>
      <feComposite in2="blur-2" operator="in"/>
      <feComposite in="SourceGraphic"/>
    </filter>
    <linearGradient id="Sfumatura_senza_nome_113" data-name="Sfumatura senza nome 113" x1="376.94" y1="196.5" x2="623.08" y2="196.5" gradientTransform="translate(0 728.82) scale(1 -1)" gradientUnits="userSpaceOnUse">
      <stop offset="0" stop-color="#0077b6"/>
      <stop offset="1" stop-color="#03045e"/>
    </linearGradient>
  </defs>
  <path class="cls-2" d="M590.45,174.7h-178.75c-2.94,0-5.33,2.38-5.33,5.32v159.07c0,2.94,2.39,5.32,5.33,5.32h178.75c2.94,0,5.32-2.38,5.32-5.32v-159.07c0-2.94-2.38-5.32-5.32-5.32Z"/>
  <path class="cls-3" d="M650.72,648.87c.15,9.01-7.55,17.11-16.56,17.4-2.37.18-6.19,0-8.63.11-11.48.16-22.95.22-34.43.48-74.25,1.67-148.55,3.5-222.82,2.06-8.94-.24-17.12-7.06-18.79-15.86-.75-2.9-.17-10.38-.23-13.47,1.17-56.45,1.64-115.78,1.03-172.15-.19-11.14-.51-40.19-.7-51.65-.24-10.58,8.9-19.64,19.46-19.57,83.61-1.24,173.48-1.74,257.16-1.61,0,0,4.3.02,4.3.02h2.15s.54.01.54.01c10.74-.05,20.32,8.54,21.1,19.32.19,19.58-.34,43.14-.61,62.76-1.11,56.4-2.99,115.7-2.97,172.15h0ZM649.92,648.87c0-56.47-1.84-115.74-2.97-172.15-.4-18.65-.56-41.63-.69-60.25.31-7.31-5.76-13.54-13.07-13.44,0,0-.54,0-.54,0h-2.15c-84.8.21-175.63-.34-260.38-1.56-8.41-.72-16.02,5.75-16.15,14.33,0,0-.47,34.43-.47,34.43-.07,8.61-.37,25.83-.36,34.43-.46,54.05.19,111.37,1.42,165.46.65,6.9,6.97,12.64,13.9,12.58,4.17.03,11.76-.18,16.04-.19,80.35-1.29,160.68,1.77,241.02,2.78,4.25-.08,8.58.52,12.69-.69,6.76-2.04,11.74-8.63,11.7-15.72h0Z"/>
  <path class="cls-4" d="M713.96,259.56h-103.19v79.53c0,11.2-9.11,20.32-20.32,20.32h-178.75c-11.21,0-20.33-9.12-20.33-20.32v-79.53h-103.21c-4.7,0-8.52,3.82-8.52,8.52v570.93c0,4.7,3.82,8.52,8.52,8.52h144.56v-128.49c-.01-4.71-3.83-8.52-8.53-8.52h-4.12c-4.71,0-8.52-3.82-8.52-8.52h0c0-4.71,3.82-8.52,8.52-8.52h162.53c4.71,0,8.52,3.82,8.52,8.52s-3.82,8.52-8.52,8.52h-4.12c-4.71,0-8.52,3.82-8.52,8.52v128.49h143.99c4.71,0,8.52-3.82,8.52-8.52V268.08c0-4.7-3.81-8.52-8.52-8.52ZM662.87,659.59c0,10.21-8.3,18.52-18.52,18.52h-286.04c-10.21,0-18.52-8.31-18.52-18.52v-254.54c0-10.2,8.31-18.51,18.52-18.51h286.04c10.22,0,18.52,8.31,18.52,18.51v254.54Z"/>
  <path class="cls-3" d="M722.48,523.52c46.11-.87,92.94-1.38,139.09-1.84,4.37-.28,8.81,2.19,10.61,6.26.8,1.65,1.06,3.54,1.03,5.35.55,39.79.56,93.11.87,133.11.3,55.35.35,112.09.3,167.5,0,0,0,2.99,0,2.99v1.5c.33,6.41-4.8,12.37-11.3,12.63-94.2-.19-199.13-1.91-293.35-2.18,0,0-1.3,0-1.3,0v-1.29s.08-43.61.08-43.61c0-14.66-.05-51.3-.07-65.42.02-5.79-.14-14.87-.05-20.56.31-4.82,4.57-8.94,9.4-9.07,3.27-.15,6.89.57,9.38-1.98,4.26-3.84,1.93-11.32-3.78-12.01-.58-.12-1.85-.06-2.49-.07-44.65.39-117.85.76-161.82,1.34-2.71.33-4.89,2.89-4.8,5.59,0,0,.08,2.96.08,2.96,0,0-3.07.03-3.07.03,0,0,2.98-2.98,2.98-2.98-.01,2.89,2.47,5.44,5.36,5.44.31.02,1.43,0,1.77,0,0,0,2.49-.02,2.49-.02,4.58-.08,8.99,2.8,10.78,7.02.86,1.92,1.03,4.06.98,6.14.21,29.92.46,96.63.57,127.2,0,0,.01,3.74.01,3.74h-3.77c-95.09.2-199.35.84-293.95.43-7.31.36-13.89-5.59-13.43-13.53,0,0,0-3,0-3,.06-14.97.16-56.42.24-71.99.33-75.9.83-152.05,1.55-227.97.02-2.21-.11-4.65.83-6.76.96-2.35,2.76-4.32,4.99-5.49,2.06-1.17,4.56-1.29,6.88-1.19,10.28.05,31.37.37,41.99.45,32,.43,63.99.75,95.99,1.3v.8c-45.74.72-92.21,1.28-137.98,1.75,0,0-1.5.02-1.5.02-1.12,0-2.31.21-3.3.78-1.3.72-2.32,1.9-2.84,3.26-.66,1.62-.33,3.33-.38,5.08,0,0,.11,12,.11,12,.85,96.47,1.45,194.42,1.68,290.96-.09,1.66.39,3.46,1.88,4.41.92.7,2.16.83,3.28.78,94.46-.26,198.94.06,293.95.42,0,0-3.76,3.76-3.76,3.76.1-29.6.33-95.93.53-124.71-.05-1.32.09-3.35,0-4.64-.2-2.66-2.66-4.85-5.34-4.82,0,0-2.49-.02-2.49-.02h-1.25c-6.31.25-12-5.27-11.84-11.6,0,0-.03-3.01-.03-3.01,0,0,3.02.03,3.02.03,0,0-2.98,2.98-2.98,2.98-.07-6.24,5.52-11.67,11.75-11.39,0,0,2.73.02,2.73.02,41.96.38,115.46.94,158.1,1.25,6.81-.6,12.52,5,11.29,11.89-.72,4.26-4.44,7.7-8.73,8.12-3.38.31-6.95-.73-9.73,1.63-1.64,1.33-2.63,3.37-2.65,5.48,0,.69-.02,2.72-.02,3.4-.01,22.36-.18,59.11-.13,81.78,0,0,.09,43.61.09,43.61l-1.3-1.3c93.08-.3,197.06-1.89,290.14-2.2,0,0,1.5,0,1.5,0h.75s.19,0,.19,0c0,0,.12,0,.12,0,2.85-.05,5.21-2.76,4.87-5.63,0,0,0-1.5,0-1.5v-2.99c-.08-70.8.13-144.47.53-215.36.11-22.53.46-63.01.63-85.25.26-3.68-2.13-7.03-6.12-7.11,0,0-.74,0-.74,0h-1.5c-10.28-.16-31.26-.3-41.88-.45-31.91-.38-63.81-.79-95.72-1.39v-.8h0Z"/>
  <path class="cls-1" d="M568.55,282.4c0,3.72-3.01,6.73-6.73,6.73h-24.18c-3.72,0-6.73,3.01-6.73,6.73v24.18c0,3.72-3.01,6.73-6.73,6.73h-45.7c-3.72,0-6.73-3.01-6.73-6.73v-24.18c0-3.72-3.01-6.73-6.73-6.73h-24.18c-3.72,0-6.73-3.01-6.73-6.73v-45.7c0-3.72,3.01-6.73,6.73-6.73h24.18c3.72,0,6.73-3.01,6.73-6.73v-24.18c0-3.72,3.01-6.73,6.73-6.73h45.7c3.72,0,6.73,3.01,6.73,6.73v24.18c0,3.72,3.01,6.73,6.73,6.73h24.18c3.72,0,6.73,3.01,6.73,6.73v45.7Z"/>
  <path class="cls-5" d="M598.21,508.71l-17.33-43.46c4.57-4.66,7.38-11.04,7.38-18.08,0-14.27-11.56-25.83-25.83-25.83-11.89,0-21.91,8.04-24.91,18.98l-40.98,2.51c-3.58-9.97-13.11-17.1-24.31-17.1-14.27,0-25.83,11.56-25.83,25.83,0,5.27,1.58,10.17,4.29,14.25l-39.16,44.41c-2.74-.99-5.69-1.53-8.76-1.53-14.27,0-25.83,11.56-25.83,25.83s11.56,25.83,25.83,25.83c3.25,0,6.36-.6,9.23-1.7l39.61,43.29c-3.26,4.32-5.2,9.71-5.2,15.54,0,14.27,11.56,25.83,25.83,25.83,12.3,0,22.58-8.59,25.19-20.1h39.82c2.6,11.51,12.89,20.1,25.19,20.1,14.27,0,25.83-11.56,25.83-25.83s-11.56-25.83-25.83-25.83c-12.3,0-22.58,8.59-25.19,20.1h-39.82c-1.34-5.92-4.71-11.06-9.34-14.67l10.65-15.1c5.09,2.27,10.73,3.53,16.66,3.53,21.6,0,39.3-16.73,40.84-37.94l17.34-2.71c3.99,9.11,13.09,15.47,23.67,15.47,14.27,0,25.83-11.56,25.83-25.83s-11.05-25.3-24.86-25.81h0ZM537,509.78l18.69-37.66c2.15.58,4.41.89,6.74.89,3.02,0,5.92-.52,8.62-1.47l15.71,39.38c-8.78,3.9-14.97,12.56-15.32,22.7l-15.96,2.49c-2.33-11.09-9.15-20.53-18.47-26.33h0ZM460.96,594.24c-.2.1-.4.2-.6.3l-38.75-42.35c4.33-4.62,6.99-10.83,6.99-17.66,0-2.45-.34-4.82-.98-7.06l33.34-17.75v84.53h0ZM422.12,517.41c-.27-.31-.56-.62-.85-.91l37.72-42.77c.64.39,1.31.74,1.98,1.07v21.92l-38.85,20.68h0ZM472.42,477.38c2.2-.01,4.34-.31,6.38-.84l3.95,8.59-10.33,5.5v-13.25ZM488.97,471.23c4.93-4.2,8.26-10.21,8.96-17l39.1-2.39c.24,1.33.58,2.62,1.02,3.86l-45.17,24.04-3.91-8.51h0ZM477.52,592.19c-1.65-.34-3.35-.53-5.09-.54v-88.05l15.12-8.05,6.47,14.08c-11.74,7.2-19.57,20.15-19.57,34.93,0,12.57,5.66,23.81,14.57,31.32l-11.5,16.3h0ZM504.52,505.08l-6.85-14.91,46.49-24.74c.46.46.93.89,1.42,1.32l-19.06,38.4c-3.53-.99-7.26-1.53-11.11-1.53s-7.41.51-10.87,1.46h0Z"/>
</svg>