<?xml version="1.0" encoding="UTF-8"?>
<svg id="Livello_1" data-name="Livello 1" xmlns="http://www.w3.org/2000/svg" xmlns:xlink="http://www.w3.org/1999/xlink" viewBox="0 0 1000 1000">
  <defs>
    <style>
      .cls-1 {
        fill: url(#Sfumatura_senza_nome_11);
      }

      .cls-2 {
        fill: #00b4d8;
      }

      .cls-3 {
        fill: url(#Sfumatura_senza_nome_11-8);
      }

      .cls-4 {
        fill: url(#Sfumatura_senza_nome_11-9);
      }

      .cls-5 {
        fill: url(#Sfumatura_senza_nome_11-5);
      }

      .cls-6 {
        fill: url(#Sfumatura_senza_nome_11-6);
      }

      .cls-7 {
        fill: url(#Sfumatura_senza_nome_11-7);
      }

      .cls-8 {
        fill: url(#Sfumatura_senza_nome_11-4);
      }

      .cls-9 {
        fill: url(#Sfumatura_senza_nome_11-3);
      }

      .cls-10 {
        fill: url(#Sfumatura_senza_nome_11-2);
      }

      .cls-11 {
        fill: #fff;
        filter: url(#drop-shadow-143);
      }

      .cls-12 {
        fill: url(#Sfumatura_senza_nome_11-45);
        filter: url(#drop-shadow-142);
      }

      .cls-13 {
        fill: url(#Sfumatura_senza_nome_11-16);
      }

      .cls-14 {
        fill: url(#Sfumatura_senza_nome_11-10);
      }

      .cls-15 {
        fill: url(#Sfumatura_senza_nome_11-15);
      }

      .cls-16 {
        fill: url(#Sfumatura_senza_nome_11-12);
      }

      .cls-17 {
        fill: url(#Sfumatura_senza_nome_11-11);
      }

      .cls-18 {
        fill: url(#Sfumatura_senza_nome_11-13);
      }

      .cls-19 {
        fill: url(#Sfumatura_senza_nome_11-38);
      }

      .cls-20 {
        fill: url(#Sfumatura_senza_nome_11-18);
      }

      .cls-21 {
        fill: url(#Sfumatura_senza_nome_11-19);
      }

      .cls-22 {
        fill: url(#Sfumatura_senza_nome_11-17);
      }

      .cls-23 {
        fill: url(#Sfumatura_senza_nome_11-37);
      }

      .cls-24 {
        fill: url(#Sfumatura_senza_nome_11-39);
      }

      .cls-25 {
        fill: url(#Sfumatura_senza_nome_11-14);
      }

      .cls-26 {
        fill: url(#Sfumatura_senza_nome_11-42);
      }

      .cls-27 {
        fill: url(#Sfumatura_senza_nome_11-44);
      }

      .cls-28 {
        fill: url(#Sfumatura_senza_nome_11-41);
      }

      .cls-29 {
        fill: url(#Sfumatura_senza_nome_11-40);
      }

      .cls-30 {
        fill: url(#Sfumatura_senza_nome_11-43);
      }

      .cls-31 {
        fill: url(#Sfumatura_senza_nome_11-25);
      }

      .cls-32 {
        fill: url(#Sfumatura_senza_nome_11-24);
      }

      .cls-33 {
        fill: url(#Sfumatura_senza_nome_11-23);
      }

      .cls-34 {
        fill: url(#Sfumatura_senza_nome_11-26);
      }

      .cls-35 {
        fill: url(#Sfumatura_senza_nome_11-21);
      }

      .cls-36 {
        fill: url(#Sfumatura_senza_nome_11-22);
      }

      .cls-37 {
        fill: url(#Sfumatura_senza_nome_11-20);
      }

      .cls-38 {
        fill: url(#Sfumatura_senza_nome_11-30);
      }

      .cls-39 {
        fill: url(#Sfumatura_senza_nome_11-31);
      }

      .cls-40 {
        fill: url(#Sfumatura_senza_nome_11-32);
      }

      .cls-41 {
        fill: url(#Sfumatura_senza_nome_11-33);
      }

      .cls-42 {
        fill: url(#Sfumatura_senza_nome_11-34);
      }

      .cls-43 {
        fill: url(#Sfumatura_senza_nome_11-35);
      }

      .cls-44 {
        fill: url(#Sfumatura_senza_nome_11-36);
      }

      .cls-45 {
        fill: url(#Sfumatura_senza_nome_11-27);
      }

      .cls-46 {
        fill: url(#Sfumatura_senza_nome_11-28);
      }

      .cls-47 {
        fill: url(#Sfumatura_senza_nome_11-29);
      }

      .cls-48 {
        fill: url(#Sfumatura_senza_nome_113);
      }
    </style>
    <linearGradient id="Sfumatura_senza_nome_11" data-name="Sfumatura senza nome 11" x1="373.66" y1="583.93" x2="194.9" y2="583.93" gradientUnits="userSpaceOnUse">
      <stop offset="0" stop-color="#90e0ef"/>
      <stop offset="1" stop-color="#00b4d8"/>
    </linearGradient>
    <linearGradient id="Sfumatura_senza_nome_11-2" data-name="Sfumatura senza nome 11" x1="373.66" y1="805.68" x2="194.9" y2="805.68" xlink:href="#Sfumatura_senza_nome_11"/>
    <linearGradient id="Sfumatura_senza_nome_11-3" data-name="Sfumatura senza nome 11" x1="330.04" y1="250.99" x2="687.88" y2="250.99" xlink:href="#Sfumatura_senza_nome_11"/>
    <linearGradient id="Sfumatura_senza_nome_11-4" data-name="Sfumatura senza nome 11" x1="330.04" y1="250.99" x2="687.88" y2="250.99" xlink:href="#Sfumatura_senza_nome_11"/>
    <linearGradient id="Sfumatura_senza_nome_11-5" data-name="Sfumatura senza nome 11" x1="330.04" y1="250.99" x2="687.88" y2="250.99" xlink:href="#Sfumatura_senza_nome_11"/>
    <linearGradient id="Sfumatura_senza_nome_11-6" data-name="Sfumatura senza nome 11" x1="330.04" y1="250.99" x2="687.88" y2="250.99" xlink:href="#Sfumatura_senza_nome_11"/>
    <linearGradient id="Sfumatura_senza_nome_11-7" data-name="Sfumatura senza nome 11" x1="330.04" y1="250.99" x2="687.88" y2="250.99" xlink:href="#Sfumatura_senza_nome_11"/>
    <linearGradient id="Sfumatura_senza_nome_11-8" data-name="Sfumatura senza nome 11" x1="330.04" y1="250.99" x2="687.88" y2="250.99" xlink:href="#Sfumatura_senza_nome_11"/>
    <linearGradient id="Sfumatura_senza_nome_11-9" data-name="Sfumatura senza nome 11" x1="330.04" y1="250.99" x2="687.88" y2="250.99" xlink:href="#Sfumatura_senza_nome_11"/>
    <linearGradient id="Sfumatura_senza_nome_11-10" data-name="Sfumatura senza nome 11" x1="330.04" y1="250.99" x2="687.88" y2="250.99" xlink:href="#Sfumatura_senza_nome_11"/>
    <linearGradient id="Sfumatura_senza_nome_11-11" data-name="Sfumatura senza nome 11" x1="330.04" y1="250.99" x2="687.88" y2="250.99" xlink:href="#Sfumatura_senza_nome_11"/>
    <linearGradient id="Sfumatura_senza_nome_11-12" data-name="Sfumatura senza nome 11" x1="330.04" y1="250.99" x2="687.88" y2="250.99" xlink:href="#Sfumatura_senza_nome_11"/>
    <linearGradient id="Sfumatura_senza_nome_11-13" data-name="Sfumatura senza nome 11" x1="330.04" y1="250.99" x2="687.88" y2="250.99" xlink:href="#Sfumatura_senza_nome_11"/>
    <linearGradient id="Sfumatura_senza_nome_11-14" data-name="Sfumatura senza nome 11" x1="330.04" y1="250.99" x2="687.88" y2="250.99" xlink:href="#Sfumatura_senza_nome_11"/>
    <linearGradient id="Sfumatura_senza_nome_11-15" data-name="Sfumatura senza nome 11" x1="330.04" y1="250.99" x2="687.88" y2="250.99" xlink:href="#Sfumatura_senza_nome_11"/>
    <linearGradient id="Sfumatura_senza_nome_11-16" data-name="Sfumatura senza nome 11" x1="330.04" y1="252.1" x2="687.88" y2="252.1" xlink:href="#Sfumatura_senza_nome_11"/>
    <linearGradient id="Sfumatura_senza_nome_11-17" data-name="Sfumatura senza nome 11" x1="330.04" y1="275.16" x2="687.88" y2="275.16" xlink:href="#Sfumatura_senza_nome_11"/>
    <linearGradient id="Sfumatura_senza_nome_11-18" data-name="Sfumatura senza nome 11" x1="330.04" y1="299.39" x2="687.88" y2="299.39" xlink:href="#Sfumatura_senza_nome_11"/>
    <linearGradient id="Sfumatura_senza_nome_11-19" data-name="Sfumatura senza nome 11" x1="330.04" y1="323.62" x2="687.88" y2="323.62" xlink:href="#Sfumatura_senza_nome_11"/>
    <linearGradient id="Sfumatura_senza_nome_11-20" data-name="Sfumatura senza nome 11" x1="330.04" y1="347.85" x2="687.88" y2="347.85" xlink:href="#Sfumatura_senza_nome_11"/>
    <linearGradient id="Sfumatura_senza_nome_11-21" data-name="Sfumatura senza nome 11" x1="330.04" y1="372.08" x2="687.88" y2="372.08" xlink:href="#Sfumatura_senza_nome_11"/>
    <linearGradient id="Sfumatura_senza_nome_11-22" data-name="Sfumatura senza nome 11" x1="330.04" y1="396.32" x2="687.88" y2="396.32" xlink:href="#Sfumatura_senza_nome_11"/>
    <linearGradient id="Sfumatura_senza_nome_11-23" data-name="Sfumatura senza nome 11" x1="330.04" y1="420.55" x2="687.88" y2="420.55" xlink:href="#Sfumatura_senza_nome_11"/>
    <linearGradient id="Sfumatura_senza_nome_11-24" data-name="Sfumatura senza nome 11" x1="330.04" y1="444.78" x2="687.88" y2="444.78" xlink:href="#Sfumatura_senza_nome_11"/>
    <linearGradient id="Sfumatura_senza_nome_11-25" data-name="Sfumatura senza nome 11" x1="330.04" y1="465.95" x2="687.88" y2="465.95" xlink:href="#Sfumatura_senza_nome_11"/>
    <linearGradient id="Sfumatura_senza_nome_11-26" data-name="Sfumatura senza nome 11" x1="330.04" y1="251" x2="687.88" y2="251" xlink:href="#Sfumatura_senza_nome_11"/>
    <linearGradient id="Sfumatura_senza_nome_11-27" data-name="Sfumatura senza nome 11" x1="-5074.98" y1="-13117.07" x2="-4966.24" y2="-13117.07" gradientTransform="translate(3774.95 -10813.71) scale(.73 -.84)" xlink:href="#Sfumatura_senza_nome_11"/>
    <linearGradient id="Sfumatura_senza_nome_11-28" data-name="Sfumatura senza nome 11" x1="-12433.05" y1="-11810.81" x2="-12236" y2="-11810.81" gradientTransform="translate(-9774.63 -8749.66) rotate(-90) scale(.73 -.84)" xlink:href="#Sfumatura_senza_nome_11"/>
    <linearGradient id="Sfumatura_senza_nome_11-29" data-name="Sfumatura senza nome 11" x1="-1731.47" y1="-12160.23" x2="-1534.42" y2="-12160.23" gradientTransform="translate(1472.42 -10010.19) scale(.8 -.84)" xlink:href="#Sfumatura_senza_nome_11"/>
    <linearGradient id="Sfumatura_senza_nome_11-30" data-name="Sfumatura senza nome 11" x1="-35284.08" y1="-8969.31" x2="-35087.03" y2="-8969.31" gradientTransform="translate(-7358.96 -7890.61) rotate(-90) scale(.23 -.84)" xlink:href="#Sfumatura_senza_nome_11"/>
    <linearGradient id="Sfumatura_senza_nome_11-31" data-name="Sfumatura senza nome 11" x1="-28073.04" y1="-6257.61" x2="-27875.99" y2="-6257.61" gradientTransform="translate(-5146.23 -9766.89) rotate(-90) scale(.36 -.84)" xlink:href="#Sfumatura_senza_nome_11"/>
    <linearGradient id="Sfumatura_senza_nome_11-32" data-name="Sfumatura senza nome 11" x1="5687.51" y1="-9616.64" x2="5796.24" y2="-9616.64" gradientTransform="translate(-2723.77 -7925.58) scale(.51 -.84)" xlink:href="#Sfumatura_senza_nome_11"/>
    <linearGradient id="Sfumatura_senza_nome_11-33" data-name="Sfumatura senza nome 11" x1="-8087.78" y1="-13124.04" x2="-7979.04" y2="-13124.04" gradientTransform="translate(4329.79 -10823.49) scale(.51 -.84)" xlink:href="#Sfumatura_senza_nome_11"/>
    <linearGradient id="Sfumatura_senza_nome_11-34" data-name="Sfumatura senza nome 11" x1="-17783.34" y1="-9242.36" x2="-17674.6" y2="-9242.36" gradientTransform="translate(-7479.27 -9373.56) rotate(-90) scale(.54 -.84)" xlink:href="#Sfumatura_senza_nome_11"/>
    <linearGradient id="Sfumatura_senza_nome_11-35" data-name="Sfumatura senza nome 11" x1="13144.8" y1="-10393.63" x2="13253.53" y2="-10393.63" gradientTransform="translate(-3564.82 -8468.77) scale(.29 -.84)" xlink:href="#Sfumatura_senza_nome_11"/>
    <linearGradient id="Sfumatura_senza_nome_11-36" data-name="Sfumatura senza nome 11" x1="6207.42" y1="-9362.04" x2="6316.16" y2="-9362.04" gradientTransform="translate(-2988.99 -7511.94) scale(.51 -.84)" xlink:href="#Sfumatura_senza_nome_11"/>
    <linearGradient id="Sfumatura_senza_nome_11-37" data-name="Sfumatura senza nome 11" x1="-5345.35" y1="-13521.3" x2="-5236.61" y2="-13521.3" gradientTransform="translate(1705.67 -11041.31) scale(.29 -.84)" xlink:href="#Sfumatura_senza_nome_11"/>
    <linearGradient id="Sfumatura_senza_nome_11-38" data-name="Sfumatura senza nome 11" x1="41.18" y1="-8165.15" x2="102.02" y2="-8165.15" gradientTransform="translate(0 -7910.42) scale(1 -1)" xlink:href="#Sfumatura_senza_nome_11"/>
    <linearGradient id="Sfumatura_senza_nome_11-39" data-name="Sfumatura senza nome 11" x1="122.81" y1="-8068.31" x2="183.66" y2="-8068.31" gradientTransform="translate(0 -7910.42) scale(1 -1)" xlink:href="#Sfumatura_senza_nome_11"/>
    <linearGradient id="Sfumatura_senza_nome_11-40" data-name="Sfumatura senza nome 11" x1="122.01" y1="-8262.6" x2="182.86" y2="-8262.6" gradientTransform="translate(0 -7910.42) scale(1 -1)" xlink:href="#Sfumatura_senza_nome_11"/>
    <linearGradient id="Sfumatura_senza_nome_11-41" data-name="Sfumatura senza nome 11" x1="227.8" y1="-8262.6" x2="288.65" y2="-8262.6" gradientTransform="translate(0 -7910.42) scale(1 -1)" xlink:href="#Sfumatura_senza_nome_11"/>
    <linearGradient id="Sfumatura_senza_nome_11-42" data-name="Sfumatura senza nome 11" x1="269.19" y1="-8165.15" x2="330.04" y2="-8165.15" gradientTransform="translate(0 -7910.42) scale(1 -1)" xlink:href="#Sfumatura_senza_nome_11"/>
    <linearGradient id="Sfumatura_senza_nome_11-43" data-name="Sfumatura senza nome 11" x1="227.8" y1="-8062.95" x2="288.65" y2="-8062.95" gradientTransform="translate(0 -7910.42) scale(1 -1)" xlink:href="#Sfumatura_senza_nome_11"/>
    <linearGradient id="Sfumatura_senza_nome_11-44" data-name="Sfumatura senza nome 11" x1="154.95" y1="-8176.33" x2="252.04" y2="-8176.33" gradientTransform="translate(0 -7910.42) scale(1 -1)" xlink:href="#Sfumatura_senza_nome_11"/>
    <linearGradient id="Sfumatura_senza_nome_113" data-name="Sfumatura senza nome 113" x1="589.22" y1="534.94" x2="736.52" y2="534.94" gradientUnits="userSpaceOnUse">
      <stop offset="0" stop-color="#0077b6"/>
      <stop offset="1" stop-color="#03045e"/>
    </linearGradient>
    <linearGradient id="Sfumatura_senza_nome_11-45" data-name="Sfumatura senza nome 11" x1="490.66" y1="712.26" x2="835.07" y2="712.26" xlink:href="#Sfumatura_senza_nome_11"/>
    <filter id="drop-shadow-142" x="460.75" y="503.84" width="415" height="427" filterUnits="userSpaceOnUse">
      <feOffset dx="5.44" dy="5.44"/>
      <feGaussianBlur result="blur" stdDeviation="11.67"/>
      <feFlood flood-color="#000" flood-opacity=".25"/>
      <feComposite in2="blur" operator="in"/>
      <feComposite in="SourceGraphic"/>
    </filter>
    <filter id="drop-shadow-143" x="580.75" y="452.84" width="176" height="175" filterUnits="userSpaceOnUse">
      <feOffset dx="5.44" dy="5.44"/>
      <feGaussianBlur result="blur-2" stdDeviation="11.67"/>
      <feFlood flood-color="#000" flood-opacity=".25"/>
      <feComposite in2="blur-2" operator="in"/>
      <feComposite in="SourceGraphic"/>
    </filter>
  </defs>
  <g>
    <path class="cls-1" d="M329.66,807.78c-5.46.18-10.93.28-16.39.4-5.46.12-10.93.26-16.39.32l-16.39.24-16.39.13-16.39.1-16.39-.05-16.39-.24-16.39-.4-2.65-.07.07-2.51c.53-18.62,1.17-37.23,1.38-55.85.18-18.62.08-37.23-.26-55.85-.34-18.62-.91-37.23-1.33-55.85-.43-18.62-.55-37.23-.77-55.85-.18-18.62-.37-37.23-.35-55.85-.05-9.31.06-18.62.13-27.92l.11-13.96.19-13.96c.54-37.23,1.38-74.47,3.1-111.7h.73c1.72,37.23,2.55,74.47,3.1,111.7l.19,13.96.11,13.96c.07,9.31.18,18.62.13,27.92.03,18.62-.17,37.23-.35,55.85-.21,18.62-.34,37.23-.77,55.85-.42,18.62-.98,37.23-1.33,55.85-.33,18.62-.43,37.23-.26,55.85.21,18.62.85,37.23,1.38,55.85l-2.58-2.58,16.39-.4,16.39-.24,16.39-.05,16.39.1,16.39.13,16.39.24c5.46.06,10.93.2,16.39.32,5.46.12,10.93.22,16.39.4v4.18Z"/>
    <path class="cls-10" d="M373.66,805.69c-20.7-7.68-46.38-20.79-62.3-34.67l12.54,34.67-12.54,34.66c15.92-13.88,41.6-26.98,62.3-34.66Z"/>
  </g>
  <g>
    <polygon class="cls-9" points="378.32 248.45 384.32 248.29 384.32 253.7 378.32 253.54 378.32 248.45"/>
    <polygon class="cls-8" points="396.06 247.99 407.81 247.78 407.81 254.2 396.06 254 396.06 247.99"/>
    <polygon class="cls-5" points="419.55 247.59 431.29 247.5 431.29 254.49 419.55 254.39 419.55 247.59"/>
    <polygon class="cls-6" points="443.03 247.4 448.9 247.39 454.77 247.41 454.77 254.58 448.9 254.59 443.03 254.58 443.03 247.4"/>
    <path class="cls-7" d="M466.51,247.55c3.91.08,7.83.1,11.74.24v6.41c-3.91.13-7.83.16-11.74.24v-6.88Z"/>
    <polygon class="cls-3" points="489.99 248.13 501.73 248.54 501.73 253.45 489.99 253.85 489.99 248.13"/>
    <polygon class="cls-4" points="513.47 248.95 525.21 249.31 525.21 252.67 513.47 253.03 513.47 248.95"/>
    <polygon class="cls-14" points="536.95 249.57 542.82 249.68 548.69 249.72 548.69 252.26 542.82 252.3 536.95 252.41 536.95 249.57"/>
    <polygon class="cls-17" points="560.42 249.78 572.16 249.72 572.16 252.26 560.42 252.2 560.42 249.78"/>
    <path class="cls-16" d="M583.9,249.58c3.91-.05,7.83-.13,11.74-.23v3.28c-3.91-.1-7.83-.18-11.74-.23v-2.83Z"/>
    <polygon class="cls-18" points="607.38 249.05 619.13 248.7 619.13 253.28 607.38 252.93 607.38 249.05"/>
    <polygon class="cls-25" points="630.87 248.35 642.61 248 642.61 253.99 630.87 253.63 630.87 248.35"/>
    <polygon class="cls-15" points="654.35 247.72 666.09 247.51 666.09 254.48 654.35 254.27 654.35 247.72"/>
    <polygon class="cls-13" points="677.88 247.33 683.88 247.26 687.57 247.21 687.61 250.99 687.69 256.99 680.07 256.99 680.14 250.99 683.88 254.73 677.88 254.65 677.88 247.33"/>
    <polygon class="cls-22" points="687.84 269.11 687.97 281.22 679.79 281.22 679.91 269.11 687.84 269.11"/>
    <path class="cls-20" d="M688.09,293.34c.06,4.04.04,8.08.05,12.11h-8.52c0-4.04,0-8.08.05-12.11h8.42Z"/>
    <path class="cls-21" d="M688.15,317.57c.02,4.04,0,8.08-.05,12.12h-8.46c-.05-4.04-.06-8.08-.05-12.12h8.56Z"/>
    <polygon class="cls-37" points="688 341.8 687.88 353.91 679.87 353.91 679.76 341.8 688 341.8"/>
    <polygon class="cls-35" points="687.68 366.03 687.47 378.14 680.28 378.14 680.07 366.03 687.68 366.03"/>
    <polygon class="cls-36" points="687.2 390.26 686.91 402.37 680.84 402.37 680.55 390.26 687.2 390.26"/>
    <polygon class="cls-33" points="686.55 414.49 686.17 426.6 681.59 426.6 681.2 414.49 686.55 414.49"/>
    <polygon class="cls-32" points="685.72 438.72 685.21 450.83 682.55 450.83 682.03 438.72 685.72 438.72"/>
    <polygon class="cls-31" points="684.61 462.95 684.28 468.95 683.48 468.95 683.14 462.95 684.61 462.95"/>
    <path class="cls-34" d="M330.04,250.99c22.72,8.43,50.91,22.81,68.38,38.05l-13.76-38.05,13.76-38.04c-17.47,15.23-45.66,29.62-68.38,38.04Z"/>
  </g>
  <g>
    <rect class="cls-45" x="70.22" y="197.97" width="79.19" height="13.32" transform="translate(-116.6 152.98) rotate(-48.93)"/>
    <rect class="cls-46" x="139.79" y="182.95" width="13.32" height="143.51"/>
    <rect class="cls-47" x="87.25" y="197.74" width="157.38" height="13.32" transform="translate(-76.41 101.53) rotate(-27.93)"/>
    <rect class="cls-38" x="168.6" y="180.04" width="13.32" height="44.83" transform="translate(-68.87 92.44) rotate(-24.86)"/>
    <rect class="cls-39" x="103.5" y="268.39" width="13.32" height="70.38" transform="translate(-176.2 154.28) rotate(-42.52)"/>
    <rect class="cls-40" x="177.39" y="145.74" width="55.93" height="13.32" transform="translate(-9.58 13.83) rotate(-3.77)"/>
    <rect class="cls-41" x="205.73" y="194.04" width="55.93" height="13.32" transform="translate(-51.02 318.31) rotate(-63.1)"/>
    <rect class="cls-42" x="277.65" y="172.1" width="13.32" height="58.23" transform="translate(-54.14 118.91) rotate(-21.62)"/>
    <rect class="cls-43" x="246.14" y="255.21" width="31.01" height="13.32" transform="translate(-38.16 44.73) rotate(-9.11)"/>
    <rect class="cls-44" x="177.21" y="345.52" width="55.93" height="13.32"/>
    <rect class="cls-23" x="156.14" y="309.92" width="31.01" height="13.32" transform="translate(-185.41 269.68) rotate(-54.05)"/>
    <circle class="cls-19" cx="71.6" cy="254.72" r="30.42"/>
    <circle class="cls-24" cx="153.23" cy="157.88" r="30.42"/>
    <circle class="cls-29" cx="152.44" cy="352.17" r="30.42"/>
    <circle class="cls-28" cx="258.22" cy="352.17" r="30.42"/>
    <circle class="cls-26" cx="299.61" cy="254.72" r="30.42"/>
    <circle class="cls-30" cx="258.22" cy="152.53" r="30.42"/>
    <circle class="cls-27" cx="203.49" cy="265.91" r="48.54"/>
  </g>
  <g>
    <path class="cls-48" d="M732.39,468.95h-139.02c-2.29,0-4.15,1.85-4.15,4.14v123.71c0,2.29,1.86,4.14,4.15,4.14h139.02c2.29,0,4.14-1.85,4.14-4.14v-123.71c0-2.29-1.85-4.14-4.14-4.14Z"/>
    <path class="cls-12" d="M828.45,534.17h-80.25v61.85c0,8.71-7.09,15.8-15.8,15.8h-139.02c-8.72,0-15.81-7.09-15.81-15.8v-61.85h-80.27c-3.66,0-6.63,2.97-6.63,6.63v342.93c0,3.66,2.97,6.63,6.63,6.63h112.43v-99.93c-.01-3.66-2.98-6.63-6.64-6.63h-3.2c-3.66,0-6.63-2.97-6.63-6.63h0c0-3.66,2.97-6.63,6.63-6.63h126.41c3.66,0,6.63,2.97,6.63,6.63s-2.97,6.63-6.63,6.63h-3.2c-3.66,0-6.63,2.97-6.63,6.63v99.93h111.99c3.66,0,6.63-2.97,6.63-6.63v-342.93c0-3.66-2.96-6.63-6.63-6.63Z"/>
    <path class="cls-2" d="M835.07,638.36c33.91-.62,68.41-1,102.36-1.38,0,0,4.65-.05,4.65-.05,0,0,1.16-.01,1.16-.01,3.4-.22,6.85,1.71,8.25,4.87.84,1.62.8,3.55.81,5.32.64,70.95.88,143,.91,214.02,0,0-.02,18.61-.02,18.61,0,0,0,2.33,0,2.33,0,0,0,1.16,0,1.16,0,0,0,.62,0,.62-.04,2.47-1.08,4.93-2.88,6.62-1.82,1.87-4.71,2.75-7.24,2.6,0,0-1.16,0-1.16,0-75.06-.33-151.72-1.44-226.66-1.71.09-32.64.09-65.85-.05-98.53,0,0,0-2.12,0-2.12-.32-4.17,3.14-8.1,7.34-8.2,2.58-.12,5.34.44,7.29-1.54,3.61-3.3,1.09-9.56-3.81-9.4,0,0-1.06,0-1.06,0-34.41.25-91.21.68-125.08.99-2.41-.11-4.59,2.01-4.5,4.4,0,0,.06,2.3.06,2.3,0,0-2.38.02-2.38.02h0s2.32-2.32,2.32-2.32c-.02,2.32,2.02,4.31,4.33,4.25,0,0,.24,0,.24,0,0,0,.97,0,.97,0,1.47,0,3.13-.1,4.54.35,3.76,1.04,6.54,4.72,6.51,8.64,0,0,0,.25,0,.25,0,0,0,.97,0,.97.08,24.85.44,76.55.48,101.84-70.42.13-156.8.63-226.89.34,0,0-4.67-.01-4.67-.01,0,0-.58,0-.58,0-4.38.04-8.53-3.11-9.55-7.4-.48-1.53-.27-3.85-.31-5.45.26-70.77.64-153.27,1.34-223.95,0,0,.09-9.33.09-9.33l.03-2.38c.26-5.23,4.64-8.58,9.81-8.06,8.02.03,24.38.26,32.66.33,24.88.34,49.77.58,74.65,1.01v.62c-24.88.43-49.77.67-74.65,1.01-4.68.12-23.1.2-27.99.28,0,0-4.67.04-4.67.04h-1.17c-.39.01-.59.02-.94.07-2.31.3-4.21,2.44-4.19,4.78,0,0,.01,2.29.01,2.29.68,74.07,1.22,159.12,1.43,233.29,0,0,0,2.33,0,2.33,0,0,0,.58,0,.58,0,0,.02.34.02.34.11,1.6,1.49,3,3.1,3.1,70.96-.13,158.14.06,229.51.34,0,0-2.92,2.92-2.92,2.92.09-23.03.29-74.6.44-96.99-.03-1.03.06-2.61,0-3.61-.16-2.08-2.09-3.79-4.18-3.76,0,0-1.94-.01-1.94-.01,0,0-.97,0-.97,0,0,0-.24,0-.24,0-4.82.08-9.09-4.18-8.97-9,0,0,0-2.34,0-2.34l2.31.02s0,0,0,0c0,0-2.32,2.32-2.32,2.32-.07-4.84,4.33-9.09,9.14-8.85,33.66.3,90.9.74,125.08.99,3.29-.26,6.69,1.32,8.11,4.4,2.43,4.62-.91,10.75-6.12,11.17-1.52.11-2.9,0-4.31.05-2.38.05-4.59,1.84-5.14,4.16-.29,1.09-.15,2.83-.19,3.96,0,0-.02,4.24-.02,4.24-.12,30.92-.09,62.39-.01,93.28,0,0-1.01-1.01-1.01-1.01,74.57-.25,150.98-1.42,225.65-1.71,0,0,1.16,0,1.16,0,.38,0,.83,0,.99-.02,1.83-.09,3.43-1.66,3.59-3.48,0,0,.02-.34.02-.34,0-.12,0-.37,0-.54v-1.16c-.11-74.88.22-150.82.81-225.65,0,0,.08-9.31.08-9.31,0,0,.01-1.16.01-1.16,0,0,0-.58,0-.58,0,0-.01-.44-.01-.44-.1-2.29-2.04-4.28-4.32-4.48-1.05-.08-5.59-.06-6.82-.09-5.49.01-22.11-.28-27.92-.3-24.81-.36-49.63-.59-74.44-1.08v-.62h0Z"/>
    <path class="cls-11" d="M715.36,552.71c0,2.89-2.34,5.23-5.23,5.23h-18.8c-2.89,0-5.23,2.34-5.23,5.23v18.8c0,2.89-2.34,5.23-5.23,5.23h-35.54c-2.89,0-5.23-2.34-5.23-5.23v-18.8c0-2.89-2.34-5.23-5.23-5.23h-18.8c-2.89,0-5.23-2.34-5.23-5.23v-35.54c0-2.89,2.34-5.23,5.23-5.23h18.8c2.89,0,5.23-2.34,5.23-5.23v-18.8c0-2.89,2.34-5.23,5.23-5.23h35.54c2.89,0,5.23,2.34,5.23,5.23v18.8c0,2.89,2.34,5.23,5.23,5.23h18.8c2.89,0,5.23,2.34,5.23,5.23v35.54Z"/>
  </g>
</svg>