<?xml version="1.0" encoding="UTF-8"?>
<svg id="Livello_1" data-name="Livello 1" xmlns="http://www.w3.org/2000/svg" xmlns:xlink="http://www.w3.org/1999/xlink" viewBox="0 0 1000 1000">
  <defs>
    <style>
      .cls-1 {
        fill: url(#Sfumatura_senza_nome_11);
      }

      .cls-2 {
        fill: url(#Sfumatura_senza_nome_113-13);
      }

      .cls-3 {
        fill: url(#Sfumatura_senza_nome_113-18);
      }

      .cls-4 {
        fill: url(#Sfumatura_senza_nome_113-19);
      }

      .cls-5 {
        fill: url(#Sfumatura_senza_nome_113-11);
      }

      .cls-6 {
        fill: url(#Sfumatura_senza_nome_113-12);
      }

      .cls-7 {
        fill: url(#Sfumatura_senza_nome_113-10);
      }

      .cls-8 {
        fill: url(#Sfumatura_senza_nome_113-15);
      }

      .cls-9 {
        fill: url(#Sfumatura_senza_nome_113-16);
      }

      .cls-10 {
        fill: url(#Sfumatura_senza_nome_113-14);
      }

      .cls-11 {
        fill: url(#Sfumatura_senza_nome_113-17);
      }

      .cls-12 {
        fill: url(#Sfumatura_senza_nome_113-4);
      }

      .cls-13 {
        fill: url(#Sfumatura_senza_nome_113-3);
      }

      .cls-14 {
        fill: url(#Sfumatura_senza_nome_113-2);
      }

      .cls-15 {
        fill: url(#Sfumatura_senza_nome_113-5);
      }

      .cls-16 {
        fill: url(#Sfumatura_senza_nome_113-6);
      }

      .cls-17 {
        fill: url(#Sfumatura_senza_nome_113-8);
      }

      .cls-18 {
        fill: url(#Sfumatura_senza_nome_113-7);
      }

      .cls-19 {
        fill: url(#Sfumatura_senza_nome_113-9);
      }

      .cls-20 {
        fill: url(#Sfumatura_senza_nome_8);
      }

      .cls-21 {
        fill: url(#Sfumatura_senza_nome_113);
      }

      .cls-22 {
        fill: url(#Sfumatura_senza_nome_8-2);
      }
    </style>
    <linearGradient id="Sfumatura_senza_nome_8" data-name="Sfumatura senza nome 8" x1="130.23" y1="676.78" x2="869.75" y2="676.78" gradientUnits="userSpaceOnUse">
      <stop offset="0" stop-color="#00b4d8"/>
      <stop offset="1" stop-color="#0077b6"/>
    </linearGradient>
    <linearGradient id="Sfumatura_senza_nome_11" data-name="Sfumatura senza nome 11" x1="278.57" y1="544.6" x2="721.41" y2="544.6" gradientUnits="userSpaceOnUse">
      <stop offset="0" stop-color="#90e0ef"/>
      <stop offset="1" stop-color="#00b4d8"/>
    </linearGradient>
    <linearGradient id="Sfumatura_senza_nome_8-2" data-name="Sfumatura senza nome 8" x1="410.22" y1="5207.39" x2="589.8" y2="5207.39" gradientTransform="translate(0 5968.82) scale(1 -1)" xlink:href="#Sfumatura_senza_nome_8"/>
    <linearGradient id="Sfumatura_senza_nome_113" data-name="Sfumatura senza nome 113" x1="405.3" y1="250.61" x2="594.7" y2="250.61" gradientUnits="userSpaceOnUse">
      <stop offset="0" stop-color="#0077b6"/>
      <stop offset="1" stop-color="#03045e"/>
    </linearGradient>
    <linearGradient id="Sfumatura_senza_nome_113-2" data-name="Sfumatura senza nome 113" x1="3431.94" y1="10616.89" x2="3531.55" y2="10616.89" gradientTransform="translate(-2111 9389.44) scale(.73 -.84)" xlink:href="#Sfumatura_senza_nome_113"/>
    <linearGradient id="Sfumatura_senza_nome_113-3" data-name="Sfumatura senza nome 113" x1="9939.93" y1="10486.15" x2="10120.43" y2="10486.15" gradientTransform="translate(9272.51 7839) rotate(-90) scale(.73 -.84)" xlink:href="#Sfumatura_senza_nome_113"/>
    <linearGradient id="Sfumatura_senza_nome_113-4" data-name="Sfumatura senza nome 113" x1="1152.86" y1="8992.28" x2="1333.36" y2="8992.28" gradientTransform="translate(-512.38 8024.56) scale(.8 -.84)" xlink:href="#Sfumatura_senza_nome_113"/>
    <linearGradient id="Sfumatura_senza_nome_113-5" data-name="Sfumatura senza nome 113" x1="27849.65" y1="8567.62" x2="28030.15" y2="8567.62" gradientTransform="translate(7687.34 6895.08) rotate(-90) scale(.23 -.84)" xlink:href="#Sfumatura_senza_nome_113"/>
    <linearGradient id="Sfumatura_senza_nome_113-6" data-name="Sfumatura senza nome 113" x1="23044.54" y1="6622.69" x2="23225.04" y2="6622.69" gradientTransform="translate(5993.96 8890.74) rotate(-90) scale(.36 -.84)" xlink:href="#Sfumatura_senza_nome_113"/>
    <linearGradient id="Sfumatura_senza_nome_113-7" data-name="Sfumatura senza nome 113" x1="-5479.58" y1="6254.78" x2="-5379.97" y2="6254.78" gradientTransform="translate(3286.59 5677.43) scale(.51 -.84)" xlink:href="#Sfumatura_senza_nome_113"/>
    <linearGradient id="Sfumatura_senza_nome_113-8" data-name="Sfumatura senza nome 113" x1="5352.2" y1="11112.99" x2="5451.8" y2="11112.99" gradientTransform="translate(-2211.83 9802.57) scale(.51 -.84)" xlink:href="#Sfumatura_senza_nome_113"/>
    <linearGradient id="Sfumatura_senza_nome_113-9" data-name="Sfumatura senza nome 113" x1="15736.31" y1="9060.15" x2="15835.92" y2="9060.15" gradientTransform="translate(8200.95 8991.6) rotate(-90) scale(.54 -.84)" xlink:href="#Sfumatura_senza_nome_113"/>
    <linearGradient id="Sfumatura_senza_nome_113-10" data-name="Sfumatura senza nome 113" x1="-13942.46" y1="6828.85" x2="-13842.86" y2="6828.85" gradientTransform="translate(4599.72 6259.92) scale(.29 -.84)" xlink:href="#Sfumatura_senza_nome_113"/>
    <linearGradient id="Sfumatura_senza_nome_113-11" data-name="Sfumatura senza nome 113" x1="-5874.16" y1="5536.38" x2="-5774.55" y2="5536.38" gradientTransform="translate(3487.76 5256.97) scale(.51 -.84)" xlink:href="#Sfumatura_senza_nome_113"/>
    <linearGradient id="Sfumatura_senza_nome_113-12" data-name="Sfumatura senza nome 113" x1="411.47" y1="10522.95" x2="511.08" y2="10522.95" gradientTransform="translate(353.13 9413.08) scale(.29 -.84)" xlink:href="#Sfumatura_senza_nome_113"/>
    <linearGradient id="Sfumatura_senza_nome_113-13" data-name="Sfumatura senza nome 113" x1="367.71" y1="5451.68" x2="423.45" y2="5451.68" gradientTransform="translate(0 5968.82) scale(1 -1)" xlink:href="#Sfumatura_senza_nome_113"/>
    <linearGradient id="Sfumatura_senza_nome_113-14" data-name="Sfumatura senza nome 113" x1="442.49" y1="5540.39" x2="498.23" y2="5540.39" gradientTransform="translate(0 5968.82) scale(1 -1)" xlink:href="#Sfumatura_senza_nome_113"/>
    <linearGradient id="Sfumatura_senza_nome_113-15" data-name="Sfumatura senza nome 113" x1="441.76" y1="5362.42" x2="497.5" y2="5362.42" gradientTransform="translate(0 5968.82) scale(1 -1)" xlink:href="#Sfumatura_senza_nome_113"/>
    <linearGradient id="Sfumatura_senza_nome_113-16" data-name="Sfumatura senza nome 113" x1="538.66" y1="5362.42" x2="594.4" y2="5362.42" gradientTransform="translate(0 5968.82) scale(1 -1)" xlink:href="#Sfumatura_senza_nome_113"/>
    <linearGradient id="Sfumatura_senza_nome_113-17" data-name="Sfumatura senza nome 113" x1="576.58" y1="5451.68" x2="632.32" y2="5451.68" gradientTransform="translate(0 5968.82) scale(1 -1)" xlink:href="#Sfumatura_senza_nome_113"/>
    <linearGradient id="Sfumatura_senza_nome_113-18" data-name="Sfumatura senza nome 113" x1="538.66" y1="5545.3" x2="594.4" y2="5545.3" gradientTransform="translate(0 5968.82) scale(1 -1)" xlink:href="#Sfumatura_senza_nome_113"/>
    <linearGradient id="Sfumatura_senza_nome_113-19" data-name="Sfumatura senza nome 113" x1="471.93" y1="5441.44" x2="560.87" y2="5441.44" gradientTransform="translate(0 5968.82) scale(1 -1)" xlink:href="#Sfumatura_senza_nome_113"/>
  </defs>
  <g>
    <path class="cls-20" d="M869.75,523.49v306.57c0,4.71-3.82,8.52-8.52,8.52H138.75c-4.71,0-8.52-3.82-8.52-8.52v-306.57c0-4.71,3.82-8.52,8.52-8.52h199.7v127.26c0,10.21,8.31,18.52,18.52,18.52h286.04c10.22,0,18.52-8.31,18.52-18.52v-127.26h199.7c4.71,0,8.52,3.82,8.52,8.52Z"/>
    <path class="cls-1" d="M712.89,250.61h-103.19v79.53c0,11.2-9.11,20.32-20.32,20.32h-178.75c-11.21,0-20.33-9.12-20.33-20.32v-79.53h-103.21c-4.7,0-8.52,3.82-8.52,8.52v570.93c0,4.7,3.82,8.52,8.52,8.52h425.8c4.71,0,8.52-3.82,8.52-8.52V259.13c0-4.7-3.81-8.52-8.52-8.52ZM661.53,642.23c0,10.21-8.3,18.52-18.52,18.52h-286.04c-10.21,0-18.52-8.31-18.52-18.52v-254.54c0-10.2,8.31-18.51,18.52-18.51h286.04c10.22,0,18.52,8.31,18.52,18.51v254.54Z"/>
    <path class="cls-22" d="M410.22,692.8h0c0,4.7,3.81,8.52,8.52,8.52h4.12c4.7,0,8.52,3.81,8.52,8.52v120.22c0,4.7,3.81,8.52,8.52,8.52h120.22c4.7,0,8.52-3.81,8.52-8.52v-120.22c0-4.7,3.81-8.52,8.52-8.52h4.12c4.7,0,8.52-3.81,8.52-8.52h0c0-4.7-3.81-8.52-8.52-8.52h-162.53c-4.7,0-8.52,3.81-8.52,8.52h-.01Z"/>
    <path class="cls-21" d="M589.38,165.75h-178.75c-2.94,0-5.33,2.38-5.33,5.32v159.07c0,2.94,2.39,5.32,5.33,5.32h178.75c2.94,0,5.32-2.38,5.32-5.32v-159.07c0-2.94-2.38-5.32-5.32-5.32ZM567.21,273.46c0,3.72-3.01,6.73-6.73,6.73h-24.18c-3.72,0-6.73,3.01-6.73,6.73v24.18c0,3.72-3.01,6.73-6.73,6.73h-45.7c-3.72,0-6.73-3.01-6.73-6.73v-24.18c0-3.72-3.01-6.73-6.73-6.73h-24.18c-3.72,0-6.73-3.01-6.73-6.73v-45.7c0-3.72,3.01-6.73,6.73-6.73h24.18c3.72,0,6.73-3.01,6.73-6.73v-24.18c0-3.72,3.01-6.73,6.73-6.73h45.7c3.72,0,6.73,3.01,6.73,6.73v24.18c0,3.72,3.01,6.73,6.73,6.73h24.18c3.72,0,6.73,3.01,6.73,6.73v45.7Z"/>
  </g>
  <g>
    <rect class="cls-14" x="394.32" y="465.15" width="72.54" height="12.2" transform="translate(-207.58 486.27) rotate(-48.93)"/>
    <rect class="cls-13" x="458.04" y="451.4" width="12.2" height="131.46"/>
    <rect class="cls-12" x="409.91" y="464.94" width="144.16" height="12.2" transform="translate(-164.49 280.63) rotate(-27.93)"/>
    <rect class="cls-15" x="484.44" y="448.73" width="12.2" height="41.07" transform="translate(-151.82 249.71) rotate(-24.86)"/>
    <rect class="cls-16" x="424.81" y="529.66" width="12.2" height="64.47" transform="translate(-266.44 438.98) rotate(-42.52)"/>
    <rect class="cls-18" x="492.49" y="417.31" width="51.24" height="12.2" transform="translate(-26.72 34.98) rotate(-3.77)"/>
    <rect class="cls-17" x="518.45" y="461.56" width="51.24" height="12.2" transform="translate(-119.14 741.27) rotate(-63.1)"/>
    <rect class="cls-19" x="584.33" y="441.45" width="12.2" height="53.34" transform="translate(-130.94 250.48) rotate(-21.62)"/>
    <rect class="cls-7" x="555.46" y="517.59" width="28.41" height="12.2" transform="translate(-75.73 96.8) rotate(-9.11)"/>
    <rect class="cls-5" x="492.32" y="600.31" width="51.24" height="12.2"/>
    <rect class="cls-6" x="473.02" y="567.7" width="28.41" height="12.2" transform="translate(-263.32 631.36) rotate(-54.05)"/>
    <circle class="cls-2" cx="395.58" cy="517.14" r="27.87"/>
    <circle class="cls-10" cx="470.36" cy="428.43" r="27.87"/>
    <circle class="cls-8" cx="469.63" cy="606.41" r="27.87"/>
    <circle class="cls-9" cx="566.53" cy="606.41" r="27.87"/>
    <circle class="cls-11" cx="604.45" cy="517.14" r="27.87"/>
    <circle class="cls-3" cx="566.53" cy="423.53" r="27.87"/>
    <circle class="cls-4" cx="516.4" cy="527.38" r="44.47"/>
  </g>
</svg>