<?xml version="1.0" encoding="UTF-8"?>
<svg id="Livello_1" data-name="Livello 1" xmlns="http://www.w3.org/2000/svg" xmlns:xlink="http://www.w3.org/1999/xlink" viewBox="0 0 1000 1000">
  <defs>
    <style>
      .cls-1 {
        fill: none;
        filter: url(#drop-shadow-109);
        stroke: url(#Sfumatura_senza_nome_14-3);
        stroke-miterlimit: 10;
        stroke-width: 5.06px;
      }

      .cls-2 {
        fill: url(#Sfumatura_senza_nome_14);
      }

      .cls-3 {
        fill: url(#Sfumatura_senza_nome_11);
      }

      .cls-4 {
        fill: url(#Sfumatura_senza_nome_14-2);
      }

      .cls-5 {
        fill: url(#Sfumatura_senza_nome_11-5);
      }

      .cls-6 {
        fill: url(#Sfumatura_senza_nome_11-4);
      }

      .cls-7 {
        fill: url(#Sfumatura_senza_nome_11-3);
      }

      .cls-8 {
        fill: url(#Sfumatura_senza_nome_11-2);
      }

      .cls-9 {
        fill: url(#Sfumatura_senza_nome_113);
      }
    </style>
    <linearGradient id="Sfumatura_senza_nome_14" data-name="Sfumatura senza nome 14" x1="216.16" y1="550.26" x2="774.21" y2="550.26" gradientUnits="userSpaceOnUse">
      <stop offset="0" stop-color="#90e0ef"/>
      <stop offset="1" stop-color="#00b4d8"/>
    </linearGradient>
    <linearGradient id="Sfumatura_senza_nome_14-2" data-name="Sfumatura senza nome 14" x1="244.65" y1="553.93" x2="755.35" y2="553.93" xlink:href="#Sfumatura_senza_nome_14"/>
    <linearGradient id="Sfumatura_senza_nome_11" data-name="Sfumatura senza nome 11" x1="219.38" y1="-11756.2" x2="775.92" y2="-11756.2" gradientTransform="translate(0 -11490.85) scale(1 -1)" gradientUnits="userSpaceOnUse">
      <stop offset="0" stop-color="#90e0ef"/>
      <stop offset="1" stop-color="#00b4d8"/>
    </linearGradient>
    <linearGradient id="Sfumatura_senza_nome_11-2" data-name="Sfumatura senza nome 11" x1="224.69" y1="450.7" x2="398.91" y2="450.7" gradientTransform="matrix(1,0,0,1,0,0)" xlink:href="#Sfumatura_senza_nome_11"/>
    <linearGradient id="Sfumatura_senza_nome_11-3" data-name="Sfumatura senza nome 11" x1="600.6" y1="450.52" x2="772.8" y2="450.52" gradientTransform="matrix(1,0,0,1,0,0)" xlink:href="#Sfumatura_senza_nome_11"/>
    <linearGradient id="Sfumatura_senza_nome_11-4" data-name="Sfumatura senza nome 11" x1="221.4" y1="642.12" x2="769.32" y2="642.12" gradientTransform="matrix(1,0,0,1,0,0)" xlink:href="#Sfumatura_senza_nome_11"/>
    <linearGradient id="Sfumatura_senza_nome_14-3" data-name="Sfumatura senza nome 14" x1="254.32" y1="555.77" x2="745.68" y2="555.77" xlink:href="#Sfumatura_senza_nome_14"/>
    <filter id="drop-shadow-109" x="231.9" y="414.57" width="547" height="293" filterUnits="userSpaceOnUse">
      <feOffset dx="5" dy="5"/>
      <feGaussianBlur result="blur" stdDeviation="10"/>
      <feFlood flood-color="#000" flood-opacity=".35"/>
      <feComposite in2="blur" operator="in"/>
      <feComposite in="SourceGraphic"/>
    </filter>
    <linearGradient id="Sfumatura_senza_nome_11-5" data-name="Sfumatura senza nome 11" x1="416.27" y1="558.53" x2="583.73" y2="558.53" gradientTransform="matrix(1,0,0,1,0,0)" xlink:href="#Sfumatura_senza_nome_11"/>
    <linearGradient id="Sfumatura_senza_nome_113" data-name="Sfumatura senza nome 113" x1="387.46" y1="480.2" x2="407.49" y2="480.2" gradientTransform="translate(-148.99 84.13) scale(1.62 1)" gradientUnits="userSpaceOnUse">
      <stop offset="0" stop-color="#0077b6"/>
      <stop offset="1" stop-color="#03045e"/>
    </linearGradient>
  </defs>
  <g>
    <g>
      <path class="cls-2" d="M225.29,268.63c1.25,46.33,2.27,92,3.25,137.42.96,45.4,1.77,90.45,2.4,135.32.61,44.87,1.09,89.56,1.27,134.22l.11,33.49.02,16.74-.06,16.74-.17,32.72c.16,1.5.73,3.1,1.74,4.81,1.01,1.7,2.46,3.42,4.17,5.04,3.45,3.26,7.75,6.18,12.34,8.77,4.58,2.62,9.47,4.93,14.48,7.05,5.02,2.12,10.17,4.03,15.39,5.8,10.46,3.51,21.19,6.49,32.03,9.13,21.69,5.26,43.82,9.11,66.08,12.15,11.13,1.51,22.3,2.76,33.5,3.82,11.2,1.05,22.42,1.96,33.66,2.6,11.24.66,22.49,1.12,33.75,1.37,11.26.29,22.52.33,33.79.22,22.53-.22,45.05-1.24,67.49-3.06,22.44-1.86,44.82-4.5,66.97-8.33,11.08-1.91,22.09-4.11,32.99-6.74,10.9-2.62,21.7-5.6,32.24-9.19,10.5-3.63,20.84-7.84,30.16-13.32,4.61-2.76,9.02-5.85,12.45-9.46,1.71-1.8,3.17-3.72,4.15-5.69.97-1.97,1.44-3.94,1.42-5.86l-.05-4.89,5.03-.09h.02s-4.98,4.98-4.98,4.98c-.72-42.2-1.51-84.39-2.02-126.59l-.63-63.29-.47-63.3-.8-126.59c-.29-42.2-.28-84.39-.24-126.59l9.14,9.14c-44.57-.14-89.11-.44-133.75-.94-44.62-.45-89.36-1.17-134.28-1.94l-67.53-1.24-67.89-1.37-137.18-3.04ZM224.08,267.42c44.08-1.1,88.62-2.1,133.44-3.04l67.42-1.37c22.53-.44,45.11-.9,67.78-1.24,45.29-.77,90.76-1.49,136.34-1.94,45.57-.5,91.23-.8,136.87-.94l9.13-.03v9.16c.05,42.2.06,84.39-.23,126.59l-.8,126.59-.47,63.3-.63,63.29c-.51,42.2-1.29,84.39-2.02,126.59l-.09,5.07-4.9-.08h-.02s4.98-4.98,4.98-4.98c-.07,3.74-1.18,7.34-2.83,10.37-1.66,3.03-3.79,5.55-6.03,7.77-4.53,4.42-9.61,7.66-14.76,10.53-10.36,5.63-21.21,9.58-32.14,12.98-21.88,6.77-44.25,11.04-66.65,14.55-44.86,6.8-90.1,9.83-135.35,10.8-22.63.46-45.27.37-67.91-.32-22.64-.66-45.28-1.99-67.89-4.14-22.6-2.15-45.17-5.14-67.58-9.64-11.21-2.25-22.37-4.88-33.43-8.23-5.53-1.67-11.03-3.51-16.49-5.61-5.46-2.1-10.88-4.44-16.2-7.25-2.66-1.41-5.29-2.94-7.87-4.67-2.58-1.73-5.12-3.62-7.55-5.83-2.42-2.21-4.76-4.74-6.74-7.85-1.97-3.08-3.53-6.84-4.03-10.96-.05-.52-.08-1.03-.1-1.55l-.04-.78c-.01-.28,0-.38-.01-.59l-.02-2.14-.03-4.28-.07-8.56-.08-17.12-.06-17.13.02-17.13.11-34.25c.18-45.67.66-91.29,1.27-136.75.62-45.45,1.44-90.72,2.4-135.65.98-44.9,2-89.55,3.25-133.54Z"/>
      <path class="cls-4" d="M671.45,499.29c6.01,4.55,11.8,9.29,17.79,13.83,5.93,4.6,11.92,9.12,17.91,13.65,6.02,4.48,12.04,8.97,18.12,13.38,6.06,4.43,12.15,8.83,18.27,13.19l3.09,2.2-3.09,2.69c-17.21,14.99-34.29,30.15-51.63,44.98-4.35,3.7-8.66,7.38-13.08,11.07-4.51,3.71-9.1,7.34-13.87,10.72-4.75,3.41-9.61,6.68-14.6,9.74-4.98,3.08-10.06,6-15.25,8.7-20.76,10.83-43,18.84-65.84,23.61-22.83,4.84-46.16,6.74-69.27,5.91-23.11-.9-46.01-4.12-68.34-9.67-22.33-5.52-44.06-13.46-64.73-23.72-10.35-5.1-20.38-10.86-30.12-17.12-4.86-3.14-9.63-6.43-14.31-9.86l-13.79-10.16c-18.37-13.52-36.72-27.08-54.85-40.91l-7.24-5.52,7.24-5.96c14.7-12.11,29.5-24.11,44.27-36.14,7.41-6.01,14.72-12.03,22.22-18.04,3.82-3.08,7.75-6.01,11.71-8.91,3.99-2.86,8.04-5.64,12.16-8.31,4.13-2.65,8.31-5.25,12.57-7.69,4.27-2.43,8.6-4.77,12.99-6.97,8.77-4.45,17.81-8.38,27.02-11.81,18.42-6.88,37.58-11.77,57-14.61,19.42-2.88,39.13-3.59,58.62-2.06,2.43.22,4.86.51,7.29.76,2.43.28,4.86.47,7.27.85l7.22,1.16c2.4.4,4.81.73,7.19,1.27l7.15,1.48c1.19.25,2.38.48,3.56.76l3.53.92,7.04,1.83,1.76.46,1.74.53,3.47,1.08,6.93,2.14c2.29.77,4.56,1.62,6.84,2.42,2.27.83,4.56,1.59,6.8,2.48l6.69,2.75c4.48,1.77,8.88,3.72,13.23,5.76,4.35,2.04,8.67,4.15,12.91,6.38,17.01,8.88,33.19,19.17,48.39,30.75ZM670.42,500.64c-15.16-11.44-31.64-21.12-48.99-28.72-8.68-3.77-17.53-7.14-26.59-9.8l-6.77-2.02c-2.26-.64-4.57-1.16-6.85-1.74-2.29-.56-4.56-1.16-6.85-1.68l-6.91-1.37c-36.89-7.16-74.57-6.9-110.93-.67-36.38,6.37-71.41,19.65-102.81,39.03-7.85,4.85-15.46,10.08-22.81,15.7l-22.62,17.39c-15.11,11.6-30.19,23.23-45.37,34.75v-11.49c17.64,14.45,35.06,29.18,52.46,43.93l13.05,11.04c4.29,3.61,8.7,7.09,13.21,10.44,9,6.72,18.51,12.79,28.34,18.3,39.37,21.98,85.03,32.98,130.01,31.38,1.41.01,2.81-.1,4.21-.19l4.21-.28c2.8-.19,5.6-.37,8.4-.62l8.35-1.05c2.78-.38,5.57-.62,8.32-1.18l8.26-1.48c1.37-.26,2.75-.47,4.12-.76l4.08-.96,8.15-1.91c1.36-.28,2.71-.67,4.05-1.06l4.02-1.14c21.43-6.13,42.13-14.38,61.79-24.64,4.9-2.6,9.74-5.29,14.52-8.12,4.76-2.85,9.47-5.78,14.1-8.85,4.61-3.09,9.2-6.23,13.66-9.56l13.75-10.13c18.43-13.45,37.12-26.57,55.68-39.86v4.88c-5.65-4.95-11.34-9.86-17.05-14.74-5.7-4.89-11.45-9.72-17.2-14.55-5.79-4.78-11.56-9.58-17.41-14.28-2.91-2.37-5.83-4.73-8.77-7.06l-4.4-3.5-4.43-3.44Z"/>
    </g>
    <ellipse class="cls-3" cx="497.65" cy="265.35" rx="278.27" ry="64.46"/>
    <path class="cls-8" d="M398.91,461.12c-24.75,9.46-48.46,22.54-70.34,39.22-63.29-11.81-103.88-30.06-103.88-50.54v-48.74c0,27.32,72.24,50.67,174.22,60.06Z"/>
    <path class="cls-7" d="M772.8,401.07v48.74c0,4.95-2.37,9.77-6.87,14.4-13.88,14.32-48.04,26.83-94.99,35.76-21.89-16.61-45.6-29.62-70.34-39.03,82.51-7.78,145.21-24.72,165.33-45.47,4.5-4.63,6.87-9.45,6.87-14.4Z"/>
    <path class="cls-6" d="M769.32,585.53v48.74c0,3.46-1.16,6.85-3.39,10.16-20.69,30.78-133.96,54.3-270.57,54.3s-250.24-23.6-270.67-54.45c-2.17-3.26-3.29-6.61-3.29-10.01v-48.74c0,3.41,1.12,6.75,3.29,10.01,14.54,21.97,76.22,40.26,159.94,48.97,74.31,33.21,159.76,32.76,233.76-1.37,77.23-9.15,133.54-26.64,147.54-47.45,2.23-3.31,3.39-6.7,3.39-10.16Z"/>
  </g>
  <path class="cls-1" d="M675.44,503.44c-1.49-1.18-2.99-2.34-4.5-3.48-21.89-16.61-45.6-29.62-70.34-39.03-64.88-24.69-136.85-24.63-201.69.19-24.75,9.46-48.46,22.54-70.34,39.22-1.34,1.02-2.67,2.05-4,3.1l-66.17,52.33,66.17,52.32c18.78,14.85,38.97,26.99,60.06,36.41,74.31,33.21,159.76,32.76,233.76-1.37,20-9.22,39.17-20.9,57.05-35.04l66.17-52.32-66.17-52.33Z"/>
  <path class="cls-5" d="M583.73,558.53c0,46.23-37.49,83.72-83.74,83.72s-83.73-37.49-83.73-83.72c0-17.17,5.16-33.12,14.03-46.41,15-22.51,40.62-37.33,69.69-37.33s54.58,14.75,69.6,37.18c8.93,13.3,14.13,29.32,14.13,46.56Z"/>
  <rect class="cls-9" x="479.07" y="343.95" width="32.48" height="440.76" transform="translate(348.52 -172.05) rotate(30)"/>
</svg>