<?xml version="1.0" encoding="UTF-8"?>
<svg id="Livello_1" data-name="Livello 1" xmlns="http://www.w3.org/2000/svg" xmlns:xlink="http://www.w3.org/1999/xlink" viewBox="0 0 1000 1000">
  <defs>
    <style>
      .cls-1 {
        stroke-width: 10.69px;
      }

      .cls-1, .cls-2 {
        fill: none;
        stroke: #fff;
        stroke-miterlimit: 10;
      }

      .cls-2 {
        stroke-width: 9.93px;
      }

      .cls-3 {
        fill: url(#Sfumatura_senza_nome_14);
      }

      .cls-4 {
        fill: url(#Sfumatura_senza_nome_11);
      }

      .cls-5 {
        fill: #00b4d8;
      }

      .cls-6 {
        fill: url(#Sfumatura_senza_nome_14-5);
      }

      .cls-7 {
        fill: url(#Sfumatura_senza_nome_14-3);
      }

      .cls-8 {
        fill: url(#Sfumatura_senza_nome_14-4);
      }

      .cls-9 {
        fill: url(#Sfumatura_senza_nome_14-2);
      }

      .cls-10 {
        fill: url(#Sfumatura_senza_nome_11-4);
      }

      .cls-11 {
        fill: url(#Sfumatura_senza_nome_11-3);
      }

      .cls-12 {
        fill: url(#Sfumatura_senza_nome_11-2);
      }

      .cls-13 {
        fill: #fff;
      }

      .cls-14 {
        fill: url(#Sfumatura_senza_nome_113);
      }
    </style>
    <linearGradient id="Sfumatura_senza_nome_14" data-name="Sfumatura senza nome 14" x1="141.76" y1="513.4" x2="865.9" y2="513.4" gradientUnits="userSpaceOnUse">
      <stop offset="0" stop-color="#90e0ef"/>
      <stop offset="1" stop-color="#00b4d8"/>
    </linearGradient>
    <linearGradient id="Sfumatura_senza_nome_113" data-name="Sfumatura senza nome 113" x1="145" y1="270.55" x2="866.38" y2="270.55" gradientUnits="userSpaceOnUse">
      <stop offset="0" stop-color="#0077b6"/>
      <stop offset="1" stop-color="#03045e"/>
    </linearGradient>
    <linearGradient id="Sfumatura_senza_nome_14-2" data-name="Sfumatura senza nome 14" x1="146.21" y1="418.53" x2="861.55" y2="418.53" xlink:href="#Sfumatura_senza_nome_14"/>
    <linearGradient id="Sfumatura_senza_nome_11" data-name="Sfumatura senza nome 11" x1="145.23" y1="613" x2="860.56" y2="613" gradientUnits="userSpaceOnUse">
      <stop offset="0" stop-color="#90e0ef"/>
      <stop offset="1" stop-color="#00b4d8"/>
    </linearGradient>
    <linearGradient id="Sfumatura_senza_nome_14-3" data-name="Sfumatura senza nome 14" x1="147.09" y1="515.76" x2="862.43" y2="515.76" xlink:href="#Sfumatura_senza_nome_14"/>
    <linearGradient id="Sfumatura_senza_nome_11-2" data-name="Sfumatura senza nome 11" x1="146.21" y1="710.23" x2="861.55" y2="710.23" xlink:href="#Sfumatura_senza_nome_11"/>
    <linearGradient id="Sfumatura_senza_nome_14-4" data-name="Sfumatura senza nome 14" x1="286.49" y1="810.29" x2="286.49" y2="332.78" xlink:href="#Sfumatura_senza_nome_14"/>
    <linearGradient id="Sfumatura_senza_nome_14-5" data-name="Sfumatura senza nome 14" x1="504.76" y1="332.78" x2="504.76" y2="810.29" xlink:href="#Sfumatura_senza_nome_14"/>
    <linearGradient id="Sfumatura_senza_nome_11-3" data-name="Sfumatura senza nome 11" x1="723.03" y1="810.29" x2="723.03" y2="332.78" xlink:href="#Sfumatura_senza_nome_11"/>
    <linearGradient id="Sfumatura_senza_nome_11-4" data-name="Sfumatura senza nome 11" x1="414.87" y1="489.53" x2="714.46" y2="489.53" xlink:href="#Sfumatura_senza_nome_11"/>
  </defs>
  <path class="cls-3" d="M833.62,812.88c-53.66-.02-107.32.23-160.98.78l-80.49.91-80.49,1c-26.83.28-53.66.62-80.49.78l-40.24.3-40.24.16c-26.83.09-53.66.05-80.49.02-26.83.02-53.66-.18-80.49-.29l-10.06-.05-5.03-.04h-.64s-.72-.04-.72-.04l-1.44-.08c-.96-.02-1.91-.21-2.86-.36-7.61-1.27-14.63-5.49-19.33-11.53-2.36-3.01-4.16-6.46-5.28-10.12l-.7-2.78c-.18-.94-.29-1.89-.43-2.83-.13-.94-.11-1.9-.17-2.85l-.03-.71v-.63s.01-1.26.01-1.26l.18-20.12.78-80.49.71-80.49.43-80.49c.14-53.66.14-107.32-.08-160.98l-.17-40.24-.26-40.24-.13-20.12-.08-10.06-.04-5.03-.02-2.52.12-2.73c.62-7.28,4.08-14.29,9.49-19.25,5.37-5,12.68-7.9,20.06-7.95l160.98-1.28,160.98-.71,160.98-.5,80.49-.11h80.49s10.06.02,10.06.02h5.03s.64.02.64.02l.75.04,1.5.08c1,.02,1.99.21,2.98.36,7.92,1.28,15.26,5.64,20.19,11.92,2.48,3.13,4.38,6.72,5.56,10.55l.74,2.91c.19.98.32,1.97.47,2.96.14.99.13,1.99.19,2.98l.03.75v1.89s-.06,20.12-.06,20.12c-.06,26.83-.12,53.66-.31,80.49l-.23,40.24-.37,40.24c-.21,26.83-.6,53.66-.92,80.49l-1,80.49-.92,80.49c-.32,26.83-.42,53.66-.62,80.49l-.1,20.12-.04,10.06-.02,5.03v2.52s-.15,2.56-.15,2.56c-.66,6.82-3.94,13.34-9.03,17.91-5.05,4.62-11.85,7.23-18.69,7.23ZM833.62,811.88c6.6-.02,13.13-2.55,17.97-7.01,4.87-4.42,8.02-10.68,8.61-17.23l.12-2.46v-2.51s-.02-5.03-.02-5.03l-.04-10.06-.1-20.12c-.21-26.83-.3-53.66-.62-80.49l-.92-80.49-1-80.49c-.32-26.83-.71-53.66-.92-80.49l-.37-40.24-.23-40.24c-.19-26.83-.25-53.66-.31-80.49l-.05-20.12v-1.26s0-.62,0-.62l-.03-.51c-.06-.68-.04-1.36-.14-2.04-.12-.67-.2-1.34-.32-2.01l-.51-1.97c-.82-2.58-2.12-5.01-3.82-7.13-3.38-4.25-8.36-7.17-13.7-8-.67-.09-1.33-.24-2.01-.23l-1.02-.05-.51-.03h-.62s-5.03.01-5.03.01l-10.06.03h-80.49s-80.49-.11-80.49-.11l-160.98-.5-160.98-.71-160.98-1.28c-6.05-.05-12.07,2.21-16.6,6.29-4.55,4.04-7.52,9.8-8.15,15.89l-.14,2.29-.02,2.51-.04,5.03-.08,10.06-.13,20.12-.26,40.24-.17,40.24c-.22,53.66-.22,107.32-.08,160.98l.43,80.49.71,80.49.78,80.49.18,20.12v1.26s.02.62.02.62l.04.54c.06.72.05,1.45.16,2.17.13.71.22,1.43.36,2.14l.56,2.09c.89,2.74,2.29,5.32,4.1,7.55,3.62,4.49,8.91,7.54,14.56,8.39.71.09,1.41.24,2.13.23l1.07.04.54.03h.62s5.03-.04,5.03-.04l10.06-.05c26.83-.11,53.66-.31,80.49-.29,26.83-.03,53.66-.07,80.49.02l40.24.16,40.24.3c26.83.16,53.66.51,80.49.78l80.49,1,80.49.91c53.66.56,107.32.8,160.98.78Z"/>
  <path class="cls-14" d="M173.26,208.33h664.87c15.6,0,28.26,12.66,28.26,28.26v96.19H145v-96.19c0-15.6,12.66-28.26,28.26-28.26Z"/>
  <path class="cls-9" d="M146.21,418.23c29.81-1.15,59.61-1.65,89.42-2.03l22.35-.22,22.35-.11c14.9-.08,29.81-.02,44.71.16l44.71.83,22.35.44,22.35.26c14.9.08,29.81.08,44.71-.05l11.18-.1,11.18-.17,22.35-.35c14.9-.25,29.81-.58,44.71-.77,14.9-.21,29.81-.32,44.71-.41l44.71-.3c7.45-.07,14.9-.07,22.35-.07h22.35c59.61.25,119.22,1.01,178.83,2.9v.6c-59.61,1.89-119.22,2.65-178.83,2.9h-22.35c-7.45,0-14.9,0-22.35-.07l-44.71-.3c-14.9-.1-29.81-.21-44.71-.41-14.9-.19-29.81-.51-44.71-.77l-22.35-.35-11.18-.17-11.18-.1c-14.9-.13-29.81-.13-44.71-.05l-22.35.26-22.35.44-44.71.83c-14.9.18-29.81.24-44.71.16l-22.35-.11-22.35-.22c-29.81-.38-59.61-.88-89.42-2.03v-.6Z"/>
  <path class="cls-4" d="M145.23,612.7c29.81-1.15,59.61-1.65,89.42-2.03l22.35-.22,22.35-.11c14.9-.08,29.81-.02,44.71.16l44.71.83,22.35.44,22.35.26c14.9.08,29.81.08,44.71-.05l11.18-.1,11.18-.17,22.35-.35c14.9-.25,29.81-.58,44.71-.77,14.9-.21,29.81-.32,44.71-.41l44.71-.3c7.45-.07,14.9-.07,22.35-.07h22.35c59.61.25,119.22,1.01,178.83,2.9v.6c-59.61,1.89-119.22,2.65-178.83,2.9h-22.35c-7.45,0-14.9,0-22.35-.07l-44.71-.3c-14.9-.1-29.81-.21-44.71-.41-14.9-.19-29.81-.51-44.71-.77l-22.35-.35-11.18-.17-11.18-.1c-14.9-.13-29.81-.13-44.71-.05l-22.35.26-22.35.44-44.71.83c-14.9.18-29.81.24-44.71.16l-22.35-.11-22.35-.22c-29.81-.38-59.61-.88-89.42-2.03v-.6Z"/>
  <path class="cls-7" d="M147.09,515.76l22.35-.45,22.35-.34,44.71-.67c29.81-.35,59.61-.67,89.42-.87,29.81-.28,59.61-.34,89.42-.5l89.42-.17,89.42.16c29.81.17,59.61.22,89.42.5,29.81.2,59.61.52,89.42.87l44.71.68,22.35.34,22.35.45-22.35.45-22.35.34-44.71.68c-29.81.35-59.61.67-89.42.87-29.81.28-59.61.33-89.42.5l-89.42.16-89.42-.17c-29.81-.16-59.61-.22-89.42-.5-29.81-.2-59.61-.52-89.42-.87l-44.71-.67-22.35-.34-22.35-.45Z"/>
  <path class="cls-12" d="M146.21,710.23l22.35-.45,22.35-.34,44.71-.67c29.81-.35,59.61-.67,89.42-.87,29.81-.28,59.61-.34,89.42-.5l89.42-.17,89.42.16c29.81.17,59.61.22,89.42.5,29.81.2,59.61.52,89.42.87l44.71.68,22.35.34,22.35.45-22.35.45-22.35.34-44.71.68c-29.81.35-59.61.67-89.42.87-29.81.28-59.61.33-89.42.5l-89.42.16-89.42-.17c-29.81-.16-59.61-.22-89.42-.5-29.81-.2-59.61-.52-89.42-.87l-44.71-.67-22.35-.34-22.35-.45Z"/>
  <path class="cls-8" d="M286.25,810.29c-.88-19.9-1.38-39.79-1.65-59.69l-.18-14.92-.09-14.92c-.07-9.95-.02-19.9.13-29.84l.68-29.84.36-14.92.21-14.92c.07-9.95.07-19.9-.04-29.84-.07-9.95-.34-19.9-.51-29.84-.21-9.95-.47-19.9-.62-29.84-.17-9.95-.26-19.9-.34-29.84l-.25-29.84c-.09-9.95-.06-19.9-.06-29.84.21-39.79.82-79.59,2.37-119.38h.49c1.55,39.79,2.16,79.59,2.37,119.38,0,9.95.03,19.9-.06,29.84l-.25,29.84c-.08,9.95-.17,19.9-.34,29.84-.15,9.95-.42,19.9-.63,29.84-.17,9.95-.44,19.9-.51,29.84-.11,9.95-.11,19.9-.04,29.84l.21,14.92.36,14.92.68,29.84c.15,9.95.2,19.9.13,29.84l-.09,14.92-.18,14.92c-.27,19.9-.77,39.79-1.65,59.69h-.49Z"/>
  <path class="cls-6" d="M504.76,332.78l.37,14.92.28,14.92.55,29.84c.29,19.9.55,39.79.71,59.69.23,19.9.28,39.79.41,59.69l.14,59.69-.13,59.69c-.14,19.9-.18,39.79-.41,59.69-.17,19.9-.42,39.79-.71,59.69l-.55,29.84-.28,14.92-.37,14.92-.37-14.92-.28-14.92-.55-29.84c-.29-19.9-.55-39.79-.71-59.69-.23-19.9-.27-39.79-.41-59.69l-.13-59.69.14-59.69c.13-19.9.18-39.79.41-59.69.16-19.9.42-39.79.71-59.69l.55-29.84.28-14.92.37-14.92Z"/>
  <path class="cls-11" d="M722.78,810.29c-.88-19.9-1.38-39.79-1.65-59.69l-.18-14.92-.09-14.92c-.07-9.95-.02-19.9.13-29.84l.68-29.84.36-14.92.21-14.92c.07-9.95.07-19.9-.04-29.84-.07-9.95-.34-19.9-.51-29.84-.21-9.95-.47-19.9-.62-29.84-.17-9.95-.26-19.9-.34-29.84l-.25-29.84c-.09-9.95-.06-19.9-.06-29.84.21-39.79.82-79.59,2.37-119.38h.49c1.55,39.79,2.16,79.59,2.37,119.38,0,9.95.03,19.9-.06,29.84l-.25,29.84c-.08,9.95-.17,19.9-.34,29.84-.15,9.95-.42,19.9-.63,29.84-.17,9.95-.44,19.9-.51,29.84-.11,9.95-.11,19.9-.04,29.84l.21,14.92.36,14.92.68,29.84c.15,9.95.2,19.9.13,29.84l-.09,14.92-.18,14.92c-.27,19.9-.77,39.79-1.65,59.69h-.49Z"/>
  <g>
    <g>
      <path class="cls-13" d="M786.53,894.33l-10.69,5.53c-9.21,4.77-20.55,1.15-25.31-8.06l-127.83-247.23c-18.06,6.76-37.61,10.46-58.03,10.46-91.41,0-165.51-74.1-165.51-165.5s74.1-165.51,165.51-165.51,165.5,74.1,165.5,165.51c0,53.21-25.11,100.56-64.13,130.82l128.56,248.66c4.77,9.22,1.16,20.55-8.06,25.31Z"/>
      <path class="cls-5" d="M786.7,894.65c-3.22,1.59-10.15,5.55-13.46,6.71-8.14,2.88-17.8-.62-22.3-7.98-18.71-35.39-37.32-70.73-56.26-105.98-21.43-40.15-54.18-101.43-74.79-141.37,0,0,3.93,1.51,3.93,1.51-9.84,3.71-20.05,6.42-30.4,8.2-124.57,20.72-225.28-97.97-187.22-217.73,34.05-106.96,163.48-151.29,255.56-86.52,77.49,53.8,95.53,161.93,39.48,237.85-9.43,12.61-20.59,24.16-33.08,33.74,0,0,.95-4.31.95-4.31,33.86,66.21,70.59,141.05,104.16,207.4,0,0,17.53,34.48,17.53,34.48,2.8,5.78,6.93,11.48,6.25,18.22-.37,6.61-4.47,12.77-10.35,15.78h0ZM786.37,894.02c8.65-4.35,12.48-15.72,8.03-24.36-18.86-36.31-39.55-75.19-58.79-111.11-22.16-41.34-52.55-98.13-73.95-139.12,9.72-7.56,18.73-16.08,26.67-25.48,18.69-22.13,31.18-49.48,35.86-78.05,21.58-134.24-119.69-233.54-239.16-169.18-74.85,40.05-106.18,135.17-69.32,211.74,36.11,77.5,129.37,113.72,208.52,82.15,35.47,68.64,74.46,147.86,109.26,216.74,5.06,9.76,12.97,25.91,18.18,35.57,4.25,7.03,13.52,10.46,21.31,7.71,3.14-1.02,10.29-5.15,13.38-6.61h0Z"/>
    </g>
    <circle class="cls-10" cx="564.67" cy="489.53" r="149.79"/>
  </g>
  <path class="cls-1" d="M485.54,349.68c0,77.7,0,200.52,0,278.22"/>
  <path class="cls-2" d="M684.78,390.07c-67.09,0-173.13,0-240.21,0"/>
  <path class="cls-1" d="M703.78,562.31c-77.7,0-200.52,0-278.22,0"/>
  <path class="cls-13" d="M607.87,456.79l-7.31,37.5h20.13v9.58h-21.92l-5.84,29.55h-10.23l5.68-29.55h-25.81l-5.68,29.55h-10.39l5.85-29.55h-14.45v-9.58h16.23l7.31-37.5h-20.29v-9.58h22.24l5.52-28.25h10.23l-5.52,28.25h25.81l5.52-28.25h10.39l-5.52,28.25h14.12v9.58h-16.07ZM597.65,456.79h-25.81l-7.31,37.5h25.81l7.31-37.5Z"/>
</svg>