<?xml version="1.0" encoding="UTF-8"?>
<svg id="Livello_1" data-name="Livello 1" xmlns="http://www.w3.org/2000/svg" xmlns:xlink="http://www.w3.org/1999/xlink" viewBox="0 0 1000 1000">
  <defs>
    <style>
      .cls-1 {
        fill: url(#Sfumatura_senza_nome_11);
      }

      .cls-2 {
        fill: url(#Sfumatura_senza_nome_11-2);
      }

      .cls-3 {
        fill: #fff;
      }

      .cls-4 {
        filter: url(#drop-shadow-101);
        stroke: url(#Sfumatura_senza_nome_9);
      }

      .cls-4, .cls-5, .cls-6, .cls-7, .cls-8, .cls-9 {
        fill: none;
        stroke-linecap: round;
        stroke-miterlimit: 10;
      }

      .cls-4, .cls-6, .cls-7, .cls-8, .cls-9 {
        stroke-width: 6.49px;
      }

      .cls-5 {
        filter: url(#drop-shadow-103);
        stroke: url(#Sfumatura_senza_nome_9-3);
        stroke-width: 9.27px;
      }

      .cls-6 {
        filter: url(#drop-shadow-102);
        stroke: url(#Sfumatura_senza_nome_9-2);
      }

      .cls-7 {
        filter: url(#drop-shadow-105);
        stroke: url(#Sfumatura_senza_nome_9-5);
      }

      .cls-8 {
        filter: url(#drop-shadow-104);
        stroke: url(#Sfumatura_senza_nome_9-4);
      }

      .cls-9 {
        filter: url(#drop-shadow-106);
        stroke: url(#Sfumatura_senza_nome_9-6);
      }

      .cls-10 {
        filter: url(#drop-shadow-100);
      }

      .cls-11 {
        fill: url(#Sfumatura_senza_nome_113);
      }
    </style>
    <linearGradient id="Sfumatura_senza_nome_11" data-name="Sfumatura senza nome 11" x1="137.52" y1="431.4" x2="558.59" y2="431.4" gradientUnits="userSpaceOnUse">
      <stop offset="0" stop-color="#90e0ef"/>
      <stop offset="1" stop-color="#00b4d8"/>
    </linearGradient>
    <linearGradient id="Sfumatura_senza_nome_113" data-name="Sfumatura senza nome 113" x1="5937.65" y1="1228.64" x2="6045.68" y2="1228.64" gradientTransform="translate(6496.24 1887.22) rotate(-180)" gradientUnits="userSpaceOnUse">
      <stop offset="0" stop-color="#0077b6"/>
      <stop offset="1" stop-color="#03045e"/>
    </linearGradient>
    <filter id="drop-shadow-100" x="496.09" y="460.9" width="395" height="483" filterUnits="userSpaceOnUse">
      <feOffset dx="4.29" dy="4.29"/>
      <feGaussianBlur result="blur" stdDeviation="6.87"/>
      <feFlood flood-color="#000" flood-opacity=".2"/>
      <feComposite in2="blur" operator="in"/>
      <feComposite in="SourceGraphic"/>
    </filter>
    <linearGradient id="Sfumatura_senza_nome_11-2" data-name="Sfumatura senza nome 11" x1="512.87" y1="697.85" x2="866.36" y2="697.85" xlink:href="#Sfumatura_senza_nome_11"/>
    <linearGradient id="Sfumatura_senza_nome_9" data-name="Sfumatura senza nome 9" x1="453.41" y1="485.12" x2="554.35" y2="485.12" gradientUnits="userSpaceOnUse">
      <stop offset="0" stop-color="#0077b6"/>
      <stop offset="1" stop-color="#03045e"/>
    </linearGradient>
    <filter id="drop-shadow-101" x="465.46" y="495.27" width="139" height="53" filterUnits="userSpaceOnUse">
      <feOffset dx="4.63" dy="4.63"/>
      <feGaussianBlur result="blur-2" stdDeviation="7.41"/>
      <feFlood flood-color="#000" flood-opacity=".2"/>
      <feComposite in2="blur-2" operator="in"/>
      <feComposite in="SourceGraphic"/>
    </filter>
    <linearGradient id="Sfumatura_senza_nome_9-2" data-name="Sfumatura senza nome 9" x1="-11639.8" y1="-10919.83" x2="-11538.86" y2="-10919.83" gradientTransform="translate(-10849.95 -10434.71) rotate(-180)" xlink:href="#Sfumatura_senza_nome_9"/>
    <filter id="drop-shadow-102" x="683.46" y="495.27" width="140" height="53" filterUnits="userSpaceOnUse">
      <feOffset dx="4.63" dy="4.63"/>
      <feGaussianBlur result="blur-3" stdDeviation="7.41"/>
      <feFlood flood-color="#000" flood-opacity=".2"/>
      <feComposite in2="blur-3" operator="in"/>
      <feComposite in="SourceGraphic"/>
    </filter>
    <linearGradient id="Sfumatura_senza_nome_9-3" data-name="Sfumatura senza nome 9" x1="284.93" y1="-11242.71" x2="284.93" y2="-11242.71" gradientTransform="translate(-10642.33 207.62) rotate(90)" xlink:href="#Sfumatura_senza_nome_9"/>
    <filter id="drop-shadow-103" x="619.57" y="523.63" width="4.63" height="4.63" filterUnits="userSpaceOnUse">
      <feOffset dx="4.63" dy="4.63"/>
      <feGaussianBlur result="blur-4" stdDeviation="7.41"/>
      <feFlood flood-color="#000" flood-opacity=".2"/>
      <feComposite in2="blur-4" operator="in"/>
      <feComposite in="SourceGraphic"/>
    </filter>
    <linearGradient id="Sfumatura_senza_nome_9-4" data-name="Sfumatura senza nome 9" x1="112.74" y1="-11266.26" x2="213.69" y2="-11266.26" gradientTransform="translate(-10642.33 207.62) rotate(90)" xlink:href="#Sfumatura_senza_nome_9"/>
    <filter id="drop-shadow-104" x="620.46" y="346.27" width="52" height="139" filterUnits="userSpaceOnUse">
      <feOffset dx="4.63" dy="4.63"/>
      <feGaussianBlur result="blur-5" stdDeviation="7.41"/>
      <feFlood flood-color="#000" flood-opacity=".2"/>
      <feComposite in2="blur-5" operator="in"/>
      <feComposite in="SourceGraphic"/>
    </filter>
    <linearGradient id="Sfumatura_senza_nome_9-5" data-name="Sfumatura senza nome 9" x1="-5810.95" y1="-13595.85" x2="-5710.01" y2="-13595.85" gradientTransform="translate(-12970.18 -5143.2) rotate(135)" xlink:href="#Sfumatura_senza_nome_9"/>
    <filter id="drop-shadow-105" x="675.46" y="383.27" width="114" height="114" filterUnits="userSpaceOnUse">
      <feOffset dx="4.63" dy="4.63"/>
      <feGaussianBlur result="blur-6" stdDeviation="7.41"/>
      <feFlood flood-color="#000" flood-opacity=".2"/>
      <feComposite in2="blur-6" operator="in"/>
      <feComposite in="SourceGraphic"/>
    </filter>
    <linearGradient id="Sfumatura_senza_nome_9-6" data-name="Sfumatura senza nome 9" x1="2743.49" y1="-5524.27" x2="2844.43" y2="-5524.27" gradientTransform="translate(-5350.83 2327.86) rotate(45)" xlink:href="#Sfumatura_senza_nome_9"/>
    <filter id="drop-shadow-106" x="503.46" y="383.27" width="114" height="114" filterUnits="userSpaceOnUse">
      <feOffset dx="4.63" dy="4.63"/>
      <feGaussianBlur result="blur-7" stdDeviation="7.41"/>
      <feFlood flood-color="#000" flood-opacity=".2"/>
      <feComposite in2="blur-7" operator="in"/>
      <feComposite in="SourceGraphic"/>
    </filter>
  </defs>
  <path class="cls-1" d="M450.56,711.75H148.75c-.75,0-4.72-.08-7.94-3.29-2.03-2.03-3.29-4.84-3.29-7.94V162.28c0-6.21,5.04-11.23,11.23-11.23h398.61c6.21,0,11.23,5.02,11.23,11.23v443.14"/>
  <rect class="cls-3" x="168.59" y="237.14" width="357.56" height="19.35" rx="9.68" ry="9.68"/>
  <rect class="cls-3" x="169.89" y="186.51" width="357.56" height="19.35" rx="9.68" ry="9.68"/>
  <rect class="cls-3" x="168.59" y="287.76" width="358.92" height="19.35" rx="9.68" ry="9.68"/>
  <rect class="cls-3" x="168.59" y="389.01" width="358.92" height="19.35" rx="9.68" ry="9.68"/>
  <rect class="cls-3" x="168.59" y="338.39" width="358.92" height="19.35" rx="9.68" ry="9.68"/>
  <rect class="cls-3" x="168.59" y="439.63" width="358.92" height="19.35" rx="9.68" ry="9.68"/>
  <rect class="cls-3" x="168.59" y="540.88" width="358.92" height="19.35" rx="9.68" ry="9.68"/>
  <rect class="cls-3" x="168.59" y="490.26" width="358.92" height="19.35" rx="9.68" ry="9.68"/>
  <rect class="cls-3" x="168.59" y="591.51" width="358.92" height="19.35" rx="9.68" ry="9.68"/>
  <rect class="cls-3" x="168.59" y="642.13" width="358.92" height="19.35" rx="9.68" ry="9.68"/>
  <path class="cls-11" d="M450.56,711.75v-95.08c0-.75.08-4.73,3.29-7.94,2.03-2.03,4.84-3.29,7.94-3.29v-.02h96.8"/>
  <g class="cls-10">
    <path class="cls-2" d="M671.55,636.96c.7-1.98,1.33-3.97,1.93-5.87.6-1.9,1.22-3.73,1.89-5.58,0-.03.02-.05.04-.08v-.02c1.89-3.23,4.02-6.35,6.62-9.11,2.58-2.76,5.64-5.16,9.13-6.8,3.48-1.65,7.4-2.49,11.3-2.34,3.9.13,7.75,1.21,11.19,2.99,6.93,3.56,12.35,9.51,15.98,16.26,3.63,6.79,5.5,14.48,5.58,22.2l-3.99-.7,2.73-8.05c.02-.05.04-.1.06-.15v-.02c1.69-3.69,3.7-7.28,6.25-10.54,2.55-3.25,5.65-6.17,9.29-8.35,3.63-2.19,7.79-3.6,12.06-4.01,4.26-.41,8.62.12,12.63,1.55,8.06,2.84,14.74,8.76,19.01,15.95,4.33,7.21,6.29,15.63,6.25,23.91l-5.68-1.21,2.69-6.4c.08-.19.18-.36.29-.53l.03-.04c2.45-3.47,5.65-6.44,9.31-8.64,3.65-2.2,7.72-3.63,11.85-4.35,8.31-1.35,16.78,0,24.35,3.32,7.56,3.3,14.36,8.87,18.57,16.33,2.1,3.72,3.47,7.87,3.91,12.16l.12,1.66c.03.55.09,1.13.06,1.59l-.09,2.9-.17,5.8c-.38,15.3-.22,30.64.03,46l.37,23.07.16,11.55.04,11.56c-.05,15.43-.29,30.85-1.37,46.32-.6,7.8-1.8,15.56-3.77,23.14-.94,3.8-2.14,7.53-3.43,11.22-1.37,3.67-2.82,7.3-4.55,10.82-.82,1.78-1.77,3.49-2.68,5.22-.99,1.69-1.91,3.42-2.99,5.05-2.04,3.34-4.37,6.5-6.79,9.57-2.46,3.04-5.11,5.93-7.92,8.65-2.86,2.67-5.78,5.28-8.96,7.56-1.54,1.21-3.21,2.23-4.82,3.34l-2.51,1.51-1.26.75-1.29.69-2.58,1.38-2.65,1.25-1.33.62-1.35.56-2.71,1.11c-7.31,2.73-14.92,4.6-22.65,5.56-.06,0-.13.01-.19,0-10.38-.42-20.78-.45-31.18-.22l-31.24.88c-10.43.22-20.89.33-31.36-.32-2.61-.22-5.23-.34-7.84-.67l-3.91-.43-3.9-.56c-1.3-.16-2.6-.4-3.89-.64-1.29-.24-2.59-.46-3.88-.72-2.56-.62-5.16-1.11-7.68-1.88-5.11-1.33-10.07-3.23-14.95-5.28-2.38-1.16-4.83-2.18-7.13-3.51l-3.49-1.91-3.37-2.11c-8.98-5.66-16.96-12.79-24.07-20.6-7.14-7.81-13.3-16.45-19.05-25.18-5.8-8.73-11.23-17.68-16.51-26.71-10.52-18.09-20.25-36.61-29.24-55.51-4.53-9.43-8.78-19-12.81-28.69-2.03-4.83-3.93-9.73-5.81-14.64l-2.7-7.42c-.85-2.65-1.67-5.32-2.1-8.13-.97-5.56-.78-11.54,1.11-17.17,1.89-5.63,5.69-10.65,10.48-14.09,2.39-1.74,5.01-3.11,7.73-4.14,2.73-1.01,5.55-1.68,8.38-2.06,2.84-.39,5.7-.48,8.52-.28,2.82.17,5.62.58,8.35,1.24,1.38.28,2.7.72,4.05,1.1,1.31.47,2.66.87,3.93,1.43,1.29.53,2.58,1.05,3.81,1.69l1.87.91,1.81,1.01c4.81,2.71,9.23,5.94,13.35,9.41,8.24,6.97,15.29,14.88,22.39,22.39l-6.82,2.71v-54.17s.17-54.17.17-54.17l.27-54.17.16-27.08.09-13.54.06-6.77v-1.69s.02-.42.02-.42v-.21s0-.11,0-.11c0-.08,0,.04,0-.24.01-.2.04-.39.08-.59.04-.2.1-.41.1-.41l.1-.3c.07-.22.12-.33.18-.5.46-1.18.91-2.19,1.38-3.26l1.42-3.14.74-1.57c.26-.54.49-1.02.86-1.7l.16-.27.13-.2.26-.4.53-.79c.34-.54.76-1.01,1.14-1.51.38-.51.8-.98,1.23-1.43.43-.46.85-.93,1.32-1.35,3.61-3.51,8.04-5.94,12.64-7.54,4.62-1.57,9.47-2.29,14.29-2.21,4.82.08,9.65.97,14.18,2.78,4.53,1.77,8.75,4.56,12.04,8.29.84.93,1.55,1.91,2.29,2.97.42.67.65,1.14.94,1.69l.78,1.57c1,2.09,1.94,4.17,2.81,6.37.22.56.43,1.11.63,1.73.1.29.2.67.29,1.05.05.25.1.67.1.91v.42s-.05,3.33-.05,3.33l-.09,6.65-.19,13.31-.49,26.67-.64,26.94c-.41,18.08-.68,36.36-.8,54.78ZM671.42,637.69c-.12-17.69-.39-35.52-.8-53.56l-.64-27.22-.49-27.5-.19-13.78-.09-6.89-.04-3.44c.12-.29-.37-1.41-.75-2.37-.83-1.98-1.8-4-2.8-5.96l-.76-1.44c-.25-.44-.54-.97-.73-1.25-.58-.77-1.21-1.62-1.9-2.34-2.76-2.99-6.32-5.25-10.23-6.67-7.81-2.89-16.8-2.8-24.61-.03-3.88,1.43-7.51,3.53-10.34,6.38-.37.34-.7.72-1.03,1.09-.34.37-.67.74-.95,1.15-.29.4-.62.77-.88,1.2l-.4.62-.2.31-.1.16-.05.09c-.16.31-.42.85-.64,1.33l-.68,1.5-1.32,3.05c-.42,1.01-.86,2.07-1.21,3-.04.1-.09.25-.11.3l-.03.1c-.02.07.03-.07.05-.2.02-.13.04-.25.04-.38v.71s.02,1.69.02,1.69l.06,6.77.09,13.54.16,27.08.27,54.17.18,54.17v54.17s0,0,0,0c0,2.18-1.77,3.95-3.95,3.95-1.13,0-2.15-.48-2.87-1.24-7.18-7.64-14.07-15.29-21.7-21.88-7.6-6.54-16.12-11.89-25.51-14.16-2.33-.59-4.71-.95-7.08-1.11-2.37-.18-4.75-.13-7.08.18-2.33.29-4.61.82-6.78,1.6-2.16.8-4.2,1.86-6.03,3.17-3.68,2.61-6.49,6.26-7.97,10.51-1.46,4.26-1.72,9-.94,13.69.32,2.35,1.03,4.68,1.74,7l2.59,7.29c1.81,4.84,3.64,9.67,5.61,14.46,3.91,9.58,8.03,19.1,12.4,28.51,4.35,9.42,8.88,18.76,13.6,28,4.69,9.26,9.54,18.44,14.62,27.49,5.07,9.05,10.25,18.05,15.8,26.8,5.53,8.78,11.33,17.28,18.1,25.01,6.73,7.74,14.32,14.75,22.88,20.37l3.21,2.1,3.33,1.91c2.19,1.33,4.54,2.35,6.82,3.52,4.68,2.07,9.45,4,14.4,5.39,9.84,3,20.13,4.46,30.44,5.26,10.33.74,20.73.79,31.13.6,20.8-.43,41.67-1.42,62.57-.66h-.19c7.53-.98,14.97-2.78,22.03-5.56l2.61-1.12,1.31-.56,1.28-.62,2.55-1.25,2.49-1.37,1.24-.69,1.21-.75,2.41-1.5c1.54-1.1,3.15-2.1,4.62-3.3,12.13-9.11,21.36-21.67,27.6-35.4,1.59-3.43,2.91-6.98,4.15-10.54,1.16-3.6,2.25-7.22,3.06-10.91,1.73-7.36,2.73-14.88,3.14-22.43.73-15.25.64-30.62.35-45.95l-1.23-46.11c-.36-15.4-.51-30.83-.18-46.3l.2-5.73.1-2.86c.04-.51-.02-.88-.05-1.29l-.08-1.22c-.32-3.37-1.39-6.68-3.06-9.66-3.33-6-8.97-10.79-15.46-13.66-6.47-2.89-13.81-4.07-20.72-2.98-3.45.56-6.77,1.69-9.73,3.43-2.96,1.73-5.54,4.06-7.57,6.85l.32-.57-2.77,6.37v.02c-.66,1.5-2.4,2.19-3.9,1.53-1.13-.49-1.8-1.6-1.78-2.76.12-7.33-1.52-14.68-5.19-20.95-3.62-6.24-9.24-11.39-15.93-13.88-6.67-2.53-14.29-1.96-20.47,1.66-3.1,1.78-5.84,4.24-8.16,7.09-2.33,2.85-4.26,6.06-5.9,9.44l.07-.17-2.93,7.98-.02.04c-.39,1.06-1.57,1.61-2.63,1.22-.84-.31-1.35-1.11-1.34-1.95.1-7.07-1.44-14.19-4.63-20.53-3.16-6.32-7.99-11.94-14.17-15.35-6.11-3.5-13.74-4.09-20.25-1.25-3.26,1.38-6.22,3.52-8.78,6.06-2.56,2.55-4.77,5.46-6.74,8.54l.05-.09c-.83,2.01-1.7,4.04-2.6,6-.9,1.96-1.77,3.84-2.56,5.71Z"/>
  </g>
  <line class="cls-4" x1="486.61" y1="516.75" x2="573.67" y2="516.75"/>
  <line class="cls-6" x1="791.93" y1="516.75" x2="704.87" y2="516.75"/>
  <path class="cls-5" d="M619.57,523.63"/>
  <line class="cls-8" x1="641.4" y1="367.29" x2="641.4" y2="454.36"/>
  <line class="cls-7" x1="758.26" y1="404.52" x2="696.7" y2="466.08"/>
  <line class="cls-9" x1="524.54" y1="404.52" x2="586.1" y2="466.08"/>
</svg>