<?xml version="1.0" encoding="UTF-8"?>
<svg id="Livello_1" data-name="Livello 1" xmlns="http://www.w3.org/2000/svg" xmlns:xlink="http://www.w3.org/1999/xlink" viewBox="0 0 1000 1000">
  <defs>
    <style>
      .cls-1 {
        fill: url(#Sfumatura_senza_nome_11);
      }

      .cls-2 {
        fill: url(#Sfumatura_senza_nome_113);
        filter: url(#drop-shadow-108);
      }

      .cls-3 {
        fill: url(#Sfumatura_senza_nome_11-4);
      }

      .cls-4 {
        fill: url(#Sfumatura_senza_nome_11-3);
      }

      .cls-5 {
        fill: url(#Sfumatura_senza_nome_11-2);
      }

      .cls-6 {
        fill: #fff;
      }

      .cls-7 {
        fill: url(#Sfumatura_senza_nome_11-5);
        filter: url(#drop-shadow-107);
      }
    </style>
    <linearGradient id="Sfumatura_senza_nome_11" data-name="Sfumatura senza nome 11" x1="218.5" y1="547.8" x2="776.8" y2="547.8" gradientUnits="userSpaceOnUse">
      <stop offset="0" stop-color="#90e0ef"/>
      <stop offset="1" stop-color="#00b4d8"/>
    </linearGradient>
    <linearGradient id="Sfumatura_senza_nome_11-2" data-name="Sfumatura senza nome 11" x1="221.73" y1="-9632.05" x2="778.27" y2="-9632.05" gradientTransform="translate(0 -9370.85) scale(1 -1)" xlink:href="#Sfumatura_senza_nome_11"/>
    <linearGradient id="Sfumatura_senza_nome_11-3" data-name="Sfumatura senza nome 11" x1="227.03" y1="-9824.37" x2="775.15" y2="-9824.37" gradientTransform="translate(0 -9370.85) scale(1 -1)" xlink:href="#Sfumatura_senza_nome_11"/>
    <linearGradient id="Sfumatura_senza_nome_11-4" data-name="Sfumatura senza nome 11" x1="223.74" y1="-10008.82" x2="771.66" y2="-10008.82" gradientTransform="translate(0 -9370.85) scale(1 -1)" xlink:href="#Sfumatura_senza_nome_11"/>
    <linearGradient id="Sfumatura_senza_nome_11-5" data-name="Sfumatura senza nome 11" x1="327.57" y1="432.08" x2="752.63" y2="432.08" xlink:href="#Sfumatura_senza_nome_11"/>
    <filter id="drop-shadow-107" x="319.04" y="405.7" width="373" height="170" filterUnits="userSpaceOnUse">
      <feOffset dx="4.08" dy="4.08"/>
      <feGaussianBlur result="blur" stdDeviation="4.08"/>
      <feFlood flood-color="#000" flood-opacity=".35"/>
      <feComposite in2="blur" operator="in"/>
      <feComposite in="SourceGraphic"/>
    </filter>
    <linearGradient id="Sfumatura_senza_nome_113" data-name="Sfumatura senza nome 113" x1="327.52" y1="657.58" x2="752.58" y2="657.58" gradientUnits="userSpaceOnUse">
      <stop offset="0" stop-color="#0077b6"/>
      <stop offset="1" stop-color="#03045e"/>
    </linearGradient>
    <filter id="drop-shadow-108" x="319.04" y="592.7" width="373" height="170" filterUnits="userSpaceOnUse">
      <feOffset dx="4.08" dy="4.08"/>
      <feGaussianBlur result="blur-2" stdDeviation="4.08"/>
      <feFlood flood-color="#000" flood-opacity=".35"/>
      <feComposite in2="blur-2" operator="in"/>
      <feComposite in="SourceGraphic"/>
    </filter>
  </defs>
  <g>
    <path class="cls-1" d="M768.86,770.83c.06.27.12.51.14.75.01.12.02.23.02.35,0,.13-.05.35-.07.52-.11.74-.22,1.47-.44,2.18-.35,1.44-.96,2.8-1.61,4.11-1.37,2.6-3.21,4.89-5.23,6.94-4.06,4.12-8.87,7.3-13.78,10.17-9.89,5.68-20.53,9.8-31.24,13.47-21.52,7.18-43.68,12.17-65.95,16.3-44.59,8.13-89.83,12.62-135.18,14.47-45.35,1.76-90.9.71-136.2-4.24-5.66-.63-11.32-1.31-16.97-2.06-5.65-.75-11.29-1.6-16.93-2.5-5.64-.91-11.27-1.89-16.89-2.94-5.62-1.08-11.22-2.25-16.82-3.51-11.19-2.51-22.31-5.47-33.32-9.08-5.51-1.8-10.97-3.8-16.39-6.05-5.41-2.25-10.78-4.73-16.02-7.7-2.62-1.49-5.21-3.08-7.73-4.87-2.53-1.78-5.01-3.73-7.36-5.98-2.35-2.25-4.59-4.8-6.46-7.87-1.86-3.05-3.31-6.71-3.72-10.68-.04-.49-.05-.99-.08-1.49l-.02-.75c-.01-.27,0-.38,0-.58l.03-2.12.07-4.23.14-8.47.34-16.94,1.36-67.74,1.16-67.74c.32-22.58.53-45.16.64-67.74.22-45.16.09-90.32-.33-135.48-.18-22.58-.56-45.16-.84-67.74l-1.14-67.74-.08-4.89,5.06-.09,67.65-1.17,67.66-.97,67.65-.61,67.66-.49,135.31-.83c45.1-.13,90.21-.2,135.31.04l9.06.05-.05,8.96-.37,63.29-.26,31.65c-.09,10.55-.22,21.1-.38,31.65-.27,21.1-.68,42.2-1.13,63.29l-1.55,63.29-1.68,63.29c-.55,21.1-1.08,42.2-1.47,63.29-.83,42.2-1.28,84.39-1.32,126.59l-.85.85c.2,0,.46-.1.59-.25ZM767.66,769.63c.14-.15.4-.26.61-.25l-.85.85c-.04-42.2-.48-84.39-1.32-126.59-.39-21.1-.92-42.2-1.47-63.29l-1.68-63.29-1.55-63.29c-.45-21.1-.85-42.2-1.13-63.29-.16-10.55-.28-21.1-.38-31.65l-.26-31.65-.37-63.29,9.01,9.01c-45.1.24-90.21.17-135.31.04l-135.31-.83-67.66-.49-67.65-.61-67.66-.97-67.65-1.17,4.98-4.98-1.14,67.74c-.28,22.58-.66,45.16-.84,67.74-.43,45.16-.55,90.32-.33,135.48.11,22.58.33,45.16.64,67.74l1.16,67.74,1.36,67.74.34,16.94.14,8.47.07,4.23.03,2.12c0,.16,0,.4.01.48l.03.31.04.62c.25,1.65.93,3.36,2.06,5.09,1.12,1.72,2.67,3.42,4.45,5.01,3.6,3.18,7.99,5.98,12.66,8.42,9.34,4.95,19.69,8.68,30.16,11.96,10.51,3.26,21.28,5.91,32.13,8.29,10.86,2.35,21.83,4.35,32.84,6.15,11.02,1.74,22.1,3.29,33.21,4.63,22.22,2.63,44.56,4.6,66.96,5.91,22.4,1.37,44.86,2.1,67.33,2.31,22.48.2,44.97-.2,67.44-1.4,22.46-1.21,44.91-3.15,67.2-6.32,11.14-1.6,22.25-3.46,33.26-5.78,11.02-2.29,21.94-5.03,32.67-8.39,10.72-3.37,21.27-7.41,31.06-12.84,4.85-2.76,9.54-5.9,13.44-9.82,1.94-1.96,3.68-4.12,4.95-6.51.6-1.21,1.16-2.45,1.48-3.75.2-.64.31-1.3.4-1.96.02-.18.06-.3.08-.53.02-.23.04-.47.07-.71.06-.47.16-.94.26-1.37Z"/>
    <ellipse class="cls-5" cx="500" cy="261.2" rx="278.27" ry="64.46"/>
    <path class="cls-4" d="M775.15,445.66c0,35.61-122.71,64.46-274.06,64.46s-274.06-28.87-274.06-64.46v-48.74c0,35.61,122.71,64.46,274.06,64.46s274.06-28.87,274.06-64.46v48.74Z"/>
    <path class="cls-3" d="M771.66,630.11c0,35.61-122.66,64.46-273.96,64.46s-273.96-28.87-273.96-64.46v-48.74c0,35.61,122.66,64.46,273.96,64.46s273.96-28.87,273.96-64.46v48.74Z"/>
  </g>
  <rect class="cls-7" x="327.56" y="413.98" width="347.11" height="143.89" rx="71.94" ry="71.94"/>
  <rect class="cls-2" x="327.52" y="601.8" width="347.11" height="143.89" rx="71.94" ry="71.94"/>
  <circle class="cls-6" cx="400.13" cy="485.93" r="52.87"/>
  <circle class="cls-6" cx="602.37" cy="673.74" r="52.87"/>
</svg>