<?xml version="1.0" encoding="UTF-8"?>
<svg id="Livello_1" data-name="Livello 1" xmlns="http://www.w3.org/2000/svg" xmlns:xlink="http://www.w3.org/1999/xlink" viewBox="0 0 1000 1000">
  <defs>
    <style>
      .cls-1 {
        fill: url(#Sfumatura_senza_nome_11);
      }

      .cls-2 {
        fill: #00b4d8;
      }

      .cls-3 {
        fill: url(#Sfumatura_senza_nome_11-2);
        filter: url(#drop-shadow-99);
      }

      .cls-4, .cls-5 {
        fill: #fff;
      }

      .cls-5 {
        filter: url(#drop-shadow-100);
      }

      .cls-6 {
        filter: url(#drop-shadow-101);
      }

      .cls-7 {
        fill: url(#Sfumatura_senza_nome_113);
      }
    </style>
    <linearGradient id="Sfumatura_senza_nome_11" data-name="Sfumatura senza nome 11" x1="414.2" y1="269.51" x2="587.74" y2="269.51" gradientUnits="userSpaceOnUse">
      <stop offset="0" stop-color="#90e0ef"/>
      <stop offset="1" stop-color="#00b4d8"/>
    </linearGradient>
    <linearGradient id="Sfumatura_senza_nome_11-2" data-name="Sfumatura senza nome 11" x1="314.29" y1="538.88" x2="720.04" y2="538.88" xlink:href="#Sfumatura_senza_nome_11"/>
    <filter id="drop-shadow-99" x="262.76" y="234.18" width="490" height="623" filterUnits="userSpaceOnUse">
      <feOffset dx="6.41" dy="6.41"/>
      <feGaussianBlur result="blur" stdDeviation="13.74"/>
      <feFlood flood-color="#000" flood-opacity=".25"/>
      <feComposite in2="blur" operator="in"/>
      <feComposite in="SourceGraphic"/>
    </filter>
    <filter id="drop-shadow-100" x="404.76" y="172.18" width="207" height="208" filterUnits="userSpaceOnUse">
      <feOffset dx="6.41" dy="6.41"/>
      <feGaussianBlur result="blur-2" stdDeviation="13.74"/>
      <feFlood flood-color="#000" flood-opacity=".25"/>
      <feComposite in2="blur-2" operator="in"/>
      <feComposite in="SourceGraphic"/>
    </filter>
    <linearGradient id="Sfumatura_senza_nome_113" data-name="Sfumatura senza nome 113" x1="396.93" y1="519.43" x2="605.49" y2="519.43" gradientUnits="userSpaceOnUse">
      <stop offset="0" stop-color="#0077b6"/>
      <stop offset="1" stop-color="#03045e"/>
    </linearGradient>
    <filter id="drop-shadow-101" x="411.41" y="426.04" width="247" height="262" filterUnits="userSpaceOnUse">
      <feOffset dx="33.19" dy="33.19"/>
      <feGaussianBlur result="blur-3" stdDeviation="22.12"/>
      <feFlood flood-color="#000" flood-opacity=".25"/>
      <feComposite in2="blur-3" operator="in"/>
      <feComposite in="SourceGraphic"/>
    </filter>
  </defs>
  <g>
    <path class="cls-1" d="M582.86,191.76h-163.78c-2.69,0-4.88,2.18-4.88,4.87v145.75c0,2.69,2.19,4.87,4.88,4.87h163.78c2.69,0,4.87-2.18,4.87-4.87v-145.75c0-2.69-2.18-4.87-4.87-4.87Z"/>
    <path class="cls-2" d="M638.09,626.21c.07,6.83-4.67,13.24-11.2,15.23-3.85,1.19-7.95.63-11.89.81-30.34.33-64.12,1.09-94.64,1.8-47.39,1.05-94.83,1.43-142.22.44-8.54-.8-15.84-8.12-16.34-16.71.84-55.15,1.74-112.71,1.02-167.8-.17-10.22-.47-36.82-.64-47.32-.25-9.65,8.19-18.02,17.83-17.93,76.61-1.14,158.95-1.59,235.61-1.48,0,0,3.94.02,3.94.02h1.97s.49.01.49.01c10.77-.04,19.86,9.18,19.41,20-.07,17.06-.32,38.12-.63,55.21-1.02,51.78-2.74,105.9-2.72,157.73h0ZM637.35,626.21c0-51.85-1.68-105.94-2.72-157.73-.37-17.08-.51-38.14-.63-55.21.35-6.46-5.14-12.28-11.6-12.3-.36-.05-2.39,0-2.84,0,0,0-3.94.02-3.94.02-76.33.13-158.35-.35-234.63-1.46-7.68-.67-14.7,5.3-14.8,13.13,0,0-.43,31.55-.43,31.55-.07,7.89-.33,23.67-.33,31.55-.44,49.52.2,102.04,1.28,151.6.58,6.35,6.39,11.61,12.76,11.54,3.83.01,10.77-.18,14.7-.19,62.8-.9,126.46.74,189.28,2.11,10.52.23,21.03.29,31.55.44,3.9-.07,7.86.48,11.63-.64,6.2-1.87,10.75-7.9,10.72-14.4h0Z"/>
    <path class="cls-3" d="M696.03,269.52h-94.55v72.87c0,10.26-8.35,18.62-18.62,18.62h-163.78c-10.27,0-18.63-8.36-18.63-18.62v-72.87h-94.56c-4.31,0-7.81,3.5-7.81,7.81v523.11c0,4.31,3.5,7.81,7.81,7.81h132.45v-117.72c-.01-4.32-3.51-7.81-7.82-7.81h-3.77c-4.32,0-7.81-3.5-7.81-7.81h0c0-4.32,3.5-7.81,7.81-7.81h148.92c4.32,0,7.81,3.5,7.81,7.81s-3.5,7.81-7.81,7.81h-3.77c-4.32,0-7.81,3.5-7.81,7.81v117.72h131.93c4.32,0,7.81-3.5,7.81-7.81V277.32c0-4.31-3.49-7.81-7.81-7.81ZM649.22,636.04c0,9.35-7.6,16.97-16.97,16.97h-262.08c-9.35,0-16.97-7.61-16.97-16.97v-233.22c0-9.35,7.61-16.96,16.97-16.96h262.08c9.36,0,16.97,7.61,16.97,16.96v233.22Z"/>
    <path class="cls-2" d="M703.83,511.37c42.48-.8,85.62-1.27,128.13-1.69,5.01-.09,9.62,4.06,9.93,9.11,0,.34.07,1.19.05,1.53.91,63.19.68,145.92,1.06,209.65.23,22.59-.08,47.21,0,69.88.27,6.64-5.26,12.07-11.93,11.59-.75,0-3.29-.02-4.11-.02-48.67-.03-126.09-1.11-175.4-1.42-29.63-.3-59.26-.48-88.89-.59,0,0,0-1.18,0-1.18,0,0,.07-39.96.07-39.96-.16-22.07.07-55.69-.14-77.42-.36-4.93,3.67-9.53,8.65-9.66,1.67-.07,3.37.03,4.9-.08,6.25-.71,7.87-9.32,2.16-12.13-1.24-.69-2.82-.7-4.21-.66-36.97.27-103.55.77-139.86,1.1-1.29.01-6.15.05-7.49.06-2.84-.13-5.4,2.36-5.3,5.18,0,0,.07,2.71.07,2.71,0,0-2.81.02-2.81.02,0,0,2.73-2.73,2.73-2.73-.02,2.73,2.39,5.07,5.1,4.99.13,0,1.26,0,1.43,0,0,0,2.29-.02,2.29-.02,3.11-.03,6.23,1.39,8.23,3.78,1.68,1.97,2.57,4.55,2.53,7.14-.01.8.03,2.62.02,3.43.09,28.05.49,89.09.52,117.69,0,0-3.45.01-3.45.01,0,0-87.95.28-87.95.28-60.46.22-120.93.28-181.39.1-2.58.08-5.28-.6-7.39-2.13-3.08-2.12-4.95-5.85-4.91-9.58.21-76.45.67-168.85,1.39-245.28,0,0,.2-21.99.2-21.99,0,0,.1-10.99.1-10.99.02-2.02-.11-4.25.75-6.18.87-2.15,2.51-3.95,4.55-5.02,1.88-1.07,4.17-1.18,6.28-1.1,9.44.04,28.73.31,38.48.38,29.32.4,58.63.69,87.95,1.19,0,0,0,.73,0,.73-42.48.66-85.62,1.2-128.13,1.59-2.31.02-4.53,1.55-5.33,3.72-.6,1.49-.31,3.06-.36,4.67,0,0,.1,10.99.1,10.99.66,75.06,1.33,166.57,1.52,241.85,0,0,.06,21.99.06,21.99,0,0,0,2.75,0,2.75,0,0,0,.69,0,.69l.02.4c.02.23.05.47.12.69.34,1.36,1.48,2.51,2.85,2.84.22.07.46.09.69.12,0,0,.37.02.37.02,0,0,.69,0,.69,0,31.15-.12,62.3-.11,93.44-.09,50.63.2,124.46.17,175.89.47,0,0-3.44,3.44-3.44,3.44.1-28.37.3-88.89.5-116.55-.01-.23.02-1.22,0-1.42.09-2.65-2.26-4.99-4.92-4.96,0,0-2.29-.02-2.29-.02h-1.14c-5.78.23-11-4.83-10.85-10.63,0,0,0-2.75,0-2.75,0,0,2.72.02,2.73.02,0,0-2.73,2.73-2.73,2.73-.07-5.72,5.06-10.69,10.77-10.43,0,0,2.5.02,2.5.02,38.48.33,105.77.87,144.86,1.14,1.84-.04,3.86.12,5.51,1.04,5.55,2.66,6.72,10.85,2.06,14.9-2.77,2.82-6.77,2.46-10.31,2.45-3.67.06-6.54,3.47-6.27,7.07.03,1.65-.05,5.81-.03,7.49-.08,18.14-.08,51.51-.1,69.93,0,0,.08,39.96.08,39.96l-1.19-1.19c67.61-.16,151.36-1.27,219.25-1.76,0,0,43.85-.24,43.85-.24,0,0,2.74-.01,2.74-.01,0,0,1.37,0,1.37,0,2.88.31,5.35-1.68,5.42-4.53.01-.14,0-.43,0-.64,0,0,0-1.37,0-1.37-.12-84.47.29-181.4.95-265.84,0,0,.1-10.96.1-10.96,0,0,.01-1.37.01-1.37,0,0,0-.69,0-.69,0,0-.02-.52-.02-.52-.15-2.88-2.69-5.31-5.6-5.31-10.43-.13-29.7-.27-40.42-.42-29.23-.35-58.47-.72-87.7-1.28v-.73h0Z"/>
    <path class="cls-5" d="M562.8,290.45c0,3.41-2.76,6.17-6.17,6.17h-22.15c-3.41,0-6.17,2.76-6.17,6.16v22.15c0,3.41-2.76,6.17-6.17,6.17h-41.87c-3.41,0-6.17-2.76-6.17-6.17v-22.15c0-3.41-2.76-6.16-6.17-6.16h-22.15c-3.41,0-6.17-2.76-6.17-6.17v-41.87c0-3.41,2.76-6.17,6.17-6.17h22.15c3.41,0,6.17-2.76,6.17-6.16v-22.15c0-3.41,2.76-6.17,6.17-6.17h41.87c3.41,0,6.17,2.76,6.17,6.17v22.15c0,3.41,2.76,6.16,6.17,6.16h22.15c3.41,0,6.17,2.76,6.17,6.17v41.87Z"/>
  </g>
  <path class="cls-7" d="M512.06,417.14h-21.69c-51.6,0-93.44,45.8-93.44,102.3h0c0,56.5,41.83,102.3,93.44,102.3h21.69c51.6,0,93.43-45.79,93.43-102.28v-.02c0-56.49-41.83-102.28-93.43-102.28Z"/>
  <g class="cls-6">
    <path class="cls-4" d="M444.78,534.1l11.94-7.99c9.89,14.86,17.94,31.39,23.64,47.44h.73c12.94-43.31,37.87-86.56,65.26-113.8l11.51,10.44c-27.48,25.73-53.26,65.65-67.12,115.59l-18.22,2.09c-7.37-20.12-15.96-36.86-27.74-53.77Z"/>
  </g>
</svg>