<?xml version="1.0" encoding="UTF-8"?>
<svg id="Livello_1" data-name="Livello 1" xmlns="http://www.w3.org/2000/svg" xmlns:xlink="http://www.w3.org/1999/xlink" viewBox="0 0 1000 1000">
  <defs>
    <style>
      .cls-1 {
        fill: url(#Sfumatura_senza_nome_11);
      }

      .cls-2 {
        fill: #fff;
      }

      .cls-3 {
        fill: none;
        stroke: #fff;
        stroke-linecap: round;
        stroke-miterlimit: 10;
        stroke-width: 7px;
      }

      .cls-4 {
        fill: url(#Sfumatura_senza_nome_113-2);
      }

      .cls-5 {
        fill: url(#Sfumatura_senza_nome_113);
      }
    </style>
    <linearGradient id="Sfumatura_senza_nome_11" data-name="Sfumatura senza nome 11" x1="226.68" y1="527.55" x2="773.32" y2="527.55" gradientUnits="userSpaceOnUse">
      <stop offset="0" stop-color="#90e0ef"/>
      <stop offset="1" stop-color="#00b4d8"/>
    </linearGradient>
    <linearGradient id="Sfumatura_senza_nome_113" data-name="Sfumatura senza nome 113" x1="399.1" y1="644.41" x2="539.34" y2="644.41" gradientTransform="translate(1172.42 1466.9) rotate(-180)" gradientUnits="userSpaceOnUse">
      <stop offset="0" stop-color="#0077b6"/>
      <stop offset="1" stop-color="#03045e"/>
    </linearGradient>
    <linearGradient id="Sfumatura_senza_nome_113-2" data-name="Sfumatura senza nome 113" x1="594.8" y1="-5803.61" x2="716.66" y2="-5803.61" gradientTransform="translate(0 -5551.18) scale(1 -1)" xlink:href="#Sfumatura_senza_nome_113"/>
  </defs>
  <path class="cls-1" d="M633.08,891.51H241.26c-.98,0-6.13-.11-10.3-4.28-2.64-2.64-4.28-6.29-4.28-10.3V178.17c0-8.06,6.55-14.58,14.58-14.58h517.48c8.06,0,14.58,6.52,14.58,14.58v575.3"/>
  <rect class="cls-2" x="267.02" y="275.36" width="275.96" height="25.12" rx="12.56" ry="12.56"/>
  <rect class="cls-2" x="268.71" y="209.63" width="275.96" height="25.12" rx="12.56" ry="12.56"/>
  <rect class="cls-2" x="267.02" y="341.08" width="465.96" height="25.12" rx="12.56" ry="12.56"/>
  <rect class="cls-2" x="267.02" y="472.52" width="465.96" height="25.12" rx="12.56" ry="12.56"/>
  <rect class="cls-2" x="267.02" y="406.8" width="465.96" height="25.12" rx="12.56" ry="12.56"/>
  <rect class="cls-2" x="267.02" y="538.24" width="465.96" height="25.12" rx="12.56" ry="12.56"/>
  <rect class="cls-2" x="267.02" y="669.69" width="465.96" height="25.12" rx="12.56" ry="12.56"/>
  <rect class="cls-2" x="267.02" y="603.96" width="465.96" height="25.12" rx="12.56" ry="12.56"/>
  <rect class="cls-2" x="267.02" y="735.41" width="465.96" height="25.12" rx="12.56" ry="12.56"/>
  <rect class="cls-2" x="267.02" y="801.13" width="465.96" height="25.12" rx="12.56" ry="12.56"/>
  <path class="cls-5" d="M633.08,891.51v-123.43c0-.97.1-6.14,4.28-10.31,2.64-2.64,6.29-4.27,10.3-4.27v-.03h125.66"/>
  <circle class="cls-4" cx="655.73" cy="252.44" r="60.93"/>
  <path class="cls-3" d="M660.73,206.58c-1.94,24.57-2.31,29.2-4.25,53.77"/>
  <path class="cls-3" d="M656.48,260.35c-29.06,13.23-1.19.54-30.25,13.77"/>
</svg>