<?xml version="1.0" encoding="UTF-8"?>
<svg id="Livello_1" data-name="Livello 1" xmlns="http://www.w3.org/2000/svg" xmlns:xlink="http://www.w3.org/1999/xlink" viewBox="0 0 1000 1000">
  <defs>
    <style>
      .cls-1 {
        fill: none;
        filter: url(#drop-shadow-1);
        stroke: #00b4d8;
        stroke-miterlimit: 10;
        stroke-width: 8.92px;
      }

      .cls-2 {
        fill: #00b4d8;
      }

      .cls-3 {
        fill: url(#Sfumatura_senza_nome_113);
      }
    </style>
    <filter id="drop-shadow-1" x="52.05" y="44.43" width="929" height="1020" filterUnits="userSpaceOnUse">
      <feOffset dx="17.88" dy="17.88"/>
      <feGaussianBlur result="blur" stdDeviation="38.31"/>
      <feFlood flood-color="#000" flood-opacity=".25"/>
      <feComposite in2="blur" operator="in"/>
      <feComposite in="SourceGraphic"/>
    </filter>
    <linearGradient id="Sfumatura_senza_nome_113" data-name="Sfumatura senza nome 113" x1="307.76" y1="471.25" x2="692.25" y2="471.25" gradientUnits="userSpaceOnUse">
      <stop offset="0" stop-color="#0077b6"/>
      <stop offset="1" stop-color="#03045e"/>
    </linearGradient>
  </defs>
  <path class="cls-1" d="M484.62,922.99c7.9,9.84,22.85,9.84,30.75,0,75.83-94.47,203.21-165.09,270.3-322.87,59.69-140.37,46.11-324.85,60.44-431.04,1.6-11.84-7.57-22.39-19.52-22.39H173.41c-11.95,0-21.11,10.54-19.52,22.39,14.32,106.19.75,290.67,60.43,431.04,67.09,157.79,194.46,228.41,270.3,322.87Z"/>
  <g>
    <path class="cls-2" d="M699.24,452.07c-2.38-27.06-32.53-24.74-52.73-27.22,0,0-.17-.02-.17-.02,0,0-.06-.16-.06-.16l-9.42-22.63-.06-.16s.08-.15.08-.15c3.38-6.37,8.2-11.72,12.6-17.28,6.43-7.96,13.23-17.63,10.86-28.37-.42-1.89-1.04-3.76-1.88-5.5-.31-.51-.75-.94-1.14-1.43-10.13-11.14-20.91-21.81-31.8-32.18-.94-.89-1.89-1.75-2.9-2.54-1.73-1.16-3.77-2.02-5.75-2.65-10.38-3.15-20.32,3.12-28.19,9.36-5.55,4.35-10.7,9.27-16.6,13.51l-.52.38-.62-.22s-24.65-8.82-24.65-8.82c0,0-.75-.27-.75-.27,0,0-.11-.79-.11-.79-2.54-15.48-.45-39.13-15.11-48.5-6.01-3.65-13.34-3.46-20.22-3.75-7.13-.2-14.29-.21-21.42.01-6.86.39-14.23.03-20.22,3.8-14.52,9.64-11.59,33.69-15.54,48.9,0,0-.12.51-.12.51,0,0-.49.19-.49.19,0,0-23.03,8.83-23.03,8.83l-.44.17s-.38-.26-.38-.26c-8.92-6.09-16.18-13.93-25.34-19.52-20.86-12.58-30.08,2.12-44.31,15.51-5.03,5.02-10.07,10.06-14.83,15.32-2.43,2.51-4.01,5.72-4.89,9.08-2.82,10.64,3.82,20.65,10.19,28.63,4.4,5.57,9.31,10.76,13.3,16.76l.14.21-.09.24s-8.9,23-8.9,23l-.1.26c-10.16,2.42-20.64,2.3-30.65,4.53-10.31,2.09-18.69,7.88-22.31,18.05.07-1.57.29,51.2.18,49.36,8.12,22.16,33.78,17.65,52.65,22,0,0,.58.13.58.13,0,0,.22.56.22.56,0,0,9,22.96,9,22.96,0,0,.23.58.23.58l-.34.52c-9.38,14.83-31.42,30.51-21.29,49.84.72.91,2.24,2.55,3.03,3.43,10.15,10.78,20.54,21.55,31.42,31.58,0,0,.24.21.24.21l.21.16s.41.33.41.33c1.96,1.14,4.1,2.19,6.31,2.71,17.35,4.1,31.23-14.94,44.59-23.44,0,0,.65-.43.65-.43,0,0,.75.27.75.27l22.43,8.25s.75.28.75.28c1.67,5.35,2.45,10.9,3.09,16.31,1.72,15.3,2.92,31.18,19.54,37.24,0,0-.58-.11-.58-.11l49.91.03-.57.1c4.57-1.74,8.71-4.49,11.63-8.32,9.12-12.62,6.51-28.92,10.22-43.75,0,0,.19-.8.19-.8,0,0,.77-.3.77-.3l23.01-8.88s.74-.28.74-.28c0,0,.64.43.64.43,6.05,4.11,11.26,9,16.79,13.38,11.09,9.08,23.89,15.96,36.67,5.34,5.26-4.64,10.37-9.66,15.44-14.61,5.05-4.99,10.11-10.01,14.88-15.23,1.2-1.31,2.18-2.5,2.97-4.11,9.84-19.57-11.89-35.07-21.31-49.98,0,0-.17-.26-.17-.26l.11-.29s8.42-22.37,8.42-22.37l.08-.22c4.37-1.37,8.9-1.96,13.39-2.49,17.29-1.78,38.98-3.05,40.35-25.11,1.17-13.24,1.21-26.62.38-39.88h0ZM699.55,452.04c.89,13.3.92,26.68-.2,39.96-1.4,22.48-23.08,23.82-40.75,25.85-4.39.57-8.79,1.19-12.97,2.53,0,0,.3-.29.3-.29,0,0-8.16,22.46-8.16,22.46l-.06-.55c6.92,10.26,16.9,18.7,22.13,30.18,4.08,8.33,3.15,19.05-3.31,25.92-9.69,10.61-19.59,20.69-30.19,30.42,0,0-1.1.9-1.1.9,0,0-1.14.79-1.14.79-20.49,14.28-38.82-9.29-54.51-19.83,0,0,1.37.15,1.37.15,0,0-22.97,8.98-22.97,8.98,0,0,.95-1.09.95-1.09-1.14,4.86-1.68,9.91-2.21,14.99-1.15,10.26-1.93,21.35-8.52,29.98-3.29,4.32-7.99,7.45-13.01,9.36,0,0-.27.1-.27.1,0,0-.3,0-.3,0,0,0-49.91.03-49.91.03,0,0-.3,0-.3,0-11.29-4-17.56-13.06-19.71-24.46-2.15-10.17-1.99-20.68-4.88-30.55,0,0,.98,1.04.98,1.04l-22.4-8.32s1.39-.16,1.39-.16c-13.12,8.5-24.41,23.91-41.38,24.41-4.88,0-9.84-1.63-13.73-4.55-5.93-5.33-11.45-11.04-17.03-16.67-5.9-6.07-11.92-12.12-17.48-18.55-.49-.57-1.03-1.25-1.33-1.96-.63-1.52-1.22-3.05-1.57-4.66-4.27-19.31,14.6-32.46,23.86-46.78,0,0-.11,1.09-.11,1.09,0,0-8.86-23.01-8.86-23.01,0,0,.79.69.79.69-14.54-3.66-31.86-1.26-44.68-10.84-4.27-3.29-7.3-7.95-9.14-12.9-.12-.28.28-49.91.19-50.2,3.87-10.64,12.55-16.66,23.37-18.81,10.11-2.21,20.47-2.08,30.39-4.38,0,0-.37.33-.38.33,0,0,8.96-22.97,8.96-22.97,0,0,.05.45.05.45-3.89-5.89-8.79-11.11-13.2-16.72-9.43-11.48-16.69-25.93-5.36-39,4.78-5.32,9.79-10.37,14.82-15.42,5.4-5.31,10.68-10.77,16.5-15.69,9.41-7.15,19.65-6.27,29.38-.29,9.2,5.49,16.77,13.43,25.55,19.31,0,0-.82-.09-.82-.09l22.95-9.03s-.61.7-.61.7c3.91-16.26.61-39.95,16.16-50.52,6.33-4.14,14.24-3.89,21.47-4.29,7.2-.25,14.39-.26,21.59-.07,7.28.27,15.05.12,21.55,4.08,9.92,6.03,12.83,18.33,14.17,29.06.92,7.18,1.19,14.38,2.15,21.38l-.86-1.05,24.6,8.95s-1.15.15-1.15.15c12.78-8.85,24.32-24.05,41.34-23.8,4.19.27,8.3,1.64,11.78,3.99,0,0,.6.47.6.47,0,0,.51.46.51.46,11.06,10.4,21.5,21.34,31.77,32.5,1.07,1.21,2.18,2.39,3.08,3.76,2.44,5.16,3.08,11.19,1.5,16.7-4.16,13.99-16.92,22.93-23.69,35.4,0,0,.01-.31.01-.31,0,0,9.29,22.69,9.29,22.69,0,0-.23-.18-.23-.18,5.44.71,10.94,1.03,16.42,1.58,17.18,1.55,34.84,5.82,36.54,26.18h0Z"/>
    <path class="cls-2" d="M500,566.15c-52.16.41-96.81-42.2-96.04-94.9.08-44.82,33.61-84.84,77.42-93.58,58.94-12.63,115.31,33.34,115.01,93.59.28,52.69-44.1,95.35-96.4,94.9h0ZM500,565.84c51.28.3,93.56-43.71,93.1-94.59.12-66.22-67.8-112.04-129.15-87.04-48.1,19.47-69.88,75.28-50.23,122.78,13.76,34.54,48.82,59.27,86.29,58.85h0Z"/>
  </g>
  <path class="cls-3" d="M476.23,663.54c-10.78-4.68-12.34-13.82-14.11-29.19-.72-6.29-1.47-12.8-3.35-19.12l-1.1-3.71-29.7-10.98-3.26,2.13c-3.95,2.58-7.92,5.89-11.76,9.1-8.18,6.83-16.63,13.9-24.55,13.9-2.56,0-5.06-.74-7.65-2.26-4.07-3.26-29.94-29.58-33.75-34.32-4.1-9.81,1.91-18.05,12.2-30.3,3.32-3.95,6.75-8.03,9.45-12.24l2.13-3.32-11.83-30.46-3.97-.93c-5.49-1.29-11.15-1.89-16.61-2.47-16.19-1.71-25.81-3.26-30.62-14.3v-46.89c4.81-11.04,14.43-12.59,30.62-14.3,5.47-.58,11.12-1.18,16.61-2.47l3.97-.93,11.84-30.48-2.17-3.33c-2.58-3.95-5.89-7.92-9.1-11.76-11.19-13.39-17.56-22.26-11.57-32.33,3.06-4.21,28.11-29.01,31.49-31.52,3.12-2.31,6.12-3.43,9.16-3.43,7.69,0,16.16,7.05,24.34,13.86,3.81,3.17,7.75,6.46,11.7,9.07l3.34,2.22,30.47-11.84.96-3.9c1.16-4.72,1.74-9.96,2.34-15.51,1.89-17.32,3.93-28.86,14.58-31.33,2.6-.6,10.89-1.21,23.55-1.21,8.32,0,16.34.28,19.95.69,14.09,1.6,16.2,14.25,18.01,34.9.35,3.98.68,7.74,1.2,11.32l.67,4.59,32.77,11.82,3.29-2.31c3.36-2.36,6.64-5.13,10.1-8.06,8.33-7.04,16.94-14.31,25.06-14.31,2.56,0,5.07.74,7.64,2.25,4.07,3.26,29.94,29.59,33.75,34.32,4.06,9.68-1.54,17.25-10.92,28.67-4.01,4.88-8.16,9.93-11.08,15.46l-1.7,3.21,12.45,30.16,4.44.58c3.42.44,7.09.75,10.64,1.05,8.99.75,18.29,1.52,25.1,4.53,6.58,2.91,9.7,7.38,10.41,14.97.99,10.54.71,38.35-1.14,43.65-3.29,9.38-13.11,11.13-28.89,12.89-6.31.7-12.83,1.43-18.52,3.25l-3.6,1.15-10.95,29.61,2.12,3.26c2.58,3.95,5.89,7.92,9.1,11.76,11.19,13.39,17.56,22.26,11.57,32.33-3.06,4.21-28.11,29.01-31.49,31.52-3.12,2.31-6.12,3.43-9.16,3.43h0c-7.69,0-16.16-7.05-24.34-13.86-3.81-3.17-7.75-6.46-11.7-9.07l-3.34-2.22-30.52,11.86-.93,3.97c-1.29,5.49-1.89,11.15-2.47,16.61-1.71,16.19-3.26,25.81-14.3,30.62h-46.9ZM500,368.76c-56.51,0-102.49,45.98-102.49,102.49s45.98,102.49,102.49,102.49,102.49-45.98,102.49-102.49-45.98-102.49-102.49-102.49Z"/>
</svg>