<?xml version="1.0" encoding="UTF-8"?>
<svg id="Livello_1" data-name="Livello 1" xmlns="http://www.w3.org/2000/svg" xmlns:xlink="http://www.w3.org/1999/xlink" viewBox="0 0 1000 1000">
  <defs>
    <style>
      .cls-1 {
        fill: url(#Sfumatura_senza_nome_14);
      }

      .cls-2 {
        fill: url(#Sfumatura_senza_nome_11);
      }

      .cls-3 {
        filter: url(#drop-shadow-91);
      }

      .cls-4 {
        filter: url(#drop-shadow-94);
        stroke: url(#Sfumatura_senza_nome_9-3);
        stroke-width: 8.4px;
      }

      .cls-4, .cls-5, .cls-6, .cls-7, .cls-8, .cls-9 {
        fill: none;
        stroke-linecap: round;
        stroke-miterlimit: 10;
      }

      .cls-5 {
        filter: url(#drop-shadow-97);
        stroke: url(#Sfumatura_senza_nome_9-6);
      }

      .cls-5, .cls-6, .cls-7, .cls-8, .cls-9 {
        stroke-width: 5.88px;
      }

      .cls-6 {
        filter: url(#drop-shadow-93);
        stroke: url(#Sfumatura_senza_nome_9-2);
      }

      .cls-7 {
        filter: url(#drop-shadow-96);
        stroke: url(#Sfumatura_senza_nome_9-5);
      }

      .cls-8 {
        filter: url(#drop-shadow-95);
        stroke: url(#Sfumatura_senza_nome_9-4);
      }

      .cls-9 {
        filter: url(#drop-shadow-92);
        stroke: url(#Sfumatura_senza_nome_9);
      }

      .cls-10 {
        fill: url(#Sfumatura_senza_nome_113);
      }
    </style>
    <linearGradient id="Sfumatura_senza_nome_113" data-name="Sfumatura senza nome 113" x1="305.92" y1="342.52" x2="694.08" y2="342.52" gradientUnits="userSpaceOnUse">
      <stop offset="0" stop-color="#0077b6"/>
      <stop offset="1" stop-color="#03045e"/>
    </linearGradient>
    <linearGradient id="Sfumatura_senza_nome_11" data-name="Sfumatura senza nome 11" x1="25.08" y1="366.83" x2="974.92" y2="366.83" gradientUnits="userSpaceOnUse">
      <stop offset="0" stop-color="#90e0ef"/>
      <stop offset="1" stop-color="#00b4d8"/>
    </linearGradient>
    <filter id="drop-shadow-91" x="545.06" y="568.48" width="355" height="434" filterUnits="userSpaceOnUse">
      <feOffset dx="3.53" dy="3.53"/>
      <feGaussianBlur result="blur" stdDeviation="5.64"/>
      <feFlood flood-color="#000" flood-opacity=".2"/>
      <feComposite in2="blur" operator="in"/>
      <feComposite in="SourceGraphic"/>
    </filter>
    <linearGradient id="Sfumatura_senza_nome_14" data-name="Sfumatura senza nome 14" x1="559.43" y1="781.58" x2="879.75" y2="781.58" gradientUnits="userSpaceOnUse">
      <stop offset="0" stop-color="#90e0ef"/>
      <stop offset="1" stop-color="#00b4d8"/>
    </linearGradient>
    <linearGradient id="Sfumatura_senza_nome_9" data-name="Sfumatura senza nome 9" x1="532.69" y1="617.48" x2="617.46" y2="617.48" gradientUnits="userSpaceOnUse">
      <stop offset="0" stop-color="#0077b6"/>
      <stop offset="1" stop-color="#03045e"/>
    </linearGradient>
    <filter id="drop-shadow-92" x="515.83" y="598.26" width="127" height="48" filterUnits="userSpaceOnUse">
      <feOffset dx="4.2" dy="4.2"/>
      <feGaussianBlur result="blur-2" stdDeviation="6.72"/>
      <feFlood flood-color="#000" flood-opacity=".2"/>
      <feComposite in2="blur-2" operator="in"/>
      <feComposite in="SourceGraphic"/>
    </filter>
    <linearGradient id="Sfumatura_senza_nome_9-2" data-name="Sfumatura senza nome 9" x1="-16989.01" y1="-2992.51" x2="-16904.23" y2="-2992.51" gradientTransform="translate(-16173.76 -2375.03) rotate(-180)" xlink:href="#Sfumatura_senza_nome_9"/>
    <filter id="drop-shadow-93" x="713.83" y="598.26" width="127" height="48" filterUnits="userSpaceOnUse">
      <feOffset dx="4.2" dy="4.2"/>
      <feGaussianBlur result="blur-3" stdDeviation="6.72"/>
      <feFlood flood-color="#000" flood-opacity=".2"/>
      <feComposite in2="blur-3" operator="in"/>
      <feComposite in="SourceGraphic"/>
    </filter>
    <linearGradient id="Sfumatura_senza_nome_9-3" data-name="Sfumatura senza nome 9" x1="-6275.65" y1="-9930.51" x2="-6275.65" y2="-9930.51" gradientTransform="translate(-9274.4 6899.37) rotate(90)" xlink:href="#Sfumatura_senza_nome_9"/>
    <filter id="drop-shadow-94" x="656.12" y="623.72" width="4.2" height="4.2" filterUnits="userSpaceOnUse">
      <feOffset dx="4.2" dy="4.2"/>
      <feGaussianBlur result="blur-4" stdDeviation="6.72"/>
      <feFlood flood-color="#000" flood-opacity=".2"/>
      <feComposite in2="blur-4" operator="in"/>
      <feComposite in="SourceGraphic"/>
    </filter>
    <linearGradient id="Sfumatura_senza_nome_9-4" data-name="Sfumatura senza nome 9" x1="-6420.26" y1="-9950.29" x2="-6335.48" y2="-9950.29" gradientTransform="translate(-9274.4 6899.37) rotate(90)" xlink:href="#Sfumatura_senza_nome_9"/>
    <filter id="drop-shadow-95" x="656.83" y="462.26" width="48" height="127" filterUnits="userSpaceOnUse">
      <feOffset dx="4.2" dy="4.2"/>
      <feGaussianBlur result="blur-5" stdDeviation="6.72"/>
      <feFlood flood-color="#000" flood-opacity=".2"/>
      <feComposite in2="blur-5" operator="in"/>
      <feComposite in="SourceGraphic"/>
    </filter>
    <linearGradient id="Sfumatura_senza_nome_9-5" data-name="Sfumatura senza nome 9" x1="-13119.24" y1="-8728.51" x2="-13034.46" y2="-8728.51" gradientTransform="translate(-14664.82 3618.41) rotate(135)" xlink:href="#Sfumatura_senza_nome_9"/>
    <filter id="drop-shadow-96" x="706.83" y="496.26" width="103" height="104" filterUnits="userSpaceOnUse">
      <feOffset dx="4.2" dy="4.2"/>
      <feGaussianBlur result="blur-6" stdDeviation="6.72"/>
      <feFlood flood-color="#000" flood-opacity=".2"/>
      <feComposite in2="blur-6" operator="in"/>
      <feComposite in="SourceGraphic"/>
    </filter>
    <linearGradient id="Sfumatura_senza_nome_9-6" data-name="Sfumatura senza nome 9" x1="-726.8" y1="-6169.93" x2="-642.02" y2="-6169.93" gradientTransform="translate(-3280.96 5390.42) rotate(45)" xlink:href="#Sfumatura_senza_nome_9"/>
    <filter id="drop-shadow-97" x="550.83" y="496.26" width="103" height="104" filterUnits="userSpaceOnUse">
      <feOffset dx="4.2" dy="4.2"/>
      <feGaussianBlur result="blur-7" stdDeviation="6.72"/>
      <feFlood flood-color="#000" flood-opacity=".2"/>
      <feComposite in2="blur-7" operator="in"/>
      <feComposite in="SourceGraphic"/>
    </filter>
  </defs>
  <path class="cls-10" d="M665.87,235.83h-331.74c-15.58,0-28.22,12.63-28.22,28.22v156.95c0,15.58,12.63,28.22,28.22,28.22h331.74c15.58,0,28.22-12.63,28.22-28.22v-156.95c0-15.58-12.63-28.22-28.22-28.22ZM433.81,372.53c3.02,1.62,5.13,3.22,6.34,4.81,1.21,1.59,1.81,3.5,1.81,5.75,0,2.62-.71,4.73-2.14,6.35-1.43,1.62-3.32,2.43-5.68,2.43-.99,0-2.07-.19-3.25-.56-1.18-.37-2.62-1-4.32-1.87l-64.91-33.92c-.33-.19-.85-.44-1.56-.75-5.82-3.05-8.73-6.63-8.73-10.75s3.05-7.85,9.14-11.03l.66-.47,65.4-34.57c2.2-1.12,3.82-1.85,4.86-2.2,1.04-.34,1.95-.51,2.72-.51,2.36,0,4.26.81,5.68,2.43,1.43,1.62,2.14,3.74,2.14,6.35,0,2.24-.62,4.19-1.85,5.84-1.24,1.65-3.34,3.29-6.3,4.91l-53.62,28.87,53.62,28.88ZM535.13,281.23c-.33,1.25-.96,2.99-1.89,5.23l-48.27,117.27c-1.48,3.68-2.86,6.23-4.12,7.66-1.26,1.43-2.75,2.15-4.45,2.15-2.53,0-4.76-.9-6.71-2.71-1.95-1.81-2.92-4.05-2.92-6.73,0-1.81.74-4.61,2.22-8.41l.16-.37,48.19-117.09c1.54-3.8,2.94-6.42,4.2-7.85,1.26-1.43,2.75-2.15,4.45-2.15,2.47,0,4.7.9,6.67,2.71,1.98,1.81,2.97,4.05,2.97,6.73,0,1.12-.16,2.31-.49,3.55ZM639.83,354.77c-.55.37-.99.62-1.32.75l-65.16,33.92c-1.65.87-3.06,1.5-4.24,1.87-1.18.37-2.29.56-3.34.56-2.31,0-4.15-.79-5.52-2.38-1.37-1.59-2.06-3.72-2.06-6.4,0-2.24.59-4.16,1.77-5.75,1.18-1.59,3.28-3.19,6.3-4.81l53.71-28.88-53.71-28.87c-2.91-1.62-4.98-3.25-6.22-4.91-1.24-1.65-1.85-3.6-1.85-5.84,0-2.62.69-4.73,2.06-6.35,1.37-1.62,3.21-2.43,5.52-2.43.88,0,1.88.19,3.01.56,1.12.37,2.73,1.09,4.82,2.15l65.24,34.57.66.47c6.1,3.18,9.14,6.85,9.14,11.03s-2.94,7.76-8.81,10.75Z"/>
  <path class="cls-2" d="M952.08,557.42h-35.74c-12.61,0-22.84-10.22-22.84-22.84V111.11c0-12.61-10.22-22.84-22.84-22.84H129.33c-12.61,0-22.84,10.22-22.84,22.84v423.47c0,12.61-10.22,22.84-22.84,22.84h-35.74c-12.61,0-22.84,10.22-22.84,22.84v42.3c0,12.61,10.22,22.84,22.84,22.84h904.16c12.61,0,22.84-10.22,22.84-22.84v-42.3c0-12.61-10.22-22.84-22.84-22.84ZM855.72,545.71c0,6.63-5.37,12-12,12H156.28c-6.63,0-12-5.37-12-12V139.33c0-6.63,5.37-12,12-12h687.44c6.63,0,12,5.37,12,12v406.38Z"/>
  <g class="cls-3">
    <path class="cls-1" d="M703.22,726.41c.64-1.8,1.21-3.6,1.75-5.32.54-1.72,1.11-3.38,1.72-5.05,0-.02.02-.05.03-.07v-.02c1.71-2.93,3.64-5.75,6-8.25,2.34-2.49,5.11-4.67,8.28-6.15,3.16-1.49,6.7-2.24,10.23-2.11,3.53.11,7.01,1.09,10.13,2.7,6.27,3.22,11.2,8.6,14.49,14.72,3.29,6.16,4.98,13.13,5.05,20.11l-3.62-.63,2.48-7.29s.03-.09.05-.14v-.02c1.53-3.34,3.36-6.59,5.67-9.55,2.31-2.95,5.12-5.59,8.42-7.57,3.29-1.98,7.06-3.26,10.93-3.63,3.86-.37,7.81.11,11.45,1.4,7.3,2.57,13.36,7.94,17.23,14.46,3.93,6.53,5.7,14.16,5.67,21.66l-5.15-1.09,2.44-5.8c.07-.17.16-.33.26-.48l.03-.04c2.22-3.14,5.12-5.84,8.44-7.83,3.31-2,6.99-3.29,10.74-3.94,7.53-1.22,15.21,0,22.07,3.01,6.85,2.99,13.01,8.04,16.83,14.8,1.9,3.37,3.15,7.13,3.54,11.02l.11,1.5c.03.5.09,1.03.05,1.44l-.08,2.63-.16,5.26c-.35,13.86-.2,27.76.03,41.68.17,13.92.55,27.87.51,41.85-.04,13.98-.27,27.96-1.25,41.97-.54,7.07-1.64,14.1-3.42,20.97-.85,3.44-1.94,6.82-3.11,10.17-1.24,3.32-2.56,6.62-4.12,9.8-.74,1.61-1.61,3.16-2.43,4.73-.89,1.53-1.73,3.1-2.71,4.58-1.85,3.03-3.96,5.89-6.16,8.67-4.47,5.51-9.59,10.49-15.3,14.69-1.39,1.1-2.91,2.02-4.37,3.03l-2.27,1.37c-.75.47-1.52.9-2.31,1.31-3.08,1.75-6.35,3.13-9.62,4.46-6.62,2.47-13.52,4.17-20.52,5.04-.06,0-.12,0-.17,0-9.4-.38-18.83-.41-28.26-.2l-28.31.8c-9.45.2-18.93.3-28.42-.29-2.37-.2-4.74-.31-7.1-.6l-3.55-.39-3.54-.5c-1.18-.15-2.36-.36-3.53-.58-1.17-.22-2.35-.42-3.52-.66-2.32-.56-4.67-1-6.96-1.71-4.63-1.21-9.12-2.92-13.54-4.78-2.16-1.05-4.38-1.97-6.46-3.18l-3.16-1.73-3.05-1.91c-8.14-5.13-15.37-11.59-21.81-18.67-6.47-7.07-12.05-14.91-17.27-22.82-5.25-7.91-10.18-16.02-14.95-24.21-4.77-8.19-9.32-16.51-13.73-24.89-4.43-8.38-8.66-16.86-12.75-25.41-4.12-8.54-7.98-17.21-11.62-25.99-1.84-4.38-3.56-8.82-5.26-13.26l-2.44-6.72c-.77-2.4-1.52-4.82-1.9-7.37-.88-5.04-.71-10.46,1.01-15.56,1.72-5.1,5.15-9.65,9.5-12.76,2.17-1.57,4.54-2.82,7-3.75,2.47-.92,5.03-1.52,7.6-1.87,2.57-.36,5.16-.43,7.72-.26,2.56.16,5.1.52,7.56,1.13,1.25.26,2.45.66,3.67,1,1.19.43,2.41.79,3.56,1.3,1.17.48,2.34.95,3.45,1.53l1.69.83,1.64.91c4.36,2.45,8.37,5.38,12.09,8.53,7.46,6.31,13.86,13.48,20.29,20.29l-6.18,2.46v-49.08s.15-49.08.15-49.08l.24-49.08.15-24.54.08-12.27.05-6.14v-1.53s.02-.38.02-.38v-.19s0-.1,0-.1c0-.07,0,.03,0-.21.01-.18.04-.36.07-.53.04-.18.09-.37.09-.37l.09-.27.17-.45c.42-1.07.82-1.99,1.25-2.95l1.29-2.84.67-1.42c.24-.49.44-.92.78-1.54l.14-.25.12-.18.24-.36.48-.72c.31-.49.69-.92,1.03-1.37.34-.46.72-.89,1.12-1.3.39-.42.77-.85,1.19-1.22,3.27-3.18,7.29-5.38,11.45-6.84,4.19-1.42,8.58-2.08,12.95-2,4.37.07,8.75.88,12.85,2.52,4.1,1.61,7.93,4.13,10.91,7.51.76.84,1.4,1.73,2.07,2.69.38.6.59,1.03.86,1.53l.71,1.42c.91,1.9,1.76,3.78,2.55,5.77.2.5.39,1,.57,1.57.09.26.18.6.26.95.05.23.09.61.09.83v.38s-.04,3.01-.04,3.01l-.08,6.03-.18,12.06-.44,24.16-.58,24.42c-.37,16.38-.62,32.94-.73,49.64ZM703.1,727.07c-.11-16.03-.35-32.19-.73-48.53l-.58-24.67-.44-24.92-.18-12.48-.08-6.24-.04-3.12c.1-.26-.34-1.28-.68-2.15-.75-1.8-1.63-3.63-2.54-5.4l-.69-1.31c-.22-.4-.49-.88-.66-1.13-.52-.7-1.09-1.46-1.72-2.12-2.5-2.71-5.73-4.76-9.27-6.04-7.08-2.62-15.22-2.54-22.3-.02-3.52,1.3-6.81,3.19-9.37,5.78-.34.31-.63.65-.93.99-.31.33-.6.67-.86,1.04-.27.36-.57.7-.79,1.09l-.36.57-.18.28-.09.14-.04.09c-.15.28-.38.77-.58,1.21l-.61,1.36-1.2,2.77c-.38.92-.78,1.87-1.1,2.72-.03.09-.09.23-.1.27l-.03.09c-.02.07.02-.07.05-.19.02-.11.03-.23.03-.35v.65s.02,1.53.02,1.53l.05,6.14.08,12.27.15,24.54.24,49.08.16,49.08v49.08s0,0,0,0c0,1.97-1.6,3.58-3.58,3.58-1.02,0-1.95-.44-2.6-1.13-6.51-6.92-12.75-13.86-19.66-19.83-6.89-5.93-14.6-10.77-23.12-12.83-2.11-.54-4.27-.86-6.42-1.01-2.15-.17-4.31-.12-6.41.16-2.11.27-4.17.74-6.14,1.45-1.95.73-3.8,1.69-5.46,2.87-3.33,2.36-5.88,5.68-7.22,9.53-1.32,3.86-1.56,8.15-.85,12.4.29,2.13.93,4.24,1.58,6.34l2.34,6.61c1.64,4.38,3.29,8.76,5.08,13.1,3.55,8.68,7.28,17.31,11.22,25.84,3.94,8.54,8.01,17.02,12.3,25.39,4.26,8.38,8.67,16.7,13.28,24.89,4.6,8.2,9.29,16.36,14.32,24.28,5.01,7.96,10.27,15.66,16.4,22.66,12.08,14.12,27.93,25.06,45.9,30.16,8.92,2.72,18.24,4.04,27.59,4.77,9.36.67,18.78.71,28.21.54,18.85-.39,37.76-1.29,56.7-.59h-.17c6.83-.89,13.56-2.52,19.96-5.04,3.16-1.33,6.31-2.72,9.28-4.45.76-.4,1.5-.83,2.22-1.3l2.18-1.36c1.39-1,2.85-1.91,4.18-2.99,10.99-8.26,19.35-19.64,25.01-32.08,1.44-3.11,2.64-6.32,3.76-9.55,1.05-3.26,2.04-6.54,2.78-9.89,1.57-6.67,2.48-13.49,2.85-20.32.66-13.82.58-27.74.31-41.64l-1.11-41.78c-.32-13.95-.47-27.94-.16-41.95l.18-5.19.09-2.6c.04-.46-.02-.8-.04-1.17l-.08-1.1c-.29-3.05-1.26-6.05-2.77-8.76-3.02-5.44-8.13-9.78-14.01-12.37-5.87-2.62-12.51-3.69-18.78-2.7-6.26.97-12.02,4.21-15.67,9.31l.29-.51-2.51,5.77v.02c-.6,1.36-2.18,1.98-3.54,1.39-1.02-.44-1.63-1.45-1.61-2.5.1-6.64-1.38-13.31-4.7-18.98-3.28-5.66-8.37-10.32-14.44-12.58-6.04-2.29-12.95-1.77-18.55,1.51-2.81,1.61-5.3,3.84-7.4,6.43-2.11,2.58-3.86,5.49-5.34,8.55l.06-.16-2.66,7.23v.04c-.37.96-1.44,1.46-2.4,1.1-.76-.28-1.23-1.01-1.22-1.77.09-6.41-1.3-12.86-4.19-18.61-2.86-5.73-7.23-10.83-12.83-13.93-2.78-1.56-5.88-2.53-9.05-2.74-3.16-.22-6.38.34-9.33,1.61-2.96,1.26-5.63,3.21-7.95,5.51-2.32,2.31-4.32,4.95-6.11,7.74l.04-.09c-.75,1.82-1.54,3.66-2.36,5.44-.81,1.78-1.6,3.48-2.32,5.17Z"/>
  </g>
  <line class="cls-9" x1="535.63" y1="617.48" x2="614.52" y2="617.48"/>
  <line class="cls-6" x1="812.3" y1="617.48" x2="733.41" y2="617.48"/>
  <path class="cls-4" d="M656.12,623.72"/>
  <line class="cls-8" x1="675.89" y1="482.05" x2="675.89" y2="560.94"/>
  <line class="cls-7" x1="781.79" y1="515.78" x2="726" y2="571.57"/>
  <line class="cls-5" x1="570" y1="515.78" x2="625.79" y2="571.57"/>
</svg>