<?xml version="1.0" encoding="UTF-8"?>
<svg id="Livello_1" data-name="Livello 1" xmlns="http://www.w3.org/2000/svg" xmlns:xlink="http://www.w3.org/1999/xlink" viewBox="0 0 1000 1000">
  <defs>
    <style>
      .cls-1 {
        fill: #00b4d8;
      }

      .cls-2 {
        filter: url(#drop-shadow-107);
      }

      .cls-2, .cls-3, .cls-4, .cls-5 {
        fill: #fff;
      }

      .cls-3 {
        filter: url(#drop-shadow-105);
      }

      .cls-4 {
        filter: url(#drop-shadow-103);
      }

      .cls-5 {
        filter: url(#drop-shadow-101);
      }

      .cls-6 {
        opacity: .3;
      }

      .cls-7 {
        fill: url(#Sfumatura_senza_nome_113-4);
      }

      .cls-8 {
        fill: url(#Sfumatura_senza_nome_113-3);
      }

      .cls-9 {
        fill: url(#Sfumatura_senza_nome_113-2);
      }

      .cls-10 {
        fill: url(#Sfumatura_senza_nome_11);
        filter: url(#drop-shadow-100);
      }

      .cls-11 {
        fill: url(#Sfumatura_senza_nome_11-3);
        filter: url(#drop-shadow-104);
      }

      .cls-12 {
        fill: url(#Sfumatura_senza_nome_11-2);
        filter: url(#drop-shadow-102);
      }

      .cls-13 {
        fill: url(#Sfumatura_senza_nome_11-4);
        filter: url(#drop-shadow-106);
      }

      .cls-14 {
        fill: url(#Sfumatura_senza_nome_113);
      }
    </style>
    <linearGradient id="Sfumatura_senza_nome_113" data-name="Sfumatura senza nome 113" x1="449.95" y1="76.06" x2="551.18" y2="76.06" gradientUnits="userSpaceOnUse">
      <stop offset="0" stop-color="#0077b6"/>
      <stop offset="1" stop-color="#03045e"/>
    </linearGradient>
    <linearGradient id="Sfumatura_senza_nome_11" data-name="Sfumatura senza nome 11" x1="382.21" y1="197.92" x2="618.91" y2="197.92" gradientUnits="userSpaceOnUse">
      <stop offset="0" stop-color="#90e0ef"/>
      <stop offset="1" stop-color="#00b4d8"/>
    </linearGradient>
    <filter id="drop-shadow-100" x="361.55" y="54.9" width="287" height="295" filterUnits="userSpaceOnUse">
      <feOffset dx="3.74" dy="3.74"/>
      <feGaussianBlur result="blur" stdDeviation="8.02"/>
      <feFlood flood-color="#000" flood-opacity=".25"/>
      <feComposite in2="blur" operator="in"/>
      <feComposite in="SourceGraphic"/>
    </filter>
    <filter id="drop-shadow-101" x="444.04" y="19.13" width="122" height="122" filterUnits="userSpaceOnUse">
      <feOffset dx="3.74" dy="3.74"/>
      <feGaussianBlur result="blur-2" stdDeviation="8.02"/>
      <feFlood flood-color="#000" flood-opacity=".25"/>
      <feComposite in2="blur-2" operator="in"/>
      <feComposite in="SourceGraphic"/>
    </filter>
    <linearGradient id="Sfumatura_senza_nome_113-2" data-name="Sfumatura senza nome 113" x1="215.62" y1="398" x2="316.85" y2="398" xlink:href="#Sfumatura_senza_nome_113"/>
    <linearGradient id="Sfumatura_senza_nome_11-2" data-name="Sfumatura senza nome 11" x1="147.88" y1="519.87" x2="384.58" y2="519.87" xlink:href="#Sfumatura_senza_nome_11"/>
    <filter id="drop-shadow-102" x="127.22" y="376.58" width="287" height="295" filterUnits="userSpaceOnUse">
      <feOffset dx="3.74" dy="3.74"/>
      <feGaussianBlur result="blur-3" stdDeviation="8.02"/>
      <feFlood flood-color="#000" flood-opacity=".25"/>
      <feComposite in2="blur-3" operator="in"/>
      <feComposite in="SourceGraphic"/>
    </filter>
    <filter id="drop-shadow-103" x="209.71" y="341.07" width="122" height="122" filterUnits="userSpaceOnUse">
      <feOffset dx="3.74" dy="3.74"/>
      <feGaussianBlur result="blur-4" stdDeviation="8.02"/>
      <feFlood flood-color="#000" flood-opacity=".25"/>
      <feComposite in2="blur-4" operator="in"/>
      <feComposite in="SourceGraphic"/>
    </filter>
    <linearGradient id="Sfumatura_senza_nome_113-3" data-name="Sfumatura senza nome 113" x1="709.6" y1="398" x2="810.83" y2="398" xlink:href="#Sfumatura_senza_nome_113"/>
    <linearGradient id="Sfumatura_senza_nome_11-3" data-name="Sfumatura senza nome 11" x1="641.86" y1="519.87" x2="878.56" y2="519.87" xlink:href="#Sfumatura_senza_nome_11"/>
    <filter id="drop-shadow-104" x="621.21" y="376.58" width="287" height="295" filterUnits="userSpaceOnUse">
      <feOffset dx="3.74" dy="3.74"/>
      <feGaussianBlur result="blur-5" stdDeviation="8.02"/>
      <feFlood flood-color="#000" flood-opacity=".25"/>
      <feComposite in2="blur-5" operator="in"/>
      <feComposite in="SourceGraphic"/>
    </filter>
    <filter id="drop-shadow-105" x="703.69" y="341.07" width="122" height="122" filterUnits="userSpaceOnUse">
      <feOffset dx="3.74" dy="3.74"/>
      <feGaussianBlur result="blur-6" stdDeviation="8.02"/>
      <feFlood flood-color="#000" flood-opacity=".25"/>
      <feComposite in2="blur-6" operator="in"/>
      <feComposite in="SourceGraphic"/>
    </filter>
    <linearGradient id="Sfumatura_senza_nome_113-4" data-name="Sfumatura senza nome 113" y1="719.95" y2="719.95" xlink:href="#Sfumatura_senza_nome_113"/>
    <linearGradient id="Sfumatura_senza_nome_11-4" data-name="Sfumatura senza nome 11" y1="841.81" y2="841.81" xlink:href="#Sfumatura_senza_nome_11"/>
    <filter id="drop-shadow-106" x="361.55" y="698.52" width="287" height="295" filterUnits="userSpaceOnUse">
      <feOffset dx="3.74" dy="3.74"/>
      <feGaussianBlur result="blur-7" stdDeviation="8.02"/>
      <feFlood flood-color="#000" flood-opacity=".25"/>
      <feComposite in2="blur-7" operator="in"/>
      <feComposite in="SourceGraphic"/>
    </filter>
    <filter id="drop-shadow-107" x="444.04" y="663.01" width="122" height="122" filterUnits="userSpaceOnUse">
      <feOffset dx="3.74" dy="3.74"/>
      <feGaussianBlur result="blur-8" stdDeviation="8.02"/>
      <feFlood flood-color="#000" flood-opacity=".25"/>
      <feComposite in2="blur-8" operator="in"/>
      <feComposite in="SourceGraphic"/>
    </filter>
  </defs>
  <g>
    <path class="cls-14" d="M548.34,30.71h-95.54c-1.57,0-2.85,1.27-2.85,2.84v85.02c0,1.57,1.28,2.84,2.85,2.84h95.54c1.57,0,2.84-1.27,2.84-2.84V33.55c0-1.57-1.27-2.84-2.84-2.84Z"/>
    <path class="cls-10" d="M614.35,75.53h-55.15v42.51c0,5.99-4.87,10.86-10.86,10.86h-95.54c-5.99,0-10.87-4.87-10.87-10.86v-42.51h-55.17c-2.51,0-4.55,2.04-4.55,4.55v235.67c0,2.51,2.04,4.55,4.55,4.55h77.27v-68.68c0-2.52-2.05-4.55-4.56-4.55h-2.2c-2.52,0-4.55-2.04-4.55-4.55h0c0-2.52,2.04-4.55,4.55-4.55h86.87c2.52,0,4.55,2.04,4.55,4.55s-2.04,4.55-4.55,4.55h-2.2c-2.52,0-4.55,2.04-4.55,4.55v68.68h76.96c2.52,0,4.55-2.04,4.55-4.55V80.09c0-2.51-2.04-4.55-4.55-4.55Z"/>
    <path class="cls-1" d="M618.91,147.13c24.95-.42,50.28-.8,75.24-.94,2.9.2,5.34,2.83,5.28,5.76,0,0,0,.4,0,.4v.8s.06,6.39.06,6.39c.43,49.26.62,105.81.6,155.08,0,0,0,.8,0,.8v.43c0,3.63-3.36,6.66-6.96,6.34-17.85-.06-35.71-.21-53.56-.38-34.11-.27-68.21-.7-102.32-.8,0,0-.7,0-.7,0v-.69c.08-22.2.01-44.8-.06-67.02,0,0,0-1.46,0-1.46-.19-3.72,3.03-6.08,6.56-5.67,5.6.67,6.53-7.14.9-7.48-15.89.12-55.27.41-70.66.55-1.94.02-12.8.11-14.57.12,0,0-1.46.01-1.46.01-.41.01-.67.04-1,.14-1.24.37-2.13,1.61-2.1,2.88,0,0,.04,1.58.04,1.58,0,0-1.64.01-1.64.01,0,0,1.59-1.59,1.59-1.59.05,2.05,1.84,3.16,3.81,2.91,0,0,1.33,0,1.33,0,3.4-.1,6.4,2.96,6.26,6.36-.02.48.02,1.52.01,2,.03,16.37.31,51.97.32,68.66,0,0-2.02,0-2.02,0l-102.61.27c-1.63-.19-56.25.31-56.67-.29-3.07-.78-5.24-3.84-5.02-6.99,0,0,0-1.6,0-1.6.21-49.13.41-104.89.92-153.91,0,0,.06-6.41.06-6.41,0,0,.02-1.63.02-1.63.05-2.72,2.27-5.2,4.98-5.49.56-.06,1.22-.05,1.76-.04,0,0,3.21.03,3.21.03,0,0,6.41.06,6.41.06,7.55,0,55.36.74,64.13.83,0,0,0,.43,0,.43-8.64.18-56.29.73-64.13.83,0,0-6.41.06-6.41.06,0,0-3.21.03-3.21.03,0,0-.8,0-.8,0-.29,0-.43.01-.65.04-1.19.15-2.24,1.02-2.66,2.13-.14.37-.22.76-.22,1.15,0,0,0,1.57,0,1.57.46,51.31.85,108.9.98,160.32,0,0,0,1.6,0,1.6v.4s.01.23.01.23c.08,1.1,1.02,2.06,2.13,2.13,34.61-.11,122.03.11,157.73.23,0,0-2.01,2.01-2.01,2.01l.17-42.66c-.02-3.61.15-22.84.14-26,.12-1.63-1.25-3.08-2.89-3.07-1.45-.03-3.16.14-4.58-.51-2.24-.93-3.78-3.28-3.74-5.69l.03-1.61s1.57.01,1.57.01h0l-1.59,1.59c-.05-3.34,2.98-6.25,6.28-6.09,0,0,1.46.01,1.46.01,22.78.2,62.1.51,85.23.67,4.78-.09,7.27,6.09,3.69,9.3-1.58,1.63-3.98,1.45-6.02,1.44-2.12.04-3.79,1.99-3.63,4.11.02.97-.02,3.38-.01,4.37,0,3.76-.04,13.61-.05,17.48-.07,15.54-.03,31.08,0,46.62l-.69-.69c51.69-.18,103.39-.98,155.08-1.18,0,0,.8,0,.8,0,.26,0,.57,0,.68-.01,1.34-.07,2.5-1.28,2.48-2.63-.08-24.99.12-66.83.2-92.3-.11-21.08.36-49.36.45-70.34,0,0,0-.8,0-.8,0,0,0-.4,0-.4v-.31c-.04-.39-.13-.77-.29-1.13-.57-1.32-1.99-2.11-3.42-2,0,0-.8,0-.8,0-5.49-.07-16.71-.13-22.38-.21-17.05-.25-34.11-.41-51.16-.74v-.43h0Z"/>
    <path class="cls-5" d="M536.63,88.28c0,1.99-1.61,3.6-3.6,3.6h-12.92c-1.99,0-3.6,1.61-3.6,3.6v12.92c0,1.99-1.61,3.6-3.6,3.6h-24.43c-1.99,0-3.6-1.61-3.6-3.6v-12.92c0-1.99-1.61-3.6-3.6-3.6h-12.92c-1.99,0-3.6-1.61-3.6-3.6v-24.43c0-1.99,1.61-3.6,3.6-3.6h12.92c1.99,0,3.6-1.61,3.6-3.6v-12.92c0-1.99,1.61-3.6,3.6-3.6h24.43c1.99,0,3.6,1.61,3.6,3.6v12.92c0,1.99,1.61,3.6,3.6,3.6h12.92c1.99,0,3.6,1.61,3.6,3.6v24.43Z"/>
  </g>
  <g>
    <path class="cls-9" d="M314.01,352.65h-95.54c-1.57,0-2.85,1.27-2.85,2.84v85.02c0,1.57,1.28,2.84,2.85,2.84h95.54c1.57,0,2.84-1.27,2.84-2.84v-85.02c0-1.57-1.27-2.84-2.84-2.84Z"/>
    <path class="cls-12" d="M380.02,397.47h-55.15v42.51c0,5.99-4.87,10.86-10.86,10.86h-95.54c-5.99,0-10.87-4.87-10.87-10.86v-42.51h-55.17c-2.51,0-4.55,2.04-4.55,4.55v235.67c0,2.51,2.04,4.55,4.55,4.55h77.27v-68.68c0-2.52-2.05-4.55-4.56-4.55h-2.2c-2.52,0-4.55-2.04-4.55-4.55h0c0-2.52,2.04-4.55,4.55-4.55h86.87c2.52,0,4.55,2.04,4.55,4.55s-2.04,4.55-4.55,4.55h-2.2c-2.52,0-4.55,2.04-4.55,4.55v68.68h76.96c2.52,0,4.55-2.04,4.55-4.55v-235.67c0-2.51-2.04-4.55-4.55-4.55Z"/>
    <path class="cls-1" d="M384.58,469.07c24.95-.42,50.28-.8,75.24-.94,2.9.2,5.34,2.83,5.28,5.76,0,0,0,.4,0,.4v.8s.06,6.39.06,6.39c.43,49.26.62,105.81.6,155.08,0,0,0,.8,0,.8v.43c0,3.63-3.36,6.66-6.96,6.34-17.85-.06-35.71-.21-53.56-.38-34.11-.27-68.21-.7-102.32-.8,0,0-.7,0-.7,0v-.69c.08-22.2.01-44.8-.06-67.02,0,0,0-1.46,0-1.46-.19-3.72,3.03-6.08,6.56-5.67,5.6.67,6.53-7.14.9-7.48-15.89.12-55.27.41-70.66.55-1.94.02-12.8.11-14.57.12,0,0-1.46.01-1.46.01-.41.01-.67.04-1,.14-1.24.37-2.13,1.61-2.1,2.88,0,0,.04,1.58.04,1.58,0,0-1.64.01-1.64.01,0,0,1.59-1.59,1.59-1.59.05,2.05,1.84,3.16,3.81,2.91,0,0,1.33,0,1.33,0,3.4-.1,6.4,2.96,6.26,6.36-.02.48.02,1.52.01,2,.03,16.37.31,51.97.32,68.66,0,0-2.02,0-2.02,0l-102.61.27c-1.63-.19-56.25.31-56.67-.29-3.07-.78-5.24-3.84-5.02-6.99,0,0,0-1.6,0-1.6.21-49.13.41-104.89.92-153.91,0,0,.06-6.41.06-6.41,0,0,.02-1.63.02-1.63.05-2.72,2.27-5.2,4.98-5.49.56-.06,1.22-.05,1.76-.04,0,0,3.21.03,3.21.03,0,0,6.41.06,6.41.06,7.55,0,55.36.74,64.13.83,0,0,0,.43,0,.43-8.64.18-56.29.73-64.13.83,0,0-6.41.06-6.41.06,0,0-3.21.03-3.21.03,0,0-.8,0-.8,0-.29,0-.43.01-.65.04-1.19.15-2.24,1.02-2.66,2.13-.14.37-.22.76-.22,1.15,0,0,0,1.57,0,1.57.46,51.31.85,108.9.98,160.32,0,0,0,1.6,0,1.6v.4s.01.23.01.23c.08,1.1,1.02,2.06,2.13,2.13,34.61-.11,122.03.11,157.73.23,0,0-2.01,2.01-2.01,2.01l.17-42.66c-.02-3.61.15-22.84.14-26,.12-1.63-1.25-3.08-2.89-3.07-1.45-.03-3.16.14-4.58-.51-2.24-.93-3.78-3.28-3.74-5.69l.03-1.61s1.57.01,1.57.01h0l-1.59,1.59c-.05-3.34,2.98-6.25,6.28-6.09,0,0,1.46.01,1.46.01,22.78.2,62.1.51,85.23.67,4.78-.09,7.27,6.09,3.69,9.3-1.58,1.63-3.98,1.45-6.02,1.44-2.12.04-3.79,1.99-3.63,4.11.02.97-.02,3.38-.01,4.37,0,3.76-.04,13.61-.05,17.48-.07,15.54-.03,31.08,0,46.62l-.69-.69c51.69-.18,103.39-.98,155.08-1.18,0,0,.8,0,.8,0,.26,0,.57,0,.68-.01,1.34-.07,2.5-1.28,2.48-2.63-.08-24.99.12-66.83.2-92.3-.11-21.08.36-49.36.45-70.34,0,0,0-.8,0-.8,0,0,0-.4,0-.4v-.31c-.04-.39-.13-.77-.29-1.13-.57-1.32-1.99-2.11-3.42-2,0,0-.8,0-.8,0-5.49-.07-16.71-.13-22.38-.21-17.05-.25-34.11-.41-51.16-.74v-.43h0Z"/>
    <path class="cls-4" d="M302.3,410.22c0,1.99-1.61,3.6-3.6,3.6h-12.92c-1.99,0-3.6,1.61-3.6,3.6v12.92c0,1.99-1.61,3.6-3.6,3.6h-24.43c-1.99,0-3.6-1.61-3.6-3.6v-12.92c0-1.99-1.61-3.6-3.6-3.6h-12.92c-1.99,0-3.6-1.61-3.6-3.6v-24.43c0-1.99,1.61-3.6,3.6-3.6h12.92c1.99,0,3.6-1.61,3.6-3.6v-12.92c0-1.99,1.61-3.6,3.6-3.6h24.43c1.99,0,3.6,1.61,3.6,3.6v12.92c0,1.99,1.61,3.6,3.6,3.6h12.92c1.99,0,3.6,1.61,3.6,3.6v24.43Z"/>
  </g>
  <g class="cls-6">
    <path class="cls-8" d="M807.99,352.65h-95.54c-1.57,0-2.85,1.27-2.85,2.84v85.02c0,1.57,1.28,2.84,2.85,2.84h95.54c1.57,0,2.84-1.27,2.84-2.84v-85.02c0-1.57-1.27-2.84-2.84-2.84Z"/>
    <path class="cls-11" d="M874,397.47h-55.15v42.51c0,5.99-4.87,10.86-10.86,10.86h-95.54c-5.99,0-10.87-4.87-10.87-10.86v-42.51h-55.17c-2.51,0-4.55,2.04-4.55,4.55v235.67c0,2.51,2.04,4.55,4.55,4.55h77.27v-68.68c0-2.52-2.05-4.55-4.56-4.55h-2.2c-2.52,0-4.55-2.04-4.55-4.55h0c0-2.52,2.04-4.55,4.55-4.55h86.87c2.52,0,4.55,2.04,4.55,4.55s-2.04,4.55-4.55,4.55h-2.2c-2.52,0-4.55,2.04-4.55,4.55v68.68h76.96c2.52,0,4.55-2.04,4.55-4.55v-235.67c0-2.51-2.04-4.55-4.55-4.55Z"/>
    <path class="cls-1" d="M878.56,469.07c24.95-.42,50.28-.8,75.24-.94,2.9.2,5.34,2.83,5.28,5.76,0,0,0,.4,0,.4v.8s.06,6.39.06,6.39c.43,49.26.62,105.81.6,155.08,0,0,0,.8,0,.8v.43c0,3.63-3.36,6.66-6.96,6.34-17.85-.06-35.71-.21-53.56-.38-34.11-.27-68.21-.7-102.32-.8,0,0-.7,0-.7,0v-.69c.08-22.2.01-44.8-.06-67.02,0,0,0-1.46,0-1.46-.19-3.72,3.03-6.08,6.56-5.67,5.6.67,6.53-7.14.9-7.48-15.89.12-55.27.41-70.66.55-1.94.02-12.8.11-14.57.12,0,0-1.46.01-1.46.01-.41.01-.67.04-1,.14-1.24.37-2.13,1.61-2.1,2.88,0,0,.04,1.58.04,1.58,0,0-1.64.01-1.64.01,0,0,1.59-1.59,1.59-1.59.05,2.05,1.84,3.16,3.81,2.91,0,0,1.33,0,1.33,0,3.4-.1,6.4,2.96,6.26,6.36-.02.48.02,1.52.01,2,.03,16.37.31,51.97.32,68.66,0,0-2.02,0-2.02,0l-102.61.27c-1.63-.19-56.25.31-56.67-.29-3.07-.78-5.24-3.84-5.02-6.99,0,0,0-1.6,0-1.6.21-49.13.41-104.89.92-153.91,0,0,.06-6.41.06-6.41,0,0,.02-1.63.02-1.63.05-2.72,2.27-5.2,4.98-5.49.56-.06,1.22-.05,1.76-.04,0,0,3.21.03,3.21.03,0,0,6.41.06,6.41.06,7.55,0,55.36.74,64.13.83,0,0,0,.43,0,.43-8.64.18-56.29.73-64.13.83,0,0-6.41.06-6.41.06,0,0-3.21.03-3.21.03,0,0-.8,0-.8,0-.29,0-.43.01-.65.04-1.19.15-2.24,1.02-2.66,2.13-.14.37-.22.76-.22,1.15,0,0,0,1.57,0,1.57.46,51.31.85,108.9.98,160.32,0,0,0,1.6,0,1.6v.4s.01.23.01.23c.08,1.1,1.02,2.06,2.13,2.13,34.61-.11,122.03.11,157.73.23,0,0-2.01,2.01-2.01,2.01l.17-42.66c-.02-3.61.15-22.84.14-26,.12-1.63-1.25-3.08-2.89-3.07-1.45-.03-3.16.14-4.58-.51-2.24-.93-3.78-3.28-3.74-5.69l.03-1.61s1.57.01,1.57.01h0l-1.59,1.59c-.05-3.34,2.98-6.25,6.28-6.09,0,0,1.46.01,1.46.01,22.78.2,62.1.51,85.23.67,4.78-.09,7.27,6.09,3.69,9.3-1.58,1.63-3.98,1.45-6.02,1.44-2.12.04-3.79,1.99-3.63,4.11.02.97-.02,3.38-.01,4.37,0,3.76-.04,13.61-.05,17.48-.07,15.54-.03,31.08,0,46.62l-.69-.69c51.69-.18,103.39-.98,155.08-1.18,0,0,.8,0,.8,0,.26,0,.57,0,.68-.01,1.34-.07,2.5-1.28,2.48-2.63-.08-24.99.12-66.83.2-92.3-.11-21.08.36-49.36.45-70.34,0,0,0-.8,0-.8,0,0,0-.4,0-.4v-.31c-.04-.39-.13-.77-.29-1.13-.57-1.32-1.99-2.11-3.42-2,0,0-.8,0-.8,0-5.49-.07-16.71-.13-22.38-.21-17.05-.25-34.11-.41-51.16-.74v-.43h0Z"/>
    <path class="cls-3" d="M796.28,410.22c0,1.99-1.61,3.6-3.6,3.6h-12.92c-1.99,0-3.6,1.61-3.6,3.6v12.92c0,1.99-1.61,3.6-3.6,3.6h-24.43c-1.99,0-3.6-1.61-3.6-3.6v-12.92c0-1.99-1.61-3.6-3.6-3.6h-12.92c-1.99,0-3.6-1.61-3.6-3.6v-24.43c0-1.99,1.61-3.6,3.6-3.6h12.92c1.99,0,3.6-1.61,3.6-3.6v-12.92c0-1.99,1.61-3.6,3.6-3.6h24.43c1.99,0,3.6,1.61,3.6,3.6v12.92c0,1.99,1.61,3.6,3.6,3.6h12.92c1.99,0,3.6,1.61,3.6,3.6v24.43Z"/>
  </g>
  <g class="cls-6">
    <path class="cls-7" d="M548.34,674.59h-95.54c-1.57,0-2.85,1.27-2.85,2.84v85.02c0,1.57,1.28,2.84,2.85,2.84h95.54c1.57,0,2.84-1.27,2.84-2.84v-85.02c0-1.57-1.27-2.84-2.84-2.84Z"/>
    <path class="cls-13" d="M614.35,719.42h-55.15v42.51c0,5.99-4.87,10.86-10.86,10.86h-95.54c-5.99,0-10.87-4.87-10.87-10.86v-42.51h-55.17c-2.51,0-4.55,2.04-4.55,4.55v235.67c0,2.51,2.04,4.55,4.55,4.55h77.27v-68.68c0-2.52-2.05-4.55-4.56-4.55h-2.2c-2.52,0-4.55-2.04-4.55-4.55h0c0-2.52,2.04-4.55,4.55-4.55h86.87c2.52,0,4.55,2.04,4.55,4.55s-2.04,4.55-4.55,4.55h-2.2c-2.52,0-4.55,2.04-4.55,4.55v68.68h76.96c2.52,0,4.55-2.04,4.55-4.55v-235.67c0-2.51-2.04-4.55-4.55-4.55Z"/>
    <path class="cls-1" d="M618.91,791.02c24.95-.42,50.28-.8,75.24-.94,2.9.2,5.34,2.83,5.28,5.76,0,0,0,.4,0,.4v.8s.06,6.39.06,6.39c.43,49.26.62,105.81.6,155.08,0,0,0,.8,0,.8v.43c0,3.63-3.36,6.66-6.96,6.34-17.85-.06-35.71-.21-53.56-.38-34.11-.27-68.21-.7-102.32-.8,0,0-.7,0-.7,0v-.69c.08-22.2.01-44.8-.06-67.02,0,0,0-1.46,0-1.46-.19-3.72,3.03-6.08,6.56-5.67,5.6.67,6.53-7.14.9-7.48-15.89.12-55.27.41-70.66.55-1.94.02-12.8.11-14.57.12,0,0-1.46.01-1.46.01-.41.01-.67.04-1,.14-1.24.37-2.13,1.61-2.1,2.88,0,0,.04,1.58.04,1.58,0,0-1.64.01-1.64.01,0,0,1.59-1.59,1.59-1.59.05,2.05,1.84,3.16,3.81,2.91,0,0,1.33,0,1.33,0,3.4-.1,6.4,2.96,6.26,6.36-.02.48.02,1.52.01,2,.03,16.37.31,51.97.32,68.66,0,0-2.02,0-2.02,0l-102.61.27c-1.63-.19-56.25.31-56.67-.29-3.07-.78-5.24-3.84-5.02-6.99,0,0,0-1.6,0-1.6.21-49.13.41-104.89.92-153.91,0,0,.06-6.41.06-6.41,0,0,.02-1.63.02-1.63.05-2.72,2.27-5.2,4.98-5.49.56-.06,1.22-.05,1.76-.04,0,0,3.21.03,3.21.03,0,0,6.41.06,6.41.06,7.55,0,55.36.74,64.13.83,0,0,0,.43,0,.43-8.64.18-56.29.73-64.13.83,0,0-6.41.06-6.41.06,0,0-3.21.03-3.21.03,0,0-.8,0-.8,0-.29,0-.43.01-.65.04-1.19.15-2.24,1.02-2.66,2.13-.14.37-.22.76-.22,1.15,0,0,0,1.57,0,1.57.46,51.31.85,108.9.98,160.32,0,0,0,1.6,0,1.6v.4s.01.23.01.23c.08,1.1,1.02,2.06,2.13,2.13,34.61-.11,122.03.11,157.73.23,0,0-2.01,2.01-2.01,2.01l.17-42.66c-.02-3.61.15-22.84.14-26,.12-1.63-1.25-3.08-2.89-3.07-1.45-.03-3.16.14-4.58-.51-2.24-.93-3.78-3.28-3.74-5.69l.03-1.61s1.57.01,1.57.01h0l-1.59,1.59c-.05-3.34,2.98-6.25,6.28-6.09,0,0,1.46.01,1.46.01,22.78.2,62.1.51,85.23.67,4.78-.09,7.27,6.09,3.69,9.3-1.58,1.63-3.98,1.45-6.02,1.44-2.12.04-3.79,1.99-3.63,4.11.02.97-.02,3.38-.01,4.37,0,3.76-.04,13.61-.05,17.48-.07,15.54-.03,31.08,0,46.62l-.69-.69c51.69-.18,103.39-.98,155.08-1.18,0,0,.8,0,.8,0,.26,0,.57,0,.68-.01,1.34-.07,2.5-1.28,2.48-2.63-.08-24.99.12-66.83.2-92.3-.11-21.08.36-49.36.45-70.34,0,0,0-.8,0-.8,0,0,0-.4,0-.4v-.31c-.04-.39-.13-.77-.29-1.13-.57-1.32-1.99-2.11-3.42-2,0,0-.8,0-.8,0-5.49-.07-16.71-.13-22.38-.21-17.05-.25-34.11-.41-51.16-.74v-.43h0Z"/>
    <path class="cls-2" d="M536.63,732.16c0,1.99-1.61,3.6-3.6,3.6h-12.92c-1.99,0-3.6,1.61-3.6,3.6v12.92c0,1.99-1.61,3.6-3.6,3.6h-24.43c-1.99,0-3.6-1.61-3.6-3.6v-12.92c0-1.99-1.61-3.6-3.6-3.6h-12.92c-1.99,0-3.6-1.61-3.6-3.6v-24.43c0-1.99,1.61-3.6,3.6-3.6h12.92c1.99,0,3.6-1.61,3.6-3.6v-12.92c0-1.99,1.61-3.6,3.6-3.6h24.43c1.99,0,3.6,1.61,3.6,3.6v12.92c0,1.99,1.61,3.6,3.6,3.6h12.92c1.99,0,3.6,1.61,3.6,3.6v24.43Z"/>
  </g>
</svg>