<?xml version="1.0" encoding="UTF-8"?>
<svg id="Livello_1" data-name="Livello 1" xmlns="http://www.w3.org/2000/svg" xmlns:xlink="http://www.w3.org/1999/xlink" viewBox="0 0 1000 1000">
  <defs>
    <style>
      .cls-1 {
        fill: url(#Sfumatura_senza_nome_14);
      }

      .cls-2 {
        fill: url(#Sfumatura_senza_nome_11);
      }

      .cls-3 {
        fill: #00b4d8;
      }

      .cls-4 {
        fill: url(#Sfumatura_senza_nome_14-5);
      }

      .cls-5 {
        fill: url(#Sfumatura_senza_nome_14-3);
      }

      .cls-6 {
        fill: url(#Sfumatura_senza_nome_14-4);
      }

      .cls-7 {
        fill: url(#Sfumatura_senza_nome_14-2);
      }

      .cls-8 {
        fill: url(#Sfumatura_senza_nome_14-6);
      }

      .cls-9 {
        fill: url(#Sfumatura_senza_nome_14-7);
      }

      .cls-10 {
        fill: url(#Sfumatura_senza_nome_14-8);
      }

      .cls-11 {
        fill: url(#Sfumatura_senza_nome_14-9);
      }

      .cls-12, .cls-13 {
        fill: #fff;
      }

      .cls-13 {
        filter: url(#drop-shadow-108);
      }

      .cls-14 {
        fill: url(#Sfumatura_senza_nome_14-10);
      }

      .cls-15 {
        fill: url(#Sfumatura_senza_nome_14-11);
      }

      .cls-16 {
        fill: url(#Sfumatura_senza_nome_14-15);
      }

      .cls-17 {
        fill: url(#Sfumatura_senza_nome_14-14);
      }

      .cls-18 {
        fill: url(#Sfumatura_senza_nome_14-13);
      }

      .cls-19 {
        fill: url(#Sfumatura_senza_nome_14-16);
      }

      .cls-20 {
        fill: url(#Sfumatura_senza_nome_14-12);
      }

      .cls-21 {
        fill: url(#Sfumatura_senza_nome_14-19);
      }

      .cls-22 {
        fill: url(#Sfumatura_senza_nome_14-18);
      }

      .cls-23 {
        fill: url(#Sfumatura_senza_nome_14-17);
      }

      .cls-24 {
        fill: url(#Sfumatura_senza_nome_14-23);
      }

      .cls-25 {
        fill: url(#Sfumatura_senza_nome_14-21);
      }

      .cls-26 {
        fill: url(#Sfumatura_senza_nome_14-26);
      }

      .cls-27 {
        fill: url(#Sfumatura_senza_nome_14-24);
      }

      .cls-28 {
        fill: url(#Sfumatura_senza_nome_14-20);
      }

      .cls-29 {
        fill: url(#Sfumatura_senza_nome_14-22);
      }

      .cls-30 {
        fill: url(#Sfumatura_senza_nome_14-25);
      }

      .cls-31 {
        fill: url(#Sfumatura_senza_nome_11-2);
        filter: url(#drop-shadow-107);
      }

      .cls-32 {
        fill: url(#Sfumatura_senza_nome_113);
      }
    </style>
    <linearGradient id="Sfumatura_senza_nome_11" data-name="Sfumatura senza nome 11" x1="89.58" y1="250.99" x2="288.94" y2="250.99" gradientUnits="userSpaceOnUse">
      <stop offset="0" stop-color="#90e0ef"/>
      <stop offset="1" stop-color="#00b4d8"/>
    </linearGradient>
    <linearGradient id="Sfumatura_senza_nome_113" data-name="Sfumatura senza nome 113" x1="559.38" y1="534.99" x2="706.79" y2="534.99" gradientUnits="userSpaceOnUse">
      <stop offset="0" stop-color="#0077b6"/>
      <stop offset="1" stop-color="#03045e"/>
    </linearGradient>
    <linearGradient id="Sfumatura_senza_nome_11-2" data-name="Sfumatura senza nome 11" x1="460.75" y1="712.44" x2="805.41" y2="712.44" xlink:href="#Sfumatura_senza_nome_11"/>
    <filter id="drop-shadow-107" x="430.54" y="503.71" width="416" height="428" filterUnits="userSpaceOnUse">
      <feOffset dx="5.45" dy="5.45"/>
      <feGaussianBlur result="blur" stdDeviation="11.67"/>
      <feFlood flood-color="#000" flood-opacity=".25"/>
      <feComposite in2="blur" operator="in"/>
      <feComposite in="SourceGraphic"/>
    </filter>
    <filter id="drop-shadow-108" x="550.54" y="452.71" width="176" height="176" filterUnits="userSpaceOnUse">
      <feOffset dx="5.45" dy="5.45"/>
      <feGaussianBlur result="blur-2" stdDeviation="11.67"/>
      <feFlood flood-color="#000" flood-opacity=".25"/>
      <feComposite in2="blur-2" operator="in"/>
      <feComposite in="SourceGraphic"/>
    </filter>
    <linearGradient id="Sfumatura_senza_nome_14" data-name="Sfumatura senza nome 14" x1="343.66" y1="583.93" x2="164.9" y2="583.93" gradientUnits="userSpaceOnUse">
      <stop offset="0" stop-color="#90e0ef"/>
      <stop offset="1" stop-color="#00b4d8"/>
    </linearGradient>
    <linearGradient id="Sfumatura_senza_nome_14-2" data-name="Sfumatura senza nome 14" x1="343.66" y1="805.68" x2="164.9" y2="805.68" xlink:href="#Sfumatura_senza_nome_14"/>
    <linearGradient id="Sfumatura_senza_nome_14-3" data-name="Sfumatura senza nome 14" x1="300.04" y1="250.99" x2="657.88" y2="250.99" xlink:href="#Sfumatura_senza_nome_14"/>
    <linearGradient id="Sfumatura_senza_nome_14-4" data-name="Sfumatura senza nome 14" x1="300.04" y1="250.99" x2="657.88" y2="250.99" xlink:href="#Sfumatura_senza_nome_14"/>
    <linearGradient id="Sfumatura_senza_nome_14-5" data-name="Sfumatura senza nome 14" x1="300.04" y1="250.99" x2="657.88" y2="250.99" xlink:href="#Sfumatura_senza_nome_14"/>
    <linearGradient id="Sfumatura_senza_nome_14-6" data-name="Sfumatura senza nome 14" x1="300.04" y1="250.99" x2="657.88" y2="250.99" xlink:href="#Sfumatura_senza_nome_14"/>
    <linearGradient id="Sfumatura_senza_nome_14-7" data-name="Sfumatura senza nome 14" x1="300.04" y1="250.99" x2="657.88" y2="250.99" xlink:href="#Sfumatura_senza_nome_14"/>
    <linearGradient id="Sfumatura_senza_nome_14-8" data-name="Sfumatura senza nome 14" x1="300.04" y1="250.99" x2="657.88" y2="250.99" xlink:href="#Sfumatura_senza_nome_14"/>
    <linearGradient id="Sfumatura_senza_nome_14-9" data-name="Sfumatura senza nome 14" x1="300.04" y1="250.99" x2="657.88" y2="250.99" xlink:href="#Sfumatura_senza_nome_14"/>
    <linearGradient id="Sfumatura_senza_nome_14-10" data-name="Sfumatura senza nome 14" x1="300.04" y1="250.99" x2="657.88" y2="250.99" xlink:href="#Sfumatura_senza_nome_14"/>
    <linearGradient id="Sfumatura_senza_nome_14-11" data-name="Sfumatura senza nome 14" x1="300.04" y1="250.99" x2="657.88" y2="250.99" xlink:href="#Sfumatura_senza_nome_14"/>
    <linearGradient id="Sfumatura_senza_nome_14-12" data-name="Sfumatura senza nome 14" x1="300.04" y1="250.99" x2="657.88" y2="250.99" xlink:href="#Sfumatura_senza_nome_14"/>
    <linearGradient id="Sfumatura_senza_nome_14-13" data-name="Sfumatura senza nome 14" x1="300.04" y1="250.99" x2="657.88" y2="250.99" xlink:href="#Sfumatura_senza_nome_14"/>
    <linearGradient id="Sfumatura_senza_nome_14-14" data-name="Sfumatura senza nome 14" x1="300.04" y1="250.99" x2="657.88" y2="250.99" xlink:href="#Sfumatura_senza_nome_14"/>
    <linearGradient id="Sfumatura_senza_nome_14-15" data-name="Sfumatura senza nome 14" x1="300.04" y1="250.99" x2="657.88" y2="250.99" xlink:href="#Sfumatura_senza_nome_14"/>
    <linearGradient id="Sfumatura_senza_nome_14-16" data-name="Sfumatura senza nome 14" x1="300.04" y1="252.1" x2="657.88" y2="252.1" xlink:href="#Sfumatura_senza_nome_14"/>
    <linearGradient id="Sfumatura_senza_nome_14-17" data-name="Sfumatura senza nome 14" x1="300.04" y1="275.16" x2="657.88" y2="275.16" xlink:href="#Sfumatura_senza_nome_14"/>
    <linearGradient id="Sfumatura_senza_nome_14-18" data-name="Sfumatura senza nome 14" x1="300.04" y1="299.39" x2="657.88" y2="299.39" xlink:href="#Sfumatura_senza_nome_14"/>
    <linearGradient id="Sfumatura_senza_nome_14-19" data-name="Sfumatura senza nome 14" x1="300.04" y1="323.62" x2="657.88" y2="323.62" xlink:href="#Sfumatura_senza_nome_14"/>
    <linearGradient id="Sfumatura_senza_nome_14-20" data-name="Sfumatura senza nome 14" x1="300.04" y1="347.85" x2="657.88" y2="347.85" xlink:href="#Sfumatura_senza_nome_14"/>
    <linearGradient id="Sfumatura_senza_nome_14-21" data-name="Sfumatura senza nome 14" x1="300.04" y1="372.08" x2="657.88" y2="372.08" xlink:href="#Sfumatura_senza_nome_14"/>
    <linearGradient id="Sfumatura_senza_nome_14-22" data-name="Sfumatura senza nome 14" x1="300.04" y1="396.32" x2="657.88" y2="396.32" xlink:href="#Sfumatura_senza_nome_14"/>
    <linearGradient id="Sfumatura_senza_nome_14-23" data-name="Sfumatura senza nome 14" x1="300.04" y1="420.55" x2="657.88" y2="420.55" xlink:href="#Sfumatura_senza_nome_14"/>
    <linearGradient id="Sfumatura_senza_nome_14-24" data-name="Sfumatura senza nome 14" x1="300.04" y1="444.78" x2="657.88" y2="444.78" xlink:href="#Sfumatura_senza_nome_14"/>
    <linearGradient id="Sfumatura_senza_nome_14-25" data-name="Sfumatura senza nome 14" x1="300.04" y1="465.95" x2="657.88" y2="465.95" xlink:href="#Sfumatura_senza_nome_14"/>
    <linearGradient id="Sfumatura_senza_nome_14-26" data-name="Sfumatura senza nome 14" x1="300.04" y1="251" x2="657.88" y2="251" xlink:href="#Sfumatura_senza_nome_14"/>
  </defs>
  <g>
    <g>
      <path class="cls-12" d="M336.9,520.36l-7.12,3.68c-6.13,3.17-13.67.77-16.85-5.36l-85.06-164.51c-12.02,4.5-25.03,6.96-38.61,6.96-60.83,0-110.13-49.31-110.13-110.13s49.31-110.13,110.13-110.13,110.13,49.31,110.13,110.13c0,35.41-16.71,66.91-42.68,87.05l85.55,165.46c3.17,6.13.77,13.67-5.36,16.85Z"/>
      <path class="cls-3" d="M337.01,520.56s-5.9,3.07-5.9,3.07c-1.92,1.07-4.11,1.96-6.38,2.04-4.54.32-9.12-2.08-11.51-5.95-8.11-15.41-28.89-54.52-37.44-70.52-14.24-26.71-36.06-67.5-49.77-94.07,0,0,2.62,1.01,2.62,1.01-54.4,20.67-116.41-5.55-140.13-58.51-24.08-52.03-3.61-115.9,46.49-143.97,65.43-37.4,148.61.36,164.42,73.85,7.14,32.69-1.25,68.17-22.51,94.05-5.52,6.79-11.85,12.96-18.78,18.31,0,0,.63-2.87.63-2.87,21.64,42.37,47.78,95.3,69.31,138.01,0,0,11.67,22.94,11.67,22.94,1.86,3.85,4.61,7.64,4.16,12.12-.24,4.4-2.97,8.5-6.89,10.5h0ZM336.79,520.15c3.74-1.95,6.35-5.89,6.56-10.11.41-4.4-2.34-8.04-4.17-11.8-7.38-14.2-28.33-53.53-36.17-68.22-14.75-27.54-34.95-65.28-49.2-92.57,6.47-5.03,12.46-10.7,17.75-16.96,30.49-35.68,33.75-89.88,7.63-128.91-30.5-47-93.88-62.68-142.92-35.6-49.77,26.61-70.65,90-46.12,140.9,24.02,51.57,86.09,75.67,138.75,54.66,14.03,27.19,35.05,68.99,48.84,96.66,8.12,16.06,27.78,55.7,35.97,71.23,2.27,3.69,6.64,6.02,10.99,5.73,2.2-.07,4.23-.89,6.18-1.95l5.91-3.04h0Z"/>
    </g>
    <circle class="cls-2" cx="189.26" cy="250.99" r="99.68"/>
  </g>
  <g>
    <path class="cls-32" d="M702.65,468.95h-139.12c-2.29,0-4.15,1.85-4.15,4.14v123.81c0,2.29,1.86,4.14,4.15,4.14h139.12c2.29,0,4.14-1.85,4.14-4.14v-123.81c0-2.29-1.85-4.14-4.14-4.14Z"/>
    <path class="cls-31" d="M798.78,534.22h-80.31v61.9c0,8.72-7.09,15.82-15.82,15.82h-139.12c-8.72,0-15.82-7.1-15.82-15.82v-61.9h-80.33c-3.66,0-6.63,2.97-6.63,6.63v343.18c0,3.66,2.97,6.63,6.63,6.63h112.51v-100c-.01-3.67-2.98-6.63-6.64-6.63h-3.21c-3.67,0-6.63-2.97-6.63-6.63h0c0-3.67,2.97-6.63,6.63-6.63h126.5c3.67,0,6.63,2.97,6.63,6.63s-2.97,6.63-6.63,6.63h-3.21c-3.67,0-6.63,2.97-6.63,6.63v100h112.07c3.67,0,6.63-2.97,6.63-6.63v-343.18c0-3.66-2.97-6.63-6.63-6.63Z"/>
    <path class="cls-3" d="M805.41,638.48c33.94-.62,68.46-1,102.43-1.38,0,0,4.66-.05,4.66-.05h1.16c3.4-.23,6.86,1.7,8.26,4.86.85,1.62.81,3.55.81,5.33.64,71.01.88,143.11.91,214.18,0,0-.02,18.62-.02,18.62,0,0,0,2.33,0,2.33,0,0,0,1.16,0,1.16,0,0,0,.62,0,.62-.04,2.47-1.08,4.93-2.88,6.63-1.83,1.87-4.71,2.75-7.25,2.6,0,0-1.16,0-1.16,0-75.11-.33-151.83-1.44-226.83-1.72.09-32.67.09-65.9-.05-98.6,0,0,0-2.12,0-2.12-.31-4.17,3.14-8.11,7.35-8.21,2.58-.12,5.34.44,7.3-1.54,3.61-3.3,1.09-9.56-3.82-9.4,0,0-1.06,0-1.06,0-34.43.25-91.28.68-125.17.99-2.41-.11-4.59,2.01-4.51,4.4,0,0,.06,2.3.06,2.3l-2.38.02h0s2.32-2.32,2.32-2.32c-.02,2.32,2.02,4.32,4.33,4.25,0,0,.24,0,.24,0,0,0,.97,0,.97,0,1.47,0,3.13-.1,4.54.35,3.77,1.04,6.55,4.72,6.52,8.65,0,0,0,.25,0,.25,0,0,0,.97,0,.97.08,24.86.44,76.6.48,101.92-70.47.13-156.91.63-227.05.34,0,0-4.67-.01-4.67-.01,0,0-.58,0-.58,0-4.38.04-8.53-3.11-9.55-7.41-.48-1.53-.27-3.85-.31-5.46.26-70.82.64-153.38,1.34-224.12,0,0,.09-9.34.09-9.34,0,0,.03-2.38.03-2.38.26-5.23,4.65-8.59,9.81-8.06,8.02.03,24.4.26,32.68.33,24.9.34,49.8.58,74.71,1.01,0,0,0,.62,0,.62-24.9.43-49.8.68-74.71,1.01-4.68.12-23.11.2-28.01.28,0,0-4.67.04-4.67.04,0,0-1.17.01-1.17.01-.39,0-.59.01-.94.06-2.31.3-4.22,2.44-4.19,4.78,0,0,.01,2.29.01,2.29.68,74.12,1.22,159.23,1.43,233.46,0,0,0,2.33,0,2.33v.58s.02.34.02.34c.11,1.61,1.49,3,3.11,3.1,71.01-.13,158.26.06,229.68.34,0,0-2.92,2.92-2.92,2.92.09-23.05.3-74.65.44-97.06-.03-1.03.06-2.61,0-3.61-.16-2.08-2.09-3.79-4.18-3.77,0,0-1.94-.01-1.94-.01h-.97s-.24,0-.24,0c-4.82.08-9.09-4.19-8.97-9.01,0,0,0-2.34,0-2.34,0,0,2.31.02,2.31.02h0s-2.32,2.32-2.32,2.32c-.07-4.85,4.33-9.1,9.15-8.86,33.68.3,90.97.75,125.17.99,3.29-.26,6.69,1.32,8.12,4.4,2.43,4.63-.91,10.76-6.13,11.17-1.52.11-2.9,0-4.32.05-2.38.05-4.59,1.84-5.14,4.16-.29,1.1-.15,2.83-.19,3.97,0,0-.02,4.24-.02,4.24-.12,30.94-.09,62.44-.01,93.35,0,0-1.01-1.01-1.01-1.01,74.63-.25,151.1-1.42,225.82-1.71,0,0,1.16,0,1.16,0,.38,0,.83,0,.99-.02,1.83-.09,3.43-1.66,3.6-3.49,0,0,.02-.34.02-.34,0-.12,0-.37,0-.54,0,0,0-1.16,0-1.16-.11-74.94.23-150.94.81-225.82,0,0,.08-9.31.08-9.31v-1.16s.02-.58.02-.58v-.44c-.12-2.29-2.06-4.28-4.34-4.49-1.06-.08-5.59-.06-6.83-.09-5.49.01-22.12-.28-27.94-.3-24.83-.36-49.66-.59-74.5-1.08v-.62h0Z"/>
    <path class="cls-13" d="M685.61,552.78c0,2.89-2.34,5.24-5.24,5.24h-18.82c-2.89,0-5.24,2.34-5.24,5.24v18.82c0,2.89-2.34,5.24-5.24,5.24h-35.57c-2.89,0-5.24-2.34-5.24-5.24v-18.82c0-2.89-2.34-5.24-5.24-5.24h-18.82c-2.89,0-5.24-2.34-5.24-5.24v-35.57c0-2.89,2.34-5.24,5.24-5.24h18.82c2.89,0,5.24-2.34,5.24-5.24v-18.82c0-2.89,2.34-5.24,5.24-5.24h35.57c2.89,0,5.24,2.34,5.24,5.24v18.82c0,2.89,2.34,5.24,5.24,5.24h18.82c2.89,0,5.24,2.34,5.24,5.24v35.57Z"/>
  </g>
  <g>
    <path class="cls-1" d="M299.66,807.78c-5.46.18-10.93.28-16.39.4-5.46.12-10.93.26-16.39.32l-16.39.24-16.39.13-16.39.1-16.39-.05-16.39-.24-16.39-.4-2.65-.07.07-2.51c.53-18.62,1.17-37.23,1.38-55.85.18-18.62.08-37.23-.26-55.85-.34-18.62-.91-37.23-1.33-55.85-.43-18.62-.55-37.23-.77-55.85-.18-18.62-.37-37.23-.35-55.85-.05-9.31.06-18.62.13-27.92l.11-13.96.19-13.96c.54-37.23,1.38-74.47,3.1-111.7h.73c1.72,37.23,2.55,74.47,3.1,111.7l.19,13.96.11,13.96c.07,9.31.18,18.62.13,27.92.03,18.62-.17,37.23-.35,55.85-.21,18.62-.34,37.23-.77,55.85-.42,18.62-.98,37.23-1.33,55.85-.33,18.62-.43,37.23-.26,55.85.21,18.62.85,37.23,1.38,55.85l-2.58-2.58,16.39-.4,16.39-.24,16.39-.05,16.39.1,16.39.13,16.39.24c5.46.06,10.93.2,16.39.32,5.46.12,10.93.22,16.39.4v4.18Z"/>
    <path class="cls-7" d="M343.66,805.69c-20.7-7.68-46.38-20.79-62.3-34.67l12.54,34.67-12.54,34.66c15.92-13.88,41.6-26.98,62.3-34.66Z"/>
  </g>
  <g>
    <polygon class="cls-5" points="348.32 248.45 354.32 248.29 354.32 253.7 348.32 253.54 348.32 248.45"/>
    <polygon class="cls-6" points="366.06 247.99 377.81 247.78 377.81 254.2 366.06 254 366.06 247.99"/>
    <polygon class="cls-4" points="389.55 247.59 401.29 247.5 401.29 254.49 389.55 254.39 389.55 247.59"/>
    <polygon class="cls-8" points="413.03 247.4 418.9 247.39 424.77 247.41 424.77 254.58 418.9 254.59 413.03 254.58 413.03 247.4"/>
    <path class="cls-9" d="M436.51,247.55c3.91.08,7.83.1,11.74.24v6.41c-3.91.13-7.83.16-11.74.24v-6.88Z"/>
    <polygon class="cls-10" points="459.99 248.13 471.73 248.54 471.73 253.45 459.99 253.85 459.99 248.13"/>
    <polygon class="cls-11" points="483.47 248.95 495.21 249.31 495.21 252.67 483.47 253.03 483.47 248.95"/>
    <polygon class="cls-14" points="506.95 249.57 512.82 249.68 518.69 249.72 518.69 252.26 512.82 252.3 506.95 252.41 506.95 249.57"/>
    <polygon class="cls-15" points="530.42 249.78 542.16 249.72 542.16 252.26 530.42 252.2 530.42 249.78"/>
    <path class="cls-20" d="M553.9,249.58c3.91-.05,7.83-.13,11.74-.23v3.28c-3.91-.1-7.83-.18-11.74-.23v-2.83Z"/>
    <polygon class="cls-18" points="577.38 249.05 589.13 248.7 589.13 253.28 577.38 252.93 577.38 249.05"/>
    <polygon class="cls-17" points="600.87 248.35 612.61 248 612.61 253.99 600.87 253.63 600.87 248.35"/>
    <polygon class="cls-16" points="624.35 247.72 636.09 247.51 636.09 254.48 624.35 254.27 624.35 247.72"/>
    <polygon class="cls-19" points="647.88 247.33 653.88 247.26 657.57 247.21 657.61 250.99 657.69 256.99 650.07 256.99 650.14 250.99 653.88 254.73 647.88 254.65 647.88 247.33"/>
    <polygon class="cls-23" points="657.84 269.11 657.97 281.22 649.79 281.22 649.91 269.11 657.84 269.11"/>
    <path class="cls-22" d="M658.09,293.34c.06,4.04.04,8.08.05,12.11h-8.52c0-4.04,0-8.08.05-12.11h8.42Z"/>
    <path class="cls-21" d="M658.15,317.57c.02,4.04,0,8.08-.05,12.12h-8.46c-.05-4.04-.06-8.08-.05-12.12h8.56Z"/>
    <polygon class="cls-28" points="658 341.8 657.88 353.91 649.87 353.91 649.76 341.8 658 341.8"/>
    <polygon class="cls-25" points="657.68 366.03 657.47 378.14 650.28 378.14 650.07 366.03 657.68 366.03"/>
    <polygon class="cls-29" points="657.2 390.26 656.91 402.37 650.84 402.37 650.55 390.26 657.2 390.26"/>
    <polygon class="cls-24" points="656.55 414.49 656.17 426.6 651.59 426.6 651.2 414.49 656.55 414.49"/>
    <polygon class="cls-27" points="655.72 438.72 655.21 450.83 652.55 450.83 652.03 438.72 655.72 438.72"/>
    <polygon class="cls-30" points="654.61 462.95 654.28 468.95 653.48 468.95 653.14 462.95 654.61 462.95"/>
    <path class="cls-26" d="M300.04,250.99c22.72,8.43,50.91,22.81,68.38,38.05l-13.76-38.05,13.76-38.04c-17.47,15.23-45.66,29.62-68.38,38.04Z"/>
  </g>
</svg>