<?xml version="1.0" encoding="UTF-8"?>
<svg id="Livello_1" data-name="Livello 1" xmlns="http://www.w3.org/2000/svg" xmlns:xlink="http://www.w3.org/1999/xlink" viewBox="0 0 1000 1000">
  <defs>
    <style>
      .cls-1 {
        fill: url(#Sfumatura_senza_nome_11);
      }

      .cls-2 {
        stroke: url(#Sfumatura_senza_nome_190-3);
        stroke-width: 4.02px;
      }

      .cls-2, .cls-3, .cls-4 {
        fill: none;
        stroke-miterlimit: 10;
      }

      .cls-3 {
        stroke: url(#Sfumatura_senza_nome_190-2);
        stroke-width: 4.18px;
      }

      .cls-4 {
        stroke: url(#Sfumatura_senza_nome_190);
        stroke-width: 4px;
      }

      .cls-5 {
        fill: url(#Sfumatura_senza_nome_11-8);
      }

      .cls-6 {
        fill: url(#Sfumatura_senza_nome_11-5);
      }

      .cls-7 {
        fill: url(#Sfumatura_senza_nome_11-6);
      }

      .cls-8 {
        fill: url(#Sfumatura_senza_nome_11-7);
      }

      .cls-9 {
        fill: url(#Sfumatura_senza_nome_11-4);
      }

      .cls-10 {
        fill: url(#Sfumatura_senza_nome_11-3);
      }

      .cls-11 {
        fill: url(#Sfumatura_senza_nome_11-2);
      }

      .cls-12 {
        fill: url(#Sfumatura_senza_nome_113-4);
      }

      .cls-13 {
        fill: url(#Sfumatura_senza_nome_113-3);
      }

      .cls-14 {
        fill: url(#Sfumatura_senza_nome_113-2);
      }

      .cls-15 {
        fill: url(#Sfumatura_senza_nome_8);
      }

      .cls-16 {
        fill: url(#Sfumatura_senza_nome_113);
      }

      .cls-17 {
        fill: url(#Sfumatura_senza_nome_8-6);
      }

      .cls-18 {
        fill: url(#Sfumatura_senza_nome_8-2);
      }

      .cls-19 {
        fill: url(#Sfumatura_senza_nome_8-5);
      }

      .cls-20 {
        fill: url(#Sfumatura_senza_nome_8-3);
      }

      .cls-21 {
        fill: url(#Sfumatura_senza_nome_8-4);
      }
    </style>
    <linearGradient id="Sfumatura_senza_nome_190" data-name="Sfumatura senza nome 190" x1="566.27" y1="401.02" x2="636.93" y2="401.02" gradientUnits="userSpaceOnUse">
      <stop offset="0" stop-color="#030660"/>
      <stop offset="1" stop-color="#0076b5"/>
    </linearGradient>
    <linearGradient id="Sfumatura_senza_nome_190-2" data-name="Sfumatura senza nome 190" x1="566.18" y1="-973.14" y2="-973.14" gradientTransform="translate(0 -404.64) scale(1 -1.09)" xlink:href="#Sfumatura_senza_nome_190"/>
    <linearGradient id="Sfumatura_senza_nome_190-3" data-name="Sfumatura senza nome 190" x1="2393.24" y1="-2487.66" x2="2397.26" y2="-2487.66" gradientTransform="translate(3030.28 2917.66) rotate(-90)" xlink:href="#Sfumatura_senza_nome_190"/>
    <linearGradient id="Sfumatura_senza_nome_113" data-name="Sfumatura senza nome 113" x1="618.91" y1="522.41" x2="862.67" y2="522.41" gradientUnits="userSpaceOnUse">
      <stop offset="0" stop-color="#0077b6"/>
      <stop offset="1" stop-color="#03045e"/>
    </linearGradient>
    <linearGradient id="Sfumatura_senza_nome_11" data-name="Sfumatura senza nome 11" x1="696.13" y1="535.36" x2="719.21" y2="535.36" gradientUnits="userSpaceOnUse">
      <stop offset="0" stop-color="#90e0ef"/>
      <stop offset="1" stop-color="#00b4d8"/>
    </linearGradient>
    <linearGradient id="Sfumatura_senza_nome_11-2" data-name="Sfumatura senza nome 11" x1="729.25" y1="517.4" x2="752.33" y2="517.4" xlink:href="#Sfumatura_senza_nome_11"/>
    <linearGradient id="Sfumatura_senza_nome_11-3" data-name="Sfumatura senza nome 11" x1="762.37" y1="545.48" x2="785.45" y2="545.48" xlink:href="#Sfumatura_senza_nome_11"/>
    <linearGradient id="Sfumatura_senza_nome_11-4" data-name="Sfumatura senza nome 11" x1="795.48" y1="560.08" x2="818.57" y2="560.08" xlink:href="#Sfumatura_senza_nome_11"/>
    <linearGradient id="Sfumatura_senza_nome_11-5" data-name="Sfumatura senza nome 11" x1="663.01" y1="572.85" x2="686.09" y2="572.85" xlink:href="#Sfumatura_senza_nome_11"/>
    <linearGradient id="Sfumatura_senza_nome_8" data-name="Sfumatura senza nome 8" x1="303.44" y1="243.51" x2="697.98" y2="243.51" gradientUnits="userSpaceOnUse">
      <stop offset="0" stop-color="#00b4d8"/>
      <stop offset="1" stop-color="#0077b6"/>
    </linearGradient>
    <linearGradient id="Sfumatura_senza_nome_11-6" data-name="Sfumatura senza nome 11" x1="382.58" y1="207.67" x2="618.84" y2="207.67" xlink:href="#Sfumatura_senza_nome_11"/>
    <linearGradient id="Sfumatura_senza_nome_8-2" data-name="Sfumatura senza nome 8" x1="452.81" y1="-14492.4" x2="548.62" y2="-14492.4" gradientTransform="translate(0 -14203.72) scale(1 -1)" xlink:href="#Sfumatura_senza_nome_8"/>
    <linearGradient id="Sfumatura_senza_nome_113-2" data-name="Sfumatura senza nome 113" x1="450.19" y1="85.5" x2="551.24" y2="85.5" xlink:href="#Sfumatura_senza_nome_113"/>
    <linearGradient id="Sfumatura_senza_nome_8-3" data-name="Sfumatura senza nome 8" x1="302.73" y1="880.14" x2="697.27" y2="880.14" xlink:href="#Sfumatura_senza_nome_8"/>
    <linearGradient id="Sfumatura_senza_nome_11-7" data-name="Sfumatura senza nome 11" x1="381.87" y1="844.3" x2="618.13" y2="844.3" xlink:href="#Sfumatura_senza_nome_11"/>
    <linearGradient id="Sfumatura_senza_nome_8-4" data-name="Sfumatura senza nome 8" x1="452.1" y1="-15129.02" x2="547.91" y2="-15129.02" gradientTransform="translate(0 -14203.72) scale(1 -1)" xlink:href="#Sfumatura_senza_nome_8"/>
    <linearGradient id="Sfumatura_senza_nome_113-3" data-name="Sfumatura senza nome 113" x1="449.48" y1="722.13" x2="550.53" y2="722.13" xlink:href="#Sfumatura_senza_nome_113"/>
    <linearGradient id="Sfumatura_senza_nome_8-5" data-name="Sfumatura senza nome 8" x1="68.63" y1="558.48" x2="463.17" y2="558.48" xlink:href="#Sfumatura_senza_nome_8"/>
    <linearGradient id="Sfumatura_senza_nome_11-8" data-name="Sfumatura senza nome 11" x1="147.77" y1="522.64" x2="384.03" y2="522.64" xlink:href="#Sfumatura_senza_nome_11"/>
    <linearGradient id="Sfumatura_senza_nome_8-6" data-name="Sfumatura senza nome 8" x1="218" y1="-14807.36" x2="313.81" y2="-14807.36" gradientTransform="translate(0 -14203.72) scale(1 -1)" xlink:href="#Sfumatura_senza_nome_8"/>
    <linearGradient id="Sfumatura_senza_nome_113-4" data-name="Sfumatura senza nome 113" x1="215.38" y1="400.47" x2="316.43" y2="400.47" xlink:href="#Sfumatura_senza_nome_113"/>
  </defs>
  <polyline class="cls-4" points="636.93 475.52 568.27 475.52 568.27 324.52"/>
  <polyline class="cls-3" points="636.93 575.44 568.27 575.44 568.27 740.12"/>
  <line class="cls-2" x1="618.91" y1="522.41" x2="466.34" y2="522.41"/>
  <circle class="cls-16" cx="740.79" cy="522.41" r="121.88"/>
  <g>
    <rect class="cls-1" x="696.13" y="481.33" width="23.08" height="108.05" rx="2.46" ry="2.46"/>
    <rect class="cls-11" x="729.25" y="445.41" width="23.08" height="143.97" rx="2.3" ry="2.3"/>
    <rect class="cls-10" x="762.37" y="501.58" width="23.08" height="87.81" rx="2.44" ry="2.44"/>
    <rect class="cls-9" x="795.48" y="530.77" width="23.08" height="58.62" rx="2.86" ry="2.86"/>
    <rect class="cls-6" x="663.01" y="556.32" width="23.08" height="33.06" rx="2.79" ry="2.79"/>
  </g>
  <g>
    <path class="cls-15" d="M697.98,161.74v163.56c0,2.51-2.04,4.55-4.55,4.55h-385.45c-2.51,0-4.55-2.04-4.55-4.55v-163.56c0-2.51,2.04-4.55,4.55-4.55h106.54v67.9c0,5.45,4.43,9.88,9.88,9.88h152.61c5.45,0,9.88-4.43,9.88-9.88v-67.9h106.54c2.51,0,4.55,2.04,4.55,4.55Z"/>
    <path class="cls-7" d="M614.29,85.51h-55.05v42.43c0,5.98-4.86,10.84-10.84,10.84h-95.37c-5.98,0-10.85-4.87-10.85-10.84v-42.43h-55.06c-2.51,0-4.55,2.04-4.55,4.55v235.24c0,2.51,2.04,4.55,4.55,4.55h227.17c2.51,0,4.55-2.04,4.55-4.55V90.05c0-2.51-2.03-4.55-4.55-4.55Z"/>
    <path class="cls-18" d="M452.81,252.06h0c0,2.51,2.03,4.55,4.55,4.55h2.2c2.51,0,4.55,2.03,4.55,4.55v64.14c0,2.51,2.03,4.55,4.55,4.55h64.14c2.51,0,4.55-2.03,4.55-4.55v-64.14c0-2.51,2.03-4.55,4.55-4.55h2.2c2.51,0,4.55-2.03,4.55-4.55h0c0-2.51-2.03-4.55-4.55-4.55h-86.71c-2.51,0-4.55,2.03-4.55,4.55h0Z"/>
    <path class="cls-14" d="M548.4,40.23h-95.37c-1.57,0-2.84,1.27-2.84,2.84v84.87c0,1.57,1.28,2.84,2.84,2.84h95.37c1.57,0,2.84-1.27,2.84-2.84V43.07c0-1.57-1.27-2.84-2.84-2.84ZM536.57,97.7c0,1.98-1.61,3.59-3.59,3.59h-12.9c-1.98,0-3.59,1.61-3.59,3.59v12.9c0,1.98-1.61,3.59-3.59,3.59h-24.38c-1.98,0-3.59-1.61-3.59-3.59v-12.9c0-1.98-1.61-3.59-3.59-3.59h-12.9c-1.98,0-3.59-1.61-3.59-3.59v-24.38c0-1.98,1.61-3.59,3.59-3.59h12.9c1.98,0,3.59-1.61,3.59-3.59v-12.9c0-1.98,1.61-3.59,3.59-3.59h24.38c1.98,0,3.59,1.61,3.59,3.59v12.9c0,1.98,1.61,3.59,3.59,3.59h12.9c1.98,0,3.59,1.61,3.59,3.59v24.38Z"/>
  </g>
  <g>
    <path class="cls-20" d="M697.27,798.36v163.56c0,2.51-2.04,4.55-4.55,4.55h-385.45c-2.51,0-4.55-2.04-4.55-4.55v-163.56c0-2.51,2.04-4.55,4.55-4.55h106.54v67.9c0,5.45,4.43,9.88,9.88,9.88h152.61c5.45,0,9.88-4.43,9.88-9.88v-67.9h106.54c2.51,0,4.55,2.04,4.55,4.55Z"/>
    <path class="cls-8" d="M613.58,722.13h-55.05v42.43c0,5.98-4.86,10.84-10.84,10.84h-95.37c-5.98,0-10.85-4.87-10.85-10.84v-42.43h-55.06c-2.51,0-4.55,2.04-4.55,4.55v235.24c0,2.51,2.04,4.55,4.55,4.55h227.17c2.51,0,4.55-2.04,4.55-4.55v-235.24c0-2.51-2.03-4.55-4.55-4.55Z"/>
    <path class="cls-21" d="M452.1,888.68h0c0,2.51,2.03,4.55,4.55,4.55h2.2c2.51,0,4.55,2.03,4.55,4.55v64.14c0,2.51,2.03,4.55,4.55,4.55h64.14c2.51,0,4.55-2.03,4.55-4.55v-64.14c0-2.51,2.03-4.55,4.55-4.55h2.2c2.51,0,4.55-2.03,4.55-4.55h0c0-2.51-2.03-4.55-4.55-4.55h-86.71c-2.51,0-4.55,2.03-4.55,4.55h0Z"/>
    <path class="cls-13" d="M547.69,676.86h-95.37c-1.57,0-2.84,1.27-2.84,2.84v84.87c0,1.57,1.28,2.84,2.84,2.84h95.37c1.57,0,2.84-1.27,2.84-2.84v-84.87c0-1.57-1.27-2.84-2.84-2.84ZM535.86,734.32c0,1.98-1.61,3.59-3.59,3.59h-12.9c-1.98,0-3.59,1.61-3.59,3.59v12.9c0,1.98-1.61,3.59-3.59,3.59h-24.38c-1.98,0-3.59-1.61-3.59-3.59v-12.9c0-1.98-1.61-3.59-3.59-3.59h-12.9c-1.98,0-3.59-1.61-3.59-3.59v-24.38c0-1.98,1.61-3.59,3.59-3.59h12.9c1.98,0,3.59-1.61,3.59-3.59v-12.9c0-1.98,1.61-3.59,3.59-3.59h24.38c1.98,0,3.59,1.61,3.59,3.59v12.9c0,1.98,1.61,3.59,3.59,3.59h12.9c1.98,0,3.59,1.61,3.59,3.59v24.38Z"/>
  </g>
  <g>
    <path class="cls-19" d="M463.17,476.7v163.56c0,2.51-2.04,4.55-4.55,4.55H73.17c-2.51,0-4.55-2.04-4.55-4.55v-163.56c0-2.51,2.04-4.55,4.55-4.55h106.54v67.9c0,5.45,4.43,9.88,9.88,9.88h152.61c5.45,0,9.88-4.43,9.88-9.88v-67.9h106.54c2.51,0,4.55,2.04,4.55,4.55Z"/>
    <path class="cls-5" d="M379.48,400.47h-55.05v42.43c0,5.98-4.86,10.84-10.84,10.84h-95.37c-5.98,0-10.85-4.87-10.85-10.84v-42.43h-55.06c-2.51,0-4.55,2.04-4.55,4.55v235.24c0,2.51,2.04,4.55,4.55,4.55h227.17c2.51,0,4.55-2.04,4.55-4.55v-235.24c0-2.51-2.03-4.55-4.55-4.55Z"/>
    <path class="cls-17" d="M218,567.03h0c0,2.51,2.03,4.55,4.55,4.55h2.2c2.51,0,4.55,2.03,4.55,4.55v64.14c0,2.51,2.03,4.55,4.55,4.55h64.14c2.51,0,4.55-2.03,4.55-4.55v-64.14c0-2.51,2.03-4.55,4.55-4.55h2.2c2.51,0,4.55-2.03,4.55-4.55h0c0-2.51-2.03-4.55-4.55-4.55h-86.71c-2.51,0-4.55,2.03-4.55,4.55h0Z"/>
    <path class="cls-12" d="M313.59,355.2h-95.37c-1.57,0-2.84,1.27-2.84,2.84v84.87c0,1.57,1.28,2.84,2.84,2.84h95.37c1.57,0,2.84-1.27,2.84-2.84v-84.87c0-1.57-1.27-2.84-2.84-2.84ZM301.76,412.66c0,1.98-1.61,3.59-3.59,3.59h-12.9c-1.98,0-3.59,1.61-3.59,3.59v12.9c0,1.98-1.61,3.59-3.59,3.59h-24.38c-1.98,0-3.59-1.61-3.59-3.59v-12.9c0-1.98-1.61-3.59-3.59-3.59h-12.9c-1.98,0-3.59-1.61-3.59-3.59v-24.38c0-1.98,1.61-3.59,3.59-3.59h12.9c1.98,0,3.59-1.61,3.59-3.59v-12.9c0-1.98,1.61-3.59,3.59-3.59h24.38c1.98,0,3.59,1.61,3.59,3.59v12.9c0,1.98,1.61,3.59,3.59,3.59h12.9c1.98,0,3.59,1.61,3.59,3.59v24.38Z"/>
  </g>
</svg>