<?xml version="1.0" encoding="UTF-8"?>
<svg id="Livello_1" data-name="Livello 1" xmlns="http://www.w3.org/2000/svg" xmlns:xlink="http://www.w3.org/1999/xlink" viewBox="0 0 1000 1000">
  <defs>
    <style>
      .cls-1 {
        fill: url(#Sfumatura_senza_nome_11);
      }

      .cls-2 {
        fill: #fff;
      }

      .cls-3 {
        filter: url(#drop-shadow-131);
      }

      .cls-4 {
        fill: url(#Sfumatura_senza_nome_113-3);
      }

      .cls-5 {
        fill: url(#Sfumatura_senza_nome_113-2);
      }

      .cls-6 {
        fill: url(#Sfumatura_senza_nome_8);
      }

      .cls-7 {
        fill: url(#Sfumatura_senza_nome_113);
      }
    </style>
    <linearGradient id="Sfumatura_senza_nome_11" data-name="Sfumatura senza nome 11" x1="200.72" y1="-6235.82" x2="743" y2="-6235.82" gradientTransform="translate(0 -5690.86) scale(1 -1)" gradientUnits="userSpaceOnUse">
      <stop offset="0" stop-color="#90e0ef"/>
      <stop offset="1" stop-color="#00b4d8"/>
    </linearGradient>
    <linearGradient id="Sfumatura_senza_nome_113" data-name="Sfumatura senza nome 113" x1="200.72" y1="-5949.87" x2="742.99" y2="-5949.87" gradientTransform="translate(0 -5690.86) scale(1 -1)" gradientUnits="userSpaceOnUse">
      <stop offset="0" stop-color="#0077b6"/>
      <stop offset="1" stop-color="#03045e"/>
    </linearGradient>
    <linearGradient id="Sfumatura_senza_nome_113-2" data-name="Sfumatura senza nome 113" y1="-6142.56" y2="-6142.56" xlink:href="#Sfumatura_senza_nome_113"/>
    <linearGradient id="Sfumatura_senza_nome_113-3" data-name="Sfumatura senza nome 113" y1="-6327.37" y2="-6327.37" xlink:href="#Sfumatura_senza_nome_113"/>
    <filter id="drop-shadow-131" x="559.27" y="213.57" width="364" height="220" filterUnits="userSpaceOnUse">
      <feOffset dx="7" dy="7"/>
      <feGaussianBlur result="blur" stdDeviation="7"/>
      <feFlood flood-color="#000" flood-opacity=".4"/>
      <feComposite in2="blur" operator="in"/>
      <feComposite in="SourceGraphic"/>
    </filter>
    <linearGradient id="Sfumatura_senza_nome_8" data-name="Sfumatura senza nome 8" x1="573.48" y1="316.74" x2="894.83" y2="316.74" gradientUnits="userSpaceOnUse">
      <stop offset="0" stop-color="#00b4d8"/>
      <stop offset="1" stop-color="#0077b6"/>
    </linearGradient>
  </defs>
  <g>
    <path class="cls-1" d="M742.99,766.33c0,35.68-121.4,64.59-271.13,64.59s-271.13-28.92-271.13-64.59v-507.33h542.28v507.33h-.01Z"/>
    <ellipse class="cls-7" cx="471.86" cy="259.01" rx="271.13" ry="64.59"/>
    <path class="cls-5" d="M742.99,443.82c0,35.68-121.4,64.59-271.13,64.59s-271.13-28.92-271.13-64.59v-48.83c0,35.68,121.4,64.59,271.13,64.59s271.13-28.92,271.13-64.59v48.83Z"/>
    <path class="cls-4" d="M742.99,628.63c0,35.68-121.4,64.59-271.13,64.59s-271.13-28.92-271.13-64.59v-48.83c0,35.68,121.4,64.59,271.13,64.59s271.13-28.92,271.13-64.59v48.83Z"/>
  </g>
  <g class="cls-3">
    <path class="cls-6" d="M856.88,405.08h-188.89c-4.43,0-8.71-1.67-11.97-4.67l-76.83-70.66c-7.62-7.01-7.62-19.02,0-26.03,25.61-23.55,51.22-47.11,76.83-70.66,3.26-3,7.54-4.67,11.97-4.67h188.89c20.96,0,37.95,16.99,37.95,37.95v100.79c0,20.96-16.99,37.95-37.95,37.95Z"/>
    <circle class="cls-2" cx="632.69" cy="316.74" r="14.06"/>
    <rect class="cls-2" x="679.31" y="353.32" width="179.88" height="13.55" rx="6.78" ry="6.78"/>
  </g>
</svg>