<?xml version="1.0" encoding="UTF-8"?>
<svg id="Livello_1" data-name="Livello 1" xmlns="http://www.w3.org/2000/svg" xmlns:xlink="http://www.w3.org/1999/xlink" viewBox="0 0 1000 1000">
  <defs>
    <style>
      .cls-1 {
        fill: url(#Sfumatura_senza_nome_11);
      }

      .cls-2 {
        fill: url(#Sfumatura_senza_nome_11-5);
      }

      .cls-3 {
        fill: url(#Sfumatura_senza_nome_11-6);
      }

      .cls-4 {
        fill: url(#Sfumatura_senza_nome_11-4);
      }

      .cls-5 {
        fill: url(#Sfumatura_senza_nome_11-3);
      }

      .cls-6 {
        fill: url(#Sfumatura_senza_nome_11-2);
      }

      .cls-7 {
        fill: #fff;
        filter: url(#drop-shadow-142);
        stroke: url(#Sfumatura_senza_nome_14);
        stroke-miterlimit: 10;
        stroke-width: 4.1px;
      }

      .cls-8 {
        fill: url(#Sfumatura_senza_nome_113-3);
        filter: url(#drop-shadow-143);
      }

      .cls-9 {
        fill: url(#Sfumatura_senza_nome_113-2);
      }

      .cls-10 {
        fill: url(#Sfumatura_senza_nome_8);
      }

      .cls-11 {
        fill: url(#Sfumatura_senza_nome_113);
      }

      .cls-12 {
        fill: url(#Sfumatura_senza_nome_8-2);
      }
    </style>
    <linearGradient id="Sfumatura_senza_nome_8" data-name="Sfumatura senza nome 8" x1="167.3" y1="713.05" x2="847.7" y2="713.05" gradientUnits="userSpaceOnUse">
      <stop offset="0" stop-color="#00b4d8"/>
      <stop offset="1" stop-color="#0077b6"/>
    </linearGradient>
    <linearGradient id="Sfumatura_senza_nome_11" data-name="Sfumatura senza nome 11" x1="303.78" y1="591.44" x2="711.22" y2="591.44" gradientUnits="userSpaceOnUse">
      <stop offset="0" stop-color="#90e0ef"/>
      <stop offset="1" stop-color="#00b4d8"/>
    </linearGradient>
    <linearGradient id="Sfumatura_senza_nome_8-2" data-name="Sfumatura senza nome 8" x1="424.9" y1="-14994.65" x2="590.12" y2="-14994.65" gradientTransform="translate(0 -14203.72) scale(1 -1)" xlink:href="#Sfumatura_senza_nome_8"/>
    <linearGradient id="Sfumatura_senza_nome_113" data-name="Sfumatura senza nome 113" x1="375.91" y1="564.18" x2="639.08" y2="564.18" gradientUnits="userSpaceOnUse">
      <stop offset="0" stop-color="#0077b6"/>
      <stop offset="1" stop-color="#03045e"/>
    </linearGradient>
    <linearGradient id="Sfumatura_senza_nome_113-2" data-name="Sfumatura senza nome 113" x1="420.38" y1="320.95" x2="594.64" y2="320.95" xlink:href="#Sfumatura_senza_nome_113"/>
    <linearGradient id="Sfumatura_senza_nome_11-2" data-name="Sfumatura senza nome 11" x1="448.26" y1="593.35" x2="478.88" y2="593.35" xlink:href="#Sfumatura_senza_nome_11"/>
    <linearGradient id="Sfumatura_senza_nome_11-3" data-name="Sfumatura senza nome 11" x1="492.2" y1="569.52" x2="522.82" y2="569.52" xlink:href="#Sfumatura_senza_nome_11"/>
    <linearGradient id="Sfumatura_senza_nome_11-4" data-name="Sfumatura senza nome 11" x1="536.14" y1="606.78" x2="566.76" y2="606.78" xlink:href="#Sfumatura_senza_nome_11"/>
    <linearGradient id="Sfumatura_senza_nome_11-5" data-name="Sfumatura senza nome 11" x1="580.07" y1="626.14" x2="610.7" y2="626.14" xlink:href="#Sfumatura_senza_nome_11"/>
    <linearGradient id="Sfumatura_senza_nome_11-6" data-name="Sfumatura senza nome 11" x1="404.32" y1="643.09" x2="434.95" y2="643.09" xlink:href="#Sfumatura_senza_nome_11"/>
    <linearGradient id="Sfumatura_senza_nome_14" data-name="Sfumatura senza nome 14" x1="623.58" y1="376.81" x2="832.71" y2="376.81" gradientUnits="userSpaceOnUse">
      <stop offset="0" stop-color="#90e0ef"/>
      <stop offset="1" stop-color="#00b4d8"/>
    </linearGradient>
    <filter id="drop-shadow-142" x="615.71" y="250.3" width="228" height="255" filterUnits="userSpaceOnUse">
      <feOffset dx="2.05" dy="2.05"/>
      <feGaussianBlur result="blur" stdDeviation="3.28"/>
      <feFlood flood-color="#000" flood-opacity=".2"/>
      <feComposite in2="blur" operator="in"/>
      <feComposite in="SourceGraphic"/>
    </filter>
    <linearGradient id="Sfumatura_senza_nome_113-3" data-name="Sfumatura senza nome 113" x1="684.36" y1="348.67" x2="771.93" y2="348.67" xlink:href="#Sfumatura_senza_nome_113"/>
    <filter id="drop-shadow-143" x="675.71" y="278.3" width="109" height="145" filterUnits="userSpaceOnUse">
      <feOffset dx="2.05" dy="2.05"/>
      <feGaussianBlur result="blur-2" stdDeviation="3.28"/>
      <feFlood flood-color="#000" flood-opacity=".2"/>
      <feComposite in2="blur-2" operator="in"/>
      <feComposite in="SourceGraphic"/>
    </filter>
  </defs>
  <g>
    <path class="cls-10" d="M847.7,572.02v282.06c0,4.33-3.51,7.84-7.84,7.84H175.14c-4.33,0-7.84-3.51-7.84-7.84v-282.06c0-4.33,3.51-7.84,7.84-7.84h183.73v117.09c0,9.39,7.65,17.04,17.04,17.04h263.17c9.4,0,17.04-7.65,17.04-17.04v-117.09h183.73c4.33,0,7.84,3.51,7.84,7.84Z"/>
    <path class="cls-1" d="M703.38,320.95h-94.94v73.17c0,10.3-8.38,18.7-18.7,18.7h-164.46c-10.31,0-18.7-8.39-18.7-18.7v-73.17h-94.96c-4.32,0-7.84,3.51-7.84,7.84v525.29c0,4.32,3.51,7.84,7.84,7.84h391.76c4.33,0,7.84-3.51,7.84-7.84V328.79c0-4.32-3.51-7.84-7.84-7.84ZM656.12,681.27c0,9.39-7.64,17.04-17.04,17.04h-263.17c-9.39,0-17.04-7.65-17.04-17.04v-234.19c0-9.38,7.65-17.03,17.04-17.03h263.17c9.4,0,17.04,7.65,17.04,17.03v234.19Z"/>
    <path class="cls-12" d="M424.9,727.79h0c0,4.32,3.51,7.84,7.84,7.84h3.79c4.32,0,7.84,3.51,7.84,7.84v110.61c0,4.32,3.51,7.84,7.84,7.84h110.61c4.32,0,7.84-3.51,7.84-7.84v-110.61c0-4.32,3.51-7.84,7.84-7.84h3.79c4.32,0,7.84-3.51,7.84-7.84h0c0-4.32-3.51-7.84-7.84-7.84h-149.54c-4.32,0-7.84,3.51-7.84,7.84h0Z"/>
    <rect class="cls-11" x="375.91" y="446.27" width="263.17" height="235.81" rx="7.4" ry="7.4"/>
    <path class="cls-9" d="M589.74,242.88h-164.46c-2.7,0-4.9,2.19-4.9,4.89v146.35c0,2.71,2.2,4.89,4.9,4.89h164.46c2.7,0,4.89-2.19,4.89-4.89v-146.35c0-2.7-2.19-4.89-4.89-4.89ZM569.34,341.97c0,3.42-2.77,6.19-6.19,6.19h-22.24c-3.42,0-6.19,2.77-6.19,6.19v22.24c0,3.42-2.77,6.19-6.19,6.19h-42.05c-3.42,0-6.19-2.77-6.19-6.19v-22.24c0-3.42-2.77-6.19-6.19-6.19h-22.24c-3.42,0-6.19-2.77-6.19-6.19v-42.05c0-3.42,2.77-6.19,6.19-6.19h22.24c3.42,0,6.19-2.77,6.19-6.19v-22.24c0-3.42,2.77-6.19,6.19-6.19h42.05c3.42,0,6.19,2.77,6.19,6.19v22.24c0,3.42,2.77,6.19,6.19,6.19h22.24c3.42,0,6.19,2.77,6.19,6.19v42.05Z"/>
  </g>
  <g>
    <rect class="cls-6" x="448.26" y="521.67" width="30.62" height="143.35" rx="3.27" ry="3.27"/>
    <rect class="cls-5" x="492.2" y="474.02" width="30.62" height="191" rx="3.05" ry="3.05"/>
    <rect class="cls-4" x="536.14" y="548.53" width="30.62" height="116.49" rx="3.23" ry="3.23"/>
    <rect class="cls-2" x="580.07" y="587.26" width="30.62" height="77.76" rx="3.79" ry="3.79"/>
    <rect class="cls-3" x="404.32" y="621.16" width="30.62" height="43.87" rx="3.7" ry="3.7"/>
  </g>
  <g>
    <path class="cls-7" d="M723.59,490.63c2.34,2.91,6.76,2.91,9.1,0,22.45-27.97,60.16-48.87,80.02-95.58,17.67-41.56,13.65-96.17,17.89-127.61.47-3.51-2.24-6.63-5.78-6.63h-193.37c-3.54,0-6.25,3.12-5.78,6.63,4.24,31.44.22,86.05,17.89,127.61,19.86,46.71,57.57,67.62,80.02,95.58Z"/>
    <path class="cls-8" d="M761.93,330.73c.1-5.34.18-12.91-.14-16.3-1.53-16.09-16.61-27.57-32.33-28.16-16.65-.63-33.31,11.09-34.94,28.16-.32,3.38-.25,10.95-.14,16.3h-5.64c-2.41,0-4.36,1.95-4.36,4.36v71.63c0,2.41,1.95,4.36,4.36,4.36h78.85c2.41,0,4.36-1.95,4.36-4.36v-71.63c0-2.41-1.95-4.36-4.36-4.36h-5.64ZM733.8,383.56h-11.31l2.9-11.53c-2.08-1.03-3.49-3.2-3.43-5.69.08-3.17,2.61-5.81,5.78-6.01,3.59-.23,6.58,2.62,6.58,6.17,0,2.42-1.4,4.52-3.43,5.53l2.9,11.53h0ZM751.16,330.46h-45.72c-1.73,0-3.14-1.39-3.16-3.12-.04-3.67-.03-7.57.17-9.66,1.28-13.98,12.63-23.95,25.7-24.17,12.36-.21,24.81,10.99,26.01,24.17.19,2.1.2,5.99.16,9.66-.02,1.73-1.43,3.12-3.16,3.12h0Z"/>
  </g>
</svg>