<?xml version="1.0" encoding="UTF-8"?>
<svg id="Livello_1" data-name="Livello 1" xmlns="http://www.w3.org/2000/svg" xmlns:xlink="http://www.w3.org/1999/xlink" viewBox="0 0 1000 1000">
  <defs>
    <style>
      .cls-1 {
        fill: url(#Sfumatura_senza_nome_11);
      }

      .cls-2 {
        fill: url(#Sfumatura_senza_nome_11-3);
      }

      .cls-3 {
        fill: url(#Sfumatura_senza_nome_11-2);
      }

      .cls-4 {
        opacity: .3;
      }

      .cls-5 {
        fill: url(#Sfumatura_senza_nome_113-4);
      }

      .cls-6 {
        fill: url(#Sfumatura_senza_nome_113-3);
      }

      .cls-7 {
        fill: url(#Sfumatura_senza_nome_113-2);
      }

      .cls-8 {
        fill: url(#Sfumatura_senza_nome_113-5);
      }

      .cls-9 {
        fill: url(#Sfumatura_senza_nome_113-6);
      }

      .cls-10 {
        fill: url(#Sfumatura_senza_nome_113-7);
      }

      .cls-11 {
        fill: url(#Sfumatura_senza_nome_8);
      }

      .cls-12 {
        fill: url(#Sfumatura_senza_nome_113);
      }

      .cls-13 {
        fill: url(#Sfumatura_senza_nome_8-2);
      }

      .cls-14 {
        fill: url(#Sfumatura_senza_nome_8-3);
      }

      .cls-15 {
        fill: url(#Sfumatura_senza_nome_8-4);
      }
    </style>
    <linearGradient id="Sfumatura_senza_nome_11" data-name="Sfumatura senza nome 11" x1="527.86" y1="587.09" x2="747.66" y2="587.09" gradientUnits="userSpaceOnUse">
      <stop offset="0" stop-color="#90e0ef"/>
      <stop offset="1" stop-color="#00b4d8"/>
    </linearGradient>
    <linearGradient id="Sfumatura_senza_nome_113" data-name="Sfumatura senza nome 113" x1="673.13" y1="622.87" x2="709.58" y2="622.87" gradientUnits="userSpaceOnUse">
      <stop offset="0" stop-color="#0077b6"/>
      <stop offset="1" stop-color="#03045e"/>
    </linearGradient>
    <linearGradient id="Sfumatura_senza_nome_113-2" data-name="Sfumatura senza nome 113" x1="725.43" y1="594.51" x2="761.88" y2="594.51" xlink:href="#Sfumatura_senza_nome_113"/>
    <linearGradient id="Sfumatura_senza_nome_113-3" data-name="Sfumatura senza nome 113" x1="777.73" y1="638.86" x2="814.19" y2="638.86" xlink:href="#Sfumatura_senza_nome_113"/>
    <linearGradient id="Sfumatura_senza_nome_113-4" data-name="Sfumatura senza nome 113" x1="830.03" y1="661.91" x2="866.49" y2="661.91" xlink:href="#Sfumatura_senza_nome_113"/>
    <linearGradient id="Sfumatura_senza_nome_113-5" data-name="Sfumatura senza nome 113" x1="620.82" y1="682.09" x2="657.28" y2="682.09" xlink:href="#Sfumatura_senza_nome_113"/>
    <linearGradient id="Sfumatura_senza_nome_8" data-name="Sfumatura senza nome 8" x1="133.1" y1="370.46" x2="527.65" y2="370.46" gradientUnits="userSpaceOnUse">
      <stop offset="0" stop-color="#00b4d8"/>
      <stop offset="1" stop-color="#0077b6"/>
    </linearGradient>
    <linearGradient id="Sfumatura_senza_nome_11-2" data-name="Sfumatura senza nome 11" x1="212.24" y1="334.61" x2="448.51" y2="334.61" xlink:href="#Sfumatura_senza_nome_11"/>
    <linearGradient id="Sfumatura_senza_nome_8-2" data-name="Sfumatura senza nome 8" x1="282.48" y1="-14619.34" x2="378.29" y2="-14619.34" gradientTransform="translate(0 -14203.72) scale(1 -1)" xlink:href="#Sfumatura_senza_nome_8"/>
    <linearGradient id="Sfumatura_senza_nome_113-6" data-name="Sfumatura senza nome 113" x1="279.86" y1="212.45" x2="380.9" y2="212.45" xlink:href="#Sfumatura_senza_nome_113"/>
    <linearGradient id="Sfumatura_senza_nome_8-3" data-name="Sfumatura senza nome 8" x1="133.06" y1="797.43" x2="527.61" y2="797.43" xlink:href="#Sfumatura_senza_nome_8"/>
    <linearGradient id="Sfumatura_senza_nome_11-3" data-name="Sfumatura senza nome 11" x1="212.2" y1="761.58" x2="448.47" y2="761.58" xlink:href="#Sfumatura_senza_nome_11"/>
    <linearGradient id="Sfumatura_senza_nome_8-4" data-name="Sfumatura senza nome 8" x1="282.44" y1="-15046.31" x2="378.25" y2="-15046.31" gradientTransform="translate(0 -14203.72) scale(1 -1)" xlink:href="#Sfumatura_senza_nome_8"/>
    <linearGradient id="Sfumatura_senza_nome_113-7" data-name="Sfumatura senza nome 113" x1="279.82" y1="639.41" x2="380.86" y2="639.41" xlink:href="#Sfumatura_senza_nome_113"/>
  </defs>
  <path class="cls-1" d="M527.86,367.96c17.98-.78,35.97-1.3,53.95-1.72,8.99-.22,17.98-.42,26.97-.56,8.99-.15,17.98-.34,26.97-.41l26.97-.3,26.97-.14,13.49-.06,13.49.03c8.99-.01,17.98.12,26.97.22l3.39.04-.04,3.31c-.47,36.4-1.78,72.79-2.04,109.19-.11,18.2-.12,36.4.06,54.6l.13,13.65.23,13.65.47,27.3c.34,18.2.78,36.4,1.03,54.6.28,18.2.42,36.4.55,54.59l.41,54.59c.09,9.1.08,18.2.09,27.3,0,9.1.05,18.2,0,27.3l-.03,4.28-4.23-.03-26.97-.17c-8.99-.05-17.98-.11-26.97-.23l-26.97-.31-26.97-.42-26.97-.5-26.97-.6c-8.99-.19-17.98-.49-26.97-.75-8.99-.26-17.98-.53-26.97-.89v-.8c8.99-.36,17.98-.62,26.97-.89,8.99-.27,17.98-.56,26.97-.75l26.97-.6,26.97-.5,26.97-.42,26.97-.31c8.99-.12,17.98-.18,26.97-.23l26.97-.17-4.26,4.26c-.06-9.1,0-18.2,0-27.3.01-9.1,0-18.2.09-27.3l.41-54.59c.13-18.2.27-36.4.55-54.59.25-18.2.69-36.4,1.03-54.6l.47-27.3.23-13.65.13-13.65c.17-18.2.17-36.4.06-54.6-.27-36.4-1.57-72.79-2.04-109.19l3.34,3.34c-8.99.1-17.98.23-26.97.22l-13.49.03-13.49-.06-26.97-.14-26.97-.3c-8.99-.08-17.98-.26-26.97-.41-8.99-.14-17.98-.34-26.97-.56-17.98-.42-35.97-.94-53.95-1.72v-.8Z"/>
  <g>
    <rect class="cls-12" x="673.13" y="537.55" width="36.46" height="170.64" rx="3.89" ry="3.89"/>
    <rect class="cls-7" x="725.43" y="480.83" width="36.46" height="227.36" rx="3.63" ry="3.63"/>
    <rect class="cls-6" x="777.73" y="569.52" width="36.46" height="138.67" rx="3.85" ry="3.85"/>
    <rect class="cls-5" x="830.03" y="615.63" width="36.46" height="92.57" rx="4.52" ry="4.52"/>
    <rect class="cls-8" x="620.82" y="655.98" width="36.46" height="52.22" rx="4.4" ry="4.4"/>
  </g>
  <g class="cls-4">
    <path class="cls-11" d="M527.65,288.68v163.56c0,2.51-2.04,4.55-4.55,4.55H137.65c-2.51,0-4.55-2.04-4.55-4.55v-163.56c0-2.51,2.04-4.55,4.55-4.55h106.54v67.9c0,5.45,4.43,9.88,9.88,9.88h152.61c5.45,0,9.88-4.43,9.88-9.88v-67.9h106.54c2.51,0,4.55,2.04,4.55,4.55Z"/>
    <path class="cls-3" d="M443.96,212.45h-55.05v42.43c0,5.98-4.86,10.84-10.84,10.84h-95.37c-5.98,0-10.85-4.87-10.85-10.84v-42.43h-55.06c-2.51,0-4.55,2.04-4.55,4.55v235.24c0,2.51,2.04,4.55,4.55,4.55h227.17c2.51,0,4.55-2.04,4.55-4.55v-235.24c0-2.51-2.03-4.55-4.55-4.55Z"/>
    <path class="cls-13" d="M282.48,379h0c0,2.51,2.03,4.55,4.55,4.55h2.2c2.51,0,4.55,2.03,4.55,4.55v64.14c0,2.51,2.03,4.55,4.55,4.55h64.14c2.51,0,4.55-2.03,4.55-4.55v-64.14c0-2.51,2.03-4.55,4.55-4.55h2.2c2.51,0,4.55-2.03,4.55-4.55h0c0-2.51-2.03-4.55-4.55-4.55h-86.71c-2.51,0-4.55,2.03-4.55,4.55h0Z"/>
    <path class="cls-9" d="M378.07,167.17h-95.37c-1.57,0-2.84,1.27-2.84,2.84v84.87c0,1.57,1.28,2.84,2.84,2.84h95.37c1.57,0,2.84-1.27,2.84-2.84v-84.87c0-1.57-1.27-2.84-2.84-2.84ZM366.23,224.64c0,1.98-1.61,3.59-3.59,3.59h-12.9c-1.98,0-3.59,1.61-3.59,3.59v12.9c0,1.98-1.61,3.59-3.59,3.59h-24.38c-1.98,0-3.59-1.61-3.59-3.59v-12.9c0-1.98-1.61-3.59-3.59-3.59h-12.9c-1.98,0-3.59-1.61-3.59-3.59v-24.38c0-1.98,1.61-3.59,3.59-3.59h12.9c1.98,0,3.59-1.61,3.59-3.59v-12.9c0-1.98,1.61-3.59,3.59-3.59h24.38c1.98,0,3.59,1.61,3.59,3.59v12.9c0,1.98,1.61,3.59,3.59,3.59h12.9c1.98,0,3.59,1.61,3.59,3.59v24.38Z"/>
  </g>
  <g class="cls-4">
    <path class="cls-14" d="M527.61,715.65v163.56c0,2.51-2.04,4.55-4.55,4.55H137.61c-2.51,0-4.55-2.04-4.55-4.55v-163.56c0-2.51,2.04-4.55,4.55-4.55h106.54v67.9c0,5.45,4.43,9.88,9.88,9.88h152.61c5.45,0,9.88-4.43,9.88-9.88v-67.9h106.54c2.51,0,4.55,2.04,4.55,4.55Z"/>
    <path class="cls-2" d="M443.92,639.42h-55.05v42.43c0,5.98-4.86,10.84-10.84,10.84h-95.37c-5.98,0-10.85-4.87-10.85-10.84v-42.43h-55.06c-2.51,0-4.55,2.04-4.55,4.55v235.24c0,2.51,2.04,4.55,4.55,4.55h227.17c2.51,0,4.55-2.04,4.55-4.55v-235.24c0-2.51-2.03-4.55-4.55-4.55Z"/>
    <path class="cls-15" d="M282.44,805.97h0c0,2.51,2.03,4.55,4.55,4.55h2.2c2.51,0,4.55,2.03,4.55,4.55v64.14c0,2.51,2.03,4.55,4.55,4.55h64.14c2.51,0,4.55-2.03,4.55-4.55v-64.14c0-2.51,2.03-4.55,4.55-4.55h2.2c2.51,0,4.55-2.03,4.55-4.55h0c0-2.51-2.03-4.55-4.55-4.55h-86.71c-2.51,0-4.55,2.03-4.55,4.55h0Z"/>
    <path class="cls-10" d="M378.03,594.14h-95.37c-1.57,0-2.84,1.27-2.84,2.84v84.87c0,1.57,1.28,2.84,2.84,2.84h95.37c1.57,0,2.84-1.27,2.84-2.84v-84.87c0-1.57-1.27-2.84-2.84-2.84ZM366.2,651.61c0,1.98-1.61,3.59-3.59,3.59h-12.9c-1.98,0-3.59,1.61-3.59,3.59v12.9c0,1.98-1.61,3.59-3.59,3.59h-24.38c-1.98,0-3.59-1.61-3.59-3.59v-12.9c0-1.98-1.61-3.59-3.59-3.59h-12.9c-1.98,0-3.59-1.61-3.59-3.59v-24.38c0-1.98,1.61-3.59,3.59-3.59h12.9c1.98,0,3.59-1.61,3.59-3.59v-12.9c0-1.98,1.61-3.59,3.59-3.59h24.38c1.98,0,3.59,1.61,3.59,3.59v12.9c0,1.98,1.61,3.59,3.59,3.59h12.9c1.98,0,3.59,1.61,3.59,3.59v24.38Z"/>
  </g>
</svg>