<?xml version="1.0" encoding="UTF-8"?>
<svg id="Livello_1" data-name="Livello 1" xmlns="http://www.w3.org/2000/svg" xmlns:xlink="http://www.w3.org/1999/xlink" viewBox="0 0 1000 1000">
  <defs>
    <style>
      .cls-1 {
        fill: url(#Sfumatura_senza_nome_11);
      }

      .cls-2 {
        fill: url(#Sfumatura_senza_nome_11-8);
      }

      .cls-3 {
        fill: url(#Sfumatura_senza_nome_11-9);
      }

      .cls-4 {
        fill: url(#Sfumatura_senza_nome_11-5);
      }

      .cls-5 {
        fill: url(#Sfumatura_senza_nome_11-6);
      }

      .cls-6 {
        fill: url(#Sfumatura_senza_nome_11-7);
      }

      .cls-7 {
        fill: url(#Sfumatura_senza_nome_11-4);
      }

      .cls-8 {
        fill: url(#Sfumatura_senza_nome_11-3);
      }

      .cls-9 {
        fill: url(#Sfumatura_senza_nome_11-2);
      }

      .cls-10 {
        fill: url(#Sfumatura_senza_nome_190-2);
      }

      .cls-11 {
        fill: url(#Sfumatura_senza_nome_190-4);
      }

      .cls-12 {
        fill: url(#Sfumatura_senza_nome_190-3);
      }

      .cls-13 {
        fill: url(#Sfumatura_senza_nome_190-6);
      }

      .cls-14 {
        fill: url(#Sfumatura_senza_nome_190-5);
      }

      .cls-15 {
        fill: url(#Sfumatura_senza_nome_190-7);
      }

      .cls-16 {
        fill: url(#Sfumatura_senza_nome_11-10);
      }

      .cls-17 {
        fill: url(#Sfumatura_senza_nome_11-12);
      }

      .cls-18 {
        fill: url(#Sfumatura_senza_nome_11-11);
      }

      .cls-19 {
        fill: url(#Sfumatura_senza_nome_11-13);
      }

      .cls-20 {
        fill: url(#Sfumatura_senza_nome_11-14);
      }

      .cls-21 {
        fill: url(#Sfumatura_senza_nome_190);
      }

      .cls-22 {
        fill: url(#Sfumatura_senza_nome_113);
      }
    </style>
    <linearGradient id="Sfumatura_senza_nome_11" data-name="Sfumatura senza nome 11" x1="151.75" y1="503.47" x2="872.91" y2="503.47" gradientUnits="userSpaceOnUse">
      <stop offset="0" stop-color="#90e0ef"/>
      <stop offset="1" stop-color="#00b4d8"/>
    </linearGradient>
    <linearGradient id="Sfumatura_senza_nome_113" data-name="Sfumatura senza nome 113" x1="151.52" y1="260.2" x2="872.91" y2="260.2" gradientUnits="userSpaceOnUse">
      <stop offset="0" stop-color="#0077b6"/>
      <stop offset="1" stop-color="#03045e"/>
    </linearGradient>
    <linearGradient id="Sfumatura_senza_nome_190" data-name="Sfumatura senza nome 190" x1="152.73" y1="408.17" x2="868.07" y2="408.17" gradientUnits="userSpaceOnUse">
      <stop offset="0" stop-color="#030660"/>
      <stop offset="1" stop-color="#0076b5"/>
    </linearGradient>
    <linearGradient id="Sfumatura_senza_nome_190-2" data-name="Sfumatura senza nome 190" x1="151.75" y1="602.64" x2="867.08" y2="602.64" xlink:href="#Sfumatura_senza_nome_190"/>
    <linearGradient id="Sfumatura_senza_nome_190-3" data-name="Sfumatura senza nome 190" x1="153.62" y1="505.41" x2="868.95" y2="505.41" xlink:href="#Sfumatura_senza_nome_190"/>
    <linearGradient id="Sfumatura_senza_nome_190-4" data-name="Sfumatura senza nome 190" y1="699.88" y2="699.88" xlink:href="#Sfumatura_senza_nome_190"/>
    <linearGradient id="Sfumatura_senza_nome_190-5" data-name="Sfumatura senza nome 190" x1="293.02" y1="799.94" x2="293.02" y2="322.43" xlink:href="#Sfumatura_senza_nome_190"/>
    <linearGradient id="Sfumatura_senza_nome_190-6" data-name="Sfumatura senza nome 190" x1="511.28" y1="322.43" x2="511.28" y2="799.94" xlink:href="#Sfumatura_senza_nome_190"/>
    <linearGradient id="Sfumatura_senza_nome_190-7" data-name="Sfumatura senza nome 190" x1="729.55" y1="799.94" x2="729.55" y2="322.43" xlink:href="#Sfumatura_senza_nome_190"/>
    <linearGradient id="Sfumatura_senza_nome_11-2" data-name="Sfumatura senza nome 11" x1="582.52" y1="265.65" x2="645" y2="265.65" xlink:href="#Sfumatura_senza_nome_11"/>
    <linearGradient id="Sfumatura_senza_nome_11-3" data-name="Sfumatura senza nome 11" x1="177.42" y1="258.17" x2="249.15" y2="258.17" xlink:href="#Sfumatura_senza_nome_11"/>
    <linearGradient id="Sfumatura_senza_nome_11-4" data-name="Sfumatura senza nome 11" x1="878.3" y1="-86.59" x2="882.57" y2="-86.59" gradientTransform="translate(-504.61 346.57)" xlink:href="#Sfumatura_senza_nome_11"/>
    <linearGradient id="Sfumatura_senza_nome_11-5" data-name="Sfumatura senza nome 11" x1="864.96" y1="-86.59" x2="869.22" y2="-86.59" gradientTransform="translate(-504.61 346.57)" xlink:href="#Sfumatura_senza_nome_11"/>
    <linearGradient id="Sfumatura_senza_nome_11-6" data-name="Sfumatura senza nome 11" x1="891.65" y1="-86.59" x2="895.91" y2="-86.59" gradientTransform="translate(-504.61 346.57)" xlink:href="#Sfumatura_senza_nome_11"/>
    <linearGradient id="Sfumatura_senza_nome_11-7" data-name="Sfumatura senza nome 11" x1="904.99" y1="-86.59" x2="909.26" y2="-86.59" gradientTransform="translate(-504.61 346.57)" xlink:href="#Sfumatura_senza_nome_11"/>
    <linearGradient id="Sfumatura_senza_nome_11-8" data-name="Sfumatura senza nome 11" x1="2462.62" y1="-1492.61" x2="2466.88" y2="-1492.61" gradientTransform="translate(-2082.17 1752.59)" xlink:href="#Sfumatura_senza_nome_11"/>
    <linearGradient id="Sfumatura_senza_nome_11-9" data-name="Sfumatura senza nome 11" x1="927.08" y1="-86.59" x2="931.34" y2="-86.59" gradientTransform="translate(-504.61 346.57)" xlink:href="#Sfumatura_senza_nome_11"/>
    <linearGradient id="Sfumatura_senza_nome_11-10" data-name="Sfumatura senza nome 11" x1="756.6" y1="272.33" x2="772.48" y2="272.33" xlink:href="#Sfumatura_senza_nome_11"/>
    <linearGradient id="Sfumatura_senza_nome_11-11" data-name="Sfumatura senza nome 11" x1="779.38" y1="259.98" x2="795.26" y2="259.98" xlink:href="#Sfumatura_senza_nome_11"/>
    <linearGradient id="Sfumatura_senza_nome_11-12" data-name="Sfumatura senza nome 11" x1="802.16" y1="279.29" x2="818.03" y2="279.29" xlink:href="#Sfumatura_senza_nome_11"/>
    <linearGradient id="Sfumatura_senza_nome_11-13" data-name="Sfumatura senza nome 11" x1="824.93" y1="289.33" x2="840.81" y2="289.33" xlink:href="#Sfumatura_senza_nome_11"/>
    <linearGradient id="Sfumatura_senza_nome_11-14" data-name="Sfumatura senza nome 11" x1="733.82" y1="298.12" x2="749.7" y2="298.12" xlink:href="#Sfumatura_senza_nome_11"/>
  </defs>
  <rect class="cls-1" x="151.75" y="204.91" width="721.15" height="597.11" rx="27.41" ry="27.41"/>
  <path class="cls-22" d="M179.78,197.97h664.87c15.6,0,28.26,12.66,28.26,28.26v96.19H151.52v-96.19c0-15.6,12.66-28.26,28.26-28.26Z"/>
  <path class="cls-21" d="M152.73,407.97c29.81-.74,59.61-1.07,89.42-1.35l22.35-.15,22.35-.07c14.9-.06,29.81-.01,44.71.11l44.71.55,22.35.29,22.35.17c29.81.12,59.61-.1,89.42-.45,29.81-.38,59.61-.67,89.42-.79,29.81-.14,59.61-.31,89.42-.25,59.61.2,119.22.66,178.83,1.93v.4c-59.61,1.27-119.22,1.73-178.83,1.93-29.81.05-59.61-.11-89.42-.25-29.81-.12-59.61-.4-89.42-.79-29.81-.34-59.61-.56-89.42-.45l-22.35.17-22.35.29-44.71.55c-14.9.12-29.81.16-44.71.11l-22.35-.07-22.35-.15c-29.81-.28-59.61-.61-89.42-1.35v-.4Z"/>
  <path class="cls-10" d="M151.75,602.44c29.81-.74,59.61-1.07,89.42-1.35l22.35-.15,22.35-.07c14.9-.06,29.81-.01,44.71.11l44.71.55,22.35.29,22.35.17c29.81.12,59.61-.1,89.42-.45,29.81-.38,59.61-.67,89.42-.79,29.81-.14,59.61-.31,89.42-.25,59.61.2,119.22.66,178.83,1.93v.4c-59.61,1.27-119.22,1.73-178.83,1.93-29.81.05-59.61-.11-89.42-.25-29.81-.12-59.61-.4-89.42-.79-29.81-.34-59.61-.56-89.42-.45l-22.35.17-22.35.29-44.71.55c-14.9.12-29.81.16-44.71.11l-22.35-.07-22.35-.15c-29.81-.28-59.61-.61-89.42-1.35v-.4Z"/>
  <path class="cls-12" d="M153.62,505.41l22.35-.3,22.35-.23,44.71-.45,89.42-.56c29.81-.24,59.61-.2,89.42-.29l89.42-.18,89.42.18,44.71.09,22.35.05,22.35.14,89.42.56,44.71.45,22.35.23,22.35.3-22.35.3-22.35.23-44.71.45-89.42.56-22.35.14-22.35.05-44.71.09-89.42.18-89.42-.18c-29.81-.09-59.61-.05-89.42-.29l-89.42-.56-44.71-.45-22.35-.23-22.35-.3Z"/>
  <path class="cls-11" d="M152.73,699.88l22.35-.3,22.35-.23,44.71-.45,89.42-.56c29.81-.24,59.61-.2,89.42-.29l89.42-.18,89.42.18,44.71.09,22.35.05,22.35.14,89.42.56,44.71.45,22.35.23,22.35.3-22.35.3-22.35.23-44.71.45-89.42.56-22.35.14-22.35.05-44.71.09-89.42.18-89.42-.18c-29.81-.09-59.61-.04-89.42-.29l-89.42-.56-44.71-.45-22.35-.23-22.35-.3Z"/>
  <path class="cls-14" d="M292.82,799.94c-.72-19.9-1.13-39.79-1.35-59.69l-.15-14.92-.07-14.92c-.06-9.95-.01-19.9.11-29.84l.55-29.84.29-14.92.17-14.92c.15-19.9-.1-39.79-.45-59.69-.38-19.9-.67-39.79-.79-59.69-.14-19.9-.31-39.79-.25-59.69.2-39.79.66-79.59,1.93-119.38h.4c1.27,39.79,1.73,79.59,1.93,119.38.05,19.9-.11,39.79-.25,59.69-.12,19.9-.4,39.79-.79,59.69-.35,19.9-.6,39.79-.45,59.69l.17,14.92.29,14.92.55,29.84c.12,9.95.16,19.9.11,29.84l-.07,14.92-.15,14.92c-.22,19.9-.63,39.79-1.35,59.69h-.4Z"/>
  <path class="cls-13" d="M511.28,322.43l.3,14.92.23,14.92.45,29.84.56,59.69c.37,39.79.42,79.59.47,119.38l-.11,59.69c-.12,19.9-.13,39.79-.36,59.69l-.56,59.69-.45,29.84-.23,14.92-.3,14.92-.3-14.92-.23-14.92-.45-29.84-.56-59.69c-.23-19.9-.24-39.79-.36-59.69l-.11-59.69c.05-39.79.1-79.59.47-119.38l.56-59.69.45-29.84.23-14.92.3-14.92Z"/>
  <path class="cls-15" d="M729.35,799.94c-.72-19.9-1.13-39.79-1.35-59.69l-.15-14.92-.07-14.92c-.06-9.95-.01-19.9.11-29.84l.55-29.84.29-14.92.17-14.92c.15-19.9-.1-39.79-.45-59.69-.38-19.9-.67-39.79-.79-59.69-.14-19.9-.31-39.79-.25-59.69.2-39.79.66-79.59,1.93-119.38h.4c1.27,39.79,1.73,79.59,1.93,119.38.05,19.9-.11,39.79-.25,59.69-.12,19.9-.4,39.79-.79,59.69-.35,19.9-.6,39.79-.45,59.69l.17,14.92.29,14.92.55,29.84c.12,9.95.16,19.9.11,29.84l-.07,14.92-.15,14.92c-.22,19.9-.63,39.79-1.35,59.69h-.4Z"/>
  <path class="cls-9" d="M596.59,222.4v42.6c0,1.67,1.32,4.87,2.44,6.2,6.48,7.66,16.72.83,22.33-4.32v-44.47h10.51l-.02,44.87c.57,2.86.07,8.52,3.98,9.16,5.24.85,6.01-4.29,6.97-8.19l2.2-.05c-.47,3.78-1.06,7.5-3.56,10.51-5.13,6.19-15.91,4.72-18.87-2.91-.7-1.81-.71-3.59-1.4-5.35-6.51,6.61-15.13,14.94-25.22,10.95-1.85-.73-3.17-2.11-5-2.69.36,2.45.12,5.22.42,7.64.57,4.58,3.87,12.45,3.68,16.14-.35,6.94-9.41,8.95-11.91,2.6s3.26-15.95,2.94-22.8l-.02-59.88h10.51Z"/>
  <path class="cls-8" d="M243.16,217.14c.27.09.42,1.24.46,1.57.59,5.53,1.27,12.05,1.48,17.56.02.62.24,1.81-.46,1.94-3.27.6-2.34-1.23-2.73-3.55-1.56-9.18-5.65-11.59-14.63-11.98h-30.41s26,31.71,26,31.71l-29.7,33.18h35.59c3.67-.4,7.65-.84,10.86-2.81,3.78-2.32,5.64-7.14,6.79-11.24l2.76.56-3.69,25.13h-68.02c.09-.95-.28-2.08.37-2.87l33.09-36.6-33.46-40.3v-2.31s65.7,0,65.7,0Z"/>
  <g>
    <rect class="cls-7" x="373.69" y="217.14" width="4.26" height="85.68" rx=".76" ry=".76"/>
    <rect class="cls-4" x="360.35" y="217.14" width="4.26" height="85.68" rx=".76" ry=".76"/>
    <rect class="cls-5" x="387.04" y="217.14" width="4.26" height="85.68" rx=".76" ry=".76"/>
    <rect class="cls-6" x="400.38" y="217.14" width="4.26" height="85.68" rx=".76" ry=".76"/>
    <rect class="cls-2" x="380.45" y="217.14" width="4.26" height="85.68" rx=".76" ry=".76" transform="translate(288.41 -192.89) rotate(44.06)"/>
    <rect class="cls-3" x="422.47" y="217.14" width="4.26" height="85.68" rx=".76" ry=".76"/>
  </g>
  <g>
    <rect class="cls-16" x="756.6" y="235.17" width="15.88" height="74.31" rx="1.69" ry="1.69"/>
    <rect class="cls-18" x="779.38" y="210.47" width="15.88" height="99.01" rx="1.58" ry="1.58"/>
    <rect class="cls-17" x="802.16" y="249.1" width="15.88" height="60.39" rx="1.68" ry="1.68"/>
    <rect class="cls-19" x="824.93" y="269.17" width="15.88" height="40.31" rx="1.97" ry="1.97"/>
    <rect class="cls-20" x="733.82" y="286.75" width="15.88" height="22.74" rx="1.92" ry="1.92"/>
  </g>
</svg>