<?xml version="1.0" encoding="UTF-8"?>
<svg id="Livello_1" data-name="Livello 1" xmlns="http://www.w3.org/2000/svg" xmlns:xlink="http://www.w3.org/1999/xlink" viewBox="0 0 2000 2000">
  <defs>
    <style>
      .cls-1 {
        fill: #00bee0;
      }

      .cls-2 {
        stroke: url(#Sfumatura_senza_nome_113);
      }

      .cls-2, .cls-3, .cls-4, .cls-5, .cls-6, .cls-7, .cls-8, .cls-9, .cls-10, .cls-11, .cls-12, .cls-13, .cls-14, .cls-15, .cls-16, .cls-17, .cls-18, .cls-19, .cls-20, .cls-21, .cls-22, .cls-23 {
        fill: none;
        stroke-linecap: round;
        stroke-miterlimit: 10;
        stroke-width: 5px;
      }

      .cls-3 {
        stroke: url(#Sfumatura_senza_nome_605);
      }

      .cls-4 {
        stroke: url(#Sfumatura_senza_nome_113-5);
      }

      .cls-5 {
        stroke: url(#Sfumatura_senza_nome_113-3);
      }

      .cls-6 {
        stroke: url(#Sfumatura_senza_nome_113-7);
      }

      .cls-7 {
        stroke: url(#Sfumatura_senza_nome_113-9);
      }

      .cls-8 {
        stroke: url(#Sfumatura_senza_nome_605-3);
      }

      .cls-9 {
        stroke: url(#Sfumatura_senza_nome_605-5);
      }

      .cls-10 {
        stroke: url(#Sfumatura_senza_nome_605-7);
      }

      .cls-11 {
        stroke: url(#Sfumatura_senza_nome_113-16);
        stroke-dasharray: 32.34 32.34;
      }

      .cls-24 {
        fill: url(#Sfumatura_senza_nome_11);
      }

      .cls-12 {
        stroke: url(#Sfumatura_senza_nome_113-6);
      }

      .cls-12, .cls-21 {
        stroke-dasharray: 29.19 29.19;
      }

      .cls-13 {
        stroke: url(#Sfumatura_senza_nome_113-8);
        stroke-dasharray: 32.12 32.12;
      }

      .cls-25 {
        fill: url(#Sfumatura_senza_nome_11-8);
      }

      .cls-26 {
        fill: url(#Sfumatura_senza_nome_11-9);
      }

      .cls-27 {
        fill: url(#Sfumatura_senza_nome_11-5);
      }

      .cls-28 {
        fill: url(#Sfumatura_senza_nome_11-6);
      }

      .cls-29 {
        fill: url(#Sfumatura_senza_nome_11-7);
      }

      .cls-30 {
        fill: url(#Sfumatura_senza_nome_11-4);
      }

      .cls-31 {
        fill: url(#Sfumatura_senza_nome_11-3);
      }

      .cls-32 {
        fill: url(#Sfumatura_senza_nome_11-2);
      }

      .cls-33 {
        fill: #00146b;
      }

      .cls-14 {
        stroke: url(#Sfumatura_senza_nome_113-17);
      }

      .cls-15 {
        stroke: url(#Sfumatura_senza_nome_113-19);
      }

      .cls-16 {
        stroke: url(#Sfumatura_senza_nome_113-11);
      }

      .cls-17 {
        stroke: url(#Sfumatura_senza_nome_113-13);
      }

      .cls-18 {
        stroke: url(#Sfumatura_senza_nome_113-15);
      }

      .cls-19 {
        stroke: url(#Sfumatura_senza_nome_113-18);
      }

      .cls-19, .cls-20 {
        stroke-dasharray: 27.41 27.41;
      }

      .cls-20 {
        stroke: url(#Sfumatura_senza_nome_113-10);
      }

      .cls-21 {
        stroke: url(#Sfumatura_senza_nome_113-14);
      }

      .cls-22 {
        stroke: url(#Sfumatura_senza_nome_113-2);
        stroke-dasharray: 28.57 28.57;
      }

      .cls-34 {
        fill: url(#Sfumatura_senza_nome_113-30);
      }

      .cls-35 {
        fill: url(#Sfumatura_senza_nome_113-12);
      }

      .cls-36 {
        fill: url(#Sfumatura_senza_nome_113-29);
      }

      .cls-37 {
        fill: url(#Sfumatura_senza_nome_113-23);
      }

      .cls-38 {
        fill: url(#Sfumatura_senza_nome_113-25);
      }

      .cls-39 {
        fill: url(#Sfumatura_senza_nome_113-22);
      }

      .cls-40 {
        fill: url(#Sfumatura_senza_nome_113-26);
      }

      .cls-41 {
        fill: url(#Sfumatura_senza_nome_113-24);
      }

      .cls-42 {
        fill: url(#Sfumatura_senza_nome_113-21);
      }

      .cls-43 {
        fill: url(#Sfumatura_senza_nome_113-28);
      }

      .cls-44 {
        fill: url(#Sfumatura_senza_nome_113-27);
      }

      .cls-45 {
        fill: url(#Sfumatura_senza_nome_113-39);
      }

      .cls-46 {
        fill: url(#Sfumatura_senza_nome_113-35);
      }

      .cls-47 {
        fill: url(#Sfumatura_senza_nome_113-36);
      }

      .cls-48 {
        fill: url(#Sfumatura_senza_nome_113-20);
      }

      .cls-49 {
        fill: url(#Sfumatura_senza_nome_113-33);
      }

      .cls-50 {
        fill: url(#Sfumatura_senza_nome_113-34);
      }

      .cls-51 {
        fill: url(#Sfumatura_senza_nome_113-31);
      }

      .cls-52 {
        fill: url(#Sfumatura_senza_nome_113-32);
      }

      .cls-53 {
        fill: url(#Sfumatura_senza_nome_113-37);
      }

      .cls-54 {
        fill: url(#Sfumatura_senza_nome_113-38);
      }

      .cls-55 {
        fill: url(#Sfumatura_senza_nome_113-72);
      }

      .cls-56 {
        fill: url(#Sfumatura_senza_nome_113-71);
      }

      .cls-57 {
        fill: url(#Sfumatura_senza_nome_113-70);
      }

      .cls-58 {
        fill: url(#Sfumatura_senza_nome_113-49);
      }

      .cls-59 {
        fill: url(#Sfumatura_senza_nome_113-41);
      }

      .cls-60 {
        fill: url(#Sfumatura_senza_nome_113-42);
      }

      .cls-61 {
        fill: url(#Sfumatura_senza_nome_113-43);
      }

      .cls-62 {
        fill: url(#Sfumatura_senza_nome_113-51);
      }

      .cls-63 {
        fill: url(#Sfumatura_senza_nome_113-57);
      }

      .cls-64 {
        fill: url(#Sfumatura_senza_nome_113-54);
      }

      .cls-65 {
        fill: url(#Sfumatura_senza_nome_113-40);
      }

      .cls-66 {
        fill: url(#Sfumatura_senza_nome_113-48);
      }

      .cls-67 {
        fill: url(#Sfumatura_senza_nome_113-44);
      }

      .cls-68 {
        fill: url(#Sfumatura_senza_nome_113-45);
      }

      .cls-69 {
        fill: url(#Sfumatura_senza_nome_113-46);
      }

      .cls-70 {
        fill: url(#Sfumatura_senza_nome_113-47);
      }

      .cls-71 {
        fill: url(#Sfumatura_senza_nome_113-53);
      }

      .cls-72 {
        fill: url(#Sfumatura_senza_nome_113-55);
      }

      .cls-73 {
        fill: url(#Sfumatura_senza_nome_113-52);
      }

      .cls-74 {
        fill: url(#Sfumatura_senza_nome_113-58);
      }

      .cls-75 {
        fill: url(#Sfumatura_senza_nome_113-56);
      }

      .cls-76 {
        fill: url(#Sfumatura_senza_nome_113-59);
      }

      .cls-77 {
        fill: url(#Sfumatura_senza_nome_113-50);
      }

      .cls-78 {
        fill: url(#Sfumatura_senza_nome_113-64);
      }

      .cls-79 {
        fill: url(#Sfumatura_senza_nome_113-62);
      }

      .cls-80 {
        fill: url(#Sfumatura_senza_nome_113-65);
      }

      .cls-81 {
        fill: url(#Sfumatura_senza_nome_113-67);
      }

      .cls-82 {
        fill: url(#Sfumatura_senza_nome_113-60);
      }

      .cls-83 {
        fill: url(#Sfumatura_senza_nome_113-63);
      }

      .cls-84 {
        fill: url(#Sfumatura_senza_nome_113-61);
      }

      .cls-85 {
        fill: url(#Sfumatura_senza_nome_113-69);
      }

      .cls-86 {
        fill: url(#Sfumatura_senza_nome_113-66);
      }

      .cls-87 {
        fill: url(#Sfumatura_senza_nome_113-68);
      }

      .cls-88 {
        fill: url(#Sfumatura_senza_nome_599-2);
      }

      .cls-89 {
        fill: url(#Sfumatura_senza_nome_605-4);
      }

      .cls-90 {
        fill: url(#Sfumatura_senza_nome_605-6);
      }

      .cls-91 {
        fill: url(#Sfumatura_senza_nome_605-8);
      }

      .cls-92 {
        fill: url(#Sfumatura_senza_nome_605-2);
      }

      .cls-93 {
        fill: url(#Sfumatura_senza_nome_11-16);
      }

      .cls-94 {
        fill: url(#Sfumatura_senza_nome_11-10);
      }

      .cls-95 {
        fill: url(#Sfumatura_senza_nome_11-15);
      }

      .cls-96 {
        fill: url(#Sfumatura_senza_nome_11-12);
      }

      .cls-97 {
        fill: url(#Sfumatura_senza_nome_11-11);
      }

      .cls-98 {
        fill: url(#Sfumatura_senza_nome_11-13);
      }

      .cls-99 {
        fill: url(#Sfumatura_senza_nome_11-38);
      }

      .cls-100 {
        fill: url(#Sfumatura_senza_nome_11-18);
      }

      .cls-101 {
        fill: url(#Sfumatura_senza_nome_11-19);
      }

      .cls-102 {
        fill: url(#Sfumatura_senza_nome_11-17);
      }

      .cls-103 {
        fill: url(#Sfumatura_senza_nome_11-37);
      }

      .cls-104 {
        fill: url(#Sfumatura_senza_nome_11-39);
      }

      .cls-105 {
        fill: url(#Sfumatura_senza_nome_11-14);
      }

      .cls-106 {
        fill: url(#Sfumatura_senza_nome_11-53);
      }

      .cls-107 {
        fill: url(#Sfumatura_senza_nome_11-50);
      }

      .cls-108 {
        fill: url(#Sfumatura_senza_nome_11-57);
      }

      .cls-109 {
        fill: url(#Sfumatura_senza_nome_11-51);
      }

      .cls-110 {
        fill: url(#Sfumatura_senza_nome_11-54);
      }

      .cls-111 {
        fill: url(#Sfumatura_senza_nome_11-56);
      }

      .cls-112 {
        fill: url(#Sfumatura_senza_nome_11-52);
      }

      .cls-113 {
        fill: url(#Sfumatura_senza_nome_11-55);
      }

      .cls-114 {
        fill: url(#Sfumatura_senza_nome_11-58);
      }

      .cls-115 {
        fill: url(#Sfumatura_senza_nome_11-42);
      }

      .cls-116 {
        fill: url(#Sfumatura_senza_nome_11-45);
      }

      .cls-117 {
        fill: url(#Sfumatura_senza_nome_11-44);
      }

      .cls-118 {
        fill: url(#Sfumatura_senza_nome_11-47);
      }

      .cls-119 {
        fill: url(#Sfumatura_senza_nome_11-41);
      }

      .cls-120 {
        fill: url(#Sfumatura_senza_nome_11-40);
      }

      .cls-121 {
        fill: url(#Sfumatura_senza_nome_11-43);
      }

      .cls-122 {
        fill: url(#Sfumatura_senza_nome_11-46);
      }

      .cls-123 {
        fill: url(#Sfumatura_senza_nome_11-49);
      }

      .cls-124 {
        fill: url(#Sfumatura_senza_nome_11-48);
      }

      .cls-125 {
        fill: url(#Sfumatura_senza_nome_11-59);
      }

      .cls-126 {
        fill: url(#Sfumatura_senza_nome_11-60);
      }

      .cls-127 {
        fill: url(#Sfumatura_senza_nome_11-61);
      }

      .cls-128 {
        fill: url(#Sfumatura_senza_nome_11-25);
      }

      .cls-129 {
        fill: url(#Sfumatura_senza_nome_11-24);
      }

      .cls-130 {
        fill: url(#Sfumatura_senza_nome_11-23);
      }

      .cls-131 {
        fill: url(#Sfumatura_senza_nome_11-26);
      }

      .cls-132 {
        fill: url(#Sfumatura_senza_nome_11-21);
      }

      .cls-133 {
        fill: url(#Sfumatura_senza_nome_11-22);
      }

      .cls-134 {
        fill: url(#Sfumatura_senza_nome_11-20);
      }

      .cls-135 {
        fill: url(#Sfumatura_senza_nome_11-30);
      }

      .cls-136 {
        fill: url(#Sfumatura_senza_nome_11-31);
      }

      .cls-137 {
        fill: url(#Sfumatura_senza_nome_11-32);
      }

      .cls-138 {
        fill: url(#Sfumatura_senza_nome_11-33);
      }

      .cls-139 {
        fill: url(#Sfumatura_senza_nome_11-34);
      }

      .cls-140 {
        fill: url(#Sfumatura_senza_nome_11-35);
      }

      .cls-141 {
        fill: url(#Sfumatura_senza_nome_11-36);
      }

      .cls-142 {
        fill: url(#Sfumatura_senza_nome_11-27);
      }

      .cls-143 {
        fill: url(#Sfumatura_senza_nome_11-28);
      }

      .cls-144 {
        fill: url(#Sfumatura_senza_nome_11-29);
      }

      .cls-145 {
        fill: url(#Sfumatura_senza_nome_113-4);
      }

      .cls-23 {
        stroke: url(#Sfumatura_senza_nome_599);
        stroke-dasharray: 30 30;
      }

      .cls-146 {
        fill: url(#Sfumatura_senza_nome_8);
      }

      .cls-147 {
        fill: url(#Sfumatura_senza_nome_8-6);
      }

      .cls-148 {
        fill: url(#Sfumatura_senza_nome_8-2);
      }

      .cls-149 {
        fill: url(#Sfumatura_senza_nome_8-5);
      }

      .cls-150 {
        fill: url(#Sfumatura_senza_nome_8-3);
      }

      .cls-151 {
        fill: url(#Sfumatura_senza_nome_8-4);
      }
    </style>
    <linearGradient id="Sfumatura_senza_nome_113" data-name="Sfumatura senza nome 113" x1="673.88" y1="1038.67" x2="1281.95" y2="1038.67" gradientUnits="userSpaceOnUse">
      <stop offset="0" stop-color="#0077b6"/>
      <stop offset="1" stop-color="#03045e"/>
    </linearGradient>
    <linearGradient id="Sfumatura_senza_nome_113-2" data-name="Sfumatura senza nome 113" x1="673.88" x2="1281.95" xlink:href="#Sfumatura_senza_nome_113"/>
    <linearGradient id="Sfumatura_senza_nome_113-3" data-name="Sfumatura senza nome 113" x1="673.88" x2="1281.95" xlink:href="#Sfumatura_senza_nome_113"/>
    <linearGradient id="Sfumatura_senza_nome_113-4" data-name="Sfumatura senza nome 113" y1="1038.67" x2="1281.95" y2="1038.67" xlink:href="#Sfumatura_senza_nome_113"/>
    <linearGradient id="Sfumatura_senza_nome_605" data-name="Sfumatura senza nome 605" x1="673.88" y1="1008.71" x2="1281.95" y2="1008.71" gradientUnits="userSpaceOnUse">
      <stop offset="0" stop-color="#8edfef"/>
      <stop offset="1" stop-color="#06b6d9"/>
    </linearGradient>
    <linearGradient id="Sfumatura_senza_nome_605-2" data-name="Sfumatura senza nome 605" x1="673.88" y1="1008.71" x2="1281.95" y2="1008.71" xlink:href="#Sfumatura_senza_nome_605"/>
    <linearGradient id="Sfumatura_senza_nome_113-5" data-name="Sfumatura senza nome 113" y1="1530.52" y2="1530.52" xlink:href="#Sfumatura_senza_nome_113"/>
    <linearGradient id="Sfumatura_senza_nome_113-6" data-name="Sfumatura senza nome 113" y1="1530.52" x2="1281.95" y2="1530.52" xlink:href="#Sfumatura_senza_nome_113"/>
    <linearGradient id="Sfumatura_senza_nome_113-7" data-name="Sfumatura senza nome 113" x1="673.88" y1="1523.02" x2="1281.95" y2="1523.02" xlink:href="#Sfumatura_senza_nome_113"/>
    <linearGradient id="Sfumatura_senza_nome_113-8" data-name="Sfumatura senza nome 113" x1="673.88" y1="1330.81" x2="1281.95" y2="1330.81" xlink:href="#Sfumatura_senza_nome_113"/>
    <linearGradient id="Sfumatura_senza_nome_113-9" data-name="Sfumatura senza nome 113" x1="673.88" y1="1154.66" x2="1281.95" y2="1154.66" xlink:href="#Sfumatura_senza_nome_113"/>
    <linearGradient id="Sfumatura_senza_nome_113-10" data-name="Sfumatura senza nome 113" x1="673.88" y1="1147.16" x2="1281.95" y2="1147.16" xlink:href="#Sfumatura_senza_nome_113"/>
    <linearGradient id="Sfumatura_senza_nome_113-11" data-name="Sfumatura senza nome 113" x1="673.88" y1="1147.16" x2="1281.95" y2="1147.16" xlink:href="#Sfumatura_senza_nome_113"/>
    <linearGradient id="Sfumatura_senza_nome_113-12" data-name="Sfumatura senza nome 113" y1="1530.52" x2="1281.95" y2="1530.52" xlink:href="#Sfumatura_senza_nome_113"/>
    <linearGradient id="Sfumatura_senza_nome_605-3" data-name="Sfumatura senza nome 605" y1="1367.79" x2="1281.95" y2="1367.79" xlink:href="#Sfumatura_senza_nome_605"/>
    <linearGradient id="Sfumatura_senza_nome_605-4" data-name="Sfumatura senza nome 605" x1="673.88" y1="1176.18" x2="1281.95" y2="1176.18" xlink:href="#Sfumatura_senza_nome_605"/>
    <linearGradient id="Sfumatura_senza_nome_113-13" data-name="Sfumatura senza nome 113" y1="539.33" y2="539.33" xlink:href="#Sfumatura_senza_nome_113"/>
    <linearGradient id="Sfumatura_senza_nome_113-14" data-name="Sfumatura senza nome 113" y1="539.33" x2="1281.95" y2="539.33" xlink:href="#Sfumatura_senza_nome_113"/>
    <linearGradient id="Sfumatura_senza_nome_113-15" data-name="Sfumatura senza nome 113" x1="673.88" y1="546.83" x2="1281.95" y2="546.83" xlink:href="#Sfumatura_senza_nome_113"/>
    <linearGradient id="Sfumatura_senza_nome_113-16" data-name="Sfumatura senza nome 113" x1="673.88" y1="740.29" x2="1281.95" y2="740.29" xlink:href="#Sfumatura_senza_nome_113"/>
    <linearGradient id="Sfumatura_senza_nome_113-17" data-name="Sfumatura senza nome 113" x1="673.88" y1="917.58" x2="1281.95" y2="917.58" xlink:href="#Sfumatura_senza_nome_113"/>
    <linearGradient id="Sfumatura_senza_nome_113-18" data-name="Sfumatura senza nome 113" x1="673.88" y1="925.08" x2="1281.95" y2="925.08" xlink:href="#Sfumatura_senza_nome_113"/>
    <linearGradient id="Sfumatura_senza_nome_113-19" data-name="Sfumatura senza nome 113" x1="673.88" y1="925.08" x2="1281.95" y2="925.08" xlink:href="#Sfumatura_senza_nome_113"/>
    <linearGradient id="Sfumatura_senza_nome_113-20" data-name="Sfumatura senza nome 113" y1="539.33" x2="1281.95" y2="539.33" xlink:href="#Sfumatura_senza_nome_113"/>
    <linearGradient id="Sfumatura_senza_nome_605-5" data-name="Sfumatura senza nome 605" y1="700.78" y2="700.78" xlink:href="#Sfumatura_senza_nome_605"/>
    <linearGradient id="Sfumatura_senza_nome_605-6" data-name="Sfumatura senza nome 605" x1="673.88" y1="893.66" x2="1281.95" y2="893.66" xlink:href="#Sfumatura_senza_nome_605"/>
    <linearGradient id="Sfumatura_senza_nome_11" data-name="Sfumatura senza nome 11" x1="1279.45" y1="1022.97" x2="1645.4" y2="1022.97" gradientUnits="userSpaceOnUse">
      <stop offset="0" stop-color="#90e0ef"/>
      <stop offset="1" stop-color="#00b4d8"/>
    </linearGradient>
    <linearGradient id="Sfumatura_senza_nome_8" data-name="Sfumatura senza nome 8" x1="227.62" y1="460.91" x2="676.38" y2="460.91" gradientUnits="userSpaceOnUse">
      <stop offset="0" stop-color="#00b4d8"/>
      <stop offset="1" stop-color="#0077b6"/>
    </linearGradient>
    <linearGradient id="Sfumatura_senza_nome_11-2" data-name="Sfumatura senza nome 11" x1="317.63" y1="380.7" x2="586.36" y2="380.7" xlink:href="#Sfumatura_senza_nome_11"/>
    <linearGradient id="Sfumatura_senza_nome_8-2" data-name="Sfumatura senza nome 8" x1="397.52" y1="8576.54" x2="506.49" y2="8576.54" gradientTransform="translate(0 9088.82) scale(1 -1)" xlink:href="#Sfumatura_senza_nome_8"/>
    <linearGradient id="Sfumatura_senza_nome_113-21" data-name="Sfumatura senza nome 113" x1="365.21" y1="362.72" x2="538.78" y2="362.72" xlink:href="#Sfumatura_senza_nome_113"/>
    <linearGradient id="Sfumatura_senza_nome_113-22" data-name="Sfumatura senza nome 113" x1="394.54" y1="202.3" x2="509.47" y2="202.3" xlink:href="#Sfumatura_senza_nome_113"/>
    <linearGradient id="Sfumatura_senza_nome_11-3" data-name="Sfumatura senza nome 11" x1="4332.66" y1="5878.76" x2="4388.91" y2="5878.76" gradientTransform="translate(-2772.81 5276.2) scale(.73 -.84)" xlink:href="#Sfumatura_senza_nome_11"/>
    <linearGradient id="Sfumatura_senza_nome_11-4" data-name="Sfumatura senza nome 11" x1="3813.01" y1="1952.98" x2="3914.94" y2="1952.98" gradientTransform="translate(2069.97 3184.56) rotate(-90) scale(.73 -.84)" xlink:href="#Sfumatura_senza_nome_11"/>
    <linearGradient id="Sfumatura_senza_nome_11-5" data-name="Sfumatura senza nome 11" x1="3025.27" y1="7609.89" x2="3127.2" y2="7609.89" gradientTransform="translate(-2021.37 6730.23) scale(.8 -.84)" xlink:href="#Sfumatura_senza_nome_11"/>
    <linearGradient id="Sfumatura_senza_nome_11-6" data-name="Sfumatura senza nome 11" x1="10575.67" y1="135.13" x2="10677.6" y2="135.13" gradientTransform="translate(557.88 2780.84) rotate(-90) scale(.23 -.84)" xlink:href="#Sfumatura_senza_nome_11"/>
    <linearGradient id="Sfumatura_senza_nome_11-7" data-name="Sfumatura senza nome 11" x1="2174.78" y1="-663.17" x2="2276.71" y2="-663.17" gradientTransform="translate(-146.36 1190.67) rotate(-90) scale(.36 -.84)" xlink:href="#Sfumatura_senza_nome_11"/>
    <linearGradient id="Sfumatura_senza_nome_11-8" data-name="Sfumatura senza nome 11" x1="2787.49" y1="9139.62" x2="2843.74" y2="9139.62" gradientTransform="translate(-976.42 7988.3) scale(.51 -.84)" xlink:href="#Sfumatura_senza_nome_11"/>
    <linearGradient id="Sfumatura_senza_nome_11-9" data-name="Sfumatura senza nome 11" x1="7310.18" y1="4620.01" x2="7366.43" y2="4620.01" gradientTransform="translate(-3268.43 4216.81) scale(.51 -.84)" xlink:href="#Sfumatura_senza_nome_11"/>
    <linearGradient id="Sfumatura_senza_nome_11-10" data-name="Sfumatura senza nome 11" x1="4409.54" y1="555.79" x2="4465.79" y2="555.79" gradientTransform="translate(967.65 2732.03) rotate(-90) scale(.54 -.84)" xlink:href="#Sfumatura_senza_nome_11"/>
    <linearGradient id="Sfumatura_senza_nome_11-11" data-name="Sfumatura senza nome 11" x1="7211.64" y1="8816.59" x2="7267.89" y2="8816.59" gradientTransform="translate(-1609.81 7773.58) scale(.29 -.84)" xlink:href="#Sfumatura_senza_nome_11"/>
    <linearGradient id="Sfumatura_senza_nome_11-12" data-name="Sfumatura senza nome 11" x1="2213.23" y1="9182.15" x2="2269.48" y2="9182.15" gradientTransform="translate(-683.58 8127.37) scale(.51 -.84)" xlink:href="#Sfumatura_senza_nome_11"/>
    <linearGradient id="Sfumatura_senza_nome_11-13" data-name="Sfumatura senza nome 11" x1="13915.05" y1="5136.5" x2="13971.3" y2="5136.5" gradientTransform="translate(-3601.2 4710.61) scale(.29 -.84)" xlink:href="#Sfumatura_senza_nome_11"/>
    <linearGradient id="Sfumatura_senza_nome_11-14" data-name="Sfumatura senza nome 11" x1="375.01" y1="8724.87" x2="406.49" y2="8724.87" gradientTransform="translate(0 9088.82) scale(1 -1)" xlink:href="#Sfumatura_senza_nome_11"/>
    <linearGradient id="Sfumatura_senza_nome_11-15" data-name="Sfumatura senza nome 11" x1="417.24" y1="8774.97" x2="448.71" y2="8774.97" gradientTransform="translate(0 9088.82) scale(1 -1)" xlink:href="#Sfumatura_senza_nome_11"/>
    <linearGradient id="Sfumatura_senza_nome_11-16" data-name="Sfumatura senza nome 11" x1="416.83" y1="8674.47" x2="448.3" y2="8674.47" gradientTransform="translate(0 9088.82) scale(1 -1)" xlink:href="#Sfumatura_senza_nome_11"/>
    <linearGradient id="Sfumatura_senza_nome_11-17" data-name="Sfumatura senza nome 11" x1="471.55" y1="8674.47" x2="503.02" y2="8674.47" gradientTransform="translate(0 9088.82) scale(1 -1)" xlink:href="#Sfumatura_senza_nome_11"/>
    <linearGradient id="Sfumatura_senza_nome_11-18" data-name="Sfumatura senza nome 11" x1="492.96" y1="8724.87" x2="524.44" y2="8724.87" gradientTransform="translate(0 9088.82) scale(1 -1)" xlink:href="#Sfumatura_senza_nome_11"/>
    <linearGradient id="Sfumatura_senza_nome_11-19" data-name="Sfumatura senza nome 11" x1="471.55" y1="8777.74" x2="503.02" y2="8777.74" gradientTransform="translate(0 9088.82) scale(1 -1)" xlink:href="#Sfumatura_senza_nome_11"/>
    <linearGradient id="Sfumatura_senza_nome_11-20" data-name="Sfumatura senza nome 11" x1="433.87" y1="8719.09" x2="484.09" y2="8719.09" gradientTransform="translate(0 9088.82) scale(1 -1)" xlink:href="#Sfumatura_senza_nome_11"/>
    <linearGradient id="Sfumatura_senza_nome_113-23" data-name="Sfumatura senza nome 113" x1="390.44" y1="122.67" x2="406.99" y2="122.67" xlink:href="#Sfumatura_senza_nome_113"/>
    <linearGradient id="Sfumatura_senza_nome_113-24" data-name="Sfumatura senza nome 113" x1="486.33" y1="118.22" x2="513.56" y2="118.22" xlink:href="#Sfumatura_senza_nome_113"/>
    <linearGradient id="Sfumatura_senza_nome_113-25" data-name="Sfumatura senza nome 113" x1="456.49" y1="122.82" x2="473.72" y2="122.82" xlink:href="#Sfumatura_senza_nome_113"/>
    <linearGradient id="Sfumatura_senza_nome_113-26" data-name="Sfumatura senza nome 113" x1="411.68" y1="122.82" x2="429.93" y2="122.82" xlink:href="#Sfumatura_senza_nome_113"/>
    <linearGradient id="Sfumatura_senza_nome_113-27" data-name="Sfumatura senza nome 113" x1="433.56" y1="118.37" x2="451.73" y2="118.37" xlink:href="#Sfumatura_senza_nome_113"/>
    <linearGradient id="Sfumatura_senza_nome_8-3" data-name="Sfumatura senza nome 8" y1="1023.02" y2="1023.02" xlink:href="#Sfumatura_senza_nome_8"/>
    <linearGradient id="Sfumatura_senza_nome_11-21" data-name="Sfumatura senza nome 11" x1="317.63" y1="942.82" x2="586.36" y2="942.82" xlink:href="#Sfumatura_senza_nome_11"/>
    <linearGradient id="Sfumatura_senza_nome_8-4" data-name="Sfumatura senza nome 8" x1="397.52" y1="8014.43" x2="506.49" y2="8014.43" gradientTransform="translate(0 9088.82) scale(1 -1)" xlink:href="#Sfumatura_senza_nome_8"/>
    <linearGradient id="Sfumatura_senza_nome_113-28" data-name="Sfumatura senza nome 113" x1="365.21" y1="924.83" x2="538.78" y2="924.83" xlink:href="#Sfumatura_senza_nome_113"/>
    <linearGradient id="Sfumatura_senza_nome_113-29" data-name="Sfumatura senza nome 113" x1="394.54" y1="764.42" x2="509.47" y2="764.42" xlink:href="#Sfumatura_senza_nome_113"/>
    <linearGradient id="Sfumatura_senza_nome_11-22" data-name="Sfumatura senza nome 11" x1="3752.14" y1="5439.12" x2="3808.38" y2="5439.12" gradientTransform="translate(-2349.02 5469.01) scale(.73 -.84)" xlink:href="#Sfumatura_senza_nome_11"/>
    <linearGradient id="Sfumatura_senza_nome_11-23" data-name="Sfumatura senza nome 11" x1="3042.99" y1="1952.98" x2="3144.92" y2="1952.98" gradientTransform="translate(2069.97 3184.56) rotate(-90) scale(.73 -.84)" xlink:href="#Sfumatura_senza_nome_11"/>
    <linearGradient id="Sfumatura_senza_nome_11-24" data-name="Sfumatura senza nome 11" x1="2696.16" y1="7018.66" x2="2798.09" y2="7018.66" gradientTransform="translate(-1758.08 6795.7) scale(.8 -.84)" xlink:href="#Sfumatura_senza_nome_11"/>
    <linearGradient id="Sfumatura_senza_nome_11-25" data-name="Sfumatura senza nome 11" x1="8358.16" y1="416.45" x2="8460.09" y2="416.45" gradientTransform="translate(794.19 2832.92) rotate(-90) scale(.23 -.84)" xlink:href="#Sfumatura_senza_nome_11"/>
    <linearGradient id="Sfumatura_senza_nome_11-26" data-name="Sfumatura senza nome 11" x1="1023.94" y1="-210.9" x2="1125.87" y2="-210.9" gradientTransform="translate(233.54 1338.49) rotate(-90) scale(.36 -.84)" xlink:href="#Sfumatura_senza_nome_11"/>
    <linearGradient id="Sfumatura_senza_nome_11-27" data-name="Sfumatura senza nome 11" x1="2715.02" y1="8471.88" x2="2771.27" y2="8471.88" gradientTransform="translate(-939.46 7989.51) scale(.51 -.84)" xlink:href="#Sfumatura_senza_nome_11"/>
    <linearGradient id="Sfumatura_senza_nome_11-28" data-name="Sfumatura senza nome 11" x1="6327.25" y1="4317.24" x2="6383.5" y2="4317.24" gradientTransform="translate(-2767.14 4524.6) scale(.51 -.84)" xlink:href="#Sfumatura_senza_nome_11"/>
    <linearGradient id="Sfumatura_senza_nome_11-29" data-name="Sfumatura senza nome 11" x1="3441.82" y1="802.35" x2="3498.07" y2="802.35" gradientTransform="translate(1174.76 2771.57) rotate(-90) scale(.54 -.84)" xlink:href="#Sfumatura_senza_nome_11"/>
    <linearGradient id="Sfumatura_senza_nome_11-30" data-name="Sfumatura senza nome 11" x1="6904.74" y1="8155.85" x2="6960.99" y2="8155.85" gradientTransform="translate(-1520.81 7780.67) scale(.29 -.84)" xlink:href="#Sfumatura_senza_nome_11"/>
    <linearGradient id="Sfumatura_senza_nome_11-31" data-name="Sfumatura senza nome 11" x1="2213.23" y1="8512.97" x2="2269.48" y2="8512.97" gradientTransform="translate(-683.58 8127.37) scale(.51 -.84)" xlink:href="#Sfumatura_senza_nome_11"/>
    <linearGradient id="Sfumatura_senza_nome_11-32" data-name="Sfumatura senza nome 11" x1="12345.92" y1="4743.64" x2="12402.16" y2="4743.64" gradientTransform="translate(-3146.16 4942.72) scale(.29 -.84)" xlink:href="#Sfumatura_senza_nome_11"/>
    <linearGradient id="Sfumatura_senza_nome_11-33" data-name="Sfumatura senza nome 11" x1="375.01" y1="8162.76" x2="406.49" y2="8162.76" gradientTransform="translate(0 9088.82) scale(1 -1)" xlink:href="#Sfumatura_senza_nome_11"/>
    <linearGradient id="Sfumatura_senza_nome_11-34" data-name="Sfumatura senza nome 11" x1="417.24" y1="8212.86" x2="448.71" y2="8212.86" gradientTransform="translate(0 9088.82) scale(1 -1)" xlink:href="#Sfumatura_senza_nome_11"/>
    <linearGradient id="Sfumatura_senza_nome_11-35" data-name="Sfumatura senza nome 11" x1="416.83" y1="8112.35" x2="448.3" y2="8112.35" gradientTransform="translate(0 9088.82) scale(1 -1)" xlink:href="#Sfumatura_senza_nome_11"/>
    <linearGradient id="Sfumatura_senza_nome_11-36" data-name="Sfumatura senza nome 11" x1="471.55" y1="8112.35" x2="503.02" y2="8112.35" gradientTransform="translate(0 9088.82) scale(1 -1)" xlink:href="#Sfumatura_senza_nome_11"/>
    <linearGradient id="Sfumatura_senza_nome_11-37" data-name="Sfumatura senza nome 11" x1="492.96" y1="8162.76" x2="524.44" y2="8162.76" gradientTransform="translate(0 9088.82) scale(1 -1)" xlink:href="#Sfumatura_senza_nome_11"/>
    <linearGradient id="Sfumatura_senza_nome_11-38" data-name="Sfumatura senza nome 11" x1="471.55" y1="8215.62" x2="503.02" y2="8215.62" gradientTransform="translate(0 9088.82) scale(1 -1)" xlink:href="#Sfumatura_senza_nome_11"/>
    <linearGradient id="Sfumatura_senza_nome_11-39" data-name="Sfumatura senza nome 11" x1="433.87" y1="8156.98" x2="484.09" y2="8156.98" gradientTransform="translate(0 9088.82) scale(1 -1)" xlink:href="#Sfumatura_senza_nome_11"/>
    <linearGradient id="Sfumatura_senza_nome_113-30" data-name="Sfumatura senza nome 113" x1="392.98" y1="686.15" x2="409.53" y2="686.15" xlink:href="#Sfumatura_senza_nome_113"/>
    <linearGradient id="Sfumatura_senza_nome_113-31" data-name="Sfumatura senza nome 113" x1="414.22" y1="686.3" x2="432.47" y2="686.3" xlink:href="#Sfumatura_senza_nome_113"/>
    <linearGradient id="Sfumatura_senza_nome_113-32" data-name="Sfumatura senza nome 113" x1="436.1" y1="681.85" x2="454.27" y2="681.85" xlink:href="#Sfumatura_senza_nome_113"/>
    <linearGradient id="Sfumatura_senza_nome_113-33" data-name="Sfumatura senza nome 113" x1="459.03" y1="686.3" x2="476.26" y2="686.3" xlink:href="#Sfumatura_senza_nome_113"/>
    <linearGradient id="Sfumatura_senza_nome_113-34" data-name="Sfumatura senza nome 113" x1="491.59" y1="681.7" x2="512.4" y2="681.7" xlink:href="#Sfumatura_senza_nome_113"/>
    <linearGradient id="Sfumatura_senza_nome_8-5" data-name="Sfumatura senza nome 8" y1="1587.84" y2="1587.84" xlink:href="#Sfumatura_senza_nome_8"/>
    <linearGradient id="Sfumatura_senza_nome_11-40" data-name="Sfumatura senza nome 11" x1="317.63" y1="1507.63" x2="586.36" y2="1507.63" xlink:href="#Sfumatura_senza_nome_11"/>
    <linearGradient id="Sfumatura_senza_nome_8-6" data-name="Sfumatura senza nome 8" x1="397.52" y1="7449.62" x2="506.49" y2="7449.62" gradientTransform="translate(0 9088.82) scale(1 -1)" xlink:href="#Sfumatura_senza_nome_8"/>
    <linearGradient id="Sfumatura_senza_nome_113-35" data-name="Sfumatura senza nome 113" x1="365.21" y1="1489.65" x2="538.78" y2="1489.65" xlink:href="#Sfumatura_senza_nome_113"/>
    <linearGradient id="Sfumatura_senza_nome_113-36" data-name="Sfumatura senza nome 113" x1="394.54" y1="1329.23" x2="509.47" y2="1329.23" xlink:href="#Sfumatura_senza_nome_113"/>
    <linearGradient id="Sfumatura_senza_nome_11-41" data-name="Sfumatura senza nome 11" x1="3168.83" y1="4997.37" x2="3225.07" y2="4997.37" gradientTransform="translate(-1923.21 5662.75) scale(.73 -.84)" xlink:href="#Sfumatura_senza_nome_11"/>
    <linearGradient id="Sfumatura_senza_nome_11-42" data-name="Sfumatura senza nome 11" x1="2269.28" y1="1952.98" x2="2371.21" y2="1952.98" gradientTransform="translate(2069.97 3184.56) rotate(-90) scale(.73 -.84)" xlink:href="#Sfumatura_senza_nome_11"/>
    <linearGradient id="Sfumatura_senza_nome_11-43" data-name="Sfumatura senza nome 11" x1="2365.46" y1="6424.58" x2="2467.39" y2="6424.58" gradientTransform="translate(-1493.53 6861.49) scale(.8 -.84)" xlink:href="#Sfumatura_senza_nome_11"/>
    <linearGradient id="Sfumatura_senza_nome_11-44" data-name="Sfumatura senza nome 11" x1="6130.01" y1="699.13" x2="6231.94" y2="699.13" gradientTransform="translate(1031.64 2885.26) rotate(-90) scale(.23 -.84)" xlink:href="#Sfumatura_senza_nome_11"/>
    <linearGradient id="Sfumatura_senza_nome_11-45" data-name="Sfumatura senza nome 11" x1="-132.42" y1="243.54" x2="-30.49" y2="243.54" gradientTransform="translate(615.27 1487.01) rotate(-90) scale(.36 -.84)" xlink:href="#Sfumatura_senza_nome_11"/>
    <linearGradient id="Sfumatura_senza_nome_11-46" data-name="Sfumatura senza nome 11" x1="2642.2" y1="7800.94" x2="2698.45" y2="7800.94" gradientTransform="translate(-902.32 7990.73) scale(.51 -.84)" xlink:href="#Sfumatura_senza_nome_11"/>
    <linearGradient id="Sfumatura_senza_nome_11-47" data-name="Sfumatura senza nome 11" x1="5339.61" y1="4013.03" x2="5395.86" y2="4013.03" gradientTransform="translate(-2263.44 4833.87) scale(.51 -.84)" xlink:href="#Sfumatura_senza_nome_11"/>
    <linearGradient id="Sfumatura_senza_nome_11-48" data-name="Sfumatura senza nome 11" x1="2469.46" y1="1050.09" x2="2525.71" y2="1050.09" gradientTransform="translate(1382.86 2811.31) rotate(-90) scale(.54 -.84)" xlink:href="#Sfumatura_senza_nome_11"/>
    <linearGradient id="Sfumatura_senza_nome_11-49" data-name="Sfumatura senza nome 11" x1="6596.38" y1="7491.93" x2="6652.62" y2="7491.93" gradientTransform="translate(-1431.38 7787.8) scale(.29 -.84)" xlink:href="#Sfumatura_senza_nome_11"/>
    <linearGradient id="Sfumatura_senza_nome_11-50" data-name="Sfumatura senza nome 11" x1="2213.23" y1="7840.58" x2="2269.48" y2="7840.58" gradientTransform="translate(-683.58 8127.37) scale(.51 -.84)" xlink:href="#Sfumatura_senza_nome_11"/>
    <linearGradient id="Sfumatura_senza_nome_11-51" data-name="Sfumatura senza nome 11" x1="10769.26" y1="4348.89" x2="10825.5" y2="4348.89" gradientTransform="translate(-2688.92 5175.94) scale(.29 -.84)" xlink:href="#Sfumatura_senza_nome_11"/>
    <linearGradient id="Sfumatura_senza_nome_11-52" data-name="Sfumatura senza nome 11" x1="375.01" y1="7597.95" x2="406.49" y2="7597.95" gradientTransform="translate(0 9088.82) scale(1 -1)" xlink:href="#Sfumatura_senza_nome_11"/>
    <linearGradient id="Sfumatura_senza_nome_11-53" data-name="Sfumatura senza nome 11" x1="417.24" y1="7648.04" x2="448.71" y2="7648.04" gradientTransform="translate(0 9088.82) scale(1 -1)" xlink:href="#Sfumatura_senza_nome_11"/>
    <linearGradient id="Sfumatura_senza_nome_11-54" data-name="Sfumatura senza nome 11" x1="416.83" y1="7547.54" x2="448.3" y2="7547.54" gradientTransform="translate(0 9088.82) scale(1 -1)" xlink:href="#Sfumatura_senza_nome_11"/>
    <linearGradient id="Sfumatura_senza_nome_11-55" data-name="Sfumatura senza nome 11" x1="471.55" y1="7547.54" x2="503.02" y2="7547.54" gradientTransform="translate(0 9088.82) scale(1 -1)" xlink:href="#Sfumatura_senza_nome_11"/>
    <linearGradient id="Sfumatura_senza_nome_11-56" data-name="Sfumatura senza nome 11" x1="492.96" y1="7597.95" x2="524.44" y2="7597.95" gradientTransform="translate(0 9088.82) scale(1 -1)" xlink:href="#Sfumatura_senza_nome_11"/>
    <linearGradient id="Sfumatura_senza_nome_11-57" data-name="Sfumatura senza nome 11" x1="471.55" y1="7650.81" x2="503.02" y2="7650.81" gradientTransform="translate(0 9088.82) scale(1 -1)" xlink:href="#Sfumatura_senza_nome_11"/>
    <linearGradient id="Sfumatura_senza_nome_11-58" data-name="Sfumatura senza nome 11" x1="433.87" y1="7592.16" x2="484.09" y2="7592.16" gradientTransform="translate(0 9088.82) scale(1 -1)" xlink:href="#Sfumatura_senza_nome_11"/>
    <linearGradient id="Sfumatura_senza_nome_113-37" data-name="Sfumatura senza nome 113" x1="390.55" y1="1248.61" x2="407.1" y2="1248.61" xlink:href="#Sfumatura_senza_nome_113"/>
    <linearGradient id="Sfumatura_senza_nome_113-38" data-name="Sfumatura senza nome 113" x1="411.79" y1="1248.76" x2="430.04" y2="1248.76" xlink:href="#Sfumatura_senza_nome_113"/>
    <linearGradient id="Sfumatura_senza_nome_113-39" data-name="Sfumatura senza nome 113" x1="433.66" y1="1244.31" x2="451.83" y2="1244.31" xlink:href="#Sfumatura_senza_nome_113"/>
    <linearGradient id="Sfumatura_senza_nome_113-40" data-name="Sfumatura senza nome 113" x1="456.6" y1="1248.76" x2="473.83" y2="1248.76" xlink:href="#Sfumatura_senza_nome_113"/>
    <linearGradient id="Sfumatura_senza_nome_113-41" data-name="Sfumatura senza nome 113" x1="488.13" y1="1244.16" x2="510.48" y2="1244.16" xlink:href="#Sfumatura_senza_nome_113"/>
    <linearGradient id="Sfumatura_senza_nome_113-42" data-name="Sfumatura senza nome 113" x1="1369.03" y1="905.14" x2="1390.72" y2="905.14" xlink:href="#Sfumatura_senza_nome_113"/>
    <linearGradient id="Sfumatura_senza_nome_113-43" data-name="Sfumatura senza nome 113" x1="1394.23" y1="909.85" x2="1411.31" y2="909.85" xlink:href="#Sfumatura_senza_nome_113"/>
    <linearGradient id="Sfumatura_senza_nome_113-44" data-name="Sfumatura senza nome 113" x1="1414.78" y1="909.85" x2="1429.9" y2="909.85" xlink:href="#Sfumatura_senza_nome_113"/>
    <linearGradient id="Sfumatura_senza_nome_113-45" data-name="Sfumatura senza nome 113" x1="1433.58" y1="909.85" x2="1450.65" y2="909.85" xlink:href="#Sfumatura_senza_nome_113"/>
    <linearGradient id="Sfumatura_senza_nome_113-46" data-name="Sfumatura senza nome 113" x1="1454.63" y1="909.85" x2="1470.22" y2="909.85" xlink:href="#Sfumatura_senza_nome_113"/>
    <linearGradient id="Sfumatura_senza_nome_113-47" data-name="Sfumatura senza nome 113" x1="1476.01" y1="909.69" x2="1486.79" y2="909.69" xlink:href="#Sfumatura_senza_nome_113"/>
    <linearGradient id="Sfumatura_senza_nome_113-48" data-name="Sfumatura senza nome 113" x1="1488.27" y1="909.85" x2="1504.29" y2="909.85" xlink:href="#Sfumatura_senza_nome_113"/>
    <linearGradient id="Sfumatura_senza_nome_113-49" data-name="Sfumatura senza nome 113" x1="1508.12" y1="905.14" x2="1524.53" y2="905.14" xlink:href="#Sfumatura_senza_nome_113"/>
    <linearGradient id="Sfumatura_senza_nome_113-50" data-name="Sfumatura senza nome 113" x1="1529.18" y1="909.85" x2="1546.25" y2="909.85" xlink:href="#Sfumatura_senza_nome_113"/>
    <linearGradient id="Sfumatura_senza_nome_113-51" data-name="Sfumatura senza nome 113" x1="1550.9" y1="909.69" x2="1561.68" y2="909.69" xlink:href="#Sfumatura_senza_nome_113"/>
    <linearGradient id="Sfumatura_senza_nome_113-52" data-name="Sfumatura senza nome 113" x1="4492.92" y1="4443.99" x2="4578.25" y2="4443.99" gradientTransform="translate(-1907.95 4766.6) scale(.73 -.84)" xlink:href="#Sfumatura_senza_nome_113"/>
    <linearGradient id="Sfumatura_senza_nome_113-53" data-name="Sfumatura senza nome 113" x1="2815.48" y1="759.85" x2="2970.11" y2="759.85" gradientTransform="translate(2069.97 3184.56) rotate(-90) scale(.73 -.84)" xlink:href="#Sfumatura_senza_nome_113"/>
    <linearGradient id="Sfumatura_senza_nome_113-54" data-name="Sfumatura senza nome 113" x1="3704.34" y1="6316.54" x2="3858.97" y2="6316.54" gradientTransform="translate(-1578.23 6339.37) scale(.8 -.84)" xlink:href="#Sfumatura_senza_nome_113"/>
    <linearGradient id="Sfumatura_senza_nome_113-55" data-name="Sfumatura senza nome 113" x1="5961.9" y1="-607.92" x2="6116.53" y2="-607.92" gradientTransform="translate(943.65 2420.66) rotate(-90) scale(.23 -.84)" xlink:href="#Sfumatura_senza_nome_113"/>
    <linearGradient id="Sfumatura_senza_nome_113-56" data-name="Sfumatura senza nome 113" x1="-1193.5" y1="-953.07" x2="-1038.87" y2="-953.07" gradientTransform="translate(602.65 709.75) rotate(-90) scale(.36 -.84)" xlink:href="#Sfumatura_senza_nome_113"/>
    <linearGradient id="Sfumatura_senza_nome_113-57" data-name="Sfumatura senza nome 113" x1="4676.4" y1="8250.21" x2="4761.73" y2="8250.21" gradientTransform="translate(-929.4 7922.84) scale(.51 -.84)" xlink:href="#Sfumatura_senza_nome_113"/>
    <linearGradient id="Sfumatura_senza_nome_113-58" data-name="Sfumatura senza nome 113" x1="6990.41" y1="3157.1" x2="7075.74" y2="3157.1" gradientTransform="translate(-2087.45 3682.53) scale(.51 -.84)" xlink:href="#Sfumatura_senza_nome_113"/>
    <linearGradient id="Sfumatura_senza_nome_113-59" data-name="Sfumatura senza nome 113" x1="2490.59" y1="-289.49" x2="2575.92" y2="-289.49" gradientTransform="translate(1296.71 2398.04) rotate(-90) scale(.54 -.84)" xlink:href="#Sfumatura_senza_nome_113"/>
    <linearGradient id="Sfumatura_senza_nome_113-60" data-name="Sfumatura senza nome 113" x1="10327.42" y1="7786.21" x2="10412.75" y2="7786.21" gradientTransform="translate(-1484.21 7618.99) scale(.29 -.84)" xlink:href="#Sfumatura_senza_nome_113"/>
    <linearGradient id="Sfumatura_senza_nome_113-61" data-name="Sfumatura senza nome 113" x1="4194.3" y1="8307.06" x2="4279.63" y2="8307.06" gradientTransform="translate(-683.58 8127.37) scale(.51 -.84)" xlink:href="#Sfumatura_senza_nome_113"/>
    <linearGradient id="Sfumatura_senza_nome_113-62" data-name="Sfumatura senza nome 113" x1="13917.37" y1="3657.04" x2="14002.7" y2="3657.04" gradientTransform="translate(-2597.22 4193.41) scale(.29 -.84)" xlink:href="#Sfumatura_senza_nome_113"/>
    <linearGradient id="Sfumatura_senza_nome_113-63" data-name="Sfumatura senza nome 113" x1="1349.09" y1="8015.86" x2="1396.84" y2="8015.86" gradientTransform="translate(0 9088.82) scale(1 -1)" xlink:href="#Sfumatura_senza_nome_113"/>
    <linearGradient id="Sfumatura_senza_nome_113-64" data-name="Sfumatura senza nome 113" x1="1413.15" y1="8091.86" x2="1460.9" y2="8091.86" gradientTransform="translate(0 9088.82) scale(1 -1)" xlink:href="#Sfumatura_senza_nome_113"/>
    <linearGradient id="Sfumatura_senza_nome_113-65" data-name="Sfumatura senza nome 113" x1="1412.52" y1="7939.39" x2="1460.27" y2="7939.39" gradientTransform="translate(0 9088.82) scale(1 -1)" xlink:href="#Sfumatura_senza_nome_113"/>
    <linearGradient id="Sfumatura_senza_nome_113-66" data-name="Sfumatura senza nome 113" x1="1495.54" y1="7939.39" x2="1543.29" y2="7939.39" gradientTransform="translate(0 9088.82) scale(1 -1)" xlink:href="#Sfumatura_senza_nome_113"/>
    <linearGradient id="Sfumatura_senza_nome_113-67" data-name="Sfumatura senza nome 113" x1="1528.02" y1="8015.86" x2="1575.77" y2="8015.86" gradientTransform="translate(0 9088.82) scale(1 -1)" xlink:href="#Sfumatura_senza_nome_113"/>
    <linearGradient id="Sfumatura_senza_nome_113-68" data-name="Sfumatura senza nome 113" x1="1495.54" y1="8096.06" x2="1543.29" y2="8096.06" gradientTransform="translate(0 9088.82) scale(1 -1)" xlink:href="#Sfumatura_senza_nome_113"/>
    <linearGradient id="Sfumatura_senza_nome_113-69" data-name="Sfumatura senza nome 113" x1="1438.37" y1="8007.09" x2="1514.56" y2="8007.09" gradientTransform="translate(0 9088.82) scale(1 -1)" xlink:href="#Sfumatura_senza_nome_113"/>
    <linearGradient id="Sfumatura_senza_nome_11-59" data-name="Sfumatura senza nome 11" x1="1080.84" y1="8448.25" x2="1125.91" y2="8448.25" gradientTransform="translate(0 9088.82) scale(1 -1)" xlink:href="#Sfumatura_senza_nome_11"/>
    <linearGradient id="Sfumatura_senza_nome_113-70" data-name="Sfumatura senza nome 113" x1="1033.31" y1="8398.25" x2="1078.37" y2="8398.25" gradientTransform="translate(0 9088.82) scale(1 -1)" xlink:href="#Sfumatura_senza_nome_113"/>
    <linearGradient id="Sfumatura_senza_nome_11-60" data-name="Sfumatura senza nome 11" x1="1081.47" y1="7776.41" x2="1126.53" y2="7776.41" gradientTransform="translate(0 9088.82) scale(1 -1)" xlink:href="#Sfumatura_senza_nome_11"/>
    <linearGradient id="Sfumatura_senza_nome_113-71" data-name="Sfumatura senza nome 113" x1="1033.93" y1="7726.41" x2="1079" y2="7726.41" gradientTransform="translate(0 9088.82) scale(1 -1)" xlink:href="#Sfumatura_senza_nome_113"/>
    <linearGradient id="Sfumatura_senza_nome_11-61" data-name="Sfumatura senza nome 11" x1="1079.61" y1="8102.95" x2="1124.67" y2="8102.95" gradientTransform="translate(0 9088.82) scale(1 -1)" xlink:href="#Sfumatura_senza_nome_11"/>
    <linearGradient id="Sfumatura_senza_nome_113-72" data-name="Sfumatura senza nome 113" x1="1032.08" y1="8052.95" x2="1077.14" y2="8052.95" gradientTransform="translate(0 9088.82) scale(1 -1)" xlink:href="#Sfumatura_senza_nome_113"/>
    <linearGradient id="Sfumatura_senza_nome_605-7" data-name="Sfumatura senza nome 605" x1="243.34" y1="1805.34" x2="461.96" y2="1805.34" xlink:href="#Sfumatura_senza_nome_605"/>
    <linearGradient id="Sfumatura_senza_nome_605-8" data-name="Sfumatura senza nome 605" x1="243.34" y1="1805.34" x2="461.96" y2="1805.34" xlink:href="#Sfumatura_senza_nome_605"/>
    <linearGradient id="Sfumatura_senza_nome_599" data-name="Sfumatura senza nome 599" x1="243.34" y1="1885.7" x2="462.92" y2="1885.7" gradientUnits="userSpaceOnUse">
      <stop offset="0" stop-color="#0077b6"/>
      <stop offset="1" stop-color="#03045e"/>
    </linearGradient>
    <linearGradient id="Sfumatura_senza_nome_599-2" data-name="Sfumatura senza nome 599" x1="243.34" y1="1885.7" x2="462.92" y2="1885.7" xlink:href="#Sfumatura_senza_nome_599"/>
  </defs>
  <g>
    <line class="cls-2" x1="706.55" y1="1038.67" x2="721.55" y2="1038.67"/>
    <line class="cls-22" x1="750.13" y1="1038.67" x2="1250.16" y2="1038.67"/>
    <line class="cls-5" x1="1264.45" y1="1038.67" x2="1279.45" y2="1038.67"/>
    <path class="cls-145" d="M676.38,1038.67c14.2,5.27,31.82,14.26,42.74,23.78l-8.6-23.78,8.6-23.77c-10.92,9.52-28.54,18.51-42.74,23.77Z"/>
  </g>
  <g>
    <line class="cls-3" x1="676.38" y1="1008.71" x2="1249.28" y2="1008.71"/>
    <path class="cls-92" d="M1279.45,1008.71c-14.2,5.27-31.82,14.26-42.74,23.78l8.6-23.78-8.6-23.77c10.92,9.52,28.54,18.51,42.74,23.77Z"/>
  </g>
  <g>
    <line class="cls-4" x1="706.55" y1="1530.52" x2="721.55" y2="1530.52"/>
    <line class="cls-12" x1="750.74" y1="1530.52" x2="1028.01" y2="1530.52"/>
    <polyline class="cls-6" points="1042.6 1530.52 1057.6 1530.52 1057.6 1515.52"/>
    <line class="cls-13" x1="1057.6" y1="1483.39" x2="1057.6" y2="1178.22"/>
    <polyline class="cls-7" points="1057.6 1162.16 1057.6 1147.16 1072.6 1147.16"/>
    <line class="cls-20" x1="1100.01" y1="1147.16" x2="1250.75" y2="1147.16"/>
    <line class="cls-16" x1="1264.45" y1="1147.16" x2="1279.45" y2="1147.16"/>
    <path class="cls-35" d="M676.38,1530.52c14.2,5.27,31.82,14.26,42.74,23.78l-8.6-23.78,8.6-23.77c-10.92,9.52-28.54,18.51-42.74,23.77Z"/>
  </g>
  <g>
    <polyline class="cls-8" points="676.38 1559.39 1097.6 1559.39 1097.6 1176.18 1249.27 1176.18"/>
    <path class="cls-89" d="M1279.45,1176.18c-14.2,5.27-31.82,14.26-42.74,23.78l8.6-23.78-8.6-23.77c10.92,9.52,28.54,18.51,42.74,23.77Z"/>
  </g>
  <g>
    <line class="cls-17" x1="706.55" y1="539.33" x2="721.55" y2="539.33"/>
    <line class="cls-21" x1="750.74" y1="539.33" x2="1028.01" y2="539.33"/>
    <polyline class="cls-18" points="1042.6 539.33 1057.6 539.33 1057.6 554.33"/>
    <line class="cls-11" x1="1057.6" y1="586.67" x2="1057.6" y2="893.91"/>
    <polyline class="cls-14" points="1057.6 910.08 1057.6 925.08 1072.6 925.08"/>
    <line class="cls-19" x1="1100.01" y1="925.08" x2="1250.75" y2="925.08"/>
    <line class="cls-15" x1="1264.45" y1="925.08" x2="1279.45" y2="925.08"/>
    <path class="cls-48" d="M676.38,539.33c14.2,5.27,31.82,14.26,42.74,23.78l-8.6-23.78,8.6-23.77c-10.92,9.52-28.54,18.51-42.74,23.77Z"/>
  </g>
  <g>
    <polyline class="cls-9" points="676.38 507.91 1097.6 507.91 1097.6 893.66 1249.28 893.66"/>
    <path class="cls-90" d="M1279.45,893.66c-14.2,5.27-31.82,14.26-42.74,23.78l8.6-23.78-8.6-23.77c10.92,9.52,28.54,18.51,42.74,23.77Z"/>
  </g>
  <rect class="cls-24" x="1279.45" y="836.37" width="365.95" height="373.2" rx="10.79" ry="10.79"/>
  <g>
    <g>
      <path class="cls-146" d="M676.38,367.89v186.03c0,2.86-2.32,5.17-5.17,5.17H232.79c-2.86,0-5.17-2.32-5.17-5.17v-186.03c0-2.86,2.32-5.17,5.17-5.17h121.18v77.22c0,6.2,5.04,11.24,11.24,11.24h173.58c6.2,0,11.24-5.04,11.24-11.24v-77.22h121.18c2.86,0,5.17,2.32,5.17,5.17Z"/>
      <path class="cls-32" d="M581.19,202.3h-62.62v48.26c0,6.8-5.53,12.33-12.33,12.33h-108.47c-6.8,0-12.34-5.53-12.34-12.33v-48.26h-62.63c-2.85,0-5.17,2.32-5.17,5.17v346.45c0,2.85,2.32,5.17,5.17,5.17h258.38c2.86,0,5.17-2.32,5.17-5.17V207.47c0-2.85-2.31-5.17-5.17-5.17ZM550.02,439.95c0,6.2-5.04,11.24-11.24,11.24h-173.58c-6.2,0-11.24-5.04-11.24-11.24v-154.46c0-6.19,5.04-11.23,11.24-11.23h173.58c6.2,0,11.24,5.04,11.24,11.23v154.46Z"/>
      <path class="cls-148" d="M397.52,470.63h0c0,2.85,2.31,5.17,5.17,5.17h2.5c2.85,0,5.17,2.31,5.17,5.17v72.95c0,2.85,2.31,5.17,5.17,5.17h72.95c2.85,0,5.17-2.31,5.17-5.17v-72.95c0-2.85,2.31-5.17,5.17-5.17h2.5c2.85,0,5.17-2.31,5.17-5.17h0c0-2.85-2.31-5.17-5.17-5.17h-98.63c-2.85,0-5.17,2.31-5.17,5.17h0Z"/>
      <path class="cls-42" d="M538.78,289.83v145.78c0,2.7-2.18,4.88-4.88,4.88h-163.82c-2.69,0-4.88-2.18-4.88-4.88v-145.78c0-2.69,2.19-4.87,4.88-4.87h163.82c2.7,0,4.88,2.18,4.88,4.87Z"/>
      <path class="cls-39" d="M506.24,150.81h-108.47c-1.78,0-3.23,1.44-3.23,3.23v96.53c0,1.78,1.45,3.23,3.23,3.23h108.47c1.78,0,3.23-1.44,3.23-3.23v-96.53c0-1.78-1.44-3.23-3.23-3.23ZM492.78,216.17c0,2.26-1.83,4.08-4.08,4.08h-14.67c-2.26,0-4.08,1.83-4.08,4.08v14.67c0,2.26-1.83,4.08-4.08,4.08h-27.73c-2.26,0-4.08-1.83-4.08-4.08v-14.67c0-2.26-1.83-4.08-4.08-4.08h-14.67c-2.26,0-4.08-1.83-4.08-4.08v-27.73c0-2.26,1.83-4.08,4.08-4.08h14.67c2.26,0,4.08-1.83,4.08-4.08v-14.67c0-2.26,1.83-4.08,4.08-4.08h27.73c2.26,0,4.08,1.83,4.08,4.08v14.67c0,2.26,1.83,4.08,4.08,4.08h14.67c2.26,0,4.08,1.83,4.08,4.08v27.73Z"/>
    </g>
    <g>
      <rect class="cls-31" x="390.04" y="334.59" width="40.96" height="6.89" transform="translate(-114.03 425.44) rotate(-48.93)"/>
      <rect class="cls-30" x="426.02" y="326.82" width="6.89" height="74.24"/>
      <rect class="cls-27" x="398.84" y="334.47" width="81.41" height="6.89" transform="translate(-107.08 245.24) rotate(-27.93)"/>
      <rect class="cls-28" x="440.93" y="325.31" width="6.89" height="23.19" transform="translate(-100.46 218.03) rotate(-24.86)"/>
      <rect class="cls-29" x="407.25" y="371.02" width="6.89" height="36.41" transform="translate(-155.06 379.92) rotate(-42.52)"/>
      <rect class="cls-25" x="445.47" y="307.57" width="28.93" height="6.89" transform="translate(-19.45 30.91) rotate(-3.77)"/>
      <rect class="cls-26" x="460.13" y="332.56" width="28.93" height="6.89" transform="translate(-39.77 607.23) rotate(-63.1)"/>
      <rect class="cls-94" x="497.34" y="321.21" width="6.89" height="30.12" transform="translate(-88.67 208.17) rotate(-21.62)"/>
      <rect class="cls-97" x="481.03" y="364.2" width="16.04" height="6.89" transform="translate(-52.04 82.07) rotate(-9.11)"/>
      <rect class="cls-96" x="445.38" y="410.91" width="28.93" height="6.89"/>
      <rect class="cls-98" x="434.48" y="392.5" width="16.04" height="6.89" transform="translate(-137.81 521.71) rotate(-54.05)"/>
      <circle class="cls-105" cx="390.75" cy="363.95" r="15.74"/>
      <circle class="cls-95" cx="432.98" cy="313.85" r="15.74"/>
      <circle class="cls-93" cx="432.57" cy="414.36" r="15.74"/>
      <circle class="cls-102" cx="487.29" cy="414.36" r="15.74"/>
      <circle class="cls-100" cx="508.7" cy="363.95" r="15.74"/>
      <circle class="cls-101" cx="487.29" cy="311.08" r="15.74"/>
      <circle class="cls-134" cx="458.98" cy="369.73" r="25.11"/>
    </g>
  </g>
  <g>
    <path class="cls-37" d="M406.99,120.23v13.2h-3.19v-12.98c0-1.96-.35-3.38-1.04-4.27-.7-.9-1.81-1.34-3.33-1.34-1.77,0-3.17.59-4.22,1.77-1.05,1.18-1.58,2.77-1.58,4.78v12.04h-3.19v-21.01h3.15v3.45c.63-1.29,1.51-2.27,2.64-2.95,1.13-.68,2.42-1.01,3.87-1.01,4.59,0,6.89,2.77,6.89,8.32Z"/>
    <path class="cls-41" d="M501.35,103.02h-2.8l-12.22,30.41h3.31l3.08-7.81h14.5l3.07,7.81h3.27l-12.21-30.41ZM493.86,122.69l6.11-15.57,6.11,15.57h-12.22Z"/>
    <path class="cls-38" d="M465.56,111.91c-1.76,0-3.33.46-4.71,1.38-1.38.92-2.45,2.2-3.21,3.86-.77,1.65-1.15,3.55-1.15,5.71,0,3.39.86,6.05,2.59,7.98,1.72,1.93,4.07,2.89,7.07,2.89,1.37,0,2.71-.25,4.02-.76,1.31-.5,2.39-1.18,3.23-2.04l-1.06-2.55c-1.87,1.67-3.92,2.5-6.15,2.5-2.02,0-3.59-.62-4.69-1.87-1.1-1.25-1.71-3.1-1.81-5.55h14.03v-1.29c0-3.19-.73-5.7-2.17-7.53-1.45-1.82-3.44-2.73-5.99-2.73ZM459.76,121.22c.19-2.1.79-3.72,1.8-4.87,1.01-1.15,2.36-1.73,4.04-1.73s2.94.57,3.86,1.71c.92,1.13,1.41,2.76,1.46,4.89h-11.16Z"/>
    <path class="cls-40" d="M425.6,113.24c-1.4-.89-3-1.33-4.81-1.33s-3.41.44-4.79,1.33c-1.38.89-2.45,2.17-3.19,3.82-.75,1.65-1.13,3.57-1.13,5.76s.38,4.1,1.13,5.76c.74,1.65,1.81,2.92,3.19,3.81,1.38.89,2.97,1.34,4.79,1.34s3.41-.45,4.81-1.34c1.39-.89,2.46-2.16,3.21-3.81.75-1.66,1.12-3.58,1.12-5.76s-.37-4.11-1.12-5.76-1.82-2.93-3.21-3.82ZM425.14,128.79c-1.01,1.37-2.46,2.05-4.35,2.05s-3.35-.69-4.36-2.07c-1.01-1.38-1.52-3.36-1.52-5.95s.52-4.54,1.54-5.93c1.03-1.4,2.47-2.09,4.34-2.09s3.31.69,4.33,2.09c1.03,1.39,1.54,3.37,1.54,5.93s-.51,4.61-1.52,5.97Z"/>
    <path class="cls-44" d="M448.53,116.05c-.57-1.33-1.42-2.35-2.54-3.07-1.12-.71-2.42-1.07-3.92-1.07-1.68,0-3.17.44-4.45,1.33-1.29.89-2.29,2.16-3,3.8s-1.06,3.53-1.06,5.69.35,4.11,1.06,5.76c.71,1.65,1.71,2.94,3,3.86,1.28.92,2.77,1.38,4.45,1.38,1.5,0,2.8-.36,3.92-1.08,1.12-.72,1.97-1.74,2.54-3.06v3.84h3.2v-30.41h-3.2v13.03ZM447.02,128.75c-1.02,1.39-2.45,2.09-4.32,2.09s-3.32-.71-4.35-2.14c-1.04-1.42-1.56-3.41-1.56-5.97s.52-4.44,1.56-5.82c1.03-1.38,2.48-2.07,4.35-2.07s3.3.69,4.32,2.07c1.01,1.38,1.51,3.35,1.51,5.91s-.5,4.53-1.51,5.93Z"/>
  </g>
  <g>
    <g>
      <path class="cls-150" d="M676.38,930.01v186.03c0,2.86-2.32,5.17-5.17,5.17H232.79c-2.86,0-5.17-2.32-5.17-5.17v-186.03c0-2.86,2.32-5.17,5.17-5.17h121.18v77.22c0,6.2,5.04,11.24,11.24,11.24h173.58c6.2,0,11.24-5.04,11.24-11.24v-77.22h121.18c2.86,0,5.17,2.32,5.17,5.17Z"/>
      <path class="cls-132" d="M581.19,764.42h-62.62v48.26c0,6.8-5.53,12.33-12.33,12.33h-108.47c-6.8,0-12.34-5.53-12.34-12.33v-48.26h-62.63c-2.85,0-5.17,2.32-5.17,5.17v346.45c0,2.85,2.32,5.17,5.17,5.17h258.38c2.86,0,5.17-2.32,5.17-5.17v-346.45c0-2.85-2.31-5.17-5.17-5.17ZM550.02,1002.06c0,6.2-5.04,11.24-11.24,11.24h-173.58c-6.2,0-11.24-5.04-11.24-11.24v-154.46c0-6.19,5.04-11.23,11.24-11.23h173.58c6.2,0,11.24,5.04,11.24,11.23v154.46Z"/>
      <path class="cls-151" d="M397.52,1032.75h0c0,2.85,2.31,5.17,5.17,5.17h2.5c2.85,0,5.17,2.31,5.17,5.17v72.95c0,2.85,2.31,5.17,5.17,5.17h72.95c2.85,0,5.17-2.31,5.17-5.17v-72.95c0-2.85,2.31-5.17,5.17-5.17h2.5c2.85,0,5.17-2.31,5.17-5.17h0c0-2.85-2.31-5.17-5.17-5.17h-98.63c-2.85,0-5.17,2.31-5.17,5.17h0Z"/>
      <path class="cls-43" d="M538.78,851.94v145.78c0,2.7-2.18,4.88-4.88,4.88h-163.82c-2.69,0-4.88-2.18-4.88-4.88v-145.78c0-2.69,2.19-4.87,4.88-4.87h163.82c2.7,0,4.88,2.18,4.88,4.87Z"/>
      <path class="cls-36" d="M506.24,712.92h-108.47c-1.78,0-3.23,1.44-3.23,3.23v96.53c0,1.78,1.45,3.23,3.23,3.23h108.47c1.78,0,3.23-1.44,3.23-3.23v-96.53c0-1.78-1.44-3.23-3.23-3.23ZM492.78,778.28c0,2.26-1.83,4.08-4.08,4.08h-14.67c-2.26,0-4.08,1.83-4.08,4.08v14.67c0,2.26-1.83,4.08-4.08,4.08h-27.73c-2.26,0-4.08-1.83-4.08-4.08v-14.67c0-2.26-1.83-4.08-4.08-4.08h-14.67c-2.26,0-4.08-1.83-4.08-4.08v-27.73c0-2.26,1.83-4.08,4.08-4.08h14.67c2.26,0,4.08-1.83,4.08-4.08v-14.67c0-2.26,1.83-4.08,4.08-4.08h27.73c2.26,0,4.08,1.83,4.08,4.08v14.67c0,2.26,1.83,4.08,4.08,4.08h14.67c2.26,0,4.08,1.83,4.08,4.08v27.73Z"/>
    </g>
    <g>
      <rect class="cls-133" x="390.04" y="896.7" width="40.96" height="6.89" transform="translate(-537.81 618.26) rotate(-48.93)"/>
      <rect class="cls-130" x="426.02" y="888.94" width="6.89" height="74.24"/>
      <rect class="cls-129" x="398.84" y="896.58" width="81.41" height="6.89" transform="translate(-370.37 310.72) rotate(-27.93)"/>
      <rect class="cls-128" x="440.93" y="887.43" width="6.89" height="23.19" transform="translate(-336.78 270.12) rotate(-24.86)"/>
      <rect class="cls-131" x="407.25" y="933.13" width="6.89" height="36.41" transform="translate(-534.96 527.73) rotate(-42.52)"/>
      <rect class="cls-142" x="445.47" y="869.69" width="28.93" height="6.89" transform="translate(-56.41 32.13) rotate(-3.77)"/>
      <rect class="cls-143" x="460.13" y="894.67" width="28.93" height="6.89" transform="translate(-541.06 915.03) rotate(-63.1)"/>
      <rect class="cls-144" x="497.34" y="883.32" width="6.89" height="30.12" transform="translate(-295.78 247.72) rotate(-21.62)"/>
      <rect class="cls-135" x="481.03" y="926.32" width="16.04" height="6.89" transform="translate(-141.04 89.16) rotate(-9.11)"/>
      <rect class="cls-136" x="445.38" y="973.03" width="28.93" height="6.89"/>
      <rect class="cls-137" x="434.48" y="954.62" width="16.04" height="6.89" transform="translate(-592.86 753.82) rotate(-54.05)"/>
      <circle class="cls-138" cx="390.75" cy="926.06" r="15.74"/>
      <circle class="cls-139" cx="432.98" cy="875.97" r="15.74"/>
      <circle class="cls-140" cx="432.57" cy="976.47" r="15.74"/>
      <circle class="cls-141" cx="487.29" cy="976.47" r="15.74"/>
      <circle class="cls-103" cx="508.7" cy="926.06" r="15.74"/>
      <circle class="cls-99" cx="487.29" cy="873.2" r="15.74"/>
      <circle class="cls-104" cx="458.98" cy="931.85" r="25.11"/>
    </g>
  </g>
  <g>
    <path class="cls-34" d="M409.53,683.71v13.2h-3.19v-12.98c0-1.95-.35-3.38-1.04-4.27-.7-.89-1.81-1.34-3.33-1.34-1.76,0-3.17.59-4.22,1.77-1.05,1.18-1.58,2.78-1.58,4.79v12.03h-3.19v-21h3.15v3.45c.63-1.29,1.51-2.28,2.64-2.95,1.13-.68,2.42-1.01,3.86-1.01,4.6,0,6.9,2.78,6.9,8.32Z"/>
    <path class="cls-51" d="M418.54,695.87c-1.38-.89-2.44-2.16-3.19-3.82-.75-1.65-1.12-3.57-1.12-5.76s.37-4.1,1.12-5.76c.75-1.65,1.81-2.93,3.19-3.82,1.38-.89,2.98-1.34,4.79-1.34s3.42.45,4.81,1.34c1.39.89,2.46,2.16,3.21,3.82.75,1.65,1.12,3.57,1.12,5.76s-.38,4.1-1.12,5.76c-.75,1.65-1.82,2.93-3.21,3.82-1.39.89-3,1.34-4.81,1.34s-3.41-.45-4.79-1.34ZM427.68,692.27c1.01-1.37,1.52-3.36,1.52-5.97s-.51-4.54-1.54-5.93c-1.02-1.39-2.47-2.09-4.33-2.09s-3.31.7-4.34,2.09c-1.02,1.4-1.54,3.37-1.54,5.93s.51,4.57,1.52,5.95c1.01,1.38,2.46,2.07,4.36,2.07s3.34-.68,4.35-2.05Z"/>
    <path class="cls-52" d="M454.27,666.5v30.41h-3.19v-3.84c-.58,1.32-1.43,2.34-2.54,3.06-1.12.72-2.42,1.08-3.92,1.08-1.68,0-3.17-.46-4.45-1.38-1.29-.92-2.29-2.21-3-3.86-.71-1.65-1.06-3.57-1.06-5.76s.35-4.05,1.06-5.69c.71-1.64,1.71-2.9,3-3.8,1.29-.89,2.77-1.34,4.45-1.34,1.5,0,2.8.36,3.92,1.08,1.12.72,1.96,1.74,2.54,3.06v-13.03h3.19ZM449.56,692.23c1.01-1.39,1.52-3.37,1.52-5.93s-.51-4.53-1.52-5.91-2.45-2.07-4.32-2.07-3.32.69-4.36,2.07-1.56,3.32-1.56,5.82.52,4.55,1.56,5.97c1.04,1.42,2.49,2.13,4.36,2.13s3.3-.7,4.32-2.09Z"/>
    <path class="cls-49" d="M476.26,686.94h-14.03c.1,2.44.71,4.29,1.81,5.54,1.1,1.25,2.67,1.88,4.69,1.88,2.23,0,4.28-.83,6.15-2.5l1.06,2.54c-.84.86-1.92,1.55-3.23,2.05-1.31.5-2.65.75-4.02.75-3,0-5.35-.96-7.08-2.89-1.72-1.93-2.58-4.59-2.58-7.98,0-2.16.38-4.06,1.14-5.71.76-1.65,1.83-2.94,3.21-3.86,1.38-.92,2.95-1.38,4.71-1.38,2.55,0,4.55.91,5.99,2.74,1.44,1.83,2.17,4.33,2.17,7.53v1.29ZM464.1,679.83c-1.01,1.15-1.61,2.78-1.79,4.87h11.15c-.05-2.13-.54-3.76-1.46-4.9-.92-1.14-2.21-1.7-3.86-1.7s-3.03.58-4.04,1.73Z"/>
    <path class="cls-50" d="M511.08,683.88c.88,1.27,1.32,2.85,1.32,4.74,0,2.67-.8,4.72-2.4,6.15-1.6,1.42-3.88,2.13-6.82,2.13h-11.59v-30.41h11.15c2.86,0,5.08.69,6.66,2.07,1.58,1.38,2.36,3.34,2.36,5.87,0,1.64-.39,3.05-1.16,4.23-.78,1.18-1.86,2.06-3.25,2.63,1.6.46,2.84,1.32,3.72,2.59ZM494.78,680h7.49c2.08,0,3.65-.46,4.71-1.38,1.06-.92,1.6-2.26,1.6-4.01,0-3.45-2.1-5.18-6.31-5.18h-7.49v10.57ZM507.69,692.66c1.04-.88,1.56-2.25,1.56-4.12,0-3.74-2.13-5.61-6.38-5.61h-8.08v11.04h8.08c2.18,0,3.79-.44,4.83-1.32Z"/>
  </g>
  <g>
    <g>
      <path class="cls-149" d="M676.38,1494.82v186.03c0,2.86-2.32,5.17-5.17,5.17H232.79c-2.86,0-5.17-2.32-5.17-5.17v-186.03c0-2.86,2.32-5.17,5.17-5.17h121.18v77.22c0,6.2,5.04,11.24,11.24,11.24h173.58c6.2,0,11.24-5.04,11.24-11.24v-77.22h121.18c2.86,0,5.17,2.32,5.17,5.17Z"/>
      <path class="cls-120" d="M581.19,1329.23h-62.62v48.26c0,6.8-5.53,12.33-12.33,12.33h-108.47c-6.8,0-12.34-5.53-12.34-12.33v-48.26h-62.63c-2.85,0-5.17,2.32-5.17,5.17v346.45c0,2.85,2.32,5.17,5.17,5.17h258.38c2.86,0,5.17-2.32,5.17-5.17v-346.45c0-2.85-2.31-5.17-5.17-5.17ZM550.02,1566.87c0,6.2-5.04,11.24-11.24,11.24h-173.58c-6.2,0-11.24-5.04-11.24-11.24v-154.46c0-6.19,5.04-11.23,11.24-11.23h173.58c6.2,0,11.24,5.04,11.24,11.23v154.46Z"/>
      <path class="cls-147" d="M397.52,1597.56h0c0,2.85,2.31,5.17,5.17,5.17h2.5c2.85,0,5.17,2.31,5.17,5.17v72.95c0,2.85,2.31,5.17,5.17,5.17h72.95c2.85,0,5.17-2.31,5.17-5.17v-72.95c0-2.85,2.31-5.17,5.17-5.17h2.5c2.85,0,5.17-2.31,5.17-5.17h0c0-2.85-2.31-5.17-5.17-5.17h-98.63c-2.85,0-5.17,2.31-5.17,5.17h0Z"/>
      <path class="cls-46" d="M538.78,1416.76v145.78c0,2.7-2.18,4.88-4.88,4.88h-163.82c-2.69,0-4.88-2.18-4.88-4.88v-145.78c0-2.69,2.19-4.87,4.88-4.87h163.82c2.7,0,4.88,2.18,4.88,4.87Z"/>
      <path class="cls-47" d="M506.24,1277.74h-108.47c-1.78,0-3.23,1.44-3.23,3.23v96.53c0,1.78,1.45,3.23,3.23,3.23h108.47c1.78,0,3.23-1.44,3.23-3.23v-96.53c0-1.78-1.44-3.23-3.23-3.23ZM492.78,1343.09c0,2.26-1.83,4.08-4.08,4.08h-14.67c-2.26,0-4.08,1.83-4.08,4.08v14.67c0,2.26-1.83,4.08-4.08,4.08h-27.73c-2.26,0-4.08-1.83-4.08-4.08v-14.67c0-2.26-1.83-4.08-4.08-4.08h-14.67c-2.26,0-4.08-1.83-4.08-4.08v-27.73c0-2.26,1.83-4.08,4.08-4.08h14.67c2.26,0,4.08-1.83,4.08-4.08v-14.67c0-2.26,1.83-4.08,4.08-4.08h27.73c2.26,0,4.08,1.83,4.08,4.08v14.67c0,2.26,1.83,4.08,4.08,4.08h14.67c2.26,0,4.08,1.83,4.08,4.08v27.73Z"/>
    </g>
    <g>
      <rect class="cls-119" x="390.04" y="1461.52" width="40.96" height="6.89" transform="translate(-963.63 812) rotate(-48.93)"/>
      <rect class="cls-115" x="426.02" y="1453.75" width="6.89" height="74.24"/>
      <rect class="cls-121" x="398.84" y="1461.4" width="81.41" height="6.89" transform="translate(-634.92 376.5) rotate(-27.93)"/>
      <rect class="cls-117" x="440.93" y="1452.24" width="6.89" height="23.19" transform="translate(-574.22 322.46) rotate(-24.86)"/>
      <rect class="cls-116" x="407.25" y="1497.94" width="6.89" height="36.41" transform="translate(-916.69 676.25) rotate(-42.52)"/>
      <rect class="cls-122" x="445.47" y="1434.5" width="28.93" height="6.89" transform="translate(-93.55 33.35) rotate(-3.77)"/>
      <rect class="cls-118" x="460.13" y="1459.48" width="28.93" height="6.89" transform="translate(-1044.76 1224.3) rotate(-63.1)"/>
      <rect class="cls-124" x="497.34" y="1448.13" width="6.89" height="30.12" transform="translate(-503.88 287.45) rotate(-21.62)"/>
      <rect class="cls-123" x="481.03" y="1491.13" width="16.04" height="6.89" transform="translate(-230.47 96.28) rotate(-9.11)"/>
      <rect class="cls-107" x="445.38" y="1537.84" width="28.93" height="6.89"/>
      <rect class="cls-109" x="434.48" y="1519.43" width="16.04" height="6.89" transform="translate(-1050.09 987.04) rotate(-54.05)"/>
      <circle class="cls-112" cx="390.75" cy="1490.87" r="15.74"/>
      <circle class="cls-106" cx="432.98" cy="1440.78" r="15.74"/>
      <circle class="cls-110" cx="432.57" cy="1541.28" r="15.74"/>
      <circle class="cls-113" cx="487.29" cy="1541.28" r="15.74"/>
      <circle class="cls-111" cx="508.7" cy="1490.87" r="15.74"/>
      <circle class="cls-108" cx="487.29" cy="1438.01" r="15.74"/>
      <circle class="cls-114" cx="458.98" cy="1496.66" r="25.11"/>
    </g>
  </g>
  <g>
    <path class="cls-53" d="M407.1,1246.17v13.2h-3.19v-12.98c0-1.96-.35-3.38-1.04-4.27-.7-.89-1.81-1.34-3.33-1.34-1.76,0-3.17.59-4.22,1.77-1.05,1.18-1.58,2.78-1.58,4.79v12.03h-3.19v-21h3.15v3.45c.63-1.29,1.51-2.28,2.64-2.95,1.13-.68,2.42-1.01,3.86-1.01,4.6,0,6.9,2.78,6.9,8.32Z"/>
    <path class="cls-54" d="M416.11,1258.33c-1.38-.89-2.44-2.16-3.19-3.82-.75-1.65-1.12-3.57-1.12-5.76s.37-4.1,1.12-5.76c.75-1.65,1.81-2.93,3.19-3.82,1.38-.89,2.98-1.34,4.79-1.34s3.42.45,4.81,1.34c1.39.89,2.46,2.16,3.21,3.82.75,1.65,1.12,3.57,1.12,5.76s-.38,4.1-1.12,5.76c-.75,1.65-1.82,2.93-3.21,3.82-1.39.89-3,1.34-4.81,1.34s-3.41-.45-4.79-1.34ZM425.25,1254.73c1.01-1.37,1.52-3.36,1.52-5.97s-.51-4.54-1.54-5.93c-1.02-1.39-2.47-2.09-4.33-2.09s-3.31.7-4.34,2.09c-1.02,1.4-1.54,3.37-1.54,5.93s.51,4.57,1.52,5.95c1.01,1.38,2.46,2.07,4.36,2.07s3.34-.68,4.35-2.05Z"/>
    <path class="cls-45" d="M451.83,1228.96v30.41h-3.19v-3.84c-.58,1.32-1.43,2.34-2.54,3.06-1.12.72-2.42,1.08-3.92,1.08-1.68,0-3.17-.46-4.45-1.38-1.29-.92-2.29-2.21-3-3.86-.71-1.65-1.06-3.57-1.06-5.76s.35-4.05,1.06-5.69c.71-1.64,1.71-2.9,3-3.8,1.29-.89,2.77-1.34,4.45-1.34,1.5,0,2.8.36,3.92,1.08,1.12.72,1.96,1.74,2.54,3.06v-13.03h3.19ZM447.12,1254.69c1.01-1.39,1.52-3.37,1.52-5.93s-.51-4.53-1.52-5.91c-1.01-1.38-2.45-2.07-4.32-2.07s-3.32.69-4.36,2.07c-1.04,1.38-1.56,3.32-1.56,5.82s.52,4.55,1.56,5.97,2.49,2.13,4.36,2.13,3.3-.7,4.32-2.09Z"/>
    <path class="cls-65" d="M473.83,1249.4h-14.03c.1,2.44.71,4.29,1.81,5.54,1.1,1.25,2.67,1.88,4.69,1.88,2.23,0,4.28-.83,6.15-2.5l1.06,2.54c-.84.86-1.92,1.55-3.23,2.05-1.31.5-2.65.75-4.02.75-3,0-5.35-.96-7.08-2.89-1.72-1.93-2.58-4.59-2.58-7.98,0-2.16.38-4.06,1.14-5.71.76-1.65,1.83-2.94,3.21-3.86,1.38-.92,2.95-1.38,4.71-1.38,2.55,0,4.55.91,5.99,2.74,1.44,1.83,2.17,4.33,2.17,7.53v1.29ZM461.67,1242.29c-1.01,1.15-1.61,2.78-1.79,4.87h11.15c-.05-2.13-.54-3.76-1.46-4.9-.92-1.14-2.21-1.7-3.86-1.7s-3.03.58-4.04,1.73Z"/>
    <path class="cls-59" d="M494.16,1257.83c-1.95-1.25-3.44-3.05-4.47-5.39-1.04-2.34-1.56-5.11-1.56-8.3s.52-5.95,1.56-8.28c1.04-2.33,2.53-4.12,4.47-5.37,1.94-1.25,4.23-1.88,6.86-1.88,1.92,0,3.68.32,5.28.97,1.6.65,3,1.6,4.18,2.87l-1.22,2.72c-1.34-1.24-2.65-2.13-3.94-2.67-1.29-.55-2.71-.82-4.26-.82-3.05,0-5.41,1.09-7.08,3.26-1.67,2.17-2.5,5.24-2.5,9.21s.83,7.08,2.5,9.25c1.67,2.17,4.03,3.26,7.08,3.26,1.55,0,2.97-.27,4.26-.82,1.29-.55,2.6-1.44,3.94-2.67l1.22,2.72c-1.18,1.27-2.58,2.22-4.18,2.87-1.6.65-3.36.97-5.28.97-2.63,0-4.91-.63-6.86-1.88Z"/>
  </g>
  <g>
    <path class="cls-60" d="M1390.72,920.71h-3.52l-4.69-9.98c-.57-1.21-1.24-2.04-2.01-2.5-.77-.46-1.82-.68-3.15-.68h-5.16v13.16h-3.16v-31.13h11.33c2.99,0,5.28.75,6.86,2.25,1.58,1.5,2.36,3.71,2.36,6.62,0,2.41-.61,4.37-1.82,5.85-1.21,1.49-2.94,2.42-5.18,2.8.7.24,1.32.63,1.86,1.19.53.56,1.02,1.31,1.47,2.25l4.8,10.16ZM1380.09,904.55c2.13,0,3.73-.5,4.79-1.5,1.06-1,1.58-2.52,1.58-4.55s-.52-3.49-1.56-4.46-2.64-1.46-4.8-1.46h-7.89v11.97h7.89Z"/>
    <path class="cls-61" d="M1411.31,910.51h-13.91c.1,2.5.7,4.39,1.8,5.67,1.09,1.28,2.64,1.92,4.65,1.92,2.21,0,4.25-.85,6.09-2.56l1.05,2.61c-.83.88-1.9,1.58-3.2,2.1-1.3.51-2.63.77-3.99.77-2.97,0-5.31-.99-7.01-2.96-1.71-1.97-2.56-4.7-2.56-8.17,0-2.21.38-4.16,1.13-5.85.75-1.69,1.82-3.01,3.18-3.95,1.37-.94,2.92-1.41,4.67-1.41,2.53,0,4.51.93,5.94,2.8,1.43,1.87,2.15,4.44,2.15,7.71v1.32ZM1399.25,903.22c-1,1.18-1.6,2.84-1.78,4.99h11.06c-.05-2.18-.53-3.85-1.45-5.01-.91-1.16-2.19-1.74-3.83-1.74s-3,.59-4,1.77Z"/>
    <path class="cls-67" d="M1414.78,918.24l1.05-2.65c1.02.91,2.05,1.57,3.11,1.97s2.25.6,3.58.6c1.41,0,2.48-.27,3.22-.82.74-.54,1.11-1.33,1.11-2.36,0-.85-.25-1.53-.74-2.03-.5-.5-1.32-.9-2.46-1.19l-3.2-.84c-1.62-.41-2.85-1.12-3.71-2.12-.86-1-1.29-2.24-1.29-3.71,0-1.91.67-3.46,1.99-4.64,1.33-1.18,3.1-1.77,5.31-1.77,1.33,0,2.59.24,3.79.73,1.2.49,2.2,1.19,3.01,2.1l-1.05,2.61c-1.75-1.68-3.66-2.52-5.74-2.52-1.33,0-2.36.29-3.11.86s-1.11,1.38-1.11,2.41c0,.85.23,1.54.68,2.05.46.52,1.19.91,2.21,1.17l3.24.88c1.77.47,3.09,1.19,3.95,2.14.86.96,1.29,2.2,1.29,3.73,0,1.88-.67,3.39-2.01,4.5-1.34,1.12-3.17,1.68-5.49,1.68-3.2,0-5.74-.93-7.62-2.78Z"/>
    <path class="cls-68" d="M1450.65,910.51h-13.91c.1,2.5.7,4.39,1.8,5.67,1.09,1.28,2.64,1.92,4.65,1.92,2.21,0,4.25-.85,6.09-2.56l1.05,2.61c-.83.88-1.9,1.58-3.2,2.1-1.3.51-2.63.77-3.99.77-2.97,0-5.31-.99-7.01-2.96-1.71-1.97-2.56-4.7-2.56-8.17,0-2.21.38-4.16,1.13-5.85.75-1.69,1.82-3.01,3.18-3.95,1.37-.94,2.92-1.41,4.67-1.41,2.53,0,4.51.93,5.94,2.8,1.43,1.87,2.15,4.44,2.15,7.71v1.32ZM1438.6,903.22c-1,1.18-1.6,2.84-1.78,4.99h11.06c-.05-2.18-.53-3.85-1.45-5.01-.91-1.16-2.19-1.74-3.83-1.74s-3,.59-4,1.77Z"/>
    <path class="cls-69" d="M1468.44,900.77c1.18,1.4,1.78,3.53,1.78,6.38v13.56h-3.09v-3.67c-.5,1.27-1.25,2.25-2.27,2.94-1.02.69-2.19,1.04-3.52,1.04-1.22,0-2.35-.28-3.38-.84-1.03-.56-1.84-1.34-2.44-2.34-.6-1-.9-2.1-.9-3.31,0-1.62.37-2.88,1.09-3.78.73-.9,1.93-1.55,3.59-1.94s3.99-.6,6.95-.6h.86v-1.46c0-1.8-.33-3.1-.98-3.91-.65-.81-1.71-1.21-3.16-1.21-2.19,0-4.36.77-6.52,2.3l-1.05-2.61c.99-.79,2.18-1.44,3.57-1.92,1.39-.49,2.74-.73,4.04-.73,2.42,0,4.23.7,5.41,2.1ZM1465.63,916.41c1-1.19,1.5-2.73,1.5-4.61v-1.28h-.7c-2.29,0-4.04.11-5.23.33-1.2.22-2.05.59-2.56,1.1-.51.52-.76,1.27-.76,2.27,0,1.15.37,2.1,1.11,2.85s1.67,1.13,2.79,1.13c1.56,0,2.84-.6,3.85-1.79Z"/>
    <path class="cls-70" d="M1486.79,901.77l-2.07.22c-1.95.21-3.37.9-4.24,2.08-.87,1.18-1.31,2.64-1.31,4.37v12.28h-3.16v-21.51h3.09v3.75c1.07-2.5,3.17-3.9,6.29-4.2l1.13-.09.27,3.09Z"/>
    <path class="cls-66" d="M1492.57,919.65c-1.38-.91-2.44-2.2-3.18-3.86-.74-1.66-1.11-3.61-1.11-5.85s.38-4.2,1.15-5.9c.77-1.69,1.85-3.01,3.24-3.95,1.39-.94,3.03-1.41,4.9-1.41,1.28,0,2.53.26,3.75.77,1.22.52,2.21,1.2,2.97,2.05l-1.05,2.65c-1.8-1.65-3.62-2.47-5.47-2.47-1.95,0-3.48.72-4.57,2.16-1.09,1.44-1.64,3.47-1.64,6.09s.55,4.59,1.64,6.01,2.62,2.12,4.57,2.12c1.85,0,3.67-.82,5.47-2.47l1.05,2.65c-.81.85-1.82,1.53-3.05,2.03-1.22.5-2.49.75-3.79.75-1.88,0-3.5-.46-4.88-1.37Z"/>
    <path class="cls-58" d="M1524.53,907.2v13.51h-3.16v-13.29c0-2-.35-3.46-1.04-4.37-.69-.91-1.79-1.37-3.3-1.37-1.75,0-3.14.6-4.18,1.81-1.04,1.21-1.56,2.84-1.56,4.9v12.32h-3.16v-31.13h3.16v13.07c.62-1.3,1.49-2.28,2.6-2.96,1.11-.68,2.38-1.02,3.81-1.02,4.56,0,6.84,2.84,6.84,8.52Z"/>
    <path class="cls-77" d="M1546.25,910.51h-13.91c.1,2.5.7,4.39,1.8,5.67,1.09,1.28,2.64,1.92,4.65,1.92,2.21,0,4.25-.85,6.09-2.56l1.05,2.61c-.83.88-1.9,1.58-3.2,2.1-1.3.51-2.63.77-3.99.77-2.97,0-5.31-.99-7.01-2.96-1.71-1.97-2.56-4.7-2.56-8.17,0-2.21.38-4.16,1.13-5.85.75-1.69,1.82-3.01,3.18-3.95,1.37-.94,2.92-1.41,4.67-1.41,2.53,0,4.51.93,5.94,2.8,1.43,1.87,2.15,4.44,2.15,7.71v1.32ZM1534.2,903.22c-1,1.18-1.6,2.84-1.78,4.99h11.06c-.05-2.18-.53-3.85-1.45-5.01-.91-1.16-2.19-1.74-3.83-1.74s-3,.59-4,1.77Z"/>
    <path class="cls-62" d="M1561.68,901.77l-2.07.22c-1.95.21-3.37.9-4.24,2.08-.87,1.18-1.31,2.64-1.31,4.37v12.28h-3.16v-21.51h3.09v3.75c1.07-2.5,3.17-3.9,6.29-4.2l1.13-.09.27,3.09Z"/>
  </g>
  <g>
    <rect class="cls-73" x="1371.88" y="1028.42" width="62.14" height="10.45" transform="translate(-298.04 1412.26) rotate(-48.93)"/>
    <rect class="cls-71" x="1426.47" y="1016.64" width="10.45" height="112.62"/>
    <rect class="cls-64" x="1385.24" y="1028.24" width="123.5" height="10.45" transform="translate(-315.52 798.14) rotate(-27.93)"/>
    <rect class="cls-72" x="1449.08" y="1014.35" width="10.45" height="35.18" transform="translate(-299.07 707.02) rotate(-24.86)"/>
    <rect class="cls-75" x="1398" y="1083.68" width="10.45" height="55.23" transform="translate(-382.08 1240.59) rotate(-42.52)"/>
    <rect class="cls-63" x="1455.98" y="987.44" width="43.89" height="10.45" transform="translate(-62.07 99.32) rotate(-3.77)"/>
    <rect class="cls-74" x="1478.22" y="1025.34" width="43.89" height="10.45" transform="translate(-97.62 1902.15) rotate(-63.1)"/>
    <rect class="cls-76" x="1534.66" y="1008.12" width="10.45" height="45.7" transform="translate(-271.53 639.9) rotate(-21.62)"/>
    <rect class="cls-82" x="1509.93" y="1073.35" width="24.34" height="10.45" transform="translate(-151.57 254.6) rotate(-9.11)"/>
    <rect class="cls-84" x="1455.84" y="1144.21" width="43.89" height="10.45"/>
    <rect class="cls-79" x="1439.31" y="1116.28" width="24.34" height="10.45" transform="translate(-308.55 1638.1) rotate(-54.05)"/>
    <circle class="cls-83" cx="1372.96" cy="1072.96" r="23.87"/>
    <circle class="cls-78" cx="1437.02" cy="996.97" r="23.87"/>
    <circle class="cls-80" cx="1436.4" cy="1149.43" r="23.87"/>
    <circle class="cls-86" cx="1519.41" cy="1149.43" r="23.87"/>
    <circle class="cls-81" cx="1551.89" cy="1072.96" r="23.87"/>
    <circle class="cls-87" cx="1519.41" cy="992.76" r="23.87"/>
    <circle class="cls-85" cx="1476.46" cy="1081.74" r="38.09"/>
  </g>
  <path class="cls-125" d="M1120.76,631.34c.05-2.75.09-6.65-.07-8.39-.79-8.28-8.55-14.19-16.64-14.49-8.57-.32-17.14,5.71-17.98,14.49-.17,1.74-.13,5.64-.07,8.39h-2.9c-1.24,0-2.25,1-2.25,2.25v36.86c0,1.24,1,2.25,2.25,2.25h40.57c1.24,0,2.25-1,2.25-2.25v-36.86c0-1.24-1-2.25-2.25-2.25h-2.9ZM1106.28,658.52h-5.82l1.49-5.93c-1.07-.53-1.8-1.64-1.76-2.93.04-1.63,1.35-2.99,2.97-3.09,1.85-.12,3.39,1.35,3.39,3.18,0,1.25-.72,2.32-1.77,2.85l1.49,5.93h0ZM1115.22,631.2h-23.53c-.89,0-1.61-.72-1.62-1.61-.02-1.89-.01-3.89.09-4.97.66-7.19,6.5-12.32,13.23-12.44,6.36-.11,12.77,5.65,13.38,12.44.1,1.08.1,3.08.08,4.97,0,.89-.73,1.61-1.62,1.61h0Z"/>
  <path class="cls-57" d="M1073.23,681.34c.05-2.75.09-6.65-.07-8.39-.79-8.28-8.55-14.19-16.64-14.49-8.57-.32-17.14,5.71-17.98,14.49-.17,1.74-.13,5.64-.07,8.39h-2.9c-1.24,0-2.25,1-2.25,2.25v36.86c0,1.24,1,2.25,2.25,2.25h40.57c1.24,0,2.25-1,2.25-2.25v-36.86c0-1.24-1-2.25-2.25-2.25h-2.9ZM1058.75,708.52h-5.82l1.49-5.93c-1.07-.53-1.8-1.64-1.76-2.93.04-1.63,1.35-2.99,2.97-3.09,1.85-.12,3.39,1.35,3.39,3.18,0,1.25-.72,2.32-1.77,2.85l1.49,5.93h0ZM1067.68,681.2h-23.53c-.89,0-1.61-.72-1.62-1.61-.02-1.89-.01-3.89.09-4.97.66-7.19,6.5-12.32,13.23-12.44,6.36-.11,12.77,5.65,13.38,12.44.1,1.08.1,3.08.08,4.97,0,.89-.73,1.61-1.62,1.61h0Z"/>
  <path class="cls-126" d="M1121.38,1303.18c.05-2.75.09-6.65-.07-8.39-.79-8.28-8.55-14.19-16.64-14.49-8.57-.32-17.14,5.71-17.98,14.49-.17,1.74-.13,5.64-.07,8.39h-2.9c-1.24,0-2.25,1-2.25,2.25v36.86c0,1.24,1,2.25,2.25,2.25h40.57c1.24,0,2.25-1,2.25-2.25v-36.86c0-1.24-1-2.25-2.25-2.25h-2.9ZM1106.91,1330.36h-5.82l1.49-5.93c-1.07-.53-1.8-1.64-1.76-2.93.04-1.63,1.35-2.99,2.97-3.09,1.85-.12,3.39,1.35,3.39,3.18,0,1.25-.72,2.32-1.77,2.85l1.49,5.93h0ZM1115.84,1303.04h-23.53c-.89,0-1.61-.72-1.62-1.61-.02-1.89-.01-3.89.09-4.97.66-7.19,6.5-12.32,13.23-12.44,6.36-.11,12.77,5.65,13.38,12.44.1,1.08.1,3.08.08,4.97,0,.89-.73,1.61-1.62,1.61h0Z"/>
  <path class="cls-56" d="M1073.85,1353.18c.05-2.75.09-6.65-.07-8.39-.79-8.28-8.55-14.19-16.64-14.49-8.57-.32-17.14,5.71-17.98,14.49-.17,1.74-.13,5.64-.07,8.39h-2.9c-1.24,0-2.25,1-2.25,2.25v36.86c0,1.24,1,2.25,2.25,2.25h40.57c1.24,0,2.25-1,2.25-2.25v-36.86c0-1.24-1-2.25-2.25-2.25h-2.9ZM1059.37,1380.36h-5.82l1.49-5.93c-1.07-.53-1.8-1.64-1.76-2.93.04-1.63,1.35-2.99,2.97-3.09,1.85-.12,3.39,1.35,3.39,3.18,0,1.25-.72,2.32-1.77,2.85l1.49,5.93h0ZM1068.31,1353.04h-23.53c-.89,0-1.61-.72-1.62-1.61-.02-1.89-.01-3.89.09-4.97.66-7.19,6.5-12.32,13.23-12.44,6.36-.11,12.77,5.65,13.38,12.44.1,1.08.1,3.08.08,4.97,0,.89-.73,1.61-1.62,1.61h0Z"/>
  <path class="cls-127" d="M1119.52,976.64c.05-2.75.09-6.65-.07-8.39-.79-8.28-8.55-14.19-16.64-14.49-8.57-.32-17.14,5.71-17.98,14.49-.17,1.74-.13,5.64-.07,8.39h-2.9c-1.24,0-2.25,1-2.25,2.25v36.86c0,1.24,1,2.25,2.25,2.25h40.57c1.24,0,2.25-1,2.25-2.25v-36.86c0-1.24-1-2.25-2.25-2.25h-2.9ZM1105.05,1003.82h-5.82l1.49-5.93c-1.07-.53-1.8-1.64-1.76-2.93.04-1.63,1.35-2.99,2.97-3.09,1.85-.12,3.39,1.35,3.39,3.18,0,1.25-.72,2.32-1.77,2.85l1.49,5.93h0ZM1113.98,976.5h-23.53c-.89,0-1.61-.72-1.62-1.61-.02-1.89-.01-3.89.09-4.97.66-7.19,6.5-12.32,13.23-12.44,6.36-.11,12.77,5.65,13.38,12.44.1,1.08.1,3.08.08,4.97,0,.89-.73,1.61-1.62,1.61h0Z"/>
  <path class="cls-55" d="M1071.99,1026.64c.05-2.75.09-6.65-.07-8.39-.79-8.28-8.55-14.19-16.64-14.49-8.57-.32-17.14,5.71-17.98,14.49-.17,1.74-.13,5.64-.07,8.39h-2.9c-1.24,0-2.25,1-2.25,2.25v36.86c0,1.24,1,2.25,2.25,2.25h40.57c1.24,0,2.25-1,2.25-2.25v-36.86c0-1.24-1-2.25-2.25-2.25h-2.9ZM1057.52,1053.82h-5.82l1.49-5.93c-1.07-.53-1.8-1.64-1.76-2.93.04-1.63,1.35-2.99,2.97-3.09,1.85-.12,3.39,1.35,3.39,3.18,0,1.25-.72,2.32-1.77,2.85l1.49,5.93h0ZM1066.45,1026.5h-23.53c-.89,0-1.61-.72-1.62-1.61-.02-1.89-.01-3.89.09-4.97.66-7.19,6.5-12.32,13.23-12.44,6.36-.11,12.77,5.65,13.38,12.44.1,1.08.1,3.08.08,4.97,0,.89-.73,1.61-1.62,1.61h0Z"/>
  <g>
    <line class="cls-10" x1="245.84" y1="1805.34" x2="429.28" y2="1805.34"/>
    <path class="cls-91" d="M459.46,1805.34c-14.2,5.27-31.82,14.26-42.74,23.78l8.6-23.78-8.6-23.77c10.92,9.52,28.54,18.51,42.74,23.77Z"/>
  </g>
  <g>
    <line class="cls-23" x1="245.84" y1="1885.7" x2="430.25" y2="1885.7"/>
    <path class="cls-88" d="M460.42,1885.7c-14.2,5.27-31.82,14.26-42.74,23.78l8.6-23.78-8.6-23.77c10.92,9.52,28.54,18.51,42.74,23.77Z"/>
  </g>
  <g>
    <path class="cls-1" d="M529.61,1798.78v20.97h-5.1v-20.69c0-3.06-.49-5.3-1.48-6.71-.99-1.42-2.57-2.12-4.75-2.12-2.56,0-4.57.94-6.04,2.81-1.47,1.87-2.2,4.43-2.2,7.67v19.05h-5.1v-20.69c0-3.11-.5-5.35-1.51-6.75-1.01-1.39-2.6-2.09-4.78-2.09-2.56,0-4.57.94-6.04,2.81-1.47,1.87-2.2,4.43-2.2,7.67v19.05h-5.1v-33.37h5.03v5.28c.92-1.96,2.2-3.47,3.84-4.52,1.64-1.05,3.52-1.58,5.66-1.58,4.74,0,7.87,2.19,9.38,6.58.88-2.06,2.22-3.67,4.03-4.83,1.8-1.16,3.86-1.75,6.17-1.75,6.8,0,10.19,4.41,10.19,13.22Z"/>
    <path class="cls-1" d="M543.98,1818.1c-2.2-1.42-3.9-3.44-5.1-6.06-1.2-2.63-1.79-5.67-1.79-9.15s.6-6.52,1.79-9.15c1.2-2.63,2.89-4.65,5.1-6.06,2.2-1.42,4.75-2.12,7.65-2.12s5.45.71,7.68,2.12c2.22,1.42,3.93,3.44,5.13,6.06,1.2,2.63,1.79,5.68,1.79,9.15s-.6,6.52-1.79,9.15c-1.2,2.63-2.91,4.65-5.13,6.06-2.22,1.42-4.78,2.12-7.68,2.12s-5.44-.71-7.65-2.12ZM558.58,1812.38c1.61-2.17,2.42-5.33,2.42-9.49s-.82-7.2-2.45-9.42c-1.64-2.22-3.94-3.32-6.92-3.32s-5.29,1.11-6.92,3.32c-1.64,2.22-2.45,5.36-2.45,9.42s.81,7.26,2.42,9.46c1.61,2.19,3.93,3.29,6.95,3.29s5.34-1.08,6.95-3.25Z"/>
    <path class="cls-1" d="M601.02,1771.44v48.3h-5.1v-6.1c-.92,2.1-2.28,3.72-4.06,4.86-1.78,1.14-3.87,1.71-6.26,1.71-2.69,0-5.06-.73-7.11-2.19-2.06-1.46-3.65-3.5-4.78-6.13-1.13-2.63-1.7-5.68-1.7-9.15s.57-6.44,1.7-9.04c1.13-2.6,2.73-4.61,4.78-6.03,2.05-1.42,4.42-2.12,7.11-2.12,2.39,0,4.48.57,6.26,1.71,1.78,1.14,3.13,2.76,4.06,4.86v-20.69h5.1ZM593.5,1812.31c1.61-2.21,2.42-5.35,2.42-9.42s-.81-7.19-2.42-9.39c-1.62-2.19-3.91-3.29-6.89-3.29s-5.3,1.1-6.95,3.29c-1.66,2.19-2.49,5.28-2.49,9.25s.83,7.23,2.49,9.49c1.66,2.26,3.97,3.39,6.95,3.39s5.28-1.11,6.89-3.32Z"/>
    <path class="cls-1" d="M636.13,1803.92h-22.4c.17,3.88,1.13,6.82,2.89,8.8,1.76,1.99,4.26,2.98,7.49,2.98,3.56,0,6.84-1.32,9.82-3.97l1.7,4.04c-1.34,1.37-3.06,2.46-5.16,3.25-2.1.8-4.24,1.2-6.42,1.2-4.78,0-8.55-1.53-11.29-4.59-2.75-3.06-4.12-7.28-4.12-12.68,0-3.43.61-6.45,1.82-9.08,1.22-2.63,2.93-4.67,5.13-6.13,2.2-1.46,4.71-2.19,7.52-2.19,4.07,0,7.26,1.45,9.56,4.35,2.31,2.9,3.46,6.89,3.46,11.96v2.06ZM616.72,1792.61c-1.62,1.83-2.57,4.41-2.86,7.74h17.81c-.08-3.38-.86-5.97-2.33-7.78-1.47-1.8-3.52-2.71-6.17-2.71s-4.83.91-6.45,2.74Z"/>
    <path class="cls-1" d="M643.62,1771.44h5.1v48.3h-5.1v-48.3Z"/>
    <path class="cls-1" d="M700.25,1786.38v33.37h-4.97v-5.69c-.97,2.01-2.32,3.54-4.06,4.59-1.74,1.05-3.7,1.58-5.88,1.58-3.65,0-6.4-1.11-8.24-3.32-1.85-2.22-2.77-5.49-2.77-9.83v-20.69h5.1v20.55c0,2.97.54,5.15,1.64,6.54,1.09,1.39,2.81,2.09,5.16,2.09,2.68,0,4.84-.95,6.48-2.84,1.64-1.89,2.45-4.4,2.45-7.5v-18.84h5.1Z"/>
    <path class="cls-1" d="M732.28,1787.75c2.05,1.46,3.65,3.51,4.78,6.13,1.13,2.63,1.7,5.68,1.7,9.15s-.57,6.5-1.7,9.08c-1.13,2.58-2.72,4.58-4.75,5.99-2.04,1.42-4.42,2.12-7.14,2.12-2.39,0-4.48-.57-6.26-1.71-1.78-1.14-3.14-2.76-4.06-4.86v18.43h-5.1v-45.7h5.1v5.76c.92-2.1,2.27-3.72,4.06-4.86,1.78-1.14,3.87-1.71,6.26-1.71,2.68,0,5.05.73,7.11,2.19ZM731.08,1812.34c1.64-2.19,2.45-5.3,2.45-9.32s-.82-7.16-2.45-9.42c-1.64-2.26-3.94-3.39-6.92-3.39s-5.28,1.1-6.89,3.29c-1.62,2.19-2.42,5.32-2.42,9.39s.81,7.21,2.42,9.42c1.61,2.22,3.91,3.32,6.89,3.32s5.29-1.1,6.92-3.29Z"/>
    <path class="cls-1" d="M773.56,1771.44v48.3h-5.1v-6.1c-.92,2.1-2.28,3.72-4.06,4.86-1.78,1.14-3.87,1.71-6.26,1.71-2.69,0-5.06-.73-7.11-2.19-2.06-1.46-3.65-3.5-4.78-6.13-1.13-2.63-1.7-5.68-1.7-9.15s.57-6.44,1.7-9.04c1.13-2.6,2.73-4.61,4.78-6.03,2.05-1.42,4.42-2.12,7.11-2.12,2.39,0,4.48.57,6.26,1.71,1.78,1.14,3.13,2.76,4.06,4.86v-20.69h5.1ZM766.04,1812.31c1.61-2.21,2.42-5.35,2.42-9.42s-.81-7.19-2.42-9.39c-1.62-2.19-3.91-3.29-6.89-3.29s-5.3,1.1-6.95,3.29c-1.66,2.19-2.49,5.28-2.49,9.25s.83,7.23,2.49,9.49c1.66,2.26,3.97,3.39,6.95,3.39s5.28-1.11,6.89-3.32Z"/>
    <path class="cls-1" d="M804.17,1788.81c1.91,2.17,2.86,5.47,2.86,9.9v21.03h-4.97v-5.69c-.8,1.96-2.01,3.48-3.65,4.56-1.64,1.07-3.52,1.61-5.66,1.61-1.97,0-3.79-.43-5.44-1.3-1.66-.87-2.97-2.08-3.93-3.63-.97-1.55-1.45-3.27-1.45-5.14,0-2.51.59-4.46,1.76-5.86,1.17-1.39,3.1-2.4,5.79-3.01,2.68-.62,6.42-.93,11.2-.93h1.38v-2.26c0-2.79-.53-4.81-1.57-6.06-1.05-1.26-2.75-1.88-5.1-1.88-3.52,0-7.03,1.19-10.51,3.56l-1.7-4.04c1.59-1.23,3.51-2.23,5.76-2.98,2.24-.75,4.42-1.13,6.51-1.13,3.9,0,6.81,1.09,8.71,3.25ZM799.64,1813.06c1.61-1.85,2.42-4.24,2.42-7.16v-1.99h-1.13c-3.69,0-6.5.17-8.43.51-1.93.34-3.3.91-4.12,1.71-.82.8-1.23,1.98-1.23,3.53,0,1.78.6,3.25,1.79,4.42,1.2,1.16,2.7,1.75,4.5,1.75,2.52,0,4.58-.93,6.2-2.77Z"/>
    <path class="cls-1" d="M832.58,1815.56l-.25,4.39c-.97.18-2.01.27-3.15.27-3.69,0-6.47-1.05-8.34-3.15-1.87-2.1-2.8-5.02-2.8-8.77v-17.54h-5.98v-4.39h5.98v-10.14h5.1v10.14h8.68v4.39h-8.68v17.13c0,5.25,2.22,7.88,6.67,7.88.92,0,1.85-.07,2.77-.21Z"/>
    <path class="cls-1" d="M863.41,1803.92h-22.4c.17,3.88,1.13,6.82,2.89,8.8,1.76,1.99,4.26,2.98,7.49,2.98,3.56,0,6.84-1.32,9.82-3.97l1.7,4.04c-1.34,1.37-3.06,2.46-5.16,3.25-2.1.8-4.24,1.2-6.42,1.2-4.78,0-8.55-1.53-11.29-4.59-2.75-3.06-4.12-7.28-4.12-12.68,0-3.43.61-6.45,1.82-9.08,1.22-2.63,2.93-4.67,5.13-6.13,2.2-1.46,4.71-2.19,7.52-2.19,4.07,0,7.26,1.45,9.56,4.35,2.31,2.9,3.46,6.89,3.46,11.96v2.06ZM844,1792.61c-1.62,1.83-2.57,4.41-2.86,7.74h17.81c-.08-3.38-.86-5.97-2.33-7.78-1.47-1.8-3.52-2.71-6.17-2.71s-4.83.91-6.45,2.74Z"/>
    <path class="cls-1" d="M869.01,1815.91l1.7-4.11c1.64,1.42,3.3,2.43,5,3.05,1.7.62,3.62.92,5.76.92,2.27,0,4-.42,5.19-1.27,1.2-.84,1.79-2.07,1.79-3.67,0-1.32-.4-2.37-1.2-3.15-.8-.78-2.12-1.39-3.96-1.85l-5.16-1.3c-2.6-.64-4.59-1.74-5.98-3.29-1.38-1.55-2.08-3.47-2.08-5.76,0-2.97,1.07-5.37,3.21-7.19,2.14-1.83,4.99-2.74,8.56-2.74,2.14,0,4.17.38,6.1,1.13,1.93.75,3.54,1.84,4.84,3.25l-1.7,4.04c-2.81-2.6-5.89-3.91-9.25-3.91-2.14,0-3.81.45-5,1.34-1.2.89-1.79,2.14-1.79,3.73,0,1.33.37,2.39,1.1,3.19.73.8,1.92,1.4,3.55,1.82l5.22,1.37c2.85.73,4.97,1.84,6.36,3.32,1.38,1.48,2.08,3.42,2.08,5.79,0,2.92-1.08,5.25-3.24,6.99-2.16,1.74-5.11,2.6-8.84,2.6-5.16,0-9.25-1.44-12.27-4.32Z"/>
    <path class="cls-1" d="M920.86,1817.31c-1.17-5.05-1.76-10.24-1.76-15.59s.59-10.53,1.76-15.55c1.17-5.02,3.1-10.25,5.79-15.69l3.52,1.58c-2.1,5.39-3.6,10.48-4.5,15.28-.9,4.8-1.35,9.59-1.35,14.39s.45,9.59,1.35,14.39c.9,4.8,2.4,9.89,4.5,15.28l-3.52,1.58c-2.69-5.39-4.62-10.61-5.79-15.66Z"/>
    <path class="cls-1" d="M963.52,1798.78v20.97h-5.1v-20.62c0-3.11-.56-5.37-1.67-6.78-1.11-1.42-2.88-2.12-5.32-2.12-2.81,0-5.06.94-6.73,2.81-1.68,1.87-2.52,4.41-2.52,7.61v19.12h-5.1v-33.37h5.03v5.48c1.01-2.06,2.41-3.62,4.22-4.69,1.8-1.07,3.86-1.61,6.17-1.61,7.34,0,11.01,4.41,11.01,13.22Z"/>
    <path class="cls-1" d="M977.9,1818.1c-2.2-1.42-3.9-3.44-5.1-6.06-1.2-2.63-1.79-5.67-1.79-9.15s.6-6.52,1.79-9.15c1.2-2.63,2.89-4.65,5.1-6.06,2.2-1.42,4.75-2.12,7.65-2.12s5.45.71,7.68,2.12c2.22,1.42,3.93,3.44,5.13,6.06,1.2,2.63,1.79,5.68,1.79,9.15s-.6,6.52-1.79,9.15c-1.2,2.63-2.91,4.65-5.13,6.06-2.22,1.42-4.78,2.12-7.68,2.12s-5.44-.71-7.65-2.12ZM992.49,1812.38c1.61-2.17,2.42-5.33,2.42-9.49s-.82-7.2-2.45-9.42c-1.64-2.22-3.94-3.32-6.92-3.32s-5.29,1.11-6.92,3.32c-1.64,2.22-2.45,5.36-2.45,9.42s.81,7.26,2.42,9.46c1.61,2.19,3.93,3.29,6.95,3.29s5.34-1.08,6.95-3.25Z"/>
    <path class="cls-1" d="M1023.92,1815.56l-.25,4.39c-.97.18-2.01.27-3.15.27-3.69,0-6.47-1.05-8.34-3.15-1.87-2.1-2.8-5.02-2.8-8.77v-17.54h-5.98v-4.39h5.98v-10.14h5.1v10.14h8.68v4.39h-8.68v17.13c0,5.25,2.22,7.88,6.67,7.88.92,0,1.85-.07,2.77-.21Z"/>
    <path class="cls-1" d="M1072.5,1771.44v48.3h-5.1v-6.1c-.92,2.1-2.28,3.72-4.06,4.86-1.78,1.14-3.87,1.71-6.26,1.71-2.69,0-5.06-.73-7.11-2.19-2.06-1.46-3.65-3.5-4.78-6.13-1.13-2.63-1.7-5.68-1.7-9.15s.57-6.44,1.7-9.04c1.13-2.6,2.73-4.61,4.78-6.03,2.05-1.42,4.42-2.12,7.11-2.12,2.39,0,4.48.57,6.26,1.71,1.78,1.14,3.13,2.76,4.06,4.86v-20.69h5.1ZM1064.98,1812.31c1.61-2.21,2.42-5.35,2.42-9.42s-.81-7.19-2.42-9.39c-1.62-2.19-3.91-3.29-6.89-3.29s-5.3,1.1-6.95,3.29c-1.66,2.19-2.49,5.28-2.49,9.25s.83,7.23,2.49,9.49c1.66,2.26,3.97,3.39,6.95,3.39s5.28-1.11,6.89-3.32Z"/>
    <path class="cls-1" d="M1103.11,1788.81c1.91,2.17,2.86,5.47,2.86,9.9v21.03h-4.97v-5.69c-.8,1.96-2.01,3.48-3.65,4.56-1.64,1.07-3.52,1.61-5.66,1.61-1.97,0-3.79-.43-5.44-1.3-1.66-.87-2.97-2.08-3.93-3.63-.97-1.55-1.45-3.27-1.45-5.14,0-2.51.59-4.46,1.76-5.86,1.17-1.39,3.1-2.4,5.79-3.01,2.68-.62,6.42-.93,11.2-.93h1.38v-2.26c0-2.79-.53-4.81-1.57-6.06-1.05-1.26-2.75-1.88-5.1-1.88-3.52,0-7.03,1.19-10.51,3.56l-1.7-4.04c1.59-1.23,3.51-2.23,5.76-2.98,2.24-.75,4.42-1.13,6.51-1.13,3.9,0,6.81,1.09,8.71,3.25ZM1098.58,1813.06c1.61-1.85,2.42-4.24,2.42-7.16v-1.99h-1.13c-3.69,0-6.5.17-8.43.51-1.93.34-3.3.91-4.12,1.71-.82.8-1.23,1.98-1.23,3.53,0,1.78.6,3.25,1.79,4.42,1.2,1.16,2.7,1.75,4.5,1.75,2.52,0,4.58-.93,6.2-2.77Z"/>
    <path class="cls-1" d="M1131.52,1815.56l-.25,4.39c-.97.18-2.01.27-3.15.27-3.69,0-6.47-1.05-8.34-3.15-1.87-2.1-2.8-5.02-2.8-8.77v-17.54h-5.98v-4.39h5.98v-10.14h5.1v10.14h8.68v4.39h-8.68v17.13c0,5.25,2.22,7.88,6.67,7.88.92,0,1.85-.07,2.77-.21Z"/>
    <path class="cls-1" d="M1157.85,1788.81c1.91,2.17,2.86,5.47,2.86,9.9v21.03h-4.97v-5.69c-.8,1.96-2.01,3.48-3.65,4.56-1.64,1.07-3.52,1.61-5.66,1.61-1.97,0-3.79-.43-5.44-1.3-1.66-.87-2.97-2.08-3.93-3.63-.97-1.55-1.45-3.27-1.45-5.14,0-2.51.59-4.46,1.76-5.86,1.17-1.39,3.1-2.4,5.79-3.01,2.68-.62,6.42-.93,11.2-.93h1.38v-2.26c0-2.79-.53-4.81-1.57-6.06-1.05-1.26-2.75-1.88-5.1-1.88-3.52,0-7.03,1.19-10.51,3.56l-1.7-4.04c1.59-1.23,3.51-2.23,5.76-2.98,2.24-.75,4.42-1.13,6.51-1.13,3.9,0,6.81,1.09,8.71,3.25ZM1153.32,1813.06c1.61-1.85,2.42-4.24,2.42-7.16v-1.99h-1.13c-3.69,0-6.5.17-8.43.51-1.93.34-3.3.91-4.12,1.71-.82.8-1.23,1.98-1.23,3.53,0,1.78.6,3.25,1.79,4.42,1.2,1.16,2.7,1.75,4.5,1.75,2.52,0,4.58-.93,6.2-2.77Z"/>
    <path class="cls-1" d="M1167.51,1831.39c2.1-5.39,3.6-10.48,4.5-15.28.9-4.8,1.35-9.59,1.35-14.39s-.45-9.59-1.35-14.39c-.9-4.8-2.4-9.89-4.5-15.28l3.52-1.58c2.68,5.44,4.61,10.67,5.79,15.69,1.17,5.03,1.76,10.21,1.76,15.55s-.59,10.54-1.76,15.59c-1.17,5.05-3.1,10.27-5.79,15.66l-3.52-1.58Z"/>
  </g>
  <g>
    <path class="cls-33" d="M529.3,1881.84v20.97h-5.1v-20.69c0-3.06-.49-5.3-1.48-6.71-.99-1.42-2.57-2.12-4.75-2.12-2.56,0-4.57.94-6.04,2.81-1.47,1.87-2.2,4.43-2.2,7.67v19.05h-5.1v-20.69c0-3.11-.5-5.35-1.51-6.75-1.01-1.39-2.6-2.09-4.78-2.09-2.56,0-4.57.94-6.04,2.81-1.47,1.87-2.2,4.43-2.2,7.67v19.05h-5.1v-33.37h5.03v5.28c.92-1.96,2.2-3.47,3.84-4.52,1.64-1.05,3.52-1.58,5.66-1.58,4.74,0,7.87,2.19,9.38,6.58.88-2.06,2.22-3.67,4.03-4.83,1.8-1.16,3.86-1.75,6.17-1.75,6.8,0,10.19,4.41,10.19,13.22Z"/>
    <path class="cls-33" d="M543.68,1901.16c-2.2-1.42-3.9-3.44-5.1-6.06-1.2-2.63-1.79-5.67-1.79-9.15s.6-6.52,1.79-9.15c1.2-2.63,2.89-4.65,5.1-6.06,2.2-1.42,4.75-2.12,7.65-2.12s5.45.71,7.68,2.12c2.22,1.42,3.93,3.44,5.13,6.06,1.2,2.63,1.79,5.68,1.79,9.15s-.6,6.52-1.79,9.15c-1.2,2.63-2.91,4.65-5.13,6.06-2.22,1.42-4.78,2.12-7.68,2.12s-5.44-.71-7.65-2.12ZM558.28,1895.44c1.61-2.17,2.42-5.33,2.42-9.49s-.82-7.2-2.45-9.42c-1.64-2.22-3.94-3.32-6.92-3.32s-5.29,1.11-6.92,3.32c-1.64,2.22-2.45,5.36-2.45,9.42s.81,7.26,2.42,9.46c1.61,2.19,3.93,3.29,6.95,3.29s5.34-1.08,6.95-3.25Z"/>
    <path class="cls-33" d="M600.72,1854.5v48.3h-5.1v-6.1c-.92,2.1-2.28,3.72-4.06,4.86-1.78,1.14-3.87,1.71-6.26,1.71-2.69,0-5.06-.73-7.11-2.19-2.06-1.46-3.65-3.5-4.78-6.13-1.13-2.63-1.7-5.68-1.7-9.15s.57-6.44,1.7-9.04c1.13-2.6,2.73-4.61,4.78-6.03,2.05-1.42,4.42-2.12,7.11-2.12,2.39,0,4.48.57,6.26,1.71,1.78,1.14,3.13,2.76,4.06,4.86v-20.69h5.1ZM593.2,1895.37c1.61-2.21,2.42-5.35,2.42-9.42s-.81-7.19-2.42-9.39c-1.62-2.19-3.91-3.29-6.89-3.29s-5.3,1.1-6.95,3.29c-1.66,2.19-2.49,5.28-2.49,9.25s.83,7.23,2.49,9.49c1.66,2.26,3.97,3.39,6.95,3.39s5.28-1.11,6.89-3.32Z"/>
    <path class="cls-33" d="M635.83,1886.98h-22.4c.17,3.88,1.13,6.82,2.89,8.8,1.76,1.99,4.26,2.98,7.49,2.98,3.56,0,6.84-1.32,9.82-3.97l1.7,4.04c-1.34,1.37-3.06,2.46-5.16,3.25-2.1.8-4.24,1.2-6.42,1.2-4.78,0-8.55-1.53-11.29-4.59-2.75-3.06-4.12-7.28-4.12-12.68,0-3.43.61-6.45,1.82-9.08,1.22-2.63,2.93-4.67,5.13-6.13,2.2-1.46,4.71-2.19,7.52-2.19,4.07,0,7.26,1.45,9.56,4.35,2.31,2.9,3.46,6.89,3.46,11.96v2.06ZM616.42,1875.68c-1.62,1.83-2.57,4.41-2.86,7.74h17.81c-.08-3.38-.86-5.97-2.33-7.78-1.47-1.8-3.52-2.71-6.17-2.71s-4.83.91-6.45,2.74Z"/>
    <path class="cls-33" d="M643.32,1854.5h5.1v48.3h-5.1v-48.3Z"/>
  </g>
</svg>