<?xml version="1.0" encoding="UTF-8"?>
<svg id="Livello_1" data-name="Livello 1" xmlns="http://www.w3.org/2000/svg" xmlns:xlink="http://www.w3.org/1999/xlink" viewBox="0 0 1000 1000">
  <defs>
    <style>
      .cls-1 {
        stroke-width: 10.69px;
      }

      .cls-1, .cls-2 {
        fill: none;
        stroke: #fff;
        stroke-miterlimit: 10;
      }

      .cls-2 {
        stroke-width: 9.93px;
      }

      .cls-3 {
        fill: url(#Sfumatura_senza_nome_11);
      }

      .cls-4 {
        fill: #fff;
      }

      .cls-5 {
        fill: url(#Sfumatura_senza_nome_190-2);
      }

      .cls-6 {
        fill: url(#Sfumatura_senza_nome_190-4);
      }

      .cls-7 {
        fill: url(#Sfumatura_senza_nome_190-3);
      }

      .cls-8 {
        fill: url(#Sfumatura_senza_nome_190-6);
      }

      .cls-9 {
        fill: url(#Sfumatura_senza_nome_190-5);
      }

      .cls-10 {
        fill: url(#Sfumatura_senza_nome_190-7);
      }

      .cls-11 {
        fill: url(#Sfumatura_senza_nome_8);
      }

      .cls-12 {
        fill: url(#Sfumatura_senza_nome_113-2);
        opacity: .5;
      }

      .cls-13 {
        fill: url(#Sfumatura_senza_nome_190);
      }

      .cls-14 {
        fill: url(#Sfumatura_senza_nome_113);
      }

      .cls-15 {
        fill: url(#Sfumatura_senza_nome_8-2);
      }
    </style>
    <linearGradient id="Sfumatura_senza_nome_11" data-name="Sfumatura senza nome 11" x1="146.76" y1="513.83" x2="860.9" y2="513.83" gradientUnits="userSpaceOnUse">
      <stop offset="0" stop-color="#90e0ef"/>
      <stop offset="1" stop-color="#00b4d8"/>
    </linearGradient>
    <linearGradient id="Sfumatura_senza_nome_113" data-name="Sfumatura senza nome 113" x1="145" y1="270.55" x2="866.38" y2="270.55" gradientUnits="userSpaceOnUse">
      <stop offset="0" stop-color="#0077b6"/>
      <stop offset="1" stop-color="#03045e"/>
    </linearGradient>
    <linearGradient id="Sfumatura_senza_nome_190" data-name="Sfumatura senza nome 190" x1="146.21" y1="418.53" x2="861.55" y2="418.53" gradientUnits="userSpaceOnUse">
      <stop offset="0" stop-color="#030660"/>
      <stop offset="1" stop-color="#0076b5"/>
    </linearGradient>
    <linearGradient id="Sfumatura_senza_nome_190-2" data-name="Sfumatura senza nome 190" x1="145.23" y1="613" x2="860.56" y2="613" xlink:href="#Sfumatura_senza_nome_190"/>
    <linearGradient id="Sfumatura_senza_nome_190-3" data-name="Sfumatura senza nome 190" x1="147.09" y1="515.76" x2="862.43" y2="515.76" xlink:href="#Sfumatura_senza_nome_190"/>
    <linearGradient id="Sfumatura_senza_nome_190-4" data-name="Sfumatura senza nome 190" y1="710.23" y2="710.23" xlink:href="#Sfumatura_senza_nome_190"/>
    <linearGradient id="Sfumatura_senza_nome_190-5" data-name="Sfumatura senza nome 190" x1="286.49" y1="810.29" x2="286.49" y2="332.78" xlink:href="#Sfumatura_senza_nome_190"/>
    <linearGradient id="Sfumatura_senza_nome_190-6" data-name="Sfumatura senza nome 190" x1="504.76" y1="332.78" x2="504.76" y2="810.29" xlink:href="#Sfumatura_senza_nome_190"/>
    <linearGradient id="Sfumatura_senza_nome_190-7" data-name="Sfumatura senza nome 190" x1="723.03" y1="810.29" x2="723.03" y2="332.78" xlink:href="#Sfumatura_senza_nome_190"/>
    <linearGradient id="Sfumatura_senza_nome_8" data-name="Sfumatura senza nome 8" x1="414.87" y1="489.54" x2="714.46" y2="489.54" gradientUnits="userSpaceOnUse">
      <stop offset="0" stop-color="#00b4d8"/>
      <stop offset="1" stop-color="#0077b6"/>
    </linearGradient>
    <linearGradient id="Sfumatura_senza_nome_113-2" data-name="Sfumatura senza nome 113" x1="414.87" y1="489.54" x2="714.46" y2="489.54" xlink:href="#Sfumatura_senza_nome_113"/>
    <linearGradient id="Sfumatura_senza_nome_8-2" data-name="Sfumatura senza nome 8" x1="398.88" y1="613" x2="796.41" y2="613" xlink:href="#Sfumatura_senza_nome_8"/>
  </defs>
  <rect class="cls-3" x="146.76" y="215.27" width="714.14" height="597.11" rx="27.28" ry="27.28"/>
  <path class="cls-14" d="M173.26,208.33h664.87c15.6,0,28.26,12.66,28.26,28.26v96.19H145v-96.19c0-15.6,12.66-28.26,28.26-28.26Z"/>
  <path class="cls-13" d="M146.21,418.33c29.81-.74,59.61-1.07,89.42-1.35l22.35-.15,22.35-.07c14.9-.06,29.81-.01,44.71.11l44.71.55,22.35.29,22.35.17c29.81.12,59.61-.1,89.42-.45,29.81-.38,59.61-.67,89.42-.79,29.81-.14,59.61-.31,89.42-.25,59.61.2,119.22.66,178.83,1.93v.4c-59.61,1.27-119.22,1.73-178.83,1.93-29.81.05-59.61-.11-89.42-.25-29.81-.12-59.61-.4-89.42-.79-29.81-.34-59.61-.56-89.42-.45l-22.35.17-22.35.29-44.71.55c-14.9.12-29.81.16-44.71.11l-22.35-.07-22.35-.15c-29.81-.28-59.61-.61-89.42-1.35v-.4Z"/>
  <path class="cls-5" d="M145.23,612.8c29.81-.74,59.61-1.07,89.42-1.35l22.35-.15,22.35-.07c14.9-.06,29.81-.01,44.71.11l44.71.55,22.35.29,22.35.17c29.81.12,59.61-.1,89.42-.45,29.81-.38,59.61-.67,89.42-.79,29.81-.14,59.61-.31,89.42-.25,59.61.2,119.22.66,178.83,1.93v.4c-59.61,1.27-119.22,1.73-178.83,1.93-29.81.05-59.61-.11-89.42-.25-29.81-.12-59.61-.4-89.42-.79-29.81-.34-59.61-.56-89.42-.45l-22.35.17-22.35.29-44.71.55c-14.9.12-29.81.16-44.71.11l-22.35-.07-22.35-.15c-29.81-.28-59.61-.61-89.42-1.35v-.4Z"/>
  <path class="cls-7" d="M147.09,515.76l22.35-.3,22.35-.23,44.71-.45,89.42-.56c29.81-.24,59.61-.2,89.42-.29l89.42-.18,89.42.18,44.71.09,22.35.05,22.35.14,89.42.56,44.71.45,22.35.23,22.35.3-22.35.3-22.35.23-44.71.45-89.42.56-22.35.14-22.35.05-44.71.09-89.42.18-89.42-.18c-29.81-.09-59.61-.05-89.42-.29l-89.42-.56-44.71-.45-22.35-.23-22.35-.3Z"/>
  <path class="cls-6" d="M146.21,710.23l22.35-.3,22.35-.23,44.71-.45,89.42-.56c29.81-.24,59.61-.2,89.42-.29l89.42-.18,89.42.18,44.71.09,22.35.05,22.35.14,89.42.56,44.71.45,22.35.23,22.35.3-22.35.3-22.35.23-44.71.45-89.42.56-22.35.14-22.35.05-44.71.09-89.42.18-89.42-.18c-29.81-.09-59.61-.04-89.42-.29l-89.42-.56-44.71-.45-22.35-.23-22.35-.3Z"/>
  <path class="cls-9" d="M286.29,810.29c-.72-19.9-1.13-39.79-1.35-59.69l-.15-14.92-.07-14.92c-.06-9.95-.01-19.9.11-29.84l.55-29.84.29-14.92.17-14.92c.15-19.9-.1-39.79-.45-59.69-.38-19.9-.67-39.79-.79-59.69-.14-19.9-.31-39.79-.25-59.69.2-39.79.66-79.59,1.93-119.38h.4c1.27,39.79,1.73,79.59,1.93,119.38.05,19.9-.11,39.79-.25,59.69-.12,19.9-.4,39.79-.79,59.69-.35,19.9-.6,39.79-.45,59.69l.17,14.92.29,14.92.55,29.84c.12,9.95.16,19.9.11,29.84l-.07,14.92-.15,14.92c-.22,19.9-.63,39.79-1.35,59.69h-.4Z"/>
  <path class="cls-8" d="M504.76,332.78l.3,14.92.23,14.92.45,29.84.56,59.69c.37,39.79.42,79.59.47,119.38l-.11,59.69c-.12,19.9-.13,39.79-.36,59.69l-.56,59.69-.45,29.84-.23,14.92-.3,14.92-.3-14.92-.23-14.92-.45-29.84-.56-59.69c-.23-19.9-.24-39.79-.36-59.69l-.11-59.69c.05-39.79.1-79.59.47-119.38l.56-59.69.45-29.84.23-14.92.3-14.92Z"/>
  <path class="cls-10" d="M722.83,810.29c-.72-19.9-1.13-39.79-1.35-59.69l-.15-14.92-.07-14.92c-.06-9.95-.01-19.9.11-29.84l.55-29.84.29-14.92.17-14.92c.15-19.9-.1-39.79-.45-59.69-.38-19.9-.67-39.79-.79-59.69-.14-19.9-.31-39.79-.25-59.69.2-39.79.66-79.59,1.93-119.38h.4c1.27,39.79,1.73,79.59,1.93,119.38.05,19.9-.11,39.79-.25,59.69-.12,19.9-.4,39.79-.79,59.69-.35,19.9-.6,39.79-.45,59.69l.17,14.92.29,14.92.55,29.84c.12,9.95.16,19.9.11,29.84l-.07,14.92-.15,14.92c-.22,19.9-.63,39.79-1.35,59.69h-.4Z"/>
  <g>
    <path class="cls-11" d="M564.67,639.33c-29.05,0-56.17-8.27-79.13-22.59-21.56-13.43-39.45-32.19-51.83-54.44-12-21.55-18.84-46.36-18.84-72.77,0-38.17,14.28-73.01,37.79-99.46,9.55-10.75,20.62-20.11,32.88-27.75,22.96-14.31,50.08-22.58,79.13-22.58,44.56,0,84.57,19.45,112.01,50.33,23.5,26.45,37.78,61.29,37.78,99.46,0,26.41-6.84,51.22-18.83,72.77-25.58,45.95-74.64,77.03-130.96,77.03Z"/>
    <path class="cls-11" d="M714.46,489.53c0,26.41-6.84,51.22-18.83,72.77-25.58,45.95-74.64,77.03-130.96,77.03-29.05,0-56.17-8.27-79.13-22.59-21.56-13.43-39.45-32.19-51.83-54.44-12-21.55-18.84-46.36-18.84-72.77,0-38.17,14.28-73.01,37.79-99.46,9.55-10.75,20.62-20.11,32.88-27.75,22.96-14.31,50.08-22.58,79.13-22.58,44.56,0,84.57,19.45,112.01,50.33,23.5,26.45,37.78,61.29,37.78,99.46Z"/>
    <path class="cls-12" d="M714.46,489.53c0,26.41-6.84,51.22-18.83,72.77-25.58,45.95-74.64,77.03-130.96,77.03-29.05,0-56.17-8.27-79.13-22.59-21.56-13.43-39.45-32.19-51.83-54.44-12-21.55-18.84-46.36-18.84-72.77,0-38.17,14.28-73.01,37.79-99.46,9.55-10.75,20.62-20.11,32.88-27.75,22.96-14.31,50.08-22.58,79.13-22.58,44.56,0,84.57,19.45,112.01,50.33,23.5,26.45,37.78,61.29,37.78,99.46Z"/>
  </g>
  <path class="cls-1" d="M485.54,349.68c0,77.7,0,200.52,0,278.22"/>
  <path class="cls-2" d="M684.78,390.07c-67.09,0-173.13,0-240.21,0"/>
  <path class="cls-1" d="M703.78,562.31c-77.7,0-200.52,0-278.22,0"/>
  <path class="cls-4" d="M607.87,456.79l-7.31,37.5h20.13v9.58h-21.92l-5.84,29.55h-10.23l5.68-29.55h-25.81l-5.68,29.55h-10.39l5.85-29.55h-14.45v-9.58h16.23l7.31-37.5h-20.29v-9.58h22.24l5.52-28.25h10.23l-5.52,28.25h25.81l5.52-28.25h10.39l-5.52,28.25h14.12v9.58h-16.07ZM597.65,456.79h-25.81l-7.31,37.5h25.81l7.31-37.5Z"/>
  <path class="cls-15" d="M794.31,869.02l-128.55-248.66c39.02-30.27,64.13-77.61,64.13-130.83,0-91.41-74.1-165.5-165.5-165.5s-165.51,74.09-165.51,165.5,74.1,165.5,165.51,165.5c20.42,0,39.97-3.69,58.03-10.46l127.83,247.23c4.76,9.22,16.1,12.83,25.31,8.06l10.7-5.53c9.22-4.76,12.82-16.09,8.05-25.31ZM564.39,639.33c-29.05,0-56.17-8.27-79.13-22.59-21.56-13.43-39.45-32.19-51.83-54.44-12-21.55-18.84-46.36-18.84-72.77,0-38.17,14.28-73.01,37.79-99.46,9.55-10.75,20.62-20.11,32.88-27.75,22.96-14.31,50.08-22.58,79.13-22.58,44.56,0,84.57,19.45,112.01,50.33,23.5,26.45,37.78,61.29,37.78,99.46,0,26.41-6.84,51.22-18.83,72.77-25.58,45.95-74.64,77.03-130.96,77.03Z"/>
</svg>