<?xml version="1.0" encoding="UTF-8"?>
<svg id="Livello_1" data-name="Livello 1" xmlns="http://www.w3.org/2000/svg" xmlns:xlink="http://www.w3.org/1999/xlink" viewBox="0 0 1000 1000">
  <defs>
    <style>
      .cls-1 {
        fill: url(#Sfumatura_senza_nome_11);
      }

      .cls-2 {
        fill: url(#Sfumatura_senza_nome_11-4);
      }

      .cls-3 {
        fill: url(#Sfumatura_senza_nome_11-3);
      }

      .cls-4 {
        fill: url(#Sfumatura_senza_nome_11-2);
      }

      .cls-5 {
        opacity: .3;
      }

      .cls-6 {
        fill: url(#Sfumatura_senza_nome_113-4);
      }

      .cls-7 {
        fill: url(#Sfumatura_senza_nome_113-3);
      }

      .cls-8 {
        fill: url(#Sfumatura_senza_nome_113-2);
      }

      .cls-9 {
        fill: url(#Sfumatura_senza_nome_8);
      }

      .cls-10 {
        fill: url(#Sfumatura_senza_nome_113);
      }

      .cls-11 {
        fill: url(#Sfumatura_senza_nome_8-6);
      }

      .cls-12 {
        fill: url(#Sfumatura_senza_nome_8-2);
      }

      .cls-13 {
        fill: url(#Sfumatura_senza_nome_8-7);
      }

      .cls-14 {
        fill: url(#Sfumatura_senza_nome_8-8);
      }

      .cls-15 {
        fill: url(#Sfumatura_senza_nome_8-5);
      }

      .cls-16 {
        fill: url(#Sfumatura_senza_nome_8-3);
      }

      .cls-17 {
        fill: url(#Sfumatura_senza_nome_8-4);
      }
    </style>
    <linearGradient id="Sfumatura_senza_nome_8" data-name="Sfumatura senza nome 8" x1="303.29" y1="877.87" x2="697.84" y2="877.87" gradientUnits="userSpaceOnUse">
      <stop offset="0" stop-color="#00b4d8"/>
      <stop offset="1" stop-color="#0077b6"/>
    </linearGradient>
    <linearGradient id="Sfumatura_senza_nome_11" data-name="Sfumatura senza nome 11" x1="382.43" y1="842.03" x2="618.7" y2="842.03" gradientUnits="userSpaceOnUse">
      <stop offset="0" stop-color="#90e0ef"/>
      <stop offset="1" stop-color="#00b4d8"/>
    </linearGradient>
    <linearGradient id="Sfumatura_senza_nome_8-2" data-name="Sfumatura senza nome 8" x1="452.67" y1="-8733.89" x2="548.48" y2="-8733.89" gradientTransform="translate(0 -7810.86) scale(1 -1)" xlink:href="#Sfumatura_senza_nome_8"/>
    <linearGradient id="Sfumatura_senza_nome_113" data-name="Sfumatura senza nome 113" x1="450.05" y1="719.86" x2="551.09" y2="719.86" gradientUnits="userSpaceOnUse">
      <stop offset="0" stop-color="#0077b6"/>
      <stop offset="1" stop-color="#03045e"/>
    </linearGradient>
    <linearGradient id="Sfumatura_senza_nome_8-3" data-name="Sfumatura senza nome 8" x1="562.38" y1="557.48" x2="956.92" y2="557.48" xlink:href="#Sfumatura_senza_nome_8"/>
    <linearGradient id="Sfumatura_senza_nome_11-2" data-name="Sfumatura senza nome 11" x1="641.52" y1="521.64" x2="877.78" y2="521.64" xlink:href="#Sfumatura_senza_nome_11"/>
    <linearGradient id="Sfumatura_senza_nome_8-4" data-name="Sfumatura senza nome 8" x1="711.75" y1="-8413.5" x2="807.56" y2="-8413.5" gradientTransform="translate(0 -7810.86) scale(1 -1)" xlink:href="#Sfumatura_senza_nome_8"/>
    <linearGradient id="Sfumatura_senza_nome_113-2" data-name="Sfumatura senza nome 113" x1="709.13" y1="399.47" x2="810.18" y2="399.47" xlink:href="#Sfumatura_senza_nome_113"/>
    <linearGradient id="Sfumatura_senza_nome_8-5" data-name="Sfumatura senza nome 8" x1="68.4" y1="557.48" x2="462.94" y2="557.48" xlink:href="#Sfumatura_senza_nome_8"/>
    <linearGradient id="Sfumatura_senza_nome_11-3" data-name="Sfumatura senza nome 11" x1="147.54" y1="521.64" x2="383.8" y2="521.64" xlink:href="#Sfumatura_senza_nome_11"/>
    <linearGradient id="Sfumatura_senza_nome_8-6" data-name="Sfumatura senza nome 8" x1="217.77" y1="-8413.5" x2="313.58" y2="-8413.5" gradientTransform="translate(0 -7810.86) scale(1 -1)" xlink:href="#Sfumatura_senza_nome_8"/>
    <linearGradient id="Sfumatura_senza_nome_113-3" data-name="Sfumatura senza nome 113" x1="215.15" y1="399.47" x2="316.2" y2="399.47" xlink:href="#Sfumatura_senza_nome_113"/>
    <linearGradient id="Sfumatura_senza_nome_8-7" data-name="Sfumatura senza nome 8" x1="303.29" y1="234.97" x2="697.83" y2="234.97" xlink:href="#Sfumatura_senza_nome_8"/>
    <linearGradient id="Sfumatura_senza_nome_11-4" data-name="Sfumatura senza nome 11" x1="382.43" y1="199.13" x2="618.69" y2="199.13" xlink:href="#Sfumatura_senza_nome_11"/>
    <linearGradient id="Sfumatura_senza_nome_8-8" data-name="Sfumatura senza nome 8" x1="452.66" y1="-8090.99" x2="548.47" y2="-8090.99" gradientTransform="translate(0 -7810.86) scale(1 -1)" xlink:href="#Sfumatura_senza_nome_8"/>
    <linearGradient id="Sfumatura_senza_nome_113-4" data-name="Sfumatura senza nome 113" x1="450.04" y1="76.96" x2="551.09" y2="76.96" xlink:href="#Sfumatura_senza_nome_113"/>
  </defs>
  <g class="cls-5">
    <path class="cls-9" d="M697.84,796.09v163.56c0,2.51-2.04,4.55-4.55,4.55h-385.45c-2.51,0-4.55-2.04-4.55-4.55v-163.56c0-2.51,2.04-4.55,4.55-4.55h106.54v67.9c0,5.45,4.43,9.88,9.88,9.88h152.61c5.45,0,9.88-4.43,9.88-9.88v-67.9h106.54c2.51,0,4.55,2.04,4.55,4.55Z"/>
    <path class="cls-1" d="M614.15,719.86h-55.05v42.43c0,5.98-4.86,10.84-10.84,10.84h-95.37c-5.98,0-10.85-4.87-10.85-10.84v-42.43h-55.06c-2.51,0-4.55,2.04-4.55,4.55v235.24c0,2.51,2.04,4.55,4.55,4.55h227.17c2.51,0,4.55-2.04,4.55-4.55v-235.24c0-2.51-2.03-4.55-4.55-4.55Z"/>
    <path class="cls-12" d="M452.67,886.42h0c0,2.51,2.03,4.55,4.55,4.55h2.2c2.51,0,4.55,2.03,4.55,4.55v64.14c0,2.51,2.03,4.55,4.55,4.55h64.14c2.51,0,4.55-2.03,4.55-4.55v-64.14c0-2.51,2.03-4.55,4.55-4.55h2.2c2.51,0,4.55-2.03,4.55-4.55h0c0-2.51-2.03-4.55-4.55-4.55h-86.71c-2.51,0-4.55,2.03-4.55,4.55h0Z"/>
    <path class="cls-10" d="M548.26,674.59h-95.37c-1.57,0-2.84,1.27-2.84,2.84v84.87c0,1.57,1.28,2.84,2.84,2.84h95.37c1.57,0,2.84-1.27,2.84-2.84v-84.87c0-1.57-1.27-2.84-2.84-2.84ZM536.43,732.05c0,1.98-1.61,3.59-3.59,3.59h-12.9c-1.98,0-3.59,1.61-3.59,3.59v12.9c0,1.98-1.61,3.59-3.59,3.59h-24.38c-1.98,0-3.59-1.61-3.59-3.59v-12.9c0-1.98-1.61-3.59-3.59-3.59h-12.9c-1.98,0-3.59-1.61-3.59-3.59v-24.38c0-1.98,1.61-3.59,3.59-3.59h12.9c1.98,0,3.59-1.61,3.59-3.59v-12.9c0-1.98,1.61-3.59,3.59-3.59h24.38c1.98,0,3.59,1.61,3.59,3.59v12.9c0,1.98,1.61,3.59,3.59,3.59h12.9c1.98,0,3.59,1.61,3.59,3.59v24.38Z"/>
  </g>
  <g class="cls-5">
    <path class="cls-16" d="M956.92,475.7v163.56c0,2.51-2.04,4.55-4.55,4.55h-385.45c-2.51,0-4.55-2.04-4.55-4.55v-163.56c0-2.51,2.04-4.55,4.55-4.55h106.54v67.9c0,5.45,4.43,9.88,9.88,9.88h152.61c5.45,0,9.88-4.43,9.88-9.88v-67.9h106.54c2.51,0,4.55,2.04,4.55,4.55Z"/>
    <path class="cls-4" d="M873.24,399.47h-55.05v42.43c0,5.98-4.86,10.84-10.84,10.84h-95.37c-5.98,0-10.85-4.87-10.85-10.84v-42.43h-55.06c-2.51,0-4.55,2.04-4.55,4.55v235.24c0,2.51,2.04,4.55,4.55,4.55h227.17c2.51,0,4.55-2.04,4.55-4.55v-235.24c0-2.51-2.03-4.55-4.55-4.55Z"/>
    <path class="cls-17" d="M711.75,566.03h0c0,2.51,2.03,4.55,4.55,4.55h2.2c2.51,0,4.55,2.03,4.55,4.55v64.14c0,2.51,2.03,4.55,4.55,4.55h64.14c2.51,0,4.55-2.03,4.55-4.55v-64.14c0-2.51,2.03-4.55,4.55-4.55h2.2c2.51,0,4.55-2.03,4.55-4.55h0c0-2.51-2.03-4.55-4.55-4.55h-86.71c-2.51,0-4.55,2.03-4.55,4.55h0Z"/>
    <path class="cls-8" d="M807.34,354.2h-95.37c-1.57,0-2.84,1.27-2.84,2.84v84.87c0,1.57,1.28,2.84,2.84,2.84h95.37c1.57,0,2.84-1.27,2.84-2.84v-84.87c0-1.57-1.27-2.84-2.84-2.84ZM795.51,411.66c0,1.98-1.61,3.59-3.59,3.59h-12.9c-1.98,0-3.59,1.61-3.59,3.59v12.9c0,1.98-1.61,3.59-3.59,3.59h-24.38c-1.98,0-3.59-1.61-3.59-3.59v-12.9c0-1.98-1.61-3.59-3.59-3.59h-12.9c-1.98,0-3.59-1.61-3.59-3.59v-24.38c0-1.98,1.61-3.59,3.59-3.59h12.9c1.98,0,3.59-1.61,3.59-3.59v-12.9c0-1.98,1.61-3.59,3.59-3.59h24.38c1.98,0,3.59,1.61,3.59,3.59v12.9c0,1.98,1.61,3.59,3.59,3.59h12.9c1.98,0,3.59,1.61,3.59,3.59v24.38Z"/>
  </g>
  <g>
    <path class="cls-15" d="M462.94,475.7v163.56c0,2.51-2.04,4.55-4.55,4.55H72.94c-2.51,0-4.55-2.04-4.55-4.55v-163.56c0-2.51,2.04-4.55,4.55-4.55h106.54v67.9c0,5.45,4.43,9.88,9.88,9.88h152.61c5.45,0,9.88-4.43,9.88-9.88v-67.9h106.54c2.51,0,4.55,2.04,4.55,4.55Z"/>
    <path class="cls-3" d="M379.25,399.47h-55.05v42.43c0,5.98-4.86,10.84-10.84,10.84h-95.37c-5.98,0-10.85-4.87-10.85-10.84v-42.43h-55.06c-2.51,0-4.55,2.04-4.55,4.55v235.24c0,2.51,2.04,4.55,4.55,4.55h227.17c2.51,0,4.55-2.04,4.55-4.55v-235.24c0-2.51-2.03-4.55-4.55-4.55Z"/>
    <path class="cls-11" d="M217.77,566.03h0c0,2.51,2.03,4.55,4.55,4.55h2.2c2.51,0,4.55,2.03,4.55,4.55v64.14c0,2.51,2.03,4.55,4.55,4.55h64.14c2.51,0,4.55-2.03,4.55-4.55v-64.14c0-2.51,2.03-4.55,4.55-4.55h2.2c2.51,0,4.55-2.03,4.55-4.55h0c0-2.51-2.03-4.55-4.55-4.55h-86.71c-2.51,0-4.55,2.03-4.55,4.55h0Z"/>
    <path class="cls-7" d="M313.36,354.2h-95.37c-1.57,0-2.84,1.27-2.84,2.84v84.87c0,1.57,1.28,2.84,2.84,2.84h95.37c1.57,0,2.84-1.27,2.84-2.84v-84.87c0-1.57-1.27-2.84-2.84-2.84ZM301.53,411.66c0,1.98-1.61,3.59-3.59,3.59h-12.9c-1.98,0-3.59,1.61-3.59,3.59v12.9c0,1.98-1.61,3.59-3.59,3.59h-24.38c-1.98,0-3.59-1.61-3.59-3.59v-12.9c0-1.98-1.61-3.59-3.59-3.59h-12.9c-1.98,0-3.59-1.61-3.59-3.59v-24.38c0-1.98,1.61-3.59,3.59-3.59h12.9c1.98,0,3.59-1.61,3.59-3.59v-12.9c0-1.98,1.61-3.59,3.59-3.59h24.38c1.98,0,3.59,1.61,3.59,3.59v12.9c0,1.98,1.61,3.59,3.59,3.59h12.9c1.98,0,3.59,1.61,3.59,3.59v24.38Z"/>
  </g>
  <g>
    <path class="cls-13" d="M697.83,153.19v163.56c0,2.51-2.04,4.55-4.55,4.55h-385.45c-2.51,0-4.55-2.04-4.55-4.55v-163.56c0-2.51,2.04-4.55,4.55-4.55h106.54v67.9c0,5.45,4.43,9.88,9.88,9.88h152.61c5.45,0,9.88-4.43,9.88-9.88v-67.9h106.54c2.51,0,4.55,2.04,4.55,4.55Z"/>
    <path class="cls-2" d="M614.15,76.96h-55.05v42.43c0,5.98-4.86,10.84-10.84,10.84h-95.37c-5.98,0-10.85-4.87-10.85-10.84v-42.43h-55.06c-2.51,0-4.55,2.04-4.55,4.55v235.24c0,2.51,2.04,4.55,4.55,4.55h227.17c2.51,0,4.55-2.04,4.55-4.55V81.51c0-2.51-2.03-4.55-4.55-4.55Z"/>
    <path class="cls-14" d="M452.66,243.52h0c0,2.51,2.03,4.55,4.55,4.55h2.2c2.51,0,4.55,2.03,4.55,4.55v64.14c0,2.51,2.03,4.55,4.55,4.55h64.14c2.51,0,4.55-2.03,4.55-4.55v-64.14c0-2.51,2.03-4.55,4.55-4.55h2.2c2.51,0,4.55-2.03,4.55-4.55h0c0-2.51-2.03-4.55-4.55-4.55h-86.71c-2.51,0-4.55,2.03-4.55,4.55h0Z"/>
    <path class="cls-6" d="M548.25,31.69h-95.37c-1.57,0-2.84,1.27-2.84,2.84v84.87c0,1.57,1.28,2.84,2.84,2.84h95.37c1.57,0,2.84-1.27,2.84-2.84V34.52c0-1.57-1.27-2.84-2.84-2.84ZM536.42,89.15c0,1.98-1.61,3.59-3.59,3.59h-12.9c-1.98,0-3.59,1.61-3.59,3.59v12.9c0,1.98-1.61,3.59-3.59,3.59h-24.38c-1.98,0-3.59-1.61-3.59-3.59v-12.9c0-1.98-1.61-3.59-3.59-3.59h-12.9c-1.98,0-3.59-1.61-3.59-3.59v-24.38c0-1.98,1.61-3.59,3.59-3.59h12.9c1.98,0,3.59-1.61,3.59-3.59v-12.9c0-1.98,1.61-3.59,3.59-3.59h24.38c1.98,0,3.59,1.61,3.59,3.59v12.9c0,1.98,1.61,3.59,3.59,3.59h12.9c1.98,0,3.59,1.61,3.59,3.59v24.38Z"/>
  </g>
</svg>