<?xml version="1.0" encoding="UTF-8"?>
<svg id="Livello_1" data-name="Livello 1" xmlns="http://www.w3.org/2000/svg" xmlns:xlink="http://www.w3.org/1999/xlink" viewBox="0 0 1000 1000">
  <defs>
    <style>
      .cls-1 {
        fill: url(#Sfumatura_senza_nome_11);
      }

      .cls-2 {
        fill: url(#Sfumatura_senza_nome_11-3);
      }

      .cls-3 {
        fill: url(#Sfumatura_senza_nome_11-2);
      }

      .cls-4 {
        fill: #fff;
      }

      .cls-5 {
        opacity: .3;
      }

      .cls-6 {
        fill: url(#Sfumatura_senza_nome_113-3);
      }

      .cls-7 {
        fill: url(#Sfumatura_senza_nome_113-2);
      }

      .cls-8 {
        fill: url(#Sfumatura_senza_nome_8);
      }

      .cls-9 {
        fill: url(#Sfumatura_senza_nome_113);
      }

      .cls-10 {
        fill: url(#Sfumatura_senza_nome_8-2);
      }

      .cls-11 {
        fill: url(#Sfumatura_senza_nome_8-3);
      }

      .cls-12 {
        fill: url(#Sfumatura_senza_nome_8-4);
      }
    </style>
    <linearGradient id="Sfumatura_senza_nome_11" data-name="Sfumatura senza nome 11" x1="543.86" y1="562.41" x2="763.65" y2="562.41" gradientUnits="userSpaceOnUse">
      <stop offset="0" stop-color="#90e0ef"/>
      <stop offset="1" stop-color="#00b4d8"/>
    </linearGradient>
    <linearGradient id="Sfumatura_senza_nome_113" data-name="Sfumatura senza nome 113" x1="563.88" y1="538.74" x2="885.23" y2="538.74" gradientUnits="userSpaceOnUse">
      <stop offset="0" stop-color="#0077b6"/>
      <stop offset="1" stop-color="#03045e"/>
    </linearGradient>
    <linearGradient id="Sfumatura_senza_nome_8" data-name="Sfumatura senza nome 8" x1="149.1" y1="343.84" x2="543.64" y2="343.84" gradientUnits="userSpaceOnUse">
      <stop offset="0" stop-color="#00b4d8"/>
      <stop offset="1" stop-color="#0077b6"/>
    </linearGradient>
    <linearGradient id="Sfumatura_senza_nome_11-2" data-name="Sfumatura senza nome 11" x1="228.24" y1="308" x2="464.5" y2="308" xlink:href="#Sfumatura_senza_nome_11"/>
    <linearGradient id="Sfumatura_senza_nome_8-2" data-name="Sfumatura senza nome 8" x1="298.47" y1="-6079.86" x2="394.28" y2="-6079.86" gradientTransform="translate(0 -5690.86) scale(1 -1)" xlink:href="#Sfumatura_senza_nome_8"/>
    <linearGradient id="Sfumatura_senza_nome_113-2" data-name="Sfumatura senza nome 113" x1="295.85" y1="185.83" x2="396.9" y2="185.83" xlink:href="#Sfumatura_senza_nome_113"/>
    <linearGradient id="Sfumatura_senza_nome_8-3" data-name="Sfumatura senza nome 8" x1="148.95" y1="778.61" x2="543.49" y2="778.61" xlink:href="#Sfumatura_senza_nome_8"/>
    <linearGradient id="Sfumatura_senza_nome_11-3" data-name="Sfumatura senza nome 11" x1="228.09" y1="742.77" x2="464.35" y2="742.77" xlink:href="#Sfumatura_senza_nome_11"/>
    <linearGradient id="Sfumatura_senza_nome_8-4" data-name="Sfumatura senza nome 8" x1="298.33" y1="-6514.63" x2="394.13" y2="-6514.63" gradientTransform="translate(0 -5690.86) scale(1 -1)" xlink:href="#Sfumatura_senza_nome_8"/>
    <linearGradient id="Sfumatura_senza_nome_113-3" data-name="Sfumatura senza nome 113" x1="295.7" y1="620.6" x2="396.75" y2="620.6" xlink:href="#Sfumatura_senza_nome_113"/>
  </defs>
  <path class="cls-1" d="M543.86,343.28c17.98-.78,35.97-1.3,53.95-1.72,8.99-.22,17.98-.42,26.97-.56,8.99-.15,17.98-.34,26.97-.41l26.97-.3,26.97-.14,13.49-.06,13.49.03c8.99-.01,17.98.12,26.97.22l3.39.04-.04,3.31c-.47,36.4-1.78,72.79-2.04,109.19-.11,18.2-.12,36.4.06,54.6l.13,13.65.23,13.65.47,27.3c.34,18.2.78,36.4,1.03,54.6.28,18.2.42,36.4.55,54.59l.41,54.59c.09,9.1.08,18.2.09,27.3,0,9.1.05,18.2,0,27.3l-.03,4.28-4.23-.03-26.97-.17c-8.99-.05-17.98-.11-26.97-.23l-26.97-.31-26.97-.42-26.97-.5-26.97-.6c-8.99-.19-17.98-.49-26.97-.75-8.99-.26-17.98-.53-26.97-.89v-.8c8.99-.36,17.98-.62,26.97-.89,8.99-.27,17.98-.56,26.97-.75l26.97-.6,26.97-.5,26.97-.42,26.97-.31c8.99-.12,17.98-.18,26.97-.23l26.97-.17-4.26,4.26c-.06-9.1,0-18.2,0-27.3.01-9.1,0-18.2.09-27.3l.41-54.59c.13-18.2.27-36.4.55-54.59.25-18.2.69-36.4,1.03-54.6l.47-27.3.23-13.65.13-13.65c.17-18.2.17-36.4.06-54.6-.27-36.4-1.57-72.79-2.04-109.19l3.34,3.34c-8.99.1-17.98.23-26.97.22l-13.49.03-13.49-.06-26.97-.14-26.97-.3c-8.99-.08-17.98-.26-26.97-.41-8.99-.14-17.98-.34-26.97-.56-17.98-.42-35.97-.94-53.95-1.72v-.8Z"/>
  <g>
    <path class="cls-9" d="M847.28,627.09h-188.89c-4.43,0-8.71-1.67-11.97-4.67l-76.83-70.66c-7.62-7.01-7.62-19.02,0-26.03,25.61-23.55,51.22-47.11,76.83-70.66,3.26-3,7.54-4.67,11.97-4.67h188.89c20.96,0,37.95,16.99,37.95,37.95v100.79c0,20.96-16.99,37.95-37.95,37.95Z"/>
    <circle class="cls-4" cx="623.09" cy="538.74" r="14.06"/>
    <rect class="cls-4" x="669.71" y="575.33" width="179.88" height="13.55" rx="6.78" ry="6.78"/>
  </g>
  <g class="cls-5">
    <path class="cls-8" d="M543.64,262.06v163.56c0,2.51-2.04,4.55-4.55,4.55H153.64c-2.51,0-4.55-2.04-4.55-4.55v-163.56c0-2.51,2.04-4.55,4.55-4.55h106.54v67.9c0,5.45,4.43,9.88,9.88,9.88h152.61c5.45,0,9.88-4.43,9.88-9.88v-67.9h106.54c2.51,0,4.55,2.04,4.55,4.55Z"/>
    <path class="cls-3" d="M459.95,185.83h-55.05v42.43c0,5.98-4.86,10.84-10.84,10.84h-95.37c-5.98,0-10.85-4.87-10.85-10.84v-42.43h-55.06c-2.51,0-4.55,2.04-4.55,4.55v235.24c0,2.51,2.04,4.55,4.55,4.55h227.17c2.51,0,4.55-2.04,4.55-4.55v-235.24c0-2.51-2.03-4.55-4.55-4.55Z"/>
    <path class="cls-10" d="M298.47,352.39h0c0,2.51,2.03,4.55,4.55,4.55h2.2c2.51,0,4.55,2.03,4.55,4.55v64.14c0,2.51,2.03,4.55,4.55,4.55h64.14c2.51,0,4.55-2.03,4.55-4.55v-64.14c0-2.51,2.03-4.55,4.55-4.55h2.2c2.51,0,4.55-2.03,4.55-4.55h0c0-2.51-2.03-4.55-4.55-4.55h-86.71c-2.51,0-4.55,2.03-4.55,4.55h0Z"/>
    <path class="cls-7" d="M394.06,140.56h-95.37c-1.57,0-2.84,1.27-2.84,2.84v84.87c0,1.57,1.28,2.84,2.84,2.84h95.37c1.57,0,2.84-1.27,2.84-2.84v-84.87c0-1.57-1.27-2.84-2.84-2.84ZM382.23,198.02c0,1.98-1.61,3.59-3.59,3.59h-12.9c-1.98,0-3.59,1.61-3.59,3.59v12.9c0,1.98-1.61,3.59-3.59,3.59h-24.38c-1.98,0-3.59-1.61-3.59-3.59v-12.9c0-1.98-1.61-3.59-3.59-3.59h-12.9c-1.98,0-3.59-1.61-3.59-3.59v-24.38c0-1.98,1.61-3.59,3.59-3.59h12.9c1.98,0,3.59-1.61,3.59-3.59v-12.9c0-1.98,1.61-3.59,3.59-3.59h24.38c1.98,0,3.59,1.61,3.59,3.59v12.9c0,1.98,1.61,3.59,3.59,3.59h12.9c1.98,0,3.59,1.61,3.59,3.59v24.38Z"/>
  </g>
  <g class="cls-5">
    <path class="cls-11" d="M543.49,696.83v163.56c0,2.51-2.04,4.55-4.55,4.55H153.5c-2.51,0-4.55-2.04-4.55-4.55v-163.56c0-2.51,2.04-4.55,4.55-4.55h106.54v67.9c0,5.45,4.43,9.88,9.88,9.88h152.61c5.45,0,9.88-4.43,9.88-9.88v-67.9h106.54c2.51,0,4.55,2.04,4.55,4.55Z"/>
    <path class="cls-2" d="M459.81,620.61h-55.05v42.43c0,5.98-4.86,10.84-10.84,10.84h-95.37c-5.98,0-10.85-4.87-10.85-10.84v-42.43h-55.06c-2.51,0-4.55,2.04-4.55,4.55v235.24c0,2.51,2.04,4.55,4.55,4.55h227.17c2.51,0,4.55-2.04,4.55-4.55v-235.24c0-2.51-2.03-4.55-4.55-4.55Z"/>
    <path class="cls-12" d="M298.33,787.16h0c0,2.51,2.03,4.55,4.55,4.55h2.2c2.51,0,4.55,2.03,4.55,4.55v64.14c0,2.51,2.03,4.55,4.55,4.55h64.14c2.51,0,4.55-2.03,4.55-4.55v-64.14c0-2.51,2.03-4.55,4.55-4.55h2.2c2.51,0,4.55-2.03,4.55-4.55h0c0-2.51-2.03-4.55-4.55-4.55h-86.71c-2.51,0-4.55,2.03-4.55,4.55h0Z"/>
    <path class="cls-6" d="M393.91,575.33h-95.37c-1.57,0-2.84,1.27-2.84,2.84v84.87c0,1.57,1.28,2.84,2.84,2.84h95.37c1.57,0,2.84-1.27,2.84-2.84v-84.87c0-1.57-1.27-2.84-2.84-2.84ZM382.08,632.79c0,1.98-1.61,3.59-3.59,3.59h-12.9c-1.98,0-3.59,1.61-3.59,3.59v12.9c0,1.98-1.61,3.59-3.59,3.59h-24.38c-1.98,0-3.59-1.61-3.59-3.59v-12.9c0-1.98-1.61-3.59-3.59-3.59h-12.9c-1.98,0-3.59-1.61-3.59-3.59v-24.38c0-1.98,1.61-3.59,3.59-3.59h12.9c1.98,0,3.59-1.61,3.59-3.59v-12.9c0-1.98,1.61-3.59,3.59-3.59h24.38c1.98,0,3.59,1.61,3.59,3.59v12.9c0,1.98,1.61,3.59,3.59,3.59h12.9c1.98,0,3.59,1.61,3.59,3.59v24.38Z"/>
  </g>
</svg>