<?xml version="1.0" encoding="UTF-8"?>
<svg id="Livello_1" data-name="Livello 1" xmlns="http://www.w3.org/2000/svg" xmlns:xlink="http://www.w3.org/1999/xlink" viewBox="0 0 1000 1000">
  <defs>
    <style>
      .cls-1 {
        filter: url(#drop-shadow-10);
      }

      .cls-1, .cls-2, .cls-3, .cls-4, .cls-5, .cls-6 {
        fill: #fff;
      }

      .cls-7 {
        fill: url(#Sfumatura_senza_nome_11);
        filter: url(#drop-shadow-4);
      }

      .cls-2 {
        filter: url(#drop-shadow-9);
      }

      .cls-3 {
        filter: url(#drop-shadow-8);
      }

      .cls-4 {
        filter: url(#drop-shadow-6);
      }

      .cls-5 {
        filter: url(#drop-shadow-7);
      }

      .cls-6 {
        filter: url(#drop-shadow-5);
      }

      .cls-8 {
        fill: url(#Sfumatura_senza_nome_113);
      }
    </style>
    <linearGradient id="Sfumatura_senza_nome_11" data-name="Sfumatura senza nome 11" x1="57.45" y1="525.27" x2="917.4" y2="525.27" gradientUnits="userSpaceOnUse">
      <stop offset="0" stop-color="#90e0ef"/>
      <stop offset="1" stop-color="#00b4d8"/>
    </linearGradient>
    <filter id="drop-shadow-4" x="37.84" y="118.41" width="909" height="824" filterUnits="userSpaceOnUse">
      <feOffset dx="5" dy="5"/>
      <feGaussianBlur result="blur" stdDeviation="8"/>
      <feFlood flood-color="#000" flood-opacity=".2"/>
      <feComposite in2="blur" operator="in"/>
      <feComposite in="SourceGraphic"/>
    </filter>
    <filter id="drop-shadow-5" x="69.84" y="443.41" width="178" height="201" filterUnits="userSpaceOnUse">
      <feOffset dx="7" dy="7"/>
      <feGaussianBlur result="blur-2" stdDeviation="15"/>
      <feFlood flood-color="#000" flood-opacity=".25"/>
      <feComposite in2="blur-2" operator="in"/>
      <feComposite in="SourceGraphic"/>
    </filter>
    <filter id="drop-shadow-6" x="627.84" y="135.41" width="178" height="201" filterUnits="userSpaceOnUse">
      <feOffset dx="7" dy="7"/>
      <feGaussianBlur result="blur-3" stdDeviation="15"/>
      <feFlood flood-color="#000" flood-opacity=".25"/>
      <feComposite in2="blur-3" operator="in"/>
      <feComposite in="SourceGraphic"/>
    </filter>
    <filter id="drop-shadow-7" x="625.84" y="730.41" width="178" height="200" filterUnits="userSpaceOnUse">
      <feOffset dx="7" dy="7"/>
      <feGaussianBlur result="blur-4" stdDeviation="15"/>
      <feFlood flood-color="#000" flood-opacity=".25"/>
      <feComposite in2="blur-4" operator="in"/>
      <feComposite in="SourceGraphic"/>
    </filter>
    <filter id="drop-shadow-8" x="302.84" y="152.41" width="199" height="199" filterUnits="userSpaceOnUse">
      <feOffset dx="7" dy="7"/>
      <feGaussianBlur result="blur-5" stdDeviation="15"/>
      <feFlood flood-color="#000" flood-opacity=".25"/>
      <feComposite in2="blur-5" operator="in"/>
      <feComposite in="SourceGraphic"/>
    </filter>
    <filter id="drop-shadow-9" x="300.84" y="730.41" width="199" height="200" filterUnits="userSpaceOnUse">
      <feOffset dx="7" dy="7"/>
      <feGaussianBlur result="blur-6" stdDeviation="15"/>
      <feFlood flood-color="#000" flood-opacity=".25"/>
      <feComposite in2="blur-6" operator="in"/>
      <feComposite in="SourceGraphic"/>
    </filter>
    <filter id="drop-shadow-10" x="738.84" y="440.41" width="199" height="199" filterUnits="userSpaceOnUse">
      <feOffset dx="7" dy="7"/>
      <feGaussianBlur result="blur-7" stdDeviation="15"/>
      <feFlood flood-color="#000" flood-opacity=".25"/>
      <feComposite in2="blur-7" operator="in"/>
      <feComposite in="SourceGraphic"/>
    </filter>
    <linearGradient id="Sfumatura_senza_nome_113" data-name="Sfumatura senza nome 113" x1="433.12" y1="2280.77" x2="656.2" y2="2280.77" gradientTransform="translate(0 2848.82) scale(1 -1)" gradientUnits="userSpaceOnUse">
      <stop offset="0" stop-color="#0077b6"/>
      <stop offset="1" stop-color="#03045e"/>
    </linearGradient>
  </defs>
  <path class="cls-7" d="M830.55,442.75l-.02.02-60.56-151.84c15.95-16.28,25.79-38.57,25.79-63.16,0-49.84-40.4-90.24-90.24-90.24-41.55,0-76.54,28.09-87.02,66.31l-143.16,8.76c-12.5-34.84-45.82-59.75-84.95-59.75-49.84,0-90.24,40.4-90.24,90.24,0,18.4,5.52,35.52,14.98,49.79l-136.82,155.15c-9.56-3.45-19.87-5.33-30.62-5.33-49.84,0-90.24,40.4-90.24,90.24s40.4,90.24,90.24,90.24c11.36,0,22.23-2.11,32.24-5.94l138.39,151.24c-11.4,15.11-18.17,33.92-18.17,54.3,0,49.84,40.4,90.24,90.24,90.24,42.96,0,78.9-30.02,88.01-70.22h139.13c9.1,40.21,45.05,70.22,88.01,70.22,49.84,0,90.24-40.4,90.24-90.24s-40.4-90.24-90.24-90.24c-42.96,0-78.9,30.02-88.01,70.22h-139.13c-4.68-20.67-16.46-38.65-32.63-51.24l37.22-52.74c17.78,7.93,37.48,12.34,58.21,12.34,75.48,0,137.31-58.45,142.7-132.56l60.57-9.46c13.94,31.83,45.72,54.06,82.69,54.06,49.84,0,90.24-40.4,90.24-90.24s-38.59-88.39-86.85-90.17ZM213.51,594.66c15.14-16.14,24.41-37.84,24.41-61.71,0-8.56-1.19-16.83-3.42-24.68l116.5-62.01v295.33c-.7.34-1.39.69-2.09,1.05l-135.4-147.98ZM351.01,400.91l-135.73,72.25c-.96-1.08-1.95-2.15-2.96-3.18l131.77-149.42c2.25,1.35,4.56,2.6,6.92,3.75v76.6ZM646.63,296.14l-66.6,134.17c-12.35-3.47-25.37-5.33-38.83-5.33s-25.89,1.78-37.99,5.11h-.01s-23.94-52.1-23.94-52.1l162.42-86.45c1.59,1.59,3.24,3.12,4.95,4.6ZM480.15,252.42l136.61-8.36c.84,4.63,2.04,9.14,3.57,13.5l-157.81,84-13.66-29.73h0c17.22-14.66,28.86-35.67,31.3-59.41ZM391.04,333.32c7.7-.05,15.16-1.07,22.29-2.94l13.79,30.01-36.08,19.21v-46.28ZM408.84,734.44c-5.75-1.19-11.7-1.84-17.8-1.88v-307.62l52.83-28.12,22.61,49.19c-41.01,25.16-68.37,70.4-68.37,122.04,0,43.91,19.79,83.19,50.92,109.44l-40.19,56.95ZM541.89,699.86c-72.8,0-131.81-59.01-131.81-131.81s59.01-131.81,131.81-131.81,131.81,59.01,131.81,131.81-59.01,131.81-131.81,131.81ZM736.98,529.78l-55.76,8.71c-8.14-38.76-31.97-71.74-64.54-92h-.01l65.31-131.58c7.51,2.02,15.4,3.11,23.55,3.11,10.56,0,20.68-1.82,30.1-5.15l54.88,137.59c-30.67,13.64-52.31,43.89-53.53,79.32Z"/>
  <path class="cls-6" d="M170.91,485.27v35.71c0,1.64-1.33,2.97-2.97,2.97h-32.78c-1.64,0-2.97-1.33-2.97-2.97v-35.71c0-1.64-1.33-2.97-2.97-2.97h-18.08c-1.64,0-2.97,1.33-2.97,2.97v103.17c0,1.64,1.33,2.97,2.97,2.97h18.08c1.64,0,2.97-1.33,2.97-2.97v-37.49c0-1.64,1.33-2.97,2.97-2.97h32.78c1.64,0,2.97,1.33,2.97,2.97v37.49c0,1.64,1.33,2.97,2.97,2.97h18.08c1.64,0,2.97-1.33,2.97-2.97v-103.17c0-1.64-1.33-2.97-2.97-2.97h-18.08c-1.64,0-2.97,1.33-2.97,2.97Z"/>
  <path class="cls-4" d="M729.16,177.32v35.71c0,1.64-1.33,2.97-2.97,2.97h-32.78c-1.64,0-2.97-1.33-2.97-2.97v-35.71c0-1.64-1.33-2.97-2.97-2.97h-18.08c-1.64,0-2.97,1.33-2.97,2.97v103.17c0,1.64,1.33,2.97,2.97,2.97h18.08c1.64,0,2.97-1.33,2.97-2.97v-37.49c0-1.64,1.33-2.97,2.97-2.97h32.78c1.64,0,2.97,1.33,2.97,2.97v37.49c0,1.64,1.33,2.97,2.97,2.97h18.08c1.64,0,2.97-1.33,2.97-2.97v-103.17c0-1.64-1.33-2.97-2.97-2.97h-18.08c-1.64,0-2.97,1.33-2.97,2.97Z"/>
  <path class="cls-5" d="M727.37,771.65v35.71c0,1.64-1.33,2.97-2.97,2.97h-32.78c-1.64,0-2.97-1.33-2.97-2.97v-35.71c0-1.64-1.33-2.97-2.97-2.97h-18.08c-1.64,0-2.97,1.33-2.97,2.97v103.17c0,1.64,1.33,2.97,2.97,2.97h18.08c1.64,0,2.97-1.33,2.97-2.97v-37.49c0-1.64,1.33-2.97,2.97-2.97h32.78c1.64,0,2.97,1.33,2.97,2.97v37.49c0,1.64,1.33,2.97,2.97,2.97h18.08c1.64,0,2.97-1.33,2.97-2.97v-103.17c0-1.64-1.33-2.97-2.97-2.97h-18.08c-1.64,0-2.97,1.33-2.97,2.97Z"/>
  <path class="cls-3" d="M443.83,221h-19.49c-3,0-5.42-2.43-5.42-5.42v-19.49c0-3-2.43-5.42-5.42-5.42h-36.83c-3,0-5.42,2.43-5.42,5.42v19.49c0,3-2.43,5.42-5.42,5.42h-19.49c-3,0-5.42,2.43-5.42,5.42v36.84c0,3,2.43,5.42,5.42,5.42h19.49c3,0,5.42,2.43,5.42,5.42v19.49c0,3,2.43,5.42,5.42,5.42h36.83c3,0,5.42-2.43,5.42-5.42v-19.49c0-3,2.43-5.42,5.42-5.42h19.49c3,0,5.42-2.43,5.42-5.42v-36.83c0-3-2.43-5.42-5.42-5.42h0Z"/>
  <path class="cls-2" d="M441.84,799.4h-19.49c-3,0-5.42-2.43-5.42-5.42v-19.49c0-3-2.43-5.42-5.42-5.42h-36.83c-3,0-5.42,2.43-5.42,5.42v19.49c0,3-2.43,5.42-5.42,5.42h-19.49c-3,0-5.42,2.43-5.42,5.42v36.84c0,3,2.43,5.42,5.42,5.42h19.49c3,0,5.42,2.43,5.42,5.42v19.49c0,3,2.43,5.42,5.42,5.42h36.83c3,0,5.42-2.43,5.42-5.42v-19.49c0-3,2.43-5.42,5.42-5.42h19.49c3,0,5.42-2.43,5.42-5.42v-36.83c0-3-2.43-5.42-5.42-5.42h0Z"/>
  <path class="cls-1" d="M879.97,509.24h-19.49c-3,0-5.42-2.43-5.42-5.42v-19.49c0-3-2.43-5.42-5.42-5.42h-36.83c-3,0-5.42,2.43-5.42,5.42v19.49c0,3-2.43,5.42-5.42,5.42h-19.49c-3,0-5.42,2.43-5.42,5.42v36.84c0,3,2.43,5.42,5.42,5.42h19.49c3,0,5.42,2.43,5.42,5.42v19.49c0,3,2.43,5.42,5.42,5.42h36.83c3,0,5.42-2.43,5.42-5.42v-19.49c0-3,2.43-5.42,5.42-5.42h19.49c3,0,5.42-2.43,5.42-5.42v-36.83c0-3-2.43-5.42-5.42-5.42h0Z"/>
  <path class="cls-8" d="M633.67,546.65l-15.71-39.39c4.14-4.22,6.69-10.01,6.69-16.38,0-12.93-10.48-23.41-23.41-23.41-10.78,0-19.86,7.29-22.57,17.2l-37.14,2.27c-3.24-9.04-11.89-15.5-22.04-15.5-12.93,0-23.41,10.48-23.41,23.41,0,4.77,1.43,9.21,3.89,12.92l-35.49,40.25c-2.48-.89-5.15-1.38-7.94-1.38-12.93,0-23.41,10.48-23.41,23.41s10.48,23.41,23.41,23.41c2.95,0,5.77-.55,8.36-1.54l35.9,39.23c-2.96,3.92-4.71,8.8-4.71,14.09,0,12.93,10.48,23.41,23.41,23.41,11.14,0,20.47-7.79,22.83-18.22h36.09c2.36,10.43,11.69,18.22,22.83,18.22,12.93,0,23.41-10.48,23.41-23.41s-10.48-23.41-23.41-23.41c-11.14,0-20.47,7.79-22.83,18.22h-36.09c-1.21-5.36-4.27-10.03-8.46-13.29l9.66-13.68c4.61,2.06,9.72,3.2,15.1,3.2,19.58,0,35.62-15.16,37.02-34.39l15.71-2.45c3.62,8.26,11.86,14.02,21.45,14.02,12.93,0,23.41-10.48,23.41-23.41s-10.01-22.93-22.53-23.39h0ZM578.19,547.62l16.94-34.13c1.95.52,4,.81,6.11.81,2.74,0,5.36-.47,7.81-1.34l14.24,35.69c-7.96,3.54-13.57,11.39-13.89,20.58l-14.47,2.26c-2.11-10.05-8.29-18.61-16.74-23.87h0ZM509.27,624.17c-.18.09-.36.18-.54.27l-35.12-38.39c3.93-4.19,6.33-9.82,6.33-16.01,0-2.22-.31-4.37-.89-6.4l30.22-16.09v76.61h0ZM474.06,554.53c-.25-.28-.51-.56-.77-.82l34.18-38.76c.58.35,1.18.67,1.8.97v19.87l-35.21,18.74h0ZM519.66,518.26c2-.01,3.93-.28,5.78-.76l3.58,7.79-9.36,4.98v-12.01ZM534.65,512.68c4.47-3.8,7.49-9.25,8.12-15.41l35.44-2.17c.22,1.2.53,2.37.93,3.5l-40.94,21.79-3.54-7.71h0ZM524.27,622.31c-1.49-.31-3.04-.48-4.62-.49v-79.8l13.7-7.29,5.87,12.76c-10.64,6.53-17.74,18.26-17.74,31.66,0,11.39,5.13,21.58,13.21,28.39l-10.43,14.77h0ZM548.75,543.36l-6.21-13.51,42.13-22.43c.41.41.84.81,1.28,1.19l-17.28,34.81c-3.2-.9-6.58-1.38-10.07-1.38s-6.72.46-9.86,1.33h0Z"/>
</svg>