<?xml version="1.0" encoding="UTF-8"?>
<svg id="Livello_1" data-name="Livello 1" xmlns="http://www.w3.org/2000/svg" xmlns:xlink="http://www.w3.org/1999/xlink" viewBox="0 0 1000 1000">
  <defs>
    <style>
      .cls-1 {
        fill: url(#Sfumatura_senza_nome_11);
      }

      .cls-2 {
        stroke: url(#Sfumatura_senza_nome_190-2);
        stroke-width: 5.95px;
      }

      .cls-2, .cls-3, .cls-4 {
        fill: none;
        stroke-miterlimit: 10;
      }

      .cls-3 {
        stroke: url(#Sfumatura_senza_nome_190-3);
        stroke-width: 5.73px;
      }

      .cls-4 {
        stroke: url(#Sfumatura_senza_nome_190);
        stroke-width: 5.7px;
      }

      .cls-5 {
        fill: url(#Sfumatura_senza_nome_11-8);
      }

      .cls-6 {
        fill: url(#Sfumatura_senza_nome_11-9);
      }

      .cls-7 {
        fill: url(#Sfumatura_senza_nome_11-5);
      }

      .cls-8 {
        fill: url(#Sfumatura_senza_nome_11-6);
      }

      .cls-9 {
        fill: url(#Sfumatura_senza_nome_11-7);
      }

      .cls-10 {
        fill: url(#Sfumatura_senza_nome_11-4);
      }

      .cls-11 {
        fill: url(#Sfumatura_senza_nome_11-3);
      }

      .cls-12 {
        fill: url(#Sfumatura_senza_nome_11-2);
      }

      .cls-13 {
        fill: url(#Sfumatura_senza_nome_11-16);
      }

      .cls-14 {
        fill: url(#Sfumatura_senza_nome_11-10);
      }

      .cls-15 {
        fill: url(#Sfumatura_senza_nome_11-15);
      }

      .cls-16 {
        fill: url(#Sfumatura_senza_nome_11-12);
      }

      .cls-17 {
        fill: url(#Sfumatura_senza_nome_11-11);
      }

      .cls-18 {
        fill: url(#Sfumatura_senza_nome_11-13);
      }

      .cls-19 {
        fill: url(#Sfumatura_senza_nome_11-38);
      }

      .cls-20 {
        fill: url(#Sfumatura_senza_nome_11-18);
      }

      .cls-21 {
        fill: url(#Sfumatura_senza_nome_11-19);
      }

      .cls-22 {
        fill: url(#Sfumatura_senza_nome_11-17);
      }

      .cls-23 {
        fill: url(#Sfumatura_senza_nome_11-37);
      }

      .cls-24 {
        fill: url(#Sfumatura_senza_nome_11-39);
      }

      .cls-25 {
        fill: url(#Sfumatura_senza_nome_11-14);
      }

      .cls-26 {
        fill: url(#Sfumatura_senza_nome_11-53);
      }

      .cls-27 {
        fill: url(#Sfumatura_senza_nome_11-50);
      }

      .cls-28 {
        fill: url(#Sfumatura_senza_nome_11-57);
      }

      .cls-29 {
        fill: url(#Sfumatura_senza_nome_11-51);
      }

      .cls-30 {
        fill: url(#Sfumatura_senza_nome_11-54);
      }

      .cls-31 {
        fill: url(#Sfumatura_senza_nome_11-56);
      }

      .cls-32 {
        fill: url(#Sfumatura_senza_nome_11-52);
      }

      .cls-33 {
        fill: url(#Sfumatura_senza_nome_11-55);
      }

      .cls-34 {
        fill: url(#Sfumatura_senza_nome_11-58);
      }

      .cls-35 {
        fill: url(#Sfumatura_senza_nome_11-42);
      }

      .cls-36 {
        fill: url(#Sfumatura_senza_nome_11-45);
      }

      .cls-37 {
        fill: url(#Sfumatura_senza_nome_11-44);
      }

      .cls-38 {
        fill: url(#Sfumatura_senza_nome_11-47);
      }

      .cls-39 {
        fill: url(#Sfumatura_senza_nome_11-41);
      }

      .cls-40 {
        fill: url(#Sfumatura_senza_nome_11-40);
      }

      .cls-41 {
        fill: url(#Sfumatura_senza_nome_11-43);
      }

      .cls-42 {
        fill: url(#Sfumatura_senza_nome_11-46);
      }

      .cls-43 {
        fill: url(#Sfumatura_senza_nome_11-49);
      }

      .cls-44 {
        fill: url(#Sfumatura_senza_nome_11-48);
      }

      .cls-45 {
        fill: url(#Sfumatura_senza_nome_11-59);
      }

      .cls-46 {
        fill: url(#Sfumatura_senza_nome_11-70);
      }

      .cls-47 {
        fill: url(#Sfumatura_senza_nome_11-72);
      }

      .cls-48 {
        fill: url(#Sfumatura_senza_nome_11-71);
      }

      .cls-49 {
        fill: url(#Sfumatura_senza_nome_11-63);
      }

      .cls-50 {
        fill: url(#Sfumatura_senza_nome_11-69);
      }

      .cls-51 {
        fill: url(#Sfumatura_senza_nome_11-60);
      }

      .cls-52 {
        fill: url(#Sfumatura_senza_nome_11-67);
      }

      .cls-53 {
        fill: url(#Sfumatura_senza_nome_11-62);
      }

      .cls-54 {
        fill: url(#Sfumatura_senza_nome_11-61);
      }

      .cls-55 {
        fill: url(#Sfumatura_senza_nome_11-64);
      }

      .cls-56 {
        fill: url(#Sfumatura_senza_nome_11-68);
      }

      .cls-57 {
        fill: url(#Sfumatura_senza_nome_11-66);
      }

      .cls-58 {
        fill: url(#Sfumatura_senza_nome_11-65);
      }

      .cls-59 {
        fill: url(#Sfumatura_senza_nome_11-25);
      }

      .cls-60 {
        fill: url(#Sfumatura_senza_nome_11-24);
      }

      .cls-61 {
        fill: url(#Sfumatura_senza_nome_11-23);
      }

      .cls-62 {
        fill: url(#Sfumatura_senza_nome_11-26);
      }

      .cls-63 {
        fill: url(#Sfumatura_senza_nome_11-21);
      }

      .cls-64 {
        fill: url(#Sfumatura_senza_nome_11-22);
      }

      .cls-65 {
        fill: url(#Sfumatura_senza_nome_11-20);
      }

      .cls-66 {
        fill: url(#Sfumatura_senza_nome_11-30);
      }

      .cls-67 {
        fill: url(#Sfumatura_senza_nome_11-31);
      }

      .cls-68 {
        fill: url(#Sfumatura_senza_nome_11-32);
      }

      .cls-69 {
        fill: url(#Sfumatura_senza_nome_11-33);
      }

      .cls-70 {
        fill: url(#Sfumatura_senza_nome_11-34);
      }

      .cls-71 {
        fill: url(#Sfumatura_senza_nome_11-35);
      }

      .cls-72 {
        fill: url(#Sfumatura_senza_nome_11-36);
      }

      .cls-73 {
        fill: url(#Sfumatura_senza_nome_11-27);
      }

      .cls-74 {
        fill: url(#Sfumatura_senza_nome_11-28);
      }

      .cls-75 {
        fill: url(#Sfumatura_senza_nome_11-29);
      }

      .cls-76 {
        fill: url(#Sfumatura_senza_nome_113-4);
      }

      .cls-77 {
        fill: url(#Sfumatura_senza_nome_113-3);
      }

      .cls-78 {
        fill: url(#Sfumatura_senza_nome_113-2);
      }

      .cls-79 {
        fill: url(#Sfumatura_senza_nome_113-5);
      }

      .cls-80 {
        fill: url(#Sfumatura_senza_nome_113-6);
      }

      .cls-81 {
        fill: url(#Sfumatura_senza_nome_113-7);
      }

      .cls-82 {
        fill: url(#Sfumatura_senza_nome_113);
      }
    </style>
    <linearGradient id="Sfumatura_senza_nome_11" data-name="Sfumatura senza nome 11" x1="-6903.14" y1="-17716.94" x2="-6837.89" y2="-17716.94" gradientTransform="translate(5811.23 -14404.57) scale(.73 -.84)" gradientUnits="userSpaceOnUse">
      <stop offset="0" stop-color="#90e0ef"/>
      <stop offset="1" stop-color="#00b4d8"/>
    </linearGradient>
    <linearGradient id="Sfumatura_senza_nome_11-2" data-name="Sfumatura senza nome 11" x1="-15638.77" y1="-14725.78" x2="-15520.52" y2="-14725.78" gradientTransform="translate(-11551.97 -10865.54) rotate(-90) scale(.73 -.84)" xlink:href="#Sfumatura_senza_nome_11"/>
    <linearGradient id="Sfumatura_senza_nome_11-3" data-name="Sfumatura senza nome 11" x1="-2358.16" y1="-17158.81" x2="-2239.91" y2="-17158.81" gradientTransform="translate(2668.69 -13935.88) scale(.8 -.84)" xlink:href="#Sfumatura_senza_nome_11"/>
    <linearGradient id="Sfumatura_senza_nome_11-4" data-name="Sfumatura senza nome 11" x1="-45878.71" y1="-10601.75" x2="-45760.46" y2="-10601.75" gradientTransform="translate(-8070.5 -10062.39) rotate(-90) scale(.23 -.84)" xlink:href="#Sfumatura_senza_nome_11"/>
    <linearGradient id="Sfumatura_senza_nome_11-5" data-name="Sfumatura senza nome 11" x1="-34130.5" y1="-7084.95" x2="-34012.25" y2="-7084.95" gradientTransform="translate(-5155.45 -11728.45) rotate(-90) scale(.36 -.84)" xlink:href="#Sfumatura_senza_nome_11"/>
    <linearGradient id="Sfumatura_senza_nome_11-6" data-name="Sfumatura senza nome 11" x1="6666.38" y1="-14645.8" x2="6731.63" y2="-14645.8" gradientTransform="translate(-2563.92 -11856.16) scale(.51 -.84)" xlink:href="#Sfumatura_senza_nome_11"/>
    <linearGradient id="Sfumatura_senza_nome_11-7" data-name="Sfumatura senza nome 11" x1="-11680.8" y1="-17203.03" x2="-11615.55" y2="-17203.03" gradientTransform="translate(6810.04 -13975.25) scale(.51 -.84)" xlink:href="#Sfumatura_senza_nome_11"/>
    <linearGradient id="Sfumatura_senza_nome_11-8" data-name="Sfumatura senza nome 11" x1="-22297.81" y1="-10991.65" x2="-22232.56" y2="-10991.65" gradientTransform="translate(-8332.57 -11548.27) rotate(-90) scale(.54 -.84)" xlink:href="#Sfumatura_senza_nome_11"/>
    <linearGradient id="Sfumatura_senza_nome_11-9" data-name="Sfumatura senza nome 11" x1="14001.56" y1="-15408.48" x2="14066.81" y2="-15408.48" gradientTransform="translate(-3182.32 -12431.12) scale(.29 -.84)" xlink:href="#Sfumatura_senza_nome_11"/>
    <linearGradient id="Sfumatura_senza_nome_11-10" data-name="Sfumatura senza nome 11" x1="7499.78" y1="-14251.6" x2="7565.03" y2="-14251.6" gradientTransform="translate(-2988.99 -11405.15) scale(.51 -.84)" xlink:href="#Sfumatura_senza_nome_11"/>
    <linearGradient id="Sfumatura_senza_nome_11-11" data-name="Sfumatura senza nome 11" x1="-10528.23" y1="-17912.67" x2="-10462.98" y2="-17912.67" gradientTransform="translate(3876.32 -14501.8) scale(.29 -.84)" xlink:href="#Sfumatura_senza_nome_11"/>
    <linearGradient id="Sfumatura_senza_nome_11-12" data-name="Sfumatura senza nome 11" x1="754.51" y1="-12649.89" x2="791.03" y2="-12649.89" gradientTransform="translate(0 -12142.17) scale(1 -1)" xlink:href="#Sfumatura_senza_nome_11"/>
    <linearGradient id="Sfumatura_senza_nome_11-13" data-name="Sfumatura senza nome 11" x1="803.5" y1="-12591.77" x2="840.01" y2="-12591.77" gradientTransform="translate(0 -12142.17) scale(1 -1)" xlink:href="#Sfumatura_senza_nome_11"/>
    <linearGradient id="Sfumatura_senza_nome_11-14" data-name="Sfumatura senza nome 11" x1="803.02" y1="-12708.37" x2="839.54" y2="-12708.37" gradientTransform="translate(0 -12142.17) scale(1 -1)" xlink:href="#Sfumatura_senza_nome_11"/>
    <linearGradient id="Sfumatura_senza_nome_11-15" data-name="Sfumatura senza nome 11" x1="866.5" y1="-12708.37" x2="903.02" y2="-12708.37" gradientTransform="translate(0 -12142.17) scale(1 -1)" xlink:href="#Sfumatura_senza_nome_11"/>
    <linearGradient id="Sfumatura_senza_nome_11-16" data-name="Sfumatura senza nome 11" x1="891.34" y1="-12649.89" x2="927.86" y2="-12649.89" gradientTransform="translate(0 -12142.17) scale(1 -1)" xlink:href="#Sfumatura_senza_nome_11"/>
    <linearGradient id="Sfumatura_senza_nome_11-17" data-name="Sfumatura senza nome 11" x1="866.5" y1="-12588.56" x2="903.02" y2="-12588.56" gradientTransform="translate(0 -12142.17) scale(1 -1)" xlink:href="#Sfumatura_senza_nome_11"/>
    <linearGradient id="Sfumatura_senza_nome_11-18" data-name="Sfumatura senza nome 11" x1="822.79" y1="-12656.6" x2="881.05" y2="-12656.6" gradientTransform="translate(0 -12142.17) scale(1 -1)" xlink:href="#Sfumatura_senza_nome_11"/>
    <linearGradient id="Sfumatura_senza_nome_11-19" data-name="Sfumatura senza nome 11" x1="-6955.1" y1="-17217.54" x2="-6889.85" y2="-17217.54" gradientTransform="translate(5507.98 -14232.08) scale(.73 -.84)" xlink:href="#Sfumatura_senza_nome_11"/>
    <linearGradient id="Sfumatura_senza_nome_11-20" data-name="Sfumatura senza nome 11" x1="-15300.41" y1="-14319.61" x2="-15182.16" y2="-14319.61" gradientTransform="translate(-11551.97 -10865.54) rotate(-90) scale(.73 -.84)" xlink:href="#Sfumatura_senza_nome_11"/>
    <linearGradient id="Sfumatura_senza_nome_11-21" data-name="Sfumatura senza nome 11" x1="-2590.34" y1="-16708.76" x2="-2472.1" y2="-16708.76" gradientTransform="translate(2513.25 -13804.85) scale(.8 -.84)" xlink:href="#Sfumatura_senza_nome_11"/>
    <linearGradient id="Sfumatura_senza_nome_11-22" data-name="Sfumatura senza nome 11" x1="-44280.66" y1="-10356.84" x2="-44162.42" y2="-10356.84" gradientTransform="translate(-8205.95 -9941.84) rotate(-90) scale(.23 -.84)" xlink:href="#Sfumatura_senza_nome_11"/>
    <linearGradient id="Sfumatura_senza_nome_11-23" data-name="Sfumatura senza nome 11" x1="-32984.27" y1="-6984.32" x2="-32866.02" y2="-6984.32" gradientTransform="translate(-5412.1 -11562.81) rotate(-90) scale(.36 -.84)" xlink:href="#Sfumatura_senza_nome_11"/>
    <linearGradient id="Sfumatura_senza_nome_11-24" data-name="Sfumatura senza nome 11" x1="6030.69" y1="-14325.67" x2="6095.94" y2="-14325.67" gradientTransform="translate(-2580.9 -11834.26) scale(.51 -.84)" xlink:href="#Sfumatura_senza_nome_11"/>
    <linearGradient id="Sfumatura_senza_nome_11-25" data-name="Sfumatura senza nome 11" x1="-11551.56" y1="-16707.77" x2="-11486.31" y2="-16707.77" gradientTransform="translate(6402.94 -13806.23) scale(.51 -.84)" xlink:href="#Sfumatura_senza_nome_11"/>
    <linearGradient id="Sfumatura_senza_nome_11-26" data-name="Sfumatura senza nome 11" x1="-21639.78" y1="-10722.39" x2="-21574.53" y2="-10722.39" gradientTransform="translate(-8447.58 -11439.94) rotate(-90) scale(.54 -.84)" xlink:href="#Sfumatura_senza_nome_11"/>
    <linearGradient id="Sfumatura_senza_nome_11-27" data-name="Sfumatura senza nome 11" x1="12974.76" y1="-15053.83" x2="13040.01" y2="-15053.83" gradientTransform="translate(-3225.74 -12380.22) scale(.29 -.84)" xlink:href="#Sfumatura_senza_nome_11"/>
    <linearGradient id="Sfumatura_senza_nome_11-28" data-name="Sfumatura senza nome 11" x1="6830.79" y1="-13957.55" x2="6896.05" y2="-13957.55" gradientTransform="translate(-2988.99 -11405.15) scale(.51 -.84)" xlink:href="#Sfumatura_senza_nome_11"/>
    <linearGradient id="Sfumatura_senza_nome_11-29" data-name="Sfumatura senza nome 11" x1="-10529.42" y1="-17411.23" x2="-10464.17" y2="-17411.23" gradientTransform="translate(3535.48 -14327.6) scale(.29 -.84)" xlink:href="#Sfumatura_senza_nome_11"/>
    <linearGradient id="Sfumatura_senza_nome_11-30" data-name="Sfumatura senza nome 11" x1="413.33" y1="-12402.88" x2="449.84" y2="-12402.88" gradientTransform="translate(0 -12142.17) scale(1 -1)" xlink:href="#Sfumatura_senza_nome_11"/>
    <linearGradient id="Sfumatura_senza_nome_11-31" data-name="Sfumatura senza nome 11" x1="462.31" y1="-12344.77" x2="498.83" y2="-12344.77" gradientTransform="translate(0 -12142.17) scale(1 -1)" xlink:href="#Sfumatura_senza_nome_11"/>
    <linearGradient id="Sfumatura_senza_nome_11-32" data-name="Sfumatura senza nome 11" x1="461.84" y1="-12461.36" x2="498.35" y2="-12461.36" gradientTransform="translate(0 -12142.17) scale(1 -1)" xlink:href="#Sfumatura_senza_nome_11"/>
    <linearGradient id="Sfumatura_senza_nome_11-33" data-name="Sfumatura senza nome 11" x1="525.32" y1="-12461.36" x2="561.83" y2="-12461.36" gradientTransform="translate(0 -12142.17) scale(1 -1)" xlink:href="#Sfumatura_senza_nome_11"/>
    <linearGradient id="Sfumatura_senza_nome_11-34" data-name="Sfumatura senza nome 11" x1="550.16" y1="-12402.88" x2="586.67" y2="-12402.88" gradientTransform="translate(0 -12142.17) scale(1 -1)" xlink:href="#Sfumatura_senza_nome_11"/>
    <linearGradient id="Sfumatura_senza_nome_11-35" data-name="Sfumatura senza nome 11" x1="525.32" y1="-12341.56" x2="561.83" y2="-12341.56" gradientTransform="translate(0 -12142.17) scale(1 -1)" xlink:href="#Sfumatura_senza_nome_11"/>
    <linearGradient id="Sfumatura_senza_nome_11-36" data-name="Sfumatura senza nome 11" x1="481.6" y1="-12409.59" x2="539.86" y2="-12409.59" gradientTransform="translate(0 -12142.17) scale(1 -1)" xlink:href="#Sfumatura_senza_nome_11"/>
    <linearGradient id="Sfumatura_senza_nome_11-37" data-name="Sfumatura senza nome 11" x1="-7533.34" y1="-17085.89" x2="-7468.09" y2="-17085.89" gradientTransform="translate(5569.4 -13875.91) scale(.73 -.84)" xlink:href="#Sfumatura_senza_nome_11"/>
    <linearGradient id="Sfumatura_senza_nome_11-38" data-name="Sfumatura senza nome 11" x1="-15636.82" y1="-13890.21" x2="-15518.57" y2="-13890.21" gradientTransform="translate(-11551.97 -10865.54) rotate(-90) scale(.73 -.84)" xlink:href="#Sfumatura_senza_nome_11"/>
    <linearGradient id="Sfumatura_senza_nome_11-39" data-name="Sfumatura senza nome 11" x1="-3132.47" y1="-16765.94" x2="-3014.23" y2="-16765.94" gradientTransform="translate(2586.26 -13607.3) scale(.8 -.84)" xlink:href="#Sfumatura_senza_nome_11"/>
    <linearGradient id="Sfumatura_senza_nome_11-40" data-name="Sfumatura senza nome 11" x1="-44590.18" y1="-9844.33" x2="-44471.93" y2="-9844.33" gradientTransform="translate(-8136.13 -9767.45) rotate(-90) scale(.23 -.84)" xlink:href="#Sfumatura_senza_nome_11"/>
    <linearGradient id="Sfumatura_senza_nome_11-41" data-name="Sfumatura senza nome 11" x1="-32809.91" y1="-6470.25" x2="-32691.67" y2="-6470.25" gradientTransform="translate(-5340.98 -11254.46) rotate(-90) scale(.36 -.84)" xlink:href="#Sfumatura_senza_nome_11"/>
    <linearGradient id="Sfumatura_senza_nome_11-42" data-name="Sfumatura senza nome 11" x1="5293.32" y1="-14589.17" x2="5358.57" y2="-14589.17" gradientTransform="translate(-2565.53 -11810.01) scale(.51 -.84)" xlink:href="#Sfumatura_senza_nome_11"/>
    <linearGradient id="Sfumatura_senza_nome_11-43" data-name="Sfumatura senza nome 11" x1="-12300.96" y1="-16457.11" x2="-12235.71" y2="-16457.11" gradientTransform="translate(6424.45 -13350.1) scale(.51 -.84)" xlink:href="#Sfumatura_senza_nome_11"/>
    <linearGradient id="Sfumatura_senza_nome_11-44" data-name="Sfumatura senza nome 11" x1="-21816.46" y1="-10215.49" x2="-21751.21" y2="-10215.49" gradientTransform="translate(-8382.47 -11289.77) rotate(-90) scale(.54 -.84)" xlink:href="#Sfumatura_senza_nome_11"/>
    <linearGradient id="Sfumatura_senza_nome_11-45" data-name="Sfumatura senza nome 11" x1="11612.61" y1="-15274.52" x2="11677.86" y2="-15274.52" gradientTransform="translate(-3191.4 -12320.01) scale(.29 -.84)" xlink:href="#Sfumatura_senza_nome_11"/>
    <linearGradient id="Sfumatura_senza_nome_11-46" data-name="Sfumatura senza nome 11" x1="6123.56" y1="-14249.9" x2="6188.81" y2="-14249.9" gradientTransform="translate(-2988.99 -11405.15) scale(.51 -.84)" xlink:href="#Sfumatura_senza_nome_11"/>
    <linearGradient id="Sfumatura_senza_nome_11-47" data-name="Sfumatura senza nome 11" x1="-11945.14" y1="-17235.26" x2="-11879.89" y2="-17235.26" gradientTransform="translate(3585.34 -13934.2) scale(.29 -.84)" xlink:href="#Sfumatura_senza_nome_11"/>
    <linearGradient id="Sfumatura_senza_nome_11-48" data-name="Sfumatura senza nome 11" x1="52.64" y1="-12648.46" x2="89.15" y2="-12648.46" gradientTransform="translate(0 -12142.17) scale(1 -1)" xlink:href="#Sfumatura_senza_nome_11"/>
    <linearGradient id="Sfumatura_senza_nome_11-49" data-name="Sfumatura senza nome 11" x1="101.62" y1="-12590.35" x2="138.14" y2="-12590.35" gradientTransform="translate(0 -12142.17) scale(1 -1)" xlink:href="#Sfumatura_senza_nome_11"/>
    <linearGradient id="Sfumatura_senza_nome_11-50" data-name="Sfumatura senza nome 11" x1="101.15" y1="-12706.94" x2="137.66" y2="-12706.94" gradientTransform="translate(0 -12142.17) scale(1 -1)" xlink:href="#Sfumatura_senza_nome_11"/>
    <linearGradient id="Sfumatura_senza_nome_11-51" data-name="Sfumatura senza nome 11" x1="164.63" y1="-12706.94" x2="201.14" y2="-12706.94" gradientTransform="translate(0 -12142.17) scale(1 -1)" xlink:href="#Sfumatura_senza_nome_11"/>
    <linearGradient id="Sfumatura_senza_nome_11-52" data-name="Sfumatura senza nome 11" x1="189.47" y1="-12648.46" x2="225.98" y2="-12648.46" gradientTransform="translate(0 -12142.17) scale(1 -1)" xlink:href="#Sfumatura_senza_nome_11"/>
    <linearGradient id="Sfumatura_senza_nome_11-53" data-name="Sfumatura senza nome 11" x1="164.63" y1="-12587.14" x2="201.14" y2="-12587.14" gradientTransform="translate(0 -12142.17) scale(1 -1)" xlink:href="#Sfumatura_senza_nome_11"/>
    <linearGradient id="Sfumatura_senza_nome_11-54" data-name="Sfumatura senza nome 11" x1="120.91" y1="-12655.17" x2="179.17" y2="-12655.17" gradientTransform="translate(0 -12142.17) scale(1 -1)" xlink:href="#Sfumatura_senza_nome_11"/>
    <linearGradient id="Sfumatura_senza_nome_190" data-name="Sfumatura senza nome 190" x1="2755.06" y1="-3803.79" x2="2855.75" y2="-3803.79" gradientTransform="translate(-3148.78 -2253.05) rotate(90)" gradientUnits="userSpaceOnUse">
      <stop offset="0" stop-color="#030660"/>
      <stop offset="1" stop-color="#0076b5"/>
    </linearGradient>
    <linearGradient id="Sfumatura_senza_nome_190-2" data-name="Sfumatura senza nome 190" x1="2754.94" y1="4803.47" x2="2855.75" y2="4803.47" gradientTransform="translate(-4899.05 -2253.05) rotate(90) scale(1 -1.09)" xlink:href="#Sfumatura_senza_nome_190"/>
    <linearGradient id="Sfumatura_senza_nome_190-3" data-name="Sfumatura senza nome 190" x1="3363.26" y1="4954.98" x2="3368.99" y2="4954.98" gradientTransform="translate(-2864.09 -4486.66)" xlink:href="#Sfumatura_senza_nome_190"/>
    <linearGradient id="Sfumatura_senza_nome_113" data-name="Sfumatura senza nome 113" x1="2830.07" y1="-3650.81" x2="3177.44" y2="-3650.81" gradientTransform="translate(-3148.78 -2253.05) rotate(90)" gradientUnits="userSpaceOnUse">
      <stop offset="0" stop-color="#0077b6"/>
      <stop offset="1" stop-color="#03045e"/>
    </linearGradient>
    <linearGradient id="Sfumatura_senza_nome_113-2" data-name="Sfumatura senza nome 113" x1="400.7" y1="259.19" x2="603.36" y2="259.19" gradientTransform="matrix(1,0,0,1,0,0)" xlink:href="#Sfumatura_senza_nome_113"/>
    <linearGradient id="Sfumatura_senza_nome_113-3" data-name="Sfumatura senza nome 113" x1="743.03" y1="504.77" x2="945.69" y2="504.77" gradientTransform="matrix(1,0,0,1,0,0)" xlink:href="#Sfumatura_senza_nome_113"/>
    <linearGradient id="Sfumatura_senza_nome_113-4" data-name="Sfumatura senza nome 113" x1="37.98" y1="504.77" x2="240.64" y2="504.77" gradientTransform="matrix(1,0,0,1,0,0)" xlink:href="#Sfumatura_senza_nome_113"/>
    <linearGradient id="Sfumatura_senza_nome_113-5" data-name="Sfumatura senza nome 113" x1="95.92" y1="-12642.71" x2="182.16" y2="-12642.71" gradientTransform="translate(0 -12142.17) scale(1 -1)" xlink:href="#Sfumatura_senza_nome_113"/>
    <linearGradient id="Sfumatura_senza_nome_113-6" data-name="Sfumatura senza nome 113" x1="458.64" y1="-12397.13" x2="544.88" y2="-12397.13" gradientTransform="translate(0 -12142.17) scale(1 -1)" xlink:href="#Sfumatura_senza_nome_113"/>
    <linearGradient id="Sfumatura_senza_nome_113-7" data-name="Sfumatura senza nome 113" x1="800.97" y1="-12642.71" x2="887.21" y2="-12642.71" gradientTransform="translate(0 -12142.17) scale(1 -1)" xlink:href="#Sfumatura_senza_nome_113"/>
    <linearGradient id="Sfumatura_senza_nome_11-55" data-name="Sfumatura senza nome 11" x1="-7493.27" y1="-17559.77" x2="-7387.95" y2="-17559.77" gradientTransform="translate(5854.47 -14045.51) scale(.73 -.84)" xlink:href="#Sfumatura_senza_nome_11"/>
    <linearGradient id="Sfumatura_senza_nome_11-56" data-name="Sfumatura senza nome 11" x1="-16011.28" y1="-14297.83" x2="-15820.43" y2="-14297.83" gradientTransform="translate(-11551.97 -10865.54) rotate(-90) scale(.73 -.84)" xlink:href="#Sfumatura_senza_nome_11"/>
    <linearGradient id="Sfumatura_senza_nome_11-57" data-name="Sfumatura senza nome 11" x1="-2916.35" y1="-17201.08" x2="-2725.5" y2="-17201.08" gradientTransform="translate(2733.96 -13744.44) scale(.8 -.84)" xlink:href="#Sfumatura_senza_nome_11"/>
    <linearGradient id="Sfumatura_senza_nome_11-58" data-name="Sfumatura senza nome 11" x1="-46169.25" y1="-10111.7" x2="-45978.4" y2="-10111.7" gradientTransform="translate(-8007.71 -9894.76) rotate(-90) scale(.23 -.84)" xlink:href="#Sfumatura_senza_nome_11"/>
    <linearGradient id="Sfumatura_senza_nome_11-59" data-name="Sfumatura senza nome 11" x1="-34006.68" y1="-6545.8" x2="-33815.83" y2="-6545.8" gradientTransform="translate(-5075.41 -11407.17) rotate(-90) scale(.36 -.84)" xlink:href="#Sfumatura_senza_nome_11"/>
    <linearGradient id="Sfumatura_senza_nome_11-60" data-name="Sfumatura senza nome 11" x1="5958.15" y1="-14866.2" x2="6063.46" y2="-14866.2" gradientTransform="translate(-2550.99 -11833.5) scale(.51 -.84)" xlink:href="#Sfumatura_senza_nome_11"/>
    <linearGradient id="Sfumatura_senza_nome_11-61" data-name="Sfumatura senza nome 11" x1="-12386.38" y1="-16977.03" x2="-12281.07" y2="-16977.03" gradientTransform="translate(6831.99 -13559.81) scale(.51 -.84)" xlink:href="#Sfumatura_senza_nome_11"/>
    <linearGradient id="Sfumatura_senza_nome_11-62" data-name="Sfumatura senza nome 11" x1="-22495.17" y1="-10550.99" x2="-22389.85" y2="-10550.99" gradientTransform="translate(-8271.09 -11418.66) rotate(-90) scale(.54 -.84)" xlink:href="#Sfumatura_senza_nome_11"/>
    <linearGradient id="Sfumatura_senza_nome_11-63" data-name="Sfumatura senza nome 11" x1="12768.28" y1="-15640.4" x2="12873.6" y2="-15640.4" gradientTransform="translate(-3147.04 -12377.8) scale(.29 -.84)" xlink:href="#Sfumatura_senza_nome_11"/>
    <linearGradient id="Sfumatura_senza_nome_11-64" data-name="Sfumatura senza nome 11" x1="6816.85" y1="-14586.61" x2="6922.17" y2="-14586.61" gradientTransform="translate(-2988.99 -11405.15) scale(.51 -.84)" xlink:href="#Sfumatura_senza_nome_11"/>
    <linearGradient id="Sfumatura_senza_nome_11-65" data-name="Sfumatura senza nome 11" x1="-12006.58" y1="-17762.69" x2="-11901.27" y2="-17762.69" gradientTransform="translate(3948.91 -14107.53) scale(.29 -.84)" xlink:href="#Sfumatura_senza_nome_11"/>
    <linearGradient id="Sfumatura_senza_nome_11-66" data-name="Sfumatura senza nome 11" x1="356.25" y1="-12895.39" x2="415.19" y2="-12895.39" gradientTransform="translate(0 -12142.17) scale(1 -1)" xlink:href="#Sfumatura_senza_nome_11"/>
    <linearGradient id="Sfumatura_senza_nome_11-67" data-name="Sfumatura senza nome 11" x1="435.31" y1="-12801.59" x2="494.25" y2="-12801.59" gradientTransform="translate(0 -12142.17) scale(1 -1)" xlink:href="#Sfumatura_senza_nome_11"/>
    <linearGradient id="Sfumatura_senza_nome_11-68" data-name="Sfumatura senza nome 11" x1="434.55" y1="-12989.77" x2="493.48" y2="-12989.77" gradientTransform="translate(0 -12142.17) scale(1 -1)" xlink:href="#Sfumatura_senza_nome_11"/>
    <linearGradient id="Sfumatura_senza_nome_11-69" data-name="Sfumatura senza nome 11" x1="537" y1="-12989.77" x2="595.94" y2="-12989.77" gradientTransform="translate(0 -12142.17) scale(1 -1)" xlink:href="#Sfumatura_senza_nome_11"/>
    <linearGradient id="Sfumatura_senza_nome_11-70" data-name="Sfumatura senza nome 11" x1="577.09" y1="-12895.39" x2="636.03" y2="-12895.39" gradientTransform="translate(0 -12142.17) scale(1 -1)" xlink:href="#Sfumatura_senza_nome_11"/>
    <linearGradient id="Sfumatura_senza_nome_11-71" data-name="Sfumatura senza nome 11" x1="537" y1="-12796.41" x2="595.94" y2="-12796.41" gradientTransform="translate(0 -12142.17) scale(1 -1)" xlink:href="#Sfumatura_senza_nome_11"/>
    <linearGradient id="Sfumatura_senza_nome_11-72" data-name="Sfumatura senza nome 11" x1="466.45" y1="-12906.22" x2="560.48" y2="-12906.22" gradientTransform="translate(0 -12142.17) scale(1 -1)" xlink:href="#Sfumatura_senza_nome_11"/>
  </defs>
  <g>
    <rect class="cls-1" x="771.94" y="473.66" width="47.52" height="7.99" transform="translate(-87.17 763.73) rotate(-48.93)"/>
    <rect class="cls-12" x="813.69" y="464.65" width="7.99" height="86.12"/>
    <rect class="cls-11" x="782.16" y="473.52" width="94.44" height="7.99" transform="translate(-127.06 444.1) rotate(-27.93)"/>
    <rect class="cls-10" x="830.98" y="462.9" width="7.99" height="26.9" transform="translate(-122.89 395.17) rotate(-24.86)"/>
    <rect class="cls-7" x="791.91" y="515.91" width="7.99" height="42.23" transform="translate(-153.66 679.13) rotate(-42.52)"/>
    <rect class="cls-8" x="836.25" y="442.32" width="33.56" height="7.99" transform="translate(-27.5 57.05) rotate(-3.77)"/>
    <rect class="cls-9" x="853.26" y="471.3" width="33.56" height="7.99" transform="translate(52.54 1036.16) rotate(-63.1)"/>
    <rect class="cls-5" x="896.42" y="458.13" width="7.99" height="34.95" transform="translate(-111.89 365.22) rotate(-21.62)"/>
    <rect class="cls-6" x="877.51" y="508.01" width="18.61" height="7.99" transform="translate(-69.88 146.87) rotate(-9.11)"/>
    <rect class="cls-14" x="836.15" y="562.2" width="33.56" height="7.99"/>
    <rect class="cls-17" x="823.5" y="540.84" width="18.61" height="7.99" transform="translate(-97.18 899.16) rotate(-54.05)"/>
    <circle class="cls-16" cx="772.77" cy="507.72" r="18.26"/>
    <circle class="cls-18" cx="821.76" cy="449.6" r="18.26"/>
    <circle class="cls-25" cx="821.28" cy="566.19" r="18.26"/>
    <circle class="cls-15" cx="884.76" cy="566.19" r="18.26"/>
    <circle class="cls-13" cx="909.6" cy="507.72" r="18.26"/>
    <circle class="cls-22" cx="884.76" cy="446.39" r="18.26"/>
    <circle class="cls-20" cx="851.92" cy="514.43" r="29.13"/>
  </g>
  <g>
    <rect class="cls-21" x="430.76" y="226.65" width="47.52" height="7.99" transform="translate(-17.98 421.78) rotate(-48.93)"/>
    <rect class="cls-65" x="472.5" y="217.64" width="7.99" height="86.12"/>
    <rect class="cls-63" x="440.97" y="226.51" width="94.44" height="7.99" transform="translate(-51.1 255.52) rotate(-27.93)"/>
    <rect class="cls-64" x="489.8" y="215.89" width="7.99" height="26.9" transform="translate(-50.66 228.84) rotate(-24.86)"/>
    <rect class="cls-61" x="450.73" y="268.91" width="7.99" height="42.23" transform="translate(-76.44 383.59) rotate(-42.52)"/>
    <rect class="cls-60" x="495.07" y="195.31" width="33.56" height="7.99" transform="translate(-12 34.09) rotate(-3.77)"/>
    <rect class="cls-59" x="512.08" y="224.3" width="33.56" height="7.99" transform="translate(85.99 596.64) rotate(-63.1)"/>
    <rect class="cls-62" x="555.24" y="211.13" width="7.99" height="34.95" transform="translate(-44.88 222.13) rotate(-21.62)"/>
    <rect class="cls-73" x="536.32" y="261.01" width="18.61" height="7.99" transform="translate(-35.08 89.73) rotate(-9.11)"/>
    <rect class="cls-74" x="494.96" y="315.19" width="33.56" height="7.99"/>
    <rect class="cls-75" x="482.32" y="293.83" width="18.61" height="7.99" transform="translate(-38.1 520.96) rotate(-54.05)"/>
    <circle class="cls-66" cx="431.59" cy="260.71" r="18.26"/>
    <circle class="cls-67" cx="480.57" cy="202.6" r="18.26"/>
    <circle class="cls-68" cx="480.1" cy="319.19" r="18.26"/>
    <circle class="cls-69" cx="543.58" cy="319.19" r="18.26"/>
    <circle class="cls-70" cx="568.41" cy="260.71" r="18.26"/>
    <circle class="cls-71" cx="543.58" cy="199.38" r="18.26"/>
    <circle class="cls-72" cx="510.73" cy="267.42" r="29.13"/>
  </g>
  <g>
    <rect class="cls-23" x="70.07" y="472.23" width="47.52" height="7.99" transform="translate(-326.85 234.09) rotate(-48.93)"/>
    <rect class="cls-19" x="111.81" y="463.22" width="7.99" height="86.12"/>
    <rect class="cls-24" x="80.28" y="472.09" width="94.44" height="7.99" transform="translate(-208.15 115.18) rotate(-27.93)"/>
    <rect class="cls-40" x="129.11" y="461.47" width="7.99" height="26.9" transform="translate(-187.33 99.96) rotate(-24.86)"/>
    <rect class="cls-39" x="90.04" y="514.49" width="7.99" height="42.23" transform="translate(-337.26 204.4) rotate(-42.52)"/>
    <rect class="cls-35" x="134.38" y="440.89" width="33.56" height="7.99" transform="translate(-28.92 10.9) rotate(-3.77)"/>
    <rect class="cls-41" x="151.39" y="469.88" width="33.56" height="7.99" transform="translate(-330.52 409.45) rotate(-63.1)"/>
    <rect class="cls-37" x="194.55" y="456.71" width="7.99" height="34.95" transform="translate(-160.74 106.51) rotate(-21.62)"/>
    <rect class="cls-36" x="175.63" y="506.59" width="18.61" height="7.99" transform="translate(-78.51 35.72) rotate(-9.11)"/>
    <rect class="cls-42" x="134.27" y="560.77" width="33.56" height="7.99"/>
    <rect class="cls-38" x="121.63" y="539.41" width="18.61" height="7.99" transform="translate(-385.84 330.38) rotate(-54.05)"/>
    <circle class="cls-44" cx="70.9" cy="506.29" r="18.26"/>
    <circle class="cls-43" cx="119.88" cy="448.18" r="18.26"/>
    <circle class="cls-27" cx="119.41" cy="564.77" r="18.26"/>
    <circle class="cls-29" cx="182.89" cy="564.77" r="18.26"/>
    <circle class="cls-32" cx="207.72" cy="506.29" r="18.26"/>
    <circle class="cls-26" cx="182.89" cy="444.96" r="18.26"/>
    <circle class="cls-30" cx="150.04" cy="513" r="29.13"/>
  </g>
  <polyline class="cls-4" points="568.84 602.7 568.84 504.87 744.03 504.87"/>
  <polyline class="cls-2" points="435.21 602.7 435.21 504.87 240.53 504.87"/>
  <line class="cls-3" x1="502.03" y1="577.03" x2="502.03" y2="359.62"/>
  <circle class="cls-82" cx="502.03" cy="750.71" r="173.68"/>
  <path class="cls-78" d="M602.46,259.29c.15,26.32-10.44,52.55-29.04,71.39-9.24,9.46-20.44,16.99-32.66,22.12-12.21,5.16-25.5,7.66-38.73,7.65-13.24-.08-26.45-2.79-38.61-7.94-12.16-5.15-23.27-12.7-32.58-22.03-9.27-9.36-16.77-20.49-21.84-32.66-5.06-12.17-7.78-25.32-7.85-38.53-.07-13.21,2.45-26.44,7.46-38.69,4.99-12.26,12.44-23.53,21.8-32.92,9.35-9.4,20.56-16.95,32.81-22.06,12.24-5.14,25.54-7.69,38.8-7.69,13.26.03,26.55,2.6,38.76,7.78,12.22,5.15,23.41,12.71,32.65,22.17,9.25,9.45,16.62,20.69,21.55,32.91,4.95,12.2,7.53,25.35,7.47,38.5ZM602.26,259.29c-.07-13.12-2.65-26.23-7.78-38.29-5.12-12.06-12.64-23.06-21.97-32.19-9.34-9.11-20.39-16.45-32.44-21.34-12.05-4.9-25.02-7.5-38.03-7.47-13.01,0-25.98,2.61-38,7.56-12.02,4.94-23.05,12.28-32.28,21.46-9.21,9.19-16.66,20.16-21.72,32.17-5.07,12.01-7.71,25.04-7.79,38.1-.06,13.06,2.38,26.17,7.4,38.26,4.97,12.1,12.37,23.22,21.68,32.44,4.65,4.61,9.73,8.77,15.19,12.38,5.46,3.6,11.27,6.65,17.33,9.11,12.1,4.93,25.16,7.38,38.18,7.31,6.51-.02,13.02-.67,19.41-1.95,6.38-1.28,12.63-3.2,18.66-5.65,12.06-4.92,23.1-12.29,32.43-21.4,9.32-9.14,16.84-20.14,21.96-32.2,5.13-12.06,7.71-25.18,7.77-38.3Z"/>
  <path class="cls-77" d="M944.79,504.87c.15,26.32-10.44,52.55-29.04,71.39-9.24,9.46-20.44,16.99-32.66,22.12-12.21,5.16-25.5,7.66-38.73,7.65-13.24-.08-26.45-2.79-38.61-7.94-12.16-5.15-23.27-12.7-32.58-22.03-9.27-9.36-16.77-20.49-21.84-32.66-5.06-12.17-7.78-25.32-7.85-38.53-.07-13.21,2.45-26.44,7.46-38.69,4.99-12.26,12.44-23.53,21.8-32.92,9.35-9.4,20.56-16.95,32.81-22.06,12.24-5.14,25.54-7.69,38.8-7.69,13.26.03,26.55,2.6,38.76,7.78,12.22,5.15,23.41,12.71,32.65,22.17,9.25,9.45,16.62,20.69,21.55,32.91,4.95,12.2,7.53,25.35,7.47,38.5ZM944.59,504.87c-.07-13.12-2.65-26.23-7.78-38.29-5.12-12.06-12.64-23.06-21.97-32.19-9.34-9.11-20.39-16.45-32.44-21.34-12.05-4.9-25.02-7.5-38.03-7.47-13.01,0-25.98,2.61-38,7.56-12.02,4.94-23.05,12.28-32.28,21.46-9.21,9.19-16.66,20.16-21.72,32.17-5.07,12.01-7.71,25.04-7.79,38.1-.06,13.06,2.38,26.17,7.4,38.26,4.97,12.1,12.37,23.22,21.68,32.44,4.65,4.61,9.73,8.77,15.19,12.38,5.46,3.6,11.27,6.65,17.33,9.11,12.1,4.93,25.16,7.38,38.18,7.31,6.51-.02,13.02-.67,19.41-1.95,6.38-1.28,12.63-3.2,18.66-5.65,12.06-4.92,23.1-12.29,32.43-21.4,9.32-9.14,16.84-20.14,21.96-32.2,5.13-12.06,7.71-25.18,7.77-38.3Z"/>
  <path class="cls-76" d="M239.74,504.87c.15,26.32-10.44,52.55-29.04,71.39-9.24,9.46-20.44,16.99-32.66,22.12-12.21,5.16-25.5,7.66-38.73,7.65-13.24-.08-26.45-2.79-38.61-7.94-12.16-5.15-23.27-12.7-32.58-22.03-9.27-9.36-16.77-20.49-21.84-32.66-5.06-12.17-7.78-25.32-7.85-38.53-.07-13.21,2.45-26.44,7.46-38.69,4.99-12.26,12.44-23.53,21.8-32.92,9.35-9.4,20.56-16.95,32.81-22.06,12.24-5.14,25.54-7.69,38.8-7.69,13.26.03,26.55,2.6,38.76,7.78,12.22,5.15,23.41,12.71,32.65,22.17,9.25,9.45,16.62,20.69,21.55,32.91,4.95,12.2,7.53,25.35,7.47,38.5ZM239.54,504.87c-.07-13.12-2.65-26.23-7.78-38.29-5.12-12.06-12.64-23.06-21.97-32.19-9.34-9.11-20.39-16.45-32.44-21.34-12.05-4.9-25.02-7.5-38.03-7.47-13.01,0-25.98,2.61-38,7.56-12.02,4.94-23.05,12.28-32.28,21.46-9.21,9.19-16.66,20.16-21.72,32.17-5.07,12.01-7.71,25.04-7.79,38.1-.06,13.06,2.38,26.17,7.4,38.26,4.97,12.1,12.37,23.22,21.68,32.44,4.65,4.61,9.73,8.77,15.19,12.38,5.46,3.6,11.27,6.65,17.33,9.11,12.1,4.93,25.16,7.38,38.18,7.31,6.51-.02,13.02-.67,19.41-1.95,6.38-1.28,12.63-3.2,18.66-5.65,12.06-4.92,23.1-12.29,32.43-21.4,9.32-9.14,16.84-20.14,21.96-32.2,5.13-12.06,7.71-25.18,7.77-38.3Z"/>
  <path class="cls-79" d="M172.3,482.87c.1-5.26.17-12.72-.14-16.05-1.5-15.85-16.35-27.15-31.84-27.73-16.39-.62-32.8,10.92-34.41,27.73-.32,3.33-.25,10.78-.14,16.05h-5.56c-2.37,0-4.3,1.92-4.3,4.3v70.53c0,2.37,1.92,4.3,4.3,4.3h77.65c2.37,0,4.3-1.92,4.3-4.3v-70.53c0-2.37-1.92-4.3-4.3-4.3h-5.56ZM144.6,534.89h-11.13l2.86-11.35c-2.05-1.02-3.44-3.15-3.38-5.6.08-3.12,2.57-5.72,5.69-5.92,3.54-.22,6.48,2.58,6.48,6.08,0,2.39-1.38,4.45-3.38,5.45l2.86,11.35h0ZM161.7,482.6h-45.03c-1.7,0-3.09-1.37-3.11-3.07-.04-3.62-.03-7.45.16-9.52,1.26-13.77,12.44-23.59,25.31-23.8,12.18-.21,24.43,10.82,25.61,23.8.19,2.06.2,5.9.16,9.52-.02,1.7-1.41,3.07-3.11,3.07h0Z"/>
  <path class="cls-80" d="M535.02,237.29c.1-5.26.17-12.72-.14-16.05-1.5-15.85-16.35-27.15-31.84-27.73-16.39-.62-32.8,10.92-34.41,27.73-.32,3.33-.25,10.78-.14,16.05h-5.56c-2.37,0-4.3,1.92-4.3,4.3v70.53c0,2.37,1.92,4.3,4.3,4.3h77.65c2.37,0,4.3-1.92,4.3-4.3v-70.53c0-2.37-1.92-4.3-4.3-4.3h-5.56ZM507.32,289.31h-11.13l2.86-11.35c-2.05-1.02-3.44-3.15-3.38-5.6.08-3.12,2.57-5.72,5.69-5.92,3.54-.22,6.48,2.58,6.48,6.08,0,2.39-1.38,4.45-3.38,5.45l2.86,11.35h0ZM524.42,237.02h-45.03c-1.7,0-3.09-1.37-3.11-3.07-.04-3.62-.03-7.45.16-9.52,1.26-13.77,12.44-23.59,25.31-23.8,12.18-.21,24.43,10.82,25.61,23.8.19,2.06.2,5.9.16,9.52-.02,1.7-1.41,3.07-3.11,3.07h0Z"/>
  <path class="cls-81" d="M877.36,482.87c.1-5.26.17-12.72-.14-16.05-1.5-15.85-16.35-27.15-31.84-27.73-16.39-.62-32.8,10.92-34.41,27.73-.32,3.33-.25,10.78-.14,16.05h-5.56c-2.37,0-4.3,1.92-4.3,4.3v70.53c0,2.37,1.92,4.3,4.3,4.3h77.65c2.37,0,4.3-1.92,4.3-4.3v-70.53c0-2.37-1.92-4.3-4.3-4.3h-5.56ZM849.66,534.89h-11.13l2.86-11.35c-2.05-1.02-3.44-3.15-3.38-5.6.08-3.12,2.57-5.72,5.69-5.92,3.54-.22,6.48,2.58,6.48,6.08,0,2.39-1.38,4.45-3.38,5.45l2.86,11.35h0ZM866.75,482.6h-45.03c-1.7,0-3.09-1.37-3.11-3.07-.04-3.62-.03-7.45.16-9.52,1.26-13.77,12.44-23.59,25.31-23.8,12.18-.21,24.43,10.82,25.61,23.8.19,2.06.2,5.9.16,9.52-.02,1.7-1.41,3.07-3.11,3.07h0Z"/>
  <g>
    <rect class="cls-33" x="384.38" y="698.25" width="76.7" height="12.9" transform="translate(-386.27 560.42) rotate(-48.93)"/>
    <rect class="cls-31" x="451.76" y="683.7" width="12.9" height="139"/>
    <rect class="cls-28" x="400.87" y="698.02" width="152.43" height="12.9" transform="translate(-274.4 305.52) rotate(-27.93)"/>
    <rect class="cls-34" x="479.67" y="680.88" width="12.9" height="43.42" transform="translate(-250.33 269.47) rotate(-24.86)"/>
    <rect class="cls-45" x="416.62" y="766.45" width="12.9" height="68.17" transform="translate(-429.79 496.44) rotate(-42.52)"/>
    <rect class="cls-51" x="488.18" y="647.66" width="54.17" height="12.9" transform="translate(-41.89 35.3) rotate(-3.77)"/>
    <rect class="cls-54" x="515.63" y="694.44" width="54.17" height="12.9" transform="translate(-327.88 867.78) rotate(-63.1)"/>
    <rect class="cls-53" x="585.29" y="673.19" width="12.9" height="56.4" transform="translate(-216.8 267.37) rotate(-21.62)"/>
    <rect class="cls-49" x="554.76" y="753.69" width="30.04" height="12.9" transform="translate(-113.17 99.8) rotate(-9.11)"/>
    <rect class="cls-55" x="488.01" y="841.15" width="54.17" height="12.9"/>
    <rect class="cls-58" x="467.6" y="806.68" width="30.04" height="12.9" transform="translate(-458.97 726.45) rotate(-54.05)"/>
    <circle class="cls-57" cx="385.72" cy="753.22" r="29.47"/>
    <circle class="cls-52" cx="464.78" cy="659.42" r="29.47"/>
    <circle class="cls-56" cx="464.01" cy="847.6" r="29.47"/>
    <circle class="cls-50" cx="566.47" cy="847.6" r="29.47"/>
    <circle class="cls-46" cx="606.56" cy="753.22" r="29.47"/>
    <circle class="cls-48" cx="566.47" cy="654.23" r="29.47"/>
    <circle class="cls-47" cx="513.46" cy="764.05" r="47.02"/>
  </g>
</svg>