<?xml version="1.0" encoding="UTF-8"?>
<svg id="Livello_1" data-name="Livello 1" xmlns="http://www.w3.org/2000/svg" xmlns:xlink="http://www.w3.org/1999/xlink" viewBox="0 0 1000 1000">
  <defs>
    <style>
      .cls-1 {
        fill: url(#Sfumatura_senza_nome_11);
      }

      .cls-2 {
        fill: url(#Sfumatura_senza_nome_11-2);
      }

      .cls-3 {
        fill: #fff;
      }

      .cls-4 {
        filter: url(#drop-shadow-129);
      }

      .cls-5 {
        fill: url(#Sfumatura_senza_nome_113-2);
      }

      .cls-6 {
        fill: url(#Sfumatura_senza_nome_8);
      }

      .cls-7 {
        fill: url(#Sfumatura_senza_nome_113);
      }

      .cls-8 {
        fill: url(#Sfumatura_senza_nome_8-2);
      }
    </style>
    <linearGradient id="Sfumatura_senza_nome_8" data-name="Sfumatura senza nome 8" x1="161.84" y1="659.69" x2="838.16" y2="659.69" gradientUnits="userSpaceOnUse">
      <stop offset="0" stop-color="#00b4d8"/>
      <stop offset="1" stop-color="#0077b6"/>
    </linearGradient>
    <linearGradient id="Sfumatura_senza_nome_11" data-name="Sfumatura senza nome 11" x1="297.5" y1="538.8" x2="702.5" y2="538.8" gradientUnits="userSpaceOnUse">
      <stop offset="0" stop-color="#90e0ef"/>
      <stop offset="1" stop-color="#00b4d8"/>
    </linearGradient>
    <linearGradient id="Sfumatura_senza_nome_8-2" data-name="Sfumatura senza nome 8" x1="417.9" y1="8829.3" x2="582.13" y2="8829.3" gradientTransform="translate(0 9566.41) scale(1 -1)" xlink:href="#Sfumatura_senza_nome_8"/>
    <linearGradient id="Sfumatura_senza_nome_113" data-name="Sfumatura senza nome 113" x1="369.2" y1="511.71" x2="630.8" y2="511.71" gradientUnits="userSpaceOnUse">
      <stop offset="0" stop-color="#0077b6"/>
      <stop offset="1" stop-color="#03045e"/>
    </linearGradient>
    <linearGradient id="Sfumatura_senza_nome_113-2" data-name="Sfumatura senza nome 113" x1="413.4" y1="269.94" x2="586.62" y2="269.94" xlink:href="#Sfumatura_senza_nome_113"/>
    <linearGradient id="Sfumatura_senza_nome_11-2" data-name="Sfumatura senza nome 11" x1="396.93" y1="509.43" x2="605.49" y2="509.43" xlink:href="#Sfumatura_senza_nome_11"/>
    <filter id="drop-shadow-129" x="411.52" y="425.63" width="247" height="263" filterUnits="userSpaceOnUse">
      <feOffset dx="33.19" dy="33.19"/>
      <feGaussianBlur result="blur" stdDeviation="22.12"/>
      <feFlood flood-color="#000" flood-opacity=".25"/>
      <feComposite in2="blur" operator="in"/>
      <feComposite in="SourceGraphic"/>
    </filter>
  </defs>
  <g>
    <path class="cls-6" d="M838.16,519.5v280.37c0,4.31-3.49,7.79-7.79,7.79H169.63c-4.31,0-7.79-3.49-7.79-7.79v-280.37c0-4.31,3.49-7.79,7.79-7.79h182.63v116.38c0,9.34,7.6,16.94,16.94,16.94h261.59c9.35,0,16.94-7.6,16.94-16.94v-116.38h182.63c4.31,0,7.79,3.49,7.79,7.79Z"/>
    <path class="cls-1" d="M694.7,269.94h-94.37v72.73c0,10.24-8.33,18.58-18.58,18.58h-163.47c-10.25,0-18.59-8.34-18.59-18.58v-72.73h-94.39c-4.3,0-7.79,3.49-7.79,7.79v522.13c0,4.3,3.49,7.79,7.79,7.79h389.41c4.31,0,7.79-3.49,7.79-7.79V277.74c0-4.3-3.48-7.79-7.79-7.79ZM647.73,628.09c0,9.34-7.59,16.94-16.94,16.94h-261.59c-9.34,0-16.94-7.6-16.94-16.94v-232.79c0-9.33,7.6-16.93,16.94-16.93h261.59c9.35,0,16.94,7.6,16.94,16.93v232.79Z"/>
    <path class="cls-8" d="M417.9,674.34h0c0,4.3,3.48,7.79,7.79,7.79h3.77c4.3,0,7.79,3.48,7.79,7.79v109.95c0,4.3,3.48,7.79,7.79,7.79h109.95c4.3,0,7.79-3.48,7.79-7.79v-109.95c0-4.3,3.48-7.79,7.79-7.79h3.77c4.3,0,7.79-3.48,7.79-7.79h0c0-4.3-3.48-7.79-7.79-7.79h-148.64c-4.3,0-7.79,3.48-7.79,7.79h0Z"/>
    <path class="cls-7" d="M630.8,401.85v219.7c0,4.07-3.29,7.35-7.35,7.35h-246.89c-4.06,0-7.35-3.29-7.35-7.35v-219.7c0-4.06,3.3-7.35,7.35-7.35h246.89c4.07,0,7.35,3.29,7.35,7.35Z"/>
    <path class="cls-5" d="M581.75,192.34h-163.47c-2.69,0-4.87,2.18-4.87,4.87v145.47c0,2.69,2.19,4.87,4.87,4.87h163.47c2.69,0,4.87-2.18,4.87-4.87v-145.47c0-2.69-2.18-4.87-4.87-4.87ZM561.47,290.84c0,3.4-2.76,6.15-6.15,6.15h-22.11c-3.4,0-6.15,2.75-6.15,6.15v22.11c0,3.4-2.75,6.15-6.15,6.15h-41.8c-3.4,0-6.15-2.76-6.15-6.15v-22.11c0-3.4-2.75-6.15-6.15-6.15h-22.11c-3.4,0-6.15-2.76-6.15-6.15v-41.8c0-3.4,2.76-6.15,6.15-6.15h22.11c3.4,0,6.15-2.75,6.15-6.15v-22.11c0-3.4,2.75-6.15,6.15-6.15h41.8c3.4,0,6.15,2.76,6.15,6.15v22.11c0,3.4,2.75,6.15,6.15,6.15h22.11c3.4,0,6.15,2.76,6.15,6.15v41.8Z"/>
  </g>
  <path class="cls-2" d="M512.06,407.14h-21.69c-51.6,0-93.44,45.8-93.44,102.3h0c0,56.5,41.83,102.3,93.44,102.3h21.69c51.6,0,93.43-45.79,93.43-102.28v-.02c0-56.49-41.83-102.28-93.43-102.28Z"/>
  <g class="cls-4">
    <path class="cls-3" d="M444.78,534.1l11.94-7.99c9.89,14.86,17.94,31.39,23.64,47.44h.73c12.94-43.31,37.87-86.56,65.26-113.8l11.51,10.44c-27.48,25.73-53.26,65.65-67.12,115.59l-18.22,2.09c-7.37-20.12-15.96-36.86-27.74-53.77Z"/>
  </g>
</svg>