<?xml version="1.0" encoding="UTF-8"?>
<svg id="Livello_1" data-name="Livello 1" xmlns="http://www.w3.org/2000/svg" xmlns:xlink="http://www.w3.org/1999/xlink" viewBox="0 0 1000 1000">
  <defs>
    <style>
      .cls-1 {
        fill: url(#Sfumatura_senza_nome_11);
      }

      .cls-2 {
        fill: url(#Sfumatura_senza_nome_11-8);
      }

      .cls-3 {
        fill: url(#Sfumatura_senza_nome_11-9);
      }

      .cls-4 {
        fill: url(#Sfumatura_senza_nome_11-5);
      }

      .cls-5 {
        fill: url(#Sfumatura_senza_nome_11-6);
      }

      .cls-6 {
        fill: url(#Sfumatura_senza_nome_11-7);
      }

      .cls-7 {
        fill: url(#Sfumatura_senza_nome_11-4);
      }

      .cls-8 {
        fill: url(#Sfumatura_senza_nome_11-3);
      }

      .cls-9 {
        fill: url(#Sfumatura_senza_nome_11-2);
      }

      .cls-10 {
        fill: url(#Sfumatura_senza_nome_11-16);
      }

      .cls-11 {
        fill: url(#Sfumatura_senza_nome_11-10);
      }

      .cls-12 {
        fill: url(#Sfumatura_senza_nome_11-15);
      }

      .cls-13 {
        fill: url(#Sfumatura_senza_nome_11-12);
      }

      .cls-14 {
        fill: url(#Sfumatura_senza_nome_11-11);
      }

      .cls-15 {
        fill: url(#Sfumatura_senza_nome_11-13);
      }

      .cls-16 {
        fill: url(#Sfumatura_senza_nome_11-38);
      }

      .cls-17 {
        fill: url(#Sfumatura_senza_nome_11-18);
      }

      .cls-18 {
        fill: url(#Sfumatura_senza_nome_11-19);
      }

      .cls-19 {
        fill: url(#Sfumatura_senza_nome_11-17);
      }

      .cls-20 {
        fill: url(#Sfumatura_senza_nome_11-37);
      }

      .cls-21 {
        fill: url(#Sfumatura_senza_nome_11-39);
      }

      .cls-22 {
        fill: url(#Sfumatura_senza_nome_11-14);
      }

      .cls-23 {
        fill: url(#Sfumatura_senza_nome_11-42);
      }

      .cls-24 {
        fill: url(#Sfumatura_senza_nome_11-45);
      }

      .cls-25 {
        fill: url(#Sfumatura_senza_nome_11-44);
      }

      .cls-26 {
        fill: url(#Sfumatura_senza_nome_11-41);
      }

      .cls-27 {
        fill: url(#Sfumatura_senza_nome_11-40);
      }

      .cls-28 {
        fill: url(#Sfumatura_senza_nome_11-43);
      }

      .cls-29 {
        fill: url(#Sfumatura_senza_nome_11-25);
      }

      .cls-30 {
        fill: url(#Sfumatura_senza_nome_11-24);
      }

      .cls-31 {
        fill: url(#Sfumatura_senza_nome_11-23);
      }

      .cls-32 {
        fill: url(#Sfumatura_senza_nome_11-26);
      }

      .cls-33 {
        fill: url(#Sfumatura_senza_nome_11-21);
      }

      .cls-34 {
        fill: url(#Sfumatura_senza_nome_11-22);
      }

      .cls-35 {
        fill: url(#Sfumatura_senza_nome_11-20);
      }

      .cls-36 {
        fill: url(#Sfumatura_senza_nome_11-30);
      }

      .cls-37 {
        fill: url(#Sfumatura_senza_nome_11-31);
      }

      .cls-38 {
        fill: url(#Sfumatura_senza_nome_11-32);
      }

      .cls-39 {
        fill: url(#Sfumatura_senza_nome_11-33);
      }

      .cls-40 {
        fill: url(#Sfumatura_senza_nome_11-34);
      }

      .cls-41 {
        fill: url(#Sfumatura_senza_nome_11-35);
      }

      .cls-42 {
        fill: url(#Sfumatura_senza_nome_11-36);
      }

      .cls-43 {
        fill: url(#Sfumatura_senza_nome_11-27);
      }

      .cls-44 {
        fill: url(#Sfumatura_senza_nome_11-28);
      }

      .cls-45 {
        fill: url(#Sfumatura_senza_nome_11-29);
      }

      .cls-46 {
        fill: url(#Sfumatura_senza_nome_8);
      }

      .cls-47 {
        fill: url(#Sfumatura_senza_nome_113);
      }

      .cls-48 {
        fill: url(#Sfumatura_senza_nome_8-2);
      }
    </style>
    <linearGradient id="Sfumatura_senza_nome_11" data-name="Sfumatura senza nome 11" x1="376.66" y1="590.69" x2="197.9" y2="590.69" gradientUnits="userSpaceOnUse">
      <stop offset="0" stop-color="#90e0ef"/>
      <stop offset="1" stop-color="#00b4d8"/>
    </linearGradient>
    <linearGradient id="Sfumatura_senza_nome_11-2" data-name="Sfumatura senza nome 11" x1="376.66" y1="812.45" x2="197.9" y2="812.45" xlink:href="#Sfumatura_senza_nome_11"/>
    <linearGradient id="Sfumatura_senza_nome_11-3" data-name="Sfumatura senza nome 11" x1="333.04" y1="257.76" x2="690.88" y2="257.76" xlink:href="#Sfumatura_senza_nome_11"/>
    <linearGradient id="Sfumatura_senza_nome_11-4" data-name="Sfumatura senza nome 11" x1="333.04" y1="257.76" x2="690.88" y2="257.76" xlink:href="#Sfumatura_senza_nome_11"/>
    <linearGradient id="Sfumatura_senza_nome_11-5" data-name="Sfumatura senza nome 11" x1="333.04" y1="257.76" x2="690.88" y2="257.76" xlink:href="#Sfumatura_senza_nome_11"/>
    <linearGradient id="Sfumatura_senza_nome_11-6" data-name="Sfumatura senza nome 11" x1="333.04" y1="257.76" x2="690.88" y2="257.76" xlink:href="#Sfumatura_senza_nome_11"/>
    <linearGradient id="Sfumatura_senza_nome_11-7" data-name="Sfumatura senza nome 11" x1="333.04" y1="257.76" x2="690.88" y2="257.76" xlink:href="#Sfumatura_senza_nome_11"/>
    <linearGradient id="Sfumatura_senza_nome_11-8" data-name="Sfumatura senza nome 11" x1="333.04" y1="257.76" x2="690.88" y2="257.76" xlink:href="#Sfumatura_senza_nome_11"/>
    <linearGradient id="Sfumatura_senza_nome_11-9" data-name="Sfumatura senza nome 11" x1="333.04" y1="257.76" x2="690.88" y2="257.76" xlink:href="#Sfumatura_senza_nome_11"/>
    <linearGradient id="Sfumatura_senza_nome_11-10" data-name="Sfumatura senza nome 11" x1="333.04" y1="257.76" x2="690.88" y2="257.76" xlink:href="#Sfumatura_senza_nome_11"/>
    <linearGradient id="Sfumatura_senza_nome_11-11" data-name="Sfumatura senza nome 11" x1="333.04" y1="257.76" x2="690.88" y2="257.76" xlink:href="#Sfumatura_senza_nome_11"/>
    <linearGradient id="Sfumatura_senza_nome_11-12" data-name="Sfumatura senza nome 11" x1="333.04" y1="257.76" x2="690.88" y2="257.76" xlink:href="#Sfumatura_senza_nome_11"/>
    <linearGradient id="Sfumatura_senza_nome_11-13" data-name="Sfumatura senza nome 11" x1="333.04" y1="257.76" x2="690.88" y2="257.76" xlink:href="#Sfumatura_senza_nome_11"/>
    <linearGradient id="Sfumatura_senza_nome_11-14" data-name="Sfumatura senza nome 11" x1="333.04" y1="257.76" x2="690.88" y2="257.76" xlink:href="#Sfumatura_senza_nome_11"/>
    <linearGradient id="Sfumatura_senza_nome_11-15" data-name="Sfumatura senza nome 11" x1="333.04" y1="257.76" x2="690.88" y2="257.76" xlink:href="#Sfumatura_senza_nome_11"/>
    <linearGradient id="Sfumatura_senza_nome_11-16" data-name="Sfumatura senza nome 11" x1="333.04" y1="258.87" x2="690.88" y2="258.87" xlink:href="#Sfumatura_senza_nome_11"/>
    <linearGradient id="Sfumatura_senza_nome_11-17" data-name="Sfumatura senza nome 11" x1="333.04" y1="281.93" x2="690.88" y2="281.93" xlink:href="#Sfumatura_senza_nome_11"/>
    <linearGradient id="Sfumatura_senza_nome_11-18" data-name="Sfumatura senza nome 11" x1="333.04" y1="306.16" x2="690.88" y2="306.16" xlink:href="#Sfumatura_senza_nome_11"/>
    <linearGradient id="Sfumatura_senza_nome_11-19" data-name="Sfumatura senza nome 11" x1="333.04" y1="330.39" x2="690.88" y2="330.39" xlink:href="#Sfumatura_senza_nome_11"/>
    <linearGradient id="Sfumatura_senza_nome_11-20" data-name="Sfumatura senza nome 11" x1="333.04" y1="354.62" x2="690.88" y2="354.62" xlink:href="#Sfumatura_senza_nome_11"/>
    <linearGradient id="Sfumatura_senza_nome_11-21" data-name="Sfumatura senza nome 11" x1="333.04" y1="378.85" x2="690.88" y2="378.85" xlink:href="#Sfumatura_senza_nome_11"/>
    <linearGradient id="Sfumatura_senza_nome_11-22" data-name="Sfumatura senza nome 11" x1="333.04" y1="403.08" x2="690.88" y2="403.08" xlink:href="#Sfumatura_senza_nome_11"/>
    <linearGradient id="Sfumatura_senza_nome_11-23" data-name="Sfumatura senza nome 11" x1="333.04" y1="427.31" x2="690.88" y2="427.31" xlink:href="#Sfumatura_senza_nome_11"/>
    <linearGradient id="Sfumatura_senza_nome_11-24" data-name="Sfumatura senza nome 11" x1="333.04" y1="451.54" x2="690.88" y2="451.54" xlink:href="#Sfumatura_senza_nome_11"/>
    <linearGradient id="Sfumatura_senza_nome_11-25" data-name="Sfumatura senza nome 11" x1="333.04" y1="472.71" x2="690.88" y2="472.71" xlink:href="#Sfumatura_senza_nome_11"/>
    <linearGradient id="Sfumatura_senza_nome_11-26" data-name="Sfumatura senza nome 11" x1="333.04" y1="257.76" x2="690.88" y2="257.76" xlink:href="#Sfumatura_senza_nome_11"/>
    <linearGradient id="Sfumatura_senza_nome_8" data-name="Sfumatura senza nome 8" x1="378.01" y1="771.73" x2="952.53" y2="771.73" gradientUnits="userSpaceOnUse">
      <stop offset="0" stop-color="#00b4d8"/>
      <stop offset="1" stop-color="#0077b6"/>
    </linearGradient>
    <linearGradient id="Sfumatura_senza_nome_11-27" data-name="Sfumatura senza nome 11" x1="493.25" y1="719.54" x2="837.28" y2="719.54" xlink:href="#Sfumatura_senza_nome_11"/>
    <linearGradient id="Sfumatura_senza_nome_8-2" data-name="Sfumatura senza nome 8" x1="595.52" y1="-10859.66" x2="735.03" y2="-10859.66" gradientTransform="translate(0 -10022.17) scale(1 -1)" xlink:href="#Sfumatura_senza_nome_8"/>
    <linearGradient id="Sfumatura_senza_nome_113" data-name="Sfumatura senza nome 113" x1="591.7" y1="541.64" x2="738.85" y2="541.64" gradientUnits="userSpaceOnUse">
      <stop offset="0" stop-color="#0077b6"/>
      <stop offset="1" stop-color="#03045e"/>
    </linearGradient>
    <linearGradient id="Sfumatura_senza_nome_11-28" data-name="Sfumatura senza nome 11" x1="-6169.72" y1="-15006.75" x2="-6060.98" y2="-15006.75" gradientTransform="translate(4577.11 -12394.28) scale(.73 -.84)" xlink:href="#Sfumatura_senza_nome_11"/>
    <linearGradient id="Sfumatura_senza_nome_11-29" data-name="Sfumatura senza nome 11" x1="-13888.72" y1="-12870.26" x2="-13691.67" y2="-12870.26" gradientTransform="translate(-10661.57 -9805.54) rotate(-90) scale(.73 -.84)" xlink:href="#Sfumatura_senza_nome_11"/>
    <linearGradient id="Sfumatura_senza_nome_11-30" data-name="Sfumatura senza nome 11" x1="-2350.32" y1="-14335.47" x2="-2153.27" y2="-14335.47" gradientTransform="translate(1970.5 -11830.63) scale(.8 -.84)" xlink:href="#Sfumatura_senza_nome_11"/>
    <linearGradient id="Sfumatura_senza_nome_11-31" data-name="Sfumatura senza nome 11" x1="-39481.63" y1="-9496.6" x2="-39284.58" y2="-9496.6" gradientTransform="translate(-7798.88 -8849.28) rotate(-90) scale(.23 -.84)" xlink:href="#Sfumatura_senza_nome_11"/>
    <linearGradient id="Sfumatura_senza_nome_11-32" data-name="Sfumatura senza nome 11" x1="-30254.25" y1="-6461.14" x2="-30057.21" y2="-6461.14" gradientTransform="translate(-5314.19 -10545.36) rotate(-90) scale(.36 -.84)" xlink:href="#Sfumatura_senza_nome_11"/>
    <linearGradient id="Sfumatura_senza_nome_11-33" data-name="Sfumatura senza nome 11" x1="5556.38" y1="-11935.06" x2="5665.12" y2="-11935.06" gradientTransform="translate(-2653.89 -9866.28) scale(.51 -.84)" xlink:href="#Sfumatura_senza_nome_11"/>
    <linearGradient id="Sfumatura_senza_nome_11-34" data-name="Sfumatura senza nome 11" x1="-9943.27" y1="-14755.45" x2="-9834.54" y2="-14755.45" gradientTransform="translate(5279.09 -12187.11) scale(.51 -.84)" xlink:href="#Sfumatura_senza_nome_11"/>
    <linearGradient id="Sfumatura_senza_nome_11-35" data-name="Sfumatura senza nome 11" x1="-19614.8" y1="-9835.45" x2="-19506.06" y2="-9835.45" gradientTransform="translate(-7974.46 -10355.78) rotate(-90) scale(.54 -.84)" xlink:href="#Sfumatura_senza_nome_11"/>
    <linearGradient id="Sfumatura_senza_nome_11-36" data-name="Sfumatura senza nome 11" x1="12574.85" y1="-12699.16" x2="12683.59" y2="-12699.16" gradientTransform="translate(-3396.53 -10398.65) scale(.29 -.84)" xlink:href="#Sfumatura_senza_nome_11"/>
    <linearGradient id="Sfumatura_senza_nome_11-37" data-name="Sfumatura senza nome 11" x1="6213.31" y1="-11682.96" x2="6322.05" y2="-11682.96" gradientTransform="translate(-2988.99 -9454.75) scale(.51 -.84)" xlink:href="#Sfumatura_senza_nome_11"/>
    <linearGradient id="Sfumatura_senza_nome_11-38" data-name="Sfumatura senza nome 11" x1="-8305.61" y1="-15322.75" x2="-8196.87" y2="-15322.75" gradientTransform="translate(2567.15 -12547.76) scale(.29 -.84)" xlink:href="#Sfumatura_senza_nome_11"/>
    <linearGradient id="Sfumatura_senza_nome_11-39" data-name="Sfumatura senza nome 11" x1="44.18" y1="-10283.66" x2="105.03" y2="-10283.66" gradientTransform="translate(0 -10022.17) scale(1 -1)" xlink:href="#Sfumatura_senza_nome_11"/>
    <linearGradient id="Sfumatura_senza_nome_11-40" data-name="Sfumatura senza nome 11" x1="125.81" y1="-10186.82" x2="186.66" y2="-10186.82" gradientTransform="translate(0 -10022.17) scale(1 -1)" xlink:href="#Sfumatura_senza_nome_11"/>
    <linearGradient id="Sfumatura_senza_nome_11-41" data-name="Sfumatura senza nome 11" x1="125.02" y1="-10381.11" x2="185.87" y2="-10381.11" gradientTransform="translate(0 -10022.17) scale(1 -1)" xlink:href="#Sfumatura_senza_nome_11"/>
    <linearGradient id="Sfumatura_senza_nome_11-42" data-name="Sfumatura senza nome 11" x1="230.8" y1="-10381.11" x2="291.65" y2="-10381.11" gradientTransform="translate(0 -10022.17) scale(1 -1)" xlink:href="#Sfumatura_senza_nome_11"/>
    <linearGradient id="Sfumatura_senza_nome_11-43" data-name="Sfumatura senza nome 11" x1="272.19" y1="-10283.66" x2="333.04" y2="-10283.66" gradientTransform="translate(0 -10022.17) scale(1 -1)" xlink:href="#Sfumatura_senza_nome_11"/>
    <linearGradient id="Sfumatura_senza_nome_11-44" data-name="Sfumatura senza nome 11" x1="230.8" y1="-10181.47" x2="291.65" y2="-10181.47" gradientTransform="translate(0 -10022.17) scale(1 -1)" xlink:href="#Sfumatura_senza_nome_11"/>
    <linearGradient id="Sfumatura_senza_nome_11-45" data-name="Sfumatura senza nome 11" x1="157.95" y1="-10294.84" x2="255.04" y2="-10294.84" gradientTransform="translate(0 -10022.17) scale(1 -1)" xlink:href="#Sfumatura_senza_nome_11"/>
  </defs>
  <g>
    <path class="cls-1" d="M332.67,814.54c-5.46.18-10.93.28-16.39.4-5.46.12-10.93.26-16.39.32l-16.39.24-16.39.13-16.39.1-16.39-.05-16.39-.24-16.39-.4-2.65-.07.07-2.51c.53-18.62,1.17-37.23,1.38-55.85.18-18.62.08-37.23-.26-55.85-.34-18.62-.91-37.23-1.33-55.85-.43-18.62-.55-37.23-.77-55.85-.18-18.62-.37-37.23-.35-55.85-.05-9.31.06-18.62.13-27.92l.11-13.96.19-13.96c.54-37.23,1.38-74.47,3.1-111.7h.73c1.72,37.23,2.55,74.47,3.1,111.7l.19,13.96.11,13.96c.07,9.31.18,18.62.13,27.92.03,18.62-.17,37.23-.35,55.85-.21,18.62-.34,37.23-.77,55.85-.42,18.62-.98,37.23-1.33,55.85-.33,18.62-.43,37.23-.26,55.85.21,18.62.85,37.23,1.38,55.85l-2.58-2.58,16.39-.4,16.39-.24,16.39-.05,16.39.1,16.39.13,16.39.24c5.46.06,10.93.2,16.39.32,5.46.12,10.93.22,16.39.4v4.18Z"/>
    <path class="cls-9" d="M376.66,812.45c-20.7-7.68-46.38-20.79-62.3-34.67l12.54,34.67-12.54,34.66c15.92-13.88,41.6-26.98,62.3-34.66Z"/>
  </g>
  <g>
    <polygon class="cls-8" points="381.32 255.21 387.32 255.05 387.32 260.46 381.32 260.3 381.32 255.21"/>
    <polygon class="cls-7" points="399.07 254.75 410.81 254.55 410.81 260.97 399.07 260.76 399.07 254.75"/>
    <polygon class="cls-4" points="422.55 254.36 434.29 254.26 434.29 261.25 422.55 261.16 422.55 254.36"/>
    <polygon class="cls-5" points="446.03 254.17 451.9 254.16 457.77 254.17 457.77 261.34 451.9 261.36 446.03 261.35 446.03 254.17"/>
    <path class="cls-6" d="M469.51,254.32c3.91.08,7.83.1,11.74.24v6.41c-3.91.13-7.83.16-11.74.24v-6.88Z"/>
    <polygon class="cls-2" points="492.99 254.89 504.73 255.3 504.73 260.21 492.99 260.62 492.99 254.89"/>
    <polygon class="cls-3" points="516.47 255.72 528.21 256.08 528.21 259.44 516.47 259.8 516.47 255.72"/>
    <polygon class="cls-11" points="539.95 256.34 545.82 256.45 551.69 256.49 551.69 259.03 545.82 259.06 539.95 259.18 539.95 256.34"/>
    <polygon class="cls-14" points="563.43 256.55 575.17 256.49 575.17 259.02 563.43 258.97 563.43 256.55"/>
    <path class="cls-13" d="M586.91,256.34c3.91-.05,7.83-.13,11.74-.23v3.28c-3.91-.1-7.83-.18-11.74-.23v-2.83Z"/>
    <polygon class="cls-15" points="610.39 255.82 622.13 255.47 622.13 260.04 610.39 259.7 610.39 255.82"/>
    <polygon class="cls-22" points="633.87 255.11 645.61 254.76 645.61 260.75 633.87 260.4 633.87 255.11"/>
    <polygon class="cls-12" points="657.35 254.48 669.09 254.27 669.09 261.24 657.35 261.03 657.35 254.48"/>
    <polygon class="cls-10" points="680.88 254.1 686.88 254.02 690.57 253.97 690.62 257.76 690.69 263.76 683.07 263.76 683.14 257.76 686.88 261.49 680.88 261.42 680.88 254.1"/>
    <polygon class="cls-19" points="690.84 275.87 690.97 287.99 682.79 287.99 682.91 275.87 690.84 275.87"/>
    <path class="cls-17" d="M691.09,300.1c.06,4.04.04,8.08.05,12.11h-8.52c0-4.04,0-8.08.05-12.11h8.42Z"/>
    <path class="cls-18" d="M691.16,324.33c.02,4.04,0,8.08-.05,12.12h-8.46c-.05-4.04-.06-8.08-.05-12.12h8.56Z"/>
    <polygon class="cls-35" points="691 348.56 690.89 360.68 682.87 360.68 682.76 348.56 691 348.56"/>
    <polygon class="cls-33" points="690.68 372.79 690.47 384.91 683.29 384.91 683.08 372.79 690.68 372.79"/>
    <polygon class="cls-34" points="690.2 397.02 689.91 409.14 683.85 409.14 683.56 397.02 690.2 397.02"/>
    <polygon class="cls-31" points="689.56 421.25 689.17 433.37 684.59 433.37 684.2 421.25 689.56 421.25"/>
    <polygon class="cls-30" points="688.72 445.48 688.21 457.6 685.55 457.6 685.04 445.48 688.72 445.48"/>
    <polygon class="cls-29" points="687.62 469.71 687.28 475.71 686.48 475.71 686.14 469.71 687.62 469.71"/>
    <path class="cls-32" d="M333.04,257.76c22.72,8.43,50.91,22.81,68.38,38.05l-13.76-38.05,13.76-38.04c-17.47,15.23-45.66,29.62-68.38,38.04Z"/>
  </g>
  <g>
    <path class="cls-46" d="M952.53,652.64v238.17c0,3.66-2.97,6.62-6.62,6.62H384.63c-3.66,0-6.62-2.97-6.62-6.62v-238.17c0-3.66,2.97-6.62,6.62-6.62h155.14v98.87c0,7.93,6.46,14.39,14.39,14.39h222.22c7.94,0,14.39-6.46,14.39-14.39v-98.87h155.14c3.66,0,6.62,2.97,6.62,6.62Z"/>
    <path class="cls-43" d="M830.67,541.64h-80.17v61.79c0,8.7-7.08,15.79-15.79,15.79h-138.87c-8.71,0-15.79-7.09-15.79-15.79v-61.79h-80.18c-3.65,0-6.62,2.97-6.62,6.62v342.55c0,3.65,2.97,6.62,6.62,6.62h330.8c3.66,0,6.62-2.97,6.62-6.62v-342.55c0-3.65-2.96-6.62-6.62-6.62Z"/>
    <path class="cls-48" d="M595.52,784.17h0c0,3.65,2.96,6.62,6.62,6.62h3.2c3.65,0,6.62,2.96,6.62,6.62v93.4c0,3.65,2.96,6.62,6.62,6.62h93.4c3.65,0,6.62-2.96,6.62-6.62v-93.4c0-3.65,2.96-6.62,6.62-6.62h3.2c3.65,0,6.62-2.96,6.62-6.62h0c0-3.65-2.96-6.62-6.62-6.62h-126.27c-3.65,0-6.62,2.96-6.62,6.62h0Z"/>
    <path class="cls-47" d="M734.71,475.71h-138.87c-2.28,0-4.14,1.85-4.14,4.13v123.58c0,2.28,1.86,4.13,4.14,4.13h138.87c2.28,0,4.13-1.85,4.13-4.13v-123.58c0-2.28-1.85-4.13-4.13-4.13ZM717.49,559.39c0,2.89-2.34,5.23-5.23,5.23h-18.78c-2.89,0-5.23,2.34-5.23,5.23v18.78c0,2.89-2.34,5.23-5.23,5.23h-35.5c-2.89,0-5.23-2.34-5.23-5.23v-18.78c0-2.89-2.34-5.23-5.23-5.23h-18.78c-2.89,0-5.23-2.34-5.23-5.23v-35.5c0-2.89,2.34-5.23,5.23-5.23h18.78c2.89,0,5.23-2.34,5.23-5.23v-18.78c0-2.89,2.34-5.23,5.23-5.23h35.5c2.89,0,5.23,2.34,5.23,5.23v18.78c0,2.89,2.34,5.23,5.23,5.23h18.78c2.89,0,5.23,2.34,5.23,5.23v35.5Z"/>
  </g>
  <g>
    <rect class="cls-44" x="73.22" y="204.74" width="79.19" height="13.32" transform="translate(-120.67 157.57) rotate(-48.93)"/>
    <rect class="cls-45" x="142.79" y="189.72" width="13.32" height="143.51"/>
    <rect class="cls-36" x="90.25" y="204.5" width="157.38" height="13.32" transform="translate(-79.23 103.73) rotate(-27.93)"/>
    <rect class="cls-37" x="171.61" y="186.8" width="13.32" height="44.83" transform="translate(-71.44 94.33) rotate(-24.86)"/>
    <rect class="cls-38" x="106.51" y="275.15" width="13.32" height="70.38" transform="translate(-179.99 158.09) rotate(-42.52)"/>
    <rect class="cls-39" x="180.4" y="152.51" width="55.93" height="13.32" transform="translate(-10.01 14.04) rotate(-3.77)"/>
    <rect class="cls-40" x="208.74" y="200.81" width="55.93" height="13.32" transform="translate(-55.41 324.69) rotate(-63.1)"/>
    <rect class="cls-41" x="280.66" y="178.86" width="13.32" height="58.23" transform="translate(-56.42 120.49) rotate(-21.62)"/>
    <rect class="cls-42" x="249.14" y="261.98" width="31.01" height="13.32" transform="translate(-39.2 45.29) rotate(-9.11)"/>
    <rect class="cls-20" x="180.22" y="352.28" width="55.93" height="13.32"/>
    <rect class="cls-16" x="159.14" y="316.69" width="31.01" height="13.32" transform="translate(-189.64 274.9) rotate(-54.05)"/>
    <circle class="cls-21" cx="74.6" cy="261.49" r="30.42"/>
    <circle class="cls-27" cx="156.23" cy="164.65" r="30.42"/>
    <circle class="cls-26" cx="155.44" cy="358.94" r="30.42"/>
    <circle class="cls-23" cx="261.23" cy="358.94" r="30.42"/>
    <circle class="cls-28" cx="302.62" cy="261.49" r="30.42"/>
    <circle class="cls-25" cx="261.23" cy="159.29" r="30.42"/>
    <circle class="cls-24" cx="206.5" cy="272.67" r="48.54"/>
  </g>
</svg>