<?xml version="1.0" encoding="UTF-8"?>
<svg id="Livello_1" data-name="Livello 1" xmlns="http://www.w3.org/2000/svg" xmlns:xlink="http://www.w3.org/1999/xlink" viewBox="0 0 1000 1000">
  <defs>
    <style>
      .cls-1 {
        fill: url(#Sfumatura_senza_nome_11);
      }

      .cls-2 {
        fill: #00b4d8;
      }

      .cls-3 {
        fill: url(#Sfumatura_senza_nome_11-8);
      }

      .cls-4 {
        fill: url(#Sfumatura_senza_nome_11-9);
      }

      .cls-5 {
        fill: url(#Sfumatura_senza_nome_11-5);
      }

      .cls-6 {
        fill: url(#Sfumatura_senza_nome_11-6);
      }

      .cls-7 {
        fill: url(#Sfumatura_senza_nome_11-7);
      }

      .cls-8 {
        fill: url(#Sfumatura_senza_nome_11-4);
      }

      .cls-9 {
        fill: url(#Sfumatura_senza_nome_11-3);
      }

      .cls-10 {
        fill: url(#Sfumatura_senza_nome_11-2);
      }

      .cls-11 {
        fill: url(#Sfumatura_senza_nome_11-16);
      }

      .cls-12 {
        fill: url(#Sfumatura_senza_nome_11-10);
      }

      .cls-13 {
        fill: url(#Sfumatura_senza_nome_11-15);
      }

      .cls-14 {
        fill: url(#Sfumatura_senza_nome_11-12);
      }

      .cls-15 {
        fill: url(#Sfumatura_senza_nome_11-11);
      }

      .cls-16 {
        fill: url(#Sfumatura_senza_nome_11-13);
      }

      .cls-17 {
        fill: url(#Sfumatura_senza_nome_11-18);
      }

      .cls-18 {
        fill: url(#Sfumatura_senza_nome_11-19);
      }

      .cls-19 {
        fill: url(#Sfumatura_senza_nome_11-17);
      }

      .cls-20 {
        fill: url(#Sfumatura_senza_nome_11-14);
      }
    </style>
    <linearGradient id="Sfumatura_senza_nome_11" data-name="Sfumatura senza nome 11" x1="98.94" y1="596.51" x2="367.77" y2="596.51" gradientUnits="userSpaceOnUse">
      <stop offset="0" stop-color="#90e0ef"/>
      <stop offset="1" stop-color="#00b4d8"/>
    </linearGradient>
    <linearGradient id="Sfumatura_senza_nome_11-2" data-name="Sfumatura senza nome 11" x1="-2595.59" y1="-740.2" x2="-2374.89" y2="-740.2" gradientTransform="translate(2271.79 -376.65) scale(.73 -.84)" xlink:href="#Sfumatura_senza_nome_11"/>
    <linearGradient id="Sfumatura_senza_nome_11-3" data-name="Sfumatura senza nome 11" x1="887.79" y1="3219.07" x2="1287.73" y2="3219.07" gradientTransform="translate(3235.75 1140.49) rotate(-90) scale(.73 -.84)" xlink:href="#Sfumatura_senza_nome_11"/>
    <linearGradient id="Sfumatura_senza_nome_11-4" data-name="Sfumatura senza nome 11" x1="-2083.72" y1="-3566.85" x2="-1683.78" y2="-3566.85" gradientTransform="translate(2078.55 -2751.5) scale(.8 -.84)" xlink:href="#Sfumatura_senza_nome_11"/>
    <linearGradient id="Sfumatura_senza_nome_11-5" data-name="Sfumatura senza nome 11" x1="2091.04" y1="4241.07" x2="2490.98" y2="4241.07" gradientTransform="translate(4152.72 766.86) rotate(-90) scale(.23 -.84)" xlink:href="#Sfumatura_senza_nome_11"/>
    <linearGradient id="Sfumatura_senza_nome_11-6" data-name="Sfumatura senza nome 11" x1="7940.17" y1="4417.68" x2="8340.11" y2="4417.68" gradientTransform="translate(4168.93 3377.13) rotate(-90) scale(.36 -.84)" xlink:href="#Sfumatura_senza_nome_11"/>
    <linearGradient id="Sfumatura_senza_nome_11-7" data-name="Sfumatura senza nome 11" x1="-4994.47" y1="-6463.59" x2="-4773.77" y2="-6463.59" gradientTransform="translate(3140.63 -5290.29) scale(.51 -.84)" xlink:href="#Sfumatura_senza_nome_11"/>
    <linearGradient id="Sfumatura_senza_nome_11-8" data-name="Sfumatura senza nome 11" x1="-4640.95" y1="821.03" x2="-4420.25" y2="821.03" gradientTransform="translate(3017.49 926.82) scale(.51 -.84)" xlink:href="#Sfumatura_senza_nome_11"/>
    <linearGradient id="Sfumatura_senza_nome_11-9" data-name="Sfumatura senza nome 11" x1="3940" y1="4215.49" x2="4160.7" y2="4215.49" gradientTransform="translate(4352.56 2423.1) rotate(-90) scale(.54 -.84)" xlink:href="#Sfumatura_senza_nome_11"/>
    <linearGradient id="Sfumatura_senza_nome_11-10" data-name="Sfumatura senza nome 11" x1="-13928.12" y1="-6105.98" x2="-13707.42" y2="-6105.98" gradientTransform="translate(4775.31 -4767.71) scale(.29 -.84)" xlink:href="#Sfumatura_senza_nome_11"/>
    <linearGradient id="Sfumatura_senza_nome_11-11" data-name="Sfumatura senza nome 11" x1="-4656.94" y1="-7367.97" x2="-4436.24" y2="-7367.97" gradientTransform="translate(2968.36 -5644.51) scale(.51 -.84)" xlink:href="#Sfumatura_senza_nome_11"/>
    <linearGradient id="Sfumatura_senza_nome_11-12" data-name="Sfumatura senza nome 11" x1="-14626.47" y1="-585.39" x2="-14405.77" y2="-585.39" gradientTransform="translate(4791.82 -19.39) scale(.29 -.84)" xlink:href="#Sfumatura_senza_nome_11"/>
    <linearGradient id="Sfumatura_senza_nome_11-13" data-name="Sfumatura senza nome 11" x1="318.07" y1="-6227.4" x2="441.57" y2="-6227.4" gradientTransform="translate(0 -5880.61) scale(1 -1)" xlink:href="#Sfumatura_senza_nome_11"/>
    <linearGradient id="Sfumatura_senza_nome_11-14" data-name="Sfumatura senza nome 11" x1="483.75" y1="-6030.85" x2="607.25" y2="-6030.85" gradientTransform="translate(0 -5880.61) scale(1 -1)" xlink:href="#Sfumatura_senza_nome_11"/>
    <linearGradient id="Sfumatura_senza_nome_11-15" data-name="Sfumatura senza nome 11" x1="482.14" y1="-6425.19" x2="605.64" y2="-6425.19" gradientTransform="translate(0 -5880.61) scale(1 -1)" xlink:href="#Sfumatura_senza_nome_11"/>
    <linearGradient id="Sfumatura_senza_nome_11-16" data-name="Sfumatura senza nome 11" x1="696.84" y1="-6425.19" x2="820.34" y2="-6425.19" gradientTransform="translate(0 -5880.61) scale(1 -1)" xlink:href="#Sfumatura_senza_nome_11"/>
    <linearGradient id="Sfumatura_senza_nome_11-17" data-name="Sfumatura senza nome 11" x1="780.85" y1="-6227.4" x2="904.35" y2="-6227.4" gradientTransform="translate(0 -5880.61) scale(1 -1)" xlink:href="#Sfumatura_senza_nome_11"/>
    <linearGradient id="Sfumatura_senza_nome_11-18" data-name="Sfumatura senza nome 11" x1="696.84" y1="-6019.98" x2="820.34" y2="-6019.98" gradientTransform="translate(0 -5880.61) scale(1 -1)" xlink:href="#Sfumatura_senza_nome_11"/>
    <linearGradient id="Sfumatura_senza_nome_11-19" data-name="Sfumatura senza nome 11" x1="548.99" y1="-6250.1" x2="746.04" y2="-6250.1" gradientTransform="translate(0 -5880.61) scale(1 -1)" xlink:href="#Sfumatura_senza_nome_11"/>
  </defs>
  <path class="cls-2" d="M432.59,960.04c-2.89,1.43-9.11,4.98-12.08,6.02-7.3,2.58-15.97-.55-20.01-7.16-10.93-20.75-38.97-73.54-50.49-95.1-19.23-36.03-48.62-91.01-67.11-126.86,0,0,3.53,1.36,3.53,1.36-8.83,3.33-17.99,5.76-27.28,7.35-111.71,18.64-202.19-87.99-167.99-195.37,30.71-96.09,146.51-135.68,229.32-77.64,67.17,46.49,85.05,139.74,39.48,207.61-9.16,13.69-20.69,26.06-33.73,36.1,0,0,.85-3.86.85-3.86,29.19,57.14,64.43,128.51,93.47,186.1,0,0,15.73,30.94,15.73,30.94,2.51,5.19,6.22,10.3,5.61,16.35-.33,5.93-4.01,11.46-9.29,14.16h0ZM432.3,959.47c7.76-3.91,11.2-14.11,7.21-21.86-12.18-23.69-39.92-75.56-52.76-99.69-19.88-37.12-47.14-88.05-66.35-124.84,8.72-6.79,16.81-14.43,23.93-22.86,28.68-33.7,40.25-80.76,31.01-123.99-19.9-95.63-127.91-144.68-213.44-97.86-67.16,35.93-95.28,121.29-62.2,190,32.4,69.54,116.09,102.05,187.11,73.71,30.58,59.28,67.94,134.67,98.04,194.48,4.53,8.73,11.65,23.27,16.32,31.91,3.81,6.3,12.13,9.38,19.12,6.92,2.81-.92,9.23-4.62,12.01-5.93h0Z"/>
  <circle class="cls-1" cx="233.36" cy="596.51" r="134.41"/>
  <g>
    <rect class="cls-10" x="377.01" y="231.61" width="160.73" height="27.03" transform="translate(-27.91 428.9) rotate(-48.93)"/>
    <rect class="cls-9" x="518.21" y="201.13" width="27.03" height="291.27"/>
    <rect class="cls-8" x="411.57" y="231.14" width="319.43" height="27.03" transform="translate(-48.05 296.08) rotate(-27.93)"/>
    <rect class="cls-5" x="576.7" y="195.21" width="27.03" height="90.99" transform="translate(-46.5 270.43) rotate(-24.86)"/>
    <rect class="cls-6" x="444.57" y="374.53" width="27.03" height="142.85" transform="translate(-180.94 426.86) rotate(-42.52)"/>
    <rect class="cls-7" x="594.54" y="125.6" width="113.52" height="27.03" transform="translate(-7.74 43.12) rotate(-3.77)"/>
    <rect class="cls-3" x="652.06" y="223.64" width="113.52" height="27.03" transform="translate(176.63 761.98) rotate(-63.1)"/>
    <rect class="cls-4" x="798.03" y="179.1" width="27.03" height="118.2" transform="translate(-30.67 315.77) rotate(-21.62)"/>
    <rect class="cls-12" x="734.06" y="347.79" width="62.94" height="27.03" transform="translate(-47.55 125.76) rotate(-9.11)"/>
    <rect class="cls-15" x="594.17" y="531.07" width="113.52" height="27.03"/>
    <rect class="cls-14" x="551.41" y="458.83" width="62.94" height="27.03" transform="translate(-141.69 666.9) rotate(-54.05)"/>
    <circle class="cls-16" cx="379.82" cy="346.8" r="61.75"/>
    <circle class="cls-20" cx="545.5" cy="150.24" r="61.75"/>
    <circle class="cls-13" cx="543.89" cy="544.58" r="61.75"/>
    <circle class="cls-11" cx="758.59" cy="544.58" r="61.75"/>
    <circle class="cls-19" cx="842.6" cy="346.8" r="61.75"/>
    <circle class="cls-17" cx="758.59" cy="139.38" r="61.75"/>
    <circle class="cls-18" cx="647.51" cy="369.49" r="98.53"/>
  </g>
</svg>