<?xml version="1.0" encoding="UTF-8"?>
<svg id="Livello_1" data-name="Livello 1" xmlns="http://www.w3.org/2000/svg" xmlns:xlink="http://www.w3.org/1999/xlink" viewBox="0 0 1000 1000">
  <defs>
    <style>
      .cls-1 {
        fill: url(#Sfumatura_senza_nome_11);
      }

      .cls-2 {
        fill: url(#Sfumatura_senza_nome_11-5);
      }

      .cls-3 {
        fill: url(#Sfumatura_senza_nome_11-6);
      }

      .cls-4 {
        fill: url(#Sfumatura_senza_nome_11-7);
      }

      .cls-5 {
        fill: url(#Sfumatura_senza_nome_11-4);
      }

      .cls-6 {
        fill: url(#Sfumatura_senza_nome_11-3);
      }

      .cls-7 {
        fill: url(#Sfumatura_senza_nome_11-2);
      }

      .cls-8 {
        fill: #50b0d3;
      }

      .cls-9 {
        fill: url(#Sfumatura_senza_nome_113-13);
      }

      .cls-10 {
        fill: url(#Sfumatura_senza_nome_113-18);
      }

      .cls-11 {
        fill: url(#Sfumatura_senza_nome_113-19);
      }

      .cls-12 {
        fill: url(#Sfumatura_senza_nome_113-11);
      }

      .cls-13 {
        fill: url(#Sfumatura_senza_nome_113-12);
      }

      .cls-14 {
        fill: url(#Sfumatura_senza_nome_113-10);
      }

      .cls-15 {
        fill: url(#Sfumatura_senza_nome_113-15);
      }

      .cls-16 {
        fill: url(#Sfumatura_senza_nome_113-16);
      }

      .cls-17 {
        fill: url(#Sfumatura_senza_nome_113-14);
      }

      .cls-18 {
        fill: url(#Sfumatura_senza_nome_113-17);
      }

      .cls-19 {
        fill: url(#Sfumatura_senza_nome_113-23);
      }

      .cls-20 {
        fill: url(#Sfumatura_senza_nome_113-22);
      }

      .cls-21 {
        fill: url(#Sfumatura_senza_nome_113-24);
      }

      .cls-22 {
        fill: url(#Sfumatura_senza_nome_113-21);
      }

      .cls-23 {
        fill: url(#Sfumatura_senza_nome_113-20);
      }

      .cls-24 {
        fill: url(#Sfumatura_senza_nome_113-4);
      }

      .cls-25 {
        fill: url(#Sfumatura_senza_nome_113-3);
      }

      .cls-26 {
        fill: url(#Sfumatura_senza_nome_113-2);
      }

      .cls-27 {
        fill: url(#Sfumatura_senza_nome_113-5);
      }

      .cls-28 {
        fill: url(#Sfumatura_senza_nome_113-6);
      }

      .cls-29 {
        fill: url(#Sfumatura_senza_nome_113-8);
      }

      .cls-30 {
        fill: url(#Sfumatura_senza_nome_113-7);
      }

      .cls-31 {
        fill: url(#Sfumatura_senza_nome_113-9);
      }

      .cls-32 {
        fill: url(#Sfumatura_senza_nome_6);
      }

      .cls-33 {
        fill: url(#Sfumatura_senza_nome_113);
      }
    </style>
    <linearGradient id="Sfumatura_senza_nome_11" data-name="Sfumatura senza nome 11" x1="480.39" y1="493.64" x2="491.34" y2="493.64" gradientUnits="userSpaceOnUse">
      <stop offset="0" stop-color="#90e0ef"/>
      <stop offset="1" stop-color="#00b4d8"/>
    </linearGradient>
    <linearGradient id="Sfumatura_senza_nome_11-2" data-name="Sfumatura senza nome 11" x1="14946.03" y1="3079.7" x2="14956.97" y2="3079.7" gradientTransform="translate(-14465.64 -2490.28)" xlink:href="#Sfumatura_senza_nome_11"/>
    <linearGradient id="Sfumatura_senza_nome_113" data-name="Sfumatura senza nome 113" x1="475.96" y1="589.42" x2="495.77" y2="589.42" gradientUnits="userSpaceOnUse">
      <stop offset="0" stop-color="#0077b6"/>
      <stop offset="1" stop-color="#03045e"/>
    </linearGradient>
    <linearGradient id="Sfumatura_senza_nome_11-3" data-name="Sfumatura senza nome 11" x1="359.91" y1="413.19" x2="612.5" y2="413.19" xlink:href="#Sfumatura_senza_nome_11"/>
    <linearGradient id="Sfumatura_senza_nome_113-2" data-name="Sfumatura senza nome 113" x1="380.78" y1="413.19" x2="397.44" y2="413.19" xlink:href="#Sfumatura_senza_nome_113"/>
    <linearGradient id="Sfumatura_senza_nome_113-3" data-name="Sfumatura senza nome 113" x1="415.53" y1="413.19" x2="432.18" y2="413.19" xlink:href="#Sfumatura_senza_nome_113"/>
    <linearGradient id="Sfumatura_senza_nome_113-4" data-name="Sfumatura senza nome 113" x1="450.28" y1="413.19" x2="466.93" y2="413.19" xlink:href="#Sfumatura_senza_nome_113"/>
    <linearGradient id="Sfumatura_senza_nome_113-5" data-name="Sfumatura senza nome 113" x1="510.62" y1="404.86" x2="530.92" y2="404.86" xlink:href="#Sfumatura_senza_nome_113"/>
    <linearGradient id="Sfumatura_senza_nome_113-6" data-name="Sfumatura senza nome 113" x1="510.62" y1="421.51" x2="530.92" y2="421.51" xlink:href="#Sfumatura_senza_nome_113"/>
    <linearGradient id="Sfumatura_senza_nome_113-7" data-name="Sfumatura senza nome 113" x1="538.95" y1="404.86" x2="589.11" y2="404.86" xlink:href="#Sfumatura_senza_nome_113"/>
    <linearGradient id="Sfumatura_senza_nome_113-8" data-name="Sfumatura senza nome 113" x1="538.95" y1="421.51" x2="589.11" y2="421.51" xlink:href="#Sfumatura_senza_nome_113"/>
    <linearGradient id="Sfumatura_senza_nome_11-4" data-name="Sfumatura senza nome 11" x1="359.57" y1="469.04" x2="612.16" y2="469.04" xlink:href="#Sfumatura_senza_nome_11"/>
    <linearGradient id="Sfumatura_senza_nome_113-9" data-name="Sfumatura senza nome 113" x1="380.44" y1="469.04" x2="397.09" y2="469.04" xlink:href="#Sfumatura_senza_nome_113"/>
    <linearGradient id="Sfumatura_senza_nome_113-10" data-name="Sfumatura senza nome 113" x1="415.19" y1="469.04" x2="431.84" y2="469.04" xlink:href="#Sfumatura_senza_nome_113"/>
    <linearGradient id="Sfumatura_senza_nome_113-11" data-name="Sfumatura senza nome 113" x1="449.93" y1="469.04" x2="466.59" y2="469.04" xlink:href="#Sfumatura_senza_nome_113"/>
    <linearGradient id="Sfumatura_senza_nome_113-12" data-name="Sfumatura senza nome 113" x1="510.28" y1="460.71" x2="530.57" y2="460.71" xlink:href="#Sfumatura_senza_nome_113"/>
    <linearGradient id="Sfumatura_senza_nome_113-13" data-name="Sfumatura senza nome 113" x1="510.28" y1="477.36" x2="530.57" y2="477.36" xlink:href="#Sfumatura_senza_nome_113"/>
    <linearGradient id="Sfumatura_senza_nome_113-14" data-name="Sfumatura senza nome 113" x1="538.6" y1="460.71" x2="588.77" y2="460.71" xlink:href="#Sfumatura_senza_nome_113"/>
    <linearGradient id="Sfumatura_senza_nome_113-15" data-name="Sfumatura senza nome 113" x1="538.6" y1="477.36" x2="588.77" y2="477.36" xlink:href="#Sfumatura_senza_nome_113"/>
    <linearGradient id="Sfumatura_senza_nome_11-5" data-name="Sfumatura senza nome 11" x1="359.91" y1="524.88" x2="612.5" y2="524.88" xlink:href="#Sfumatura_senza_nome_11"/>
    <linearGradient id="Sfumatura_senza_nome_113-16" data-name="Sfumatura senza nome 113" x1="380.78" y1="524.88" x2="397.44" y2="524.88" xlink:href="#Sfumatura_senza_nome_113"/>
    <linearGradient id="Sfumatura_senza_nome_113-17" data-name="Sfumatura senza nome 113" x1="415.53" y1="524.88" x2="432.18" y2="524.88" xlink:href="#Sfumatura_senza_nome_113"/>
    <linearGradient id="Sfumatura_senza_nome_113-18" data-name="Sfumatura senza nome 113" x1="450.28" y1="524.88" x2="466.93" y2="524.88" xlink:href="#Sfumatura_senza_nome_113"/>
    <linearGradient id="Sfumatura_senza_nome_113-19" data-name="Sfumatura senza nome 113" x1="510.62" y1="516.56" x2="530.92" y2="516.56" xlink:href="#Sfumatura_senza_nome_113"/>
    <linearGradient id="Sfumatura_senza_nome_113-20" data-name="Sfumatura senza nome 113" x1="510.62" y1="533.21" x2="530.92" y2="533.21" xlink:href="#Sfumatura_senza_nome_113"/>
    <linearGradient id="Sfumatura_senza_nome_113-21" data-name="Sfumatura senza nome 113" x1="538.95" y1="516.56" x2="589.11" y2="516.56" xlink:href="#Sfumatura_senza_nome_113"/>
    <linearGradient id="Sfumatura_senza_nome_113-22" data-name="Sfumatura senza nome 113" x1="538.95" y1="533.21" x2="589.11" y2="533.21" xlink:href="#Sfumatura_senza_nome_113"/>
    <linearGradient id="Sfumatura_senza_nome_113-23" data-name="Sfumatura senza nome 113" x1="390.45" y1="768.03" x2="581.62" y2="768.03" xlink:href="#Sfumatura_senza_nome_113"/>
    <linearGradient id="Sfumatura_senza_nome_6" data-name="Sfumatura senza nome 6" x1="265.72" y1="-6433.79" x2="708.55" y2="-6433.79" gradientTransform="translate(0 -5880.61) scale(1 -1)" gradientUnits="userSpaceOnUse">
      <stop offset="0" stop-color="#a1ddec"/>
      <stop offset="1" stop-color="#50b0d3"/>
    </linearGradient>
    <linearGradient id="Sfumatura_senza_nome_11-6" data-name="Sfumatura senza nome 11" x1="401.07" y1="233.46" x2="590.47" y2="233.46" xlink:href="#Sfumatura_senza_nome_11"/>
    <linearGradient id="Sfumatura_senza_nome_11-7" data-name="Sfumatura senza nome 11" x1="401.07" y1="233.46" x2="590.47" y2="233.46" xlink:href="#Sfumatura_senza_nome_11"/>
    <linearGradient id="Sfumatura_senza_nome_113-24" data-name="Sfumatura senza nome 113" x1="602.11" x2="885.87" xlink:href="#Sfumatura_senza_nome_113"/>
  </defs>
  <g>
    <rect class="cls-1" x="480.39" y="397.86" width="10.95" height="191.56" rx="3.24" ry="3.24"/>
    <rect class="cls-7" x="480.39" y="493.64" width="10.95" height="191.56" rx="3.24" ry="3.24" transform="translate(1075.29 103.56) rotate(90)"/>
    <circle class="cls-33" cx="485.86" cy="589.42" r="9.91"/>
  </g>
  <g>
    <rect class="cls-6" x="359.91" y="389.04" width="252.6" height="48.3" rx="12.37" ry="12.37"/>
    <circle class="cls-26" cx="389.11" cy="413.19" r="8.33"/>
    <circle class="cls-25" cx="423.86" cy="413.19" r="8.33"/>
    <circle class="cls-24" cx="458.6" cy="413.19" r="8.33"/>
    <rect class="cls-27" x="510.62" y="400.42" width="20.29" height="8.88" rx="4.44" ry="4.44"/>
    <rect class="cls-28" x="510.62" y="417.08" width="20.29" height="8.88" rx="4.44" ry="4.44"/>
    <rect class="cls-30" x="538.95" y="400.42" width="50.17" height="8.88" rx="4.44" ry="4.44"/>
    <rect class="cls-29" x="538.95" y="417.08" width="50.17" height="8.88" rx="4.44" ry="4.44"/>
  </g>
  <g>
    <rect class="cls-5" x="359.57" y="444.89" width="252.6" height="48.3" rx="12.37" ry="12.37"/>
    <circle class="cls-31" cx="388.77" cy="469.04" r="8.33"/>
    <circle class="cls-14" cx="423.51" cy="469.04" r="8.33"/>
    <circle class="cls-12" cx="458.26" cy="469.04" r="8.33"/>
    <rect class="cls-13" x="510.28" y="456.27" width="20.29" height="8.88" rx="4.44" ry="4.44"/>
    <rect class="cls-9" x="510.28" y="472.92" width="20.29" height="8.88" rx="4.44" ry="4.44"/>
    <rect class="cls-17" x="538.6" y="456.27" width="50.17" height="8.88" rx="4.44" ry="4.44"/>
    <rect class="cls-15" x="538.6" y="472.92" width="50.17" height="8.88" rx="4.44" ry="4.44"/>
  </g>
  <g>
    <rect class="cls-2" x="359.91" y="500.74" width="252.6" height="48.3" rx="12.37" ry="12.37"/>
    <circle class="cls-16" cx="389.11" cy="524.88" r="8.33"/>
    <circle class="cls-18" cx="423.86" cy="524.88" r="8.33"/>
    <circle class="cls-10" cx="458.6" cy="524.88" r="8.33"/>
    <rect class="cls-11" x="510.62" y="512.12" width="20.29" height="8.88" rx="4.44" ry="4.44"/>
    <rect class="cls-23" x="510.62" y="528.77" width="20.29" height="8.88" rx="4.44" ry="4.44"/>
    <rect class="cls-22" x="538.95" y="512.12" width="50.17" height="8.88" rx="4.44" ry="4.44"/>
    <rect class="cls-20" x="538.95" y="528.77" width="50.17" height="8.88" rx="4.44" ry="4.44"/>
  </g>
  <polygon class="cls-19" points="556.03 847.17 418.72 848.14 390.45 687.91 581.62 689.33 556.03 847.17"/>
  <path class="cls-8" d="M636.8,604.82c.15,9.01-7.55,17.11-16.56,17.4-2.37.18-6.19,0-8.63.1-11.48.16-22.95.22-34.43.48-74.25,1.67-148.55,3.5-222.82,2.06-8.94-.24-17.12-7.06-18.79-15.86-.75-2.9-.17-10.38-.23-13.47,1.17-56.45,1.64-115.78,1.03-172.15-.19-11.14-.51-40.19-.7-51.65-.24-10.58,8.9-19.64,19.46-19.57,83.61-1.24,173.48-1.74,257.16-1.61l4.3.02h2.15s.54.01.54.01c10.74-.05,20.32,8.54,21.1,19.32.19,19.58-.34,43.14-.61,62.76-1.11,56.4-2.99,115.7-2.97,172.15h0ZM636,604.82c0-56.47-1.84-115.74-2.97-172.15-.4-18.65-.56-41.63-.69-60.25.31-7.31-5.76-13.54-13.07-13.44h-2.69c-84.8.21-175.63-.34-260.38-1.56-8.41-.72-16.02,5.75-16.15,14.33l-.47,34.43c-.07,8.61-.37,25.83-.36,34.43-.46,54.04.19,111.37,1.42,165.46.65,6.9,6.97,12.64,13.9,12.58,4.18-.01,11.75-.15,16.04-.19,80.35-1.29,160.68,1.77,241.02,2.78,4.25-.08,8.58.52,12.69-.69,6.76-2.04,11.74-8.63,11.7-15.72h0Z"/>
  <path class="cls-32" d="M700.03,259.2h-99.56v53.79c0,8.45-6.87,15.32-15.32,15.32h-178.75c-8.45,0-15.33-6.87-15.33-15.32v-53.79h-116.83c-4.7,0-8.52,3.82-8.52,8.52v570.93c0,4.7,3.82,8.52,8.52,8.52h144.56v-128.49c-.01-4.71-3.83-8.52-8.53-8.52-5.83.83-12.73-1.67-12.64-8.52,0-2.36.95-4.48,2.5-6.03s3.67-2.49,6.02-2.49h162.53c4.71,0,8.52,3.82,8.52,8.52.07,6.87-6.8,9.33-12.64,8.52-4.71,0-8.52,3.82-8.52,8.52v128.49h143.99c4.71,0,8.52-3.82,8.52-8.52V267.72c0-4.7-3.81-8.52-8.52-8.52ZM649.35,615.22c0,10.21-8.3,18.52-18.52,18.52h-286.04c-10.21,0-18.52-8.31-18.52-18.52v-254.54c0-10.2,8.31-18.51,18.52-18.51h286.04c10.22,0,18.52,8.31,18.52,18.51v254.54Z"/>
  <path class="cls-8" d="M860.45,836.53v-2.99c.05-55.41,0-112.15-.3-167.5-.31-40-.32-93.32-.87-133.11.03-1.81-.23-3.7-1.03-5.35-1.8-4.07-6.24-6.54-10.61-6.26-46.15.46-92.98.97-139.09,1.84v.86c31.91.6,63.81,1.01,95.72,1.39,10.62.16,31.6.3,41.88.44h1.5s.74.01.74.01c3.99.08,6.38,3.43,6.12,7.11-.17,22.24-.52,62.72-.63,85.25-.4,70.89-.61,144.56-.53,215.36v4.49c.34,2.87-2.02,5.58-4.87,5.63h-2.56c-93.08.31-196.83,1.88-289.91,2.18-95.01-.35-333.98-3.12-428.44-2.86-1.12.05-2.36-.08-3.28-.78-1.49-.95-1.97-2.75-1.88-4.41-.22-96.54-.83-194.49-1.68-290.96l-.11-12c.05-1.76-.28-3.46.38-5.08.52-1.36,1.54-2.54,2.84-3.26.99-.57,2.18-.78,3.3-.78l1.5-.02c45.77-.47,92.24-1.03,137.98-1.75v-.8c-32-.55-63.99-.87-95.99-1.3-10.62-.08-31.71-.4-41.99-.45-2.32-.1-4.82.02-6.88,1.19-2.23,1.17-4.03,3.14-4.99,5.49-.94,2.11-.81,4.55-.83,6.76-.72,75.92-1.22,152.07-1.55,227.97-.08,15.57-.18,57.02-.24,71.99v3c-.46,7.94,6.12,13.89,13.43,13.53,94.6.42,333.33-2.69,428.42-2.88,94.22.27,198.95,1.99,293.15,2.18,6.5-.26,11.64-6.22,11.3-12.63v-1.5Z"/>
  <path class="cls-3" d="M585.15,148.6h-178.75c-2.94,0-5.33,2.38-5.33,5.32v159.07c0,2.94,2.39,5.32,5.33,5.32h178.75c2.94,0,5.32-2.38,5.32-5.32v-159.07c0-2.94-2.38-5.32-5.32-5.32ZM562.98,256.31c0,1.03-.23,2.01-.66,2.89-1.07,2.27-3.39,3.84-6.07,3.84h-24.18c-3.71,0-6.73,3.01-6.73,6.73v24.17c0,3.72-3.01,6.73-6.73,6.73h-45.7c-3.71,0-6.73-3.01-6.73-6.73v-24.17c0-3.72-3.01-6.73-6.72-6.73h-24.18c-2.68,0-5-1.57-6.07-3.84-.43-.88-.66-1.86-.66-2.89v-45.7c0-3.72,3.01-6.73,6.73-6.73h24.18c3.71,0,6.72-3.01,6.72-6.73v-24.18c0-3.71,3.02-6.73,6.73-6.73h45.7c3.72,0,6.73,3.02,6.73,6.73v24.18c0,3.72,3.02,6.73,6.73,6.73h24.18c3.72,0,6.73,3.01,6.73,6.73v45.7Z"/>
  <path class="cls-4" d="M585.15,148.6h-178.75c-2.94,0-5.33,2.38-5.33,5.32v159.07c0,2.94,2.39,5.32,5.33,5.32h178.75c2.94,0,5.32-2.38,5.32-5.32v-159.07c0-2.94-2.38-5.32-5.32-5.32ZM562.98,256.31c0,1.03-.23,2.01-.66,2.89-1.07,2.27-3.39,3.84-6.07,3.84h-24.18c-3.71,0-6.73,3.01-6.73,6.73v24.17c0,3.72-3.01,6.73-6.73,6.73h-45.7c-3.71,0-6.73-3.01-6.73-6.73v-24.17c0-3.72-3.01-6.73-6.72-6.73h-24.18c-2.68,0-5-1.57-6.07-3.84-.43-.88-.66-1.86-.66-2.89v-45.7c0-3.72,3.01-6.73,6.73-6.73h24.18c3.71,0,6.72-3.01,6.72-6.73v-24.18c0-3.71,3.02-6.73,6.73-6.73h45.7c3.72,0,6.73,3.02,6.73,6.73v24.18c0,3.72,3.02,6.73,6.73,6.73h24.18c3.72,0,6.73,3.01,6.73,6.73v45.7Z"/>
  <path class="cls-21" d="M704.54,618.92c30.41-42.28,64.14-85.08,104.89-117.9,14.55-11.72,46.04-34.06,64.47-35.47,6.85-.53,13.16,1.06,11.77,9.19-1.51,8.81-26.23,27.51-33.71,34.63-50.57,48.15-91.43,111.74-121.45,174.54-3.05,6.38-8.57,23.01-13.31,26.67-5.64,4.35-13.48,3.47-18.4-1.58-5.62-5.77-12.78-19.84-17.89-27.25-16.91-24.55-40.39-56.91-65.19-73.45-7.46-4.98-17.38-6.17-12.17-17.8,2.98-6.65,10.74-14.2,17.04-17.78,33.81-19.21,62.77,23.08,81.4,45.38l2.54.83Z"/>
</svg>