<?xml version="1.0" encoding="UTF-8"?>
<svg id="Livello_1" data-name="Livello 1" xmlns="http://www.w3.org/2000/svg" xmlns:xlink="http://www.w3.org/1999/xlink" viewBox="0 0 2000 2000">
  <defs>
    <style>
      .cls-1 {
        stroke: url(#Sfumatura_senza_nome_605);
      }

      .cls-1, .cls-2, .cls-3, .cls-4, .cls-5, .cls-6, .cls-7, .cls-8, .cls-9, .cls-10, .cls-11, .cls-12, .cls-13, .cls-14, .cls-15, .cls-16, .cls-17, .cls-18, .cls-19, .cls-20, .cls-21, .cls-22, .cls-23 {
        fill: none;
        stroke-linecap: round;
        stroke-miterlimit: 10;
      }

      .cls-1, .cls-2, .cls-3, .cls-4, .cls-5, .cls-6, .cls-7, .cls-8, .cls-9, .cls-10, .cls-11, .cls-12, .cls-13, .cls-14, .cls-15, .cls-16, .cls-17, .cls-18, .cls-21, .cls-22 {
        stroke-width: 5px;
      }

      .cls-2 {
        stroke: url(#Sfumatura_senza_nome_113-4);
      }

      .cls-3 {
        stroke: url(#Sfumatura_senza_nome_113-2);
      }

      .cls-4 {
        stroke: url(#Sfumatura_senza_nome_113-6);
      }

      .cls-5 {
        stroke: url(#Sfumatura_senza_nome_113-8);
      }

      .cls-6 {
        stroke: url(#Sfumatura_senza_nome_605-3);
      }

      .cls-7 {
        stroke: url(#Sfumatura_senza_nome_605-5);
      }

      .cls-8 {
        stroke: url(#Sfumatura_senza_nome_113-17);
        stroke-dasharray: 32.34 32.34;
      }

      .cls-24 {
        fill: url(#Sfumatura_senza_nome_11);
      }

      .cls-9 {
        stroke: url(#Sfumatura_senza_nome_113-7);
      }

      .cls-9, .cls-21 {
        stroke-dasharray: 29.19 29.19;
      }

      .cls-10 {
        stroke: url(#Sfumatura_senza_nome_113-9);
        stroke-dasharray: 32.12 32.12;
      }

      .cls-25 {
        fill: url(#Sfumatura_senza_nome_11-8);
      }

      .cls-26 {
        fill: url(#Sfumatura_senza_nome_11-9);
      }

      .cls-27 {
        fill: url(#Sfumatura_senza_nome_11-5);
      }

      .cls-28 {
        fill: url(#Sfumatura_senza_nome_11-6);
      }

      .cls-29 {
        fill: url(#Sfumatura_senza_nome_11-7);
      }

      .cls-30 {
        fill: url(#Sfumatura_senza_nome_11-4);
      }

      .cls-31 {
        fill: url(#Sfumatura_senza_nome_11-3);
      }

      .cls-32 {
        fill: url(#Sfumatura_senza_nome_11-2);
      }

      .cls-11 {
        stroke: url(#Sfumatura_senza_nome_113-20);
      }

      .cls-12 {
        stroke: url(#Sfumatura_senza_nome_113-14);
      }

      .cls-13 {
        stroke: url(#Sfumatura_senza_nome_113-18);
      }

      .cls-14 {
        stroke: url(#Sfumatura_senza_nome_113-12);
      }

      .cls-15 {
        stroke: url(#Sfumatura_senza_nome_113-16);
      }

      .cls-16 {
        stroke: url(#Sfumatura_senza_nome_113-10);
      }

      .cls-17 {
        stroke: url(#Sfumatura_senza_nome_113-19);
      }

      .cls-17, .cls-18 {
        stroke-dasharray: 27.41 27.41;
      }

      .cls-18 {
        stroke: url(#Sfumatura_senza_nome_113-11);
      }

      .cls-19 {
        stroke: url(#Sfumatura_senza_nome_113-22);
      }

      .cls-19, .cls-20, .cls-23 {
        stroke-width: 5.91px;
      }

      .cls-20 {
        stroke: url(#Sfumatura_senza_nome_113-24);
      }

      .cls-21 {
        stroke: url(#Sfumatura_senza_nome_113-15);
      }

      .cls-22 {
        stroke: url(#Sfumatura_senza_nome_113-3);
        stroke-dasharray: 28.57 28.57;
      }

      .cls-23 {
        stroke: url(#Sfumatura_senza_nome_113-23);
        stroke-dasharray: 37.95 37.95;
      }

      .cls-33 {
        fill: url(#Sfumatura_senza_nome_113-30);
      }

      .cls-34 {
        fill: url(#Sfumatura_senza_nome_113-13);
      }

      .cls-35 {
        fill: url(#Sfumatura_senza_nome_113-29);
      }

      .cls-36 {
        fill: url(#Sfumatura_senza_nome_113-25);
      }

      .cls-37 {
        fill: url(#Sfumatura_senza_nome_113-26);
      }

      .cls-38 {
        fill: url(#Sfumatura_senza_nome_113-21);
      }

      .cls-39 {
        fill: url(#Sfumatura_senza_nome_113-28);
      }

      .cls-40 {
        fill: url(#Sfumatura_senza_nome_113-27);
      }

      .cls-41 {
        fill: url(#Sfumatura_senza_nome_113-39);
      }

      .cls-42 {
        fill: url(#Sfumatura_senza_nome_113-35);
      }

      .cls-43 {
        fill: url(#Sfumatura_senza_nome_113-36);
      }

      .cls-44 {
        fill: url(#Sfumatura_senza_nome_113-33);
      }

      .cls-45 {
        fill: url(#Sfumatura_senza_nome_113-34);
      }

      .cls-46 {
        fill: url(#Sfumatura_senza_nome_113-31);
      }

      .cls-47 {
        fill: url(#Sfumatura_senza_nome_113-32);
      }

      .cls-48 {
        fill: url(#Sfumatura_senza_nome_113-37);
      }

      .cls-49 {
        fill: url(#Sfumatura_senza_nome_113-38);
      }

      .cls-50 {
        fill: url(#Sfumatura_senza_nome_113-75);
      }

      .cls-51 {
        fill: url(#Sfumatura_senza_nome_113-74);
      }

      .cls-52 {
        fill: url(#Sfumatura_senza_nome_113-73);
      }

      .cls-53 {
        fill: url(#Sfumatura_senza_nome_113-79);
      }

      .cls-54 {
        fill: url(#Sfumatura_senza_nome_113-76);
      }

      .cls-55 {
        fill: url(#Sfumatura_senza_nome_113-72);
      }

      .cls-56 {
        fill: url(#Sfumatura_senza_nome_113-71);
      }

      .cls-57 {
        fill: url(#Sfumatura_senza_nome_113-70);
      }

      .cls-58 {
        fill: url(#Sfumatura_senza_nome_113-77);
      }

      .cls-59 {
        fill: url(#Sfumatura_senza_nome_113-78);
      }

      .cls-60 {
        fill: url(#Sfumatura_senza_nome_113-49);
      }

      .cls-61 {
        fill: url(#Sfumatura_senza_nome_113-41);
      }

      .cls-62 {
        fill: url(#Sfumatura_senza_nome_113-42);
      }

      .cls-63 {
        fill: url(#Sfumatura_senza_nome_113-43);
      }

      .cls-64 {
        fill: url(#Sfumatura_senza_nome_113-51);
      }

      .cls-65 {
        fill: url(#Sfumatura_senza_nome_113-57);
      }

      .cls-66 {
        fill: url(#Sfumatura_senza_nome_113-54);
      }

      .cls-67 {
        fill: url(#Sfumatura_senza_nome_113-40);
      }

      .cls-68 {
        fill: url(#Sfumatura_senza_nome_113-48);
      }

      .cls-69 {
        fill: url(#Sfumatura_senza_nome_113-44);
      }

      .cls-70 {
        fill: url(#Sfumatura_senza_nome_113-45);
      }

      .cls-71 {
        fill: url(#Sfumatura_senza_nome_113-46);
      }

      .cls-72 {
        fill: url(#Sfumatura_senza_nome_113-47);
      }

      .cls-73 {
        fill: url(#Sfumatura_senza_nome_113-53);
      }

      .cls-74 {
        fill: url(#Sfumatura_senza_nome_113-55);
      }

      .cls-75 {
        fill: url(#Sfumatura_senza_nome_113-52);
      }

      .cls-76 {
        fill: url(#Sfumatura_senza_nome_113-58);
      }

      .cls-77 {
        fill: url(#Sfumatura_senza_nome_113-56);
      }

      .cls-78 {
        fill: url(#Sfumatura_senza_nome_113-59);
      }

      .cls-79 {
        fill: url(#Sfumatura_senza_nome_113-50);
      }

      .cls-80 {
        fill: url(#Sfumatura_senza_nome_113-64);
      }

      .cls-81 {
        fill: url(#Sfumatura_senza_nome_113-62);
      }

      .cls-82 {
        fill: url(#Sfumatura_senza_nome_113-65);
      }

      .cls-83 {
        fill: url(#Sfumatura_senza_nome_113-67);
      }

      .cls-84 {
        fill: url(#Sfumatura_senza_nome_113-60);
      }

      .cls-85 {
        fill: url(#Sfumatura_senza_nome_113-63);
      }

      .cls-86 {
        fill: url(#Sfumatura_senza_nome_113-61);
      }

      .cls-87 {
        fill: url(#Sfumatura_senza_nome_113-69);
      }

      .cls-88 {
        fill: url(#Sfumatura_senza_nome_113-66);
      }

      .cls-89 {
        fill: url(#Sfumatura_senza_nome_113-68);
      }

      .cls-90 {
        fill: url(#Sfumatura_senza_nome_113-87);
      }

      .cls-91 {
        fill: url(#Sfumatura_senza_nome_113-80);
      }

      .cls-92 {
        fill: url(#Sfumatura_senza_nome_113-83);
      }

      .cls-93 {
        fill: url(#Sfumatura_senza_nome_113-86);
      }

      .cls-94 {
        fill: url(#Sfumatura_senza_nome_113-84);
      }

      .cls-95 {
        fill: url(#Sfumatura_senza_nome_113-82);
      }

      .cls-96 {
        fill: url(#Sfumatura_senza_nome_113-81);
      }

      .cls-97 {
        fill: url(#Sfumatura_senza_nome_113-85);
      }

      .cls-98 {
        fill: url(#Sfumatura_senza_nome_605-4);
      }

      .cls-99 {
        fill: url(#Sfumatura_senza_nome_605-6);
      }

      .cls-100 {
        fill: url(#Sfumatura_senza_nome_605-2);
      }

      .cls-101 {
        fill: url(#Sfumatura_senza_nome_11-16);
      }

      .cls-102 {
        fill: url(#Sfumatura_senza_nome_11-10);
      }

      .cls-103 {
        fill: url(#Sfumatura_senza_nome_11-15);
      }

      .cls-104 {
        fill: url(#Sfumatura_senza_nome_11-12);
      }

      .cls-105 {
        fill: url(#Sfumatura_senza_nome_11-11);
      }

      .cls-106 {
        fill: url(#Sfumatura_senza_nome_11-13);
      }

      .cls-107 {
        fill: url(#Sfumatura_senza_nome_11-18);
      }

      .cls-108 {
        fill: url(#Sfumatura_senza_nome_11-19);
      }

      .cls-109 {
        fill: url(#Sfumatura_senza_nome_11-17);
      }

      .cls-110 {
        fill: url(#Sfumatura_senza_nome_11-14);
      }

      .cls-111 {
        fill: url(#Sfumatura_senza_nome_11-20);
      }

      .cls-112 {
        fill: url(#Sfumatura_senza_nome_113-5);
      }

      .cls-113 {
        fill: url(#Sfumatura_senza_nome_8);
      }

      .cls-114 {
        fill: url(#Sfumatura_senza_nome_113);
      }

      .cls-115 {
        fill: url(#Sfumatura_senza_nome_8-6);
      }

      .cls-116 {
        fill: url(#Sfumatura_senza_nome_8-2);
      }

      .cls-117 {
        fill: url(#Sfumatura_senza_nome_8-7);
      }

      .cls-118 {
        fill: url(#Sfumatura_senza_nome_8-8);
      }

      .cls-119 {
        fill: url(#Sfumatura_senza_nome_8-5);
      }

      .cls-120 {
        fill: url(#Sfumatura_senza_nome_8-3);
      }

      .cls-121 {
        fill: url(#Sfumatura_senza_nome_8-4);
      }
    </style>
    <linearGradient id="Sfumatura_senza_nome_11" data-name="Sfumatura senza nome 11" x1="1385.94" y1="1646.74" x2="1663.67" y2="1646.74" gradientUnits="userSpaceOnUse">
      <stop offset="0" stop-color="#90e0ef"/>
      <stop offset="1" stop-color="#00b4d8"/>
    </linearGradient>
    <linearGradient id="Sfumatura_senza_nome_113" data-name="Sfumatura senza nome 113" x1="1420.79" y1="1639.63" x2="1628.81" y2="1639.63" gradientUnits="userSpaceOnUse">
      <stop offset="0" stop-color="#0077b6"/>
      <stop offset="1" stop-color="#03045e"/>
    </linearGradient>
    <linearGradient id="Sfumatura_senza_nome_113-2" data-name="Sfumatura senza nome 113" x1="557.75" y1="1121.13" x2="1165.82" y2="1121.13" xlink:href="#Sfumatura_senza_nome_113"/>
    <linearGradient id="Sfumatura_senza_nome_113-3" data-name="Sfumatura senza nome 113" x1="557.75" y1="1121.13" x2="1165.82" y2="1121.13" xlink:href="#Sfumatura_senza_nome_113"/>
    <linearGradient id="Sfumatura_senza_nome_113-4" data-name="Sfumatura senza nome 113" x1="557.75" y1="1121.13" x2="1165.82" y2="1121.13" xlink:href="#Sfumatura_senza_nome_113"/>
    <linearGradient id="Sfumatura_senza_nome_113-5" data-name="Sfumatura senza nome 113" x1="557.75" y1="1121.13" x2="1165.82" y2="1121.13" xlink:href="#Sfumatura_senza_nome_113"/>
    <linearGradient id="Sfumatura_senza_nome_605" data-name="Sfumatura senza nome 605" x1="557.75" y1="1091.17" x2="1165.82" y2="1091.17" gradientUnits="userSpaceOnUse">
      <stop offset="0" stop-color="#8edfef"/>
      <stop offset="1" stop-color="#06b6d9"/>
    </linearGradient>
    <linearGradient id="Sfumatura_senza_nome_605-2" data-name="Sfumatura senza nome 605" x1="557.75" y1="1091.17" x2="1165.82" y2="1091.17" xlink:href="#Sfumatura_senza_nome_605"/>
    <linearGradient id="Sfumatura_senza_nome_113-6" data-name="Sfumatura senza nome 113" x1="557.75" y1="1612.98" x2="1165.82" y2="1612.98" xlink:href="#Sfumatura_senza_nome_113"/>
    <linearGradient id="Sfumatura_senza_nome_113-7" data-name="Sfumatura senza nome 113" x1="557.75" y1="1612.98" x2="1165.82" y2="1612.98" xlink:href="#Sfumatura_senza_nome_113"/>
    <linearGradient id="Sfumatura_senza_nome_113-8" data-name="Sfumatura senza nome 113" x1="557.75" y1="1605.48" x2="1165.82" y2="1605.48" xlink:href="#Sfumatura_senza_nome_113"/>
    <linearGradient id="Sfumatura_senza_nome_113-9" data-name="Sfumatura senza nome 113" x1="557.75" y1="1413.26" x2="1165.82" y2="1413.26" xlink:href="#Sfumatura_senza_nome_113"/>
    <linearGradient id="Sfumatura_senza_nome_113-10" data-name="Sfumatura senza nome 113" x1="557.75" y1="1237.12" x2="1165.82" y2="1237.12" xlink:href="#Sfumatura_senza_nome_113"/>
    <linearGradient id="Sfumatura_senza_nome_113-11" data-name="Sfumatura senza nome 113" x1="557.75" y1="1229.62" x2="1165.82" y2="1229.62" xlink:href="#Sfumatura_senza_nome_113"/>
    <linearGradient id="Sfumatura_senza_nome_113-12" data-name="Sfumatura senza nome 113" x1="557.75" y1="1229.62" x2="1165.82" y2="1229.62" xlink:href="#Sfumatura_senza_nome_113"/>
    <linearGradient id="Sfumatura_senza_nome_113-13" data-name="Sfumatura senza nome 113" x1="557.75" y1="1612.98" x2="1165.82" y2="1612.98" xlink:href="#Sfumatura_senza_nome_113"/>
    <linearGradient id="Sfumatura_senza_nome_605-3" data-name="Sfumatura senza nome 605" y1="1450.25" y2="1450.25" xlink:href="#Sfumatura_senza_nome_605"/>
    <linearGradient id="Sfumatura_senza_nome_605-4" data-name="Sfumatura senza nome 605" x1="557.75" y1="1258.64" x2="1165.82" y2="1258.64" xlink:href="#Sfumatura_senza_nome_605"/>
    <linearGradient id="Sfumatura_senza_nome_113-14" data-name="Sfumatura senza nome 113" x1="557.75" y1="621.79" x2="1165.82" y2="621.79" xlink:href="#Sfumatura_senza_nome_113"/>
    <linearGradient id="Sfumatura_senza_nome_113-15" data-name="Sfumatura senza nome 113" x1="557.75" y1="621.79" x2="1165.82" y2="621.79" xlink:href="#Sfumatura_senza_nome_113"/>
    <linearGradient id="Sfumatura_senza_nome_113-16" data-name="Sfumatura senza nome 113" x1="557.75" y1="629.29" x2="1165.82" y2="629.29" xlink:href="#Sfumatura_senza_nome_113"/>
    <linearGradient id="Sfumatura_senza_nome_113-17" data-name="Sfumatura senza nome 113" x1="557.75" y1="822.75" x2="1165.82" y2="822.75" xlink:href="#Sfumatura_senza_nome_113"/>
    <linearGradient id="Sfumatura_senza_nome_113-18" data-name="Sfumatura senza nome 113" x1="557.75" y1="1000.04" x2="1165.82" y2="1000.04" xlink:href="#Sfumatura_senza_nome_113"/>
    <linearGradient id="Sfumatura_senza_nome_113-19" data-name="Sfumatura senza nome 113" x1="557.75" y1="1007.54" x2="1165.82" y2="1007.54" xlink:href="#Sfumatura_senza_nome_113"/>
    <linearGradient id="Sfumatura_senza_nome_113-20" data-name="Sfumatura senza nome 113" x1="557.75" y1="1007.54" x2="1165.82" y2="1007.54" xlink:href="#Sfumatura_senza_nome_113"/>
    <linearGradient id="Sfumatura_senza_nome_113-21" data-name="Sfumatura senza nome 113" x1="557.75" y1="621.79" x2="1165.82" y2="621.79" xlink:href="#Sfumatura_senza_nome_113"/>
    <linearGradient id="Sfumatura_senza_nome_605-5" data-name="Sfumatura senza nome 605" y1="783.24" y2="783.24" xlink:href="#Sfumatura_senza_nome_605"/>
    <linearGradient id="Sfumatura_senza_nome_605-6" data-name="Sfumatura senza nome 605" x1="557.75" y1="976.12" x2="1165.82" y2="976.12" xlink:href="#Sfumatura_senza_nome_605"/>
    <linearGradient id="Sfumatura_senza_nome_113-22" data-name="Sfumatura senza nome 113" x1="1527.41" y1="1569.48" x2="1527.41" y2="1266.98" xlink:href="#Sfumatura_senza_nome_113"/>
    <linearGradient id="Sfumatura_senza_nome_113-23" data-name="Sfumatura senza nome 113" x1="1527.41" y1="1569.48" x2="1527.41" y2="1266.98" xlink:href="#Sfumatura_senza_nome_113"/>
    <linearGradient id="Sfumatura_senza_nome_113-24" data-name="Sfumatura senza nome 113" x1="1527.41" y1="1569.48" x2="1527.41" y2="1266.98" xlink:href="#Sfumatura_senza_nome_113"/>
    <linearGradient id="Sfumatura_senza_nome_113-25" data-name="Sfumatura senza nome 113" x1="1527.42" y1="1569.48" x2="1527.42" y2="1266.98" xlink:href="#Sfumatura_senza_nome_113"/>
    <linearGradient id="Sfumatura_senza_nome_113-26" data-name="Sfumatura senza nome 113" x1="1527.42" y1="1569.48" x2="1527.42" y2="1266.98" xlink:href="#Sfumatura_senza_nome_113"/>
    <linearGradient id="Sfumatura_senza_nome_11-2" data-name="Sfumatura senza nome 11" x1="1475.17" y1="1626.6" x2="1509.75" y2="1626.6" xlink:href="#Sfumatura_senza_nome_11"/>
    <linearGradient id="Sfumatura_senza_nome_11-3" data-name="Sfumatura senza nome 11" x1="1512.3" y1="1621.58" x2="1535.12" y2="1621.58" xlink:href="#Sfumatura_senza_nome_11"/>
    <linearGradient id="Sfumatura_senza_nome_11-4" data-name="Sfumatura senza nome 11" x1="1537.74" y1="1626.6" x2="1572.32" y2="1626.6" xlink:href="#Sfumatura_senza_nome_11"/>
    <linearGradient id="Sfumatura_senza_nome_113-27" data-name="Sfumatura senza nome 113" x1="1371.46" y1="647.11" x2="1389.7" y2="647.11" xlink:href="#Sfumatura_senza_nome_113"/>
    <linearGradient id="Sfumatura_senza_nome_113-28" data-name="Sfumatura senza nome 113" x1="1392.63" y1="651.83" x2="1410.91" y2="651.83" xlink:href="#Sfumatura_senza_nome_113"/>
    <linearGradient id="Sfumatura_senza_nome_113-29" data-name="Sfumatura senza nome 113" x1="1414.67" y1="647.26" x2="1433.95" y2="647.26" xlink:href="#Sfumatura_senza_nome_113"/>
    <linearGradient id="Sfumatura_senza_nome_113-30" data-name="Sfumatura senza nome 113" x1="1439.02" y1="651.83" x2="1457.3" y2="651.83" xlink:href="#Sfumatura_senza_nome_113"/>
    <linearGradient id="Sfumatura_senza_nome_113-31" data-name="Sfumatura senza nome 113" x1="1462.28" y1="651.67" x2="1473.82" y2="651.67" xlink:href="#Sfumatura_senza_nome_113"/>
    <linearGradient id="Sfumatura_senza_nome_113-32" data-name="Sfumatura senza nome 113" x1="1476.16" y1="651.83" x2="1492.85" y2="651.83" xlink:href="#Sfumatura_senza_nome_113"/>
    <linearGradient id="Sfumatura_senza_nome_113-33" data-name="Sfumatura senza nome 113" x1="1496.2" y1="648.81" x2="1509.84" y2="648.81" xlink:href="#Sfumatura_senza_nome_113"/>
    <linearGradient id="Sfumatura_senza_nome_113-34" data-name="Sfumatura senza nome 113" x1="1512.93" y1="647.26" x2="1517.03" y2="647.26" xlink:href="#Sfumatura_senza_nome_113"/>
    <linearGradient id="Sfumatura_senza_nome_113-35" data-name="Sfumatura senza nome 113" x1="1521.76" y1="651.83" x2="1541.13" y2="651.83" xlink:href="#Sfumatura_senza_nome_113"/>
    <linearGradient id="Sfumatura_senza_nome_113-36" data-name="Sfumatura senza nome 113" x1="1546.19" y1="651.67" x2="1563.76" y2="651.67" xlink:href="#Sfumatura_senza_nome_113"/>
    <linearGradient id="Sfumatura_senza_nome_113-37" data-name="Sfumatura senza nome 113" x1="1579.48" y1="651.83" x2="1595.67" y2="651.83" xlink:href="#Sfumatura_senza_nome_113"/>
    <linearGradient id="Sfumatura_senza_nome_113-38" data-name="Sfumatura senza nome 113" x1="1599.6" y1="651.83" x2="1617.88" y2="651.83" xlink:href="#Sfumatura_senza_nome_113"/>
    <linearGradient id="Sfumatura_senza_nome_113-39" data-name="Sfumatura senza nome 113" x1="1622.86" y1="651.67" x2="1634.41" y2="651.67" xlink:href="#Sfumatura_senza_nome_113"/>
    <linearGradient id="Sfumatura_senza_nome_113-40" data-name="Sfumatura senza nome 113" x1="1636.16" y1="651.96" x2="1656.87" y2="651.96" xlink:href="#Sfumatura_senza_nome_113"/>
    <linearGradient id="Sfumatura_senza_nome_113-41" data-name="Sfumatura senza nome 113" x1="1658.92" y1="651.83" x2="1677.2" y2="651.83" xlink:href="#Sfumatura_senza_nome_113"/>
    <linearGradient id="Sfumatura_senza_nome_113-42" data-name="Sfumatura senza nome 113" x1="1682.18" y1="651.67" x2="1693.72" y2="651.67" xlink:href="#Sfumatura_senza_nome_113"/>
    <linearGradient id="Sfumatura_senza_nome_11-5" data-name="Sfumatura senza nome 11" x1="1484.44" y1="1679.24" x2="1501.97" y2="1679.24" xlink:href="#Sfumatura_senza_nome_11"/>
    <linearGradient id="Sfumatura_senza_nome_11-6" data-name="Sfumatura senza nome 11" x1="1507.12" y1="1678.98" x2="1523.58" y2="1678.98" xlink:href="#Sfumatura_senza_nome_11"/>
    <linearGradient id="Sfumatura_senza_nome_11-7" data-name="Sfumatura senza nome 11" x1="1527.58" y1="1678.98" x2="1546.18" y2="1678.98" xlink:href="#Sfumatura_senza_nome_11"/>
    <linearGradient id="Sfumatura_senza_nome_11-8" data-name="Sfumatura senza nome 11" x1="1551.24" y1="1678.83" x2="1562.98" y2="1678.83" xlink:href="#Sfumatura_senza_nome_11"/>
    <linearGradient id="Sfumatura_senza_nome_11-9" data-name="Sfumatura senza nome 11" x1="964.72" y1="8365.79" x2="1009.78" y2="8365.79" gradientTransform="translate(0 9088.82) scale(1 -1)" xlink:href="#Sfumatura_senza_nome_11"/>
    <linearGradient id="Sfumatura_senza_nome_113-43" data-name="Sfumatura senza nome 113" x1="917.18" y1="8315.79" x2="962.25" y2="8315.79" gradientTransform="translate(0 9088.82) scale(1 -1)" xlink:href="#Sfumatura_senza_nome_113"/>
    <linearGradient id="Sfumatura_senza_nome_11-10" data-name="Sfumatura senza nome 11" x1="965.34" y1="7693.95" x2="1010.4" y2="7693.95" gradientTransform="translate(0 9088.82) scale(1 -1)" xlink:href="#Sfumatura_senza_nome_11"/>
    <linearGradient id="Sfumatura_senza_nome_113-44" data-name="Sfumatura senza nome 113" x1="917.81" y1="7643.95" x2="962.87" y2="7643.95" gradientTransform="translate(0 9088.82) scale(1 -1)" xlink:href="#Sfumatura_senza_nome_113"/>
    <linearGradient id="Sfumatura_senza_nome_11-11" data-name="Sfumatura senza nome 11" x1="963.48" y1="8020.49" x2="1008.55" y2="8020.49" gradientTransform="translate(0 9088.82) scale(1 -1)" xlink:href="#Sfumatura_senza_nome_11"/>
    <linearGradient id="Sfumatura_senza_nome_113-45" data-name="Sfumatura senza nome 113" x1="915.95" y1="7970.49" x2="961.01" y2="7970.49" gradientTransform="translate(0 9088.82) scale(1 -1)" xlink:href="#Sfumatura_senza_nome_113"/>
    <linearGradient id="Sfumatura_senza_nome_113-46" data-name="Sfumatura senza nome 113" x1="1504.88" y1="7674.13" x2="1549.95" y2="7674.13" gradientTransform="translate(0 9088.82) scale(1 -1)" xlink:href="#Sfumatura_senza_nome_113"/>
    <linearGradient id="Sfumatura_senza_nome_113-47" data-name="Sfumatura senza nome 113" x1="277.38" y1="337.4" x2="293.93" y2="337.4" xlink:href="#Sfumatura_senza_nome_113"/>
    <linearGradient id="Sfumatura_senza_nome_113-48" data-name="Sfumatura senza nome 113" x1="373.27" y1="332.95" x2="400.5" y2="332.95" xlink:href="#Sfumatura_senza_nome_113"/>
    <linearGradient id="Sfumatura_senza_nome_113-49" data-name="Sfumatura senza nome 113" x1="343.43" y1="337.55" x2="360.66" y2="337.55" xlink:href="#Sfumatura_senza_nome_113"/>
    <linearGradient id="Sfumatura_senza_nome_113-50" data-name="Sfumatura senza nome 113" x1="298.62" y1="337.55" x2="316.87" y2="337.55" xlink:href="#Sfumatura_senza_nome_113"/>
    <linearGradient id="Sfumatura_senza_nome_113-51" data-name="Sfumatura senza nome 113" x1="320.5" y1="333.1" x2="338.67" y2="333.1" xlink:href="#Sfumatura_senza_nome_113"/>
    <linearGradient id="Sfumatura_senza_nome_113-52" data-name="Sfumatura senza nome 113" x1="281.08" y1="852.12" x2="297.63" y2="852.12" xlink:href="#Sfumatura_senza_nome_113"/>
    <linearGradient id="Sfumatura_senza_nome_113-53" data-name="Sfumatura senza nome 113" x1="302.32" y1="852.27" x2="320.57" y2="852.27" xlink:href="#Sfumatura_senza_nome_113"/>
    <linearGradient id="Sfumatura_senza_nome_113-54" data-name="Sfumatura senza nome 113" x1="324.2" y1="847.83" x2="342.36" y2="847.83" xlink:href="#Sfumatura_senza_nome_113"/>
    <linearGradient id="Sfumatura_senza_nome_113-55" data-name="Sfumatura senza nome 113" x1="347.13" y1="852.27" x2="364.36" y2="852.27" xlink:href="#Sfumatura_senza_nome_113"/>
    <linearGradient id="Sfumatura_senza_nome_113-56" data-name="Sfumatura senza nome 113" x1="379.69" y1="847.68" x2="400.5" y2="847.68" xlink:href="#Sfumatura_senza_nome_113"/>
    <linearGradient id="Sfumatura_senza_nome_113-57" data-name="Sfumatura senza nome 113" x1="279.5" y1="1367.19" x2="296.05" y2="1367.19" xlink:href="#Sfumatura_senza_nome_113"/>
    <linearGradient id="Sfumatura_senza_nome_113-58" data-name="Sfumatura senza nome 113" x1="300.74" y1="1367.34" x2="318.99" y2="1367.34" xlink:href="#Sfumatura_senza_nome_113"/>
    <linearGradient id="Sfumatura_senza_nome_113-59" data-name="Sfumatura senza nome 113" x1="322.62" y1="1362.9" x2="340.79" y2="1362.9" xlink:href="#Sfumatura_senza_nome_113"/>
    <linearGradient id="Sfumatura_senza_nome_113-60" data-name="Sfumatura senza nome 113" x1="345.56" y1="1367.34" x2="362.78" y2="1367.34" xlink:href="#Sfumatura_senza_nome_113"/>
    <linearGradient id="Sfumatura_senza_nome_113-61" data-name="Sfumatura senza nome 113" x1="377.09" y1="1362.75" x2="399.43" y2="1362.75" xlink:href="#Sfumatura_senza_nome_113"/>
    <linearGradient id="Sfumatura_senza_nome_8" data-name="Sfumatura senza nome 8" x1="116.22" y1="603.78" x2="560.24" y2="603.78" gradientUnits="userSpaceOnUse">
      <stop offset="0" stop-color="#00b4d8"/>
      <stop offset="1" stop-color="#0077b6"/>
    </linearGradient>
    <linearGradient id="Sfumatura_senza_nome_11-12" data-name="Sfumatura senza nome 11" x1="205.28" y1="563.45" x2="471.17" y2="563.45" xlink:href="#Sfumatura_senza_nome_11"/>
    <linearGradient id="Sfumatura_senza_nome_8-2" data-name="Sfumatura senza nome 8" x1="284.32" y1="8434.22" x2="392.15" y2="8434.22" gradientTransform="translate(0 9088.82) scale(1 -1)" xlink:href="#Sfumatura_senza_nome_8"/>
    <linearGradient id="Sfumatura_senza_nome_113-62" data-name="Sfumatura senza nome 113" x1="281.37" y1="425.95" x2="395.09" y2="425.95" xlink:href="#Sfumatura_senza_nome_113"/>
    <linearGradient id="Sfumatura_senza_nome_8-3" data-name="Sfumatura senza nome 8" x1="113.71" y1="1124.77" x2="557.73" y2="1124.77" xlink:href="#Sfumatura_senza_nome_8"/>
    <linearGradient id="Sfumatura_senza_nome_11-13" data-name="Sfumatura senza nome 11" x1="202.78" y1="1084.43" x2="468.67" y2="1084.43" xlink:href="#Sfumatura_senza_nome_11"/>
    <linearGradient id="Sfumatura_senza_nome_8-4" data-name="Sfumatura senza nome 8" x1="281.82" y1="7913.23" x2="389.64" y2="7913.23" gradientTransform="translate(0 9088.82) scale(1 -1)" xlink:href="#Sfumatura_senza_nome_8"/>
    <linearGradient id="Sfumatura_senza_nome_113-63" data-name="Sfumatura senza nome 113" x1="278.87" y1="946.94" x2="392.59" y2="946.94" xlink:href="#Sfumatura_senza_nome_113"/>
    <linearGradient id="Sfumatura_senza_nome_8-5" data-name="Sfumatura senza nome 8" x1="116.58" y1="1643.67" x2="560.61" y2="1643.67" xlink:href="#Sfumatura_senza_nome_8"/>
    <linearGradient id="Sfumatura_senza_nome_11-14" data-name="Sfumatura senza nome 11" x1="205.65" y1="1603.34" x2="471.54" y2="1603.34" xlink:href="#Sfumatura_senza_nome_11"/>
    <linearGradient id="Sfumatura_senza_nome_8-6" data-name="Sfumatura senza nome 8" x1="284.69" y1="7394.32" x2="392.52" y2="7394.32" gradientTransform="translate(0 9088.82) scale(1 -1)" xlink:href="#Sfumatura_senza_nome_8"/>
    <linearGradient id="Sfumatura_senza_nome_113-64" data-name="Sfumatura senza nome 113" x1="281.74" y1="1465.85" x2="395.46" y2="1465.85" xlink:href="#Sfumatura_senza_nome_113"/>
    <linearGradient id="Sfumatura_senza_nome_8-7" data-name="Sfumatura senza nome 8" x1="1162.82" y1="1115.41" x2="1892.97" y2="1115.41" xlink:href="#Sfumatura_senza_nome_8"/>
    <linearGradient id="Sfumatura_senza_nome_11-15" data-name="Sfumatura senza nome 11" x1="1309.28" y1="984.9" x2="1746.51" y2="984.9" xlink:href="#Sfumatura_senza_nome_11"/>
    <linearGradient id="Sfumatura_senza_nome_8-8" data-name="Sfumatura senza nome 8" x1="1439.26" y1="7889.84" x2="1616.56" y2="7889.84" gradientTransform="translate(0 9088.82) scale(1 -1)" xlink:href="#Sfumatura_senza_nome_8"/>
    <linearGradient id="Sfumatura_senza_nome_113-65" data-name="Sfumatura senza nome 113" x1="1386.69" y1="920.14" x2="1669.1" y2="920.14" xlink:href="#Sfumatura_senza_nome_113"/>
    <linearGradient id="Sfumatura_senza_nome_11-16" data-name="Sfumatura senza nome 11" x1="1522.49" y1="923.4" x2="1533.3" y2="923.4" xlink:href="#Sfumatura_senza_nome_11"/>
    <linearGradient id="Sfumatura_senza_nome_11-17" data-name="Sfumatura senza nome 11" x1="-3743.01" y1="-2110.56" x2="-3732.2" y2="-2110.56" gradientTransform="translate(5265.5 3128.53)" xlink:href="#Sfumatura_senza_nome_11"/>
    <linearGradient id="Sfumatura_senza_nome_113-66" data-name="Sfumatura senza nome 113" x1="1518.11" y1="1017.97" x2="1537.68" y2="1017.97" xlink:href="#Sfumatura_senza_nome_113"/>
    <linearGradient id="Sfumatura_senza_nome_11-18" data-name="Sfumatura senza nome 11" x1="1403.54" y1="843.97" x2="1652.93" y2="843.97" xlink:href="#Sfumatura_senza_nome_11"/>
    <linearGradient id="Sfumatura_senza_nome_113-67" data-name="Sfumatura senza nome 113" x1="1424.14" y1="843.97" x2="1440.59" y2="843.97" xlink:href="#Sfumatura_senza_nome_113"/>
    <linearGradient id="Sfumatura_senza_nome_113-68" data-name="Sfumatura senza nome 113" x1="1458.45" y1="843.97" x2="1474.9" y2="843.97" xlink:href="#Sfumatura_senza_nome_113"/>
    <linearGradient id="Sfumatura_senza_nome_113-69" data-name="Sfumatura senza nome 113" x1="1492.76" y1="843.97" x2="1509.2" y2="843.97" xlink:href="#Sfumatura_senza_nome_113"/>
    <linearGradient id="Sfumatura_senza_nome_113-70" data-name="Sfumatura senza nome 113" x1="1552.34" y1="835.74" x2="1572.38" y2="835.74" xlink:href="#Sfumatura_senza_nome_113"/>
    <linearGradient id="Sfumatura_senza_nome_113-71" data-name="Sfumatura senza nome 113" x1="1552.34" y1="852.19" x2="1572.38" y2="852.19" xlink:href="#Sfumatura_senza_nome_113"/>
    <linearGradient id="Sfumatura_senza_nome_113-72" data-name="Sfumatura senza nome 113" x1="1580.31" y1="835.74" x2="1629.84" y2="835.74" xlink:href="#Sfumatura_senza_nome_113"/>
    <linearGradient id="Sfumatura_senza_nome_113-73" data-name="Sfumatura senza nome 113" x1="1580.31" y1="852.19" x2="1629.84" y2="852.19" xlink:href="#Sfumatura_senza_nome_113"/>
    <linearGradient id="Sfumatura_senza_nome_11-19" data-name="Sfumatura senza nome 11" x1="1403.2" y1="899.11" x2="1652.59" y2="899.11" xlink:href="#Sfumatura_senza_nome_11"/>
    <linearGradient id="Sfumatura_senza_nome_113-74" data-name="Sfumatura senza nome 113" x1="1423.81" y1="899.11" x2="1440.25" y2="899.11" xlink:href="#Sfumatura_senza_nome_113"/>
    <linearGradient id="Sfumatura_senza_nome_113-75" data-name="Sfumatura senza nome 113" x1="1458.11" y1="899.11" x2="1474.56" y2="899.11" xlink:href="#Sfumatura_senza_nome_113"/>
    <linearGradient id="Sfumatura_senza_nome_113-76" data-name="Sfumatura senza nome 113" x1="1492.42" y1="899.11" x2="1508.86" y2="899.11" xlink:href="#Sfumatura_senza_nome_113"/>
    <linearGradient id="Sfumatura_senza_nome_113-77" data-name="Sfumatura senza nome 113" x1="1552" y1="890.89" x2="1572.04" y2="890.89" xlink:href="#Sfumatura_senza_nome_113"/>
    <linearGradient id="Sfumatura_senza_nome_113-78" data-name="Sfumatura senza nome 113" x1="1552" y1="907.33" x2="1572.04" y2="907.33" xlink:href="#Sfumatura_senza_nome_113"/>
    <linearGradient id="Sfumatura_senza_nome_113-79" data-name="Sfumatura senza nome 113" x1="1579.97" y1="890.89" x2="1629.5" y2="890.89" xlink:href="#Sfumatura_senza_nome_113"/>
    <linearGradient id="Sfumatura_senza_nome_113-80" data-name="Sfumatura senza nome 113" x1="1579.97" y1="907.33" x2="1629.5" y2="907.33" xlink:href="#Sfumatura_senza_nome_113"/>
    <linearGradient id="Sfumatura_senza_nome_11-20" data-name="Sfumatura senza nome 11" x1="1403.54" y1="954.25" x2="1652.93" y2="954.25" xlink:href="#Sfumatura_senza_nome_11"/>
    <linearGradient id="Sfumatura_senza_nome_113-81" data-name="Sfumatura senza nome 113" x1="1424.14" y1="954.25" x2="1440.59" y2="954.25" xlink:href="#Sfumatura_senza_nome_113"/>
    <linearGradient id="Sfumatura_senza_nome_113-82" data-name="Sfumatura senza nome 113" x1="1458.45" y1="954.25" x2="1474.9" y2="954.25" xlink:href="#Sfumatura_senza_nome_113"/>
    <linearGradient id="Sfumatura_senza_nome_113-83" data-name="Sfumatura senza nome 113" x1="1492.76" y1="954.25" x2="1509.2" y2="954.25" xlink:href="#Sfumatura_senza_nome_113"/>
    <linearGradient id="Sfumatura_senza_nome_113-84" data-name="Sfumatura senza nome 113" x1="1552.34" y1="946.03" x2="1572.38" y2="946.03" xlink:href="#Sfumatura_senza_nome_113"/>
    <linearGradient id="Sfumatura_senza_nome_113-85" data-name="Sfumatura senza nome 113" x1="1552.34" y1="962.47" x2="1572.38" y2="962.47" xlink:href="#Sfumatura_senza_nome_113"/>
    <linearGradient id="Sfumatura_senza_nome_113-86" data-name="Sfumatura senza nome 113" x1="1580.31" y1="946.03" x2="1629.84" y2="946.03" xlink:href="#Sfumatura_senza_nome_113"/>
    <linearGradient id="Sfumatura_senza_nome_113-87" data-name="Sfumatura senza nome 113" x1="1580.31" y1="962.47" x2="1629.84" y2="962.47" xlink:href="#Sfumatura_senza_nome_113"/>
  </defs>
  <g>
    <path class="cls-24" d="M1639.86,1695.79v-123.82c0-3.69-2.99-6.68-6.68-6.68h-216.76c-3.69,0-6.68,2.99-6.68,6.68v123.82c0,3.69-2.99,6.68-6.68,6.68h-10.45c-3.69,0-6.68,2.99-6.68,6.68v12.37c0,3.69,2.99,6.68,6.68,6.68h264.37c3.69,0,6.68-2.99,6.68-6.68v-12.37c0-3.69-2.99-6.68-6.68-6.68h-10.45c-3.69,0-6.68-2.99-6.68-6.68Z"/>
    <rect class="cls-114" x="1420.79" y="1576.71" width="208.02" height="125.84" rx="3.51" ry="3.51"/>
  </g>
  <g>
    <line class="cls-3" x1="590.42" y1="1121.13" x2="605.42" y2="1121.13"/>
    <line class="cls-22" x1="634" y1="1121.13" x2="1134.04" y2="1121.13"/>
    <line class="cls-2" x1="1148.32" y1="1121.13" x2="1163.32" y2="1121.13"/>
    <path class="cls-112" d="M560.25,1121.13c14.2,5.27,31.82,14.26,42.74,23.78l-8.6-23.78,8.6-23.77c-10.92,9.52-28.54,18.51-42.74,23.77Z"/>
  </g>
  <g>
    <line class="cls-1" x1="560.25" y1="1091.17" x2="1133.15" y2="1091.17"/>
    <path class="cls-100" d="M1163.32,1091.17c-14.2,5.27-31.82,14.26-42.74,23.78l8.6-23.78-8.6-23.77c10.92,9.52,28.54,18.51,42.74,23.77Z"/>
  </g>
  <g>
    <line class="cls-4" x1="590.42" y1="1612.98" x2="605.42" y2="1612.98"/>
    <line class="cls-9" x1="634.61" y1="1612.98" x2="911.88" y2="1612.98"/>
    <polyline class="cls-5" points="926.47 1612.98 941.47 1612.98 941.47 1597.98"/>
    <line class="cls-10" x1="941.47" y1="1565.85" x2="941.47" y2="1260.68"/>
    <polyline class="cls-16" points="941.47 1244.62 941.47 1229.62 956.47 1229.62"/>
    <line class="cls-18" x1="983.88" y1="1229.62" x2="1134.62" y2="1229.62"/>
    <line class="cls-14" x1="1148.32" y1="1229.62" x2="1163.32" y2="1229.62"/>
    <path class="cls-34" d="M560.25,1612.98c14.2,5.27,31.82,14.26,42.74,23.78l-8.6-23.78,8.6-23.77c-10.92,9.52-28.54,18.51-42.74,23.77Z"/>
  </g>
  <g>
    <polyline class="cls-6" points="560.25 1641.85 981.47 1641.85 981.47 1258.64 1133.15 1258.64"/>
    <path class="cls-98" d="M1163.32,1258.64c-14.2,5.27-31.82,14.26-42.74,23.78l8.6-23.78-8.6-23.77c10.92,9.52,28.54,18.51,42.74,23.77Z"/>
  </g>
  <g>
    <line class="cls-12" x1="590.42" y1="621.79" x2="605.42" y2="621.79"/>
    <line class="cls-21" x1="634.61" y1="621.79" x2="911.88" y2="621.79"/>
    <polyline class="cls-15" points="926.47 621.79 941.47 621.79 941.47 636.79"/>
    <line class="cls-8" x1="941.47" y1="669.13" x2="941.47" y2="976.37"/>
    <polyline class="cls-13" points="941.47 992.54 941.47 1007.54 956.47 1007.54"/>
    <line class="cls-17" x1="983.88" y1="1007.54" x2="1134.62" y2="1007.54"/>
    <line class="cls-11" x1="1148.32" y1="1007.54" x2="1163.32" y2="1007.54"/>
    <path class="cls-38" d="M560.25,621.79c14.2,5.27,31.82,14.26,42.74,23.78l-8.6-23.78,8.6-23.77c-10.92,9.52-28.54,18.51-42.74,23.77Z"/>
  </g>
  <g>
    <polyline class="cls-7" points="560.25 590.37 981.47 590.37 981.47 976.12 1133.15 976.12"/>
    <path class="cls-99" d="M1163.32,976.12c-14.2,5.27-31.82,14.26-42.74,23.78l8.6-23.78-8.6-23.77c10.92,9.52,28.54,18.51,42.74,23.77Z"/>
  </g>
  <g>
    <line class="cls-19" x1="1527.41" y1="1530.85" x2="1527.41" y2="1513.11"/>
    <line class="cls-23" x1="1527.41" y1="1475.16" x2="1527.41" y2="1342.33"/>
    <line class="cls-20" x1="1527.41" y1="1323.35" x2="1527.41" y2="1305.62"/>
    <path class="cls-36" d="M1527.41,1566.53c6.23-16.79,16.86-37.62,28.12-50.53l-28.12,10.17-28.11-10.17c11.26,12.91,21.89,33.74,28.11,50.53Z"/>
    <path class="cls-37" d="M1527.41,1269.94c6.23,16.79,16.86,37.62,28.12,50.53l-28.12-10.17-28.11,10.17c11.26-12.91,21.89-33.74,28.11-50.53Z"/>
  </g>
  <g>
    <path class="cls-32" d="M1509.75,1611.21l-29.12,15.39,29.12,15.3v5.77l-34.58-18.48v-5.35l34.58-18.31v5.69Z"/>
    <path class="cls-31" d="M1512.3,1653.94l18.07-66.56,4.75,1.84-18.07,66.56-4.75-1.84Z"/>
    <path class="cls-30" d="M1572.32,1623.84v5.35l-34.58,18.48v-5.77l29.12-15.3-29.12-15.39v-5.69l34.58,18.31Z"/>
  </g>
  <g>
    <path class="cls-40" d="M1371.46,631.47h18.24v3.06h-14.85v10.78h14.01v3.06h-14.01v14.37h-3.39v-31.27Z"/>
    <path class="cls-39" d="M1410.91,652.5h-14.89c.11,2.51.75,4.41,1.92,5.7,1.17,1.29,2.83,1.93,4.98,1.93,2.37,0,4.54-.86,6.53-2.57l1.13,2.62c-.89.89-2.04,1.59-3.43,2.11-1.39.52-2.82.78-4.27.78-3.18,0-5.68-.99-7.51-2.97-1.83-1.98-2.74-4.72-2.74-8.21,0-2.22.4-4.18,1.21-5.88.81-1.7,1.94-3.02,3.41-3.97,1.46-.95,3.13-1.42,5-1.42,2.71,0,4.83.94,6.36,2.82,1.53,1.88,2.3,4.46,2.3,7.74v1.33ZM1398,645.18c-1.07,1.18-1.71,2.85-1.9,5.01h11.84c-.06-2.19-.57-3.87-1.55-5.03-.98-1.17-2.34-1.75-4.1-1.75s-3.21.59-4.29,1.77Z"/>
    <path class="cls-35" d="M1433.95,631.47v31.27h-3.39v-3.95c-.61,1.36-1.51,2.41-2.7,3.15-1.19.74-2.57,1.11-4.16,1.11-1.79,0-3.36-.47-4.73-1.42-1.37-.95-2.43-2.27-3.18-3.97-.75-1.7-1.13-3.67-1.13-5.92s.38-4.17,1.13-5.86c.75-1.69,1.81-2.99,3.18-3.9,1.37-.92,2.94-1.38,4.73-1.38,1.59,0,2.98.37,4.16,1.11,1.18.74,2.08,1.79,2.7,3.15v-13.4h3.39ZM1428.96,657.93c1.07-1.43,1.61-3.47,1.61-6.1s-.54-4.66-1.61-6.08c-1.07-1.42-2.6-2.13-4.58-2.13s-3.52.71-4.62,2.13c-1.1,1.42-1.65,3.42-1.65,5.99s.55,4.68,1.65,6.14c1.1,1.46,2.64,2.2,4.62,2.2s3.51-.72,4.58-2.15Z"/>
    <path class="cls-33" d="M1457.3,652.5h-14.89c.11,2.51.75,4.41,1.92,5.7,1.17,1.29,2.83,1.93,4.98,1.93,2.37,0,4.54-.86,6.53-2.57l1.13,2.62c-.89.89-2.04,1.59-3.43,2.11-1.39.52-2.82.78-4.27.78-3.18,0-5.68-.99-7.51-2.97-1.83-1.98-2.74-4.72-2.74-8.21,0-2.22.4-4.18,1.21-5.88.81-1.7,1.94-3.02,3.41-3.97,1.46-.95,3.13-1.42,5-1.42,2.71,0,4.83.94,6.36,2.82,1.53,1.88,2.3,4.46,2.3,7.74v1.33ZM1444.39,645.18c-1.07,1.18-1.71,2.85-1.9,5.01h11.84c-.06-2.19-.57-3.87-1.55-5.03-.98-1.17-2.34-1.75-4.1-1.75s-3.21.59-4.29,1.77Z"/>
    <path class="cls-46" d="M1473.82,643.71l-2.22.22c-2.09.21-3.6.9-4.54,2.08-.93,1.18-1.4,2.65-1.4,4.39v12.33h-3.39v-21.6h3.3v3.77c1.14-2.51,3.39-3.92,6.73-4.21l1.21-.09.29,3.1Z"/>
    <path class="cls-47" d="M1490.95,642.71c1.27,1.41,1.9,3.54,1.9,6.41v13.62h-3.3v-3.68c-.53,1.27-1.34,2.26-2.43,2.95-1.09.7-2.34,1.04-3.76,1.04-1.31,0-2.52-.28-3.62-.84-1.1-.56-1.97-1.35-2.61-2.35-.64-1-.96-2.11-.96-3.33,0-1.63.39-2.89,1.17-3.79.78-.9,2.06-1.55,3.85-1.95,1.78-.4,4.27-.6,7.45-.6h.92v-1.46c0-1.8-.35-3.11-1.05-3.93-.7-.81-1.83-1.22-3.39-1.22-2.34,0-4.67.77-6.99,2.31l-1.13-2.62c1.06-.8,2.34-1.44,3.83-1.93,1.49-.49,2.93-.73,4.33-.73,2.59,0,4.52.7,5.79,2.11ZM1487.94,658.42c1.07-1.2,1.61-2.74,1.61-4.64v-1.29h-.75c-2.46,0-4.32.11-5.61.33-1.28.22-2.2.59-2.74,1.11-.54.52-.82,1.28-.82,2.28,0,1.15.4,2.11,1.19,2.86.79.75,1.79,1.13,2.99,1.13,1.67,0,3.05-.6,4.12-1.8Z"/>
    <path class="cls-44" d="M1509.84,660.04l-.17,2.84c-.64.12-1.34.18-2.09.18-2.45,0-4.3-.68-5.54-2.04-1.24-1.36-1.86-3.25-1.86-5.68v-11.36h-3.97v-2.84h3.97v-6.57h3.39v6.57h5.77v2.84h-5.77v11.09c0,3.4,1.48,5.1,4.43,5.1.61,0,1.23-.04,1.84-.13Z"/>
    <path class="cls-45" d="M1517.03,631.78v4.04h-4.1v-4.04h4.1ZM1513.27,641.14h3.39v21.6h-3.39v-21.6Z"/>
    <path class="cls-42" d="M1526.34,661.68c-1.46-.92-2.59-2.23-3.39-3.93-.79-1.7-1.19-3.67-1.19-5.92s.4-4.22,1.19-5.92c.79-1.7,1.92-3.01,3.39-3.93,1.46-.92,3.16-1.38,5.08-1.38s3.62.46,5.1,1.38c1.48.92,2.61,2.23,3.41,3.93.79,1.7,1.19,3.68,1.19,5.92s-.4,4.22-1.19,5.92c-.79,1.7-1.93,3.01-3.41,3.93-1.48.92-3.18,1.38-5.1,1.38s-3.62-.46-5.08-1.38ZM1536.04,657.97c1.07-1.4,1.61-3.45,1.61-6.14s-.54-4.66-1.63-6.1c-1.09-1.43-2.62-2.15-4.6-2.15s-3.51.72-4.6,2.15c-1.09,1.43-1.63,3.47-1.63,6.1s.54,4.7,1.61,6.12c1.07,1.42,2.61,2.13,4.62,2.13s3.55-.7,4.62-2.11Z"/>
    <path class="cls-43" d="M1563.76,649.17v13.57h-3.39v-13.35c0-2.01-.37-3.47-1.11-4.39-.74-.92-1.92-1.38-3.54-1.38-1.87,0-3.36.61-4.48,1.82-1.12,1.21-1.67,2.85-1.67,4.92v12.38h-3.39v-21.6h3.35v3.55c.67-1.33,1.6-2.34,2.8-3.04,1.2-.69,2.57-1.04,4.1-1.04,4.88,0,7.32,2.85,7.32,8.56Z"/>
    <path class="cls-48" d="M1579.48,660.26l1.13-2.66c1.09.92,2.2,1.57,3.33,1.97,1.13.4,2.41.6,3.83.6,1.51,0,2.66-.27,3.45-.82.79-.55,1.19-1.34,1.19-2.37,0-.86-.27-1.54-.79-2.04-.53-.5-1.41-.9-2.64-1.2l-3.43-.84c-1.73-.41-3.05-1.12-3.97-2.13-.92-1.01-1.38-2.25-1.38-3.73,0-1.92.71-3.47,2.13-4.66,1.42-1.18,3.32-1.77,5.69-1.77,1.42,0,2.77.24,4.06.73,1.28.49,2.36,1.19,3.22,2.11l-1.13,2.62c-1.87-1.69-3.92-2.53-6.15-2.53-1.42,0-2.53.29-3.33.86-.79.58-1.19,1.38-1.19,2.42,0,.86.24,1.55.73,2.06.49.52,1.28.91,2.36,1.18l3.47.89c1.9.47,3.3,1.19,4.22,2.15.92.96,1.38,2.21,1.38,3.75,0,1.89-.72,3.4-2.15,4.52-1.44,1.12-3.4,1.69-5.88,1.69-3.43,0-6.15-.93-8.16-2.79Z"/>
    <path class="cls-49" d="M1617.88,652.5h-14.89c.11,2.51.75,4.41,1.92,5.7,1.17,1.29,2.83,1.93,4.98,1.93,2.37,0,4.54-.86,6.53-2.57l1.13,2.62c-.89.89-2.04,1.59-3.43,2.11-1.39.52-2.82.78-4.27.78-3.18,0-5.68-.99-7.51-2.97-1.83-1.98-2.74-4.72-2.74-8.21,0-2.22.4-4.18,1.21-5.88.81-1.7,1.94-3.02,3.41-3.97,1.46-.95,3.13-1.42,5-1.42,2.71,0,4.83.94,6.36,2.82,1.53,1.88,2.3,4.46,2.3,7.74v1.33ZM1604.98,645.18c-1.07,1.18-1.71,2.85-1.9,5.01h11.84c-.06-2.19-.57-3.87-1.55-5.03-.98-1.17-2.34-1.75-4.1-1.75s-3.21.59-4.29,1.77Z"/>
    <path class="cls-41" d="M1634.41,643.71l-2.22.22c-2.09.21-3.6.9-4.54,2.08-.93,1.18-1.4,2.65-1.4,4.39v12.33h-3.39v-21.6h3.3v3.77c1.14-2.51,3.39-3.92,6.73-4.21l1.21-.09.29,3.1Z"/>
    <path class="cls-67" d="M1656.87,641.18l-8.79,21.56h-3.18l-8.74-21.56h3.6l6.82,17.65,6.9-17.65h3.39Z"/>
    <path class="cls-61" d="M1677.2,652.5h-14.89c.11,2.51.75,4.41,1.92,5.7,1.17,1.29,2.83,1.93,4.98,1.93,2.37,0,4.54-.86,6.53-2.57l1.13,2.62c-.89.89-2.04,1.59-3.43,2.11-1.39.52-2.82.78-4.27.78-3.18,0-5.68-.99-7.51-2.97-1.83-1.98-2.74-4.72-2.74-8.21,0-2.22.4-4.18,1.21-5.88.81-1.7,1.94-3.02,3.41-3.97,1.46-.95,3.13-1.42,5-1.42,2.71,0,4.83.94,6.36,2.82,1.53,1.88,2.3,4.46,2.3,7.74v1.33ZM1664.3,645.18c-1.07,1.18-1.71,2.85-1.9,5.01h11.84c-.06-2.19-.57-3.87-1.55-5.03-.98-1.17-2.34-1.75-4.1-1.75s-3.21.59-4.29,1.77Z"/>
    <path class="cls-62" d="M1693.72,643.71l-2.22.22c-2.09.21-3.6.9-4.54,2.08-.93,1.18-1.4,2.65-1.4,4.39v12.33h-3.39v-21.6h3.3v3.77c1.14-2.51,3.39-3.92,6.73-4.21l1.21-.09.29,3.1Z"/>
  </g>
  <g>
    <path class="cls-27" d="M1501.97,1668.62v20.95h-3.36v-3.57c-.65,1.26-1.57,2.22-2.74,2.88-1.18.66-2.5.99-3.98.99-2.47,0-4.33-.69-5.57-2.09-1.25-1.39-1.87-3.45-1.87-6.17v-12.99h3.45v12.91c0,1.86.37,3.23,1.11,4.11.74.88,1.9,1.31,3.49,1.31,1.81,0,3.28-.59,4.38-1.79,1.11-1.19,1.66-2.76,1.66-4.71v-11.83h3.45Z"/>
    <path class="cls-28" d="M1507.12,1687.16l1.15-2.58c1.11.89,2.23,1.53,3.38,1.91s2.45.58,3.89.58c1.53,0,2.7-.26,3.51-.8.81-.53,1.21-1.3,1.21-2.3,0-.83-.27-1.49-.81-1.98-.54-.49-1.43-.87-2.68-1.16l-3.49-.82c-1.76-.4-3.11-1.09-4.04-2.06-.94-.97-1.4-2.18-1.4-3.61,0-1.86.72-3.37,2.17-4.52,1.45-1.15,3.38-1.72,5.79-1.72,1.45,0,2.82.24,4.13.71,1.3.47,2.4,1.16,3.28,2.04l-1.15,2.54c-1.9-1.63-3.99-2.45-6.25-2.45-1.45,0-2.57.28-3.38.84-.81.56-1.21,1.34-1.21,2.34,0,.83.25,1.5.74,2,.5.5,1.3.88,2.4,1.14l3.53.86c1.93.46,3.36,1.15,4.3,2.09.94.93,1.4,2.14,1.4,3.64,0,1.84-.73,3.3-2.19,4.39-1.46,1.09-3.45,1.63-5.98,1.63-3.49,0-6.25-.9-8.3-2.71Z"/>
    <path class="cls-29" d="M1546.18,1679.63h-15.15c.11,2.44.77,4.28,1.96,5.53s2.88,1.87,5.06,1.87c2.41,0,4.62-.83,6.64-2.5l1.15,2.54c-.91.86-2.07,1.54-3.49,2.04-1.42.5-2.87.75-4.34.75-3.23,0-5.78-.96-7.64-2.88-1.86-1.92-2.79-4.57-2.79-7.96,0-2.15.41-4.05,1.23-5.7.82-1.65,1.98-2.93,3.47-3.85,1.49-.92,3.18-1.38,5.08-1.38,2.75,0,4.91.91,6.47,2.73,1.56,1.82,2.34,4.32,2.34,7.51v1.29ZM1533.05,1672.53c-1.09,1.15-1.74,2.77-1.94,4.86h12.04c-.06-2.12-.58-3.75-1.57-4.88-.99-1.13-2.38-1.7-4.17-1.7s-3.27.57-4.36,1.72Z"/>
    <path class="cls-25" d="M1562.98,1671.11l-2.25.22c-2.13.2-3.67.88-4.62,2.02-.95,1.15-1.43,2.57-1.43,4.26v11.96h-3.45v-20.95h3.36v3.66c1.16-2.44,3.45-3.8,6.85-4.09l1.23-.09.3,3.01Z"/>
  </g>
  <path class="cls-26" d="M1004.63,713.8c.05-2.75.09-6.65-.07-8.39-.79-8.28-8.55-14.19-16.64-14.49-8.57-.32-17.14,5.71-17.98,14.49-.17,1.74-.13,5.64-.07,8.39h-2.9c-1.24,0-2.25,1-2.25,2.25v36.86c0,1.24,1,2.25,2.25,2.25h40.57c1.24,0,2.25-1,2.25-2.25v-36.86c0-1.24-1-2.25-2.25-2.25h-2.9ZM990.16,740.98h-5.82l1.49-5.93c-1.07-.53-1.8-1.64-1.76-2.93.04-1.63,1.35-2.99,2.97-3.09,1.85-.12,3.39,1.35,3.39,3.18,0,1.25-.72,2.32-1.77,2.85l1.49,5.93h0ZM999.09,713.66h-23.53c-.89,0-1.61-.72-1.62-1.61-.02-1.89-.01-3.89.09-4.97.66-7.19,6.5-12.32,13.23-12.44,6.36-.11,12.77,5.65,13.38,12.44.1,1.08.1,3.08.08,4.97,0,.89-.73,1.61-1.62,1.61h0Z"/>
  <path class="cls-63" d="M957.1,763.8c.05-2.75.09-6.65-.07-8.39-.79-8.28-8.55-14.19-16.64-14.49-8.57-.32-17.14,5.71-17.98,14.49-.17,1.74-.13,5.64-.07,8.39h-2.9c-1.24,0-2.25,1-2.25,2.25v36.86c0,1.24,1,2.25,2.25,2.25h40.57c1.24,0,2.25-1,2.25-2.25v-36.86c0-1.24-1-2.25-2.25-2.25h-2.9ZM942.62,790.98h-5.82l1.49-5.93c-1.07-.53-1.8-1.64-1.76-2.93.04-1.63,1.35-2.99,2.97-3.09,1.85-.12,3.39,1.35,3.39,3.18,0,1.25-.72,2.32-1.77,2.85l1.49,5.93h0ZM951.56,763.66h-23.53c-.89,0-1.61-.72-1.62-1.61-.02-1.89-.01-3.89.09-4.97.66-7.19,6.5-12.32,13.23-12.44,6.36-.11,12.77,5.65,13.38,12.44.1,1.08.1,3.08.08,4.97,0,.89-.73,1.61-1.62,1.61h0Z"/>
  <path class="cls-102" d="M1005.25,1385.64c.05-2.75.09-6.65-.07-8.39-.79-8.28-8.55-14.19-16.64-14.49-8.57-.32-17.14,5.71-17.98,14.49-.17,1.74-.13,5.64-.07,8.39h-2.9c-1.24,0-2.25,1-2.25,2.25v36.86c0,1.24,1,2.25,2.25,2.25h40.57c1.24,0,2.25-1,2.25-2.25v-36.86c0-1.24-1-2.25-2.25-2.25h-2.9ZM990.78,1412.82h-5.82l1.49-5.93c-1.07-.53-1.8-1.64-1.76-2.93.04-1.63,1.35-2.99,2.97-3.09,1.85-.12,3.39,1.35,3.39,3.18,0,1.25-.72,2.32-1.77,2.85l1.49,5.93h0ZM999.71,1385.5h-23.53c-.89,0-1.61-.72-1.62-1.61-.02-1.89-.01-3.89.09-4.97.66-7.19,6.5-12.32,13.23-12.44,6.36-.11,12.77,5.65,13.38,12.44.1,1.08.1,3.08.08,4.97,0,.89-.73,1.61-1.62,1.61h0Z"/>
  <path class="cls-69" d="M957.72,1435.64c.05-2.75.09-6.65-.07-8.39-.79-8.28-8.55-14.19-16.64-14.49-8.57-.32-17.14,5.71-17.98,14.49-.17,1.74-.13,5.64-.07,8.39h-2.9c-1.24,0-2.25,1-2.25,2.25v36.86c0,1.24,1,2.25,2.25,2.25h40.57c1.24,0,2.25-1,2.25-2.25v-36.86c0-1.24-1-2.25-2.25-2.25h-2.9ZM943.25,1462.82h-5.82l1.49-5.93c-1.07-.53-1.8-1.64-1.76-2.93.04-1.63,1.35-2.99,2.97-3.09,1.85-.12,3.39,1.35,3.39,3.18,0,1.25-.72,2.32-1.77,2.85l1.49,5.93h0ZM952.18,1435.5h-23.53c-.89,0-1.61-.72-1.62-1.61-.02-1.89-.01-3.89.09-4.97.66-7.19,6.5-12.32,13.23-12.44,6.36-.11,12.77,5.65,13.38,12.44.1,1.08.1,3.08.08,4.97,0,.89-.73,1.61-1.62,1.61h0Z"/>
  <path class="cls-105" d="M1003.4,1059.1c.05-2.75.09-6.65-.07-8.39-.79-8.28-8.55-14.19-16.64-14.49-8.57-.32-17.14,5.71-17.98,14.49-.17,1.74-.13,5.64-.07,8.39h-2.9c-1.24,0-2.25,1-2.25,2.25v36.86c0,1.24,1,2.25,2.25,2.25h40.57c1.24,0,2.25-1,2.25-2.25v-36.86c0-1.24-1-2.25-2.25-2.25h-2.9ZM988.92,1086.28h-5.82l1.49-5.93c-1.07-.53-1.8-1.64-1.76-2.93.04-1.63,1.35-2.99,2.97-3.09,1.85-.12,3.39,1.35,3.39,3.18,0,1.25-.72,2.32-1.77,2.85l1.49,5.93h0ZM997.85,1058.96h-23.53c-.89,0-1.61-.72-1.62-1.61-.02-1.89-.01-3.89.09-4.97.66-7.19,6.5-12.32,13.23-12.44,6.36-.11,12.77,5.65,13.38,12.44.1,1.08.1,3.08.08,4.97,0,.89-.73,1.61-1.62,1.61h0Z"/>
  <path class="cls-70" d="M955.86,1109.1c.05-2.75.09-6.65-.07-8.39-.79-8.28-8.55-14.19-16.64-14.49-8.57-.32-17.14,5.71-17.98,14.49-.17,1.74-.13,5.64-.07,8.39h-2.9c-1.24,0-2.25,1-2.25,2.25v36.86c0,1.24,1,2.25,2.25,2.25h40.57c1.24,0,2.25-1,2.25-2.25v-36.86c0-1.24-1-2.25-2.25-2.25h-2.9ZM941.39,1136.28h-5.82l1.49-5.93c-1.07-.53-1.8-1.64-1.76-2.93.04-1.63,1.35-2.99,2.97-3.09,1.85-.12,3.39,1.35,3.39,3.18,0,1.25-.72,2.32-1.77,2.85l1.49,5.93h0ZM950.32,1108.96h-23.53c-.89,0-1.61-.72-1.62-1.61-.02-1.89-.01-3.89.09-4.97.66-7.19,6.5-12.32,13.23-12.44,6.36-.11,12.77,5.65,13.38,12.44.1,1.08.1,3.08.08,4.97,0,.89-.73,1.61-1.62,1.61h0Z"/>
  <path class="cls-71" d="M1544.8,1405.46c.05-2.75.09-6.65-.07-8.39-.79-8.28-8.55-14.19-16.64-14.49-8.57-.32-17.14,5.71-17.98,14.49-.17,1.74-.13,5.64-.07,8.39h-2.9c-1.24,0-2.25,1-2.25,2.25v36.86c0,1.24,1,2.25,2.25,2.25h40.57c1.24,0,2.25-1,2.25-2.25v-36.86c0-1.24-1-2.25-2.25-2.25h-2.9ZM1530.32,1432.65h-5.82l1.49-5.93c-1.07-.53-1.8-1.64-1.76-2.93.04-1.63,1.35-2.99,2.97-3.09,1.85-.12,3.39,1.35,3.39,3.18,0,1.25-.72,2.32-1.77,2.85l1.49,5.93h0ZM1539.25,1405.32h-23.53c-.89,0-1.61-.72-1.62-1.61-.02-1.89-.01-3.89.09-4.97.66-7.19,6.5-12.32,13.23-12.44,6.36-.11,12.77,5.65,13.38,12.44.1,1.08.1,3.08.08,4.97,0,.89-.73,1.61-1.62,1.61h0Z"/>
  <g>
    <path class="cls-72" d="M293.93,334.96v13.2h-3.19v-12.98c0-1.96-.35-3.38-1.04-4.27-.7-.9-1.81-1.34-3.33-1.34-1.77,0-3.17.59-4.22,1.77-1.05,1.18-1.58,2.77-1.58,4.78v12.04h-3.19v-21.01h3.15v3.45c.63-1.29,1.51-2.27,2.64-2.95,1.13-.68,2.42-1.01,3.87-1.01,4.59,0,6.89,2.77,6.89,8.32Z"/>
    <path class="cls-68" d="M388.29,317.75h-2.8l-12.22,30.41h3.31l3.08-7.81h14.5l3.07,7.81h3.27l-12.21-30.41ZM380.8,337.42l6.11-15.57,6.11,15.57h-12.22Z"/>
    <path class="cls-60" d="M352.5,326.64c-1.76,0-3.33.46-4.71,1.38-1.38.92-2.45,2.2-3.21,3.86-.77,1.65-1.15,3.55-1.15,5.71,0,3.39.86,6.05,2.59,7.98,1.72,1.93,4.07,2.89,7.07,2.89,1.37,0,2.71-.25,4.02-.76,1.31-.5,2.39-1.18,3.23-2.04l-1.06-2.55c-1.87,1.67-3.92,2.5-6.15,2.5-2.02,0-3.59-.62-4.69-1.87-1.1-1.25-1.71-3.1-1.81-5.55h14.03v-1.29c0-3.19-.73-5.7-2.17-7.53-1.45-1.82-3.44-2.73-5.99-2.73ZM346.7,335.95c.19-2.1.79-3.72,1.8-4.87,1.01-1.15,2.36-1.73,4.04-1.73s2.94.57,3.86,1.71c.92,1.13,1.41,2.76,1.46,4.89h-11.16Z"/>
    <path class="cls-79" d="M312.54,327.97c-1.4-.89-3-1.33-4.81-1.33s-3.41.44-4.79,1.33c-1.38.89-2.45,2.17-3.19,3.82-.75,1.65-1.13,3.57-1.13,5.76s.38,4.1,1.13,5.76c.74,1.65,1.81,2.92,3.19,3.81,1.38.89,2.97,1.34,4.79,1.34s3.41-.45,4.81-1.34c1.39-.89,2.46-2.16,3.21-3.81.75-1.66,1.12-3.58,1.12-5.76s-.37-4.11-1.12-5.76-1.82-2.93-3.21-3.82ZM312.08,343.52c-1.01,1.37-2.46,2.05-4.35,2.05s-3.35-.69-4.36-2.07c-1.01-1.38-1.52-3.36-1.52-5.95s.52-4.54,1.54-5.93c1.03-1.4,2.47-2.09,4.34-2.09s3.31.69,4.33,2.09c1.03,1.39,1.54,3.37,1.54,5.93s-.51,4.61-1.52,5.97Z"/>
    <path class="cls-64" d="M335.47,330.78c-.57-1.33-1.42-2.35-2.54-3.07-1.12-.71-2.42-1.07-3.92-1.07-1.68,0-3.17.44-4.45,1.33-1.29.89-2.29,2.16-3,3.8s-1.06,3.53-1.06,5.69.35,4.11,1.06,5.76c.71,1.65,1.71,2.94,3,3.86,1.28.92,2.77,1.38,4.45,1.38,1.5,0,2.8-.36,3.92-1.08,1.12-.72,1.97-1.74,2.54-3.06v3.84h3.2v-30.41h-3.2v13.03ZM333.96,343.48c-1.02,1.39-2.45,2.09-4.32,2.09s-3.32-.71-4.35-2.14c-1.04-1.42-1.56-3.41-1.56-5.97s.52-4.44,1.56-5.82c1.03-1.38,2.48-2.07,4.35-2.07s3.3.69,4.32,2.07c1.01,1.38,1.51,3.35,1.51,5.91s-.5,4.53-1.51,5.93Z"/>
  </g>
  <g>
    <path class="cls-75" d="M297.63,849.68v13.2h-3.19v-12.98c0-1.95-.35-3.38-1.04-4.27-.7-.89-1.81-1.34-3.33-1.34-1.76,0-3.17.59-4.22,1.77-1.05,1.18-1.58,2.78-1.58,4.79v12.03h-3.19v-21h3.15v3.45c.63-1.29,1.51-2.28,2.64-2.95,1.13-.68,2.42-1.01,3.86-1.01,4.6,0,6.9,2.78,6.9,8.32Z"/>
    <path class="cls-73" d="M306.64,861.85c-1.38-.89-2.44-2.16-3.19-3.82-.75-1.65-1.12-3.57-1.12-5.76s.37-4.1,1.12-5.76c.75-1.65,1.81-2.93,3.19-3.82,1.38-.89,2.98-1.34,4.79-1.34s3.42.45,4.81,1.34c1.39.89,2.46,2.16,3.21,3.82.75,1.65,1.12,3.57,1.12,5.76s-.38,4.1-1.12,5.76c-.75,1.65-1.82,2.93-3.21,3.82-1.39.89-3,1.34-4.81,1.34s-3.41-.45-4.79-1.34ZM315.78,858.25c1.01-1.37,1.52-3.36,1.52-5.97s-.51-4.54-1.54-5.93c-1.02-1.39-2.47-2.09-4.33-2.09s-3.31.7-4.34,2.09c-1.02,1.4-1.54,3.37-1.54,5.93s.51,4.57,1.52,5.95c1.01,1.38,2.46,2.07,4.36,2.07s3.34-.68,4.35-2.05Z"/>
    <path class="cls-66" d="M342.36,832.48v30.41h-3.19v-3.84c-.58,1.32-1.43,2.34-2.54,3.06-1.12.72-2.42,1.08-3.92,1.08-1.68,0-3.17-.46-4.45-1.38-1.29-.92-2.29-2.21-3-3.86-.71-1.65-1.06-3.57-1.06-5.76s.35-4.05,1.06-5.69c.71-1.64,1.71-2.9,3-3.8,1.29-.89,2.77-1.34,4.45-1.34,1.5,0,2.8.36,3.92,1.08,1.12.72,1.96,1.74,2.54,3.06v-13.03h3.19ZM337.65,858.2c1.01-1.39,1.52-3.37,1.52-5.93s-.51-4.53-1.52-5.91-2.45-2.07-4.32-2.07-3.32.69-4.36,2.07-1.56,3.32-1.56,5.82.52,4.55,1.56,5.97c1.04,1.42,2.49,2.13,4.36,2.13s3.3-.7,4.32-2.09Z"/>
    <path class="cls-74" d="M364.36,852.92h-14.03c.1,2.44.71,4.29,1.81,5.54,1.1,1.25,2.67,1.88,4.69,1.88,2.23,0,4.28-.83,6.15-2.5l1.06,2.54c-.84.86-1.92,1.55-3.23,2.05-1.31.5-2.65.75-4.02.75-3,0-5.35-.96-7.08-2.89-1.72-1.93-2.58-4.59-2.58-7.98,0-2.16.38-4.06,1.14-5.71.76-1.65,1.83-2.94,3.21-3.86,1.38-.92,2.95-1.38,4.71-1.38,2.55,0,4.55.91,5.99,2.74,1.44,1.83,2.17,4.33,2.17,7.53v1.29ZM352.2,845.8c-1.01,1.15-1.61,2.78-1.79,4.87h11.15c-.05-2.13-.54-3.76-1.46-4.9-.92-1.14-2.21-1.7-3.86-1.7s-3.03.58-4.04,1.73Z"/>
    <path class="cls-77" d="M399.18,849.86c.88,1.27,1.32,2.85,1.32,4.74,0,2.67-.8,4.72-2.4,6.15-1.6,1.42-3.88,2.13-6.82,2.13h-11.59v-30.41h11.15c2.86,0,5.08.69,6.66,2.07,1.58,1.38,2.36,3.34,2.36,5.87,0,1.64-.39,3.05-1.16,4.23-.78,1.18-1.86,2.06-3.25,2.63,1.6.46,2.84,1.32,3.72,2.59ZM382.88,845.98h7.49c2.08,0,3.65-.46,4.71-1.38,1.06-.92,1.6-2.26,1.6-4.01,0-3.45-2.1-5.18-6.31-5.18h-7.49v10.57ZM395.79,858.63c1.04-.88,1.56-2.25,1.56-4.12,0-3.74-2.13-5.61-6.38-5.61h-8.08v11.04h8.08c2.18,0,3.79-.44,4.83-1.32Z"/>
  </g>
  <g>
    <path class="cls-65" d="M296.05,1364.76v13.2h-3.19v-12.98c0-1.96-.35-3.38-1.04-4.27-.7-.89-1.81-1.34-3.33-1.34-1.76,0-3.17.59-4.22,1.77-1.05,1.18-1.58,2.78-1.58,4.79v12.03h-3.19v-21h3.15v3.45c.63-1.29,1.51-2.28,2.64-2.95,1.13-.68,2.42-1.01,3.86-1.01,4.6,0,6.9,2.78,6.9,8.32Z"/>
    <path class="cls-76" d="M305.06,1376.92c-1.38-.89-2.44-2.16-3.19-3.82-.75-1.65-1.12-3.57-1.12-5.76s.37-4.1,1.12-5.76c.75-1.65,1.81-2.93,3.19-3.82,1.38-.89,2.98-1.34,4.79-1.34s3.42.45,4.81,1.34c1.39.89,2.46,2.16,3.21,3.82.75,1.65,1.12,3.57,1.12,5.76s-.38,4.1-1.12,5.76c-.75,1.65-1.82,2.93-3.21,3.82-1.39.89-3,1.34-4.81,1.34s-3.41-.45-4.79-1.34ZM314.2,1373.32c1.01-1.37,1.52-3.36,1.52-5.97s-.51-4.54-1.54-5.93c-1.02-1.39-2.47-2.09-4.33-2.09s-3.31.7-4.34,2.09c-1.02,1.4-1.54,3.37-1.54,5.93s.51,4.57,1.52,5.95c1.01,1.38,2.46,2.07,4.36,2.07s3.34-.68,4.35-2.05Z"/>
    <path class="cls-78" d="M340.79,1347.55v30.41h-3.19v-3.84c-.58,1.32-1.43,2.34-2.54,3.06-1.12.72-2.42,1.08-3.92,1.08-1.68,0-3.17-.46-4.45-1.38-1.29-.92-2.29-2.21-3-3.86-.71-1.65-1.06-3.57-1.06-5.76s.35-4.05,1.06-5.69c.71-1.64,1.71-2.9,3-3.8,1.29-.89,2.77-1.34,4.45-1.34,1.5,0,2.8.36,3.92,1.08,1.12.72,1.96,1.74,2.54,3.06v-13.03h3.19ZM336.08,1373.27c1.01-1.39,1.52-3.37,1.52-5.93s-.51-4.53-1.52-5.91c-1.01-1.38-2.45-2.07-4.32-2.07s-3.32.69-4.36,2.07c-1.04,1.38-1.56,3.32-1.56,5.82s.52,4.55,1.56,5.97,2.49,2.13,4.36,2.13,3.3-.7,4.32-2.09Z"/>
    <path class="cls-84" d="M362.78,1367.99h-14.03c.1,2.44.71,4.29,1.81,5.54,1.1,1.25,2.67,1.88,4.69,1.88,2.23,0,4.28-.83,6.15-2.5l1.06,2.54c-.84.86-1.92,1.55-3.23,2.05-1.31.5-2.65.75-4.02.75-3,0-5.35-.96-7.08-2.89-1.72-1.93-2.58-4.59-2.58-7.98,0-2.16.38-4.06,1.14-5.71.76-1.65,1.83-2.94,3.21-3.86,1.38-.92,2.95-1.38,4.71-1.38,2.55,0,4.55.91,5.99,2.74,1.44,1.83,2.17,4.33,2.17,7.53v1.29ZM350.62,1360.87c-1.01,1.15-1.61,2.78-1.79,4.87h11.15c-.05-2.13-.54-3.76-1.46-4.9-.92-1.14-2.21-1.7-3.86-1.7s-3.03.58-4.04,1.73Z"/>
    <path class="cls-86" d="M383.12,1376.42c-1.95-1.25-3.44-3.05-4.47-5.39-1.04-2.34-1.56-5.11-1.56-8.3s.52-5.95,1.56-8.28c1.04-2.33,2.53-4.12,4.47-5.37,1.94-1.25,4.23-1.88,6.86-1.88,1.92,0,3.68.32,5.28.97,1.6.65,3,1.6,4.18,2.87l-1.22,2.72c-1.34-1.24-2.65-2.13-3.94-2.67-1.29-.55-2.71-.82-4.26-.82-3.05,0-5.41,1.09-7.08,3.26-1.67,2.17-2.5,5.24-2.5,9.21s.83,7.08,2.5,9.25c1.67,2.17,4.03,3.26,7.08,3.26,1.55,0,2.97-.27,4.26-.82,1.29-.55,2.6-1.44,3.94-2.67l1.22,2.72c-1.18,1.27-2.58,2.22-4.18,2.87-1.6.65-3.36.97-5.28.97-2.63,0-4.91-.63-6.86-1.88Z"/>
  </g>
  <g>
    <path class="cls-113" d="M560.24,511.75v184.07c0,2.83-2.29,5.12-5.12,5.12H121.33c-2.83,0-5.12-2.29-5.12-5.12v-184.07c0-2.83,2.29-5.12,5.12-5.12h119.9v76.41c0,6.13,4.99,11.12,11.12,11.12h171.74c6.14,0,11.12-4.99,11.12-11.12v-76.41h119.9c2.83,0,5.12,2.29,5.12,5.12Z"/>
    <path class="cls-104" d="M466.06,425.96h-61.96v47.75c0,6.72-5.47,12.2-12.2,12.2h-107.33c-6.73,0-12.21-5.48-12.21-12.2v-47.75h-61.97c-2.82,0-5.12,2.29-5.12,5.12v264.74c0,2.82,2.29,5.12,5.12,5.12h255.66c2.83,0,5.12-2.29,5.12-5.12v-264.74c0-2.82-2.29-5.12-5.12-5.12Z"/>
    <path class="cls-116" d="M284.32,613.4h0c0,2.82,2.29,5.12,5.12,5.12h2.47c2.82,0,5.12,2.29,5.12,5.12v72.18c0,2.82,2.29,5.12,5.12,5.12h72.18c2.82,0,5.12-2.29,5.12-5.12v-72.18c0-2.82,2.29-5.12,5.12-5.12h2.47c2.82,0,5.12-2.29,5.12-5.12h0c0-2.82-2.29-5.12-5.12-5.12h-97.59c-2.82,0-5.12,2.29-5.12,5.12h0Z"/>
    <path class="cls-81" d="M391.9,375.01h-107.33c-1.77,0-3.2,1.43-3.2,3.19v95.51c0,1.77,1.44,3.19,3.2,3.19h107.33c1.77,0,3.19-1.43,3.19-3.19v-95.51c0-1.77-1.43-3.19-3.19-3.19ZM378.58,439.67c0,2.23-1.81,4.04-4.04,4.04h-14.52c-2.23,0-4.04,1.81-4.04,4.04v14.52c0,2.23-1.81,4.04-4.04,4.04h-27.44c-2.23,0-4.04-1.81-4.04-4.04v-14.52c0-2.23-1.81-4.04-4.04-4.04h-14.52c-2.23,0-4.04-1.81-4.04-4.04v-27.44c0-2.23,1.81-4.04,4.04-4.04h14.52c2.23,0,4.04-1.81,4.04-4.04v-14.52c0-2.23,1.81-4.04,4.04-4.04h27.44c2.23,0,4.04,1.81,4.04,4.04v14.52c0,2.23,1.81,4.04,4.04,4.04h14.52c2.23,0,4.04,1.81,4.04,4.04v27.44Z"/>
  </g>
  <g>
    <path class="cls-120" d="M557.73,1032.73v184.07c0,2.83-2.29,5.12-5.12,5.12H118.83c-2.83,0-5.12-2.29-5.12-5.12v-184.07c0-2.83,2.29-5.12,5.12-5.12h119.9v76.41c0,6.13,4.99,11.12,11.12,11.12h171.74c6.14,0,11.12-4.99,11.12-11.12v-76.41h119.9c2.83,0,5.12,2.29,5.12,5.12Z"/>
    <path class="cls-106" d="M463.55,946.95h-61.96v47.75c0,6.72-5.47,12.2-12.2,12.2h-107.33c-6.73,0-12.21-5.48-12.21-12.2v-47.75h-61.97c-2.82,0-5.12,2.29-5.12,5.12v264.74c0,2.82,2.29,5.12,5.12,5.12h255.66c2.83,0,5.12-2.29,5.12-5.12v-264.74c0-2.82-2.29-5.12-5.12-5.12Z"/>
    <path class="cls-121" d="M281.82,1134.39h0c0,2.82,2.29,5.12,5.12,5.12h2.47c2.82,0,5.12,2.29,5.12,5.12v72.18c0,2.82,2.29,5.12,5.12,5.12h72.18c2.82,0,5.12-2.29,5.12-5.12v-72.18c0-2.82,2.29-5.12,5.12-5.12h2.47c2.82,0,5.12-2.29,5.12-5.12h0c0-2.82-2.29-5.12-5.12-5.12h-97.59c-2.82,0-5.12,2.29-5.12,5.12h0Z"/>
    <path class="cls-85" d="M389.39,895.99h-107.33c-1.77,0-3.2,1.43-3.2,3.19v95.51c0,1.77,1.44,3.19,3.2,3.19h107.33c1.77,0,3.19-1.43,3.19-3.19v-95.51c0-1.77-1.43-3.19-3.19-3.19ZM376.08,960.66c0,2.23-1.81,4.04-4.04,4.04h-14.52c-2.23,0-4.04,1.81-4.04,4.04v14.52c0,2.23-1.81,4.04-4.04,4.04h-27.44c-2.23,0-4.04-1.81-4.04-4.04v-14.52c0-2.23-1.81-4.04-4.04-4.04h-14.52c-2.23,0-4.04-1.81-4.04-4.04v-27.44c0-2.23,1.81-4.04,4.04-4.04h14.52c2.23,0,4.04-1.81,4.04-4.04v-14.52c0-2.23,1.81-4.04,4.04-4.04h27.44c2.23,0,4.04,1.81,4.04,4.04v14.52c0,2.23,1.81,4.04,4.04,4.04h14.52c2.23,0,4.04,1.81,4.04,4.04v27.44Z"/>
  </g>
  <g>
    <path class="cls-119" d="M560.61,1551.64v184.07c0,2.83-2.29,5.12-5.12,5.12H121.7c-2.83,0-5.12-2.29-5.12-5.12v-184.07c0-2.83,2.29-5.12,5.12-5.12h119.9v76.41c0,6.13,4.99,11.12,11.12,11.12h171.74c6.14,0,11.12-4.99,11.12-11.12v-76.41h119.9c2.83,0,5.12,2.29,5.12,5.12Z"/>
    <path class="cls-110" d="M466.42,1465.85h-61.96v47.75c0,6.72-5.47,12.2-12.2,12.2h-107.33c-6.73,0-12.21-5.48-12.21-12.2v-47.75h-61.97c-2.82,0-5.12,2.29-5.12,5.12v264.74c0,2.82,2.29,5.12,5.12,5.12h255.66c2.83,0,5.12-2.29,5.12-5.12v-264.74c0-2.82-2.29-5.12-5.12-5.12Z"/>
    <path class="cls-115" d="M284.69,1653.29h0c0,2.82,2.29,5.12,5.12,5.12h2.47c2.82,0,5.12,2.29,5.12,5.12v72.18c0,2.82,2.29,5.12,5.12,5.12h72.18c2.82,0,5.12-2.29,5.12-5.12v-72.18c0-2.82,2.29-5.12,5.12-5.12h2.47c2.82,0,5.12-2.29,5.12-5.12h0c0-2.82-2.29-5.12-5.12-5.12h-97.59c-2.82,0-5.12,2.29-5.12,5.12h0Z"/>
    <path class="cls-80" d="M392.27,1414.9h-107.33c-1.77,0-3.2,1.43-3.2,3.19v95.51c0,1.77,1.44,3.19,3.2,3.19h107.33c1.77,0,3.19-1.43,3.19-3.19v-95.51c0-1.77-1.43-3.19-3.19-3.19ZM378.95,1479.57c0,2.23-1.81,4.04-4.04,4.04h-14.52c-2.23,0-4.04,1.81-4.04,4.04v14.52c0,2.23-1.81,4.04-4.04,4.04h-27.44c-2.23,0-4.04-1.81-4.04-4.04v-14.52c0-2.23-1.81-4.04-4.04-4.04h-14.52c-2.23,0-4.04-1.81-4.04-4.04v-27.44c0-2.23,1.81-4.04,4.04-4.04h14.52c2.23,0,4.04-1.81,4.04-4.04v-14.52c0-2.23,1.81-4.04,4.04-4.04h27.44c2.23,0,4.04,1.81,4.04,4.04v14.52c0,2.23,1.81,4.04,4.04,4.04h14.52c2.23,0,4.04,1.81,4.04,4.04v27.44Z"/>
  </g>
  <g>
    <g>
      <path class="cls-117" d="M1892.97,964.06v302.69c0,4.65-3.77,8.41-8.41,8.41h-713.33c-4.65,0-8.41-3.77-8.41-8.41v-302.69c0-4.65,3.77-8.41,8.41-8.41h197.17v125.65c0,10.08,8.2,18.29,18.29,18.29h282.42c10.09,0,18.29-8.2,18.29-18.29v-125.65h197.17c4.65,0,8.41,3.77,8.41,8.41Z"/>
      <path class="cls-103" d="M1317.69,694.64c-4.64,0-8.41,3.77-8.41,8.41v563.7c0,4.64,3.77,8.41,8.41,8.41h420.41c4.65,0,8.41-3.77,8.41-8.41v-563.7c0-4.64-3.76-8.41-8.41-8.41h-420.41ZM1687.4,1045.8c0,10.08-8.19,18.29-18.29,18.29h-282.42c-10.08,0-18.29-8.2-18.29-18.29v-251.32c0-10.07,8.2-18.28,18.29-18.28h282.42c10.09,0,18.29,8.2,18.29,18.28v251.32Z"/>
      <path class="cls-118" d="M1439.26,1131.23h0c0,4.64,3.76,8.41,8.41,8.41h4.07c4.64,0,8.41,3.76,8.41,8.41v118.7c0,4.64,3.76,8.41,8.41,8.41h118.7c4.64,0,8.41-3.76,8.41-8.41v-118.7c0-4.64,3.76-8.41,8.41-8.41h4.07c4.64,0,8.41-3.76,8.41-8.41h0c0-4.64-3.76-8.41-8.41-8.41h-160.47c-4.64,0-8.41,3.76-8.41,8.41h0Z"/>
      <path class="cls-82" d="M1669.1,801.54v237.19c0,4.39-3.55,7.94-7.94,7.94h-266.54c-4.38,0-7.94-3.55-7.94-7.94v-237.19c0-4.38,3.56-7.93,7.94-7.93h266.54c4.39,0,7.94,3.55,7.94,7.93Z"/>
    </g>
    <g>
      <rect class="cls-101" x="1522.49" y="828.83" width="10.81" height="189.14" rx="3.2" ry="3.2"/>
      <rect class="cls-109" x="1522.49" y="923.4" width="10.81" height="189.14" rx="3.2" ry="3.2" transform="translate(2545.87 -509.93) rotate(90)"/>
      <circle class="cls-88" cx="1527.9" cy="1017.97" r="9.78"/>
    </g>
    <g>
      <rect class="cls-107" x="1403.54" y="820.12" width="249.4" height="47.69" rx="12.22" ry="12.22"/>
      <circle class="cls-83" cx="1432.37" cy="843.97" r="8.22"/>
      <circle class="cls-89" cx="1466.67" cy="843.97" r="8.22"/>
      <circle class="cls-87" cx="1500.98" cy="843.97" r="8.22"/>
      <rect class="cls-57" x="1552.34" y="831.36" width="20.03" height="8.77" rx="4.38" ry="4.38"/>
      <rect class="cls-56" x="1552.34" y="847.81" width="20.03" height="8.77" rx="4.38" ry="4.38"/>
      <rect class="cls-55" x="1580.31" y="831.36" width="49.53" height="8.77" rx="4.38" ry="4.38"/>
      <rect class="cls-52" x="1580.31" y="847.81" width="49.53" height="8.77" rx="4.38" ry="4.38"/>
    </g>
    <g>
      <rect class="cls-108" x="1403.2" y="875.26" width="249.4" height="47.69" rx="12.22" ry="12.22"/>
      <circle class="cls-51" cx="1432.03" cy="899.11" r="8.22"/>
      <circle class="cls-50" cx="1466.34" cy="899.11" r="8.22"/>
      <circle class="cls-54" cx="1500.64" cy="899.11" r="8.22"/>
      <rect class="cls-58" x="1552" y="886.5" width="20.03" height="8.77" rx="4.38" ry="4.38"/>
      <rect class="cls-59" x="1552" y="902.95" width="20.03" height="8.77" rx="4.38" ry="4.38"/>
      <rect class="cls-53" x="1579.97" y="886.5" width="49.53" height="8.77" rx="4.38" ry="4.38"/>
      <rect class="cls-91" x="1579.97" y="902.95" width="49.53" height="8.77" rx="4.38" ry="4.38"/>
    </g>
    <g>
      <rect class="cls-111" x="1403.54" y="930.41" width="249.4" height="47.69" rx="12.22" ry="12.22"/>
      <circle class="cls-96" cx="1432.37" cy="954.25" r="8.22"/>
      <circle class="cls-95" cx="1466.67" cy="954.25" r="8.22"/>
      <circle class="cls-92" cx="1500.98" cy="954.25" r="8.22"/>
      <rect class="cls-94" x="1552.34" y="941.65" width="20.03" height="8.77" rx="4.38" ry="4.38"/>
      <rect class="cls-97" x="1552.34" y="958.09" width="20.03" height="8.77" rx="4.38" ry="4.38"/>
      <rect class="cls-93" x="1580.31" y="941.65" width="49.53" height="8.77" rx="4.38" ry="4.38"/>
      <rect class="cls-90" x="1580.31" y="958.09" width="49.53" height="8.77" rx="4.38" ry="4.38"/>
    </g>
  </g>
</svg>