<?xml version="1.0" encoding="UTF-8"?>
<svg id="Livello_1" data-name="Livello 1" xmlns="http://www.w3.org/2000/svg" xmlns:xlink="http://www.w3.org/1999/xlink" viewBox="0 0 1000 1000">
  <defs>
    <style>
      .cls-1 {
        filter: url(#drop-shadow-36);
      }

      .cls-1, .cls-2, .cls-3, .cls-4, .cls-5, .cls-6 {
        fill: #fff;
      }

      .cls-2 {
        filter: url(#drop-shadow-38);
      }

      .cls-3 {
        filter: url(#drop-shadow-35);
      }

      .cls-4 {
        filter: url(#drop-shadow-37);
      }

      .cls-5 {
        filter: url(#drop-shadow-39);
      }

      .cls-6 {
        filter: url(#drop-shadow-40);
      }

      .cls-7 {
        fill: url(#Sfumatura_senza_nome_11);
        filter: url(#drop-shadow-34);
      }

      .cls-8 {
        fill: url(#Sfumatura_senza_nome_113);
      }
    </style>
    <linearGradient id="Sfumatura_senza_nome_11" data-name="Sfumatura senza nome 11" x1="79.3" y1="502.1" x2="939.25" y2="502.1" gradientUnits="userSpaceOnUse">
      <stop offset="0" stop-color="#90e0ef"/>
      <stop offset="1" stop-color="#00b4d8"/>
    </linearGradient>
    <filter id="drop-shadow-34" x="59.84" y="94.41" width="909" height="825" filterUnits="userSpaceOnUse">
      <feOffset dx="5" dy="5"/>
      <feGaussianBlur result="blur" stdDeviation="8"/>
      <feFlood flood-color="#000" flood-opacity=".2"/>
      <feComposite in2="blur" operator="in"/>
      <feComposite in="SourceGraphic"/>
    </filter>
    <linearGradient id="Sfumatura_senza_nome_113" data-name="Sfumatura senza nome 113" x1="454.96" y1="183.94" x2="678.05" y2="183.94" gradientTransform="translate(0 728.82) scale(1 -1)" gradientUnits="userSpaceOnUse">
      <stop offset="0" stop-color="#0077b6"/>
      <stop offset="1" stop-color="#03045e"/>
    </linearGradient>
    <filter id="drop-shadow-35" x="75.66" y="430.65" width="185" height="172" filterUnits="userSpaceOnUse">
      <feOffset dx="5" dy="5"/>
      <feGaussianBlur result="blur-2" stdDeviation="8"/>
      <feFlood flood-color="#000" flood-opacity=".2"/>
      <feComposite in2="blur-2" operator="in"/>
      <feComposite in="SourceGraphic"/>
    </filter>
    <filter id="drop-shadow-36" x="320.35" y="136.21" width="185" height="171" filterUnits="userSpaceOnUse">
      <feOffset dx="5" dy="5"/>
      <feGaussianBlur result="blur-3" stdDeviation="8"/>
      <feFlood flood-color="#000" flood-opacity=".2"/>
      <feComposite in2="blur-3" operator="in"/>
      <feComposite in="SourceGraphic"/>
    </filter>
    <filter id="drop-shadow-37" x="636.61" y="120.98" width="185" height="172" filterUnits="userSpaceOnUse">
      <feOffset dx="5" dy="5"/>
      <feGaussianBlur result="blur-4" stdDeviation="8"/>
      <feFlood flood-color="#000" flood-opacity=".2"/>
      <feComposite in2="blur-4" operator="in"/>
      <feComposite in="SourceGraphic"/>
    </filter>
    <filter id="drop-shadow-38" x="757.86" y="427.71" width="185" height="172" filterUnits="userSpaceOnUse">
      <feOffset dx="5" dy="5"/>
      <feGaussianBlur result="blur-5" stdDeviation="8"/>
      <feFlood flood-color="#000" flood-opacity=".2"/>
      <feComposite in2="blur-5" operator="in"/>
      <feComposite in="SourceGraphic"/>
    </filter>
    <filter id="drop-shadow-39" x="635.29" y="717.59" width="185" height="172" filterUnits="userSpaceOnUse">
      <feOffset dx="5" dy="5"/>
      <feGaussianBlur result="blur-6" stdDeviation="8"/>
      <feFlood flood-color="#000" flood-opacity=".2"/>
      <feComposite in2="blur-6" operator="in"/>
      <feComposite in="SourceGraphic"/>
    </filter>
    <filter id="drop-shadow-40" x="319.61" y="715.1" width="186" height="172" filterUnits="userSpaceOnUse">
      <feOffset dx="5" dy="5"/>
      <feGaussianBlur result="blur-7" stdDeviation="8"/>
      <feFlood flood-color="#000" flood-opacity=".2"/>
      <feComposite in2="blur-7" operator="in"/>
      <feComposite in="SourceGraphic"/>
    </filter>
  </defs>
  <path class="cls-7" d="M852.4,419.58l-.02.02-60.56-151.84c15.95-16.28,25.79-38.57,25.79-63.16,0-49.84-40.4-90.24-90.24-90.24-41.55,0-76.54,28.09-87.02,66.31l-143.16,8.76c-12.5-34.84-45.82-59.75-84.95-59.75-49.84,0-90.24,40.4-90.24,90.24,0,18.4,5.52,35.52,14.98,49.79l-136.82,155.15c-9.56-3.45-19.87-5.33-30.62-5.33-49.84,0-90.24,40.4-90.24,90.24s40.4,90.24,90.24,90.24c11.36,0,22.23-2.11,32.24-5.94l138.39,151.24c-11.4,15.11-18.17,33.92-18.17,54.3,0,49.84,40.4,90.24,90.24,90.24,42.96,0,78.9-30.02,88.01-70.22h139.13c9.1,40.21,45.05,70.22,88.01,70.22,49.84,0,90.24-40.4,90.24-90.24s-40.4-90.24-90.24-90.24c-42.96,0-78.9,30.02-88.01,70.22h-139.13c-4.68-20.67-16.46-38.65-32.63-51.24l37.22-52.74c17.78,7.93,37.48,12.34,58.21,12.34,75.48,0,137.31-58.45,142.7-132.56l60.57-9.46c13.94,31.83,45.72,54.06,82.69,54.06,49.84,0,90.24-40.4,90.24-90.24s-38.59-88.39-86.85-90.17ZM235.36,571.49c15.14-16.14,24.41-37.84,24.41-61.71,0-8.56-1.19-16.83-3.42-24.68l116.5-62.01v295.33c-.7.34-1.39.69-2.09,1.05l-135.4-147.98ZM372.86,377.74l-135.73,72.25c-.96-1.08-1.95-2.15-2.96-3.18l131.77-149.42c2.25,1.35,4.56,2.6,6.92,3.75v76.6ZM668.48,272.97l-66.6,134.17c-12.35-3.47-25.37-5.33-38.83-5.33s-25.89,1.78-37.99,5.11h-.01s-23.94-52.1-23.94-52.1l162.42-86.45c1.59,1.59,3.24,3.12,4.95,4.6ZM502,229.25l136.61-8.36c.84,4.63,2.04,9.14,3.57,13.5l-157.81,84-13.66-29.73h0c17.22-14.66,28.86-35.67,31.3-59.41ZM412.89,310.15c7.7-.05,15.16-1.07,22.29-2.94l13.79,30.01-36.08,19.21v-46.28ZM430.69,711.27c-5.75-1.19-11.7-1.84-17.8-1.88v-307.62l52.83-28.12,22.61,49.19c-41.01,25.16-68.37,70.4-68.37,122.04,0,43.91,19.79,83.19,50.92,109.44l-40.19,56.95ZM563.73,676.69c-72.8,0-131.81-59.01-131.81-131.81s59.01-131.81,131.81-131.81,131.81,59.01,131.81,131.81-59.01,131.81-131.81,131.81ZM758.83,506.61l-55.76,8.71c-8.14-38.76-31.97-71.74-64.54-92h-.01l65.31-131.58c7.51,2.02,15.4,3.11,23.55,3.11,10.56,0,20.68-1.82,30.1-5.15l54.88,137.59c-30.67,13.64-52.31,43.89-53.53,79.32Z"/>
  <path class="cls-8" d="M655.51,523.48l-15.71-39.39c4.14-4.22,6.69-10.01,6.69-16.38,0-12.93-10.48-23.41-23.41-23.41-10.78,0-19.86,7.29-22.57,17.2l-37.14,2.27c-3.24-9.04-11.89-15.5-22.04-15.5-12.93,0-23.41,10.48-23.41,23.41,0,4.77,1.43,9.21,3.89,12.92l-35.49,40.25c-2.48-.89-5.15-1.38-7.94-1.38-12.93,0-23.41,10.48-23.41,23.41s10.48,23.41,23.41,23.41c2.95,0,5.77-.55,8.36-1.54l35.9,39.23c-2.96,3.92-4.71,8.8-4.71,14.09,0,12.93,10.48,23.41,23.41,23.41,11.14,0,20.47-7.79,22.83-18.22h36.09c2.36,10.43,11.69,18.22,22.83,18.22,12.93,0,23.41-10.48,23.41-23.41s-10.48-23.41-23.41-23.41c-11.14,0-20.47,7.79-22.83,18.22h-36.09c-1.21-5.36-4.27-10.03-8.46-13.29l9.66-13.68c4.61,2.06,9.72,3.2,15.1,3.2,19.58,0,35.62-15.16,37.02-34.39l15.71-2.45c3.62,8.26,11.86,14.02,21.45,14.02,12.93,0,23.41-10.48,23.41-23.41s-10.01-22.93-22.53-23.39h0ZM600.03,524.45l16.94-34.13c1.95.52,4,.81,6.11.81,2.74,0,5.36-.47,7.81-1.34l14.24,35.69c-7.96,3.54-13.57,11.39-13.89,20.58l-14.47,2.26c-2.11-10.05-8.29-18.61-16.74-23.87h0ZM531.12,601c-.18.09-.36.18-.54.27l-35.12-38.39c3.93-4.19,6.33-9.82,6.33-16.01,0-2.22-.31-4.37-.89-6.4l30.22-16.09v76.61h0ZM495.91,531.37c-.25-.28-.51-.56-.77-.82l34.18-38.76c.58.35,1.18.67,1.8.97v19.87l-35.21,18.74h0ZM541.5,495.09c2-.01,3.93-.28,5.78-.76l3.58,7.79-9.36,4.98v-12.01ZM556.5,489.52c4.47-3.8,7.49-9.25,8.12-15.41l35.44-2.17c.22,1.2.53,2.37.93,3.5l-40.94,21.79-3.54-7.71h0ZM546.12,599.15c-1.49-.31-3.04-.48-4.62-.49v-79.8l13.7-7.29,5.87,12.76c-10.64,6.53-17.74,18.26-17.74,31.66,0,11.39,5.13,21.58,13.21,28.39l-10.43,14.77h0ZM570.6,520.19l-6.21-13.51,42.13-22.43c.41.41.84.81,1.28,1.19l-17.28,34.81c-3.2-.9-6.58-1.38-10.07-1.38s-6.72.46-9.86,1.33h0Z"/>
  <path class="cls-3" d="M217.23,498.5l-9.59-24.05c2.53-2.58,4.08-6.11,4.08-10,0-7.89-6.4-14.29-14.29-14.29-6.58,0-12.12,4.45-13.78,10.5l-22.67,1.39c-1.98-5.52-7.26-9.46-13.46-9.46-7.89,0-14.29,6.4-14.29,14.29,0,2.91.87,5.63,2.37,7.89l-21.67,24.57c-1.51-.55-3.15-.84-4.85-.84-7.89,0-14.29,6.4-14.29,14.29s6.4,14.29,14.29,14.29c1.8,0,3.52-.33,5.11-.94l21.92,23.95c-1.81,2.39-2.88,5.37-2.88,8.6,0,7.89,6.4,14.29,14.29,14.29,6.8,0,12.5-4.75,13.94-11.12h22.04c1.44,6.37,7.14,11.12,13.94,11.12,7.89,0,14.29-6.4,14.29-14.29s-6.4-14.29-14.29-14.29c-6.8,0-12.5,4.75-13.94,11.12h-22.04c-.74-3.27-2.61-6.12-5.17-8.12l5.9-8.35c2.82,1.26,5.94,1.95,9.22,1.95,11.96,0,21.75-9.26,22.6-21l9.59-1.5c2.21,5.04,7.24,8.56,13.1,8.56,7.89,0,14.29-6.4,14.29-14.29s-6.11-14-13.76-14.28h0ZM183.36,499.08l10.34-20.84c1.19.32,2.44.49,3.73.49,1.67,0,3.28-.29,4.77-.82l8.69,21.79c-4.86,2.16-8.29,6.95-8.48,12.56l-8.83,1.38c-1.29-6.14-5.06-11.36-10.22-14.57h0ZM141.28,545.82c-.11.05-.22.11-.33.17l-21.45-23.44c2.4-2.56,3.87-5.99,3.87-9.77,0-1.36-.19-2.67-.54-3.91l18.45-9.82v46.78h0ZM119.78,503.31c-.15-.17-.31-.34-.47-.5l20.87-23.67c.36.21.72.41,1.1.59v12.13l-21.5,11.44h0ZM147.62,481.16c1.22,0,2.4-.17,3.53-.47l2.18,4.75-5.71,3.04v-7.33ZM156.78,477.76c2.73-2.32,4.57-5.65,4.96-9.41l21.64-1.32c.13.73.32,1.45.57,2.14l-25,13.3-2.16-4.71h0ZM150.44,544.69c-.91-.19-1.85-.29-2.82-.3v-48.72l8.37-4.45,3.58,7.79c-6.5,3.99-10.83,11.15-10.83,19.33,0,6.95,3.13,13.18,8.07,17.33l-6.37,9.02h0ZM165.39,496.49l-3.79-8.25,25.73-13.69c.25.25.51.49.78.73l-10.55,21.25c-1.96-.55-4.02-.84-6.15-.84s-4.1.28-6.02.81h0Z"/>
  <path class="cls-1" d="M462.36,203.6l-9.59-24.05c2.53-2.58,4.08-6.11,4.08-10,0-7.89-6.4-14.29-14.29-14.29-6.58,0-12.12,4.45-13.78,10.5l-22.67,1.39c-1.98-5.52-7.26-9.46-13.46-9.46-7.89,0-14.29,6.4-14.29,14.29,0,2.91.87,5.63,2.37,7.89l-21.67,24.57c-1.51-.55-3.15-.84-4.85-.84-7.89,0-14.29,6.4-14.29,14.29s6.4,14.29,14.29,14.29c1.8,0,3.52-.33,5.11-.94l21.92,23.95c-1.81,2.39-2.88,5.37-2.88,8.6,0,7.89,6.4,14.29,14.29,14.29,6.8,0,12.5-4.75,13.94-11.12h22.04c1.44,6.37,7.14,11.12,13.94,11.12,7.89,0,14.29-6.4,14.29-14.29s-6.4-14.29-14.29-14.29c-6.8,0-12.5,4.75-13.94,11.12h-22.04c-.74-3.27-2.61-6.12-5.17-8.12l5.9-8.35c2.82,1.26,5.94,1.95,9.22,1.95,11.96,0,21.75-9.26,22.6-21l9.59-1.5c2.21,5.04,7.24,8.56,13.1,8.56,7.89,0,14.29-6.4,14.29-14.29s-6.11-14-13.76-14.28h0ZM428.49,204.19l10.34-20.84c1.19.32,2.44.49,3.73.49,1.67,0,3.28-.29,4.77-.82l8.69,21.79c-4.86,2.16-8.29,6.95-8.48,12.56l-8.83,1.38c-1.29-6.14-5.06-11.36-10.22-14.57h0ZM386.41,250.93c-.11.05-.22.11-.33.17l-21.45-23.44c2.4-2.56,3.87-5.99,3.87-9.77,0-1.36-.19-2.67-.54-3.91l18.45-9.82v46.78h0ZM364.91,208.42c-.15-.17-.31-.34-.47-.5l20.87-23.67c.36.21.72.41,1.1.59v12.13l-21.5,11.44h0ZM392.75,186.27c1.22,0,2.4-.17,3.53-.47l2.18,4.75-5.71,3.04v-7.33ZM401.91,182.86c2.73-2.32,4.57-5.65,4.96-9.41l21.64-1.32c.13.73.32,1.45.57,2.14l-25,13.3-2.16-4.71h0ZM395.57,249.8c-.91-.19-1.85-.29-2.82-.3v-48.72l8.37-4.45,3.58,7.79c-6.5,3.99-10.83,11.15-10.83,19.33,0,6.95,3.13,13.18,8.07,17.33l-6.37,9.02h0ZM410.52,201.59l-3.79-8.25,25.73-13.69c.25.25.51.49.78.73l-10.55,21.25c-1.96-.55-4.02-.84-6.15-.84s-4.1.28-6.02.81h0Z"/>
  <path class="cls-4" d="M778.16,189.01l-9.59-24.05c2.53-2.58,4.08-6.11,4.08-10,0-7.89-6.4-14.29-14.29-14.29-6.58,0-12.12,4.45-13.78,10.5l-22.67,1.39c-1.98-5.52-7.26-9.46-13.46-9.46-7.89,0-14.29,6.4-14.29,14.29,0,2.91.87,5.63,2.37,7.89l-21.67,24.57c-1.51-.55-3.15-.84-4.85-.84-7.89,0-14.29,6.4-14.29,14.29s6.4,14.29,14.29,14.29c1.8,0,3.52-.33,5.11-.94l21.92,23.95c-1.81,2.39-2.88,5.37-2.88,8.6,0,7.89,6.4,14.29,14.29,14.29,6.8,0,12.5-4.75,13.94-11.12h22.04c1.44,6.37,7.14,11.12,13.94,11.12,7.89,0,14.29-6.4,14.29-14.29s-6.4-14.29-14.29-14.29c-6.8,0-12.5,4.75-13.94,11.12h-22.04c-.74-3.27-2.61-6.12-5.17-8.12l5.9-8.35c2.82,1.26,5.94,1.95,9.22,1.95,11.96,0,21.75-9.26,22.6-21l9.59-1.5c2.21,5.04,7.24,8.56,13.1,8.56,7.89,0,14.29-6.4,14.29-14.29s-6.11-14-13.76-14.28h0ZM744.28,189.6l10.34-20.84c1.19.32,2.44.49,3.73.49,1.67,0,3.28-.29,4.77-.82l8.69,21.79c-4.86,2.16-8.29,6.95-8.48,12.56l-8.83,1.38c-1.29-6.14-5.06-11.36-10.22-14.57h0ZM702.21,236.34c-.11.05-.22.11-.33.17l-21.45-23.44c2.4-2.56,3.87-5.99,3.87-9.77,0-1.36-.19-2.67-.54-3.91l18.45-9.82v46.78h0ZM680.71,193.82c-.15-.17-.31-.34-.47-.5l20.87-23.67c.36.21.72.41,1.1.59v12.13l-21.5,11.44h0ZM708.55,171.67c1.22,0,2.4-.17,3.53-.47l2.18,4.75-5.71,3.04v-7.33ZM717.7,168.27c2.73-2.32,4.57-5.65,4.96-9.41l21.64-1.32c.13.73.32,1.45.57,2.14l-25,13.3-2.16-4.71h0ZM711.37,235.2c-.91-.19-1.85-.29-2.82-.3v-48.72l8.37-4.45,3.58,7.79c-6.5,3.99-10.83,11.15-10.83,19.33,0,6.95,3.13,13.18,8.07,17.33l-6.37,9.02h0ZM726.31,187l-3.79-8.25,25.73-13.69c.25.25.51.49.78.73l-10.55,21.25c-1.96-.55-4.02-.84-6.15-.84s-4.1.28-6.02.81h0Z"/>
  <path class="cls-2" d="M899.44,495.34l-9.59-24.05c2.53-2.58,4.08-6.11,4.08-10,0-7.89-6.4-14.29-14.29-14.29-6.58,0-12.12,4.45-13.78,10.5l-22.67,1.39c-1.98-5.52-7.26-9.46-13.46-9.46-7.89,0-14.29,6.4-14.29,14.29,0,2.91.87,5.63,2.37,7.89l-21.67,24.57c-1.51-.55-3.15-.84-4.85-.84-7.89,0-14.29,6.4-14.29,14.29s6.4,14.29,14.29,14.29c1.8,0,3.52-.33,5.11-.94l21.92,23.95c-1.81,2.39-2.88,5.37-2.88,8.6,0,7.89,6.4,14.29,14.29,14.29,6.8,0,12.5-4.75,13.94-11.12h22.04c1.44,6.37,7.14,11.12,13.94,11.12,7.89,0,14.29-6.4,14.29-14.29s-6.4-14.29-14.29-14.29c-6.8,0-12.5,4.75-13.94,11.12h-22.04c-.74-3.27-2.61-6.12-5.17-8.12l5.9-8.35c2.82,1.26,5.94,1.95,9.22,1.95,11.96,0,21.75-9.26,22.6-21l9.59-1.5c2.21,5.04,7.24,8.56,13.1,8.56,7.89,0,14.29-6.4,14.29-14.29s-6.11-14-13.76-14.28h0ZM865.57,495.93l10.34-20.84c1.19.32,2.44.49,3.73.49,1.67,0,3.28-.29,4.77-.82l8.69,21.79c-4.86,2.16-8.29,6.95-8.48,12.56l-8.83,1.38c-1.29-6.14-5.06-11.36-10.22-14.57h0ZM823.49,542.66c-.11.05-.22.11-.33.17l-21.45-23.44c2.4-2.56,3.87-5.99,3.87-9.77,0-1.36-.19-2.67-.54-3.91l18.45-9.82v46.78h0ZM801.99,500.15c-.15-.17-.31-.34-.47-.5l20.87-23.67c.36.21.72.41,1.1.59v12.13l-21.5,11.44h0ZM829.83,478c1.22,0,2.4-.17,3.53-.47l2.18,4.75-5.71,3.04v-7.33ZM838.99,474.6c2.73-2.32,4.57-5.65,4.96-9.41l21.64-1.32c.13.73.32,1.45.57,2.14l-25,13.3-2.16-4.71h0ZM832.65,541.53c-.91-.19-1.85-.29-2.82-.3v-48.72l8.37-4.45,3.58,7.79c-6.5,3.99-10.83,11.15-10.83,19.33,0,6.95,3.13,13.18,8.07,17.33l-6.37,9.02h0ZM847.6,493.33l-3.79-8.25,25.73-13.69c.25.25.51.49.78.73l-10.55,21.25c-1.96-.55-4.02-.84-6.15-.84s-4.1.28-6.02.81h0Z"/>
  <path class="cls-5" d="M777.11,785.76l-9.59-24.05c2.53-2.58,4.08-6.11,4.08-10,0-7.89-6.4-14.29-14.29-14.29-6.58,0-12.12,4.45-13.78,10.5l-22.67,1.39c-1.98-5.52-7.26-9.46-13.46-9.46-7.89,0-14.29,6.4-14.29,14.29,0,2.91.87,5.63,2.37,7.89l-21.67,24.57c-1.51-.55-3.15-.84-4.85-.84-7.89,0-14.29,6.4-14.29,14.29s6.4,14.29,14.29,14.29c1.8,0,3.52-.33,5.11-.94l21.92,23.95c-1.81,2.39-2.88,5.37-2.88,8.6,0,7.89,6.4,14.29,14.29,14.29,6.8,0,12.5-4.75,13.94-11.12h22.04c1.44,6.37,7.14,11.12,13.94,11.12,7.89,0,14.29-6.4,14.29-14.29s-6.4-14.29-14.29-14.29c-6.8,0-12.5,4.75-13.94,11.12h-22.04c-.74-3.27-2.61-6.12-5.17-8.12l5.9-8.35c2.82,1.26,5.94,1.95,9.22,1.95,11.96,0,21.75-9.26,22.6-21l9.59-1.5c2.21,5.04,7.24,8.56,13.1,8.56,7.89,0,14.29-6.4,14.29-14.29s-6.11-14-13.76-14.28h0ZM743.23,786.35l10.34-20.84c1.19.32,2.44.49,3.73.49,1.67,0,3.28-.29,4.77-.82l8.69,21.79c-4.86,2.16-8.29,6.95-8.48,12.56l-8.83,1.38c-1.29-6.14-5.06-11.36-10.22-14.57h0ZM701.16,833.09c-.11.05-.22.11-.33.17l-21.45-23.44c2.4-2.56,3.87-5.99,3.87-9.77,0-1.36-.19-2.67-.54-3.91l18.45-9.82v46.78h0ZM679.66,790.58c-.15-.17-.31-.34-.47-.5l20.87-23.67c.36.21.72.41,1.1.59v12.13l-21.5,11.44h0ZM707.5,768.43c1.22,0,2.4-.17,3.53-.47l2.18,4.75-5.71,3.04v-7.33ZM716.65,765.02c2.73-2.32,4.57-5.65,4.96-9.41l21.64-1.32c.13.73.32,1.45.57,2.14l-25,13.3-2.16-4.71h0ZM710.32,831.96c-.91-.19-1.85-.29-2.82-.3v-48.72l8.37-4.45,3.58,7.79c-6.5,3.99-10.83,11.15-10.83,19.33,0,6.95,3.13,13.18,8.07,17.33l-6.37,9.02h0ZM725.26,783.75l-3.79-8.25,25.73-13.69c.25.25.51.49.78.73l-10.55,21.25c-1.96-.55-4.02-.84-6.15-.84s-4.1.28-6.02.81h0Z"/>
  <path class="cls-6" d="M462.02,783.17l-9.59-24.05c2.53-2.58,4.08-6.11,4.08-10,0-7.89-6.4-14.29-14.29-14.29-6.58,0-12.12,4.45-13.78,10.5l-22.67,1.39c-1.98-5.52-7.26-9.46-13.46-9.46-7.89,0-14.29,6.4-14.29,14.29,0,2.91.87,5.63,2.37,7.89l-21.67,24.57c-1.51-.55-3.15-.84-4.85-.84-7.89,0-14.29,6.4-14.29,14.29s6.4,14.29,14.29,14.29c1.8,0,3.52-.33,5.11-.94l21.92,23.95c-1.81,2.39-2.88,5.37-2.88,8.6,0,7.89,6.4,14.29,14.29,14.29,6.8,0,12.5-4.75,13.94-11.12h22.04c1.44,6.37,7.14,11.12,13.94,11.12,7.89,0,14.29-6.4,14.29-14.29s-6.4-14.29-14.29-14.29c-6.8,0-12.5,4.75-13.94,11.12h-22.04c-.74-3.27-2.61-6.12-5.17-8.12l5.9-8.35c2.82,1.26,5.94,1.95,9.22,1.95,11.96,0,21.75-9.26,22.6-21l9.59-1.5c2.21,5.04,7.24,8.56,13.1,8.56,7.89,0,14.29-6.4,14.29-14.29s-6.11-14-13.76-14.28h0ZM428.14,783.76l10.34-20.84c1.19.32,2.44.49,3.73.49,1.67,0,3.28-.29,4.77-.82l8.69,21.79c-4.86,2.16-8.29,6.95-8.48,12.56l-8.83,1.38c-1.29-6.14-5.06-11.36-10.22-14.57h0ZM386.07,830.5c-.11.05-.22.11-.33.17l-21.45-23.44c2.4-2.56,3.87-5.99,3.87-9.77,0-1.36-.19-2.67-.54-3.91l18.45-9.82v46.78h0ZM364.57,787.98c-.15-.17-.31-.34-.47-.5l20.87-23.67c.36.21.72.41,1.1.59v12.13l-21.5,11.44h0ZM392.41,765.83c1.22,0,2.4-.17,3.53-.47l2.18,4.75-5.71,3.04v-7.33ZM401.56,762.43c2.73-2.32,4.57-5.65,4.96-9.41l21.64-1.32c.13.73.32,1.45.57,2.14l-25,13.3-2.16-4.71h0ZM395.23,829.37c-.91-.19-1.85-.29-2.82-.3v-48.72l8.37-4.45,3.58,7.79c-6.5,3.99-10.83,11.15-10.83,19.33,0,6.95,3.13,13.18,8.07,17.33l-6.37,9.02h0ZM410.17,781.16l-3.79-8.25,25.73-13.69c.25.25.51.49.78.73l-10.55,21.25c-1.96-.55-4.02-.84-6.15-.84s-4.1.28-6.02.81h0Z"/>
</svg>