<?xml version="1.0" encoding="UTF-8"?>
<svg id="Livello_1" data-name="Livello 1" xmlns="http://www.w3.org/2000/svg" xmlns:xlink="http://www.w3.org/1999/xlink" viewBox="0 0 1000 1000">
  <defs>
    <style>
      .cls-1 {
        fill: url(#Sfumatura_senza_nome_14);
      }

      .cls-2 {
        fill: url(#Sfumatura_senza_nome_11);
      }

      .cls-3 {
        fill: #fff;
        filter: url(#drop-shadow-88);
        stroke: #00b4d8;
        stroke-miterlimit: 10;
        stroke-width: 10.96px;
      }

      .cls-4 {
        fill: url(#Sfumatura_senza_nome_11-3);
      }

      .cls-5 {
        fill: url(#Sfumatura_senza_nome_11-2);
      }

      .cls-6 {
        fill: url(#Sfumatura_senza_nome_113);
      }
    </style>
    <linearGradient id="Sfumatura_senza_nome_14" data-name="Sfumatura senza nome 14" x1="160.79" y1="527.45" x2="833.54" y2="527.45" gradientUnits="userSpaceOnUse">
      <stop offset="0" stop-color="#90e0ef"/>
      <stop offset="1" stop-color="#00b4d8"/>
    </linearGradient>
    <linearGradient id="Sfumatura_senza_nome_11" data-name="Sfumatura senza nome 11" x1="164.68" y1="2746.73" x2="835.32" y2="2746.73" gradientTransform="translate(0 2928.82) scale(1 -1)" gradientUnits="userSpaceOnUse">
      <stop offset="0" stop-color="#90e0ef"/>
      <stop offset="1" stop-color="#00b4d8"/>
    </linearGradient>
    <linearGradient id="Sfumatura_senza_nome_11-2" data-name="Sfumatura senza nome 11" x1="171.07" y1="2514.98" x2="831.55" y2="2514.98" xlink:href="#Sfumatura_senza_nome_11"/>
    <linearGradient id="Sfumatura_senza_nome_11-3" data-name="Sfumatura senza nome 11" x1="167.1" y1="2292.71" x2="827.35" y2="2292.71" xlink:href="#Sfumatura_senza_nome_11"/>
    <filter id="drop-shadow-88" x="253.64" y="300.24" width="504" height="551" filterUnits="userSpaceOnUse">
      <feOffset dx="9.59" dy="9.59"/>
      <feGaussianBlur result="blur" stdDeviation="20.55"/>
      <feFlood flood-color="#000" flood-opacity=".25"/>
      <feComposite in2="blur" operator="in"/>
      <feComposite in="SourceGraphic"/>
    </filter>
    <linearGradient id="Sfumatura_senza_nome_113" data-name="Sfumatura senza nome 113" x1="408.15" y1="526.6" x2="582.7" y2="526.6" gradientUnits="userSpaceOnUse">
      <stop offset="0" stop-color="#0077b6"/>
      <stop offset="1" stop-color="#03045e"/>
    </linearGradient>
  </defs>
  <g>
    <path class="cls-1" d="M823.98,796.21c.07.33.14.62.17.9.02.14.02.28.02.42,0,.15-.06.42-.09.63l-.21,1.33c-.07.44-.22.87-.32,1.3-.43,1.74-1.16,3.37-1.94,4.95-1.65,3.14-3.87,5.89-6.3,8.36-4.89,4.96-10.69,8.8-16.6,12.26-11.92,6.85-24.73,11.81-37.65,16.23-25.93,8.66-52.63,14.66-79.47,19.64-53.73,9.8-108.25,15.21-162.89,17.44-54.65,2.12-109.53.86-164.12-5.11-6.82-.76-13.64-1.58-20.45-2.48-6.81-.91-13.61-1.93-20.4-3.01-6.79-1.1-13.58-2.27-20.35-3.54-6.77-1.3-13.52-2.71-20.26-4.23-13.48-3.03-26.89-6.59-40.16-10.94-6.64-2.17-13.22-4.58-19.75-7.29-6.52-2.71-12.99-5.7-19.31-9.27-3.15-1.79-6.28-3.7-9.32-5.86-3.05-2.15-6.04-4.49-8.88-7.19-2.83-2.71-5.55-5.78-7.8-9.49-2.24-3.68-3.98-8.1-4.47-12.89-.04-.6-.06-1.2-.09-1.8l-.03-.9c-.01-.33,0-.46,0-.7l.04-2.55.09-5.1.18-10.2.41-20.41,1.64-81.63c1.12-54.42,1.9-108.84,2.18-163.26.26-54.42.11-108.84-.4-163.26-.22-27.21-.67-54.42-1.01-81.63l-1.38-81.63-.1-5.91,6.12-.11,81.52-1.4,81.52-1.16c54.35-.63,108.7-.91,163.05-1.33,54.35-.4,108.7-.77,163.05-1l40.76-.1,40.76-.03,40.76.03,40.76.15,10.88.04-.03,10.81c-.06,25.42-.28,50.85-.44,76.27l-.31,38.14-.19,19.07-.26,19.07c-.33,25.42-.82,50.85-1.36,76.27l-1.87,76.27-2.02,76.27c-.67,25.42-1.3,50.85-1.78,76.27-1,50.85-1.54,101.69-1.59,152.54l-1.02,1.03c.24,0,.55-.12.71-.3ZM822.53,794.75c.17-.18.49-.31.73-.3l-1.02,1.03c-.04-50.85-.58-101.69-1.59-152.54-.47-25.42-1.11-50.85-1.78-76.27l-2.02-76.27-1.87-76.27c-.54-25.42-1.03-50.85-1.36-76.27l-.26-19.07-.19-19.07-.31-38.14c-.16-25.42-.38-50.85-.44-76.27l10.85,10.85-40.76.15-40.76.03-40.76-.03-40.76-.1c-54.35-.23-108.7-.59-163.05-1-54.35-.42-108.7-.7-163.05-1.33l-81.52-1.16-81.52-1.4,6.02-6.02-1.38,81.63c-.34,27.21-.79,54.42-1.01,81.63-.51,54.42-.66,108.84-.4,163.26.28,54.42,1.06,108.84,2.18,163.26l1.64,81.63.41,20.41.18,10.2.09,5.1.04,2.55c0,.19,0,.48.02.58l.04.37.06.75c.31,1.99,1.13,4.04,2.49,6.11,1.35,2.07,3.2,4.13,5.35,6.04,4.33,3.83,9.62,7.22,15.24,10.16,5.61,2.98,11.57,5.6,17.67,7.96,6.1,2.37,12.35,4.48,18.68,6.46,12.66,3.92,25.64,7.12,38.72,9.99,6.54,1.42,13.12,2.74,19.72,3.95,6.6,1.24,13.22,2.38,19.86,3.46,13.29,2.1,26.63,3.97,40.01,5.58,26.78,3.17,53.7,5.54,80.69,7.12,26.99,1.65,54.05,2.54,81.14,2.79,27.08.24,54.19-.24,81.27-1.69,27.07-1.46,54.12-3.8,80.98-7.62,13.42-1.92,26.81-4.17,40.08-6.96,13.27-2.76,26.44-6.06,39.37-10.11,12.91-4.06,25.63-8.93,37.43-15.47,2.95-1.63,5.78-3.45,8.52-5.39,2.73-1.94,5.33-4.07,7.67-6.44,2.33-2.36,4.43-4.96,5.96-7.85.72-1.46,1.4-2.95,1.78-4.52.1-.39.23-.78.29-1.17l.19-1.19c.03-.22.07-.36.09-.63.02-.28.05-.57.09-.85.07-.57.19-1.13.31-1.65Z"/>
    <ellipse class="cls-2" cx="500" cy="182.09" rx="335.32" ry="77.68"/>
    <path class="cls-5" d="M831.55,404.36c0,42.91-147.86,77.68-330.24,77.68s-330.24-34.78-330.24-77.68v-58.73c0,42.91,147.86,77.68,330.24,77.68s330.24-34.78,330.24-77.68v58.73Z"/>
    <path class="cls-4" d="M827.35,626.64c0,42.91-147.81,77.68-330.13,77.68s-330.13-34.78-330.13-77.68v-58.73c0,42.91,147.81,77.68,330.13,77.68s330.13-34.78,330.13-77.68v58.73Z"/>
  </g>
  <path class="cls-3" d="M488.92,774.13c4.24,5.28,12.26,5.28,16.49,0,40.68-50.67,109-88.55,144.99-173.19,32.02-75.3,24.73-174.25,32.42-231.21.86-6.35-4.06-12.01-10.47-12.01h-350.37c-6.41,0-11.33,5.66-10.47,12.01,7.68,56.96.4,155.92,32.42,231.21,35.99,84.64,104.31,122.52,144.99,173.19Z"/>
  <path class="cls-6" d="M562.76,490.85c.21-10.65.35-25.74-.29-32.48-3.04-32.08-33.1-54.95-64.45-56.13-33.18-1.25-66.4,22.11-69.65,56.13-.64,6.74-.5,21.83-.29,32.48h-11.25c-4.8,0-8.7,3.89-8.7,8.7v142.77c0,4.8,3.89,8.7,8.7,8.7h157.16c4.8,0,8.7-3.89,8.7-8.7v-142.77c0-4.8-3.89-8.7-8.7-8.7h-11.25ZM506.69,596.14h-22.54l5.79-22.98c-4.14-2.06-6.96-6.37-6.84-11.33.16-6.32,5.21-11.58,11.52-11.99,7.16-.45,13.12,5.23,13.12,12.3,0,4.83-2.79,9-6.84,11.02l5.79,22.98h0ZM541.29,490.3h-91.14c-3.45,0-6.25-2.77-6.29-6.22-.08-7.32-.05-15.08.33-19.26,2.55-27.87,25.17-47.74,51.24-48.18,24.65-.42,49.45,21.9,51.84,48.18.38,4.18.41,11.94.32,19.26-.04,3.45-2.84,6.22-6.29,6.22h0Z"/>
</svg>