<?xml version="1.0" encoding="UTF-8"?>
<svg id="Livello_1" data-name="Livello 1" xmlns="http://www.w3.org/2000/svg" xmlns:xlink="http://www.w3.org/1999/xlink" viewBox="0 0 1000 1000">
  <defs>
    <style>
      .cls-1 {
        fill: url(#Sfumatura_senza_nome_62);
      }

      .cls-2 {
        fill: url(#Sfumatura_senza_nome_11);
      }

      .cls-3 {
        fill: #00b4d8;
      }

      .cls-4 {
        fill: #fff;
        filter: url(#drop-shadow-101);
      }

      .cls-5 {
        opacity: .7;
      }

      .cls-6 {
        fill: url(#Sfumatura_senza_nome_11-2);
        filter: url(#drop-shadow-100);
      }

      .cls-7 {
        fill: url(#Sfumatura_senza_nome_113);
      }
    </style>
    <linearGradient id="Sfumatura_senza_nome_11" data-name="Sfumatura senza nome 11" x1="422.54" y1="256.11" x2="579.66" y2="256.11" gradientUnits="userSpaceOnUse">
      <stop offset="0" stop-color="#90e0ef"/>
      <stop offset="1" stop-color="#00b4d8"/>
    </linearGradient>
    <linearGradient id="Sfumatura_senza_nome_11-2" data-name="Sfumatura senza nome 11" x1="317.41" y1="500" x2="684.78" y2="500" xlink:href="#Sfumatura_senza_nome_11"/>
    <filter id="drop-shadow-100" x="285.35" y="223.62" width="443" height="564" filterUnits="userSpaceOnUse">
      <feOffset dx="5.81" dy="5.81"/>
      <feGaussianBlur result="blur" stdDeviation="12.44"/>
      <feFlood flood-color="#000" flood-opacity=".25"/>
      <feComposite in2="blur" operator="in"/>
      <feComposite in="SourceGraphic"/>
    </filter>
    <filter id="drop-shadow-101" x="413.35" y="168.62" width="188" height="187" filterUnits="userSpaceOnUse">
      <feOffset dx="5.81" dy="5.81"/>
      <feGaussianBlur result="blur-2" stdDeviation="12.44"/>
      <feFlood flood-color="#000" flood-opacity=".25"/>
      <feComposite in2="blur-2" operator="in"/>
      <feComposite in="SourceGraphic"/>
    </filter>
    <linearGradient id="Sfumatura_senza_nome_62" data-name="Sfumatura senza nome 62" x1="89.57" y1="499.52" x2="913.08" y2="499.52" gradientUnits="userSpaceOnUse">
      <stop offset="0" stop-color="#0077b6"/>
      <stop offset="1" stop-color="#03045e"/>
    </linearGradient>
    <linearGradient id="Sfumatura_senza_nome_113" data-name="Sfumatura senza nome 113" x1="325.01" y1="-3913.57" x2="675.44" y2="-3913.57" gradientTransform="translate(0 -3431.18) scale(1 -1)" gradientUnits="userSpaceOnUse">
      <stop offset="0" stop-color="#0077b6"/>
      <stop offset="1" stop-color="#03045e"/>
    </linearGradient>
  </defs>
  <g class="cls-5">
    <path class="cls-2" d="M575.25,185.72h-148.29c-2.44,0-4.42,1.97-4.42,4.41v131.96c0,2.44,1.98,4.41,4.42,4.41h148.29c2.44,0,4.41-1.97,4.41-4.41v-131.96c0-2.44-1.97-4.41-4.41-4.41Z"/>
    <path class="cls-3" d="M625.25,579.08c.06,6.18-4.23,11.98-10.14,13.79-3.49,1.08-7.2.57-10.76.73-27.47.31-58.05.98-85.69,1.63-42.56.99-85.15,1.19-127.72.46-8.9-.22-16.43-8.27-15.89-17.18.97-49.26,1.53-100.75.97-149.96-.16-9.24-.43-33.35-.58-42.84-.18-9.2,7.9-16.68,17.03-16.25,69.05-1.02,143.34-1.43,212.44-1.32.15,0,4.95.02,5.36.03,9.92-.27,18.43,8.13,18.02,18.11-.06,15.45-.29,34.51-.57,49.98-.92,47.25-2.48,95.48-2.46,142.81h0ZM624.59,579.08c-.02-47.36-1.51-95.55-2.46-142.81-.33-15.47-.47-34.53-.57-49.99.31-5.85-4.65-11.12-10.5-11.14-.16-.02-.62-.01-.79-.02,0,0-1.79,0-1.79,0,0,0-3.57.02-3.57.02-69.11.11-143.37-.32-212.44-1.32-6.92-.63-13.34,4.83-13.4,11.89,0,0-.39,28.56-.39,28.56-.06,7.14-.3,21.43-.3,28.56-.44,44.29.27,91.33,1.08,135.67-.22,6.56,5.45,12.27,12,12.06,42.39-.66,84.8-.51,127.19.49,27.66.51,58.17,1.46,85.69,1.63,3.53-.06,7.12.43,10.53-.57,5.61-1.69,9.74-7.16,9.71-13.04h0Z"/>
    <path class="cls-6" d="M677.71,256.12h-85.6v65.98c0,9.29-7.56,16.86-16.86,16.86h-148.29c-9.3,0-16.87-7.57-16.87-16.86v-65.98h-85.62c-3.9,0-7.07,3.17-7.07,7.07v473.63c0,3.9,3.17,7.07,7.07,7.07h119.92v-106.59c-.01-3.91-3.18-7.07-7.08-7.07h-3.42c-3.91,0-7.07-3.17-7.07-7.07h0c0-3.91,3.17-7.07,7.07-7.07h134.83c3.91,0,7.07,3.17,7.07,7.07s-3.17,7.07-7.07,7.07h-3.42c-3.91,0-7.07,3.17-7.07,7.07v106.59h119.45c3.91,0,7.07-3.17,7.07-7.07v-473.63c0-3.9-3.16-7.07-7.07-7.07ZM635.33,587.97c0,8.47-6.89,15.36-15.36,15.36h-237.29c-8.47,0-15.36-6.89-15.36-15.36v-211.16c0-8.46,6.89-15.36,15.36-15.36h237.29c8.48,0,15.36,6.89,15.36,15.36v211.16Z"/>
    <path class="cls-3" d="M684.78,475.09c37.84-.69,76.28-1.12,114.14-1.52,0,0,1.24-.01,1.24-.01,0,0,.62,0,.62,0,3.42-.03,6.77,2.04,8.18,5.2.9,1.73.86,3.78.87,5.68.68,75.68.94,152.54.97,228.29,0,0-.02,19.85-.02,19.85s0,2.48,0,2.48c0,0,0,1.24,0,1.24,0,0,0,.66,0,.66-.04,2.63-1.16,5.25-3.07,7.06-1.95,1.99-5.02,2.93-7.72,2.77,0,0-1.24,0-1.24,0-79.69-.35-161.12-1.53-240.69-1.83,0,0-1.08,0-1.08,0,0,0,0-1.07,0-1.07.09-34.46.09-69.53-.05-104.02,0-.42-.02-2.45,0-2.83.09-5.59,4.88-8.75,10.14-8.2,9.46.94,9.82-12.36.27-11.63-36.7.27-97.29.72-133.42,1.05-2.57-.12-4.89,2.14-4.8,4.69,0,0,.07,2.45.07,2.45l-2.54.02h0s2.47-2.47,2.47-2.47c-.02,2.47,2.16,4.6,4.62,4.53,0,0,.26,0,.26,0h1.03c1.56,0,3.34-.11,4.84.37,4.02,1.11,6.98,5.03,6.95,9.22,0,0,0,.26,0,.26v1.03c.09,26.5.48,81.65.52,108.63-75.11.13-167.25.67-242.01.37,0,0-4.98-.01-4.98-.01,0,0-.62,0-.62,0-4.67.04-9.1-3.32-10.18-7.9-.55-1.65-.26-4.09-.33-5.82.1-73.15.8-165.58,1.43-238.88,0,0,.09-9.95.09-9.95,0,0,.03-2.54.03-2.54.07-4.78,4.43-8.88,9.21-8.6,3.51,0,12.47.14,16.17.15,33.04.39,66.56.73,99.53,1.29,0,0,0,.66,0,.66-36.27.56-73.18,1.04-109.49,1.38,0,0-4.98.05-4.98.05,0,0-1.24.01-1.24.01-2.86-.14-5.5,2.28-5.47,5.16.76,78.01,1.34,173.34,1.54,251.27,0,0,0,2.49,0,2.49,0,0,0,.62,0,.62l.02.36c.14,1.83,1.78,3.37,3.64,3.33,75.56-.19,168.48.06,244.48.34,0,0-3.12,3.12-3.12,3.12.09-25.68.32-80.49.48-105.52-.01-.21.02-1.1,0-1.29.07-2.41-2.06-4.54-4.48-4.5,0,0-2.07-.01-2.07-.01h-1.03s-.26,0-.26,0c0,0-.34-.01-.34-.01-5.01-.08-9.34-4.58-9.22-9.59,0,0,0-2.49,0-2.49l2.47.02h0l-2.47,2.47c-.06-5.17,4.58-9.68,9.75-9.45,35.9.32,96.97.79,133.42,1.05,3.51-.28,7.13,1.41,8.65,4.69,2.59,4.93-.97,11.46-6.53,11.91-1.62.12-3.09,0-4.6.05-3.07.04-5.69,2.79-5.67,5.84-.02,4.4-.06,11.94-.07,16.39-.07,29.97-.06,60.53.02,90.45,0,0-1.08-1.08-1.08-1.08,79.54-.27,161.05-1.51,240.69-1.83,0,0,1.24,0,1.24,0,.41,0,.88,0,1.05-.02,1.95-.1,3.66-1.77,3.83-3.72,0,0,.02-.36.02-.36,0-.13,0-.39,0-.58v-1.24c-.12-79.87.24-160.88.86-240.69,0,0,.09-9.93.09-9.93,0,0,.01-1.24.01-1.24,0,0,0-.62,0-.62,0,0-.02-.47-.02-.47-.11-2.44-2.18-4.57-4.61-4.78-1.13-.08-5.96-.06-7.28-.1-5.85.01-23.58-.3-29.78-.32-26.47-.38-52.94-.63-79.4-1.15v-.66h0Z"/>
    <path class="cls-4" d="M557.08,275.07c0,3.08-2.5,5.58-5.58,5.58h-20.06c-3.08,0-5.58,2.5-5.58,5.58v20.06c0,3.08-2.5,5.58-5.58,5.58h-37.91c-3.08,0-5.58-2.5-5.58-5.58v-20.06c0-3.08-2.5-5.58-5.58-5.58h-20.06c-3.08,0-5.58-2.5-5.58-5.58v-37.91c0-3.08,2.5-5.58,5.58-5.58h20.06c3.08,0,5.58-2.5,5.58-5.58v-20.06c0-3.08,2.5-5.58,5.58-5.58h37.91c3.08,0,5.58,2.5,5.58,5.58v20.06c0,3.08,2.5,5.58,5.58,5.58h20.06c3.08,0,5.58,2.5,5.58,5.58v37.91Z"/>
  </g>
  <path class="cls-1" d="M909.41,500c.02,26.71-2.58,53.42-7.68,79.65-5.03,26.25-12.75,51.97-22.75,76.78-10.05,24.79-22.52,48.62-37.19,71.06-14.68,22.42-31.56,43.44-50.36,62.62-18.84,19.14-39.53,36.5-61.82,51.56l-8.46,5.5-4.23,2.75c-1.41.92-2.81,1.84-4.28,2.66l-8.72,5.08-4.36,2.54-2.18,1.27-2.24,1.17-8.97,4.62-4.49,2.31-2.25,1.15-2.3,1.05-9.19,4.18-4.59,2.09c-.77.34-1.52.71-2.3,1.03l-2.35.93c-49.67,20.82-103.6,31.29-157.4,31.07-26.9-.16-53.78-2.96-80.1-8.38-26.32-5.43-52.08-13.46-76.79-23.91-24.71-10.46-48.37-23.35-70.53-38.41-22.19-15.02-42.9-32.19-61.78-51.17-37.78-37.95-68.12-83.24-88.76-132.65l-3.71-9.33c-1.21-3.12-2.57-6.19-3.58-9.38l-3.25-9.5c-1.05-3.18-2.26-6.31-3.11-9.55l-2.8-9.65-1.4-4.82c-.23-.81-.49-1.6-.68-2.42l-.58-2.44-2.32-9.78-1.16-4.89-.57-2.45-.46-2.47c-5.37-26.26-8.13-53.06-8.33-79.88-.33-53.65,9.78-107.49,30.2-157.28,20.32-49.83,50.73-95.52,88.73-133.7,38-38.19,83.55-68.88,133.33-89.63,49.75-20.84,103.73-31.39,157.65-31.41,53.92.17,107.86,10.77,157.53,31.71l2.34.94c.78.32,1.54.69,2.3,1.03l4.59,2.1,9.18,4.2,2.3,1.05,2.25,1.15,4.48,2.32,8.97,4.65,2.24,1.17,2.18,1.27,4.36,2.55,8.71,5.1c1.47.82,2.88,1.74,4.28,2.67l4.23,2.76,8.45,5.51c22.27,15.1,42.95,32.5,61.77,51.66,18.79,19.2,35.69,40.21,50.36,62.64,14.67,22.44,27.14,46.28,37.19,71.07,10,24.81,17.71,50.54,22.74,76.79,5.09,26.23,7.67,52.95,7.63,79.66ZM908.6,500c-.1-26.66-2.71-53.31-8-79.43-5.34-26.1-13.17-51.69-23.61-76.17-20.74-49.03-51.44-93.65-89.29-130.78-18.94-18.55-39.71-35.19-61.79-49.75l-8.39-5.29-4.2-2.65c-1.39-.89-2.79-1.77-4.25-2.56l-8.64-4.88-4.32-2.44-2.16-1.22-2.21-1.12-8.85-4.48-4.42-2.24-2.21-1.11-2.26-1.01-9.05-4.04-4.52-2.02c-.76-.33-1.5-.69-2.27-.99l-2.31-.9c-24.47-9.98-49.88-17.62-75.79-22.7-25.92-5.08-52.33-7.59-78.73-7.57-26.41.07-52.81,2.6-78.7,7.73-25.9,5.12-51.28,12.81-75.7,22.83-48.85,20.07-93.67,49.92-131.16,87.21-37.48,37.3-67.6,81.98-88.11,130.79-10.26,24.4-18.13,49.81-23.47,75.77-5.33,25.96-8.1,52.46-8.31,79-.26,53.07,9.72,106.32,30.04,155.5,10.07,24.61,22.71,48.17,37.46,70.3,14.75,22.14,31.8,42.74,50.61,61.54,18.87,18.74,39.61,35.6,61.78,50.25,22.2,14.61,45.81,27.03,70.4,37.01,49.18,20.01,102.23,29.93,155.16,29.69,26.47-.12,52.9-2.86,78.84-7.98,25.94-5.16,51.35-12.89,75.81-22.92l2.31-.9c.77-.31,1.51-.67,2.27-1l4.52-2.03,9.05-4.06,2.26-1.02,2.21-1.12,4.42-2.25,8.84-4.5,2.21-1.12,2.16-1.22,4.32-2.45,8.63-4.89c1.46-.79,2.85-1.68,4.25-2.57l4.19-2.65,8.39-5.31c22.07-14.61,42.82-31.27,61.75-49.86,37.85-37.14,68.56-81.76,89.29-130.81,10.43-24.49,18.26-50.09,23.59-76.19,5.28-26.12,7.87-52.78,7.95-79.44Z"/>
  <path class="cls-7" d="M635.39,410.62c.42-21.38.71-51.67-.57-65.21-6.11-64.4-66.45-110.31-129.38-112.68-66.61-2.51-133.29,44.39-139.81,112.68-1.29,13.54-1,43.82-.57,65.21h-22.58c-9.64,0-17.46,7.81-17.46,17.46v286.61c0,9.64,7.81,17.46,17.46,17.46h315.5c9.64,0,17.46-7.81,17.46-17.46v-286.61c0-9.64-7.81-17.46-17.46-17.46h-22.58ZM522.84,621.99h-45.25l11.62-46.13c-8.31-4.13-13.98-12.79-13.72-22.75.32-12.69,10.46-23.26,23.12-24.06,14.38-.9,26.33,10.49,26.33,24.69,0,9.7-5.6,18.08-13.73,22.13l11.62,46.13h.01ZM592.3,409.52h-182.97c-6.92,0-12.55-5.57-12.63-12.49-.17-14.69-.11-30.28.66-38.67,5.11-55.95,50.54-95.84,102.86-96.73,49.48-.84,99.26,43.97,104.06,96.73.76,8.39.82,23.96.65,38.67-.08,6.92-5.71,12.49-12.63,12.49h0Z"/>
</svg>