<?xml version="1.0" encoding="UTF-8"?>
<svg id="Livello_1" data-name="Livello 1" xmlns="http://www.w3.org/2000/svg" xmlns:xlink="http://www.w3.org/1999/xlink" viewBox="0 0 1000 1000">
  <defs>
    <style>
      .cls-1 {
        filter: url(#drop-shadow-91);
        font-family: MyriadConceptItalic-Regular, 'Myriad Variable Concept';
        font-size: 66.92px;
        font-variation-settings: 'wght' 400, 'wdth' 100;
      }

      .cls-1, .cls-2 {
        fill: #fff;
      }

      .cls-3 {
        fill: url(#Sfumatura_senza_nome_11);
      }

      .cls-4 {
        fill: #00b4d8;
      }

      .cls-5 {
        filter: url(#drop-shadow-90);
      }

      .cls-6 {
        fill: url(#Sfumatura_senza_nome_11-3);
      }

      .cls-7 {
        fill: url(#Sfumatura_senza_nome_11-2);
      }

      .cls-8 {
        fill: url(#Sfumatura_senza_nome_113-2);
      }

      .cls-9 {
        fill: url(#Sfumatura_senza_nome_113);
      }
    </style>
    <linearGradient id="Sfumatura_senza_nome_113" data-name="Sfumatura senza nome 113" x1="178.39" y1="321.32" x2="790.05" y2="321.32" gradientUnits="userSpaceOnUse">
      <stop offset="0" stop-color="#0077b6"/>
      <stop offset="1" stop-color="#03045e"/>
    </linearGradient>
    <linearGradient id="Sfumatura_senza_nome_113-2" data-name="Sfumatura senza nome 113" y1="711.75" y2="711.75" xlink:href="#Sfumatura_senza_nome_113"/>
    <linearGradient id="Sfumatura_senza_nome_11" data-name="Sfumatura senza nome 11" x1="373.25" y1="371.15" x2="791.77" y2="371.15" gradientUnits="userSpaceOnUse">
      <stop offset="0" stop-color="#90e0ef"/>
      <stop offset="1" stop-color="#00b4d8"/>
    </linearGradient>
    <linearGradient id="Sfumatura_senza_nome_11-2" data-name="Sfumatura senza nome 11" x1="162.86" y1="166.6" x2="239.67" y2="166.6" xlink:href="#Sfumatura_senza_nome_11"/>
    <filter id="drop-shadow-90" x="174.98" y="139.41" width="61" height="66" filterUnits="userSpaceOnUse">
      <feOffset dx="4.5" dy="4.5"/>
      <feGaussianBlur result="blur" stdDeviation="3"/>
      <feFlood flood-color="#000" flood-opacity=".25"/>
      <feComposite in2="blur" operator="in"/>
      <feComposite in="SourceGraphic"/>
    </filter>
    <linearGradient id="Sfumatura_senza_nome_11-3" data-name="Sfumatura senza nome 11" x1="162.86" y1="565.67" x2="239.67" y2="565.67" xlink:href="#Sfumatura_senza_nome_11"/>
    <filter id="drop-shadow-91" filterUnits="userSpaceOnUse">
      <feOffset dx="4.5" dy="4.5"/>
      <feGaussianBlur result="blur-2" stdDeviation="3"/>
      <feFlood flood-color="#000" flood-opacity=".25"/>
      <feComposite in2="blur-2" operator="in"/>
      <feComposite in="SourceGraphic"/>
    </filter>
  </defs>
  <path class="cls-9" d="M745.58,153.2H222.85c-24.56,0-44.46,19.91-44.46,44.46v247.32c0,24.56,19.91,44.46,44.46,44.46h522.73c24.56,0,44.46-19.91,44.46-44.46v-247.32c0-24.56-19.91-44.46-44.46-44.46ZM379.93,368.61c4.76,2.55,8.09,5.08,9.99,7.58,1.9,2.5,2.86,5.52,2.86,9.06,0,4.12-1.13,7.46-3.37,10.01-2.25,2.55-5.24,3.83-8.96,3.83-1.56,0-3.27-.29-5.13-.88-1.86-.59-4.13-1.57-6.81-2.95l-102.28-53.45c-.52-.29-1.34-.69-2.47-1.18-9.17-4.81-13.76-10.45-13.76-16.93s4.8-12.37,14.41-17.38l1.04-.74,103.06-54.48c3.46-1.77,6.01-2.92,7.66-3.46,1.64-.54,3.07-.81,4.28-.81,3.72,0,6.7,1.28,8.96,3.83,2.25,2.55,3.37,5.89,3.37,10.01,0,3.53-.97,6.6-2.92,9.2-1.95,2.6-5.26,5.18-9.93,7.73l-84.5,45.5,84.5,45.5ZM539.58,224.75c-.52,1.96-1.52,4.71-2.99,8.25l-76.06,184.79c-2.34,5.79-4.5,9.81-6.49,12.07-1.99,2.26-4.33,3.39-7.01,3.39-3.98,0-7.51-1.42-10.58-4.27-3.07-2.85-4.61-6.38-4.61-10.6,0-2.85,1.17-7.26,3.5-13.25l.26-.59,75.93-184.5c2.42-5.99,4.63-10.11,6.62-12.37,1.99-2.26,4.33-3.39,7.01-3.39,3.89,0,7.4,1.42,10.51,4.27,3.12,2.85,4.67,6.38,4.67,10.6,0,1.77-.26,3.63-.78,5.6ZM704.55,340.63c-.87.59-1.56.98-2.08,1.18l-102.67,53.45c-2.6,1.38-4.83,2.36-6.68,2.95-1.86.59-3.61.88-5.26.88-3.63,0-6.53-1.25-8.7-3.75-2.16-2.5-3.24-5.86-3.24-10.09,0-3.53.93-6.55,2.79-9.06,1.86-2.5,5.17-5.03,9.93-7.58l84.63-45.5-84.63-45.5c-4.59-2.55-7.85-5.13-9.8-7.73-1.95-2.6-2.92-5.67-2.92-9.2,0-4.12,1.08-7.46,3.24-10.01,2.16-2.55,5.06-3.83,8.7-3.83,1.38,0,2.96.29,4.74.88,1.77.59,4.3,1.72,7.59,3.39l102.8,54.48,1.04.74c9.6,5.01,14.41,10.8,14.41,17.38s-4.63,12.22-13.89,16.93Z"/>
  <path class="cls-8" d="M745.58,543.63H222.85c-24.56,0-44.46,19.91-44.46,44.46v247.32c0,24.56,19.91,44.46,44.46,44.46h522.73c24.56,0,44.46-19.91,44.46-44.46v-247.32c0-24.56-19.91-44.46-44.46-44.46ZM379.93,759.04c4.76,2.55,8.09,5.08,9.99,7.58,1.9,2.5,2.86,5.52,2.86,9.06,0,4.12-1.13,7.46-3.37,10.01-2.25,2.55-5.24,3.83-8.96,3.83-1.56,0-3.27-.29-5.13-.88-1.86-.59-4.13-1.57-6.81-2.95l-102.28-53.45c-.52-.29-1.34-.69-2.47-1.18-9.17-4.81-13.76-10.45-13.76-16.93s4.8-12.37,14.41-17.38l1.04-.74,103.06-54.48c3.46-1.77,6.01-2.92,7.66-3.46,1.64-.54,3.07-.81,4.28-.81,3.72,0,6.7,1.28,8.96,3.83,2.25,2.55,3.37,5.89,3.37,10.01,0,3.53-.97,6.6-2.92,9.2-1.95,2.6-5.26,5.18-9.93,7.73l-84.5,45.5,84.5,45.5ZM539.58,615.18c-.52,1.96-1.52,4.71-2.99,8.25l-76.06,184.79c-2.34,5.79-4.5,9.81-6.49,12.07-1.99,2.26-4.33,3.39-7.01,3.39-3.98,0-7.51-1.42-10.58-4.27-3.07-2.85-4.61-6.38-4.61-10.6,0-2.85,1.17-7.26,3.5-13.25l.26-.59,75.93-184.5c2.42-5.99,4.63-10.11,6.62-12.37,1.99-2.26,4.33-3.39,7.01-3.39,3.89,0,7.4,1.42,10.51,4.27,3.12,2.85,4.67,6.38,4.67,10.6,0,1.77-.26,3.63-.78,5.6ZM704.55,731.06c-.87.59-1.56.98-2.08,1.18l-102.67,53.45c-2.6,1.38-4.83,2.36-6.68,2.95-1.86.59-3.61.88-5.26.88-3.63,0-6.53-1.25-8.7-3.75-2.16-2.5-3.24-5.86-3.24-10.09,0-3.53.93-6.55,2.79-9.06,1.86-2.5,5.17-5.03,9.93-7.58l84.63-45.5-84.63-45.5c-4.59-2.55-7.85-5.13-9.8-7.73-1.95-2.6-2.92-5.67-2.92-9.2,0-4.12,1.08-7.46,3.24-10.01,2.16-2.55,5.06-3.83,8.7-3.83,1.38,0,2.96.29,4.74.88,1.77.59,4.3,1.72,7.59,3.39l102.8,54.48,1.04.74c9.6,5.01,14.41,10.8,14.41,17.38s-4.63,12.22-13.89,16.93Z"/>
  <g>
    <g>
      <path class="cls-2" d="M892.46,936.66l-14.94,7.73c-12.87,6.66-28.71,1.61-35.37-11.26l-178.58-345.38c-25.23,9.45-52.55,14.61-81.07,14.61-127.7,0-231.21-103.51-231.21-231.2s103.51-231.21,231.21-231.21,231.2,103.51,231.2,231.21c0,74.34-35.08,140.48-89.6,182.76l179.6,347.38c6.66,12.88,1.62,28.71-11.26,35.37Z"/>
      <path class="cls-4" d="M892.69,937.1s-12.4,6.42-12.4,6.42c-2.02,1.09-4.22,2.2-6.42,2.92-10.73,3.75-23.57-.35-30.12-9.65-1.79-2.38-2.98-5.09-4.36-7.65,0,0-3.25-6.18-3.25-6.18-23.67-45.14-47.98-90.82-72.02-135.68-33.09-61.7-72.25-135.35-104.49-197.49,0,0,5.5,2.12,5.5,2.12-139.47,52.21-290.52-38.69-312.73-185.26-22.09-145.64,94.76-276.99,242.35-270.32,121.69,4.65,222.37,107.52,224.09,229.35,1.97,68.74-27.5,136.04-79.04,181.48-2.53,2.49-9.89,8.18-12.74,10.56,0,0,1.33-6.02,1.33-6.02,46.88,91.76,99.07,197.91,145.52,289.74,3.59,7.17,27.16,53.34,30.61,60.23,6.32,12.72.9,29.05-11.84,35.43h0ZM892.23,936.22c12.16-6.18,17.46-21.84,11.24-34.04-40.84-78.61-91.1-171.8-133.13-250.5-13.59-25.47-38.88-73.41-52.3-98.96,5.89-4.9,13.61-11.14,19.08-16.49,104.05-97.95,92.43-267.71-24.3-350.39-174.16-120.6-403.09,34.42-352.96,241.35,33.66,131.31,175.79,203.78,302.16,156.41,0,0,3.71-1.38,3.71-1.38l1.79,3.5c32.07,62.23,69.53,136.77,100.73,199.44,22.7,45.54,45.96,91.82,69.08,137.2,2.18,3.97,5.36,11.48,8.4,15.11,6.5,8.02,18.04,11.43,27.81,8.01,2.16-.7,4.26-1.79,6.27-2.85,0,0,12.41-6.41,12.41-6.41h0Z"/>
    </g>
    <circle class="cls-3" cx="582.51" cy="371.15" r="209.26"/>
  </g>
  <path class="cls-2" d="M542.66,191.17c-.74,2.81-2.17,6.74-4.27,11.8l-108.81,264.36c-3.34,8.28-6.44,14.04-9.28,17.27-2.85,3.23-6.19,4.84-10.03,4.84-5.69,0-10.74-2.04-15.13-6.11-4.4-4.07-6.59-9.13-6.59-15.17,0-4.07,1.67-10.39,5.01-18.96l.37-.84,108.63-263.94c3.46-8.56,6.62-14.46,9.47-17.69,2.85-3.23,6.19-4.85,10.03-4.85,5.57,0,10.58,2.04,15.04,6.11,4.46,4.07,6.68,9.13,6.68,15.17,0,2.53-.37,5.2-1.11,8Z"/>
  <path class="cls-2" d="M778.67,356.95c-1.24.84-2.23,1.41-2.97,1.68l-146.88,76.46c-3.71,1.97-6.9,3.37-9.56,4.21-2.66.84-5.17,1.26-7.52,1.26-5.2,0-9.35-1.79-12.44-5.37-3.1-3.58-4.64-8.39-4.64-14.43,0-5.05,1.33-9.37,3.99-12.95,2.66-3.58,7.4-7.19,14.21-10.85l121.07-65.09-121.07-65.09c-6.56-3.65-11.23-7.34-14.02-11.06-2.79-3.72-4.18-8.11-4.18-13.17,0-5.9,1.55-10.67,4.64-14.32,3.09-3.65,7.24-5.48,12.44-5.48,1.98,0,4.24.42,6.78,1.26,2.54.84,6.16,2.46,10.86,4.85l147.06,77.94,1.49,1.05c13.74,7.16,20.61,15.45,20.61,24.86s-6.62,17.48-19.87,24.23Z"/>
  <path class="cls-7" d="M205.26,128.92h-7.99c-19.01,0-34.42,16.87-34.42,37.68h0c0,20.81,15.41,37.68,34.42,37.68h7.99c19,0,34.41-16.87,34.41-37.67h0c0-20.82-15.41-37.68-34.41-37.68Z"/>
  <g class="cls-5">
    <path class="cls-2" d="M180.48,172l4.4-2.94c3.64,5.48,6.61,11.56,8.71,17.47h.27c4.76-15.95,13.95-31.88,24.04-41.91l4.24,3.85c-10.12,9.48-19.62,24.18-24.72,42.58l-6.71.77c-2.71-7.41-5.88-13.58-10.22-19.81Z"/>
  </g>
  <path class="cls-6" d="M205.26,527.99h-7.99c-19.01,0-34.42,16.87-34.42,37.68h0c0,20.81,15.41,37.68,34.42,37.68h7.99c19,0,34.41-16.87,34.41-37.67h0c0-20.82-15.41-37.68-34.41-37.68Z"/>
  <text class="cls-1" transform="translate(180.35 588.5) scale(1.11 1)"><tspan x="0" y="0">X</tspan></text>
</svg>