<?xml version="1.0" encoding="UTF-8"?>
<svg id="Livello_1" data-name="Livello 1" xmlns="http://www.w3.org/2000/svg" xmlns:xlink="http://www.w3.org/1999/xlink" viewBox="0 0 1000 1000">
  <defs>
    <style>
      .cls-1 {
        fill: url(#Sfumatura_senza_nome_5);
        filter: url(#drop-shadow-118);
      }

      .cls-2 {
        fill: url(#Sfumatura_senza_nome_11);
      }
    </style>
    <linearGradient id="Sfumatura_senza_nome_5" data-name="Sfumatura senza nome 5" x1="153.71" y1="538.53" x2="846.29" y2="538.53" gradientUnits="userSpaceOnUse">
      <stop offset="0" stop-color="#0077b6"/>
      <stop offset="1" stop-color="#03045e"/>
    </linearGradient>
    <filter id="drop-shadow-118" x="56.05" y="49.27" width="924" height="1015" filterUnits="userSpaceOnUse">
      <feOffset dx="17.88" dy="17.88"/>
      <feGaussianBlur result="blur" stdDeviation="38.31"/>
      <feFlood flood-color="#000" flood-opacity=".25"/>
      <feComposite in2="blur" operator="in"/>
      <feComposite in="SourceGraphic"/>
    </filter>
    <linearGradient id="Sfumatura_senza_nome_11" data-name="Sfumatura senza nome 11" x1="307.76" y1="471.25" x2="692.25" y2="471.25" gradientUnits="userSpaceOnUse">
      <stop offset="0" stop-color="#90e0ef"/>
      <stop offset="1" stop-color="#00b4d8"/>
    </linearGradient>
  </defs>
  <path class="cls-1" d="M484.62,922.99c7.9,9.84,22.85,9.84,30.75,0,75.83-94.47,203.21-165.09,270.3-322.87,59.69-140.37,46.11-324.85,60.44-431.04,1.6-11.84-7.57-22.39-19.52-22.39H173.41c-11.95,0-21.11,10.54-19.52,22.39,14.32,106.19.75,290.67,60.43,431.04,67.09,157.79,194.46,228.41,270.3,322.87Z"/>
  <path class="cls-2" d="M476.23,663.54c-10.78-4.68-12.34-13.82-14.11-29.19-.72-6.29-1.47-12.8-3.35-19.12l-1.1-3.71-29.7-10.98-3.26,2.13c-3.95,2.58-7.92,5.89-11.76,9.1-8.18,6.83-16.63,13.9-24.55,13.9-2.56,0-5.06-.74-7.65-2.26-4.07-3.26-29.94-29.58-33.75-34.32-4.1-9.81,1.91-18.05,12.2-30.3,3.32-3.95,6.75-8.03,9.45-12.24l2.13-3.32-11.83-30.46-3.97-.93c-5.49-1.29-11.15-1.89-16.61-2.47-16.19-1.71-25.81-3.26-30.62-14.3v-46.89c4.81-11.04,14.43-12.59,30.62-14.3,5.47-.58,11.12-1.18,16.61-2.47l3.97-.93,11.84-30.48-2.17-3.33c-2.58-3.95-5.89-7.92-9.1-11.76-11.19-13.39-17.56-22.26-11.57-32.33,3.06-4.21,28.11-29.01,31.49-31.52,3.12-2.31,6.12-3.43,9.16-3.43,7.69,0,16.16,7.05,24.34,13.86,3.81,3.17,7.75,6.46,11.7,9.07l3.34,2.22,30.47-11.84.96-3.9c1.16-4.72,1.74-9.96,2.34-15.51,1.89-17.32,3.93-28.86,14.58-31.33,2.6-.6,10.89-1.21,23.55-1.21,8.32,0,16.34.28,19.95.69,14.09,1.6,16.2,14.25,18.01,34.9.35,3.98.68,7.74,1.2,11.32l.67,4.59,32.77,11.82,3.29-2.31c3.36-2.36,6.64-5.13,10.1-8.06,8.33-7.04,16.94-14.31,25.06-14.31,2.56,0,5.07.74,7.64,2.25,4.07,3.26,29.94,29.59,33.75,34.32,4.06,9.68-1.54,17.25-10.92,28.67-4.01,4.88-8.16,9.93-11.08,15.46l-1.7,3.21,12.45,30.16,4.44.58c3.42.44,7.09.75,10.64,1.05,8.99.75,18.29,1.52,25.1,4.53,6.58,2.91,9.7,7.38,10.41,14.97.99,10.54.71,38.35-1.14,43.65-3.29,9.38-13.11,11.13-28.89,12.89-6.31.7-12.83,1.43-18.52,3.25l-3.6,1.15-10.95,29.61,2.12,3.26c2.58,3.95,5.89,7.92,9.1,11.76,11.19,13.39,17.56,22.26,11.57,32.33-3.06,4.21-28.11,29.01-31.49,31.52-3.12,2.31-6.12,3.43-9.16,3.43h0c-7.69,0-16.16-7.05-24.34-13.86-3.81-3.17-7.75-6.46-11.7-9.07l-3.34-2.22-30.52,11.86-.93,3.97c-1.29,5.49-1.89,11.15-2.47,16.61-1.71,16.19-3.26,25.81-14.3,30.62h-46.9ZM500,368.76c-56.51,0-102.49,45.98-102.49,102.49s45.98,102.49,102.49,102.49,102.49-45.98,102.49-102.49-45.98-102.49-102.49-102.49Z"/>
</svg>