<?xml version="1.0" encoding="UTF-8"?>
<svg id="Livello_1" data-name="Livello 1" xmlns="http://www.w3.org/2000/svg" xmlns:xlink="http://www.w3.org/1999/xlink" viewBox="0 0 1000 1000">
  <defs>
    <style>
      .cls-1 {
        fill: #fff;
        filter: url(#drop-shadow-119);
        stroke: #00b4d8;
        stroke-miterlimit: 10;
        stroke-width: 10.96px;
      }

      .cls-2 {
        fill: url(#Sfumatura_senza_nome_11);
      }

      .cls-3 {
        fill: url(#Sfumatura_senza_nome_113-4);
      }

      .cls-4 {
        fill: url(#Sfumatura_senza_nome_113-3);
      }

      .cls-5 {
        fill: url(#Sfumatura_senza_nome_113-2);
      }

      .cls-6 {
        fill: url(#Sfumatura_senza_nome_113);
      }
    </style>
    <linearGradient id="Sfumatura_senza_nome_11" data-name="Sfumatura senza nome 11" x1="163.93" y1="13266.38" x2="836.07" y2="13266.38" gradientTransform="translate(0 13806.41) scale(1 -1)" gradientUnits="userSpaceOnUse">
      <stop offset="0" stop-color="#90e0ef"/>
      <stop offset="1" stop-color="#00b4d8"/>
    </linearGradient>
    <linearGradient id="Sfumatura_senza_nome_113" data-name="Sfumatura senza nome 113" x1="163.93" y1="13620.81" x2="836.06" y2="13620.81" gradientTransform="translate(0 13806.41) scale(1 -1)" gradientUnits="userSpaceOnUse">
      <stop offset="0" stop-color="#0077b6"/>
      <stop offset="1" stop-color="#03045e"/>
    </linearGradient>
    <linearGradient id="Sfumatura_senza_nome_113-2" data-name="Sfumatura senza nome 113" y1="13381.98" y2="13381.98" xlink:href="#Sfumatura_senza_nome_113"/>
    <linearGradient id="Sfumatura_senza_nome_113-3" data-name="Sfumatura senza nome 113" y1="13152.91" y2="13152.91" xlink:href="#Sfumatura_senza_nome_113"/>
    <filter id="drop-shadow-119" x="253.24" y="299.35" width="504" height="552" filterUnits="userSpaceOnUse">
      <feOffset dx="9.59" dy="9.59"/>
      <feGaussianBlur result="blur" stdDeviation="20.55"/>
      <feFlood flood-color="#000" flood-opacity=".25"/>
      <feComposite in2="blur" operator="in"/>
      <feComposite in="SourceGraphic"/>
    </filter>
    <linearGradient id="Sfumatura_senza_nome_113-4" data-name="Sfumatura senza nome 113" x1="408.15" y1="526.6" x2="582.7" y2="526.6" gradientTransform="matrix(1,0,0,1,0,0)" xlink:href="#Sfumatura_senza_nome_113"/>
  </defs>
  <g>
    <path class="cls-2" d="M836.06,814.41c0,44.22-150.47,80.06-336.06,80.06s-336.06-35.85-336.06-80.06V185.58h672.14v628.83h-.01Z"/>
    <ellipse class="cls-6" cx="499.99" cy="185.59" rx="336.06" ry="80.06"/>
    <path class="cls-5" d="M836.06,414.66c0,44.22-150.47,80.06-336.06,80.06s-336.06-35.85-336.06-80.06v-60.53c0,44.22,150.47,80.06,336.06,80.06s336.06-35.85,336.06-80.06v60.53Z"/>
    <path class="cls-4" d="M836.06,643.73c0,44.22-150.47,80.06-336.06,80.06s-336.06-35.85-336.06-80.06v-60.53c0,44.22,150.47,80.06,336.06,80.06s336.06-35.85,336.06-80.06v60.53Z"/>
  </g>
  <path class="cls-1" d="M488.92,774.13c4.24,5.28,12.26,5.28,16.49,0,40.68-50.67,109-88.55,144.99-173.19,32.02-75.3,24.73-174.25,32.42-231.21.86-6.35-4.06-12.01-10.47-12.01h-350.37c-6.41,0-11.33,5.66-10.47,12.01,7.68,56.96.4,155.92,32.42,231.21,35.99,84.64,104.31,122.52,144.99,173.19Z"/>
  <path class="cls-3" d="M562.76,490.85c.21-10.65.35-25.74-.29-32.48-3.04-32.08-33.1-54.95-64.45-56.13-33.18-1.25-66.4,22.11-69.65,56.13-.64,6.74-.5,21.83-.29,32.48h-11.25c-4.8,0-8.7,3.89-8.7,8.7v142.77c0,4.8,3.89,8.7,8.7,8.7h157.16c4.8,0,8.7-3.89,8.7-8.7v-142.77c0-4.8-3.89-8.7-8.7-8.7h-11.25ZM506.69,596.14h-22.54l5.79-22.98c-4.14-2.06-6.96-6.37-6.84-11.33.16-6.32,5.21-11.58,11.52-11.99,7.16-.45,13.12,5.23,13.12,12.3,0,4.83-2.79,9-6.84,11.02l5.79,22.98h0ZM541.29,490.3h-91.14c-3.45,0-6.25-2.77-6.29-6.22-.08-7.32-.05-15.08.33-19.26,2.55-27.87,25.17-47.74,51.24-48.18,24.65-.42,49.45,21.9,51.84,48.18.38,4.18.41,11.94.32,19.26-.04,3.45-2.84,6.22-6.29,6.22h0Z"/>
</svg>