<?xml version="1.0" encoding="UTF-8"?>
<svg id="Livello_1" data-name="Livello 1" xmlns="http://www.w3.org/2000/svg" xmlns:xlink="http://www.w3.org/1999/xlink" viewBox="0 0 1000 1000">
  <defs>
    <style>
      .cls-1 {
        fill: url(#Sfumatura_senza_nome_11);
      }

      .cls-2 {
        fill: url(#Sfumatura_senza_nome_11-4);
      }

      .cls-3 {
        fill: url(#Sfumatura_senza_nome_11-3);
      }

      .cls-4 {
        fill: url(#Sfumatura_senza_nome_11-2);
      }

      .cls-5 {
        fill: #fff;
      }

      .cls-6 {
        filter: url(#drop-shadow-120);
      }

      .cls-7 {
        filter: url(#drop-shadow-121);
      }

      .cls-8 {
        fill: url(#Sfumatura_senza_nome_113-2);
      }

      .cls-9 {
        fill: url(#Sfumatura_senza_nome_113-3);
        opacity: .5;
      }

      .cls-10 {
        fill: url(#Sfumatura_senza_nome_113);
      }
    </style>
    <linearGradient id="Sfumatura_senza_nome_113" data-name="Sfumatura senza nome 113" x1="178.39" y1="321.32" x2="790.05" y2="321.32" gradientUnits="userSpaceOnUse">
      <stop offset="0" stop-color="#0077b6"/>
      <stop offset="1" stop-color="#03045e"/>
    </linearGradient>
    <linearGradient id="Sfumatura_senza_nome_113-2" data-name="Sfumatura senza nome 113" y1="711.75" y2="711.75" xlink:href="#Sfumatura_senza_nome_113"/>
    <linearGradient id="Sfumatura_senza_nome_11" data-name="Sfumatura senza nome 11" x1="373.25" y1="371.15" x2="791.78" y2="371.15" gradientUnits="userSpaceOnUse">
      <stop offset="0" stop-color="#90e0ef"/>
      <stop offset="1" stop-color="#00b4d8"/>
    </linearGradient>
    <linearGradient id="Sfumatura_senza_nome_113-3" data-name="Sfumatura senza nome 113" x1="373.25" y1="371.15" x2="791.78" y2="371.15" xlink:href="#Sfumatura_senza_nome_113"/>
    <linearGradient id="Sfumatura_senza_nome_11-2" data-name="Sfumatura senza nome 11" x1="351.3" y1="543.63" x2="906.66" y2="543.63" xlink:href="#Sfumatura_senza_nome_11"/>
    <linearGradient id="Sfumatura_senza_nome_11-3" data-name="Sfumatura senza nome 11" x1="162.86" y1="166.6" x2="239.67" y2="166.6" xlink:href="#Sfumatura_senza_nome_11"/>
    <filter id="drop-shadow-120" x="175.89" y="140" width="60" height="66" filterUnits="userSpaceOnUse">
      <feOffset dx="4.5" dy="4.5"/>
      <feGaussianBlur result="blur" stdDeviation="3"/>
      <feFlood flood-color="#000" flood-opacity=".25"/>
      <feComposite in2="blur" operator="in"/>
      <feComposite in="SourceGraphic"/>
    </filter>
    <linearGradient id="Sfumatura_senza_nome_11-4" data-name="Sfumatura senza nome 11" x1="162.86" y1="565.67" x2="239.67" y2="565.67" xlink:href="#Sfumatura_senza_nome_11"/>
    <filter id="drop-shadow-121" x="172.89" y="538" width="66" height="64" filterUnits="userSpaceOnUse">
      <feOffset dx="4.5" dy="4.5"/>
      <feGaussianBlur result="blur-2" stdDeviation="3"/>
      <feFlood flood-color="#000" flood-opacity=".25"/>
      <feComposite in2="blur-2" operator="in"/>
      <feComposite in="SourceGraphic"/>
    </filter>
  </defs>
  <path class="cls-10" d="M745.58,153.2H222.85c-24.56,0-44.46,19.91-44.46,44.46v247.32c0,24.56,19.91,44.46,44.46,44.46h522.73c24.56,0,44.46-19.91,44.46-44.46v-247.32c0-24.56-19.91-44.46-44.46-44.46ZM379.93,368.61c4.76,2.55,8.09,5.08,9.99,7.58,1.9,2.5,2.86,5.52,2.86,9.06,0,4.12-1.13,7.46-3.37,10.01-2.25,2.55-5.24,3.83-8.96,3.83-1.56,0-3.27-.29-5.13-.88-1.86-.59-4.13-1.57-6.81-2.95l-102.28-53.45c-.52-.29-1.34-.69-2.47-1.18-9.17-4.81-13.76-10.45-13.76-16.93s4.8-12.37,14.41-17.38l1.04-.74,103.06-54.48c3.46-1.77,6.01-2.92,7.66-3.46,1.64-.54,3.07-.81,4.28-.81,3.72,0,6.7,1.28,8.96,3.83,2.25,2.55,3.37,5.89,3.37,10.01,0,3.53-.97,6.6-2.92,9.2-1.95,2.6-5.26,5.18-9.93,7.73l-84.5,45.5,84.5,45.5ZM539.58,224.75c-.52,1.96-1.52,4.71-2.99,8.25l-76.06,184.79c-2.34,5.79-4.5,9.81-6.49,12.07-1.99,2.26-4.33,3.39-7.01,3.39-3.98,0-7.51-1.42-10.58-4.27-3.07-2.85-4.61-6.38-4.61-10.6,0-2.85,1.17-7.26,3.5-13.25l.26-.59,75.93-184.5c2.42-5.99,4.63-10.11,6.62-12.37,1.99-2.26,4.33-3.39,7.01-3.39,3.89,0,7.4,1.42,10.51,4.27,3.12,2.85,4.67,6.38,4.67,10.6,0,1.77-.26,3.63-.78,5.6ZM704.55,340.63c-.87.59-1.56.98-2.08,1.18l-102.67,53.45c-2.6,1.38-4.83,2.36-6.68,2.95-1.86.59-3.61.88-5.26.88-3.63,0-6.53-1.25-8.7-3.75-2.16-2.5-3.24-5.86-3.24-10.09,0-3.53.93-6.55,2.79-9.06,1.86-2.5,5.17-5.03,9.93-7.58l84.63-45.5-84.63-45.5c-4.59-2.55-7.85-5.13-9.8-7.73-1.95-2.6-2.92-5.67-2.92-9.2,0-4.12,1.08-7.46,3.24-10.01,2.16-2.55,5.06-3.83,8.7-3.83,1.38,0,2.96.29,4.74.88,1.77.59,4.3,1.72,7.59,3.39l102.8,54.48,1.04.74c9.6,5.01,14.41,10.8,14.41,17.38s-4.63,12.22-13.89,16.93Z"/>
  <path class="cls-8" d="M745.58,543.63H222.85c-24.56,0-44.46,19.91-44.46,44.46v247.32c0,24.56,19.91,44.46,44.46,44.46h522.73c24.56,0,44.46-19.91,44.46-44.46v-247.32c0-24.56-19.91-44.46-44.46-44.46ZM379.93,759.04c4.76,2.55,8.09,5.08,9.99,7.58,1.9,2.5,2.86,5.52,2.86,9.06,0,4.12-1.13,7.46-3.37,10.01-2.25,2.55-5.24,3.83-8.96,3.83-1.56,0-3.27-.29-5.13-.88-1.86-.59-4.13-1.57-6.81-2.95l-102.28-53.45c-.52-.29-1.34-.69-2.47-1.18-9.17-4.81-13.76-10.45-13.76-16.93s4.8-12.37,14.41-17.38l1.04-.74,103.06-54.48c3.46-1.77,6.01-2.92,7.66-3.46,1.64-.54,3.07-.81,4.28-.81,3.72,0,6.7,1.28,8.96,3.83,2.25,2.55,3.37,5.89,3.37,10.01,0,3.53-.97,6.6-2.92,9.2-1.95,2.6-5.26,5.18-9.93,7.73l-84.5,45.5,84.5,45.5ZM539.58,615.18c-.52,1.96-1.52,4.71-2.99,8.25l-76.06,184.79c-2.34,5.79-4.5,9.81-6.49,12.07-1.99,2.26-4.33,3.39-7.01,3.39-3.98,0-7.51-1.42-10.58-4.27-3.07-2.85-4.61-6.38-4.61-10.6,0-2.85,1.17-7.26,3.5-13.25l.26-.59,75.93-184.5c2.42-5.99,4.63-10.11,6.62-12.37,1.99-2.26,4.33-3.39,7.01-3.39,3.89,0,7.4,1.42,10.51,4.27,3.12,2.85,4.67,6.38,4.67,10.6,0,1.77-.26,3.63-.78,5.6ZM704.55,731.06c-.87.59-1.56.98-2.08,1.18l-102.67,53.45c-2.6,1.38-4.83,2.36-6.68,2.95-1.86.59-3.61.88-5.26.88-3.63,0-6.53-1.25-8.7-3.75-2.16-2.5-3.24-5.86-3.24-10.09,0-3.53.93-6.55,2.79-9.06,1.86-2.5,5.17-5.03,9.93-7.58l84.63-45.5-84.63-45.5c-4.59-2.55-7.85-5.13-9.8-7.73-1.95-2.6-2.92-5.67-2.92-9.2,0-4.12,1.08-7.46,3.24-10.01,2.16-2.55,5.06-3.83,8.7-3.83,1.38,0,2.96.29,4.74.88,1.77.59,4.3,1.72,7.59,3.39l102.8,54.48,1.04.74c9.6,5.01,14.41,10.8,14.41,17.38s-4.63,12.22-13.89,16.93Z"/>
  <g>
    <path class="cls-1" d="M791.78,371.15c0,115.57-93.69,209.26-209.27,209.26-71.68,0-134.94-36.04-172.64-90.98-7.23-10.52-13.51-21.72-18.73-33.51-11.5-25.91-17.89-54.59-17.89-84.77,0-88.63,55.1-164.39,132.91-194.9,9.63-3.77,19.61-6.85,29.88-9.18,14.95-3.39,30.5-5.18,46.47-5.18,94.56,0,174.47,62.71,200.4,148.81,3.72,12.31,6.32,25.1,7.7,38.25.78,7.3,1.17,14.7,1.17,22.2Z"/>
    <path class="cls-9" d="M791.78,371.15c0,115.57-93.69,209.26-209.27,209.26-71.68,0-134.94-36.04-172.64-90.98-7.23-10.52-13.51-21.72-18.73-33.51-11.5-25.91-17.89-54.59-17.89-84.77,0-88.63,55.1-164.39,132.91-194.9,9.63-3.77,19.61-6.85,29.88-9.18,14.95-3.39,30.5-5.18,46.47-5.18,94.56,0,174.47,62.71,200.4,148.81,3.72,12.31,6.32,25.1,7.7,38.25.78,7.3,1.17,14.7,1.17,22.2Z"/>
  </g>
  <path class="cls-4" d="M903.72,901.29l-179.59-347.38c54.51-42.28,89.59-108.42,89.59-182.76,0-127.7-103.51-231.21-231.2-231.21s-231.22,103.51-231.22,231.21,103.52,231.21,231.22,231.21c28.52,0,55.84-5.17,81.07-14.62l178.57,345.39c6.66,12.87,22.5,17.91,35.37,11.25l14.94-7.72c12.87-6.66,17.91-22.49,11.25-35.37ZM582.51,580.41c-71.68,0-134.94-36.04-172.64-90.98-7.23-10.52-13.51-21.72-18.73-33.51-11.5-25.91-17.89-54.59-17.89-84.77,0-88.63,55.1-164.39,132.91-194.9,9.63-3.77,19.61-6.85,29.88-9.18,14.95-3.39,30.5-5.18,46.47-5.18,94.56,0,174.47,62.71,200.4,148.81,3.72,12.31,6.32,25.1,7.7,38.25.78,7.3,1.17,14.7,1.17,22.2,0,115.57-93.69,209.26-209.27,209.26Z"/>
  <path class="cls-5" d="M543.78,183.16c0,2.53-.37,5.2-1.11,8.01-.75,2.81-2.17,6.74-4.27,11.79l-108.82,264.36c-3.34,8.29-6.43,14.04-9.28,17.28-2.85,3.22-6.19,4.84-10.03,4.84-.13,0-.27,0-.4-.01-7.23-10.52-13.51-21.72-18.73-33.51.67-2.06,1.48-4.3,2.42-6.71l.37-.85,108.63-263.94c1.24-3.07,2.44-5.79,3.6-8.17,9.63-3.77,19.61-6.85,29.88-9.18.36.29.71.6,1.06.92,4.45,4.08,6.68,9.14,6.68,15.17Z"/>
  <path class="cls-5" d="M790.61,348.95c-3.08,2.85-7.06,5.51-11.94,7.99-1.24.85-2.23,1.41-2.97,1.69l-146.88,76.46c-3.71,1.97-6.9,3.37-9.56,4.22-2.66.84-5.17,1.26-7.52,1.26-5.2,0-9.35-1.79-12.44-5.37-3.1-3.58-4.64-8.39-4.64-14.43,0-5.06,1.33-9.37,3.99-12.96,2.66-3.58,7.4-7.19,14.2-10.84l121.07-65.09-121.07-65.09c-6.56-3.65-11.23-7.34-14.01-11.06-2.79-3.72-4.18-8.11-4.18-13.17,0-5.89,1.54-10.67,4.64-14.32,3.09-3.65,7.24-5.48,12.44-5.48,1.98,0,4.24.42,6.78,1.27,2.53.84,6.15,2.46,10.86,4.84l147.06,77.94,1.49,1.05c1.78.93,3.44,1.87,4.98,2.84,3.72,12.31,6.32,25.1,7.7,38.25Z"/>
  <path class="cls-3" d="M205.26,128.92h-7.99c-19.01,0-34.42,16.87-34.42,37.68h0c0,20.81,15.41,37.68,34.42,37.68h7.99c19,0,34.41-16.87,34.41-37.67h0c0-20.82-15.41-37.68-34.41-37.68Z"/>
  <g class="cls-6">
    <path class="cls-5" d="M180.48,172l4.4-2.94c3.64,5.48,6.61,11.56,8.71,17.47h.27c4.76-15.95,13.95-31.88,24.04-41.91l4.24,3.85c-10.12,9.48-19.62,24.18-24.72,42.58l-6.71.77c-2.71-7.41-5.88-13.58-10.22-19.81Z"/>
  </g>
  <path class="cls-2" d="M205.26,527.99h-7.99c-19.01,0-34.42,16.87-34.42,37.68h0c0,20.81,15.41,37.68,34.42,37.68h7.99c19,0,34.41-16.87,34.41-37.67h0c0-20.82-15.41-37.68-34.41-37.68Z"/>
  <g class="cls-7">
    <path class="cls-5" d="M208.55,588.5l-4.78-11.19c-1.32-2.98-2.38-5.53-3.22-7.88h-.16c-1.55,2.12-3.36,4.59-5.87,7.76l-9.03,11.31h-7.39l19.61-22.97-9.42-22.14h6.55l4.76,11.56c1.08,2.72,1.86,4.74,2.56,6.87h.17c1.6-2.24,3.32-4.56,5.1-6.87l9.63-11.56h7.4l-19.4,22.11,10.08,23h-6.57Z"/>
  </g>
</svg>