<?xml version="1.0" encoding="UTF-8"?>
<svg id="Livello_1" data-name="Livello 1" xmlns="http://www.w3.org/2000/svg" xmlns:xlink="http://www.w3.org/1999/xlink" viewBox="0 0 1000 1000">
  <defs>
    <style>
      .cls-1 {
        filter: url(#drop-shadow-114);
      }

      .cls-1, .cls-2, .cls-3, .cls-4, .cls-5, .cls-6 {
        fill: #fff;
      }

      .cls-2 {
        filter: url(#drop-shadow-117);
      }

      .cls-3 {
        filter: url(#drop-shadow-116);
      }

      .cls-4 {
        filter: url(#drop-shadow-115);
      }

      .cls-5 {
        filter: url(#drop-shadow-112);
      }

      .cls-6 {
        filter: url(#drop-shadow-113);
      }

      .cls-7 {
        fill: url(#Sfumatura_senza_nome_113-4);
      }

      .cls-8 {
        fill: url(#Sfumatura_senza_nome_113-3);
      }

      .cls-9 {
        fill: url(#Sfumatura_senza_nome_113-2);
      }

      .cls-10 {
        fill: url(#Sfumatura_senza_nome_113-5);
      }

      .cls-11 {
        fill: url(#Sfumatura_senza_nome_11);
        filter: url(#drop-shadow-111);
      }

      .cls-12 {
        fill: url(#Sfumatura_senza_nome_113);
      }
    </style>
    <linearGradient id="Sfumatura_senza_nome_11" data-name="Sfumatura senza nome 11" x1="70.02" y1="499.93" x2="929.98" y2="499.93" gradientUnits="userSpaceOnUse">
      <stop offset="0" stop-color="#90e0ef"/>
      <stop offset="1" stop-color="#00b4d8"/>
    </linearGradient>
    <filter id="drop-shadow-111" x="50.64" y="92.7" width="909" height="824" filterUnits="userSpaceOnUse">
      <feOffset dx="5" dy="5"/>
      <feGaussianBlur result="blur" stdDeviation="8"/>
      <feFlood flood-color="#000" flood-opacity=".2"/>
      <feComposite in2="blur" operator="in"/>
      <feComposite in="SourceGraphic"/>
    </filter>
    <filter id="drop-shadow-112" x="82.64" y="418.7" width="177" height="200" filterUnits="userSpaceOnUse">
      <feOffset dx="7" dy="7"/>
      <feGaussianBlur result="blur-2" stdDeviation="15"/>
      <feFlood flood-color="#000" flood-opacity=".25"/>
      <feComposite in2="blur-2" operator="in"/>
      <feComposite in="SourceGraphic"/>
    </filter>
    <filter id="drop-shadow-113" x="640.64" y="110.7" width="178" height="200" filterUnits="userSpaceOnUse">
      <feOffset dx="7" dy="7"/>
      <feGaussianBlur result="blur-3" stdDeviation="15"/>
      <feFlood flood-color="#000" flood-opacity=".25"/>
      <feComposite in2="blur-3" operator="in"/>
      <feComposite in="SourceGraphic"/>
    </filter>
    <filter id="drop-shadow-114" x="638.64" y="704.7" width="178" height="200" filterUnits="userSpaceOnUse">
      <feOffset dx="7" dy="7"/>
      <feGaussianBlur result="blur-4" stdDeviation="15"/>
      <feFlood flood-color="#000" flood-opacity=".25"/>
      <feComposite in2="blur-4" operator="in"/>
      <feComposite in="SourceGraphic"/>
    </filter>
    <filter id="drop-shadow-115" x="314.64" y="126.7" width="200" height="199" filterUnits="userSpaceOnUse">
      <feOffset dx="7" dy="7"/>
      <feGaussianBlur result="blur-5" stdDeviation="15"/>
      <feFlood flood-color="#000" flood-opacity=".25"/>
      <feComposite in2="blur-5" operator="in"/>
      <feComposite in="SourceGraphic"/>
    </filter>
    <filter id="drop-shadow-116" x="312.64" y="705.7" width="200" height="199" filterUnits="userSpaceOnUse">
      <feOffset dx="7" dy="7"/>
      <feGaussianBlur result="blur-6" stdDeviation="15"/>
      <feFlood flood-color="#000" flood-opacity=".25"/>
      <feComposite in2="blur-6" operator="in"/>
      <feComposite in="SourceGraphic"/>
    </filter>
    <filter id="drop-shadow-117" x="750.64" y="414.7" width="200" height="200" filterUnits="userSpaceOnUse">
      <feOffset dx="7" dy="7"/>
      <feGaussianBlur result="blur-7" stdDeviation="15"/>
      <feFlood flood-color="#000" flood-opacity=".25"/>
      <feComposite in2="blur-7" operator="in"/>
      <feComposite in="SourceGraphic"/>
    </filter>
    <linearGradient id="Sfumatura_senza_nome_113" data-name="Sfumatura senza nome 113" x1="499.15" y1="549.4" x2="527.74" y2="549.4" gradientUnits="userSpaceOnUse">
      <stop offset="0" stop-color="#0077b6"/>
      <stop offset="1" stop-color="#03045e"/>
    </linearGradient>
    <linearGradient id="Sfumatura_senza_nome_113-2" data-name="Sfumatura senza nome 113" x1="540.17" y1="527.16" x2="568.76" y2="527.16" xlink:href="#Sfumatura_senza_nome_113"/>
    <linearGradient id="Sfumatura_senza_nome_113-3" data-name="Sfumatura senza nome 113" x1="581.19" y1="561.94" x2="609.78" y2="561.94" xlink:href="#Sfumatura_senza_nome_113"/>
    <linearGradient id="Sfumatura_senza_nome_113-4" data-name="Sfumatura senza nome 113" x1="622.21" y1="580.02" x2="650.8" y2="580.02" xlink:href="#Sfumatura_senza_nome_113"/>
    <linearGradient id="Sfumatura_senza_nome_113-5" data-name="Sfumatura senza nome 113" x1="458.13" y1="595.84" x2="486.72" y2="595.84" xlink:href="#Sfumatura_senza_nome_113"/>
  </defs>
  <path class="cls-11" d="M843.13,417.41l-.02.02-60.56-151.84c15.95-16.28,25.79-38.57,25.79-63.16,0-49.84-40.4-90.24-90.24-90.24-41.55,0-76.54,28.09-87.02,66.31l-143.16,8.76c-12.5-34.84-45.82-59.75-84.95-59.75-49.84,0-90.24,40.4-90.24,90.24,0,18.4,5.52,35.52,14.98,49.79l-136.82,155.15c-9.56-3.45-19.87-5.33-30.62-5.33-49.84,0-90.24,40.4-90.24,90.24s40.4,90.24,90.24,90.24c11.36,0,22.23-2.11,32.24-5.94l138.39,151.24c-11.4,15.11-18.17,33.92-18.17,54.3,0,49.84,40.4,90.24,90.24,90.24,42.96,0,78.9-30.02,88.01-70.22h139.13c9.1,40.21,45.05,70.22,88.01,70.22,49.84,0,90.24-40.4,90.24-90.24s-40.4-90.24-90.24-90.24c-42.96,0-78.9,30.02-88.01,70.22h-139.13c-4.68-20.67-16.46-38.65-32.63-51.24l37.22-52.74c17.78,7.93,37.48,12.34,58.21,12.34,75.48,0,137.31-58.45,142.7-132.56l60.57-9.46c13.94,31.83,45.72,54.06,82.69,54.06,49.84,0,90.24-40.4,90.24-90.24s-38.59-88.39-86.85-90.17ZM226.08,569.32c15.14-16.14,24.41-37.84,24.41-61.71,0-8.56-1.19-16.83-3.42-24.68l116.5-62.01v295.33c-.7.34-1.39.69-2.09,1.05l-135.4-147.98ZM363.59,375.57l-135.73,72.25c-.96-1.08-1.95-2.15-2.96-3.18l131.77-149.42c2.25,1.35,4.56,2.6,6.92,3.75v76.6ZM659.21,270.8l-66.6,134.17c-12.35-3.47-25.37-5.33-38.83-5.33s-25.89,1.78-37.99,5.11h-.01s-23.94-52.1-23.94-52.1l162.42-86.45c1.59,1.59,3.24,3.12,4.95,4.6ZM492.73,227.08l136.61-8.36c.84,4.63,2.04,9.14,3.57,13.5l-157.81,84-13.66-29.73h0c17.22-14.66,28.86-35.67,31.3-59.41ZM403.62,307.98c7.7-.05,15.16-1.07,22.29-2.94l13.79,30.01-36.08,19.21v-46.28ZM421.42,709.1c-5.75-1.19-11.7-1.84-17.8-1.88v-307.62l52.83-28.12,22.61,49.19c-41.01,25.16-68.37,70.4-68.37,122.04,0,43.91,19.79,83.19,50.92,109.44l-40.19,56.95ZM554.46,674.53c-72.8,0-131.81-59.01-131.81-131.81s59.01-131.81,131.81-131.81,131.81,59.01,131.81,131.81-59.01,131.81-131.81,131.81ZM749.56,504.44l-55.76,8.71c-8.14-38.76-31.97-71.74-64.54-92h-.01l65.31-131.58c7.51,2.02,15.4,3.11,23.55,3.11,10.56,0,20.68-1.82,30.1-5.15l54.88,137.59c-30.67,13.64-52.31,43.89-53.53,79.32Z"/>
  <path class="cls-5" d="M183.49,459.93v35.71c0,1.64-1.33,2.97-2.97,2.97h-32.78c-1.64,0-2.97-1.33-2.97-2.97v-35.71c0-1.64-1.33-2.97-2.97-2.97h-18.08c-1.64,0-2.97,1.33-2.97,2.97v103.17c0,1.64,1.33,2.97,2.97,2.97h18.08c1.64,0,2.97-1.33,2.97-2.97v-37.49c0-1.64,1.33-2.97,2.97-2.97h32.78c1.64,0,2.97,1.33,2.97,2.97v37.49c0,1.64,1.33,2.97,2.97,2.97h18.08c1.64,0,2.97-1.33,2.97-2.97v-103.17c0-1.64-1.33-2.97-2.97-2.97h-18.08c-1.64,0-2.97,1.33-2.97,2.97Z"/>
  <path class="cls-6" d="M741.73,151.98v35.71c0,1.64-1.33,2.97-2.97,2.97h-32.78c-1.64,0-2.97-1.33-2.97-2.97v-35.71c0-1.64-1.33-2.97-2.97-2.97h-18.08c-1.64,0-2.97,1.33-2.97,2.97v103.17c0,1.64,1.33,2.97,2.97,2.97h18.08c1.64,0,2.97-1.33,2.97-2.97v-37.49c0-1.64,1.33-2.97,2.97-2.97h32.78c1.64,0,2.97,1.33,2.97,2.97v37.49c0,1.64,1.33,2.97,2.97,2.97h18.08c1.64,0,2.97-1.33,2.97-2.97v-103.17c0-1.64-1.33-2.97-2.97-2.97h-18.08c-1.64,0-2.97,1.33-2.97,2.97Z"/>
  <path class="cls-1" d="M739.94,746.31v35.71c0,1.64-1.33,2.97-2.97,2.97h-32.78c-1.64,0-2.97-1.33-2.97-2.97v-35.71c0-1.64-1.33-2.97-2.97-2.97h-18.08c-1.64,0-2.97,1.33-2.97,2.97v103.17c0,1.64,1.33,2.97,2.97,2.97h18.08c1.64,0,2.97-1.33,2.97-2.97v-37.49c0-1.64,1.33-2.97,2.97-2.97h32.78c1.64,0,2.97,1.33,2.97,2.97v37.49c0,1.64,1.33,2.97,2.97,2.97h18.08c1.64,0,2.97-1.33,2.97-2.97v-103.17c0-1.64-1.33-2.97-2.97-2.97h-18.08c-1.64,0-2.97,1.33-2.97,2.97Z"/>
  <path class="cls-4" d="M456.41,195.67h-19.49c-3,0-5.42-2.43-5.42-5.42v-19.49c0-3-2.43-5.42-5.42-5.42h-36.83c-3,0-5.42,2.43-5.42,5.42v19.49c0,3-2.43,5.42-5.42,5.42h-19.49c-3,0-5.42,2.43-5.42,5.42v36.84c0,3,2.43,5.42,5.42,5.42h19.49c3,0,5.42,2.43,5.42,5.42v19.49c0,3,2.43,5.42,5.42,5.42h36.83c3,0,5.42-2.43,5.42-5.42v-19.49c0-3,2.43-5.42,5.42-5.42h19.49c3,0,5.42-2.43,5.42-5.42v-36.83c0-3-2.43-5.42-5.42-5.42h0Z"/>
  <path class="cls-3" d="M454.42,774.06h-19.49c-3,0-5.42-2.43-5.42-5.42v-19.49c0-3-2.43-5.42-5.42-5.42h-36.83c-3,0-5.42,2.43-5.42,5.42v19.49c0,3-2.43,5.42-5.42,5.42h-19.49c-3,0-5.42,2.43-5.42,5.42v36.84c0,3,2.43,5.42,5.42,5.42h19.49c3,0,5.42,2.43,5.42,5.42v19.49c0,3,2.43,5.42,5.42,5.42h36.83c3,0,5.42-2.43,5.42-5.42v-19.49c0-3,2.43-5.42,5.42-5.42h19.49c3,0,5.42-2.43,5.42-5.42v-36.83c0-3-2.43-5.42-5.42-5.42h0Z"/>
  <path class="cls-2" d="M892.55,483.91h-19.49c-3,0-5.42-2.43-5.42-5.42v-19.49c0-3-2.43-5.42-5.42-5.42h-36.83c-3,0-5.42,2.43-5.42,5.42v19.49c0,3-2.43,5.42-5.42,5.42h-19.49c-3,0-5.42,2.43-5.42,5.42v36.84c0,3,2.43,5.42,5.42,5.42h19.49c3,0,5.42,2.43,5.42,5.42v19.49c0,3,2.43,5.42,5.42,5.42h36.83c3,0,5.42-2.43,5.42-5.42v-19.49c0-3,2.43-5.42,5.42-5.42h19.49c3,0,5.42-2.43,5.42-5.42v-36.83c0-3-2.43-5.42-5.42-5.42h0Z"/>
  <g>
    <rect class="cls-12" x="499.15" y="482.49" width="28.59" height="133.83" rx="3.05" ry="3.05"/>
    <rect class="cls-9" x="540.17" y="438.01" width="28.59" height="178.31" rx="2.85" ry="2.85"/>
    <rect class="cls-8" x="581.19" y="507.57" width="28.59" height="108.75" rx="3.02" ry="3.02"/>
    <rect class="cls-7" x="622.21" y="543.72" width="28.59" height="72.6" rx="3.54" ry="3.54"/>
    <rect class="cls-10" x="458.13" y="575.37" width="28.59" height="40.95" rx="3.45" ry="3.45"/>
  </g>
</svg>