<?xml version="1.0" encoding="UTF-8"?>
<svg id="Livello_1" data-name="Livello 1" xmlns="http://www.w3.org/2000/svg" xmlns:xlink="http://www.w3.org/1999/xlink" viewBox="0 0 1000 1000">
  <defs>
    <style>
      .cls-1 {
        fill: #00b4d8;
      }

      .cls-2 {
        fill: url(#Sfumatura_senza_nome_11-3);
      }

      .cls-3 {
        filter: url(#drop-shadow-114);
      }

      .cls-3, .cls-4 {
        fill: #fff;
      }

      .cls-4 {
        filter: url(#drop-shadow-112);
      }

      .cls-5 {
        opacity: .3;
      }

      .cls-6 {
        fill: url(#Sfumatura_senza_nome_113-4);
      }

      .cls-7 {
        fill: url(#Sfumatura_senza_nome_113-3);
      }

      .cls-8 {
        fill: url(#Sfumatura_senza_nome_113-2);
      }

      .cls-9 {
        fill: url(#Sfumatura_senza_nome_113-5);
      }

      .cls-10 {
        fill: url(#Sfumatura_senza_nome_113-6);
      }

      .cls-11 {
        fill: url(#Sfumatura_senza_nome_113-7);
      }

      .cls-12 {
        fill: url(#Sfumatura_senza_nome_11);
        filter: url(#drop-shadow-111);
      }

      .cls-13 {
        fill: url(#Sfumatura_senza_nome_11-2);
        filter: url(#drop-shadow-113);
      }

      .cls-14 {
        fill: url(#Sfumatura_senza_nome_113);
      }
    </style>
    <linearGradient id="Sfumatura_senza_nome_113" data-name="Sfumatura senza nome 113" x1="278.91" y1="210.6" x2="380.14" y2="210.6" gradientUnits="userSpaceOnUse">
      <stop offset="0" stop-color="#0077b6"/>
      <stop offset="1" stop-color="#03045e"/>
    </linearGradient>
    <linearGradient id="Sfumatura_senza_nome_11" data-name="Sfumatura senza nome 11" x1="211.17" y1="332.46" x2="447.87" y2="332.46" gradientUnits="userSpaceOnUse">
      <stop offset="0" stop-color="#90e0ef"/>
      <stop offset="1" stop-color="#00b4d8"/>
    </linearGradient>
    <filter id="drop-shadow-111" x="189.99" y="189.27" width="287" height="295" filterUnits="userSpaceOnUse">
      <feOffset dx="3.74" dy="3.74"/>
      <feGaussianBlur result="blur" stdDeviation="8.02"/>
      <feFlood flood-color="#000" flood-opacity=".25"/>
      <feComposite in2="blur" operator="in"/>
      <feComposite in="SourceGraphic"/>
    </filter>
    <filter id="drop-shadow-112" x="273" y="153.66" width="122" height="122" filterUnits="userSpaceOnUse">
      <feOffset dx="3.74" dy="3.74"/>
      <feGaussianBlur result="blur-2" stdDeviation="8.02"/>
      <feFlood flood-color="#000" flood-opacity=".25"/>
      <feComposite in2="blur-2" operator="in"/>
      <feComposite in="SourceGraphic"/>
    </filter>
    <linearGradient id="Sfumatura_senza_nome_113-2" data-name="Sfumatura senza nome 113" x1="279.62" y1="639.87" x2="380.85" y2="639.87" xlink:href="#Sfumatura_senza_nome_113"/>
    <linearGradient id="Sfumatura_senza_nome_11-2" data-name="Sfumatura senza nome 11" x1="211.88" y1="761.73" x2="448.58" y2="761.73" xlink:href="#Sfumatura_senza_nome_11"/>
    <filter id="drop-shadow-113" x="190.99" y="618.27" width="287" height="295" filterUnits="userSpaceOnUse">
      <feOffset dx="3.74" dy="3.74"/>
      <feGaussianBlur result="blur-3" stdDeviation="8.02"/>
      <feFlood flood-color="#000" flood-opacity=".25"/>
      <feComposite in2="blur-3" operator="in"/>
      <feComposite in="SourceGraphic"/>
    </filter>
    <filter id="drop-shadow-114" x="273.71" y="582.94" width="122" height="122" filterUnits="userSpaceOnUse">
      <feOffset dx="3.74" dy="3.74"/>
      <feGaussianBlur result="blur-4" stdDeviation="8.02"/>
      <feFlood flood-color="#000" flood-opacity=".25"/>
      <feComposite in2="blur-4" operator="in"/>
      <feComposite in="SourceGraphic"/>
    </filter>
    <linearGradient id="Sfumatura_senza_nome_11-3" data-name="Sfumatura senza nome 11" x1="527.86" y1="587.09" x2="747.66" y2="587.09" xlink:href="#Sfumatura_senza_nome_11"/>
    <linearGradient id="Sfumatura_senza_nome_113-3" data-name="Sfumatura senza nome 113" x1="673.13" y1="622.87" x2="709.58" y2="622.87" xlink:href="#Sfumatura_senza_nome_113"/>
    <linearGradient id="Sfumatura_senza_nome_113-4" data-name="Sfumatura senza nome 113" x1="725.43" y1="594.51" x2="761.88" y2="594.51" xlink:href="#Sfumatura_senza_nome_113"/>
    <linearGradient id="Sfumatura_senza_nome_113-5" data-name="Sfumatura senza nome 113" x1="777.73" y1="638.86" x2="814.19" y2="638.86" xlink:href="#Sfumatura_senza_nome_113"/>
    <linearGradient id="Sfumatura_senza_nome_113-6" data-name="Sfumatura senza nome 113" x1="830.03" y1="661.91" x2="866.49" y2="661.91" xlink:href="#Sfumatura_senza_nome_113"/>
    <linearGradient id="Sfumatura_senza_nome_113-7" data-name="Sfumatura senza nome 113" x1="620.82" y1="682.09" x2="657.28" y2="682.09" xlink:href="#Sfumatura_senza_nome_113"/>
  </defs>
  <g class="cls-5">
    <path class="cls-14" d="M377.3,165.24h-95.54c-1.57,0-2.85,1.27-2.85,2.84v85.02c0,1.57,1.28,2.84,2.85,2.84h95.54c1.57,0,2.84-1.27,2.84-2.84v-85.02c0-1.57-1.27-2.84-2.84-2.84Z"/>
    <path class="cls-12" d="M443.31,210.07h-55.15v42.51c0,5.99-4.87,10.86-10.86,10.86h-95.54c-5.99,0-10.87-4.87-10.87-10.86v-42.51h-55.17c-2.51,0-4.55,2.04-4.55,4.55v235.67c0,2.51,2.04,4.55,4.55,4.55h77.27v-68.68c0-2.52-2.05-4.55-4.56-4.55h-2.2c-2.52,0-4.55-2.04-4.55-4.55h0c0-2.52,2.04-4.55,4.55-4.55h86.87c2.52,0,4.55,2.04,4.55,4.55s-2.04,4.55-4.55,4.55h-2.2c-2.52,0-4.55,2.04-4.55,4.55v68.68h76.96c2.52,0,4.55-2.04,4.55-4.55v-235.67c0-2.51-2.04-4.55-4.55-4.55Z"/>
    <path class="cls-1" d="M447.87,281.67c24.95-.42,50.28-.8,75.24-.94,2.9.2,5.34,2.83,5.28,5.76,0,0,0,.4,0,.4v.8s.06,6.39.06,6.39c.43,49.26.62,105.81.6,155.08,0,0,0,.8,0,.8v.43c0,3.63-3.36,6.66-6.96,6.34-17.85-.06-35.71-.21-53.56-.38-34.11-.27-68.21-.7-102.32-.8h-.7s0-.69,0-.69c.08-22.2,0-44.8-.06-67.02,0,0,0-1.46,0-1.46-.19-3.72,3.03-6.08,6.56-5.67,5.6.67,6.53-7.14.9-7.48-15.89.12-55.27.41-70.66.55-1.94.02-12.8.11-14.57.12h-1.46c-.41.02-.67.05-1,.15-1.24.37-2.13,1.61-2.1,2.88l.04,1.58s-1.64.01-1.64.01l1.59-1.59c.05,2.05,1.84,3.16,3.81,2.91,0,0,1.33,0,1.33,0,3.4-.1,6.4,2.96,6.26,6.36-.02.48.02,1.52.01,2,.03,16.37.31,51.97.32,68.66,0,0-2.02,0-2.02,0l-102.61.27c-1.63-.19-56.25.31-56.67-.29-3.07-.78-5.24-3.84-5.02-6.99,0,0,0-1.6,0-1.6.21-49.13.41-104.89.92-153.91l.06-6.41.02-1.63c.05-2.72,2.27-5.2,4.98-5.49.56-.06,1.22-.05,1.76-.04,0,0,3.21.03,3.21.03l6.41.06c7.55,0,55.36.74,64.13.83,0,0,0,.43,0,.43-8.64.18-56.29.73-64.13.83,0,0-6.41.06-6.41.06l-3.21.03h-.8c-.29.01-.43.02-.65.05-1.19.15-2.24,1.02-2.66,2.13-.14.37-.22.76-.22,1.15v1.57c.47,51.31.86,108.9.99,160.32,0,0,0,1.6,0,1.6v.4s.01.23.01.23c.08,1.1,1.02,2.06,2.13,2.13,34.61-.11,122.03.11,157.73.23,0,0-2.01,2.01-2.01,2.01l.17-42.66c-.02-3.61.15-22.84.14-26,.12-1.63-1.25-3.08-2.89-3.07-1.45-.03-3.16.14-4.58-.51-2.24-.93-3.78-3.28-3.74-5.69l.03-1.61h1.57s0,.01,0,.01l-1.59,1.59c-.05-3.34,2.98-6.25,6.28-6.09h1.46c22.78.21,62.1.52,85.23.68,4.78-.09,7.27,6.09,3.69,9.3-1.58,1.63-3.98,1.45-6.02,1.44-2.12.04-3.79,1.99-3.63,4.11.02.97-.02,3.38-.01,4.37,0,3.76-.04,13.61-.05,17.48-.07,15.54-.03,31.08,0,46.62l-.69-.69c51.69-.18,103.39-.98,155.08-1.18h.8c.26,0,.57,0,.68-.02,1.34-.07,2.5-1.28,2.48-2.63-.08-24.99.12-66.83.2-92.3-.11-21.08.36-49.36.45-70.34,0,0,0-.8,0-.8v-.4s0-.31,0-.31c-.03-.39-.12-.77-.28-1.13-.57-1.32-1.99-2.11-3.42-2,0,0-.8,0-.8,0-5.49-.07-16.71-.13-22.38-.21-17.05-.25-34.11-.41-51.16-.74v-.43h0Z"/>
    <path class="cls-4" d="M365.59,222.81c0,1.99-1.61,3.6-3.6,3.6h-12.92c-1.99,0-3.6,1.61-3.6,3.6v12.92c0,1.99-1.61,3.6-3.6,3.6h-24.43c-1.99,0-3.6-1.61-3.6-3.6v-12.92c0-1.99-1.61-3.6-3.6-3.6h-12.92c-1.99,0-3.6-1.61-3.6-3.6v-24.43c0-1.99,1.61-3.6,3.6-3.6h12.92c1.99,0,3.6-1.61,3.6-3.6v-12.92c0-1.99,1.61-3.6,3.6-3.6h24.43c1.99,0,3.6,1.61,3.6,3.6v12.92c0,1.99,1.61,3.6,3.6,3.6h12.92c1.99,0,3.6,1.61,3.6,3.6v24.43Z"/>
  </g>
  <g class="cls-5">
    <path class="cls-8" d="M378.01,594.51h-95.54c-1.57,0-2.85,1.27-2.85,2.84v85.02c0,1.57,1.28,2.84,2.85,2.84h95.54c1.57,0,2.84-1.27,2.84-2.84v-85.02c0-1.57-1.27-2.84-2.84-2.84Z"/>
    <path class="cls-13" d="M444.02,639.34h-55.15v42.51c0,5.99-4.87,10.86-10.86,10.86h-95.54c-5.99,0-10.87-4.87-10.87-10.86v-42.51h-55.17c-2.51,0-4.55,2.04-4.55,4.55v235.67c0,2.51,2.04,4.55,4.55,4.55h77.27v-68.68c0-2.52-2.05-4.55-4.56-4.55h-2.2c-2.52,0-4.55-2.04-4.55-4.55h0c0-2.52,2.04-4.55,4.55-4.55h86.87c2.52,0,4.55,2.04,4.55,4.55s-2.04,4.55-4.55,4.55h-2.2c-2.52,0-4.55,2.04-4.55,4.55v68.68h76.96c2.52,0,4.55-2.04,4.55-4.55v-235.67c0-2.51-2.04-4.55-4.55-4.55Z"/>
    <path class="cls-1" d="M448.58,710.94c24.95-.42,50.28-.8,75.24-.94,2.9.2,5.34,2.83,5.28,5.76,0,0,0,.4,0,.4v.8s.06,6.39.06,6.39c.43,49.26.62,105.81.6,155.08,0,0,0,.8,0,.8v.43c0,3.63-3.36,6.66-6.96,6.34-17.85-.06-35.71-.21-53.56-.38-34.11-.27-68.21-.7-102.32-.8h-.7s0-.69,0-.69c.08-22.2,0-44.8-.06-67.02v-1.46c-.19-3.72,3.02-6.08,6.56-5.67,5.6.67,6.53-7.14.9-7.48-15.89.12-55.27.41-70.66.55-1.94.02-12.8.11-14.57.12h-1.46c-.41.02-.67.05-1,.15-1.24.37-2.13,1.61-2.1,2.88l.04,1.58s-1.64.01-1.64.01l1.59-1.59c.05,2.05,1.84,3.16,3.81,2.91,0,0,1.33,0,1.33,0,3.4-.1,6.4,2.96,6.26,6.36-.02.48.02,1.52.01,2,.03,16.37.31,51.97.32,68.66,0,0-2.02,0-2.02,0l-102.61.27c-1.63-.19-56.25.31-56.67-.29-3.07-.78-5.24-3.84-5.02-6.99,0,0,0-1.6,0-1.6.21-49.13.41-104.89.92-153.91,0,0,.06-6.41.06-6.41l.02-1.63c.05-2.72,2.27-5.2,4.98-5.49.56-.06,1.22-.05,1.76-.04,0,0,3.21.03,3.21.03l6.41.06c7.55,0,55.36.74,64.13.83,0,0,0,.43,0,.43-8.64.18-56.29.73-64.13.83,0,0-6.41.06-6.41.06l-3.21.03h-.8c-.29.01-.43.02-.65.05-1.19.15-2.24,1.02-2.66,2.13-.14.37-.22.76-.22,1.15v1.57c.47,51.31.86,108.9.99,160.32,0,0,0,1.6,0,1.6v.4s.01.23.01.23c.08,1.1,1.02,2.06,2.13,2.13,34.61-.11,122.03.11,157.73.23,0,0-2.01,2.01-2.01,2.01l.17-42.66c-.02-3.61.15-22.84.14-26,.12-1.63-1.25-3.08-2.89-3.07-1.45-.03-3.16.14-4.58-.51-2.24-.93-3.78-3.28-3.74-5.69l.03-1.61h1.57s0,.01,0,.01l-1.59,1.59c-.05-3.34,2.98-6.25,6.28-6.09,0,0,1.46.01,1.46.01,22.78.2,62.1.51,85.23.67,4.78-.09,7.27,6.09,3.69,9.3-1.58,1.63-3.98,1.45-6.02,1.44-2.12.04-3.79,1.99-3.63,4.11.02.97-.02,3.38-.01,4.37,0,3.76-.04,13.61-.05,17.48-.07,15.54-.03,31.08,0,46.62l-.69-.69c51.69-.18,103.39-.98,155.08-1.18h.8c.26,0,.57,0,.68-.02,1.34-.07,2.5-1.28,2.48-2.63-.08-24.99.12-66.83.2-92.3-.11-21.08.36-49.36.45-70.34,0,0,0-.8,0-.8v-.4s0-.31,0-.31c-.03-.39-.12-.77-.28-1.13-.57-1.32-1.99-2.11-3.42-2,0,0-.8,0-.8,0-5.49-.07-16.71-.13-22.38-.21-17.05-.25-34.11-.41-51.16-.74v-.43h0Z"/>
    <path class="cls-3" d="M366.3,652.08c0,1.99-1.61,3.6-3.6,3.6h-12.92c-1.99,0-3.6,1.61-3.6,3.6v12.92c0,1.99-1.61,3.6-3.6,3.6h-24.43c-1.99,0-3.6-1.61-3.6-3.6v-12.92c0-1.99-1.61-3.6-3.6-3.6h-12.92c-1.99,0-3.6-1.61-3.6-3.6v-24.43c0-1.99,1.61-3.6,3.6-3.6h12.92c1.99,0,3.6-1.61,3.6-3.6v-12.92c0-1.99,1.61-3.6,3.6-3.6h24.43c1.99,0,3.6,1.61,3.6,3.6v12.92c0,1.99,1.61,3.6,3.6,3.6h12.92c1.99,0,3.6,1.61,3.6,3.6v24.43Z"/>
  </g>
  <path class="cls-2" d="M527.86,367.96c17.98-.78,35.97-1.3,53.95-1.72,8.99-.22,17.98-.42,26.97-.56,8.99-.15,17.98-.34,26.97-.41l26.97-.3,26.97-.14,13.49-.06,13.49.03c8.99-.01,17.98.12,26.97.22l3.39.04-.04,3.31c-.47,36.4-1.78,72.79-2.04,109.19-.11,18.2-.12,36.4.06,54.6l.13,13.65.23,13.65.47,27.3c.34,18.2.78,36.4,1.03,54.6.28,18.2.42,36.4.55,54.59l.41,54.59c.09,9.1.08,18.2.09,27.3,0,9.1.05,18.2,0,27.3l-.03,4.28-4.23-.03-26.97-.17c-8.99-.05-17.98-.11-26.97-.23l-26.97-.31-26.97-.42-26.97-.5-26.97-.6c-8.99-.19-17.98-.49-26.97-.75-8.99-.26-17.98-.53-26.97-.89v-.8c8.99-.36,17.98-.62,26.97-.89,8.99-.27,17.98-.56,26.97-.75l26.97-.6,26.97-.5,26.97-.42,26.97-.31c8.99-.12,17.98-.18,26.97-.23l26.97-.17-4.26,4.26c-.06-9.1,0-18.2,0-27.3.01-9.1,0-18.2.09-27.3l.41-54.59c.13-18.2.27-36.4.55-54.59.25-18.2.69-36.4,1.03-54.6l.47-27.3.23-13.65.13-13.65c.17-18.2.17-36.4.06-54.6-.27-36.4-1.57-72.79-2.04-109.19l3.34,3.34c-8.99.1-17.98.23-26.97.22l-13.49.03-13.49-.06-26.97-.14-26.97-.3c-8.99-.08-17.98-.26-26.97-.41-8.99-.14-17.98-.34-26.97-.56-17.98-.42-35.97-.94-53.95-1.72v-.8Z"/>
  <g>
    <rect class="cls-7" x="673.13" y="537.55" width="36.46" height="170.64" rx="3.89" ry="3.89"/>
    <rect class="cls-6" x="725.43" y="480.83" width="36.46" height="227.36" rx="3.63" ry="3.63"/>
    <rect class="cls-9" x="777.73" y="569.52" width="36.46" height="138.67" rx="3.85" ry="3.85"/>
    <rect class="cls-10" x="830.03" y="615.63" width="36.46" height="92.57" rx="4.52" ry="4.52"/>
    <rect class="cls-11" x="620.82" y="655.98" width="36.46" height="52.22" rx="4.4" ry="4.4"/>
  </g>
</svg>