<?xml version="1.0" encoding="UTF-8"?>
<svg id="Livello_1" data-name="Livello 1" xmlns="http://www.w3.org/2000/svg" xmlns:xlink="http://www.w3.org/1999/xlink" viewBox="0 0 1000 1000">
  <defs>
    <style>
      .cls-1 {
        fill: url(#Sfumatura_senza_nome_11);
      }

      .cls-2 {
        fill: url(#Sfumatura_senza_nome_11-8);
      }

      .cls-3 {
        fill: url(#Sfumatura_senza_nome_11-9);
      }

      .cls-4 {
        fill: url(#Sfumatura_senza_nome_11-5);
      }

      .cls-5 {
        fill: url(#Sfumatura_senza_nome_11-6);
      }

      .cls-6 {
        fill: url(#Sfumatura_senza_nome_11-7);
      }

      .cls-7 {
        fill: url(#Sfumatura_senza_nome_11-4);
      }

      .cls-8 {
        fill: url(#Sfumatura_senza_nome_11-3);
      }

      .cls-9 {
        fill: url(#Sfumatura_senza_nome_11-2);
      }

      .cls-10 {
        fill: #50b0d3;
      }

      .cls-11 {
        fill: url(#Sfumatura_senza_nome_113-30);
      }

      .cls-12 {
        fill: url(#Sfumatura_senza_nome_113-13);
      }

      .cls-13 {
        fill: url(#Sfumatura_senza_nome_113-18);
      }

      .cls-14 {
        fill: url(#Sfumatura_senza_nome_113-19);
      }

      .cls-15 {
        fill: url(#Sfumatura_senza_nome_113-11);
      }

      .cls-16 {
        fill: url(#Sfumatura_senza_nome_113-12);
      }

      .cls-17 {
        fill: url(#Sfumatura_senza_nome_113-10);
      }

      .cls-18 {
        fill: url(#Sfumatura_senza_nome_113-15);
      }

      .cls-19 {
        fill: url(#Sfumatura_senza_nome_113-16);
      }

      .cls-20 {
        fill: url(#Sfumatura_senza_nome_113-14);
      }

      .cls-21 {
        fill: url(#Sfumatura_senza_nome_113-17);
      }

      .cls-22 {
        fill: url(#Sfumatura_senza_nome_113-29);
      }

      .cls-23 {
        fill: url(#Sfumatura_senza_nome_113-23);
      }

      .cls-24 {
        fill: url(#Sfumatura_senza_nome_113-25);
      }

      .cls-25 {
        fill: url(#Sfumatura_senza_nome_113-22);
      }

      .cls-26 {
        fill: url(#Sfumatura_senza_nome_113-26);
      }

      .cls-27 {
        fill: url(#Sfumatura_senza_nome_113-24);
      }

      .cls-28 {
        fill: url(#Sfumatura_senza_nome_113-21);
      }

      .cls-29 {
        fill: url(#Sfumatura_senza_nome_113-28);
      }

      .cls-30 {
        fill: url(#Sfumatura_senza_nome_113-27);
      }

      .cls-31 {
        fill: url(#Sfumatura_senza_nome_113-39);
      }

      .cls-32 {
        fill: url(#Sfumatura_senza_nome_113-35);
      }

      .cls-33 {
        fill: url(#Sfumatura_senza_nome_113-36);
      }

      .cls-34 {
        fill: url(#Sfumatura_senza_nome_113-20);
      }

      .cls-35 {
        fill: url(#Sfumatura_senza_nome_113-33);
      }

      .cls-36 {
        fill: url(#Sfumatura_senza_nome_113-34);
      }

      .cls-37 {
        fill: url(#Sfumatura_senza_nome_113-31);
      }

      .cls-38 {
        fill: url(#Sfumatura_senza_nome_113-32);
      }

      .cls-39 {
        fill: url(#Sfumatura_senza_nome_113-37);
      }

      .cls-40 {
        fill: url(#Sfumatura_senza_nome_113-38);
      }

      .cls-41 {
        fill: url(#Sfumatura_senza_nome_113-41);
      }

      .cls-42 {
        fill: url(#Sfumatura_senza_nome_113-42);
      }

      .cls-43 {
        fill: url(#Sfumatura_senza_nome_113-43);
      }

      .cls-44 {
        fill: url(#Sfumatura_senza_nome_113-40);
      }

      .cls-45 {
        fill: url(#Sfumatura_senza_nome_113-44);
      }

      .cls-46 {
        fill: url(#Sfumatura_senza_nome_113-45);
      }

      .cls-47 {
        fill: url(#Sfumatura_senza_nome_11-10);
      }

      .cls-48 {
        fill: url(#Sfumatura_senza_nome_11-12);
      }

      .cls-49 {
        fill: url(#Sfumatura_senza_nome_11-11);
      }

      .cls-50 {
        fill: url(#Sfumatura_senza_nome_113-4);
      }

      .cls-51 {
        fill: url(#Sfumatura_senza_nome_113-3);
      }

      .cls-52 {
        fill: url(#Sfumatura_senza_nome_113-2);
      }

      .cls-53 {
        fill: url(#Sfumatura_senza_nome_113-5);
      }

      .cls-54 {
        fill: url(#Sfumatura_senza_nome_113-6);
      }

      .cls-55 {
        fill: url(#Sfumatura_senza_nome_113-8);
      }

      .cls-56 {
        fill: url(#Sfumatura_senza_nome_113-7);
      }

      .cls-57 {
        fill: url(#Sfumatura_senza_nome_113-9);
      }

      .cls-58 {
        fill: url(#Sfumatura_senza_nome_6);
      }

      .cls-59 {
        fill: url(#Sfumatura_senza_nome_113);
      }
    </style>
    <linearGradient id="Sfumatura_senza_nome_11" data-name="Sfumatura senza nome 11" x1="701.81" y1="793.06" x2="718.48" y2="793.06" gradientUnits="userSpaceOnUse">
      <stop offset="0" stop-color="#90e0ef"/>
      <stop offset="1" stop-color="#00b4d8"/>
    </linearGradient>
    <linearGradient id="Sfumatura_senza_nome_11-2" data-name="Sfumatura senza nome 11" x1="13822.68" y1="1924.38" x2="14249.35" y2="1924.38" gradientTransform="translate(2505.56 -13302.08) rotate(90)" xlink:href="#Sfumatura_senza_nome_11"/>
    <linearGradient id="Sfumatura_senza_nome_113" data-name="Sfumatura senza nome 113" x1="695.06" y1="938.94" x2="725.23" y2="938.94" gradientUnits="userSpaceOnUse">
      <stop offset="0" stop-color="#0077b6"/>
      <stop offset="1" stop-color="#03045e"/>
    </linearGradient>
    <linearGradient id="Sfumatura_senza_nome_11-3" data-name="Sfumatura senza nome 11" x1="518.31" y1="670.52" x2="903.02" y2="670.52" xlink:href="#Sfumatura_senza_nome_11"/>
    <linearGradient id="Sfumatura_senza_nome_113-2" data-name="Sfumatura senza nome 113" x1="550.1" y1="670.52" x2="575.47" y2="670.52" xlink:href="#Sfumatura_senza_nome_113"/>
    <linearGradient id="Sfumatura_senza_nome_113-3" data-name="Sfumatura senza nome 113" x1="603.02" y1="670.52" x2="628.39" y2="670.52" xlink:href="#Sfumatura_senza_nome_113"/>
    <linearGradient id="Sfumatura_senza_nome_113-4" data-name="Sfumatura senza nome 113" x1="655.94" y1="670.52" x2="681.31" y2="670.52" xlink:href="#Sfumatura_senza_nome_113"/>
    <linearGradient id="Sfumatura_senza_nome_113-5" data-name="Sfumatura senza nome 113" x1="747.85" y1="657.84" x2="778.76" y2="657.84" xlink:href="#Sfumatura_senza_nome_113"/>
    <linearGradient id="Sfumatura_senza_nome_113-6" data-name="Sfumatura senza nome 113" x1="747.85" y1="683.21" x2="778.76" y2="683.21" xlink:href="#Sfumatura_senza_nome_113"/>
    <linearGradient id="Sfumatura_senza_nome_113-7" data-name="Sfumatura senza nome 113" x1="790.99" y1="657.84" x2="867.4" y2="657.84" xlink:href="#Sfumatura_senza_nome_113"/>
    <linearGradient id="Sfumatura_senza_nome_113-8" data-name="Sfumatura senza nome 113" x1="790.99" y1="683.21" x2="867.4" y2="683.21" xlink:href="#Sfumatura_senza_nome_113"/>
    <linearGradient id="Sfumatura_senza_nome_11-4" data-name="Sfumatura senza nome 11" x1="517.79" y1="755.58" x2="902.5" y2="755.58" xlink:href="#Sfumatura_senza_nome_11"/>
    <linearGradient id="Sfumatura_senza_nome_113-9" data-name="Sfumatura senza nome 113" x1="549.58" y1="755.58" x2="574.94" y2="755.58" xlink:href="#Sfumatura_senza_nome_113"/>
    <linearGradient id="Sfumatura_senza_nome_113-10" data-name="Sfumatura senza nome 113" x1="602.5" y1="755.58" x2="627.87" y2="755.58" xlink:href="#Sfumatura_senza_nome_113"/>
    <linearGradient id="Sfumatura_senza_nome_113-11" data-name="Sfumatura senza nome 113" x1="655.42" y1="755.58" x2="680.79" y2="755.58" xlink:href="#Sfumatura_senza_nome_113"/>
    <linearGradient id="Sfumatura_senza_nome_113-12" data-name="Sfumatura senza nome 113" x1="747.33" y1="742.9" x2="778.24" y2="742.9" xlink:href="#Sfumatura_senza_nome_113"/>
    <linearGradient id="Sfumatura_senza_nome_113-13" data-name="Sfumatura senza nome 113" x1="747.33" y1="768.27" x2="778.24" y2="768.27" xlink:href="#Sfumatura_senza_nome_113"/>
    <linearGradient id="Sfumatura_senza_nome_113-14" data-name="Sfumatura senza nome 113" x1="790.47" y1="742.9" x2="866.87" y2="742.9" xlink:href="#Sfumatura_senza_nome_113"/>
    <linearGradient id="Sfumatura_senza_nome_113-15" data-name="Sfumatura senza nome 113" x1="790.47" y1="768.27" x2="866.87" y2="768.27" xlink:href="#Sfumatura_senza_nome_113"/>
    <linearGradient id="Sfumatura_senza_nome_11-5" data-name="Sfumatura senza nome 11" x1="518.31" y1="840.64" x2="903.02" y2="840.64" xlink:href="#Sfumatura_senza_nome_11"/>
    <linearGradient id="Sfumatura_senza_nome_113-16" data-name="Sfumatura senza nome 113" x1="550.1" y1="840.64" x2="575.47" y2="840.64" xlink:href="#Sfumatura_senza_nome_113"/>
    <linearGradient id="Sfumatura_senza_nome_113-17" data-name="Sfumatura senza nome 113" x1="603.02" y1="840.64" x2="628.39" y2="840.64" xlink:href="#Sfumatura_senza_nome_113"/>
    <linearGradient id="Sfumatura_senza_nome_113-18" data-name="Sfumatura senza nome 113" x1="655.94" y1="840.64" x2="681.31" y2="840.64" xlink:href="#Sfumatura_senza_nome_113"/>
    <linearGradient id="Sfumatura_senza_nome_113-19" data-name="Sfumatura senza nome 113" x1="747.85" y1="827.96" x2="778.76" y2="827.96" xlink:href="#Sfumatura_senza_nome_113"/>
    <linearGradient id="Sfumatura_senza_nome_113-20" data-name="Sfumatura senza nome 113" x1="747.85" y1="853.33" x2="778.76" y2="853.33" xlink:href="#Sfumatura_senza_nome_113"/>
    <linearGradient id="Sfumatura_senza_nome_113-21" data-name="Sfumatura senza nome 113" x1="790.99" y1="827.96" x2="867.4" y2="827.96" xlink:href="#Sfumatura_senza_nome_113"/>
    <linearGradient id="Sfumatura_senza_nome_113-22" data-name="Sfumatura senza nome 113" x1="790.99" y1="853.33" x2="867.4" y2="853.33" xlink:href="#Sfumatura_senza_nome_113"/>
    <linearGradient id="Sfumatura_senza_nome_11-6" data-name="Sfumatura senza nome 11" x1="311.16" y1="314.31" x2="318.04" y2="314.31" xlink:href="#Sfumatura_senza_nome_11"/>
    <linearGradient id="Sfumatura_senza_nome_11-7" data-name="Sfumatura senza nome 11" x1="13673.16" y1="2190.96" x2="13680.05" y2="2190.96" gradientTransform="translate(-13362.01 -1816.44)" xlink:href="#Sfumatura_senza_nome_11"/>
    <linearGradient id="Sfumatura_senza_nome_113-23" data-name="Sfumatura senza nome 113" x1="308.37" y1="374.53" x2="320.83" y2="374.53" xlink:href="#Sfumatura_senza_nome_113"/>
    <linearGradient id="Sfumatura_senza_nome_11-8" data-name="Sfumatura senza nome 11" x1="235.42" y1="263.74" x2="394.21" y2="263.74" xlink:href="#Sfumatura_senza_nome_11"/>
    <linearGradient id="Sfumatura_senza_nome_113-24" data-name="Sfumatura senza nome 113" x1="248.54" y1="263.74" x2="259.01" y2="263.74" xlink:href="#Sfumatura_senza_nome_113"/>
    <linearGradient id="Sfumatura_senza_nome_113-25" data-name="Sfumatura senza nome 113" x1="270.38" y1="263.74" x2="280.85" y2="263.74" xlink:href="#Sfumatura_senza_nome_113"/>
    <linearGradient id="Sfumatura_senza_nome_113-26" data-name="Sfumatura senza nome 113" x1="292.23" y1="263.74" x2="302.7" y2="263.74" xlink:href="#Sfumatura_senza_nome_113"/>
    <linearGradient id="Sfumatura_senza_nome_113-27" data-name="Sfumatura senza nome 113" x1="330.17" y1="258.5" x2="342.92" y2="258.5" xlink:href="#Sfumatura_senza_nome_113"/>
    <linearGradient id="Sfumatura_senza_nome_113-28" data-name="Sfumatura senza nome 113" x1="330.17" y1="268.97" x2="342.92" y2="268.97" xlink:href="#Sfumatura_senza_nome_113"/>
    <linearGradient id="Sfumatura_senza_nome_113-29" data-name="Sfumatura senza nome 113" x1="347.97" y1="258.5" x2="379.51" y2="258.5" xlink:href="#Sfumatura_senza_nome_113"/>
    <linearGradient id="Sfumatura_senza_nome_113-30" data-name="Sfumatura senza nome 113" x1="347.97" y1="268.97" x2="379.51" y2="268.97" xlink:href="#Sfumatura_senza_nome_113"/>
    <linearGradient id="Sfumatura_senza_nome_11-9" data-name="Sfumatura senza nome 11" x1="235.2" y1="298.85" x2="394" y2="298.85" xlink:href="#Sfumatura_senza_nome_11"/>
    <linearGradient id="Sfumatura_senza_nome_113-31" data-name="Sfumatura senza nome 113" x1="248.32" y1="298.85" x2="258.79" y2="298.85" xlink:href="#Sfumatura_senza_nome_113"/>
    <linearGradient id="Sfumatura_senza_nome_113-32" data-name="Sfumatura senza nome 113" x1="270.17" y1="298.85" x2="280.64" y2="298.85" xlink:href="#Sfumatura_senza_nome_113"/>
    <linearGradient id="Sfumatura_senza_nome_113-33" data-name="Sfumatura senza nome 113" x1="292.01" y1="298.85" x2="302.48" y2="298.85" xlink:href="#Sfumatura_senza_nome_113"/>
    <linearGradient id="Sfumatura_senza_nome_113-34" data-name="Sfumatura senza nome 113" x1="329.95" y1="293.61" x2="342.71" y2="293.61" xlink:href="#Sfumatura_senza_nome_113"/>
    <linearGradient id="Sfumatura_senza_nome_113-35" data-name="Sfumatura senza nome 113" x1="329.95" y1="304.08" x2="342.71" y2="304.08" xlink:href="#Sfumatura_senza_nome_113"/>
    <linearGradient id="Sfumatura_senza_nome_113-36" data-name="Sfumatura senza nome 113" x1="347.76" y1="293.61" x2="379.29" y2="293.61" xlink:href="#Sfumatura_senza_nome_113"/>
    <linearGradient id="Sfumatura_senza_nome_113-37" data-name="Sfumatura senza nome 113" x1="347.76" y1="304.08" x2="379.29" y2="304.08" xlink:href="#Sfumatura_senza_nome_113"/>
    <linearGradient id="Sfumatura_senza_nome_11-10" data-name="Sfumatura senza nome 11" x1="235.42" y1="333.96" x2="394.21" y2="333.96" xlink:href="#Sfumatura_senza_nome_11"/>
    <linearGradient id="Sfumatura_senza_nome_113-38" data-name="Sfumatura senza nome 113" x1="248.54" y1="333.96" x2="259.01" y2="333.96" xlink:href="#Sfumatura_senza_nome_113"/>
    <linearGradient id="Sfumatura_senza_nome_113-39" data-name="Sfumatura senza nome 113" x1="270.38" y1="333.96" x2="280.85" y2="333.96" xlink:href="#Sfumatura_senza_nome_113"/>
    <linearGradient id="Sfumatura_senza_nome_113-40" data-name="Sfumatura senza nome 113" x1="292.23" y1="333.96" x2="302.7" y2="333.96" xlink:href="#Sfumatura_senza_nome_113"/>
    <linearGradient id="Sfumatura_senza_nome_113-41" data-name="Sfumatura senza nome 113" x1="330.17" y1="328.72" x2="342.92" y2="328.72" xlink:href="#Sfumatura_senza_nome_113"/>
    <linearGradient id="Sfumatura_senza_nome_113-42" data-name="Sfumatura senza nome 113" x1="330.17" y1="339.19" x2="342.92" y2="339.19" xlink:href="#Sfumatura_senza_nome_113"/>
    <linearGradient id="Sfumatura_senza_nome_113-43" data-name="Sfumatura senza nome 113" x1="347.97" y1="328.72" x2="379.51" y2="328.72" xlink:href="#Sfumatura_senza_nome_113"/>
    <linearGradient id="Sfumatura_senza_nome_113-44" data-name="Sfumatura senza nome 113" x1="347.97" y1="339.19" x2="379.51" y2="339.19" xlink:href="#Sfumatura_senza_nome_113"/>
    <linearGradient id="Sfumatura_senza_nome_113-45" data-name="Sfumatura senza nome 113" x1="254.62" y1="486.81" x2="374.8" y2="486.81" xlink:href="#Sfumatura_senza_nome_113"/>
    <linearGradient id="Sfumatura_senza_nome_6" data-name="Sfumatura senza nome 6" x1="176.2" y1="-6232.35" x2="454.59" y2="-6232.35" gradientTransform="translate(0 -5880.61) scale(1 -1)" gradientUnits="userSpaceOnUse">
      <stop offset="0" stop-color="#a1ddec"/>
      <stop offset="1" stop-color="#50b0d3"/>
    </linearGradient>
    <linearGradient id="Sfumatura_senza_nome_11-11" data-name="Sfumatura senza nome 11" x1="261.29" y1="150.75" x2="380.36" y2="150.75" xlink:href="#Sfumatura_senza_nome_11"/>
    <linearGradient id="Sfumatura_senza_nome_11-12" data-name="Sfumatura senza nome 11" x1="261.29" y1="150.75" x2="380.36" y2="150.75" xlink:href="#Sfumatura_senza_nome_11"/>
  </defs>
  <g>
    <rect class="cls-1" x="701.81" y="647.18" width="16.68" height="291.76" rx="4.93" ry="4.93"/>
    <path class="cls-9" d="M306.9,940.48v-3.09c0-1.88-1.24-413.57-.01-414.8s13.93-1.99,15.8-1.99l-.45,410h526.98c3.75,0,6.79,3.04,6.79,6.79v3.09c0,3.75-3.04,6.79-6.79,6.79H313.7c-3.75,0-6.79-3.04-6.79-6.79Z"/>
    <circle class="cls-59" cx="710.14" cy="938.94" r="15.09"/>
  </g>
  <g>
    <rect class="cls-8" x="518.31" y="633.74" width="384.72" height="73.56" rx="18.85" ry="18.85"/>
    <circle class="cls-52" cx="562.78" cy="670.52" r="12.68"/>
    <circle class="cls-51" cx="615.71" cy="670.52" r="12.68"/>
    <circle class="cls-50" cx="668.63" cy="670.52" r="12.68"/>
    <rect class="cls-53" x="747.85" y="651.08" width="30.91" height="13.52" rx="6.76" ry="6.76"/>
    <rect class="cls-54" x="747.85" y="676.44" width="30.91" height="13.52" rx="6.76" ry="6.76"/>
    <rect class="cls-56" x="790.99" y="651.08" width="76.4" height="13.52" rx="6.76" ry="6.76"/>
    <rect class="cls-55" x="790.99" y="676.44" width="76.4" height="13.52" rx="6.76" ry="6.76"/>
  </g>
  <g>
    <rect class="cls-7" x="517.79" y="718.8" width="384.72" height="73.56" rx="18.85" ry="18.85"/>
    <circle class="cls-57" cx="562.26" cy="755.58" r="12.68"/>
    <circle class="cls-17" cx="615.18" cy="755.58" r="12.68"/>
    <circle class="cls-15" cx="668.1" cy="755.58" r="12.68"/>
    <rect class="cls-16" x="747.33" y="736.14" width="30.91" height="13.52" rx="6.76" ry="6.76"/>
    <rect class="cls-12" x="747.33" y="761.5" width="30.91" height="13.52" rx="6.76" ry="6.76"/>
    <rect class="cls-20" x="790.47" y="736.14" width="76.4" height="13.52" rx="6.76" ry="6.76"/>
    <rect class="cls-18" x="790.47" y="761.5" width="76.4" height="13.52" rx="6.76" ry="6.76"/>
  </g>
  <g>
    <rect class="cls-4" x="518.31" y="803.86" width="384.72" height="73.56" rx="18.85" ry="18.85"/>
    <circle class="cls-19" cx="562.78" cy="840.64" r="12.68"/>
    <circle class="cls-21" cx="615.71" cy="840.64" r="12.68"/>
    <circle class="cls-13" cx="668.63" cy="840.64" r="12.68"/>
    <rect class="cls-14" x="747.85" y="821.2" width="30.91" height="13.52" rx="6.76" ry="6.76"/>
    <rect class="cls-34" x="747.85" y="846.57" width="30.91" height="13.52" rx="6.76" ry="6.76"/>
    <rect class="cls-28" x="790.99" y="821.2" width="76.4" height="13.52" rx="6.76" ry="6.76"/>
    <rect class="cls-25" x="790.99" y="846.57" width="76.4" height="13.52" rx="6.76" ry="6.76"/>
  </g>
  <g>
    <g>
      <rect class="cls-5" x="311.16" y="254.1" width="6.88" height="120.43" rx="2.04" ry="2.04"/>
      <rect class="cls-6" x="311.16" y="314.31" width="6.88" height="120.43" rx="2.04" ry="2.04" transform="translate(689.13 59.93) rotate(90)"/>
      <circle class="cls-23" cx="314.6" cy="374.53" r="6.23"/>
    </g>
    <g>
      <rect class="cls-2" x="235.42" y="248.55" width="158.8" height="30.36" rx="7.78" ry="7.78"/>
      <circle class="cls-27" cx="253.77" cy="263.74" r="5.24"/>
      <circle class="cls-24" cx="275.62" cy="263.74" r="5.24"/>
      <circle class="cls-26" cx="297.46" cy="263.74" r="5.24"/>
      <rect class="cls-30" x="330.17" y="255.71" width="12.76" height="5.58" rx="2.79" ry="2.79"/>
      <rect class="cls-29" x="330.17" y="266.18" width="12.76" height="5.58" rx="2.79" ry="2.79"/>
      <rect class="cls-22" x="347.97" y="255.71" width="31.54" height="5.58" rx="2.79" ry="2.79"/>
      <rect class="cls-11" x="347.97" y="266.18" width="31.54" height="5.58" rx="2.79" ry="2.79"/>
    </g>
    <g>
      <rect class="cls-3" x="235.2" y="283.66" width="158.8" height="30.36" rx="7.78" ry="7.78"/>
      <circle class="cls-37" cx="253.56" cy="298.85" r="5.24"/>
      <circle class="cls-38" cx="275.4" cy="298.85" r="5.24"/>
      <circle class="cls-35" cx="297.25" cy="298.85" r="5.24"/>
      <rect class="cls-36" x="329.95" y="290.82" width="12.76" height="5.58" rx="2.79" ry="2.79"/>
      <rect class="cls-32" x="329.95" y="301.29" width="12.76" height="5.58" rx="2.79" ry="2.79"/>
      <rect class="cls-33" x="347.76" y="290.82" width="31.54" height="5.58" rx="2.79" ry="2.79"/>
      <rect class="cls-39" x="347.76" y="301.29" width="31.54" height="5.58" rx="2.79" ry="2.79"/>
    </g>
    <g>
      <rect class="cls-47" x="235.42" y="318.77" width="158.8" height="30.36" rx="7.78" ry="7.78"/>
      <circle class="cls-40" cx="253.77" cy="333.96" r="5.24"/>
      <circle class="cls-31" cx="275.62" cy="333.96" r="5.24"/>
      <circle class="cls-44" cx="297.46" cy="333.96" r="5.24"/>
      <rect class="cls-41" x="330.17" y="325.93" width="12.76" height="5.58" rx="2.79" ry="2.79"/>
      <rect class="cls-42" x="330.17" y="336.4" width="12.76" height="5.58" rx="2.79" ry="2.79"/>
      <rect class="cls-43" x="347.97" y="325.93" width="31.54" height="5.58" rx="2.79" ry="2.79"/>
      <rect class="cls-45" x="347.97" y="336.4" width="31.54" height="5.58" rx="2.79" ry="2.79"/>
    </g>
    <polygon class="cls-46" points="358.71 536.56 272.39 537.17 254.62 436.44 374.8 437.34 358.71 536.56"/>
    <path class="cls-10" d="M409.49,384.21c.09,5.66-4.75,10.76-10.41,10.94-1.49.11-3.89,0-5.43.06-7.22.1-14.43.14-21.64.3-46.68,1.05-93.39,2.2-140.08,1.3-5.62-.15-10.76-4.44-11.81-9.97-.47-1.82-.11-6.53-.14-8.47.74-35.49,1.03-72.79.65-108.22-.12-7-.32-25.27-.44-32.47-.15-6.65,5.6-12.35,12.23-12.3,52.56-.78,109.06-1.09,161.67-1.01h2.7s1.35.02,1.35.02h.34c6.75-.03,12.77,5.37,13.26,12.15.12,12.31-.21,27.12-.38,39.45-.7,35.46-1.88,72.74-1.87,108.22h0ZM408.99,384.21c0-35.5-1.16-72.76-1.87-108.22-.25-11.72-.35-26.17-.43-37.88.19-4.6-3.62-8.51-8.22-8.45h-1.69c-53.31.13-110.41-.21-163.69-.98-5.29-.45-10.07,3.61-10.15,9.01l-.3,21.64c-.04,5.41-.23,16.24-.23,21.64-.29,33.97.12,70.01.89,104.02.41,4.34,4.38,7.95,8.74,7.91,2.63,0,7.39-.09,10.08-.12,50.51-.81,101.01,1.11,151.52,1.75,2.67-.05,5.39.33,7.98-.43,4.25-1.28,7.38-5.43,7.36-9.88h0Z"/>
    <path class="cls-58" d="M449.24,166.93h-62.59v33.82c0,5.31-4.32,9.63-9.63,9.63h-112.37c-5.31,0-9.64-4.32-9.64-9.63v-33.82h-73.45c-2.95,0-5.36,2.4-5.36,5.36v358.92c0,2.95,2.4,5.36,5.36,5.36h90.88v-80.78c0-2.96-2.41-5.36-5.36-5.36-3.67.52-8-1.05-7.95-5.36,0-1.48.6-2.82,1.57-3.79s2.31-1.57,3.78-1.57h102.18c2.96,0,5.36,2.4,5.36,5.36.04,4.32-4.28,5.87-7.95,5.36-2.96,0-5.36,2.4-5.36,5.36v80.78h90.52c2.96,0,5.36-2.4,5.36-5.36V172.29c0-2.95-2.4-5.36-5.36-5.36ZM417.38,390.75c0,6.42-5.22,11.64-11.64,11.64h-179.82c-6.42,0-11.64-5.22-11.64-11.64v-160.02c0-6.41,5.22-11.64,11.64-11.64h179.82c6.43,0,11.64,5.22,11.64,11.64v160.02Z"/>
    <path class="cls-10" d="M550.09,529.87v-1.88c.03-34.83,0-70.5-.19-105.3-.19-25.15-.2-58.67-.55-83.68.02-1.14-.14-2.33-.65-3.36-1.13-2.56-3.92-4.11-6.67-3.94-29.01.29-58.45.61-87.44,1.16v.54c20.06.38,40.11.64,60.18.87,6.68.1,19.87.19,26.33.28h.94s.47,0,.47,0c2.51.05,4.01,2.16,3.85,4.47-.11,13.98-.33,39.43-.4,53.59-.25,44.57-.38,90.88-.33,135.39v2.82c.21,1.8-1.27,3.51-3.06,3.54h-1.61c-58.52.19-123.74,1.18-182.25,1.37-59.73-.22-209.96-1.96-269.35-1.8-.7.03-1.48-.05-2.06-.49-.94-.6-1.24-1.73-1.18-2.77-.14-60.69-.52-122.27-1.06-182.92l-.07-7.54c.03-1.11-.18-2.18.24-3.19.33-.85.97-1.6,1.79-2.05.62-.36,1.37-.49,2.07-.49h.94c28.77-.31,57.99-.66,86.74-1.11v-.5c-20.12-.35-40.23-.55-60.35-.82-6.68-.05-19.93-.25-26.4-.28-1.46-.06-3.03.01-4.33.75-1.4.74-2.53,1.97-3.14,3.45-.59,1.33-.51,2.86-.52,4.25-.45,47.73-.77,95.6-.97,143.32-.05,9.79-.11,35.85-.15,45.26v1.89c-.29,4.99,3.85,8.73,8.44,8.51,59.47.26,209.55-1.69,269.33-1.81,59.23.17,125.07,1.25,184.29,1.37,4.09-.16,7.32-3.91,7.1-7.94v-.94Z"/>
    <path class="cls-49" d="M377.02,97.4h-112.37c-1.85,0-3.35,1.5-3.35,3.34v100c0,1.85,1.5,3.34,3.35,3.34h112.37c1.85,0,3.34-1.5,3.34-3.34v-100c0-1.85-1.5-3.34-3.34-3.34ZM363.08,165.11c0,.65-.14,1.26-.41,1.82-.67,1.43-2.13,2.41-3.82,2.41h-15.2c-2.33,0-4.23,1.89-4.23,4.23v15.19c0,2.34-1.89,4.23-4.23,4.23h-28.73c-2.33,0-4.23-1.89-4.23-4.23v-15.19c0-2.34-1.89-4.23-4.22-4.23h-15.2c-1.68,0-3.14-.99-3.82-2.41-.27-.55-.41-1.17-.41-1.82v-28.73c0-2.34,1.89-4.23,4.23-4.23h15.2c2.33,0,4.22-1.89,4.22-4.23v-15.2c0-2.33,1.9-4.23,4.23-4.23h28.73c2.34,0,4.23,1.9,4.23,4.23v15.2c0,2.34,1.9,4.23,4.23,4.23h15.2c2.34,0,4.23,1.89,4.23,4.23v28.73Z"/>
    <path class="cls-48" d="M377.02,97.4h-112.37c-1.85,0-3.35,1.5-3.35,3.34v100c0,1.85,1.5,3.34,3.35,3.34h112.37c1.85,0,3.34-1.5,3.34-3.34v-100c0-1.85-1.5-3.34-3.34-3.34ZM363.08,165.11c0,.65-.14,1.26-.41,1.82-.67,1.43-2.13,2.41-3.82,2.41h-15.2c-2.33,0-4.23,1.89-4.23,4.23v15.19c0,2.34-1.89,4.23-4.23,4.23h-28.73c-2.33,0-4.23-1.89-4.23-4.23v-15.19c0-2.34-1.89-4.23-4.22-4.23h-15.2c-1.68,0-3.14-.99-3.82-2.41-.27-.55-.41-1.17-.41-1.82v-28.73c0-2.34,1.89-4.23,4.23-4.23h15.2c2.33,0,4.22-1.89,4.22-4.23v-15.2c0-2.33,1.9-4.23,4.23-4.23h28.73c2.34,0,4.23,1.9,4.23,4.23v15.2c0,2.34,1.9,4.23,4.23,4.23h15.2c2.34,0,4.23,1.89,4.23,4.23v28.73Z"/>
  </g>
</svg>