<?xml version="1.0" encoding="UTF-8"?>
<svg id="Livello_1" data-name="Livello 1" xmlns="http://www.w3.org/2000/svg" xmlns:xlink="http://www.w3.org/1999/xlink" viewBox="0 0 1000 1000">
  <defs>
    <style>
      .cls-1 {
        fill: url(#Sfumatura_senza_nome_14);
      }

      .cls-2 {
        fill: url(#Sfumatura_senza_nome_26);
      }

      .cls-3 {
        fill: url(#Sfumatura_senza_nome_11);
      }

      .cls-4 {
        filter: url(#drop-shadow-69);
      }

      .cls-5 {
        filter: url(#drop-shadow-73);
      }

      .cls-6 {
        filter: url(#drop-shadow-72);
      }

      .cls-7 {
        filter: url(#drop-shadow-71);
      }

      .cls-8 {
        filter: url(#drop-shadow-70);
      }

      .cls-9 {
        fill: url(#Sfumatura_senza_nome_26-2);
      }

      .cls-10 {
        fill: url(#Sfumatura_senza_nome_14-5);
      }

      .cls-11 {
        fill: url(#Sfumatura_senza_nome_14-3);
      }

      .cls-12 {
        fill: url(#Sfumatura_senza_nome_14-4);
      }

      .cls-13 {
        fill: url(#Sfumatura_senza_nome_14-2);
      }

      .cls-14 {
        fill: url(#Sfumatura_senza_nome_14-6);
      }

      .cls-15 {
        fill: url(#Sfumatura_senza_nome_14-7);
      }

      .cls-16 {
        fill: url(#Sfumatura_senza_nome_14-8);
      }

      .cls-17 {
        fill: url(#Sfumatura_senza_nome_14-9);
      }

      .cls-18 {
        fill: url(#Sfumatura_senza_nome_11-2);
      }

      .cls-19 {
        fill: url(#Sfumatura_senza_nome_113-3);
      }

      .cls-20 {
        fill: url(#Sfumatura_senza_nome_113-2);
      }

      .cls-21 {
        fill: url(#Sfumatura_senza_nome_113);
      }
    </style>
    <filter id="drop-shadow-69" x="301.84" y="254.41" width="221" height="427" filterUnits="userSpaceOnUse">
      <feOffset dx="5" dy="5"/>
      <feGaussianBlur result="blur" stdDeviation="8"/>
      <feFlood flood-color="#000" flood-opacity=".2"/>
      <feComposite in2="blur" operator="in"/>
      <feComposite in="SourceGraphic"/>
    </filter>
    <linearGradient id="Sfumatura_senza_nome_14" data-name="Sfumatura senza nome 14" x1="370.27" y1="420.85" x2="449.71" y2="420.85" gradientUnits="userSpaceOnUse">
      <stop offset="0" stop-color="#90e0ef"/>
      <stop offset="1" stop-color="#00b4d8"/>
    </linearGradient>
    <linearGradient id="Sfumatura_senza_nome_14-2" data-name="Sfumatura senza nome 14" x1="321.61" y1="515.28" x2="325.61" y2="515.28" xlink:href="#Sfumatura_senza_nome_14"/>
    <linearGradient id="Sfumatura_senza_nome_14-3" data-name="Sfumatura senza nome 14" x1="489.77" y1="515.13" x2="493.77" y2="515.13" xlink:href="#Sfumatura_senza_nome_14"/>
    <linearGradient id="Sfumatura_senza_nome_14-4" data-name="Sfumatura senza nome 14" x1="395.72" y1="649.49" x2="424.98" y2="649.49" xlink:href="#Sfumatura_senza_nome_14"/>
    <linearGradient id="Sfumatura_senza_nome_113" data-name="Sfumatura senza nome 113" x1="345.93" y1="335.94" x2="469.45" y2="335.94" gradientUnits="userSpaceOnUse">
      <stop offset="0" stop-color="#0077b6"/>
      <stop offset="1" stop-color="#03045e"/>
    </linearGradient>
    <filter id="drop-shadow-70" x="498.84" y="254.41" width="222" height="427" filterUnits="userSpaceOnUse">
      <feOffset dx="5" dy="5"/>
      <feGaussianBlur result="blur-2" stdDeviation="8"/>
      <feFlood flood-color="#000" flood-opacity=".2"/>
      <feComposite in2="blur-2" operator="in"/>
      <feComposite in="SourceGraphic"/>
    </filter>
    <linearGradient id="Sfumatura_senza_nome_14-5" data-name="Sfumatura senza nome 14" x1="564.18" y1="420.5" x2="643.58" y2="420.5" xlink:href="#Sfumatura_senza_nome_14"/>
    <linearGradient id="Sfumatura_senza_nome_14-6" data-name="Sfumatura senza nome 14" x1="589.14" y1="649.49" x2="618.33" y2="649.49" xlink:href="#Sfumatura_senza_nome_14"/>
    <linearGradient id="Sfumatura_senza_nome_14-7" data-name="Sfumatura senza nome 14" x1="518.76" y1="515.19" x2="522.76" y2="515.19" xlink:href="#Sfumatura_senza_nome_14"/>
    <linearGradient id="Sfumatura_senza_nome_14-8" data-name="Sfumatura senza nome 14" x1="686.92" y1="515.25" x2="690.92" y2="515.25" xlink:href="#Sfumatura_senza_nome_14"/>
    <linearGradient id="Sfumatura_senza_nome_113-2" data-name="Sfumatura senza nome 113" x1="543.07" x2="666.6" xlink:href="#Sfumatura_senza_nome_113"/>
    <filter id="drop-shadow-71" x="206.84" y="362.41" width="224" height="428" filterUnits="userSpaceOnUse">
      <feOffset dx="5" dy="5"/>
      <feGaussianBlur result="blur-3" stdDeviation="8"/>
      <feFlood flood-color="#000" flood-opacity=".2"/>
      <feComposite in2="blur-3" operator="in"/>
      <feComposite in="SourceGraphic"/>
    </filter>
    <linearGradient id="Sfumatura_senza_nome_14-9" data-name="Sfumatura senza nome 14" x1="225.56" y1="641.22" x2="401.71" y2="641.22" xlink:href="#Sfumatura_senza_nome_14"/>
    <linearGradient id="Sfumatura_senza_nome_113-3" data-name="Sfumatura senza nome 113" x1="251.87" y1="444.08" x2="375.4" y2="444.08" xlink:href="#Sfumatura_senza_nome_113"/>
    <filter id="drop-shadow-72" x="399.84" y="362.41" width="225" height="428" filterUnits="userSpaceOnUse">
      <feOffset dx="5" dy="5"/>
      <feGaussianBlur result="blur-4" stdDeviation="8"/>
      <feFlood flood-color="#000" flood-opacity=".2"/>
      <feComposite in2="blur-4" operator="in"/>
      <feComposite in="SourceGraphic"/>
    </filter>
    <linearGradient id="Sfumatura_senza_nome_11" data-name="Sfumatura senza nome 11" x1="418.97" y1="641.22" x2="595.13" y2="641.22" gradientUnits="userSpaceOnUse">
      <stop offset="0" stop-color="#90e0ef"/>
      <stop offset="1" stop-color="#00b4d8"/>
    </linearGradient>
    <linearGradient id="Sfumatura_senza_nome_26" data-name="Sfumatura senza nome 26" x1="445.29" y1="444.08" x2="568.82" y2="444.08" gradientUnits="userSpaceOnUse">
      <stop offset="0" stop-color="#0077b6"/>
      <stop offset="1" stop-color="#03045e"/>
    </linearGradient>
    <filter id="drop-shadow-73" x="592.84" y="362.41" width="225" height="428" filterUnits="userSpaceOnUse">
      <feOffset dx="5" dy="5"/>
      <feGaussianBlur result="blur-5" stdDeviation="8"/>
      <feFlood flood-color="#000" flood-opacity=".2"/>
      <feComposite in2="blur-5" operator="in"/>
      <feComposite in="SourceGraphic"/>
    </filter>
    <linearGradient id="Sfumatura_senza_nome_11-2" data-name="Sfumatura senza nome 11" x1="612.33" x2="788.49" xlink:href="#Sfumatura_senza_nome_11"/>
    <linearGradient id="Sfumatura_senza_nome_26-2" data-name="Sfumatura senza nome 26" x1="638.64" x2="762.17" xlink:href="#Sfumatura_senza_nome_26"/>
  </defs>
  <g class="cls-4">
    <path class="cls-1" d="M372.27,424.6c5.57-3.5,11.79-6.01,18.23-7.63,6.45-1.62,13.15-2.35,19.82-2.14,6.67.2,13.32,1.33,19.66,3.34,6.34,2,12.39,4.9,17.73,8.74-6.13-2.37-12.28-4.35-18.54-5.73-6.26-1.38-12.6-2.14-18.97-2.35-6.37-.19-12.75.19-19.08,1.19-6.33,1-12.59,2.59-18.85,4.58Z"/>
    <path class="cls-13" d="M323.61,525.52c-.83-1.71-1.26-3.41-1.57-5.12-.29-1.71-.43-3.41-.43-5.12,0-1.71.13-3.41.43-5.12.31-1.71.74-3.41,1.57-5.12.83,1.71,1.26,3.41,1.57,5.12.29,1.71.43,3.41.43,5.12,0,1.71-.14,3.41-.43,5.12-.31,1.71-.74,3.41-1.57,5.12Z"/>
    <path class="cls-11" d="M491.77,526.32c-.83-1.86-1.26-3.73-1.57-5.59-.29-1.86-.43-3.73-.43-5.6,0-1.86.13-3.73.43-5.59.31-1.86.74-3.73,1.57-5.59.83,1.86,1.26,3.73,1.57,5.59.29,1.86.43,3.73.43,5.59,0,1.87-.14,3.73-.43,5.6-.31,1.86-.74,3.73-1.57,5.59Z"/>
    <path class="cls-12" d="M422.98,649.49c-2.11.83-4.21,1.26-6.32,1.57-2.11.29-4.21.43-6.32.43-2.11,0-4.21-.13-6.32-.43-2.11-.31-4.21-.74-6.32-1.57,2.1-.83,4.21-1.26,6.32-1.57,2.1-.29,4.21-.43,6.32-.43,2.1,0,4.21.14,6.32.43,2.1.31,4.21.74,6.32,1.57Z"/>
    <circle class="cls-21" cx="407.69" cy="335.94" r="61.76"/>
  </g>
  <g class="cls-8">
    <path class="cls-10" d="M566.18,426.19c5.4-3.74,11.5-6.52,17.87-8.41,6.37-1.89,13.03-2.9,19.7-2.97,6.67-.1,13.35.75,19.76,2.47,6.41,1.72,12.58,4.35,18.07,7.95-6.22-2.1-12.44-3.8-18.75-4.9-6.3-1.1-12.67-1.59-19.04-1.52-6.36.08-12.72.73-18.99,1.99-6.28,1.26-12.46,3.13-18.62,5.39Z"/>
    <path class="cls-14" d="M616.33,649.49c-2.1.83-4.2,1.26-6.3,1.57-2.1.29-4.2.43-6.3.43-2.1,0-4.2-.13-6.3-.43-2.1-.31-4.2-.74-6.3-1.57,2.1-.83,4.2-1.26,6.3-1.57,2.1-.29,4.2-.43,6.3-.43,2.1,0,4.2.14,6.3.43,2.1.31,4.2.74,6.3,1.57Z"/>
    <path class="cls-15" d="M520.76,526.05c-.83-1.81-1.26-3.62-1.57-5.43-.29-1.81-.43-3.62-.43-5.43,0-1.81.13-3.62.43-5.43.31-1.81.74-3.62,1.57-5.43.83,1.81,1.26,3.62,1.57,5.43.29,1.81.43,3.62.43,5.43,0,1.81-.14,3.62-.43,5.43-.31,1.81-.74,3.62-1.57,5.43Z"/>
    <path class="cls-16" d="M688.92,525.72c-.83-1.75-1.26-3.49-1.57-5.24-.29-1.75-.43-3.49-.43-5.24,0-1.75.13-3.49.43-5.24.31-1.75.74-3.49,1.57-5.24.83,1.75,1.26,3.49,1.57,5.24.29,1.75.43,3.49.43,5.24,0,1.75-.14,3.49-.43,5.24-.31,1.75-.74,3.49-1.57,5.24Z"/>
    <circle class="cls-20" cx="604.84" cy="335.94" r="61.76"/>
  </g>
  <g class="cls-7">
    <path class="cls-17" d="M398,757.91c-13.51.54-27.29.97-41.18,1.4-13.89.43-27.93.76-42.03,1.1-14.13.24-28.3.55-42.54.64l-21.34.17-21.35-.06h-.04c-1.93,0-3.49-1.57-3.48-3.5v-.02c.18-23.39.99-46.78,1.59-70.17.61-23.39.86-46.78.67-70.17l-.06-8.78c.03-1.48.01-2.97.09-4.45.11-1.48.16-2.97.32-4.45.6-5.92,1.73-11.79,3.51-17.49,3.52-11.41,9.43-22.13,17.31-31.25,7.88-9.11,17.74-16.59,28.77-21.71,11.03-5.12,23.2-7.84,35.4-7.93,12.2-.12,24.48,2.32,35.71,7.23,11.22,4.91,21.5,12.12,29.74,21.24,8.23,9.11,14.66,19.91,18.38,31.63,1.89,5.85,3.16,11.89,3.78,17.99.17,1.52.23,3.06.35,4.58.09,1.53.07,3.06.11,4.59.01,3.01-.05,5.97-.09,8.95-.57,47.67-2.11,95.11-3.64,140.47ZM397.43,757.35c-1.53-48.2-3.07-94.33-3.64-140.22l-.11-8.59c-.06-1.39-.06-2.79-.16-4.17-.13-1.39-.2-2.78-.38-4.16-.65-5.53-1.88-10.98-3.66-16.23-3.6-10.49-9.22-20.31-16.69-28.55-7.48-8.2-16.56-14.99-26.71-19.57-10.13-4.61-21.24-7.1-32.43-7.2-11.19-.12-22.4,2.09-32.75,6.5-10.35,4.38-19.85,10.9-27.69,19.11-7.81,8.23-13.96,18.13-17.76,28.94-1.89,5.4-3.26,11.01-3.93,16.72-.19,1.42-.27,2.86-.41,4.29-.11,1.43-.12,2.87-.19,4.31-.06,2.91-.08,5.84-.08,8.76-.19,23.39.06,46.78.67,70.17.6,23.39,1.41,46.78,1.59,70.17l-3.52-3.52,20.69-.06,20.7.17c13.79.09,27.65.4,41.54.64,13.93.33,27.91.67,42.05,1.1,14.14.42,28.38.85,42.9,1.4Z"/>
    <circle class="cls-19" cx="313.63" cy="444.08" r="61.76"/>
  </g>
  <g class="cls-6">
    <path class="cls-3" d="M591.42,757.91c-13.51.54-27.29.97-41.18,1.4-13.89.43-27.93.76-42.03,1.1-14.13.24-28.3.55-42.54.64l-21.34.17-21.35-.06h-.04c-1.93,0-3.49-1.57-3.48-3.5v-.02c.18-23.39.99-46.78,1.59-70.17.61-23.39.86-46.78.67-70.17l-.06-8.78c.03-1.48.01-2.97.09-4.45.11-1.48.16-2.97.32-4.45.6-5.92,1.73-11.79,3.51-17.49,3.52-11.41,9.43-22.13,17.31-31.25,7.88-9.11,17.74-16.59,28.77-21.71,11.03-5.12,23.2-7.84,35.4-7.93,12.2-.12,24.48,2.32,35.71,7.23,11.22,4.91,21.5,12.12,29.74,21.24,8.23,9.11,14.66,19.91,18.38,31.63,1.89,5.85,3.16,11.89,3.78,17.99.17,1.52.23,3.06.35,4.58.09,1.53.07,3.06.11,4.59.01,3.01-.05,5.97-.09,8.95-.57,47.67-2.11,95.11-3.64,140.47ZM590.85,757.35c-1.53-48.2-3.07-94.33-3.64-140.22l-.11-8.59c-.06-1.39-.06-2.79-.16-4.17-.13-1.39-.2-2.78-.38-4.16-.65-5.53-1.88-10.98-3.66-16.23-3.6-10.49-9.22-20.31-16.69-28.55-7.48-8.2-16.56-14.99-26.71-19.57-10.13-4.61-21.24-7.1-32.43-7.2-11.19-.12-22.4,2.09-32.75,6.5-10.35,4.38-19.85,10.9-27.69,19.11-7.81,8.23-13.96,18.13-17.76,28.94-1.89,5.4-3.26,11.01-3.93,16.72-.19,1.42-.27,2.86-.41,4.29-.11,1.43-.12,2.87-.19,4.31-.06,2.91-.08,5.84-.08,8.76-.19,23.39.06,46.78.67,70.17.6,23.39,1.41,46.78,1.59,70.17l-3.52-3.52,20.69-.06,20.7.17c13.79.09,27.65.4,41.54.64,13.93.33,27.91.67,42.05,1.1,14.14.42,28.38.85,42.9,1.4Z"/>
    <circle class="cls-2" cx="507.05" cy="444.08" r="61.76"/>
  </g>
  <g class="cls-5">
    <path class="cls-18" d="M784.77,757.91c-13.51.54-27.29.97-41.18,1.4-13.89.43-27.93.76-42.03,1.1-14.13.24-28.3.55-42.54.64l-21.34.17-21.35-.06h-.04c-1.93,0-3.49-1.57-3.48-3.5v-.02c.18-23.39.99-46.78,1.59-70.17.61-23.39.86-46.78.67-70.17l-.06-8.78c.03-1.48.01-2.97.09-4.45.11-1.48.16-2.97.32-4.45.6-5.92,1.73-11.79,3.51-17.49,3.52-11.41,9.43-22.13,17.31-31.25,7.88-9.11,17.74-16.59,28.77-21.71,11.03-5.12,23.2-7.84,35.4-7.93,12.2-.12,24.48,2.32,35.71,7.23,11.22,4.91,21.5,12.12,29.74,21.24,8.23,9.11,14.66,19.91,18.38,31.63,1.89,5.85,3.16,11.89,3.78,17.99.17,1.52.23,3.06.35,4.58.09,1.53.07,3.06.11,4.59.01,3.01-.05,5.97-.09,8.95-.57,47.67-2.11,95.11-3.64,140.47ZM784.2,757.35c-1.53-48.2-3.07-94.33-3.64-140.22l-.11-8.59c-.06-1.39-.06-2.79-.16-4.17-.13-1.39-.2-2.78-.38-4.16-.65-5.53-1.88-10.98-3.66-16.23-3.6-10.49-9.22-20.31-16.69-28.55-7.48-8.2-16.56-14.99-26.71-19.57-10.13-4.61-21.24-7.1-32.43-7.2-11.19-.12-22.4,2.09-32.75,6.5-10.35,4.38-19.85,10.9-27.69,19.11-7.81,8.23-13.96,18.13-17.76,28.94-1.89,5.4-3.26,11.01-3.93,16.72-.19,1.42-.27,2.86-.41,4.29-.11,1.43-.12,2.87-.19,4.31-.06,2.91-.08,5.84-.08,8.76-.19,23.39.06,46.78.67,70.17.6,23.39,1.41,46.78,1.59,70.17l-3.52-3.52,20.69-.06,20.7.17c13.79.09,27.65.4,41.54.64,13.93.33,27.91.67,42.05,1.1,14.14.42,28.38.85,42.9,1.4Z"/>
    <circle class="cls-9" cx="700.41" cy="444.08" r="61.76"/>
  </g>
</svg>