<?xml version="1.0" encoding="UTF-8"?>
<svg id="Livello_1" data-name="Livello 1" xmlns="http://www.w3.org/2000/svg" xmlns:xlink="http://www.w3.org/1999/xlink" viewBox="0 0 1920 1235.79">
  <defs>
    <style>
      .cls-1 {
        filter: url(#drop-shadow-90);
        stroke: url(#Sfumatura_senza_nome_14-3);
      }

      .cls-1, .cls-2, .cls-3, .cls-4, .cls-5, .cls-6, .cls-7, .cls-8 {
        fill: #fff;
      }

      .cls-1, .cls-2, .cls-3, .cls-9, .cls-10, .cls-11, .cls-12, .cls-13, .cls-14, .cls-15, .cls-16, .cls-8 {
        stroke-miterlimit: 10;
      }

      .cls-1, .cls-2, .cls-3, .cls-8 {
        stroke-width: 1.15px;
      }

      .cls-2 {
        filter: url(#drop-shadow-92);
        stroke: url(#Sfumatura_senza_nome_14-4);
      }

      .cls-3 {
        filter: url(#drop-shadow-88);
        stroke: url(#Sfumatura_senza_nome_14-2);
      }

      .cls-4 {
        filter: url(#drop-shadow-85);
      }

      .cls-5 {
        filter: url(#drop-shadow-79);
      }

      .cls-6 {
        filter: url(#drop-shadow-83);
      }

      .cls-7 {
        filter: url(#drop-shadow-81);
      }

      .cls-17 {
        fill: url(#Sfumatura_senza_nome_11);
      }

      .cls-18 {
        fill: #00b4d8;
      }

      .cls-9 {
        stroke: url(#Sfumatura_senza_nome_190-5);
      }

      .cls-9, .cls-10, .cls-11, .cls-12, .cls-13 {
        stroke-width: 3px;
      }

      .cls-9, .cls-10, .cls-11, .cls-12, .cls-13, .cls-14, .cls-15, .cls-16 {
        fill: none;
      }

      .cls-10 {
        stroke: url(#Sfumatura_senza_nome_190-3);
      }

      .cls-11 {
        stroke: url(#Sfumatura_senza_nome_190-2);
      }

      .cls-12 {
        stroke: url(#Sfumatura_senza_nome_190-4);
      }

      .cls-13 {
        stroke: url(#Sfumatura_senza_nome_190);
      }

      .cls-19 {
        fill: url(#Sfumatura_senza_nome_6);
        opacity: .15;
      }

      .cls-20 {
        fill: #03045e;
      }

      .cls-21 {
        fill: url(#Sfumatura_senza_nome_11-9);
        filter: url(#drop-shadow-84);
      }

      .cls-22 {
        fill: url(#Sfumatura_senza_nome_11-8);
        filter: url(#drop-shadow-82);
      }

      .cls-23 {
        fill: url(#Sfumatura_senza_nome_11-7);
        filter: url(#drop-shadow-80);
      }

      .cls-24 {
        fill: url(#Sfumatura_senza_nome_11-6);
        filter: url(#drop-shadow-78);
      }

      .cls-25 {
        fill: url(#Sfumatura_senza_nome_11-5);
      }

      .cls-26 {
        fill: url(#Sfumatura_senza_nome_11-4);
      }

      .cls-27 {
        fill: url(#Sfumatura_senza_nome_11-3);
      }

      .cls-28 {
        fill: url(#Sfumatura_senza_nome_11-2);
      }

      .cls-14 {
        stroke: url(#Sfumatura_senza_nome_190-6);
      }

      .cls-14, .cls-15, .cls-16 {
        stroke-width: 1.73px;
      }

      .cls-15 {
        stroke: url(#Sfumatura_senza_nome_190-7);
      }

      .cls-16 {
        stroke: url(#Sfumatura_senza_nome_190-8);
      }

      .cls-29 {
        fill: #50b0d3;
      }

      .cls-30 {
        fill: url(#Sfumatura_senza_nome_113-29);
        filter: url(#drop-shadow-89);
      }

      .cls-31 {
        fill: url(#Sfumatura_senza_nome_113-28);
        filter: url(#drop-shadow-87);
      }

      .cls-32 {
        fill: url(#Sfumatura_senza_nome_113-31);
        filter: url(#drop-shadow-93);
      }

      .cls-33 {
        fill: url(#Sfumatura_senza_nome_113-30);
        filter: url(#drop-shadow-91);
      }

      .cls-34 {
        fill: url(#Sfumatura_senza_nome_113-13);
      }

      .cls-35 {
        fill: url(#Sfumatura_senza_nome_113-18);
      }

      .cls-36 {
        fill: url(#Sfumatura_senza_nome_113-19);
      }

      .cls-37 {
        fill: url(#Sfumatura_senza_nome_113-11);
      }

      .cls-38 {
        fill: url(#Sfumatura_senza_nome_113-12);
      }

      .cls-39 {
        fill: url(#Sfumatura_senza_nome_113-10);
      }

      .cls-40 {
        fill: url(#Sfumatura_senza_nome_113-15);
      }

      .cls-41 {
        fill: url(#Sfumatura_senza_nome_113-16);
      }

      .cls-42 {
        fill: url(#Sfumatura_senza_nome_113-14);
      }

      .cls-43 {
        fill: url(#Sfumatura_senza_nome_113-17);
      }

      .cls-44 {
        fill: url(#Sfumatura_senza_nome_113-23);
      }

      .cls-45 {
        fill: url(#Sfumatura_senza_nome_113-25);
      }

      .cls-46 {
        fill: url(#Sfumatura_senza_nome_113-22);
      }

      .cls-47 {
        fill: url(#Sfumatura_senza_nome_113-26);
      }

      .cls-48 {
        fill: url(#Sfumatura_senza_nome_113-24);
      }

      .cls-49 {
        fill: url(#Sfumatura_senza_nome_113-21);
      }

      .cls-50 {
        fill: url(#Sfumatura_senza_nome_113-27);
      }

      .cls-51 {
        fill: url(#Sfumatura_senza_nome_113-20);
      }

      .cls-52 {
        fill: url(#Sfumatura_senza_nome_11-16);
      }

      .cls-53 {
        fill: url(#Sfumatura_senza_nome_11-10);
      }

      .cls-54 {
        fill: url(#Sfumatura_senza_nome_11-15);
      }

      .cls-55 {
        fill: url(#Sfumatura_senza_nome_11-12);
      }

      .cls-56 {
        fill: url(#Sfumatura_senza_nome_11-11);
      }

      .cls-57 {
        fill: url(#Sfumatura_senza_nome_11-13);
      }

      .cls-58 {
        fill: url(#Sfumatura_senza_nome_11-18);
      }

      .cls-59 {
        fill: url(#Sfumatura_senza_nome_11-19);
      }

      .cls-60 {
        fill: url(#Sfumatura_senza_nome_11-17);
      }

      .cls-61 {
        fill: url(#Sfumatura_senza_nome_11-14);
      }

      .cls-62 {
        fill: url(#Sfumatura_senza_nome_11-25);
      }

      .cls-63 {
        fill: url(#Sfumatura_senza_nome_11-24);
      }

      .cls-64 {
        fill: url(#Sfumatura_senza_nome_11-23);
      }

      .cls-65 {
        fill: url(#Sfumatura_senza_nome_11-26);
      }

      .cls-66 {
        fill: url(#Sfumatura_senza_nome_11-21);
      }

      .cls-67 {
        fill: url(#Sfumatura_senza_nome_11-22);
      }

      .cls-68 {
        fill: url(#Sfumatura_senza_nome_11-20);
      }

      .cls-69 {
        fill: url(#Sfumatura_senza_nome_11-30);
      }

      .cls-70 {
        fill: url(#Sfumatura_senza_nome_11-31);
      }

      .cls-71 {
        fill: url(#Sfumatura_senza_nome_11-32);
      }

      .cls-72 {
        fill: url(#Sfumatura_senza_nome_11-33);
      }

      .cls-73 {
        fill: url(#Sfumatura_senza_nome_11-27);
      }

      .cls-74 {
        fill: url(#Sfumatura_senza_nome_11-28);
      }

      .cls-75 {
        fill: url(#Sfumatura_senza_nome_11-29);
      }

      .cls-76 {
        fill: url(#Sfumatura_senza_nome_113-4);
      }

      .cls-77 {
        fill: url(#Sfumatura_senza_nome_113-3);
      }

      .cls-78 {
        fill: url(#Sfumatura_senza_nome_113-2);
      }

      .cls-79 {
        fill: url(#Sfumatura_senza_nome_113-5);
      }

      .cls-80 {
        fill: url(#Sfumatura_senza_nome_113-6);
      }

      .cls-81 {
        fill: url(#Sfumatura_senza_nome_113-8);
      }

      .cls-82 {
        fill: url(#Sfumatura_senza_nome_113-7);
      }

      .cls-83 {
        fill: url(#Sfumatura_senza_nome_113-9);
      }

      .cls-8 {
        filter: url(#drop-shadow-86);
        stroke: url(#Sfumatura_senza_nome_14);
      }

      .cls-84 {
        fill: url(#Sfumatura_senza_nome_113);
      }

      .cls-85 {
        fill: url(#Sfumatura_senza_nome_6-2);
      }
    </style>
    <linearGradient id="Sfumatura_senza_nome_6" data-name="Sfumatura senza nome 6" x1="138.29" y1="625.44" x2="1780.44" y2="625.44" gradientUnits="userSpaceOnUse">
      <stop offset="0" stop-color="#a1ddec"/>
      <stop offset="1" stop-color="#50b0d3"/>
    </linearGradient>
    <linearGradient id="Sfumatura_senza_nome_190" data-name="Sfumatura senza nome 190" x1="619.67" y1="561.43" x2="797.36" y2="561.43" gradientUnits="userSpaceOnUse">
      <stop offset="0" stop-color="#030660"/>
      <stop offset="1" stop-color="#0076b5"/>
    </linearGradient>
    <linearGradient id="Sfumatura_senza_nome_190-2" data-name="Sfumatura senza nome 190" x1="631.78" y1="686.98" x2="797.37" y2="686.98" xlink:href="#Sfumatura_senza_nome_190"/>
    <linearGradient id="Sfumatura_senza_nome_190-3" data-name="Sfumatura senza nome 190" x1="1122.63" y1="547.25" x2="1330.77" y2="547.25" xlink:href="#Sfumatura_senza_nome_190"/>
    <linearGradient id="Sfumatura_senza_nome_190-4" data-name="Sfumatura senza nome 190" x1="1199.08" y1="670.46" x2="1199.09" y2="670.46" xlink:href="#Sfumatura_senza_nome_190"/>
    <linearGradient id="Sfumatura_senza_nome_190-5" data-name="Sfumatura senza nome 190" x1="1122.63" y1="703.9" x2="1330.78" y2="703.9" xlink:href="#Sfumatura_senza_nome_190"/>
    <linearGradient id="Sfumatura_senza_nome_11" data-name="Sfumatura senza nome 11" x1="956.95" y1="540.64" x2="961.78" y2="540.64" gradientUnits="userSpaceOnUse">
      <stop offset="0" stop-color="#90e0ef"/>
      <stop offset="1" stop-color="#00b4d8"/>
    </linearGradient>
    <linearGradient id="Sfumatura_senza_nome_11-2" data-name="Sfumatura senza nome 11" x1="12024.85" y1="-6356.01" x2="12029.69" y2="-6356.01" gradientTransform="translate(-11067.9 6938.99)" xlink:href="#Sfumatura_senza_nome_11"/>
    <linearGradient id="Sfumatura_senza_nome_113" data-name="Sfumatura senza nome 113" x1="954.99" y1="582.98" x2="963.74" y2="582.98" gradientUnits="userSpaceOnUse">
      <stop offset="0" stop-color="#0077b6"/>
      <stop offset="1" stop-color="#03045e"/>
    </linearGradient>
    <linearGradient id="Sfumatura_senza_nome_11-3" data-name="Sfumatura senza nome 11" x1="903.69" y1="505.08" x2="1015.34" y2="505.08" xlink:href="#Sfumatura_senza_nome_11"/>
    <linearGradient id="Sfumatura_senza_nome_113-2" data-name="Sfumatura senza nome 113" x1="912.92" y1="505.08" x2="920.28" y2="505.08" xlink:href="#Sfumatura_senza_nome_113"/>
    <linearGradient id="Sfumatura_senza_nome_113-3" data-name="Sfumatura senza nome 113" x1="928.28" y1="505.08" x2="935.64" y2="505.08" xlink:href="#Sfumatura_senza_nome_113"/>
    <linearGradient id="Sfumatura_senza_nome_113-4" data-name="Sfumatura senza nome 113" x1="943.64" y1="505.08" x2="951" y2="505.08" xlink:href="#Sfumatura_senza_nome_113"/>
    <linearGradient id="Sfumatura_senza_nome_113-5" data-name="Sfumatura senza nome 113" x1="970.31" y1="501.4" x2="979.28" y2="501.4" xlink:href="#Sfumatura_senza_nome_113"/>
    <linearGradient id="Sfumatura_senza_nome_113-6" data-name="Sfumatura senza nome 113" x1="970.31" y1="508.76" x2="979.28" y2="508.76" xlink:href="#Sfumatura_senza_nome_113"/>
    <linearGradient id="Sfumatura_senza_nome_113-7" data-name="Sfumatura senza nome 113" x1="982.83" y1="501.4" x2="1005" y2="501.4" xlink:href="#Sfumatura_senza_nome_113"/>
    <linearGradient id="Sfumatura_senza_nome_113-8" data-name="Sfumatura senza nome 113" x1="982.83" y1="508.76" x2="1005" y2="508.76" xlink:href="#Sfumatura_senza_nome_113"/>
    <linearGradient id="Sfumatura_senza_nome_11-4" data-name="Sfumatura senza nome 11" x1="903.54" y1="529.77" x2="1015.19" y2="529.77" xlink:href="#Sfumatura_senza_nome_11"/>
    <linearGradient id="Sfumatura_senza_nome_113-9" data-name="Sfumatura senza nome 113" x1="912.77" y1="529.77" x2="920.13" y2="529.77" xlink:href="#Sfumatura_senza_nome_113"/>
    <linearGradient id="Sfumatura_senza_nome_113-10" data-name="Sfumatura senza nome 113" x1="928.13" y1="529.77" x2="935.49" y2="529.77" xlink:href="#Sfumatura_senza_nome_113"/>
    <linearGradient id="Sfumatura_senza_nome_113-11" data-name="Sfumatura senza nome 113" x1="943.48" y1="529.77" x2="950.85" y2="529.77" xlink:href="#Sfumatura_senza_nome_113"/>
    <linearGradient id="Sfumatura_senza_nome_113-12" data-name="Sfumatura senza nome 113" x1="970.16" y1="526.09" x2="979.13" y2="526.09" xlink:href="#Sfumatura_senza_nome_113"/>
    <linearGradient id="Sfumatura_senza_nome_113-13" data-name="Sfumatura senza nome 113" x1="970.16" y1="533.45" x2="979.13" y2="533.45" xlink:href="#Sfumatura_senza_nome_113"/>
    <linearGradient id="Sfumatura_senza_nome_113-14" data-name="Sfumatura senza nome 113" x1="982.68" y1="526.09" x2="1004.85" y2="526.09" xlink:href="#Sfumatura_senza_nome_113"/>
    <linearGradient id="Sfumatura_senza_nome_113-15" data-name="Sfumatura senza nome 113" x1="982.68" y1="533.45" x2="1004.85" y2="533.45" xlink:href="#Sfumatura_senza_nome_113"/>
    <linearGradient id="Sfumatura_senza_nome_11-5" data-name="Sfumatura senza nome 11" x1="903.69" y1="554.45" x2="1015.34" y2="554.45" xlink:href="#Sfumatura_senza_nome_11"/>
    <linearGradient id="Sfumatura_senza_nome_113-16" data-name="Sfumatura senza nome 113" x1="912.92" y1="554.45" x2="920.28" y2="554.45" xlink:href="#Sfumatura_senza_nome_113"/>
    <linearGradient id="Sfumatura_senza_nome_113-17" data-name="Sfumatura senza nome 113" x1="928.28" y1="554.45" x2="935.64" y2="554.45" xlink:href="#Sfumatura_senza_nome_113"/>
    <linearGradient id="Sfumatura_senza_nome_113-18" data-name="Sfumatura senza nome 113" x1="943.64" y1="554.45" x2="951" y2="554.45" xlink:href="#Sfumatura_senza_nome_113"/>
    <linearGradient id="Sfumatura_senza_nome_113-19" data-name="Sfumatura senza nome 113" x1="970.31" y1="550.77" x2="979.28" y2="550.77" xlink:href="#Sfumatura_senza_nome_113"/>
    <linearGradient id="Sfumatura_senza_nome_113-20" data-name="Sfumatura senza nome 113" x1="970.31" y1="558.13" x2="979.28" y2="558.13" xlink:href="#Sfumatura_senza_nome_113"/>
    <linearGradient id="Sfumatura_senza_nome_113-21" data-name="Sfumatura senza nome 113" x1="982.83" y1="550.77" x2="1005" y2="550.77" xlink:href="#Sfumatura_senza_nome_113"/>
    <linearGradient id="Sfumatura_senza_nome_113-22" data-name="Sfumatura senza nome 113" x1="982.83" y1="558.13" x2="1005" y2="558.13" xlink:href="#Sfumatura_senza_nome_113"/>
    <linearGradient id="Sfumatura_senza_nome_113-23" data-name="Sfumatura senza nome 113" x1="917.19" y1="661.92" x2="1001.69" y2="661.92" xlink:href="#Sfumatura_senza_nome_113"/>
    <linearGradient id="Sfumatura_senza_nome_6-2" data-name="Sfumatura senza nome 6" x1="862.06" y1="-12491.99" x2="1057.79" y2="-12491.99" gradientTransform="translate(0 -11925.03) scale(1 -1)" xlink:href="#Sfumatura_senza_nome_6"/>
    <linearGradient id="Sfumatura_senza_nome_113-24" data-name="Sfumatura senza nome 113" x1="503.32" y1="344.08" x2="572.82" y2="344.08" xlink:href="#Sfumatura_senza_nome_113"/>
    <linearGradient id="Sfumatura_senza_nome_11-6" data-name="Sfumatura senza nome 11" x1="456.82" y1="427.74" x2="619.31" y2="427.74" xlink:href="#Sfumatura_senza_nome_11"/>
    <filter id="drop-shadow-78" x="442.32" y="328.98" width="197" height="202" filterUnits="userSpaceOnUse">
      <feOffset dx="2.57" dy="2.57"/>
      <feGaussianBlur result="blur" stdDeviation="5.5"/>
      <feFlood flood-color="#000" flood-opacity=".25"/>
      <feComposite in2="blur" operator="in"/>
      <feComposite in="SourceGraphic"/>
    </filter>
    <filter id="drop-shadow-79" x="499.32" y="304.98" width="83" height="83" filterUnits="userSpaceOnUse">
      <feOffset dx="2.57" dy="2.57"/>
      <feGaussianBlur result="blur-2" stdDeviation="5.5"/>
      <feFlood flood-color="#000" flood-opacity=".25"/>
      <feComposite in2="blur-2" operator="in"/>
      <feComposite in="SourceGraphic"/>
    </filter>
    <linearGradient id="Sfumatura_senza_nome_113-25" data-name="Sfumatura senza nome 113" x1="503.81" y1="735.97" x2="573.3" y2="735.97" xlink:href="#Sfumatura_senza_nome_113"/>
    <linearGradient id="Sfumatura_senza_nome_11-7" data-name="Sfumatura senza nome 11" x1="457.31" y1="819.63" x2="619.8" y2="819.63" xlink:href="#Sfumatura_senza_nome_11"/>
    <filter id="drop-shadow-80" x="443.32" y="720.98" width="196" height="202" filterUnits="userSpaceOnUse">
      <feOffset dx="2.57" dy="2.57"/>
      <feGaussianBlur result="blur-3" stdDeviation="5.5"/>
      <feFlood flood-color="#000" flood-opacity=".25"/>
      <feComposite in2="blur-3" operator="in"/>
      <feComposite in="SourceGraphic"/>
    </filter>
    <filter id="drop-shadow-81" x="499.32" y="696.98" width="84" height="83" filterUnits="userSpaceOnUse">
      <feOffset dx="2.57" dy="2.57"/>
      <feGaussianBlur result="blur-4" stdDeviation="5.5"/>
      <feFlood flood-color="#000" flood-opacity=".25"/>
      <feComposite in2="blur-4" operator="in"/>
      <feComposite in="SourceGraphic"/>
    </filter>
    <linearGradient id="Sfumatura_senza_nome_113-26" data-name="Sfumatura senza nome 113" x1="1348.93" y1="344.08" x2="1418.43" y2="344.08" xlink:href="#Sfumatura_senza_nome_113"/>
    <linearGradient id="Sfumatura_senza_nome_11-8" data-name="Sfumatura senza nome 11" x1="1302.43" y1="427.74" x2="1464.92" y2="427.74" xlink:href="#Sfumatura_senza_nome_11"/>
    <filter id="drop-shadow-82" x="1288.32" y="328.98" width="196" height="202" filterUnits="userSpaceOnUse">
      <feOffset dx="2.57" dy="2.57"/>
      <feGaussianBlur result="blur-5" stdDeviation="5.5"/>
      <feFlood flood-color="#000" flood-opacity=".25"/>
      <feComposite in2="blur-5" operator="in"/>
      <feComposite in="SourceGraphic"/>
    </filter>
    <filter id="drop-shadow-83" x="1344.32" y="304.98" width="84" height="83" filterUnits="userSpaceOnUse">
      <feOffset dx="2.57" dy="2.57"/>
      <feGaussianBlur result="blur-6" stdDeviation="5.5"/>
      <feFlood flood-color="#000" flood-opacity=".25"/>
      <feComposite in2="blur-6" operator="in"/>
      <feComposite in="SourceGraphic"/>
    </filter>
    <linearGradient id="Sfumatura_senza_nome_113-27" data-name="Sfumatura senza nome 113" x1="1348.93" y1="735.97" x2="1418.43" y2="735.97" xlink:href="#Sfumatura_senza_nome_113"/>
    <linearGradient id="Sfumatura_senza_nome_11-9" data-name="Sfumatura senza nome 11" x1="1302.43" y1="819.63" x2="1464.92" y2="819.63" xlink:href="#Sfumatura_senza_nome_11"/>
    <filter id="drop-shadow-84" x="1288.32" y="720.98" width="196" height="202" filterUnits="userSpaceOnUse">
      <feOffset dx="2.57" dy="2.57"/>
      <feGaussianBlur result="blur-7" stdDeviation="5.5"/>
      <feFlood flood-color="#000" flood-opacity=".25"/>
      <feComposite in2="blur-7" operator="in"/>
      <feComposite in="SourceGraphic"/>
    </filter>
    <filter id="drop-shadow-85" x="1344.32" y="696.98" width="84" height="83" filterUnits="userSpaceOnUse">
      <feOffset dx="2.57" dy="2.57"/>
      <feGaussianBlur result="blur-8" stdDeviation="5.5"/>
      <feFlood flood-color="#000" flood-opacity=".25"/>
      <feComposite in2="blur-8" operator="in"/>
      <feComposite in="SourceGraphic"/>
    </filter>
    <linearGradient id="Sfumatura_senza_nome_14" data-name="Sfumatura senza nome 14" x1="580.87" y1="515.76" x2="639.36" y2="515.76" gradientUnits="userSpaceOnUse">
      <stop offset="0" stop-color="#90e0ef"/>
      <stop offset="1" stop-color="#00b4d8"/>
    </linearGradient>
    <filter id="drop-shadow-86" x="575.84" y="477.49" width="71" height="78" filterUnits="userSpaceOnUse">
      <feOffset dx="1" dy="1"/>
      <feGaussianBlur result="blur-9" stdDeviation="2"/>
      <feFlood flood-color="#000" flood-opacity=".2"/>
      <feComposite in2="blur-9" operator="in"/>
      <feComposite in="SourceGraphic"/>
    </filter>
    <linearGradient id="Sfumatura_senza_nome_113-28" data-name="Sfumatura senza nome 113" x1="597.87" y1="507.88" x2="622.36" y2="507.88" xlink:href="#Sfumatura_senza_nome_113"/>
    <filter id="drop-shadow-87" x="592.84" y="484.49" width="37" height="48" filterUnits="userSpaceOnUse">
      <feOffset dx="1" dy="1"/>
      <feGaussianBlur result="blur-10" stdDeviation="2"/>
      <feFlood flood-color="#000" flood-opacity=".2"/>
      <feComposite in2="blur-10" operator="in"/>
      <feComposite in="SourceGraphic"/>
    </filter>
    <linearGradient id="Sfumatura_senza_nome_11-10" data-name="Sfumatura senza nome 11" x1="304.9" y1="938.92" x2="325.06" y2="938.92" xlink:href="#Sfumatura_senza_nome_11"/>
    <linearGradient id="Sfumatura_senza_nome_11-11" data-name="Sfumatura senza nome 11" x1="333.82" y1="923.24" x2="353.98" y2="923.24" xlink:href="#Sfumatura_senza_nome_11"/>
    <linearGradient id="Sfumatura_senza_nome_11-12" data-name="Sfumatura senza nome 11" x1="362.75" y1="947.76" x2="382.91" y2="947.76" xlink:href="#Sfumatura_senza_nome_11"/>
    <linearGradient id="Sfumatura_senza_nome_11-13" data-name="Sfumatura senza nome 11" x1="391.68" y1="960.51" x2="411.84" y2="960.51" xlink:href="#Sfumatura_senza_nome_11"/>
    <linearGradient id="Sfumatura_senza_nome_11-14" data-name="Sfumatura senza nome 11" x1="275.97" y1="971.67" x2="296.13" y2="971.67" xlink:href="#Sfumatura_senza_nome_11"/>
    <linearGradient id="Sfumatura_senza_nome_190-6" data-name="Sfumatura senza nome 190" x1="401.86" y1="1118.47" x2="778.15" y2="1118.47" gradientTransform="translate(0 2137.24) scale(1 -1)" xlink:href="#Sfumatura_senza_nome_190"/>
    <linearGradient id="Sfumatura_senza_nome_11-15" data-name="Sfumatura senza nome 11" x1="1537.1" y1="322.81" x2="1602.15" y2="322.81" xlink:href="#Sfumatura_senza_nome_11"/>
    <linearGradient id="Sfumatura_senza_nome_190-7" data-name="Sfumatura senza nome 190" x1="-2867.78" y1="268.12" x2="-2487.49" y2="268.12" gradientTransform="translate(-1338.61) rotate(-180) scale(1 -1)" xlink:href="#Sfumatura_senza_nome_190"/>
    <linearGradient id="Sfumatura_senza_nome_11-16" data-name="Sfumatura senza nome 11" x1="-5734.3" y1="-11047.56" x2="-5673.68" y2="-11047.56" gradientTransform="translate(5703.35 -8367.63) scale(.73 -.84)" xlink:href="#Sfumatura_senza_nome_11"/>
    <linearGradient id="Sfumatura_senza_nome_11-17" data-name="Sfumatura senza nome 11" x1="-7740.49" y1="-5574.65" x2="-7630.64" y2="-5574.65" gradientTransform="translate(-3122.9 -4670.32) rotate(-90) scale(.73 -.84)" xlink:href="#Sfumatura_senza_nome_11"/>
    <linearGradient id="Sfumatura_senza_nome_11-18" data-name="Sfumatura senza nome 11" x1="-2596.7" y1="-13157.31" x2="-2486.85" y2="-13157.31" gradientTransform="translate(3604.16 -10139.95) scale(.8 -.84)" xlink:href="#Sfumatura_senza_nome_11"/>
    <linearGradient id="Sfumatura_senza_nome_11-19" data-name="Sfumatura senza nome 11" x1="-24937.47" y1="-2123.96" x2="-24827.62" y2="-2123.96" gradientTransform="translate(-208.26 -4812.09) rotate(-90) scale(.23 -.84)" xlink:href="#Sfumatura_senza_nome_11"/>
    <linearGradient id="Sfumatura_senza_nome_11-20" data-name="Sfumatura senza nome 11" x1="-12190.37" y1="-54.03" x2="-12080.52" y2="-54.03" gradientTransform="translate(1494.19 -3401.08) rotate(-90) scale(.36 -.84)" xlink:href="#Sfumatura_senza_nome_11"/>
    <linearGradient id="Sfumatura_senza_nome_11-21" data-name="Sfumatura senza nome 11" x1="98" y1="-14332.47" x2="158.62" y2="-14332.47" gradientTransform="translate(1526.78 -11156.08) scale(.51 -.84)" xlink:href="#Sfumatura_senza_nome_11"/>
    <linearGradient id="Sfumatura_senza_nome_11-22" data-name="Sfumatura senza nome 11" x1="-10652.73" y1="-9202.11" x2="-10592.11" y2="-9202.11" gradientTransform="translate(7025.35 -6819.64) scale(.51 -.84)" xlink:href="#Sfumatura_senza_nome_11"/>
    <linearGradient id="Sfumatura_senza_nome_11-23" data-name="Sfumatura senza nome 11" x1="-9332.68" y1="-2327.08" x2="-9272.06" y2="-2327.08" gradientTransform="translate(-318.09 -4113.49) rotate(-90) scale(.54 -.84)" xlink:href="#Sfumatura_senza_nome_11"/>
    <linearGradient id="Sfumatura_senza_nome_11-24" data-name="Sfumatura senza nome 11" x1="-3713.71" y1="-14247.71" x2="-3653.1" y2="-14247.71" gradientTransform="translate(2692.93 -11023.85) scale(.29 -.84)" xlink:href="#Sfumatura_senza_nome_11"/>
    <linearGradient id="Sfumatura_senza_nome_11-25" data-name="Sfumatura senza nome 11" x1="941.49" y1="-14523.75" x2="1002.11" y2="-14523.75" gradientTransform="translate(1096.56 -11205.37) scale(.51 -.84)" xlink:href="#Sfumatura_senza_nome_11"/>
    <linearGradient id="Sfumatura_senza_nome_11-26" data-name="Sfumatura senza nome 11" x1="-18464.04" y1="-10707.41" x2="-18403.43" y2="-10707.41" gradientTransform="translate(6919.43 -8019.5) scale(.29 -.84)" xlink:href="#Sfumatura_senza_nome_11"/>
    <linearGradient id="Sfumatura_senza_nome_11-27" data-name="Sfumatura senza nome 11" x1="1501.12" y1="-12865.27" x2="1535.04" y2="-12865.27" gradientTransform="translate(0 -11925.03) scale(1 -1)" xlink:href="#Sfumatura_senza_nome_11"/>
    <linearGradient id="Sfumatura_senza_nome_11-28" data-name="Sfumatura senza nome 11" x1="1546.62" y1="-12811.28" x2="1580.54" y2="-12811.28" gradientTransform="translate(0 -11925.03) scale(1 -1)" xlink:href="#Sfumatura_senza_nome_11"/>
    <linearGradient id="Sfumatura_senza_nome_11-29" data-name="Sfumatura senza nome 11" x1="1546.18" y1="-12919.6" x2="1580.1" y2="-12919.6" gradientTransform="translate(0 -11925.03) scale(1 -1)" xlink:href="#Sfumatura_senza_nome_11"/>
    <linearGradient id="Sfumatura_senza_nome_11-30" data-name="Sfumatura senza nome 11" x1="1605.15" y1="-12919.6" x2="1639.07" y2="-12919.6" gradientTransform="translate(0 -11925.03) scale(1 -1)" xlink:href="#Sfumatura_senza_nome_11"/>
    <linearGradient id="Sfumatura_senza_nome_11-31" data-name="Sfumatura senza nome 11" x1="1628.23" y1="-12865.27" x2="1662.15" y2="-12865.27" gradientTransform="translate(0 -11925.03) scale(1 -1)" xlink:href="#Sfumatura_senza_nome_11"/>
    <linearGradient id="Sfumatura_senza_nome_11-32" data-name="Sfumatura senza nome 11" x1="1605.15" y1="-12808.3" x2="1639.07" y2="-12808.3" gradientTransform="translate(0 -11925.03) scale(1 -1)" xlink:href="#Sfumatura_senza_nome_11"/>
    <linearGradient id="Sfumatura_senza_nome_11-33" data-name="Sfumatura senza nome 11" x1="1564.54" y1="-12871.51" x2="1618.67" y2="-12871.51" gradientTransform="translate(0 -11925.03) scale(1 -1)" xlink:href="#Sfumatura_senza_nome_11"/>
    <linearGradient id="Sfumatura_senza_nome_190-8" data-name="Sfumatura senza nome 190" x1="-3088.46" y1="984.51" x2="-2712.17" y2="984.51" gradientTransform="translate(-1561.29 2003.28) rotate(-180)" xlink:href="#Sfumatura_senza_nome_190"/>
    <linearGradient id="Sfumatura_senza_nome_14-2" data-name="Sfumatura senza nome 14" y1="737.28" y2="737.28" xlink:href="#Sfumatura_senza_nome_14"/>
    <filter id="drop-shadow-88" x="575.84" y="698.49" width="71" height="79" filterUnits="userSpaceOnUse">
      <feOffset dx="1" dy="1"/>
      <feGaussianBlur result="blur-11" stdDeviation="2"/>
      <feFlood flood-color="#000" flood-opacity=".2"/>
      <feComposite in2="blur-11" operator="in"/>
      <feComposite in="SourceGraphic"/>
    </filter>
    <linearGradient id="Sfumatura_senza_nome_113-29" data-name="Sfumatura senza nome 113" x1="597.87" y1="729.41" x2="622.36" y2="729.41" xlink:href="#Sfumatura_senza_nome_113"/>
    <filter id="drop-shadow-89" x="592.84" y="706.49" width="37" height="48" filterUnits="userSpaceOnUse">
      <feOffset dx="1" dy="1"/>
      <feGaussianBlur result="blur-12" stdDeviation="2"/>
      <feFlood flood-color="#000" flood-opacity=".2"/>
      <feComposite in2="blur-12" operator="in"/>
      <feComposite in="SourceGraphic"/>
    </filter>
    <linearGradient id="Sfumatura_senza_nome_14-3" data-name="Sfumatura senza nome 14" x1="1280.64" y1="515.06" x2="1339.13" y2="515.06" xlink:href="#Sfumatura_senza_nome_14"/>
    <filter id="drop-shadow-90" x="1274.84" y="476.49" width="71" height="79" filterUnits="userSpaceOnUse">
      <feOffset dx="1" dy="1"/>
      <feGaussianBlur result="blur-13" stdDeviation="2"/>
      <feFlood flood-color="#000" flood-opacity=".2"/>
      <feComposite in2="blur-13" operator="in"/>
      <feComposite in="SourceGraphic"/>
    </filter>
    <linearGradient id="Sfumatura_senza_nome_113-30" data-name="Sfumatura senza nome 113" x1="1297.64" y1="507.19" x2="1322.13" y2="507.19" xlink:href="#Sfumatura_senza_nome_113"/>
    <filter id="drop-shadow-91" x="1291.84" y="484.49" width="38" height="48" filterUnits="userSpaceOnUse">
      <feOffset dx="1" dy="1"/>
      <feGaussianBlur result="blur-14" stdDeviation="2"/>
      <feFlood flood-color="#000" flood-opacity=".2"/>
      <feComposite in2="blur-14" operator="in"/>
      <feComposite in="SourceGraphic"/>
    </filter>
    <linearGradient id="Sfumatura_senza_nome_14-4" data-name="Sfumatura senza nome 14" x1="1280.64" y1="736.58" x2="1339.13" y2="736.58" xlink:href="#Sfumatura_senza_nome_14"/>
    <filter id="drop-shadow-92" x="1274.84" y="698.49" width="71" height="78" filterUnits="userSpaceOnUse">
      <feOffset dx="1" dy="1"/>
      <feGaussianBlur result="blur-15" stdDeviation="2"/>
      <feFlood flood-color="#000" flood-opacity=".2"/>
      <feComposite in2="blur-15" operator="in"/>
      <feComposite in="SourceGraphic"/>
    </filter>
    <linearGradient id="Sfumatura_senza_nome_113-31" data-name="Sfumatura senza nome 113" x1="1297.64" y1="728.71" x2="1322.13" y2="728.71" xlink:href="#Sfumatura_senza_nome_113"/>
    <filter id="drop-shadow-93" x="1291.84" y="705.49" width="38" height="48" filterUnits="userSpaceOnUse">
      <feOffset dx="1" dy="1"/>
      <feGaussianBlur result="blur-16" stdDeviation="2"/>
      <feFlood flood-color="#000" flood-opacity=".2"/>
      <feComposite in2="blur-16" operator="in"/>
      <feComposite in="SourceGraphic"/>
    </filter>
  </defs>
  <rect class="cls-19" x="138.29" y="125.18" width="1642.14" height="1000.52" rx="130.01" ry="130.01"/>
  <path class="cls-13" d="M620.59,538.38c12.26,9.38,27.19,18.83,45,26.75,1.03.46,2.06.91,3.09,1.35,17.41,7.43,35.86,12.15,54.65,14.42l14.86,1.79c17.29,2.08,34.78,2,52.03-.37,2.55-.36,4.86-.72,6.9-1.06"/>
  <path class="cls-11" d="M632.61,706.52c9.43-6.23,21.01-13.92,32.98-19.24,2.2-.98,4.88-2.11,7.82-3.3,17.7-7.17,36.27-12,55.22-14.44,9.49-1.22,19.05-1.84,28.6-1.84s19.45.64,29.11,1.91c4.78.63,8.72,1.19,10.78,1.54"/>
  <path class="cls-10" d="M1122.88,580.88c2.38.4,5.12.82,8.19,1.23,16.48,2.18,33.18,2.19,49.68.2l16.91-2.04c18.47-2.22,36.58-6.88,53.68-14.19,1.02-.43,2.04-.88,3.06-1.33,36.77-16.36,61.33-39.23,75.26-54.51"/>
  <line class="cls-12" x1="1199.09" y1="670.46" x2="1199.08" y2="670.46"/>
  <path class="cls-9" d="M1329.67,741.41c-13.93-15.29-38.49-38.15-75.26-54.51-2.33-1.03-5.18-2.29-8.32-3.64-17.78-7.65-36.58-12.69-55.81-14.97h0c-14.97-1.77-30.09-1.86-45.08-.25-9.74,1.05-19,2.17-22.32,2.73"/>
  <g>
    <g>
      <rect class="cls-17" x="956.95" y="498.31" width="4.84" height="84.67" rx="1.43" ry="1.43"/>
      <rect class="cls-28" x="956.95" y="540.64" width="4.84" height="84.67" rx="1.43" ry="1.43" transform="translate(1542.34 -376.39) rotate(90)"/>
      <circle class="cls-84" cx="959.37" cy="582.98" r="4.38"/>
    </g>
    <g>
      <rect class="cls-27" x="903.69" y="494.41" width="111.65" height="21.35" rx="5.47" ry="5.47"/>
      <circle class="cls-78" cx="916.6" cy="505.08" r="3.68"/>
      <circle class="cls-77" cx="931.96" cy="505.08" r="3.68"/>
      <circle class="cls-76" cx="947.32" cy="505.08" r="3.68"/>
      <rect class="cls-79" x="970.31" y="499.44" width="8.97" height="3.92" rx="1.96" ry="1.96"/>
      <rect class="cls-80" x="970.31" y="506.8" width="8.97" height="3.92" rx="1.96" ry="1.96"/>
      <rect class="cls-82" x="982.83" y="499.44" width="22.17" height="3.92" rx="1.96" ry="1.96"/>
      <rect class="cls-81" x="982.83" y="506.8" width="22.17" height="3.92" rx="1.96" ry="1.96"/>
    </g>
    <g>
      <rect class="cls-26" x="903.54" y="519.09" width="111.65" height="21.35" rx="5.47" ry="5.47"/>
      <circle class="cls-83" cx="916.45" cy="529.77" r="3.68"/>
      <circle class="cls-39" cx="931.81" cy="529.77" r="3.68"/>
      <circle class="cls-37" cx="947.16" cy="529.77" r="3.68"/>
      <rect class="cls-38" x="970.16" y="524.12" width="8.97" height="3.92" rx="1.96" ry="1.96"/>
      <rect class="cls-34" x="970.16" y="531.49" width="8.97" height="3.92" rx="1.96" ry="1.96"/>
      <rect class="cls-42" x="982.68" y="524.12" width="22.17" height="3.92" rx="1.96" ry="1.96"/>
      <rect class="cls-40" x="982.68" y="531.49" width="22.17" height="3.92" rx="1.96" ry="1.96"/>
    </g>
    <g>
      <rect class="cls-25" x="903.69" y="543.78" width="111.65" height="21.35" rx="5.47" ry="5.47"/>
      <circle class="cls-41" cx="916.6" cy="554.45" r="3.68"/>
      <circle class="cls-43" cx="931.96" cy="554.45" r="3.68"/>
      <circle class="cls-35" cx="947.32" cy="554.45" r="3.68"/>
      <rect class="cls-36" x="970.31" y="548.81" width="8.97" height="3.92" rx="1.96" ry="1.96"/>
      <rect class="cls-51" x="970.31" y="556.17" width="8.97" height="3.92" rx="1.96" ry="1.96"/>
      <rect class="cls-49" x="982.83" y="548.81" width="22.17" height="3.92" rx="1.96" ry="1.96"/>
      <rect class="cls-46" x="982.83" y="556.17" width="22.17" height="3.92" rx="1.96" ry="1.96"/>
    </g>
    <polygon class="cls-44" points="990.38 696.91 929.69 697.33 917.19 626.51 1001.69 627.14 990.38 696.91"/>
    <path class="cls-29" d="M1026.08,589.79c.07,3.98-3.34,7.56-7.32,7.69-1.05.08-2.74,0-3.81.04-5.07.07-10.14.1-15.22.21-32.82.74-65.66,1.55-98.49.91-3.95-.11-7.57-3.12-8.31-7.01-.33-1.28-.08-4.59-.1-5.95.52-24.95.72-51.18.46-76.09-.08-4.92-.23-17.76-.31-22.83-.11-4.68,3.93-8.68,8.6-8.65,36.96-.55,76.68-.77,113.67-.71h1.9s.95.01.95.01h.24c4.75-.02,8.98,3.77,9.33,8.54.08,8.65-.15,19.07-.27,27.74-.49,24.93-1.32,51.14-1.31,76.09h0ZM1025.73,589.79c0-24.96-.81-51.16-1.31-76.09-.18-8.24-.25-18.4-.3-26.63.14-3.23-2.55-5.98-5.78-5.94h-1.19c-37.48.09-77.63-.15-115.09-.69-3.72-.32-7.08,2.54-7.14,6.33l-.21,15.22c-.03,3.81-.16,11.42-.16,15.22-.2,23.89.08,49.23.63,73.13.29,3.05,3.08,5.59,6.14,5.56,1.85,0,5.19-.07,7.09-.08,35.52-.57,71.02.78,106.53,1.23,1.88-.04,3.79.23,5.61-.3,2.99-.9,5.19-3.81,5.17-6.95h0Z"/>
    <path class="cls-85" d="M865.82,437.02c-2.08,0-3.77,1.69-3.77,3.77v252.36c0,2.08,1.69,3.77,3.77,3.77h63.9v-56.79c0-2.08-1.69-3.77-3.77-3.77-2.58.37-5.63-.74-5.59-3.77,0-2.08,1.69-3.77,3.77-3.77h71.84c2.08,0,3.77,1.69,3.77,3.77.03,3.04-3.01,4.12-5.59,3.77-2.08,0-3.77,1.69-3.77,3.77v56.79h63.64c2.08,0,3.77-1.69,3.77-3.77v-252.36c0-2.08-1.68-3.77-3.77-3.77h0-188.21ZM1031.62,594.38c0,4.51-3.67,8.19-8.19,8.19h-126.43c-4.51,0-8.19-3.67-8.19-8.19v-112.51c0-4.51,3.67-8.18,8.19-8.18h126.43c4.52,0,8.19,3.67,8.19,8.18v112.51Z"/>
    <path class="cls-29" d="M1124.94,692.2v-1.32c.02-24.49,0-49.57-.13-74.04-.14-17.68-.14-41.25-.38-58.84.01-.8-.1-1.64-.46-2.36-.8-1.8-2.76-2.89-4.69-2.77-20.4.2-41.1.43-61.48.81v.38c14.1.27,28.2.45,42.31.61,4.69.07,13.97.13,18.51.19h.66s.33,0,.33,0c1.76.04,2.82,1.52,2.71,3.14-.08,9.83-.23,27.72-.28,37.68-.18,31.33-.27,63.9-.23,95.19v1.98c.15,1.27-.89,2.47-2.15,2.49h-1.13c-41.14.14-87,.83-128.14.97-42-.15-147.62-1.38-189.38-1.27-.5.02-1.04-.04-1.45-.34-.66-.42-.87-1.22-.83-1.95-.1-42.67-.37-85.97-.74-128.61l-.05-5.3c.02-.78-.12-1.53.17-2.25.23-.6.68-1.12,1.26-1.44.44-.25.96-.34,1.46-.34h.66c20.23-.22,40.77-.46,60.99-.78v-.35c-14.14-.24-28.28-.38-42.43-.57-4.69-.04-14.02-.18-18.56-.2-1.03-.04-2.13,0-3.04.53-.99.52-1.78,1.39-2.21,2.43-.42.93-.36,2.01-.37,2.99-.32,33.56-.54,67.22-.69,100.76-.04,6.88-.08,25.2-.11,31.82v1.33c-.2,3.51,2.71,6.14,5.94,5.98,41.81.19,147.33-1.19,189.36-1.27,41.65.12,87.94.88,129.58.97,2.87-.12,5.15-2.75,4.99-5.58v-.66Z"/>
  </g>
  <g>
    <path class="cls-48" d="M570.87,312.95h-65.59c-1.08,0-1.96.87-1.96,1.95v58.37c0,1.08.88,1.95,1.96,1.95h65.59c1.08,0,1.95-.87,1.95-1.95v-58.37c0-1.08-.87-1.95-1.95-1.95Z"/>
    <path class="cls-24" d="M616.19,343.72h-37.87v29.18c0,4.11-3.34,7.46-7.45,7.46h-65.59c-4.11,0-7.46-3.35-7.46-7.46v-29.18h-37.87c-1.72,0-3.13,1.4-3.13,3.13v161.78c0,1.73,1.41,3.13,3.13,3.13h53.04v-47.14c0-.81-.3-1.53-.81-2.08-.03-.05-.07-.09-.11-.13-.56-.57-1.35-.92-2.21-.92h-1.51c-.81,0-1.54-.3-2.09-.82-.07-.06-.14-.12-.22-.2-.04-.04-.08-.08-.1-.12-.45-.54-.72-1.23-.72-1.99h.01c0-1.73,1.4-3.12,3.12-3.12h59.64c.76,0,1.45.26,1.98.71.05.02.09.06.13.11.63.57,1.02,1.39,1.02,2.3,0,1.73-1.41,3.13-3.13,3.13h-1.51c-1.73,0-3.13,1.4-3.13,3.13v47.14h20.44c-1.85-9.65-1.43-19.97-2.33-26.59-.13-.98.63-1.85,1.62-1.85h36.23v-136.47c0-1.73-1.4-3.13-3.12-3.13Z"/>
    <path class="cls-18" d="M456.06,393.16c-16.13.47-34.57.67-50.63.88-1.64-.14-2.56.62-2.7,2.04,0,0,0,1.07,0,1.07l.02,4.4c.29,32.09.2,64.74-.39,96.85,0,0-.12,8.81-.12,8.81-.05,1.4-.15,2.67,1.04,3.5.51.36,1.05.51,1.76.48,12.47.13,24.95.11,37.42.04,23.48-.07,46.96-.57,70.44-.72l-1.22,1.22c-.11-11.49-.2-31.94-.26-43.21,0,0-.02-3.09-.02-3.09,0-.33.02-.97-.04-1.26-.06-.36-.27-.61-.47-.88.01.03.03.06.05.09.03.03.05.06.02.02-.28-.31-.67-.49-1.09-.51-.41,0-1.24,0-1.65,0-3.67-.05-6.07-4.16-3.68-7.48.86-1.24,2.68-1.97,4.09-1.85,0,0,1.08,0,1.08,0h8.64c14.23.01,33.35.05,47.52.2,0,0,2.21.02,2.21.02,1.02.04,2.06.47,2.8,1.18l-.41-.26c.25.12.49.31.67.51l-.11-.12c2.67,2.57.88,7.39-2.84,7.53-.62.04-1.84-.05-2.2.04-.88.17-1.53,1-1.52,1.89v.48s-.01.95-.01.95c-.06,9.74-.47,35.71-.62,45.77l-.58-.58,20.53.43v.29l-20.53.43h-.57s0-.58,0-.58c-.17-10.77-.56-36.28-.63-46.72-.23-2.17,1.23-4.35,3.41-4.79,1.74-.37,3.19.48,4.09-1.21.34-.74.1-1.64-.49-2.15.09.14.25.25.41.29-.48-.3-.91-.71-1.51-.69,0,0-2.11.02-2.11.02-7.7.09-22.38.15-30.24.18,0,0-17.28.03-17.28.03h-8.64c-.68,0-1.6-.04-1.8.04-1.12.21-1.62,1.75-.83,2.56,0,0,.25.36.25.36-.03-.1-.12-.21-.19-.28,0,0,.02.02.02.02l.09.08c.59.54,1.55.35,2.28.39,2.61-.02,4.31,1.57,4.79,3.77.18,1.21.02,3.67.06,4.91,0,0-.03,6.17-.03,6.17-.02,7.92-.16,28.88-.22,37.04v1.23s-1.22,0-1.22,0c-35.22-.29-70.44-1.03-105.66-.69,0,0-2.2.02-2.2.02-.76.05-1.72-.15-2.41-.65-1.08-.69-1.66-2.1-1.6-3.33,0,0-.02-1.1-.02-1.1-.07-5.5-.3-20.7-.37-26.42-.52-27.85-.28-55.79-.12-83.65-.28-3.1,1.67-5.45,4.91-5.18,10.8.17,22.24.23,33.02.48,0,0,17.61.4,17.61.4v.29h0Z"/>
    <path class="cls-18" d="M619.31,392.87c16.76-.97,33.54-1.3,50.32-1.1,0,0,.81.01.81.01,2.45-.11,4.6,2.13,4.39,4.56,0,0-.01.41-.01.41l-.05,1.62c-.2,6.32-.48,13.2-.55,19.48-.23,17.32.8,34.63.9,51.95.14,10.75.27,21.7.12,32.47-.02,2.19-.03,4.27-.09,6.55-.05,2.38-2.29,4.42-4.63,4.28,0,0-1.62-.03-1.62-.03-10.76-.26-21.72-.56-32.47-1.16v-.29c8.66-.49,17.32-.76,25.97-1.01l6.49-.15,1.62-.03c.98.04,1.79-.8,1.78-1.72-.21-12.63-.14-26.36.05-38.9.1-17.31,1.13-34.63.9-51.95-.06-6.27-.36-13.18-.55-19.48,0,0-.05-1.62-.05-1.62-.02-.62-.02-.92-.16-1.24-.24-.66-.86-1.11-1.5-1.23-.78-.07-2.19.03-3,.02-7.56.09-15.17,0-22.73-.14-8.66-.16-17.32-.46-25.97-.99v-.29h0Z"/>
    <path class="cls-5" d="M562.83,352.47c0,1.36-1.11,2.47-2.47,2.47h-8.87c-1.36,0-2.47,1.11-2.47,2.47v8.87c0,1.36-1.11,2.47-2.47,2.47h-16.77c-1.36,0-2.47-1.11-2.47-2.47v-8.87c0-1.36-1.11-2.47-2.47-2.47h-8.87c-1.36,0-2.47-1.11-2.47-2.47v-16.77c0-1.36,1.11-2.47,2.47-2.47h8.87c1.36,0,2.47-1.11,2.47-2.47v-8.87c0-1.36,1.11-2.47,2.47-2.47h16.77c1.36,0,2.47,1.11,2.47,2.47v8.87c0,1.36,1.11,2.47,2.47,2.47h8.87c1.36,0,2.47,1.11,2.47,2.47v16.77Z"/>
  </g>
  <path class="cls-45" d="M571.35,704.84h-65.59c-1.08,0-1.96.87-1.96,1.95v58.37c0,1.08.88,1.95,1.96,1.95h65.59c1.08,0,1.95-.87,1.95-1.95v-58.37c0-1.08-.87-1.95-1.95-1.95Z"/>
  <path class="cls-23" d="M611.39,769.12c-.65.81-1.89.81-2.55,0-6.27-7.83-16.82-13.67-22.38-26.74-.92-2.15-1.62-4.43-2.17-6.77h-5.48v29.18c0,4.11-3.34,7.46-7.46,7.46h-65.58c-4.12,0-7.46-3.35-7.46-7.46v-29.18h-37.87c-1.73,0-3.13,1.4-3.13,3.13v161.79c0,1.72,1.4,3.12,3.13,3.12h53.04v-47.14c-.01-1.73-1.41-3.13-3.13-3.13h-1.51c-1.73,0-3.13-1.4-3.13-3.13,0-.86.35-1.64.92-2.2.56-.57,1.35-.92,2.21-.92h59.64c1.72,0,3.12,1.4,3.12,3.12s-1.4,3.13-3.12,3.13h-1.52c-1.72,0-3.12,1.4-3.12,3.13v47.14h52.83c1.73,0,3.13-1.4,3.13-3.12v-139.9c-3.08,2.88-6.05,5.55-8.41,8.49Z"/>
  <path class="cls-18" d="M619.79,784.76c16.73-.3,33.74-.5,50.49-.65,0,0,.55,0,.55,0h.28c.55.01,1.17.11,1.68.37,1.47.65,2.4,2.29,2.3,3.88,0,0,0,.55,0,.55.41,25.61.24,57.55.43,83.41.13,8.47-.05,17.82-.02,26.34,0,0,0,1.1,0,1.1,0,.4.02.64-.03,1.22-.11,1.03-.59,2.01-1.33,2.71-1.02,1.04-2.55,1.32-3.94,1.22-35.49-.06-70.97-.7-106.46-.74h-.51s0-.51,0-.51c.09-15.24.04-30.75-.01-46.01,0,0,0-1,0-1-.16-1.95,1.49-3.85,3.48-3.88.67-.03,1.35.01,1.96-.03,3.5-.59,2.74-5.54-.82-5.11-15.76.12-42.51.32-58.01.46,0,0-1,0-1,0-.28,0-.46.03-.68.1-.85.26-1.46,1.11-1.44,1.98l.03,1.08h-1.12s0,0,0,0l1.09-1.09c.08,1.4,1.15,2.16,2.61,2,3.05-.33,5.43,1.72,5.22,4.82-.01.61.02,2.13.02,2.75.07,10.18.17,34.87.21,45.3-35.22.16-73.86.2-109.24.12-2.14.13-4.25-1.35-4.75-3.47-.25-.72-.11-1.81-.15-2.57.09-35.06.27-70.62.61-105.66,0,0,.04-4.4.04-4.4v-1.12c.05-1.87,1.57-3.57,3.44-3.77.49-.06.84-.03,1.2-.03l2.2.02,4.4.04c5.19,0,38,.51,44.02.57,0,0,0,.29,0,.29l-35.22.47c-2.16.06-10.93.09-13.21.14,0,0-2.2.02-2.2.02-.81,0-1.25.01-1.77.29-.72.4-1.2,1.18-1.2,2v1.08c.36,36.97.59,74.44.66,111.44-.01.83.65,1.6,1.5,1.65,0,0,.15,0,.15,0h.28c34.98-.13,73.08,0,107.86.12,0,0-1.38,1.38-1.38,1.38.04-9.81.14-34.47.2-43.93-.01-.63.02-2.14.01-2.75.18-1.31-.61-2.55-1.98-2.56-.99-.02-2.17.1-3.15-.35-1.54-.64-2.6-2.25-2.57-3.91l.02-1.1s1.08,0,1.08,0c0,0-1.09,1.09-1.09,1.09-.04-2.29,2.05-4.29,4.31-4.18,0,0,1,0,1,0,15.4.13,42.36.35,58.01.46,4.9-.39,5.85,6.59.94,7.35-.72.05-1.37,0-2.04.03-1.12.02-2.15.86-2.41,1.95-.14.95-.08,2.81-.09,3.87-.05,14.59-.08,29.44,0,44.01,0,0-.51-.51-.51-.51,35.49-.04,70.97-.69,106.46-.74h.55c.18,0,.39,0,.47-.01.88-.04,1.66-.8,1.73-1.67-.06-9.23-.03-19.22-.01-28.41-.09-25.94.28-57.72.43-83.41.05-1.16-.05-2.39-1.29-2.94-.52-.28-1.22-.23-1.8-.24-1.22-.03-5.27-.03-6.59-.06-14.57-.15-29.36-.34-43.9-.6,0,0,0-.29,0-.29h0Z"/>
  <path class="cls-7" d="M563.31,744.36c0,1.36-1.11,2.47-2.47,2.47h-8.87c-1.36,0-2.47,1.11-2.47,2.47v8.87c0,1.36-1.11,2.47-2.47,2.47h-16.77c-1.36,0-2.47-1.11-2.47-2.47v-8.87c0-1.36-1.11-2.47-2.47-2.47h-8.87c-1.36,0-2.47-1.11-2.47-2.47v-16.77c0-1.36,1.11-2.47,2.47-2.47h8.87c1.36,0,2.47-1.11,2.47-2.47v-8.87c0-1.36,1.11-2.47,2.47-2.47h16.77c1.36,0,2.47,1.11,2.47,2.47v8.87c0,1.36,1.11,2.47,2.47,2.47h8.87c1.36,0,2.47,1.11,2.47,2.47v16.77Z"/>
  <g>
    <path class="cls-47" d="M1416.47,312.95h-65.59c-1.08,0-1.96.87-1.96,1.95v58.37c0,1.08.88,1.95,1.96,1.95h65.59c1.08,0,1.95-.87,1.95-1.95v-58.37c0-1.08-.87-1.95-1.95-1.95Z"/>
    <path class="cls-22" d="M1461.79,343.72h-37.86v29.18c0,4.11-3.34,7.46-7.46,7.46h-65.59c-4.11,0-7.46-3.35-7.46-7.46v-29.18h-37.87c-1.72,0-3.13,1.4-3.13,3.13v161.79c0,1.72,1.4,3.13,3.13,3.13h53.04v-47.14c0-1.73-1.41-3.13-3.13-3.13h-1.51c-1.73,0-3.13-1.4-3.13-3.13h0c0-1.73,1.4-3.13,3.13-3.13h59.64c1.73,0,3.13,1.4,3.13,3.13s-1.4,3.13-3.13,3.13h-1.51c-1.73,0-3.13,1.4-3.13,3.13v47.14h52.83c1.73,0,3.13-1.4,3.13-3.13v-161.79c0-1.72-1.4-3.13-3.13-3.13Z"/>
    <path class="cls-18" d="M1464.92,392.87c16.73-.3,33.74-.5,50.49-.65,0,0,.55,0,.55,0h.28c.55.01,1.17.11,1.68.37,1.47.65,2.4,2.29,2.3,3.88,0,0,0,.55,0,.55.41,25.61.24,57.55.43,83.41.13,8.47-.05,17.82-.02,26.34,0,0,0,1.1,0,1.1,0,.4.02.64-.03,1.22-.11,1.03-.59,2.01-1.33,2.71-1.02,1.04-2.55,1.32-3.94,1.22-35.49-.06-70.97-.7-106.46-.74h-.51s0-.51,0-.51c.09-15.24.04-30.75-.01-46.01,0,0,0-1,0-1-.16-1.95,1.49-3.85,3.48-3.88.67-.03,1.35.01,1.96-.03,3.5-.59,2.74-5.54-.82-5.11-15.76.12-42.51.32-58.01.46,0,0-1,0-1,0-.28,0-.46.03-.68.1-.85.26-1.46,1.11-1.44,1.98l.03,1.08h-1.12s0,0,0,0l1.09-1.09c.08,1.4,1.15,2.16,2.61,2,3.05-.33,5.43,1.72,5.22,4.82-.01.61.02,2.13.02,2.75.07,10.18.17,34.87.21,45.3-35.22.16-73.86.2-109.24.12-2.14.13-4.25-1.35-4.75-3.47-.25-.72-.11-1.81-.15-2.57.09-35.06.27-70.62.61-105.66,0,0,.04-4.4.04-4.4v-1.12c.04-1.39.89-2.73,2.12-3.36.71-.43,1.77-.47,2.52-.44,0,0,2.2.02,2.2.02,2.6.05,10.46.09,13.21.14,0,0,35.22.47,35.22.47v.29l-35.22.47c-2.16.06-10.93.09-13.21.14,0,0-2.2.02-2.2.02-.81,0-1.25.01-1.77.29-.72.4-1.2,1.18-1.2,2,0,0,0,1.08,0,1.08.35,36.97.58,74.44.65,111.44-.01.83.65,1.6,1.5,1.65,0,0,.15,0,.15,0h.28c34.98-.13,73.08,0,107.86.12,0,0-1.38,1.38-1.38,1.38.04-9.81.14-34.47.2-43.93-.01-.63.02-2.14.01-2.75.18-1.31-.6-2.56-1.98-2.56-.99-.02-2.17.1-3.15-.35-1.54-.64-2.6-2.25-2.57-3.91l.02-1.1s1.08,0,1.08,0l-1.09,1.09c-.04-2.29,2.05-4.29,4.31-4.18,0,0,1,0,1,0,15.4.13,42.36.35,58.01.46,4.9-.39,5.85,6.59.94,7.35-.72.05-1.37,0-2.04.02-1.12.02-2.15.86-2.41,1.96-.14.95-.08,2.81-.09,3.87-.05,14.59-.08,29.44,0,44.01,0,0-.51-.51-.51-.51,35.49-.04,70.97-.69,106.46-.74,0,0,.55,0,.55,0,.18,0,.39,0,.47,0,.88-.04,1.66-.8,1.73-1.67-.06-9.23-.03-19.22-.01-28.41-.09-25.94.28-57.72.43-83.41.05-1.16-.05-2.39-1.29-2.94-.52-.28-1.22-.23-1.8-.24-1.22-.03-5.27-.03-6.59-.06-14.57-.15-29.36-.34-43.9-.6,0,0,0-.29,0-.29h0Z"/>
    <path class="cls-6" d="M1408.44,352.47c0,1.36-1.11,2.47-2.47,2.47h-8.87c-1.36,0-2.47,1.11-2.47,2.47v8.87c0,1.36-1.11,2.47-2.47,2.47h-16.77c-1.36,0-2.47-1.11-2.47-2.47v-8.87c0-1.36-1.11-2.47-2.47-2.47h-8.87c-1.36,0-2.47-1.11-2.47-2.47v-16.77c0-1.36,1.11-2.47,2.47-2.47h8.87c1.36,0,2.47-1.11,2.47-2.47v-8.87c0-1.36,1.11-2.47,2.47-2.47h16.77c1.36,0,2.47,1.11,2.47,2.47v8.87c0,1.36,1.11,2.47,2.47,2.47h8.87c1.36,0,2.47,1.11,2.47,2.47v16.77Z"/>
  </g>
  <g>
    <path class="cls-50" d="M1416.47,704.84h-65.59c-1.08,0-1.96.87-1.96,1.95v58.37c0,1.08.88,1.95,1.96,1.95h65.59c1.08,0,1.95-.87,1.95-1.95v-58.37c0-1.08-.87-1.95-1.95-1.95Z"/>
    <path class="cls-21" d="M1461.79,735.61h-37.86v29.18c0,4.11-3.34,7.46-7.46,7.46h-65.59c-4.11,0-7.46-3.35-7.46-7.46v-29.18h-37.87c-1.72,0-3.13,1.4-3.13,3.13v161.79c0,1.72,1.4,3.13,3.13,3.13h53.04v-47.14c0-1.73-1.41-3.13-3.13-3.13h-1.51c-1.73,0-3.13-1.4-3.13-3.13h0c0-1.73,1.4-3.13,3.13-3.13h59.64c1.73,0,3.13,1.4,3.13,3.13s-1.4,3.13-3.13,3.13h-1.51c-1.73,0-3.13,1.4-3.13,3.13v47.14h52.83c1.73,0,3.13-1.4,3.13-3.13v-161.79c0-1.72-1.4-3.13-3.13-3.13Z"/>
    <path class="cls-18" d="M1464.92,784.76c16.73-.3,33.74-.5,50.49-.65,0,0,.55,0,.55,0h.28c.55.01,1.17.11,1.68.37,1.47.65,2.4,2.29,2.3,3.88,0,0,0,.55,0,.55.41,25.61.24,57.55.43,83.41.13,8.47-.05,17.82-.02,26.34,0,0,0,1.1,0,1.1,0,.4.02.64-.03,1.22-.11,1.03-.59,2.01-1.33,2.71-1.02,1.04-2.55,1.32-3.94,1.22-35.49-.06-70.97-.7-106.46-.74h-.51s0-.51,0-.51c.09-15.24.04-30.75-.01-46.01,0,0,0-1,0-1-.16-1.95,1.49-3.85,3.48-3.88.67-.03,1.35.01,1.96-.03,3.5-.59,2.74-5.54-.82-5.11-15.76.12-42.51.32-58.01.46,0,0-1,0-1,0-.28,0-.46.03-.68.1-.85.26-1.46,1.11-1.44,1.98l.03,1.08h-1.12s0,0,0,0l1.09-1.09c.08,1.4,1.15,2.16,2.61,2,3.05-.33,5.43,1.72,5.22,4.82-.01.61.02,2.13.02,2.75.07,10.18.17,34.87.21,45.3-35.22.16-73.86.2-109.24.12-2.14.13-4.25-1.35-4.75-3.47-.25-.72-.11-1.81-.15-2.57.09-35.06.27-70.62.61-105.66,0,0,.04-4.4.04-4.4v-1.12c.05-1.87,1.57-3.57,3.44-3.77.49-.06.84-.03,1.2-.03l2.2.02,4.4.04c5.19,0,38,.51,44.02.57,0,0,0,.29,0,.29l-35.22.47c-2.16.06-10.93.09-13.21.14,0,0-2.2.02-2.2.02-.81,0-1.25.01-1.77.29-.72.4-1.2,1.18-1.2,2v1.08c.36,36.97.59,74.44.66,111.44-.01.83.65,1.6,1.5,1.65,0,0,.15,0,.15,0h.28c34.98-.13,73.08,0,107.86.12,0,0-1.38,1.38-1.38,1.38.04-9.81.14-34.47.2-43.93-.01-.63.02-2.14.01-2.75.18-1.31-.61-2.55-1.98-2.56-.99-.02-2.17.1-3.15-.35-1.54-.64-2.6-2.25-2.57-3.91l.02-1.1s1.08,0,1.08,0l-1.09,1.09c-.04-2.29,2.05-4.29,4.31-4.18,0,0,1,0,1,0,15.4.13,42.36.35,58.01.46,4.9-.39,5.85,6.59.94,7.35-.72.05-1.37,0-2.04.03-1.12.02-2.15.86-2.41,1.95-.14.95-.08,2.81-.09,3.87-.05,14.59-.08,29.44,0,44.01,0,0-.51-.51-.51-.51,35.49-.04,70.97-.69,106.46-.74h.55c.18,0,.39,0,.47-.01.88-.04,1.66-.8,1.73-1.67-.06-9.23-.03-19.22-.01-28.41-.09-25.94.28-57.72.43-83.41.05-1.16-.05-2.39-1.29-2.94-.52-.28-1.22-.23-1.8-.24-1.22-.03-5.27-.03-6.59-.06-14.57-.15-29.36-.34-43.9-.6,0,0,0-.29,0-.29h0Z"/>
    <path class="cls-4" d="M1408.44,744.36c0,1.36-1.11,2.47-2.47,2.47h-8.87c-1.36,0-2.47,1.11-2.47,2.47v8.87c0,1.36-1.11,2.47-2.47,2.47h-16.77c-1.36,0-2.47-1.11-2.47-2.47v-8.87c0-1.36-1.11-2.47-2.47-2.47h-8.87c-1.36,0-2.47-1.11-2.47-2.47v-16.77c0-1.36,1.11-2.47,2.47-2.47h8.87c1.36,0,2.47-1.11,2.47-2.47v-8.87c0-1.36,1.11-2.47,2.47-2.47h16.77c1.36,0,2.47,1.11,2.47,2.47v8.87c0,1.36,1.11,2.47,2.47,2.47h8.87c1.36,0,2.47,1.11,2.47,2.47v16.77Z"/>
  </g>
  <path class="cls-8" d="M638.77,485.17c-.89,6.62-.47,16.94-2.33,26.59-.6,3.15-1.45,6.24-2.67,9.1-3.29,7.73-8.32,12.93-13.18,17.52-3.36,3.15-6.64,6.02-9.2,9.21-.65.82-1.89.82-2.55,0-6.27-7.82-16.82-13.67-22.38-26.73-1.22-2.86-2.06-5.95-2.67-9.1-1.85-9.65-1.43-19.97-2.33-26.59-.13-.98.63-1.85,1.62-1.85h54.08c.99,0,1.75.87,1.61,1.85Z"/>
  <path class="cls-31" d="M621.14,502.87h-1.58c.03-1.49.05-3.61-.04-4.56-.04-.41-.11-.81-.21-1.19-.98-3.87-4.83-6.53-8.83-6.68-4.65-.18-9.31,3.1-9.77,7.87-.09.95-.07,3.07-.04,4.56h-1.58c-.67,0-1.22.55-1.22,1.22v20.03c0,.68.55,1.22,1.22,1.22h22.05c.68,0,1.22-.54,1.22-1.22v-20.03c0-.67-.54-1.22-1.22-1.22ZM602.88,501.92c-.01-1.02-.01-2.11.05-2.7.35-3.91,3.53-6.7,7.19-6.76,3.45-.06,6.93,3.07,7.27,6.76.05.59.06,1.67.05,2.7-.01.49-.4.88-.89.88h-12.79c-.48,0-.87-.39-.88-.88ZM611.7,517.65h-3.16l.81-3.23c-.58-.29-.98-.89-.96-1.59.01-.4.16-.78.42-1.07.29-.35.71-.58,1.19-.61.57-.03,1.09.21,1.43.61.26.3.41.69.41,1.12,0,.67-.39,1.26-.96,1.54l.82,3.23Z"/>
  <g>
    <path class="cls-20" d="M1311.61,692.73h-8.49l-1.8,4.17h-1.94l7.15-16.26h1.64l7.15,16.26h-1.91l-1.8-4.17ZM1310.94,691.16l-3.57-8.32-3.57,8.32h7.15Z"/>
    <path class="cls-20" d="M1319.33,696.35c-.81-.48-1.44-1.15-1.88-2.02-.44-.87-.66-1.89-.66-3.05s.23-2.19.68-3.08c.45-.88,1.09-1.57,1.91-2.06.82-.49,1.79-.74,2.89-.74.75,0,1.49.13,2.21.4s1.31.63,1.75,1.07l-.62,1.38c-1.06-.86-2.14-1.29-3.23-1.29-1.15,0-2.05.38-2.7,1.13-.65.75-.97,1.81-.97,3.18s.32,2.4.97,3.14c.65.74,1.54,1.11,2.7,1.11,1.09,0,2.17-.43,3.23-1.29l.62,1.38c-.48.45-1.08.8-1.8,1.06-.72.26-1.47.39-2.24.39-1.11,0-2.07-.24-2.88-.71Z"/>
    <path class="cls-20" d="M1330.38,696.35c-.81-.48-1.44-1.15-1.88-2.02-.44-.87-.66-1.89-.66-3.05s.23-2.19.68-3.08c.45-.88,1.09-1.57,1.91-2.06.82-.49,1.79-.74,2.89-.74.75,0,1.49.13,2.21.4.72.27,1.31.63,1.75,1.07l-.62,1.38c-1.06-.86-2.14-1.29-3.23-1.29-1.15,0-2.05.38-2.7,1.13-.65.75-.97,1.81-.97,3.18s.32,2.4.97,3.14c.65.74,1.54,1.11,2.7,1.11,1.09,0,2.17-.43,3.23-1.29l.62,1.38c-.48.45-1.08.8-1.8,1.06-.72.26-1.47.39-2.24.39-1.11,0-2.07-.24-2.88-.71Z"/>
    <path class="cls-20" d="M1348.96,691.58h-8.21c.06,1.31.42,2.29,1.06,2.96.65.67,1.56,1,2.74,1,1.31,0,2.51-.45,3.6-1.34l.62,1.36c-.49.46-1.12.83-1.89,1.09-.77.27-1.55.4-2.35.4-1.75,0-3.13-.51-4.14-1.54-1.01-1.03-1.51-2.45-1.51-4.27,0-1.15.22-2.17.67-3.06.45-.88,1.07-1.57,1.88-2.06.81-.49,1.73-.74,2.76-.74,1.49,0,2.66.49,3.5,1.46.85.98,1.27,2.32,1.27,4.02v.69ZM1341.85,687.77c-.59.61-.94,1.48-1.05,2.61h6.53c-.03-1.14-.32-2.01-.85-2.62-.54-.61-1.29-.91-2.26-.91s-1.77.31-2.36.92Z"/>
    <path class="cls-20" d="M1351.01,695.61l.62-1.38c.6.48,1.21.82,1.83,1.03.62.21,1.33.31,2.11.31.83,0,1.46-.14,1.9-.43.44-.28.66-.7.66-1.23,0-.45-.15-.8-.44-1.06-.29-.26-.78-.47-1.45-.62l-1.89-.44c-.95-.21-1.68-.58-2.19-1.11s-.76-1.17-.76-1.94c0-1,.39-1.81,1.18-2.42.78-.61,1.83-.92,3.14-.92.78,0,1.53.13,2.24.38.71.25,1.3.62,1.78,1.1l-.62,1.36c-1.03-.88-2.16-1.31-3.39-1.31-.78,0-1.4.15-1.83.45s-.66.72-.66,1.26c0,.45.13.8.4,1.07.27.27.7.47,1.3.61l1.91.46c1.05.25,1.82.62,2.33,1.12.51.5.76,1.15.76,1.95,0,.98-.4,1.77-1.19,2.35-.79.58-1.87.88-3.24.88-1.89,0-3.39-.48-4.5-1.45Z"/>
    <path class="cls-20" d="M1362.08,695.61l.62-1.38c.6.48,1.21.82,1.83,1.03.62.21,1.33.31,2.11.31.83,0,1.46-.14,1.9-.43s.66-.7.66-1.23c0-.45-.15-.8-.44-1.06-.29-.26-.78-.47-1.45-.62l-1.89-.44c-.95-.21-1.68-.58-2.19-1.11s-.76-1.17-.76-1.94c0-1,.39-1.81,1.18-2.42.78-.61,1.83-.92,3.14-.92.78,0,1.53.13,2.24.38s1.3.62,1.78,1.1l-.62,1.36c-1.03-.88-2.16-1.31-3.39-1.31-.78,0-1.39.15-1.83.45-.44.3-.66.72-.66,1.26,0,.45.13.8.4,1.07.27.27.7.47,1.3.61l1.91.46c1.05.25,1.82.62,2.33,1.12.51.5.76,1.15.76,1.95,0,.98-.4,1.77-1.19,2.35-.79.58-1.87.88-3.24.88-1.89,0-3.39-.48-4.5-1.45Z"/>
    <path class="cls-20" d="M1383,696.09c-1.14-.67-2.01-1.63-2.62-2.88s-.91-2.73-.91-4.44.3-3.18.91-4.43c.61-1.25,1.48-2.2,2.62-2.87s2.48-1,4.01-1c1.12,0,2.15.17,3.09.52s1.75.86,2.44,1.53l-.71,1.45c-.78-.66-1.55-1.14-2.31-1.43-.75-.29-1.58-.44-2.49-.44-1.78,0-3.16.58-4.14,1.74-.98,1.16-1.46,2.8-1.46,4.92s.49,3.79,1.46,4.95c.98,1.16,2.36,1.74,4.14,1.74.91,0,1.74-.15,2.49-.44.75-.29,1.52-.77,2.31-1.43l.71,1.45c-.69.68-1.51,1.19-2.44,1.53-.94.35-1.97.52-3.09.52-1.54,0-2.87-.33-4.01-1Z"/>
    <path class="cls-20" d="M1397.03,696.35c-.81-.48-1.43-1.16-1.87-2.04-.44-.88-.66-1.91-.66-3.08s.22-2.19.66-3.08c.44-.88,1.06-1.56,1.87-2.04s1.74-.71,2.8-.71,2,.24,2.81.71c.81.48,1.44,1.16,1.88,2.04.44.88.66,1.91.66,3.08s-.22,2.2-.66,3.08c-.44.88-1.06,1.56-1.88,2.04-.81.48-1.75.71-2.81.71s-1.99-.24-2.8-.71ZM1402.38,694.43c.59-.73.89-1.79.89-3.19s-.3-2.42-.9-3.17-1.45-1.12-2.54-1.12-1.94.37-2.54,1.12-.9,1.8-.9,3.17.3,2.44.89,3.18c.59.74,1.44,1.11,2.55,1.11s1.96-.36,2.55-1.09Z"/>
    <path class="cls-20" d="M1417.65,689.85v7.06h-1.87v-6.94c0-1.04-.2-1.81-.61-2.28-.41-.48-1.06-.71-1.95-.71-1.03,0-1.85.32-2.47.95-.61.63-.92,1.48-.92,2.56v6.43h-1.87v-11.23h1.84v1.84c.37-.69.88-1.22,1.54-1.58.66-.36,1.41-.54,2.26-.54,2.69,0,4.04,1.48,4.04,4.45Z"/>
    <path class="cls-20" d="M1427.01,695.5l-.09,1.48c-.35.06-.74.09-1.15.09-1.35,0-2.37-.35-3.06-1.06s-1.03-1.69-1.03-2.95v-5.9h-2.19v-1.48h2.19v-3.41h1.87v3.41h3.18v1.48h-3.18v5.76c0,1.77.81,2.65,2.44,2.65.34,0,.68-.02,1.01-.07Z"/>
    <path class="cls-20" d="M1435.27,687.01l-1.22.12c-1.15.11-1.99.47-2.5,1.08-.52.62-.77,1.38-.77,2.28v6.41h-1.87v-11.23h1.82v1.96c.63-1.31,1.87-2.04,3.71-2.19l.67-.05.16,1.61Z"/>
    <path class="cls-20" d="M1438.67,696.35c-.81-.48-1.43-1.16-1.87-2.04-.44-.88-.66-1.91-.66-3.08s.22-2.19.66-3.08c.44-.88,1.06-1.56,1.87-2.04.81-.48,1.74-.71,2.8-.71s2,.24,2.81.71,1.44,1.16,1.88,2.04c.44.88.66,1.91.66,3.08s-.22,2.2-.66,3.08-1.06,1.56-1.88,2.04c-.81.48-1.75.71-2.81.71s-1.99-.24-2.8-.71ZM1444.02,694.43c.59-.73.89-1.79.89-3.19s-.3-2.42-.9-3.17-1.45-1.12-2.54-1.12-1.94.37-2.54,1.12c-.6.75-.9,1.8-.9,3.17s.3,2.44.89,3.18c.59.74,1.44,1.11,2.55,1.11s1.96-.36,2.55-1.09Z"/>
    <path class="cls-20" d="M1449.61,680.65h1.87v16.26h-1.87v-16.26Z"/>
  </g>
  <g>
    <path class="cls-20" d="M443.16,536.47h-8.49l-1.8,4.17h-1.94l7.15-16.26h1.64l7.15,16.26h-1.91l-1.8-4.17ZM442.49,534.9l-3.57-8.32-3.57,8.32h7.15Z"/>
    <path class="cls-20" d="M450.88,540.09c-.81-.48-1.44-1.15-1.88-2.02-.44-.87-.66-1.89-.66-3.05s.23-2.19.68-3.08c.45-.88,1.09-1.57,1.91-2.06.82-.49,1.79-.74,2.89-.74.75,0,1.49.13,2.21.4s1.31.63,1.75,1.07l-.62,1.38c-1.06-.86-2.14-1.29-3.23-1.29-1.15,0-2.05.38-2.7,1.13-.65.75-.97,1.81-.97,3.18s.32,2.4.97,3.14c.65.74,1.54,1.11,2.7,1.11,1.09,0,2.17-.43,3.23-1.29l.62,1.38c-.48.45-1.08.8-1.8,1.06-.72.26-1.47.39-2.24.39-1.11,0-2.07-.24-2.88-.71Z"/>
    <path class="cls-20" d="M461.92,540.09c-.81-.48-1.44-1.15-1.88-2.02-.44-.87-.66-1.89-.66-3.05s.23-2.19.68-3.08c.45-.88,1.09-1.57,1.91-2.06.82-.49,1.79-.74,2.89-.74.75,0,1.49.13,2.21.4.72.27,1.31.63,1.75,1.07l-.62,1.38c-1.06-.86-2.14-1.29-3.23-1.29-1.15,0-2.05.38-2.7,1.13-.65.75-.97,1.81-.97,3.18s.32,2.4.97,3.14c.65.74,1.54,1.11,2.7,1.11,1.09,0,2.17-.43,3.23-1.29l.62,1.38c-.48.45-1.08.8-1.8,1.06-.72.26-1.47.39-2.24.39-1.11,0-2.07-.24-2.88-.71Z"/>
    <path class="cls-20" d="M480.51,535.32h-8.21c.06,1.31.42,2.29,1.06,2.96.65.67,1.56,1,2.74,1,1.31,0,2.51-.45,3.6-1.34l.62,1.36c-.49.46-1.12.83-1.89,1.09-.77.27-1.55.4-2.35.4-1.75,0-3.13-.51-4.14-1.54-1.01-1.03-1.51-2.45-1.51-4.27,0-1.15.22-2.17.67-3.06.45-.88,1.07-1.57,1.88-2.06.81-.49,1.73-.74,2.76-.74,1.49,0,2.66.49,3.5,1.46.85.98,1.27,2.32,1.27,4.02v.69ZM473.4,531.51c-.59.61-.94,1.48-1.05,2.61h6.53c-.03-1.14-.32-2.01-.85-2.62-.54-.61-1.29-.91-2.26-.91s-1.77.31-2.36.92Z"/>
    <path class="cls-20" d="M482.56,539.35l.62-1.38c.6.48,1.21.82,1.83,1.03.62.21,1.33.31,2.11.31.83,0,1.46-.14,1.9-.43.44-.28.66-.7.66-1.23,0-.45-.15-.8-.44-1.06-.29-.26-.78-.47-1.45-.62l-1.89-.44c-.95-.21-1.68-.58-2.19-1.11s-.76-1.17-.76-1.94c0-1,.39-1.81,1.18-2.42.78-.61,1.83-.92,3.14-.92.78,0,1.53.13,2.24.38.71.25,1.3.62,1.78,1.1l-.62,1.36c-1.03-.88-2.16-1.31-3.39-1.31-.78,0-1.4.15-1.83.45s-.66.72-.66,1.26c0,.45.13.8.4,1.07.27.27.7.47,1.3.61l1.91.46c1.05.25,1.82.62,2.33,1.12.51.5.76,1.15.76,1.95,0,.98-.4,1.77-1.19,2.35-.79.58-1.87.88-3.24.88-1.89,0-3.39-.48-4.5-1.45Z"/>
    <path class="cls-20" d="M493.63,539.35l.62-1.38c.6.48,1.21.82,1.83,1.03.62.21,1.33.31,2.11.31.83,0,1.46-.14,1.9-.43s.66-.7.66-1.23c0-.45-.15-.8-.44-1.06-.29-.26-.78-.47-1.45-.62l-1.89-.44c-.95-.21-1.68-.58-2.19-1.11s-.76-1.17-.76-1.94c0-1,.39-1.81,1.18-2.42.78-.61,1.83-.92,3.14-.92.78,0,1.53.13,2.24.38s1.3.62,1.78,1.1l-.62,1.36c-1.03-.88-2.16-1.31-3.39-1.31-.78,0-1.39.15-1.83.45-.44.3-.66.72-.66,1.26,0,.45.13.8.4,1.07.27.27.7.47,1.3.61l1.91.46c1.05.25,1.82.62,2.33,1.12.51.5.76,1.15.76,1.95,0,.98-.4,1.77-1.19,2.35-.79.58-1.87.88-3.24.88-1.89,0-3.39-.48-4.5-1.45Z"/>
    <path class="cls-20" d="M514.54,539.82c-1.14-.67-2.01-1.63-2.62-2.88s-.91-2.73-.91-4.44.3-3.18.91-4.43c.61-1.25,1.48-2.2,2.62-2.87s2.48-1,4.01-1c1.12,0,2.15.17,3.09.52s1.75.86,2.44,1.53l-.71,1.45c-.78-.66-1.55-1.14-2.31-1.43-.75-.29-1.58-.44-2.49-.44-1.78,0-3.16.58-4.14,1.74-.98,1.16-1.46,2.8-1.46,4.92s.49,3.79,1.46,4.95c.98,1.16,2.36,1.74,4.14,1.74.91,0,1.74-.15,2.49-.44.75-.29,1.52-.77,2.31-1.43l.71,1.45c-.69.68-1.51,1.19-2.44,1.53-.94.35-1.97.52-3.09.52-1.54,0-2.87-.33-4.01-1Z"/>
    <path class="cls-20" d="M528.57,540.09c-.81-.48-1.43-1.16-1.87-2.04-.44-.88-.66-1.91-.66-3.08s.22-2.19.66-3.08c.44-.88,1.06-1.56,1.87-2.04s1.74-.71,2.8-.71,2,.24,2.81.71c.81.48,1.44,1.16,1.88,2.04.44.88.66,1.91.66,3.08s-.22,2.2-.66,3.08c-.44.88-1.06,1.56-1.88,2.04-.81.48-1.75.71-2.81.71s-1.99-.24-2.8-.71ZM533.92,538.16c.59-.73.89-1.79.89-3.19s-.3-2.42-.9-3.17-1.45-1.12-2.54-1.12-1.94.37-2.54,1.12-.9,1.8-.9,3.17.3,2.44.89,3.18c.59.74,1.44,1.11,2.55,1.11s1.96-.36,2.55-1.09Z"/>
    <path class="cls-20" d="M549.2,533.59v7.06h-1.87v-6.94c0-1.04-.2-1.81-.61-2.28-.41-.48-1.06-.71-1.95-.71-1.03,0-1.85.32-2.47.95-.61.63-.92,1.48-.92,2.56v6.43h-1.87v-11.23h1.84v1.84c.37-.69.88-1.22,1.54-1.58.66-.36,1.41-.54,2.26-.54,2.69,0,4.04,1.48,4.04,4.45Z"/>
    <path class="cls-20" d="M558.56,539.24l-.09,1.48c-.35.06-.74.09-1.15.09-1.35,0-2.37-.35-3.06-1.06s-1.03-1.69-1.03-2.95v-5.9h-2.19v-1.48h2.19v-3.41h1.87v3.41h3.18v1.48h-3.18v5.76c0,1.77.81,2.65,2.44,2.65.34,0,.68-.02,1.01-.07Z"/>
    <path class="cls-20" d="M566.82,530.75l-1.22.12c-1.15.11-1.99.47-2.5,1.08-.52.62-.77,1.38-.77,2.28v6.41h-1.87v-11.23h1.82v1.96c.63-1.31,1.87-2.04,3.71-2.19l.67-.05.16,1.61Z"/>
    <path class="cls-20" d="M570.22,540.09c-.81-.48-1.43-1.16-1.87-2.04-.44-.88-.66-1.91-.66-3.08s.22-2.19.66-3.08c.44-.88,1.06-1.56,1.87-2.04.81-.48,1.74-.71,2.8-.71s2,.24,2.81.71,1.44,1.16,1.88,2.04c.44.88.66,1.91.66,3.08s-.22,2.2-.66,3.08-1.06,1.56-1.88,2.04c-.81.48-1.75.71-2.81.71s-1.99-.24-2.8-.71ZM575.57,538.16c.59-.73.89-1.79.89-3.19s-.3-2.42-.9-3.17-1.45-1.12-2.54-1.12-1.94.37-2.54,1.12c-.6.75-.9,1.8-.9,3.17s.3,2.44.89,3.18c.59.74,1.44,1.11,2.55,1.11s1.96-.36,2.55-1.09Z"/>
    <path class="cls-20" d="M581.16,524.39h1.87v16.26h-1.87v-16.26Z"/>
  </g>
  <g>
    <rect class="cls-53" x="304.9" y="891.73" width="20.16" height="94.37" rx="2.15" ry="2.15"/>
    <rect class="cls-56" x="333.82" y="860.36" width="20.16" height="125.74" rx="2.01" ry="2.01"/>
    <rect class="cls-55" x="362.75" y="909.42" width="20.16" height="76.69" rx="2.13" ry="2.13"/>
    <rect class="cls-57" x="391.68" y="934.91" width="20.16" height="51.19" rx="2.5" ry="2.5"/>
    <rect class="cls-61" x="275.97" y="957.23" width="20.16" height="28.88" rx="2.43" ry="2.43"/>
  </g>
  <path class="cls-14" d="M402.52,996.61l26.94,31.57c6.75,7.91,16.62,12.46,27.01,12.46h321.69"/>
  <g>
    <path class="cls-20" d="M459.4,1006.26h15.49v2.45h-12.62v8.64h11.9v2.45h-11.9v11.51h-2.88v-25.05Z"/>
    <path class="cls-20" d="M492.91,1023.11h-12.65c.09,2.01.64,3.54,1.63,4.57s2.4,1.55,4.23,1.55c2.01,0,3.86-.69,5.54-2.06l.96,2.1c-.76.71-1.73,1.27-2.91,1.69-1.19.41-2.39.62-3.62.62-2.7,0-4.83-.79-6.38-2.38s-2.33-3.78-2.33-6.58c0-1.78.34-3.35,1.03-4.71.69-1.36,1.65-2.42,2.9-3.18,1.24-.76,2.66-1.14,4.25-1.14,2.3,0,4.1.75,5.4,2.26,1.3,1.5,1.95,3.57,1.95,6.2v1.07ZM481.95,1017.24c-.91.95-1.45,2.29-1.62,4.02h10.06c-.05-1.75-.49-3.1-1.31-4.03-.83-.94-1.99-1.4-3.48-1.4s-2.73.47-3.64,1.42Z"/>
    <path class="cls-20" d="M512.49,1006.26v25.05h-2.88v-3.16c-.52,1.09-1.29,1.93-2.29,2.52-1.01.59-2.19.89-3.54.89-1.52,0-2.86-.38-4.02-1.14-1.16-.76-2.06-1.82-2.7-3.18-.64-1.36-.96-2.94-.96-4.74s.32-3.34.96-4.69,1.54-2.39,2.7-3.13c1.16-.73,2.5-1.1,4.02-1.1,1.35,0,2.53.3,3.54.89,1.01.59,1.77,1.43,2.29,2.52v-10.73h2.88ZM508.24,1027.46c.91-1.15,1.37-2.78,1.37-4.89s-.46-3.73-1.37-4.87c-.91-1.14-2.21-1.71-3.89-1.71s-2.99.57-3.93,1.71c-.94,1.14-1.4,2.74-1.4,4.8s.47,3.75,1.4,4.92c.94,1.17,2.24,1.76,3.93,1.76s2.98-.57,3.89-1.72Z"/>
    <path class="cls-20" d="M532.32,1023.11h-12.65c.09,2.01.64,3.54,1.63,4.57s2.4,1.55,4.23,1.55c2.01,0,3.86-.69,5.54-2.06l.96,2.1c-.76.71-1.73,1.27-2.91,1.69-1.19.41-2.39.62-3.62.62-2.7,0-4.83-.79-6.38-2.38-1.55-1.59-2.33-3.78-2.33-6.58,0-1.78.34-3.35,1.03-4.71.69-1.36,1.65-2.42,2.9-3.18,1.24-.76,2.66-1.14,4.25-1.14,2.3,0,4.1.75,5.4,2.26,1.3,1.5,1.95,3.57,1.95,6.2v1.07ZM521.36,1017.24c-.91.95-1.45,2.29-1.62,4.02h10.06c-.05-1.75-.49-3.1-1.31-4.03-.83-.94-1.99-1.4-3.48-1.4s-2.73.47-3.64,1.42Z"/>
    <path class="cls-20" d="M546.36,1016.07l-1.88.18c-1.78.17-3.06.72-3.86,1.67-.79.95-1.19,2.12-1.19,3.52v9.88h-2.88v-17.31h2.81v3.02c.97-2.01,2.88-3.14,5.72-3.38l1.03-.07.25,2.49Z"/>
    <path class="cls-20" d="M560.91,1015.27c1.08,1.13,1.62,2.84,1.62,5.13v10.91h-2.81v-2.95c-.45,1.02-1.14,1.81-2.06,2.36s-1.99.83-3.2.83c-1.11,0-2.14-.23-3.07-.68-.94-.45-1.68-1.08-2.22-1.88-.55-.81-.82-1.69-.82-2.67,0-1.3.33-2.32,1-3.04.66-.72,1.75-1.24,3.27-1.56,1.52-.32,3.62-.48,6.33-.48h.78v-1.17c0-1.45-.3-2.49-.89-3.15-.59-.65-1.55-.98-2.88-.98-1.99,0-3.97.62-5.94,1.85l-.96-2.1c.9-.64,1.98-1.16,3.25-1.55,1.27-.39,2.49-.59,3.68-.59,2.2,0,3.84.56,4.92,1.69ZM558.35,1027.85c.91-.96,1.37-2.2,1.37-3.71v-1.03h-.64c-2.09,0-3.67.09-4.76.27-1.09.18-1.87.47-2.33.89-.46.41-.69,1.02-.69,1.83,0,.92.34,1.69,1.01,2.29.68.6,1.52.91,2.54.91,1.42,0,2.59-.48,3.5-1.44Z"/>
    <path class="cls-20" d="M576.95,1029.15l-.14,2.27c-.54.09-1.14.14-1.78.14-2.08,0-3.65-.54-4.71-1.63-1.05-1.09-1.58-2.61-1.58-4.55v-9.1h-3.38v-2.27h3.38v-5.26h2.88v5.26h4.9v2.27h-4.9v8.88c0,2.72,1.26,4.09,3.77,4.09.52,0,1.04-.04,1.56-.11Z"/>
    <path class="cls-20" d="M594.37,1023.11h-12.65c.09,2.01.64,3.54,1.63,4.57s2.4,1.55,4.23,1.55c2.01,0,3.86-.69,5.54-2.06l.96,2.1c-.76.71-1.73,1.27-2.91,1.69-1.19.41-2.39.62-3.62.62-2.7,0-4.83-.79-6.38-2.38-1.55-1.59-2.33-3.78-2.33-6.58,0-1.78.34-3.35,1.03-4.71s1.65-2.42,2.9-3.18c1.24-.76,2.66-1.14,4.25-1.14,2.3,0,4.1.75,5.4,2.26,1.3,1.5,1.95,3.57,1.95,6.2v1.07ZM583.4,1017.24c-.91.95-1.45,2.29-1.62,4.02h10.06c-.05-1.75-.49-3.1-1.31-4.03-.83-.94-1.99-1.4-3.48-1.4s-2.73.47-3.64,1.42Z"/>
    <path class="cls-20" d="M613.95,1006.26v25.05h-2.88v-3.16c-.52,1.09-1.29,1.93-2.29,2.52-1.01.59-2.19.89-3.54.89-1.52,0-2.85-.38-4.02-1.14-1.16-.76-2.06-1.82-2.7-3.18-.64-1.36-.96-2.94-.96-4.74s.32-3.34.96-4.69,1.54-2.39,2.7-3.13c1.16-.73,2.5-1.1,4.02-1.1,1.35,0,2.53.3,3.54.89,1.01.59,1.77,1.43,2.29,2.52v-10.73h2.88ZM609.7,1027.46c.91-1.15,1.37-2.78,1.37-4.89s-.46-3.73-1.37-4.87c-.91-1.14-2.21-1.71-3.89-1.71s-2.99.57-3.93,1.71c-.94,1.14-1.4,2.74-1.4,4.8s.47,3.75,1.4,4.92c.94,1.17,2.24,1.76,3.93,1.76s2.98-.57,3.89-1.72Z"/>
    <path class="cls-20" d="M645.25,1024.88h-13.08l-2.77,6.43h-2.99l11.02-25.05h2.52l11.02,25.05h-2.95l-2.77-6.43ZM644.22,1022.47l-5.51-12.83-5.51,12.83h11.02Z"/>
    <path class="cls-20" d="M669.21,1020.44v10.87h-2.88v-10.7c0-1.61-.31-2.78-.94-3.52-.63-.73-1.63-1.1-3-1.1-1.59,0-2.86.49-3.8,1.46-.95.97-1.42,2.29-1.42,3.94v9.92h-2.88v-17.31h2.84v2.84c.57-1.07,1.36-1.88,2.38-2.43,1.02-.56,2.18-.84,3.48-.84,4.15,0,6.22,2.29,6.22,6.86Z"/>
    <path class="cls-20" d="M686.42,1015.27c1.08,1.13,1.62,2.84,1.62,5.13v10.91h-2.81v-2.95c-.45,1.02-1.14,1.81-2.06,2.36-.92.56-1.99.83-3.2.83-1.11,0-2.14-.23-3.07-.68-.94-.45-1.68-1.08-2.22-1.88s-.82-1.69-.82-2.67c0-1.3.33-2.32,1-3.04.66-.72,1.75-1.24,3.27-1.56,1.52-.32,3.62-.48,6.33-.48h.78v-1.17c0-1.45-.3-2.49-.89-3.15-.59-.65-1.55-.98-2.88-.98-1.99,0-3.97.62-5.93,1.85l-.96-2.1c.9-.64,1.98-1.16,3.25-1.55,1.27-.39,2.49-.59,3.68-.59,2.2,0,3.84.56,4.92,1.69ZM683.86,1027.85c.91-.96,1.37-2.2,1.37-3.71v-1.03h-.64c-2.08,0-3.67.09-4.76.27-1.09.18-1.87.47-2.33.89-.46.41-.69,1.02-.69,1.83,0,.92.34,1.69,1.01,2.29.68.6,1.52.91,2.54.91,1.42,0,2.59-.48,3.5-1.44Z"/>
    <path class="cls-20" d="M693.3,1006.26h2.88v25.05h-2.88v-25.05Z"/>
    <path class="cls-20" d="M716.82,1014.04l-10.23,23.67h-2.95l2.91-6.61-7.32-17.06h3.06l5.79,14.14,5.86-14.14h2.88Z"/>
    <path class="cls-20" d="M729.37,1029.15l-.14,2.27c-.55.09-1.14.14-1.78.14-2.08,0-3.65-.54-4.71-1.63s-1.58-2.61-1.58-4.55v-9.1h-3.38v-2.27h3.38v-5.26h2.88v5.26h4.9v2.27h-4.9v8.88c0,2.72,1.26,4.09,3.77,4.09.52,0,1.04-.04,1.56-.11Z"/>
    <path class="cls-20" d="M735.48,1006.51v3.23h-3.48v-3.23h3.48ZM732.28,1014.01h2.88v17.31h-2.88v-17.31Z"/>
    <path class="cls-20" d="M743.41,1030.46c-1.26-.73-2.22-1.77-2.9-3.11-.68-1.34-1.01-2.91-1.01-4.71s.35-3.38,1.05-4.74,1.68-2.42,2.95-3.18c1.27-.76,2.75-1.14,4.46-1.14,1.16,0,2.3.21,3.41.62,1.11.42,2.01.97,2.7,1.65l-.96,2.13c-1.63-1.33-3.29-1.99-4.98-1.99-1.78,0-3.16.58-4.16,1.74-1,1.16-1.49,2.8-1.49,4.9s.5,3.7,1.49,4.83c1,1.14,2.38,1.71,4.16,1.71,1.68,0,3.34-.66,4.98-1.99l.96,2.13c-.73.69-1.66,1.23-2.77,1.63-1.11.4-2.26.6-3.45.6-1.71,0-3.19-.37-4.44-1.1Z"/>
    <path class="cls-20" d="M756.48,1029.32l.96-2.13c.92.73,1.87,1.26,2.83,1.58.96.32,2.04.48,3.25.48,1.28,0,2.26-.22,2.93-.66.67-.44,1.01-1.07,1.01-1.9,0-.69-.23-1.23-.68-1.63-.45-.4-1.2-.72-2.24-.96l-2.91-.68c-1.47-.33-2.59-.9-3.38-1.71s-1.17-1.8-1.17-2.99c0-1.54.6-2.78,1.81-3.73,1.21-.95,2.82-1.42,4.83-1.42,1.21,0,2.36.2,3.45.59,1.09.39,2,.95,2.74,1.69l-.96,2.1c-1.59-1.35-3.33-2.03-5.22-2.03-1.21,0-2.15.23-2.83.69s-1.01,1.11-1.01,1.94c0,.69.21,1.24.62,1.65.41.42,1.08.73,2.01.94l2.95.71c1.61.38,2.81.95,3.59,1.72.78.77,1.17,1.77,1.17,3,0,1.52-.61,2.72-1.83,3.62-1.22.9-2.88,1.35-4.99,1.35-2.91,0-5.22-.75-6.93-2.24Z"/>
  </g>
  <g>
    <path class="cls-18" d="M1617.83,410.78c-1.17.55-2.67,1.64-4.01,1.68-1.49.11-2.99-.68-3.78-1.94-1.38-2.56-2.69-5.13-4.04-7.69l-8.16-15.33c-4.1-7.63-12.24-23.02-16.24-30.7,0,0,.85.33.85.33-8.52,3.22-18.31,2.97-26.7-.55-27.7-11.71-30.05-50.68-3.85-65.51,15.98-9.43,38.3-4.17,48.31,11.53,10.68,15.48,6.9,37.99-8.14,49.22,0,0,.2-.93.2-.93,6.79,13.33,15.9,31.66,22.63,45.03l3.82,7.48.95,1.88c.99,1.96.11,4.56-1.86,5.52h0ZM1617.76,410.64c1.22-.64,2.07-1.93,2.13-3.3.15-1.41-.76-2.59-1.37-3.84l-3.9-7.44-7.89-14.83c-3.97-7.38-11.87-22.25-15.77-29.67,0,0-.29-.54-.29-.54l.49-.39c14.33-10.9,17.85-32.29,7.78-47.2-12.72-19.7-41.93-21.4-56.85-3.24-23,28.82,6.08,68.24,40.44,55.43,7.18,13.97,16.67,33.02,23.73,47.06,0,0,3.96,7.71,3.96,7.71,1.12,1.88,3.75,2.42,5.58,1.24,0,0,1.93-.99,1.93-.99h0Z"/>
    <circle class="cls-54" cx="1569.62" cy="322.81" r="32.53"/>
  </g>
  <path class="cls-15" d="M1528.51,290.29l-26.94-31.57c-6.75-7.91-16.62-12.46-27.01-12.46h-325.69"/>
  <g>
    <path class="cls-20" d="M1157.04,212.11h15.49v2.45h-12.62v8.64h11.9v2.45h-11.9v11.51h-2.88v-25.05Z"/>
    <path class="cls-20" d="M1190.55,228.96h-12.65c.09,2.01.64,3.54,1.63,4.57s2.4,1.55,4.23,1.55c2.01,0,3.86-.69,5.54-2.06l.96,2.1c-.76.71-1.73,1.27-2.91,1.69-1.19.41-2.39.62-3.62.62-2.7,0-4.83-.79-6.38-2.38s-2.33-3.78-2.33-6.58c0-1.78.34-3.35,1.03-4.71.69-1.36,1.65-2.42,2.9-3.18,1.24-.76,2.66-1.14,4.25-1.14,2.3,0,4.1.75,5.4,2.26,1.3,1.5,1.95,3.57,1.95,6.2v1.07ZM1179.58,223.1c-.91.95-1.45,2.29-1.62,4.02h10.06c-.05-1.75-.49-3.1-1.31-4.03-.83-.94-1.99-1.4-3.48-1.4s-2.73.47-3.64,1.42Z"/>
    <path class="cls-20" d="M1210.13,212.11v25.05h-2.88v-3.16c-.52,1.09-1.29,1.93-2.29,2.52-1.01.59-2.19.89-3.54.89-1.52,0-2.86-.38-4.02-1.14-1.16-.76-2.06-1.82-2.7-3.18-.64-1.36-.96-2.94-.96-4.74s.32-3.34.96-4.69,1.54-2.39,2.7-3.13c1.16-.73,2.5-1.1,4.02-1.1,1.35,0,2.53.3,3.54.89,1.01.59,1.77,1.43,2.29,2.52v-10.73h2.88ZM1205.88,233.31c.91-1.15,1.37-2.78,1.37-4.89s-.46-3.73-1.37-4.87c-.91-1.14-2.21-1.71-3.89-1.71s-2.99.57-3.93,1.71c-.94,1.14-1.4,2.74-1.4,4.8s.47,3.75,1.4,4.92c.94,1.17,2.24,1.76,3.93,1.76s2.98-.57,3.89-1.72Z"/>
    <path class="cls-20" d="M1229.96,228.96h-12.65c.09,2.01.64,3.54,1.63,4.57s2.4,1.55,4.23,1.55c2.01,0,3.86-.69,5.54-2.06l.96,2.1c-.76.71-1.73,1.27-2.91,1.69-1.19.41-2.39.62-3.62.62-2.7,0-4.83-.79-6.38-2.38-1.55-1.59-2.33-3.78-2.33-6.58,0-1.78.34-3.35,1.03-4.71.69-1.36,1.65-2.42,2.9-3.18,1.24-.76,2.66-1.14,4.25-1.14,2.3,0,4.1.75,5.4,2.26,1.3,1.5,1.95,3.57,1.95,6.2v1.07ZM1218.99,223.1c-.91.95-1.45,2.29-1.62,4.02h10.06c-.05-1.75-.49-3.1-1.31-4.03-.83-.94-1.99-1.4-3.48-1.4s-2.73.47-3.64,1.42Z"/>
    <path class="cls-20" d="M1243.99,221.92l-1.88.18c-1.78.17-3.06.72-3.86,1.67-.79.95-1.19,2.12-1.19,3.52v9.88h-2.88v-17.31h2.81v3.02c.97-2.01,2.88-3.14,5.72-3.38l1.03-.07.25,2.49Z"/>
    <path class="cls-20" d="M1258.55,221.12c1.08,1.13,1.62,2.84,1.62,5.13v10.91h-2.81v-2.95c-.45,1.02-1.14,1.81-2.06,2.36s-1.99.83-3.2.83c-1.11,0-2.14-.23-3.07-.68-.94-.45-1.68-1.08-2.22-1.88-.55-.81-.82-1.69-.82-2.67,0-1.3.33-2.32,1-3.04.66-.72,1.75-1.24,3.27-1.56,1.52-.32,3.62-.48,6.33-.48h.78v-1.17c0-1.45-.3-2.49-.89-3.15-.59-.65-1.55-.98-2.88-.98-1.99,0-3.97.62-5.94,1.85l-.96-2.1c.9-.64,1.98-1.16,3.25-1.55,1.27-.39,2.49-.59,3.68-.59,2.2,0,3.84.56,4.92,1.69ZM1255.99,233.7c.91-.96,1.37-2.2,1.37-3.71v-1.03h-.64c-2.09,0-3.67.09-4.76.27-1.09.18-1.87.47-2.33.89-.46.41-.69,1.02-.69,1.83,0,.92.34,1.69,1.01,2.29.68.6,1.52.91,2.54.91,1.42,0,2.59-.48,3.5-1.44Z"/>
    <path class="cls-20" d="M1274.59,235l-.14,2.27c-.54.09-1.14.14-1.78.14-2.08,0-3.65-.54-4.71-1.63-1.05-1.09-1.58-2.61-1.58-4.55v-9.1h-3.38v-2.27h3.38v-5.26h2.88v5.26h4.9v2.27h-4.9v8.88c0,2.72,1.26,4.09,3.77,4.09.52,0,1.04-.04,1.56-.11Z"/>
    <path class="cls-20" d="M1292,228.96h-12.65c.09,2.01.64,3.54,1.63,4.57s2.4,1.55,4.23,1.55c2.01,0,3.86-.69,5.54-2.06l.96,2.1c-.76.71-1.73,1.27-2.91,1.69-1.19.41-2.39.62-3.62.62-2.7,0-4.83-.79-6.38-2.38-1.55-1.59-2.33-3.78-2.33-6.58,0-1.78.34-3.35,1.03-4.71s1.65-2.42,2.9-3.18c1.24-.76,2.66-1.14,4.25-1.14,2.3,0,4.1.75,5.4,2.26,1.3,1.5,1.95,3.57,1.95,6.2v1.07ZM1281.04,223.1c-.91.95-1.45,2.29-1.62,4.02h10.06c-.05-1.75-.49-3.1-1.31-4.03-.83-.94-1.99-1.4-3.48-1.4s-2.73.47-3.64,1.42Z"/>
    <path class="cls-20" d="M1311.58,212.11v25.05h-2.88v-3.16c-.52,1.09-1.29,1.93-2.29,2.52-1.01.59-2.19.89-3.54.89-1.52,0-2.85-.38-4.02-1.14-1.16-.76-2.06-1.82-2.7-3.18-.64-1.36-.96-2.94-.96-4.74s.32-3.34.96-4.69,1.54-2.39,2.7-3.13c1.16-.73,2.5-1.1,4.02-1.1,1.35,0,2.53.3,3.54.89,1.01.59,1.77,1.43,2.29,2.52v-10.73h2.88ZM1307.34,233.31c.91-1.15,1.37-2.78,1.37-4.89s-.46-3.73-1.37-4.87c-.91-1.14-2.21-1.71-3.89-1.71s-2.99.57-3.93,1.71c-.94,1.14-1.4,2.74-1.4,4.8s.47,3.75,1.4,4.92c.94,1.17,2.24,1.76,3.93,1.76s2.98-.57,3.89-1.72Z"/>
    <path class="cls-20" d="M1326.51,212.11h8.42c4,0,7.1,1.08,9.29,3.25,2.19,2.17,3.29,5.25,3.29,9.26s-1.1,7.1-3.29,9.28c-2.19,2.18-5.29,3.27-9.29,3.27h-8.42v-25.05ZM1334.75,234.68c6.49,0,9.74-3.35,9.74-10.06s-3.25-10.02-9.74-10.02h-5.33v20.08h5.33Z"/>
    <path class="cls-20" d="M1355.54,212.36v3.23h-3.48v-3.23h3.48ZM1352.34,219.86h2.88v17.31h-2.88v-17.31Z"/>
    <path class="cls-20" d="M1359.52,235.18l.96-2.13c.92.73,1.87,1.26,2.83,1.58.96.32,2.04.48,3.25.48,1.28,0,2.26-.22,2.93-.66.68-.44,1.01-1.07,1.01-1.9,0-.69-.23-1.23-.68-1.63-.45-.4-1.2-.72-2.24-.96l-2.91-.68c-1.47-.33-2.59-.9-3.38-1.71s-1.17-1.8-1.17-2.99c0-1.54.6-2.78,1.81-3.73,1.21-.95,2.82-1.42,4.83-1.42,1.21,0,2.36.2,3.45.59,1.09.39,2,.95,2.74,1.69l-.96,2.1c-1.59-1.35-3.33-2.03-5.22-2.03-1.21,0-2.15.23-2.83.69s-1.01,1.11-1.01,1.94c0,.69.21,1.24.62,1.65.41.42,1.08.73,2.01.94l2.95.71c1.61.38,2.81.95,3.59,1.72.78.77,1.17,1.77,1.17,3,0,1.52-.61,2.72-1.83,3.62-1.22.9-2.88,1.35-4.99,1.35-2.91,0-5.22-.75-6.93-2.24Z"/>
    <path class="cls-20" d="M1380.53,236.32c-1.26-.73-2.22-1.77-2.9-3.11-.68-1.34-1.01-2.91-1.01-4.71s.35-3.38,1.05-4.74c.7-1.36,1.68-2.42,2.95-3.18,1.27-.76,2.75-1.14,4.46-1.14,1.16,0,2.3.21,3.41.62,1.11.42,2.01.97,2.7,1.65l-.96,2.13c-1.63-1.33-3.29-1.99-4.98-1.99-1.78,0-3.16.58-4.16,1.74-1,1.16-1.49,2.8-1.49,4.9s.5,3.7,1.49,4.83c1,1.14,2.38,1.71,4.16,1.71,1.68,0,3.34-.66,4.98-1.99l.96,2.13c-.73.69-1.66,1.23-2.77,1.63-1.11.4-2.26.6-3.45.6-1.71,0-3.19-.37-4.44-1.1Z"/>
    <path class="cls-20" d="M1397.53,236.32c-1.24-.73-2.2-1.78-2.88-3.15-.68-1.36-1.01-2.94-1.01-4.74s.34-3.38,1.01-4.74c.67-1.36,1.63-2.41,2.88-3.14s2.68-1.1,4.32-1.1,3.08.37,4.33,1.1,2.22,1.78,2.9,3.14,1.01,2.94,1.01,4.74-.34,3.38-1.01,4.74-1.64,2.41-2.9,3.15-2.7,1.1-4.33,1.1-3.07-.37-4.32-1.1ZM1405.77,233.35c.91-1.12,1.37-2.77,1.37-4.92s-.46-3.74-1.39-4.89c-.92-1.15-2.23-1.72-3.91-1.72s-2.99.57-3.91,1.72c-.92,1.15-1.39,2.78-1.39,4.89s.46,3.77,1.37,4.9c.91,1.14,2.22,1.71,3.93,1.71s3.01-.56,3.93-1.69Z"/>
    <path class="cls-20" d="M1429.46,219.9l-7.46,17.27h-2.7l-7.43-17.27h3.06l5.79,14.14,5.86-14.14h2.88Z"/>
    <path class="cls-20" d="M1446.73,228.96h-12.65c.09,2.01.64,3.54,1.63,4.57s2.4,1.55,4.23,1.55c2.01,0,3.86-.69,5.54-2.06l.96,2.1c-.76.71-1.73,1.27-2.91,1.69-1.19.41-2.39.62-3.62.62-2.7,0-4.83-.79-6.38-2.38-1.55-1.59-2.33-3.78-2.33-6.58,0-1.78.34-3.35,1.03-4.71.69-1.36,1.65-2.42,2.9-3.18,1.24-.76,2.66-1.14,4.25-1.14,2.3,0,4.1.75,5.4,2.26,1.3,1.5,1.95,3.57,1.95,6.2v1.07ZM1435.77,223.1c-.91.95-1.45,2.29-1.62,4.02h10.06c-.05-1.75-.49-3.1-1.31-4.03-.83-.94-1.99-1.4-3.48-1.4s-2.73.47-3.64,1.42Z"/>
    <path class="cls-20" d="M1460.77,221.92l-1.88.18c-1.78.17-3.06.72-3.86,1.67-.79.95-1.19,2.12-1.19,3.52v9.88h-2.88v-17.31h2.81v3.02c.97-2.01,2.88-3.14,5.72-3.38l1.03-.07.25,2.49Z"/>
    <path class="cls-20" d="M1479.85,219.9l-10.23,23.67h-2.95l2.91-6.61-7.32-17.06h3.06l5.79,14.14,5.86-14.14h2.88Z"/>
  </g>
  <g>
    <rect class="cls-52" x="1517.31" y="908.61" width="44.15" height="7.43" transform="translate(-159.77 1473.49) rotate(-48.93)"/>
    <rect class="cls-60" x="1556.09" y="900.23" width="7.43" height="80"/>
    <rect class="cls-58" x="1526.8" y="908.48" width="87.74" height="7.43" transform="translate(-244.31 841.94) rotate(-27.93)"/>
    <rect class="cls-59" x="1572.15" y="898.61" width="7.43" height="24.99" transform="translate(-237.01 746.92) rotate(-24.86)"/>
    <rect class="cls-68" x="1535.86" y="947.86" width="7.43" height="39.24" transform="translate(-249.02 1294.92) rotate(-42.52)"/>
    <rect class="cls-66" x="1577.05" y="879.49" width="31.18" height="7.43" transform="translate(-54.63 106.63) rotate(-3.77)"/>
    <rect class="cls-67" x="1592.85" y="906.42" width="31.18" height="7.43" transform="translate(69.08 1932.76) rotate(-63.1)"/>
    <rect class="cls-64" x="1632.95" y="894.18" width="7.43" height="32.46" transform="translate(-220.3 667.07) rotate(-21.62)"/>
    <rect class="cls-63" x="1615.38" y="940.52" width="17.29" height="7.43" transform="translate(-129.02 269.04) rotate(-9.11)"/>
    <rect class="cls-62" x="1576.95" y="990.86" width="31.18" height="7.43"/>
    <rect class="cls-65" x="1565.21" y="971.02" width="17.29" height="7.43" transform="translate(-139.2 1676.56) rotate(-54.05)"/>
    <circle class="cls-73" cx="1518.08" cy="940.24" r="16.96"/>
    <circle class="cls-74" cx="1563.58" cy="886.26" r="16.96"/>
    <circle class="cls-75" cx="1563.14" cy="994.57" r="16.96"/>
    <circle class="cls-69" cx="1622.11" cy="994.57" r="16.96"/>
    <circle class="cls-70" cx="1645.19" cy="940.24" r="16.96"/>
    <circle class="cls-71" cx="1622.11" cy="883.27" r="16.96"/>
    <circle class="cls-72" cx="1591.6" cy="946.48" r="27.06"/>
  </g>
  <path class="cls-16" d="M1526.51,996.61l-26.94,31.57c-6.75,7.91-16.62,12.46-27.01,12.46h-321.69"/>
  <g>
    <path class="cls-20" d="M1160.13,1006.26h15.49v2.45h-12.62v8.64h11.91v2.45h-11.91v11.51h-2.88v-25.05Z"/>
    <path class="cls-20" d="M1193.64,1023.11h-12.65c.09,2.01.64,3.54,1.63,4.57.99,1.03,2.4,1.55,4.23,1.55,2.01,0,3.86-.69,5.54-2.06l.96,2.1c-.76.71-1.73,1.27-2.91,1.69-1.19.41-2.39.62-3.62.62-2.7,0-4.83-.79-6.38-2.38-1.55-1.59-2.33-3.78-2.33-6.58,0-1.78.34-3.35,1.03-4.71.69-1.36,1.65-2.42,2.9-3.18,1.24-.76,2.66-1.14,4.25-1.14,2.3,0,4.1.75,5.4,2.26,1.3,1.5,1.95,3.57,1.95,6.2v1.07ZM1182.68,1017.24c-.91.95-1.45,2.29-1.62,4.02h10.06c-.05-1.75-.49-3.1-1.31-4.03-.83-.94-1.99-1.4-3.48-1.4s-2.73.47-3.64,1.42Z"/>
    <path class="cls-20" d="M1213.22,1006.26v25.05h-2.88v-3.16c-.52,1.09-1.29,1.93-2.29,2.52-1.01.59-2.19.89-3.54.89-1.52,0-2.85-.38-4.02-1.14-1.16-.76-2.06-1.82-2.7-3.18-.64-1.36-.96-2.94-.96-4.74s.32-3.34.96-4.69,1.54-2.39,2.7-3.13c1.16-.73,2.5-1.1,4.02-1.1,1.35,0,2.53.3,3.54.89,1.01.59,1.77,1.43,2.29,2.52v-10.73h2.88ZM1208.97,1027.46c.91-1.15,1.37-2.78,1.37-4.89s-.46-3.73-1.37-4.87c-.91-1.14-2.21-1.71-3.89-1.71s-2.99.57-3.93,1.71c-.94,1.14-1.4,2.74-1.4,4.8s.47,3.75,1.4,4.92c.94,1.17,2.24,1.76,3.93,1.76s2.98-.57,3.89-1.72Z"/>
    <path class="cls-20" d="M1233.05,1023.11h-12.65c.09,2.01.64,3.54,1.63,4.57.99,1.03,2.4,1.55,4.23,1.55,2.01,0,3.86-.69,5.54-2.06l.96,2.1c-.76.71-1.73,1.27-2.91,1.69-1.19.41-2.39.62-3.62.62-2.7,0-4.83-.79-6.38-2.38-1.55-1.59-2.33-3.78-2.33-6.58,0-1.78.34-3.35,1.03-4.71.69-1.36,1.65-2.42,2.9-3.18,1.24-.76,2.66-1.14,4.25-1.14,2.3,0,4.1.75,5.4,2.26,1.3,1.5,1.95,3.57,1.95,6.2v1.07ZM1222.09,1017.24c-.91.95-1.45,2.29-1.62,4.02h10.06c-.05-1.75-.49-3.1-1.31-4.03-.83-.94-1.99-1.4-3.48-1.4s-2.73.47-3.64,1.42Z"/>
    <path class="cls-20" d="M1247.09,1016.07l-1.88.18c-1.78.17-3.06.72-3.86,1.67-.79.95-1.19,2.12-1.19,3.52v9.88h-2.88v-17.31h2.81v3.02c.97-2.01,2.88-3.14,5.72-3.38l1.03-.07.25,2.49Z"/>
    <path class="cls-20" d="M1261.64,1015.27c1.08,1.13,1.62,2.84,1.62,5.13v10.91h-2.81v-2.95c-.45,1.02-1.14,1.81-2.06,2.36-.92.56-1.99.83-3.2.83-1.11,0-2.14-.23-3.07-.68-.94-.45-1.68-1.08-2.22-1.88s-.82-1.69-.82-2.67c0-1.3.33-2.32,1-3.04.66-.72,1.75-1.24,3.27-1.56,1.52-.32,3.62-.48,6.33-.48h.78v-1.17c0-1.45-.3-2.49-.89-3.15-.59-.65-1.55-.98-2.88-.98-1.99,0-3.97.62-5.93,1.85l-.96-2.1c.9-.64,1.98-1.16,3.25-1.55,1.27-.39,2.49-.59,3.68-.59,2.2,0,3.84.56,4.92,1.69ZM1259.08,1027.85c.91-.96,1.37-2.2,1.37-3.71v-1.03h-.64c-2.08,0-3.67.09-4.76.27s-1.87.47-2.33.89c-.46.41-.69,1.02-.69,1.83,0,.92.34,1.69,1.01,2.29.68.6,1.52.91,2.54.91,1.42,0,2.59-.48,3.5-1.44Z"/>
    <path class="cls-20" d="M1277.68,1029.15l-.14,2.27c-.55.09-1.14.14-1.78.14-2.08,0-3.65-.54-4.71-1.63-1.05-1.09-1.58-2.61-1.58-4.55v-9.1h-3.38v-2.27h3.38v-5.26h2.88v5.26h4.9v2.27h-4.9v8.88c0,2.72,1.26,4.09,3.77,4.09.52,0,1.04-.04,1.56-.11Z"/>
    <path class="cls-20" d="M1295.1,1023.11h-12.65c.09,2.01.64,3.54,1.63,4.57s2.4,1.55,4.23,1.55c2.01,0,3.86-.69,5.54-2.06l.96,2.1c-.76.71-1.73,1.27-2.91,1.69s-2.39.62-3.62.62c-2.7,0-4.83-.79-6.38-2.38-1.55-1.59-2.33-3.78-2.33-6.58,0-1.78.34-3.35,1.03-4.71s1.65-2.42,2.9-3.18c1.24-.76,2.66-1.14,4.25-1.14,2.3,0,4.1.75,5.4,2.26,1.3,1.5,1.95,3.57,1.95,6.2v1.07ZM1284.13,1017.24c-.91.95-1.45,2.29-1.62,4.02h10.06c-.05-1.75-.49-3.1-1.31-4.03-.83-.94-1.99-1.4-3.48-1.4s-2.73.47-3.64,1.42Z"/>
    <path class="cls-20" d="M1314.68,1006.26v25.05h-2.88v-3.16c-.52,1.09-1.29,1.93-2.29,2.52-1.01.59-2.19.89-3.54.89-1.52,0-2.86-.38-4.02-1.14-1.16-.76-2.06-1.82-2.7-3.18-.64-1.36-.96-2.94-.96-4.74s.32-3.34.96-4.69,1.54-2.39,2.7-3.13,2.5-1.1,4.02-1.1c1.35,0,2.53.3,3.54.89,1.01.59,1.77,1.43,2.29,2.52v-10.73h2.88ZM1310.43,1027.46c.91-1.15,1.37-2.78,1.37-4.89s-.46-3.73-1.37-4.87c-.91-1.14-2.21-1.71-3.89-1.71s-2.99.57-3.93,1.71c-.94,1.14-1.4,2.74-1.4,4.8s.47,3.75,1.4,4.92c.94,1.17,2.24,1.76,3.93,1.76s2.98-.57,3.89-1.72Z"/>
    <path class="cls-20" d="M1329.6,1006.26h2.91v22.57h12.54v2.49h-15.46v-25.05Z"/>
    <path class="cls-20" d="M1362.83,1023.11h-12.65c.09,2.01.64,3.54,1.63,4.57s2.4,1.55,4.23,1.55c2.01,0,3.86-.69,5.54-2.06l.96,2.1c-.76.71-1.73,1.27-2.91,1.69-1.19.41-2.39.62-3.62.62-2.7,0-4.83-.79-6.38-2.38-1.55-1.59-2.33-3.78-2.33-6.58,0-1.78.34-3.35,1.03-4.71.69-1.36,1.65-2.42,2.9-3.18,1.24-.76,2.66-1.14,4.25-1.14,2.3,0,4.1.75,5.4,2.26,1.3,1.5,1.95,3.57,1.95,6.2v1.07ZM1351.86,1017.24c-.91.95-1.45,2.29-1.62,4.02h10.06c-.05-1.75-.49-3.1-1.31-4.03-.83-.94-1.99-1.4-3.48-1.4s-2.73.47-3.64,1.42Z"/>
    <path class="cls-20" d="M1379.01,1015.27c1.08,1.13,1.62,2.84,1.62,5.13v10.91h-2.81v-2.95c-.45,1.02-1.14,1.81-2.06,2.36s-1.99.83-3.2.83c-1.11,0-2.14-.23-3.07-.68-.94-.45-1.68-1.08-2.22-1.88-.55-.81-.82-1.69-.82-2.67,0-1.3.33-2.32,1-3.04.66-.72,1.75-1.24,3.27-1.56,1.52-.32,3.62-.48,6.33-.48h.78v-1.17c0-1.45-.3-2.49-.89-3.15-.59-.65-1.55-.98-2.88-.98-1.99,0-3.97.62-5.93,1.85l-.96-2.1c.9-.64,1.98-1.16,3.25-1.55,1.27-.39,2.49-.59,3.68-.59,2.2,0,3.84.56,4.92,1.69ZM1376.46,1027.85c.91-.96,1.37-2.2,1.37-3.71v-1.03h-.64c-2.08,0-3.67.09-4.76.27-1.09.18-1.87.47-2.33.89-.46.41-.69,1.02-.69,1.83,0,.92.34,1.69,1.01,2.29.68.6,1.52.91,2.54.91,1.42,0,2.59-.48,3.5-1.44Z"/>
    <path class="cls-20" d="M1395.7,1016.07l-1.88.18c-1.78.17-3.06.72-3.86,1.67-.79.95-1.19,2.12-1.19,3.52v9.88h-2.88v-17.31h2.81v3.02c.97-2.01,2.88-3.14,5.72-3.38l1.03-.07.25,2.49Z"/>
    <path class="cls-20" d="M1413.36,1020.44v10.87h-2.88v-10.7c0-1.61-.31-2.78-.94-3.52-.63-.73-1.63-1.1-3-1.1-1.59,0-2.85.49-3.8,1.46-.95.97-1.42,2.29-1.42,3.94v9.92h-2.88v-17.31h2.84v2.84c.57-1.07,1.36-1.88,2.38-2.43,1.02-.56,2.18-.84,3.48-.84,4.15,0,6.22,2.29,6.22,6.86Z"/>
    <path class="cls-20" d="M1421.82,1006.51v3.23h-3.48v-3.23h3.48ZM1418.62,1014.01h2.88v17.31h-2.88v-17.31Z"/>
    <path class="cls-20" d="M1441.79,1020.44v10.87h-2.88v-10.7c0-1.61-.31-2.78-.94-3.52-.63-.73-1.63-1.1-3-1.1-1.59,0-2.86.49-3.8,1.46-.95.97-1.42,2.29-1.42,3.94v9.92h-2.88v-17.31h2.84v2.84c.57-1.07,1.36-1.88,2.38-2.43s2.18-.84,3.48-.84c4.15,0,6.22,2.29,6.22,6.86Z"/>
    <path class="cls-20" d="M1462.54,1014.01v16.13c0,2.58-.66,4.53-1.99,5.85-1.33,1.32-3.29,1.97-5.9,1.97-3.03,0-5.58-.78-7.64-2.35l.96-2.13c1.16.76,2.25,1.3,3.27,1.63,1.02.33,2.16.5,3.41.5,1.66,0,2.91-.44,3.77-1.33.85-.89,1.28-2.19,1.28-3.89v-3.06c-.5,1.11-1.26,1.97-2.29,2.56-1.03.59-2.25.89-3.64.89-1.52,0-2.86-.36-4.03-1.07-1.17-.71-2.08-1.72-2.74-3.02-.65-1.3-.98-2.81-.98-4.51s.33-3.21.98-4.51,1.56-2.31,2.74-3.02c1.17-.71,2.52-1.07,4.03-1.07,1.37,0,2.57.3,3.59.89,1.02.59,1.79,1.43,2.31,2.52v-2.99h2.88ZM1458.24,1026.75c.95-1.1,1.42-2.62,1.42-4.57s-.47-3.43-1.4-4.53c-.94-1.1-2.24-1.65-3.93-1.65s-3,.55-3.96,1.65c-.96,1.1-1.44,2.61-1.44,4.53s.48,3.46,1.44,4.57c.96,1.1,2.28,1.65,3.96,1.65s2.96-.55,3.91-1.65Z"/>
  </g>
  <path class="cls-3" d="M638.77,706.69c-1.18,8.8-.06,24.07-5,35.69-3.47,8.15-8.87,13.49-13.97,18.25-3.08,2.88-6.05,5.55-8.41,8.49-.65.81-1.89.81-2.55,0-6.27-7.83-16.82-13.67-22.38-26.74-.92-2.15-1.62-4.43-2.17-6.77-2.43-10.29-1.86-21.75-2.83-28.92-.13-.98.63-1.85,1.62-1.85h54.08c.99,0,1.75.87,1.61,1.85Z"/>
  <path class="cls-30" d="M621.14,724.4h-1.58c.03-1.5.05-3.61-.04-4.56-.42-4.5-4.64-7.71-9.04-7.88-4.65-.17-9.31,3.11-9.77,7.88-.09.95-.07,3.06-.04,4.56h-1.58c-.67,0-1.22.54-1.22,1.22v20.03c0,.67.55,1.22,1.22,1.22h22.05c.68,0,1.22-.55,1.22-1.22v-20.03c0-.68-.54-1.22-1.22-1.22ZM602.93,720.74c.35-3.91,3.53-6.69,7.19-6.76,3.45-.05,6.93,3.08,7.27,6.76.05.59.06,1.68.05,2.71-.01.48-.4.87-.89.87h-12.79c-.48,0-.87-.39-.88-.87-.01-1.03-.01-2.12.05-2.71ZM608.54,739.17l.81-3.22c-.18-.09-.33-.2-.47-.34-.31-.33-.5-.77-.49-1.25.02-.89.73-1.63,1.61-1.69,1.01-.06,1.84.74,1.84,1.73,0,.47-.19.9-.5,1.21-.13.14-.29.25-.46.34l.82,3.22h-3.16Z"/>
  <path class="cls-1" d="M1308.61,546.89c.65.81,1.89.81,2.55,0,6.28-7.82,16.82-13.67,22.38-26.73,4.94-11.62,3.82-26.9,5-35.69.13-.98-.63-1.85-1.62-1.85h-54.08c-.99,0-1.75.87-1.62,1.85,1.19,8.79.06,24.07,5,35.69,5.55,13.06,16.1,18.91,22.38,26.73Z"/>
  <path class="cls-33" d="M1319.33,502.17c.03-1.49.05-3.61-.04-4.56-.43-4.5-4.64-7.71-9.04-7.88-4.66-.18-9.32,3.1-9.77,7.88-.09.95-.07,3.06-.04,4.56h-1.58c-.67,0-1.22.55-1.22,1.22v20.03c0,.67.55,1.22,1.22,1.22h22.05c.67,0,1.22-.55,1.22-1.22v-20.03c0-.67-.55-1.22-1.22-1.22h-1.58ZM1311.47,516.95h-3.16l.81-3.22c-.58-.29-.98-.89-.96-1.59.02-.89.73-1.63,1.62-1.68,1.01-.06,1.84.73,1.84,1.73,0,.68-.39,1.26-.96,1.55l.81,3.22h0ZM1316.32,502.1h-12.79c-.48,0-.88-.39-.88-.87-.01-1.03,0-2.12.05-2.7.36-3.91,3.53-6.7,7.19-6.76,3.46-.06,6.94,3.07,7.27,6.76.05.59.06,1.67.05,2.7,0,.48-.4.87-.88.87h0Z"/>
  <path class="cls-2" d="M1308.61,768.42c.65.81,1.89.81,2.55,0,6.28-7.82,16.82-13.67,22.38-26.73,4.94-11.62,3.82-26.9,5-35.69.13-.98-.63-1.85-1.62-1.85h-54.08c-.99,0-1.75.87-1.62,1.85,1.19,8.79.06,24.07,5,35.69,5.55,13.06,16.1,18.91,22.38,26.73Z"/>
  <path class="cls-32" d="M1319.33,723.7c.03-1.49.05-3.61-.04-4.56-.43-4.5-4.64-7.71-9.04-7.88-4.66-.18-9.32,3.1-9.77,7.88-.09.95-.07,3.06-.04,4.56h-1.58c-.67,0-1.22.55-1.22,1.22v20.03c0,.67.55,1.22,1.22,1.22h22.05c.67,0,1.22-.55,1.22-1.22v-20.03c0-.67-.55-1.22-1.22-1.22h-1.58ZM1311.47,738.47h-3.16l.81-3.22c-.58-.29-.98-.89-.96-1.59.02-.89.73-1.63,1.62-1.68,1.01-.06,1.84.73,1.84,1.73,0,.68-.39,1.26-.96,1.55l.81,3.22h0ZM1316.32,723.62h-12.79c-.48,0-.88-.39-.88-.87-.01-1.03,0-2.12.05-2.7.36-3.91,3.53-6.7,7.19-6.76,3.46-.06,6.94,3.07,7.27,6.76.05.59.06,1.67.05,2.7,0,.48-.4.87-.88.87h0Z"/>
  <g>
    <path class="cls-20" d="M483.57,692.73h-8.49l-1.8,4.17h-1.94l7.15-16.26h1.64l7.15,16.26h-1.91l-1.8-4.17ZM482.9,691.16l-3.57-8.32-3.57,8.32h7.15Z"/>
    <path class="cls-20" d="M491.29,696.35c-.81-.48-1.44-1.15-1.88-2.02-.44-.87-.66-1.89-.66-3.05s.23-2.19.68-3.08c.45-.88,1.09-1.57,1.91-2.06.82-.49,1.79-.74,2.89-.74.75,0,1.49.13,2.21.4s1.31.63,1.75,1.07l-.62,1.38c-1.06-.86-2.14-1.29-3.23-1.29-1.15,0-2.05.38-2.7,1.13-.65.75-.97,1.81-.97,3.18s.32,2.4.97,3.14c.65.74,1.54,1.11,2.7,1.11,1.09,0,2.17-.43,3.23-1.29l.62,1.38c-.48.45-1.08.8-1.8,1.06-.72.26-1.47.39-2.24.39-1.11,0-2.07-.24-2.88-.71Z"/>
    <path class="cls-20" d="M502.34,696.35c-.81-.48-1.44-1.15-1.88-2.02-.44-.87-.66-1.89-.66-3.05s.23-2.19.68-3.08c.45-.88,1.09-1.57,1.91-2.06.82-.49,1.79-.74,2.89-.74.75,0,1.49.13,2.21.4.72.27,1.31.63,1.75,1.07l-.62,1.38c-1.06-.86-2.14-1.29-3.23-1.29-1.15,0-2.05.38-2.7,1.13-.65.75-.97,1.81-.97,3.18s.32,2.4.97,3.14c.65.74,1.54,1.11,2.7,1.11,1.09,0,2.17-.43,3.23-1.29l.62,1.38c-.48.45-1.08.8-1.8,1.06-.72.26-1.47.39-2.24.39-1.11,0-2.07-.24-2.88-.71Z"/>
    <path class="cls-20" d="M520.92,691.58h-8.21c.06,1.31.42,2.29,1.06,2.96.65.67,1.56,1,2.74,1,1.31,0,2.51-.45,3.6-1.34l.62,1.36c-.49.46-1.12.83-1.89,1.09-.77.27-1.55.4-2.35.4-1.75,0-3.13-.51-4.14-1.54-1.01-1.03-1.51-2.45-1.51-4.27,0-1.15.22-2.17.67-3.06.45-.88,1.07-1.57,1.88-2.06.81-.49,1.73-.74,2.76-.74,1.49,0,2.66.49,3.5,1.46.85.98,1.27,2.32,1.27,4.02v.69ZM513.81,687.77c-.59.61-.94,1.48-1.05,2.61h6.53c-.03-1.14-.32-2.01-.85-2.62-.54-.61-1.29-.91-2.26-.91s-1.77.31-2.36.92Z"/>
    <path class="cls-20" d="M522.98,695.61l.62-1.38c.6.48,1.21.82,1.83,1.03.62.21,1.33.31,2.11.31.83,0,1.46-.14,1.9-.43.44-.28.66-.7.66-1.23,0-.45-.15-.8-.44-1.06-.29-.26-.78-.47-1.45-.62l-1.89-.44c-.95-.21-1.68-.58-2.19-1.11s-.76-1.17-.76-1.94c0-1,.39-1.81,1.18-2.42.78-.61,1.83-.92,3.14-.92.78,0,1.53.13,2.24.38.71.25,1.3.62,1.78,1.1l-.62,1.36c-1.03-.88-2.16-1.31-3.39-1.31-.78,0-1.4.15-1.83.45s-.66.72-.66,1.26c0,.45.13.8.4,1.07.27.27.7.47,1.3.61l1.91.46c1.05.25,1.82.62,2.33,1.12.51.5.76,1.15.76,1.95,0,.98-.4,1.77-1.19,2.35-.79.58-1.87.88-3.24.88-1.89,0-3.39-.48-4.5-1.45Z"/>
    <path class="cls-20" d="M534.04,695.61l.62-1.38c.6.48,1.21.82,1.83,1.03.62.21,1.33.31,2.11.31.83,0,1.46-.14,1.9-.43s.66-.7.66-1.23c0-.45-.15-.8-.44-1.06-.29-.26-.78-.47-1.45-.62l-1.89-.44c-.95-.21-1.68-.58-2.19-1.11s-.76-1.17-.76-1.94c0-1,.39-1.81,1.18-2.42.78-.61,1.83-.92,3.14-.92.78,0,1.53.13,2.24.38s1.3.62,1.78,1.1l-.62,1.36c-1.03-.88-2.16-1.31-3.39-1.31-.78,0-1.39.15-1.83.45-.44.3-.66.72-.66,1.26,0,.45.13.8.4,1.07.27.27.7.47,1.3.61l1.91.46c1.05.25,1.82.62,2.33,1.12.51.5.76,1.15.76,1.95,0,.98-.4,1.77-1.19,2.35-.79.58-1.87.88-3.24.88-1.89,0-3.39-.48-4.5-1.45Z"/>
    <path class="cls-20" d="M554.96,696.09c-1.14-.67-2.01-1.63-2.62-2.88s-.91-2.73-.91-4.44.3-3.18.91-4.43c.61-1.25,1.48-2.2,2.62-2.87s2.48-1,4.01-1c1.12,0,2.15.17,3.09.52s1.75.86,2.44,1.53l-.71,1.45c-.78-.66-1.55-1.14-2.31-1.43-.75-.29-1.58-.44-2.49-.44-1.78,0-3.16.58-4.14,1.74-.98,1.16-1.46,2.8-1.46,4.92s.49,3.79,1.46,4.95c.98,1.16,2.36,1.74,4.14,1.74.91,0,1.74-.15,2.49-.44.75-.29,1.52-.77,2.31-1.43l.71,1.45c-.69.68-1.51,1.19-2.44,1.53-.94.35-1.97.52-3.09.52-1.54,0-2.87-.33-4.01-1Z"/>
    <path class="cls-20" d="M568.99,696.35c-.81-.48-1.43-1.16-1.87-2.04-.44-.88-.66-1.91-.66-3.08s.22-2.19.66-3.08c.44-.88,1.06-1.56,1.87-2.04s1.74-.71,2.8-.71,2,.24,2.81.71c.81.48,1.44,1.16,1.88,2.04.44.88.66,1.91.66,3.08s-.22,2.2-.66,3.08c-.44.88-1.06,1.56-1.88,2.04-.81.48-1.75.71-2.81.71s-1.99-.24-2.8-.71ZM574.34,694.43c.59-.73.89-1.79.89-3.19s-.3-2.42-.9-3.17-1.45-1.12-2.54-1.12-1.94.37-2.54,1.12-.9,1.8-.9,3.17.3,2.44.89,3.18c.59.74,1.44,1.11,2.55,1.11s1.96-.36,2.55-1.09Z"/>
    <path class="cls-20" d="M589.62,689.85v7.06h-1.87v-6.94c0-1.04-.2-1.81-.61-2.28-.41-.48-1.06-.71-1.95-.71-1.03,0-1.85.32-2.47.95-.61.63-.92,1.48-.92,2.56v6.43h-1.87v-11.23h1.84v1.84c.37-.69.88-1.22,1.54-1.58.66-.36,1.41-.54,2.26-.54,2.69,0,4.04,1.48,4.04,4.45Z"/>
    <path class="cls-20" d="M598.98,695.5l-.09,1.48c-.35.06-.74.09-1.15.09-1.35,0-2.37-.35-3.06-1.06s-1.03-1.69-1.03-2.95v-5.9h-2.19v-1.48h2.19v-3.41h1.87v3.41h3.18v1.48h-3.18v5.76c0,1.77.81,2.65,2.44,2.65.34,0,.68-.02,1.01-.07Z"/>
    <path class="cls-20" d="M607.23,687.01l-1.22.12c-1.15.11-1.99.47-2.5,1.08-.52.62-.77,1.38-.77,2.28v6.41h-1.87v-11.23h1.82v1.96c.63-1.31,1.87-2.04,3.71-2.19l.67-.05.16,1.61Z"/>
    <path class="cls-20" d="M610.63,696.35c-.81-.48-1.43-1.16-1.87-2.04-.44-.88-.66-1.91-.66-3.08s.22-2.19.66-3.08c.44-.88,1.06-1.56,1.87-2.04.81-.48,1.74-.71,2.8-.71s2,.24,2.81.71,1.44,1.16,1.88,2.04c.44.88.66,1.91.66,3.08s-.22,2.2-.66,3.08-1.06,1.56-1.88,2.04c-.81.48-1.75.71-2.81.71s-1.99-.24-2.8-.71ZM615.98,694.43c.59-.73.89-1.79.89-3.19s-.3-2.42-.9-3.17-1.45-1.12-2.54-1.12-1.94.37-2.54,1.12c-.6.75-.9,1.8-.9,3.17s.3,2.44.89,3.18c.59.74,1.44,1.11,2.55,1.11s1.96-.36,2.55-1.09Z"/>
    <path class="cls-20" d="M621.57,680.65h1.87v16.26h-1.87v-16.26Z"/>
  </g>
  <g>
    <path class="cls-20" d="M1351.19,536.65h-8.49l-1.8,4.17h-1.94l7.15-16.26h1.64l7.15,16.26h-1.91l-1.8-4.17ZM1350.53,535.09l-3.57-8.32-3.57,8.32h7.15Z"/>
    <path class="cls-20" d="M1358.92,540.27c-.81-.48-1.44-1.15-1.88-2.02-.44-.87-.66-1.89-.66-3.05s.23-2.19.68-3.08c.45-.88,1.09-1.57,1.91-2.06.82-.49,1.79-.74,2.89-.74.75,0,1.49.13,2.21.4s1.31.63,1.75,1.07l-.62,1.38c-1.06-.86-2.14-1.29-3.23-1.29-1.15,0-2.05.38-2.7,1.13-.65.75-.97,1.81-.97,3.18s.32,2.4.97,3.14c.65.74,1.54,1.11,2.7,1.11,1.09,0,2.17-.43,3.23-1.29l.62,1.38c-.48.45-1.08.8-1.8,1.06-.72.26-1.47.39-2.24.39-1.11,0-2.07-.24-2.88-.71Z"/>
    <path class="cls-20" d="M1369.96,540.27c-.81-.48-1.44-1.15-1.88-2.02-.44-.87-.66-1.89-.66-3.05s.23-2.19.68-3.08c.45-.88,1.09-1.57,1.91-2.06.82-.49,1.79-.74,2.89-.74.75,0,1.49.13,2.21.4s1.31.63,1.75,1.07l-.62,1.38c-1.06-.86-2.14-1.29-3.23-1.29-1.15,0-2.05.38-2.7,1.13-.65.75-.97,1.81-.97,3.18s.32,2.4.97,3.14c.65.74,1.54,1.11,2.7,1.11,1.09,0,2.17-.43,3.23-1.29l.62,1.38c-.48.45-1.08.8-1.8,1.06-.72.26-1.47.39-2.24.39-1.11,0-2.07-.24-2.88-.71Z"/>
    <path class="cls-20" d="M1388.55,535.5h-8.21c.06,1.31.42,2.29,1.06,2.96.65.67,1.56,1,2.74,1,1.31,0,2.51-.45,3.6-1.34l.62,1.36c-.49.46-1.12.83-1.89,1.09-.77.27-1.55.4-2.35.4-1.75,0-3.13-.51-4.14-1.54-1.01-1.03-1.51-2.45-1.51-4.27,0-1.15.22-2.17.67-3.06.45-.88,1.07-1.57,1.88-2.06.81-.49,1.73-.74,2.76-.74,1.49,0,2.66.49,3.51,1.46.85.98,1.27,2.32,1.27,4.02v.69ZM1381.43,531.7c-.59.61-.94,1.48-1.05,2.61h6.53c-.03-1.14-.32-2.01-.85-2.62-.54-.61-1.29-.91-2.26-.91s-1.77.31-2.36.92Z"/>
    <path class="cls-20" d="M1390.6,539.54l.62-1.38c.6.48,1.21.82,1.83,1.03.62.21,1.33.31,2.11.31.83,0,1.46-.14,1.9-.43s.66-.7.66-1.23c0-.45-.15-.8-.44-1.06-.29-.26-.78-.47-1.45-.62l-1.89-.44c-.95-.21-1.68-.58-2.19-1.11s-.76-1.17-.76-1.94c0-1,.39-1.81,1.18-2.42.78-.61,1.83-.92,3.14-.92.78,0,1.53.13,2.24.38.71.25,1.3.62,1.78,1.1l-.62,1.36c-1.03-.88-2.16-1.31-3.39-1.31-.78,0-1.4.15-1.83.45s-.66.72-.66,1.26c0,.45.13.8.4,1.07.27.27.7.47,1.3.61l1.91.46c1.05.25,1.82.62,2.33,1.12.51.5.76,1.15.76,1.95,0,.98-.4,1.77-1.19,2.35-.79.58-1.87.88-3.24.88-1.89,0-3.39-.48-4.5-1.45Z"/>
    <path class="cls-20" d="M1401.67,539.54l.62-1.38c.6.48,1.21.82,1.83,1.03.62.21,1.33.31,2.11.31.83,0,1.46-.14,1.9-.43s.66-.7.66-1.23c0-.45-.15-.8-.44-1.06-.29-.26-.78-.47-1.45-.62l-1.89-.44c-.95-.21-1.68-.58-2.19-1.11s-.76-1.17-.76-1.94c0-1,.39-1.81,1.18-2.42.78-.61,1.83-.92,3.14-.92.78,0,1.53.13,2.24.38s1.3.62,1.78,1.1l-.62,1.36c-1.03-.88-2.16-1.31-3.39-1.31-.78,0-1.4.15-1.83.45s-.66.72-.66,1.26c0,.45.13.8.4,1.07.27.27.7.47,1.3.61l1.91.46c1.04.25,1.82.62,2.33,1.12.51.5.76,1.15.76,1.95,0,.98-.4,1.77-1.19,2.35-.79.58-1.87.88-3.24.88-1.89,0-3.39-.48-4.5-1.45Z"/>
    <path class="cls-20" d="M1422.58,540.01c-1.14-.67-2.01-1.63-2.62-2.88-.61-1.25-.91-2.73-.91-4.44s.3-3.18.91-4.43c.61-1.25,1.48-2.2,2.62-2.87s2.48-1,4.01-1c1.12,0,2.15.17,3.09.52s1.75.86,2.44,1.53l-.71,1.45c-.78-.66-1.55-1.14-2.31-1.43-.75-.29-1.58-.44-2.49-.44-1.78,0-3.16.58-4.14,1.74-.98,1.16-1.46,2.8-1.46,4.92s.49,3.79,1.46,4.95c.98,1.16,2.36,1.74,4.14,1.74.91,0,1.74-.15,2.49-.44.75-.29,1.52-.77,2.31-1.43l.71,1.45c-.69.68-1.51,1.19-2.44,1.53-.94.35-1.97.52-3.09.52-1.54,0-2.87-.33-4.01-1Z"/>
    <path class="cls-20" d="M1436.61,540.27c-.81-.48-1.43-1.16-1.87-2.04-.44-.88-.66-1.91-.66-3.08s.22-2.19.66-3.08c.44-.88,1.06-1.56,1.87-2.04s1.74-.71,2.8-.71,2,.24,2.81.71c.81.48,1.44,1.16,1.88,2.04.44.88.66,1.91.66,3.08s-.22,2.2-.66,3.08c-.44.88-1.06,1.56-1.88,2.04-.81.48-1.75.71-2.81.71s-1.99-.24-2.8-.71ZM1441.96,538.35c.59-.73.89-1.79.89-3.19s-.3-2.42-.9-3.17-1.44-1.12-2.54-1.12-1.94.37-2.54,1.12-.9,1.8-.9,3.17.3,2.44.89,3.18c.59.74,1.44,1.11,2.55,1.11s1.96-.36,2.55-1.09Z"/>
    <path class="cls-20" d="M1457.24,533.77v7.06h-1.87v-6.94c0-1.04-.2-1.81-.61-2.28-.41-.48-1.06-.71-1.95-.71-1.03,0-1.85.32-2.47.95-.61.63-.92,1.48-.92,2.56v6.43h-1.87v-11.23h1.84v1.84c.37-.69.88-1.22,1.54-1.58s1.41-.54,2.26-.54c2.69,0,4.04,1.48,4.04,4.45Z"/>
    <path class="cls-20" d="M1466.6,539.42l-.09,1.48c-.35.06-.74.09-1.15.09-1.35,0-2.37-.35-3.06-1.06-.68-.71-1.03-1.69-1.03-2.95v-5.9h-2.19v-1.48h2.19v-3.41h1.87v3.41h3.18v1.48h-3.18v5.76c0,1.77.81,2.65,2.44,2.65.34,0,.68-.02,1.01-.07Z"/>
    <path class="cls-20" d="M1474.86,530.93l-1.22.12c-1.15.11-1.99.47-2.5,1.08-.52.62-.77,1.38-.77,2.28v6.41h-1.87v-11.23h1.82v1.96c.63-1.31,1.87-2.04,3.71-2.19l.67-.05.16,1.61Z"/>
    <path class="cls-20" d="M1478.26,540.27c-.81-.48-1.43-1.16-1.87-2.04-.44-.88-.66-1.91-.66-3.08s.22-2.19.66-3.08c.44-.88,1.06-1.56,1.87-2.04.81-.48,1.74-.71,2.8-.71s2,.24,2.81.71c.81.48,1.44,1.16,1.88,2.04.44.88.66,1.91.66,3.08s-.22,2.2-.66,3.08c-.44.88-1.06,1.56-1.88,2.04-.82.48-1.75.71-2.81.71s-1.99-.24-2.8-.71ZM1483.61,538.35c.59-.73.89-1.79.89-3.19s-.3-2.42-.9-3.17-1.45-1.12-2.54-1.12-1.94.37-2.54,1.12c-.6.75-.9,1.8-.9,3.17s.3,2.44.89,3.18c.59.74,1.44,1.11,2.55,1.11s1.96-.36,2.55-1.09Z"/>
    <path class="cls-20" d="M1489.2,524.57h1.87v16.26h-1.87v-16.26Z"/>
  </g>
</svg>