<?xml version="1.0" encoding="UTF-8"?>
<svg id="Livello_1" data-name="Livello 1" xmlns="http://www.w3.org/2000/svg" xmlns:xlink="http://www.w3.org/1999/xlink" viewBox="0 0 1000 1000">
  <defs>
    <style>
      .cls-1 {
        fill: url(#Sfumatura_senza_nome_14);
      }
    </style>
    <linearGradient id="Sfumatura_senza_nome_14" data-name="Sfumatura senza nome 14" x1="154.26" y1="501.44" x2="829.28" y2="501.44" gradientUnits="userSpaceOnUse">
      <stop offset="0" stop-color="#90e0ef"/>
      <stop offset="1" stop-color="#00b4d8"/>
    </linearGradient>
  </defs>
  <path class="cls-1" d="M818.02,488.73v28.15s.02,7.04.02,7.04c-.02,1.17.05,2.35-.04,3.52l-.28,3.53-.56,7.06-.81,7.01c-.46,4.68-1.28,9.32-1.96,13.97-.32,2.33-.84,4.63-1.25,6.94-.46,2.31-.83,4.63-1.35,6.93l-1.55,6.89c-.27,1.15-.5,2.3-.79,3.44l-.9,3.41-1.79,6.83-2.01,6.77c-1.27,4.54-2.89,8.96-4.36,13.44-.74,2.24-1.63,4.42-2.44,6.63-.85,2.2-1.6,4.43-2.54,6.59-1.83,4.34-3.54,8.73-5.57,12.99-.98,2.14-1.93,4.3-2.93,6.44l-3.13,6.34-1.57,3.17-1.67,3.12-3.35,6.23c-1.15,2.06-2.36,4.08-3.54,6.13-1.2,2.03-2.34,4.1-3.63,6.08-2.52,3.99-4.97,8.03-7.66,11.91-1.33,1.95-2.6,3.94-3.99,5.86l-4.15,5.75c-22.39,30.47-49.98,57.28-81.54,78.62-1.94,1.39-3.99,2.6-5.98,3.91-2.01,1.27-3.99,2.6-6.04,3.82l-6.15,3.64c-1.03.6-2.05,1.23-3.09,1.81l-3.14,1.71-6.29,3.42-6.41,3.2c-4.24,2.2-8.64,4.07-12.99,6.07l-6.39,2.84c-2.16.96-4.36,1.93-6.62,2.86-4.53,1.85-9.25,3.6-14.51,4.73-2.64.55-5.41.96-8.43.96-3-.01-6.31-.44-9.62-1.81-1.65-.66-3.25-1.63-4.72-2.73-.7-.59-1.41-1.2-2.05-1.84-.59-.67-1.25-1.34-1.75-2.05-2.13-2.85-3.4-5.91-4.24-8.81-.11-.39-.18-.77-.22-1.16l-.03-.35c-1.02-13.34-1.08-26.59-.99-39.67.07-13.08.39-26.02.11-38.76-.14-6.37-.38-12.7-.9-18.93-.09-1.61-.27-3.01-.42-4.49-.21-1.45-.36-2.92-.64-4.35-.45-2.9-1.16-5.73-1.89-8.53-3.12-11.16-8.73-21.3-16.56-28.84-4.06-3.91-4.18-10.38-.27-14.44,1.75-1.81,4-2.84,6.32-3.07l.24-.02c13.56-1.36,26.94-3.65,39.85-7.12,12.91-3.46,25.35-8.18,36.7-14.51,11.35-6.32,21.56-14.28,29.99-23.79,8.4-9.5,15.14-20.55,19.69-32.55,1.23-2.98,2.2-6.12,3.24-9.22.5-1.56.9-3.17,1.36-4.75l.67-2.38c.22-.8.39-1.61.58-2.41l1.15-4.84.98-4.89.49-2.45.4-2.47.79-4.94c.84-6.62,1.59-13.27,1.79-19.93.22-3.33.13-6.65.18-9.98-.02-1.66-.11-3.31-.16-4.96l-.08-2.48c-.04-.82-.12-1.64-.18-2.46l-.37-4.92-.6-4.85c-.16-1.63-.47-3.21-.75-4.79l-.42-2.38-.21-1.19-.28-1.16-1.1-4.63c-.44-1.52-.85-3.05-1.37-4.55-.96-3.02-2.12-5.99-3.38-8.93-5.04-11.76-12.29-22.75-20.97-32.61l-.14-.16c-2.59-2.95-3.16-6.98-1.84-10.4,4.9-12.6,6.67-26.66,5.79-40.75-.25-3.52-.56-7.05-1.1-10.57-.23-1.76-.57-3.51-.87-5.27l-.53-2.62-.27-1.31-.28-1.24c-.84-3.5-1.81-7.18-2.81-10.53-.25-.84-.51-1.65-.75-2.33l-.27-.75s-.11-.23.17.27c.11.19.2.27.36.51.16.23.35.46.55.66.49.44.69.62,1.02.83.39.21.48.27.65.35.08.03.17.06.25.08.02.01.04.02.06.03.02,0,.04.01.07.01h.03s-.03,0-.03,0c-.04,0-.09-.02-.13-.03-.05-.02-.19-.02-.27-.04-.17-.04-.48-.05-.75-.07-1.18-.07-2.77,0-4.39.17-1.63.16-3.35.41-5.08.7-3.47.58-7.03,1.37-10.58,2.24-3.54.87-7.13,1.86-10.52,2.92l-1.22.39c-.36.12-.79.27-1.21.43l-2.51.92c-1.67.65-3.34,1.31-5,2.03-13.31,5.69-26.13,13.62-39.5,21.34l-.22.13c-1.77,1.02-3.82,1.21-5.65.69-25.52-7.33-52.09-11.32-78.77-11.78-13.34-.22-26.71.44-39.98,1.98-13.27,1.57-26.45,4.02-39.4,7.37l-.13.03c-1.3.34-2.62.11-3.69-.52-7.1-4.18-14.04-8.46-21.01-12.53-6.97-4.05-13.98-7.9-21.22-11.09-3.62-1.6-7.26-3-11.07-4.33-3.76-1.32-7.53-2.52-11.31-3.46-3.78-.94-7.58-1.67-11.34-1.97-3.76-.29-7.47-.16-10.99.55l2.93-2.5c-5.17,12.92-8.44,26.64-9.24,40.49-.82,13.83,1.04,27.82,5.94,40.67.52,1.35.21,2.82-.68,3.84l-.1.11-3.37,3.85-1.69,1.92-.84.96-.77,1.02-3.05,4.1-1.52,2.05-1.36,2.16-2.71,4.33c-.48.71-.85,1.48-1.25,2.23l-1.19,2.26c-.77,1.52-1.63,2.99-2.33,4.55l-2.03,4.7c-5.35,12.57-8.31,26.12-9.45,39.8-1.15,13.7-.62,27.57,1.38,41.26.56,3.42,1,6.85,1.73,10.23l1,5.1c.36,1.69.79,3.34,1.18,5.02,1.68,6.65,3.69,13.2,6.3,19.51,5.2,12.6,12.37,24.34,21.48,34.36,9.1,10.04,20.05,18.3,31.98,24.81,11.93,6.55,24.88,11.23,38.15,14.64,13.28,3.45,26.97,5.42,40.72,6.59,3.32.28,5.78,3.2,5.49,6.52-.13,1.51-.8,2.84-1.81,3.82l-.13.12c-2.6,2.51-4.98,5.37-7.06,8.41-2.07,3.02-3.9,6.31-5.2,9.53-1.3,3.25-2.2,6.87-3.19,10.89-1,3.99-2.14,8.45-4.25,12.88-.69,1.46-1.86,2.54-3.22,3.15l-.13.06c-8.02,3.57-16.48,6.21-25.24,7.68-8.77,1.39-17.87,1.57-26.89.14-8.99-1.54-17.89-4.77-25.76-9.79l-2.87-2-1.43-1.01c-.47-.34-.92-.74-1.38-1.1-1.86-1.48-3.58-3.08-5.22-4.71-3.27-3.28-6.11-6.78-8.69-10.23-5.16-6.9-9.51-13.6-14.43-18.94-2.46-2.66-5-5.04-7.75-6.92-2.87-1.99-6.12-3.82-9.42-5.39-3.3-1.57-6.72-2.88-10.06-3.81-3.32-.93-6.65-1.44-9.31-1.3-1.33.06-2.46.29-3.24.61-.39.17-.73.32-.98.5-.06.04-.13.09-.2.12.09-.03.16-.08.23-.15.01-.04.24-.2.37-.36.07-.08.14-.17.19-.26.08-.1.2-.25.29-.38.19-.29.29-.57.47-.96.16-.37.21-.78.3-1.13.08-.36.04-.81.07-1.05,0-.14-.01-.29-.03-.43l-.04-.21v-.13c-.02-.16-.11-.38-.13-.47,0-.07-.03-.14-.07-.2.03,0,0-.01.12.14.33.49,1.41,1.63,2.61,2.64,2.47,2.13,5.62,4.29,8.92,6.44,1.67,1.09,3.35,2.15,5.28,3.45.5.34,1,.68,1.63,1.15l.22.17.29.23.57.47.66.61,2.61,2.42,1.3,1.22c.41.42.8.86,1.2,1.3l2.37,2.62c.82.86,1.47,1.81,2.2,2.72l2.13,2.76,1.93,2.83c.64.95,1.3,1.89,1.86,2.85,1.15,1.91,2.36,3.83,3.38,5.73,4.27,7.63,7.71,15.19,11.44,21.89,3.72,6.72,7.7,12.67,12.55,17.39l1.89,1.68c.64.55,1.21,1.15,1.95,1.65l2.09,1.56c.69.53,1.38,1.06,2.14,1.49,2.93,1.9,5.99,3.62,9.24,5.02,6.47,2.86,13.48,4.78,20.74,5.83,14.54,2.1,29.91.87,44.64-2.65,6.07-1.45,12.16,2.29,13.61,8.36.2.84.3,1.68.31,2.51v.12s.11,23.19.11,23.19l.06,11.6.03,5.8v2.9s.02.36.02.36c0,.2,0-.02,0,0,0-.1,0-.13-.01-.19,0-.04,0,0,.05.18l.69,2.66c.17.74.36,1.63.5,2.71.06.58.12,1.14.13,1.81.01.36,0,.64,0,.74l-.02.48c-.07,1.3-.06,2.53-.22,3.89l-.27,2.05-.15,1.02c-.06.35-.16.72-.24,1.08l-.53,2.16c-.15.7-.5,1.5-.76,2.24-.31.76-.52,1.48-.94,2.27-.39.77-.81,1.54-1.24,2.29-1.86,3.02-4.52,5.92-7.68,7.91-3.13,1.97-6.42,3.11-9.47,3.72-2.99.53-5.86.72-8.44.6-1.33-.02-2.54-.17-3.81-.27-1.19-.17-2.43-.3-3.57-.52-1.15-.21-2.31-.42-3.41-.68-1.12-.24-2.21-.52-3.28-.81-8.56-2.31-16.16-5.53-23.48-8.78l-5.34-2.43c-1.67-.75-3.5-1.62-5.31-2.47l-5.42-2.56c-.9-.43-1.81-.84-2.7-1.29l-2.67-1.37c-14.27-7.21-28.07-15.42-41.23-24.59-26.31-18.34-49.98-40.6-69.85-65.89-19.86-25.3-35.97-53.57-47.49-83.6-5.77-15.01-10.46-30.44-14.02-46.12-3.56-15.68-6.05-31.61-7.23-47.65-2.43-32.06-.4-64.48,6.38-95.94,6.85-31.42,18.19-61.91,33.9-89.99,7.85-14.04,16.72-27.5,26.57-40.2,9.86-12.69,20.64-24.66,32.26-35.72,11.62-11.06,24.04-21.25,37.09-30.52,13.08-9.23,26.74-17.54,40.93-24.88,28.4-14.64,58.88-25.19,90.16-31.13,31.28-6,63.35-7.18,94.84-4.08,15.75,1.54,31.35,4.27,46.67,8.01,15.32,3.74,30.36,8.52,45,14.27,58.49,23.08,110.32,62.14,147.46,112.19,9.3,12.49,17.64,25.66,25.05,39.32,7.38,13.68,13.63,27.95,18.92,42.53,5.28,14.6,9.4,29.59,12.49,44.79,3.09,15.21,5.06,30.58,5.93,46.12ZM815.53,488.8c-.94-15.28-2.98-30.61-6.12-45.64-3.14-15.05-7.5-29.83-12.88-44.21-5.37-14.39-11.92-28.32-19.44-41.68-7.54-13.36-16.16-26.08-25.62-38.12-18.89-24.12-41.53-45.14-66.48-62.65-12.45-8.8-25.63-16.52-39.18-23.42-13.57-6.87-27.57-12.83-41.9-17.78-28.7-9.79-58.61-15.78-88.7-17.41-15.04-.84-30.1-.62-45.06.6l-2.8.21-2.8.3-5.59.6c-3.72.43-7.43,1.01-11.14,1.5-3.69.64-7.39,1.24-11.07,1.92l-5.5,1.12c-1.83.37-3.67.72-5.48,1.18-29.17,6.65-57.31,17.38-83.44,31.73-13.08,7.14-25.67,15.23-37.63,24.07-11.98,8.82-23.33,18.46-33.9,28.86-10.58,10.4-20.43,21.51-29.38,33.31-8.94,11.8-16.97,24.28-24.04,37.27-14.12,25.99-24.48,54.02-30.57,82.98-2.99,14.49-4.98,29.18-5.95,43.95-.95,14.77-.86,29.6.29,44.35,2.29,29.51,8.8,58.69,19.31,86.34,20.81,55.43,58.49,104.25,106.86,138.67,12.07,8.64,24.78,16.41,37.98,23.28l2.46,1.31c.83.43,1.67.82,2.51,1.23l5.02,2.45c1.67.82,3.31,1.63,5.15,2.48l5.17,2.43c6.73,3.11,13.4,5.95,19.74,7.73,3.13.87,6.24,1.51,8.71,1.6,1.28.09,2.28-.03,3.1-.13.74-.15,1.11-.34,1.28-.39.13-.07.11-.1.32-.32.03-.09.08-.18.15-.26.08-.05.09-.28.16-.41.05-.17.16-.24.19-.49.05-.22.1-.43.16-.65.03-.11.07-.2.09-.33l.05-.41.12-.82c.09-.55.07-1.27.13-1.89l.02-.24c0-.14,0-.1,0,.02.01.19.01.27.03.37.02.13.02.07-.03-.13-.09-.44-.39-1.45-.72-2.96-.16-.76-.33-1.67-.44-2.67-.05-.54-.1-1.04-.11-1.63v-.73s0-.36,0-.36l.02-2.89.04-5.78.08-11.56.17-23.12,13.92,10.99c-8.62,1.96-17.4,3.23-26.29,3.68-8.89.45-17.89.09-26.87-1.34-8.96-1.43-17.92-3.94-26.39-7.89-4.25-1.94-8.34-4.3-12.24-6.95-1-.62-1.94-1.34-2.87-2.07l-2.8-2.18c-.95-.69-1.82-1.56-2.71-2.37l-2.66-2.48c-6.82-6.89-11.83-14.9-15.88-22.61-4.07-7.76-7.29-15.24-10.91-22.01-.88-1.74-1.84-3.31-2.77-4.94-.45-.83-.96-1.57-1.46-2.34l-1.48-2.3-1.59-2.14c-.54-.7-1.03-1.47-1.63-2.1l-1.72-1.98c-.29-.33-.56-.67-.86-.99l-.93-.9-1.85-1.82-.45-.45s-.02-.01-.02-.02h0s-.08-.08-.08-.08c-.19-.15-.53-.4-.87-.65-1.45-1.03-3.22-2.21-4.95-3.4-3.51-2.43-7.12-4.97-10.81-8.28-.92-.82-1.86-1.75-2.8-2.76-.95-1.05-1.91-2.15-2.89-3.65-.47-.68-.98-1.61-1.43-2.52-.24-.53-.46-1.08-.66-1.62-.21-.57-.39-1.3-.53-1.95l-.11-.51-.08-.6c-.04-.4-.08-.8-.1-1.2-.07-.76.03-1.71.15-2.58.25-1.74.96-3.58,1.84-4.94.22-.35.46-.73.69-1.04.23-.28.46-.56.71-.83.48-.54,1.02-1.1,1.46-1.44.47-.39.94-.76,1.43-1.11l1.11-.69c1.48-.91,3.04-1.57,4.58-2.11,3.09-1.05,6.08-1.41,8.85-1.46,5.56-.07,10.4,1,14.94,2.37,4.53,1.4,8.76,3.19,12.81,5.25,4.06,2.08,7.93,4.38,11.74,7.18,3.95,2.88,7.34,6.27,10.34,9.72,6,6.96,10.37,14.26,14.89,20.61,2.25,3.19,4.53,6.13,6.98,8.75,1.23,1.29,2.48,2.54,3.81,3.65.33.28.64.58.99.85l1.07.79,2.13,1.6c5.88,3.99,12.62,6.7,19.76,8.17,7.17,1.35,14.69,1.46,22.16.51,7.47-1.03,14.87-3.08,21.94-5.99l-3.36,3.2c1.5-2.92,2.57-6.39,3.65-10.28,1.08-3.88,2.24-8.19,4.1-12.49,1.89-4.3,4.19-8.12,6.83-11.77,2.64-3.63,5.6-7.01,8.97-10.08l3.56,10.46c-14.27-1.61-28.51-4.09-42.42-8.04-13.9-3.93-27.53-9.25-40.18-16.51-12.66-7.22-24.28-16.44-33.95-27.44-9.69-11-17.17-23.8-22.53-37.3-2.69-6.75-4.75-13.72-6.43-20.75-.39-1.76-.82-3.52-1.17-5.29l-.97-5.28c-.71-3.51-1.13-7.08-1.66-10.62-1.96-14.2-2.43-28.67-1.12-43.03.19-1.79.28-3.6.55-5.38l.8-5.36.4-2.68.56-2.66,1.12-5.31c.38-1.77.94-3.5,1.4-5.25l.73-2.62c.25-.87.47-1.75.79-2.6l1.81-5.13.92-2.56,1.09-2.5c5.64-13.38,13.64-25.8,23.57-36.42l-.78,3.95c-2.68-6.97-4.54-14.23-5.61-21.59-1.07-7.36-1.37-14.8-1.03-22.2.71-14.8,4.04-29.36,9.37-43.1.51-1.3,1.61-2.2,2.88-2.49h.05c4.46-1,8.97-1.19,13.34-.93,4.38.28,8.63,1.03,12.77,1.99,4.15.97,8.18,2.18,12.13,3.5,3.92,1.29,7.91,2.77,11.78,4.39,7.76,3.22,15.15,7.09,22.37,11.07,7.21,3.99,14.23,8.15,21.29,12.06l-3.82-.48c13.31-3.82,26.88-6.73,40.6-8.72,13.71-2.02,27.57-3.13,41.45-3.33,27.76-.43,55.64,2.76,82.7,9.55l-5.87.82c12.85-7.97,25.82-16.69,40.45-23.55,1.82-.86,3.68-1.68,5.55-2.47l2.83-1.15c.47-.19.94-.38,1.48-.58l1.49-.54c3.87-1.35,7.62-2.51,11.47-3.61,3.84-1.08,7.73-2.08,11.77-2.9,2.03-.41,4.09-.78,6.25-1.07,2.18-.28,4.41-.51,7.05-.47.69.02,1.33.03,2.11.12.39.04.73.06,1.15.13l1.28.23.32.06.38.1.75.21.75.23c.3.12.61.24.91.37.6.27,1.15.5,1.91,1.01.71.48,1.34.89,2.13,1.72.37.38.72.77,1.04,1.18.33.41.5.73.74,1.12.53.9.59,1.12.81,1.55.21.44.32.72.44,1.03l.35.89c.42,1.11.77,2.11,1.1,3.1,1.3,3.94,2.38,7.62,3.45,11.53l.4,1.54.35,1.49.7,2.98c.4,2,.85,3.99,1.18,6.01.74,4.02,1.24,8.1,1.62,12.2.69,8.2.7,16.53-.25,24.85-.89,8.32-2.8,16.63-5.7,24.66l-1.98-10.56c10.14,11.09,18.9,23.71,25.25,37.74,1.57,3.51,3.02,7.09,4.25,10.77.65,1.82,1.19,3.69,1.75,5.55l1.43,5.63.35,1.41.28,1.41.54,2.81c.36,1.88.74,3.76.96,5.63l.77,5.62.51,5.61c.08.94.18,1.87.24,2.81l.13,2.8c.08,1.87.18,3.73.22,5.6-.02,3.72.09,7.45-.12,11.15-.18,7.43-.95,14.8-1.84,22.16l-.84,5.5-.43,2.75-.52,2.74-1.06,5.47-1.29,5.44c-.22.91-.42,1.82-.66,2.72l-.76,2.71c-.52,1.8-.99,3.61-1.56,5.41-1.19,3.58-2.31,7.17-3.76,10.72-5.44,14.34-13.57,27.79-23.92,39.31-10.32,11.55-22.78,20.99-36.12,28.21-13.39,7.19-27.58,12.29-41.93,15.9-14.37,3.61-28.92,5.67-43.42,6.82l6.29-17.54c5.31,5.4,9.82,11.52,13.23,18.08,3.5,6.53,5.98,13.44,7.76,20.44.83,3.51,1.57,7.03,2.03,10.57.28,1.77.42,3.55.62,5.32.12,1.76.29,3.6.33,5.24.33,6.75.34,13.43.26,20.06-.18,13.28-.94,26.34-1.54,39.26-.62,12.92-1.01,25.71-.61,38.35l-.24-1.51c.39,1.61.94,2.95,1.56,3.9.63.96,1.29,1.55,2.3,2.04,1,.49,2.39.83,4.06.91,1.67.09,3.57-.08,5.53-.4,3.94-.66,8.13-1.96,12.33-3.47,2.11-.76,4.23-1.58,6.39-2.43l3.29-1.3,1.69-.65,1.6-.64c4.24-1.73,8.55-3.34,12.71-5.28l6.29-2.81,6.19-3.03,3.1-1.52c1.03-.52,2.03-1.08,3.05-1.62l6.08-3.26c2.03-1.09,3.99-2.3,5.98-3.44,1.98-1.18,4.01-2.27,5.94-3.53,3.88-2.47,7.83-4.86,11.6-7.52,1.9-1.31,3.82-2.58,5.71-3.91l5.58-4.1,2.79-2.05,2.72-2.15,5.44-4.3c1.79-1.46,3.53-2.98,5.3-4.47,1.75-1.51,3.55-2.97,5.23-4.56,3.41-3.12,6.87-6.2,10.13-9.49,1.64-1.63,3.34-3.21,4.94-4.88l4.8-5.03c.79-.84,1.62-1.66,2.39-2.53l2.31-2.59,4.62-5.2,4.44-5.36,2.22-2.68c.74-.89,1.43-1.83,2.14-2.74,11.44-14.61,21.73-30.18,30.42-46.64,8.77-16.41,16.09-33.62,21.75-51.37l2.11-6.66,1.86-6.74.93-3.37c.31-1.12.55-2.26.83-3.4l1.62-6.8c.54-2.27.94-4.57,1.41-6.85.43-2.29.97-4.56,1.3-6.87.71-4.61,1.56-9.2,2.06-13.83l.84-6.94.58-6.95.29-3.47c.09-1.16.03-2.33.05-3.5l.02-7.01v-28.04Z"/>
</svg>