<?xml version="1.0" encoding="UTF-8"?>
<svg id="Livello_1" data-name="Livello 1" xmlns="http://www.w3.org/2000/svg" xmlns:xlink="http://www.w3.org/1999/xlink" viewBox="0 0 1000 1000">
  <defs>
    <style>
      .cls-1 {
        fill: url(#Sfumatura_senza_nome_113-6);
        filter: url(#drop-shadow-55);
      }

      .cls-2 {
        fill: url(#Sfumatura_senza_nome_113-8);
        filter: url(#drop-shadow-59);
      }

      .cls-3 {
        fill: url(#Sfumatura_senza_nome_113-7);
        filter: url(#drop-shadow-56);
      }

      .cls-4 {
        fill: url(#Sfumatura_senza_nome_113-9);
        filter: url(#drop-shadow-60);
      }

      .cls-5 {
        fill: url(#Sfumatura_senza_nome_113-5);
        filter: url(#drop-shadow-54);
      }

      .cls-6 {
        fill: url(#Sfumatura_senza_nome_113-2);
        filter: url(#drop-shadow-51);
      }

      .cls-7 {
        fill: url(#Sfumatura_senza_nome_113-4);
        filter: url(#drop-shadow-53);
      }

      .cls-8 {
        fill: url(#Sfumatura_senza_nome_113-3);
        filter: url(#drop-shadow-52);
      }

      .cls-9 {
        fill: url(#Sfumatura_senza_nome_113-13);
        filter: url(#drop-shadow-66);
      }

      .cls-10 {
        fill: url(#Sfumatura_senza_nome_113-14);
        filter: url(#drop-shadow-68);
      }

      .cls-11 {
        fill: url(#Sfumatura_senza_nome_113-12);
        filter: url(#drop-shadow-65);
      }

      .cls-12 {
        fill: url(#Sfumatura_senza_nome_113-11);
        filter: url(#drop-shadow-64);
      }

      .cls-13 {
        fill: url(#Sfumatura_senza_nome_113-10);
        filter: url(#drop-shadow-61);
      }

      .cls-14 {
        filter: url(#drop-shadow-62);
        stroke: url(#Sfumatura_senza_nome_14-4);
      }

      .cls-14, .cls-15, .cls-16, .cls-17, .cls-18, .cls-19 {
        fill: none;
        stroke-linecap: round;
        stroke-linejoin: round;
        stroke-width: 8px;
      }

      .cls-15 {
        filter: url(#drop-shadow-67);
        stroke: url(#Sfumatura_senza_nome_14-6);
      }

      .cls-16 {
        filter: url(#drop-shadow-63);
        stroke: url(#Sfumatura_senza_nome_14-5);
      }

      .cls-17 {
        filter: url(#drop-shadow-58);
        stroke: url(#Sfumatura_senza_nome_14-3);
      }

      .cls-18 {
        filter: url(#drop-shadow-57);
        stroke: url(#Sfumatura_senza_nome_14-2);
      }

      .cls-19 {
        filter: url(#drop-shadow-49);
        stroke: url(#Sfumatura_senza_nome_14);
      }

      .cls-20 {
        fill: url(#Sfumatura_senza_nome_113);
        filter: url(#drop-shadow-50);
      }
    </style>
    <linearGradient id="Sfumatura_senza_nome_14" data-name="Sfumatura senza nome 14" x1="242.94" y1="345.77" x2="757.06" y2="345.77" gradientUnits="userSpaceOnUse">
      <stop offset="0" stop-color="#90e0ef"/>
      <stop offset="1" stop-color="#00b4d8"/>
    </linearGradient>
    <filter id="drop-shadow-49" x="225.84" y="273.41" width="558" height="154" filterUnits="userSpaceOnUse">
      <feOffset dx="5" dy="5"/>
      <feGaussianBlur result="blur" stdDeviation="8"/>
      <feFlood flood-color="#000" flood-opacity=".2"/>
      <feComposite in2="blur" operator="in"/>
      <feComposite in="SourceGraphic"/>
    </filter>
    <linearGradient id="Sfumatura_senza_nome_113" data-name="Sfumatura senza nome 113" x1="288.76" y1="345.77" x2="322.13" y2="345.77" gradientUnits="userSpaceOnUse">
      <stop offset="0" stop-color="#0077b6"/>
      <stop offset="1" stop-color="#03045e"/>
    </linearGradient>
    <filter id="drop-shadow-50" x="268.84" y="309.41" width="83" height="83" filterUnits="userSpaceOnUse">
      <feOffset dx="5" dy="5"/>
      <feGaussianBlur result="blur-2" stdDeviation="8"/>
      <feFlood flood-color="#000" flood-opacity=".2"/>
      <feComposite in2="blur-2" operator="in"/>
      <feComposite in="SourceGraphic"/>
    </filter>
    <linearGradient id="Sfumatura_senza_nome_113-2" data-name="Sfumatura senza nome 113" x1="358.38" y1="345.77" x2="391.76" y2="345.77" xlink:href="#Sfumatura_senza_nome_113"/>
    <filter id="drop-shadow-51" x="338.84" y="309.41" width="82" height="83" filterUnits="userSpaceOnUse">
      <feOffset dx="5" dy="5"/>
      <feGaussianBlur result="blur-3" stdDeviation="8"/>
      <feFlood flood-color="#000" flood-opacity=".2"/>
      <feComposite in2="blur-3" operator="in"/>
      <feComposite in="SourceGraphic"/>
    </filter>
    <linearGradient id="Sfumatura_senza_nome_113-3" data-name="Sfumatura senza nome 113" x1="428.01" x2="461.38" xlink:href="#Sfumatura_senza_nome_113"/>
    <filter id="drop-shadow-52" x="408.84" y="309.41" width="82" height="83" filterUnits="userSpaceOnUse">
      <feOffset dx="5" dy="5"/>
      <feGaussianBlur result="blur-4" stdDeviation="8"/>
      <feFlood flood-color="#000" flood-opacity=".2"/>
      <feComposite in2="blur-4" operator="in"/>
      <feComposite in="SourceGraphic"/>
    </filter>
    <linearGradient id="Sfumatura_senza_nome_113-4" data-name="Sfumatura senza nome 113" x1="548.92" y1="329.09" x2="589.58" y2="329.09" xlink:href="#Sfumatura_senza_nome_113"/>
    <filter id="drop-shadow-53" x="529.84" y="300.41" width="89" height="67" filterUnits="userSpaceOnUse">
      <feOffset dx="5" dy="5"/>
      <feGaussianBlur result="blur-5" stdDeviation="8"/>
      <feFlood flood-color="#000" flood-opacity=".2"/>
      <feComposite in2="blur-5" operator="in"/>
      <feComposite in="SourceGraphic"/>
    </filter>
    <linearGradient id="Sfumatura_senza_nome_113-5" data-name="Sfumatura senza nome 113" x1="548.92" y1="362.46" x2="589.58" y2="362.46" xlink:href="#Sfumatura_senza_nome_113"/>
    <filter id="drop-shadow-54" x="529.84" y="334.41" width="89" height="66" filterUnits="userSpaceOnUse">
      <feOffset dx="5" dy="5"/>
      <feGaussianBlur result="blur-6" stdDeviation="8"/>
      <feFlood flood-color="#000" flood-opacity=".2"/>
      <feComposite in2="blur-6" operator="in"/>
      <feComposite in="SourceGraphic"/>
    </filter>
    <linearGradient id="Sfumatura_senza_nome_113-6" data-name="Sfumatura senza nome 113" x1="605.68" y1="329.09" x2="706.19" y2="329.09" xlink:href="#Sfumatura_senza_nome_113"/>
    <filter id="drop-shadow-55" x="585.84" y="300.41" width="150" height="67" filterUnits="userSpaceOnUse">
      <feOffset dx="5" dy="5"/>
      <feGaussianBlur result="blur-7" stdDeviation="8"/>
      <feFlood flood-color="#000" flood-opacity=".2"/>
      <feComposite in2="blur-7" operator="in"/>
      <feComposite in="SourceGraphic"/>
    </filter>
    <linearGradient id="Sfumatura_senza_nome_113-7" data-name="Sfumatura senza nome 113" x1="605.68" y1="362.46" x2="706.19" y2="362.46" xlink:href="#Sfumatura_senza_nome_113"/>
    <filter id="drop-shadow-56" x="585.84" y="334.41" width="150" height="66" filterUnits="userSpaceOnUse">
      <feOffset dx="5" dy="5"/>
      <feGaussianBlur result="blur-8" stdDeviation="8"/>
      <feFlood flood-color="#000" flood-opacity=".2"/>
      <feComposite in2="blur-8" operator="in"/>
      <feComposite in="SourceGraphic"/>
    </filter>
    <linearGradient id="Sfumatura_senza_nome_14-2" data-name="Sfumatura senza nome 14" x1="242.94" y1="467.52" x2="353.09" y2="467.52" xlink:href="#Sfumatura_senza_nome_14"/>
    <filter id="drop-shadow-57" x="224.84" y="395.41" width="156" height="154" filterUnits="userSpaceOnUse">
      <feOffset dx="5" dy="5"/>
      <feGaussianBlur result="blur-9" stdDeviation="8"/>
      <feFlood flood-color="#000" flood-opacity=".2"/>
      <feComposite in2="blur-9" operator="in"/>
      <feComposite in="SourceGraphic"/>
    </filter>
    <linearGradient id="Sfumatura_senza_nome_14-3" data-name="Sfumatura senza nome 14" x1="668.73" y1="467.52" x2="757.06" y2="467.52" xlink:href="#Sfumatura_senza_nome_14"/>
    <filter id="drop-shadow-58" x="651.84" y="395.41" width="134" height="153" filterUnits="userSpaceOnUse">
      <feOffset dx="5" dy="5"/>
      <feGaussianBlur result="blur-10" stdDeviation="8"/>
      <feFlood flood-color="#000" flood-opacity=".2"/>
      <feComposite in2="blur-10" operator="in"/>
      <feComposite in="SourceGraphic"/>
    </filter>
    <linearGradient id="Sfumatura_senza_nome_113-8" data-name="Sfumatura senza nome 113" y1="467.52" y2="467.52" xlink:href="#Sfumatura_senza_nome_113"/>
    <filter id="drop-shadow-59" x="268.84" y="431.41" width="83" height="82" filterUnits="userSpaceOnUse">
      <feOffset dx="5" dy="5"/>
      <feGaussianBlur result="blur-11" stdDeviation="8"/>
      <feFlood flood-color="#000" flood-opacity=".2"/>
      <feComposite in2="blur-11" operator="in"/>
      <feComposite in="SourceGraphic"/>
    </filter>
    <linearGradient id="Sfumatura_senza_nome_113-9" data-name="Sfumatura senza nome 113" x1="679.38" y1="450.83" x2="706.19" y2="450.83" xlink:href="#Sfumatura_senza_nome_113"/>
    <filter id="drop-shadow-60" x="659.84" y="422.41" width="76" height="67" filterUnits="userSpaceOnUse">
      <feOffset dx="5" dy="5"/>
      <feGaussianBlur result="blur-12" stdDeviation="8"/>
      <feFlood flood-color="#000" flood-opacity=".2"/>
      <feComposite in2="blur-12" operator="in"/>
      <feComposite in="SourceGraphic"/>
    </filter>
    <linearGradient id="Sfumatura_senza_nome_113-10" data-name="Sfumatura senza nome 113" x1="676.27" y1="484.21" x2="706.19" y2="484.21" xlink:href="#Sfumatura_senza_nome_113"/>
    <filter id="drop-shadow-61" x="656.84" y="455.41" width="79" height="67" filterUnits="userSpaceOnUse">
      <feOffset dx="5" dy="5"/>
      <feGaussianBlur result="blur-13" stdDeviation="8"/>
      <feFlood flood-color="#000" flood-opacity=".2"/>
      <feComposite in2="blur-13" operator="in"/>
      <feComposite in="SourceGraphic"/>
    </filter>
    <linearGradient id="Sfumatura_senza_nome_14-4" data-name="Sfumatura senza nome 14" x1="242.94" y1="598.07" x2="385.9" y2="598.07" xlink:href="#Sfumatura_senza_nome_14"/>
    <filter id="drop-shadow-62" x="225.84" y="525.41" width="186" height="154" filterUnits="userSpaceOnUse">
      <feOffset dx="5" dy="5"/>
      <feGaussianBlur result="blur-14" stdDeviation="8"/>
      <feFlood flood-color="#000" flood-opacity=".2"/>
      <feComposite in2="blur-14" operator="in"/>
      <feComposite in="SourceGraphic"/>
    </filter>
    <linearGradient id="Sfumatura_senza_nome_14-5" data-name="Sfumatura senza nome 14" x1="635.92" y1="598.07" x2="757.06" y2="598.07" xlink:href="#Sfumatura_senza_nome_14"/>
    <filter id="drop-shadow-63" x="618.84" y="525.41" width="166" height="154" filterUnits="userSpaceOnUse">
      <feOffset dx="5" dy="5"/>
      <feGaussianBlur result="blur-15" stdDeviation="8"/>
      <feFlood flood-color="#000" flood-opacity=".2"/>
      <feComposite in2="blur-15" operator="in"/>
      <feComposite in="SourceGraphic"/>
    </filter>
    <linearGradient id="Sfumatura_senza_nome_113-11" data-name="Sfumatura senza nome 113" y1="598.07" y2="598.07" xlink:href="#Sfumatura_senza_nome_113"/>
    <filter id="drop-shadow-64" x="268.84" y="561.41" width="83" height="83" filterUnits="userSpaceOnUse">
      <feOffset dx="5" dy="5"/>
      <feGaussianBlur result="blur-16" stdDeviation="8"/>
      <feFlood flood-color="#000" flood-opacity=".2"/>
      <feComposite in2="blur-16" operator="in"/>
      <feComposite in="SourceGraphic"/>
    </filter>
    <linearGradient id="Sfumatura_senza_nome_113-12" data-name="Sfumatura senza nome 113" x1="665.85" y1="581.39" x2="706.19" y2="581.39" xlink:href="#Sfumatura_senza_nome_113"/>
    <filter id="drop-shadow-65" x="646.84" y="553.41" width="89" height="66" filterUnits="userSpaceOnUse">
      <feOffset dx="5" dy="5"/>
      <feGaussianBlur result="blur-17" stdDeviation="8"/>
      <feFlood flood-color="#000" flood-opacity=".2"/>
      <feComposite in2="blur-17" operator="in"/>
      <feComposite in="SourceGraphic"/>
    </filter>
    <linearGradient id="Sfumatura_senza_nome_113-13" data-name="Sfumatura senza nome 113" x1="654.05" y1="614.75" x2="706.19" y2="614.75" xlink:href="#Sfumatura_senza_nome_113"/>
    <filter id="drop-shadow-66" x="634.84" y="586.41" width="101" height="67" filterUnits="userSpaceOnUse">
      <feOffset dx="5" dy="5"/>
      <feGaussianBlur result="blur-18" stdDeviation="8"/>
      <feFlood flood-color="#000" flood-opacity=".2"/>
      <feComposite in2="blur-18" operator="in"/>
      <feComposite in="SourceGraphic"/>
    </filter>
    <linearGradient id="Sfumatura_senza_nome_14-6" data-name="Sfumatura senza nome 14" x1="354.41" y1="591.79" x2="667.41" y2="591.79" xlink:href="#Sfumatura_senza_nome_14"/>
    <filter id="drop-shadow-67" x="335.84" y="396.41" width="358" height="401" filterUnits="userSpaceOnUse">
      <feOffset dx="5" dy="5"/>
      <feGaussianBlur result="blur-19" stdDeviation="8"/>
      <feFlood flood-color="#000" flood-opacity=".2"/>
      <feComposite in2="blur-19" operator="in"/>
      <feComposite in="SourceGraphic"/>
    </filter>
    <linearGradient id="Sfumatura_senza_nome_113-14" data-name="Sfumatura senza nome 113" x1="439.38" y1="561.69" x2="582.44" y2="561.69" xlink:href="#Sfumatura_senza_nome_113"/>
    <filter id="drop-shadow-68" x="419.84" y="440.41" width="192" height="253" filterUnits="userSpaceOnUse">
      <feOffset dx="5" dy="5"/>
      <feGaussianBlur result="blur-20" stdDeviation="8"/>
      <feFlood flood-color="#000" flood-opacity=".2"/>
      <feComposite in2="blur-20" operator="in"/>
      <feComposite in="SourceGraphic"/>
    </filter>
  </defs>
  <rect class="cls-19" x="246.94" y="297.38" width="506.13" height="96.78" rx="24.79" ry="24.79"/>
  <circle class="cls-20" cx="305.45" cy="345.77" r="16.69"/>
  <circle class="cls-6" cx="375.07" cy="345.77" r="16.69"/>
  <circle class="cls-8" cx="444.69" cy="345.77" r="16.69"/>
  <rect class="cls-7" x="548.92" y="320.19" width="40.66" height="17.79" rx="8.89" ry="8.89"/>
  <rect class="cls-5" x="548.92" y="353.56" width="40.66" height="17.79" rx="8.89" ry="8.89"/>
  <rect class="cls-1" x="605.68" y="320.19" width="100.52" height="17.79" rx="8.89" ry="8.89"/>
  <rect class="cls-3" x="605.68" y="353.56" width="100.52" height="17.79" rx="8.89" ry="8.89"/>
  <path class="cls-18" d="M347.02,478.86c.55,11.72,1.14,24.19,2.07,37.04h-77.36c-13.69,0-24.79-11.1-24.79-24.79v-47.19c0-13.69,11.1-24.79,24.79-24.79h73.37c-1.5,3.75-2.03,7.86-1.48,11.95,1.78,13.17,2.57,29.98,3.4,47.78Z"/>
  <path class="cls-17" d="M753.06,443.92v47.19c0,13.69-11.1,24.79-24.79,24.79h-55.54c.56-7.77,1-15.39,1.37-22.8.25-4.85.47-9.6.69-14.24.06-1.19.11-2.37.17-3.55.25-5.32.51-10.55.79-15.59.35-6.25.75-12.22,1.25-17.78.35-3.83.74-7.47,1.2-10.86.55-4.09.02-8.2-1.48-11.95h51.55c13.69,0,24.79,11.1,24.79,24.79Z"/>
  <circle class="cls-2" cx="305.45" cy="467.52" r="16.69"/>
  <path class="cls-4" d="M706.19,450.83c0,2.45-1,4.68-2.6,6.29-1.61,1.6-3.84,2.6-6.29,2.6h-17.92c.35-6.25,1.12-12.22,1.62-17.78h16.3c4.91,0,8.89,3.98,8.89,8.89Z"/>
  <path class="cls-13" d="M706.19,484.2c0,2.46-1,4.68-2.6,6.29-1.61,1.61-3.84,2.61-6.29,2.61h-21.03c.44-4.81,1-9.66,1.46-14.25.12-1.19.24-2.36.32-3.54h19.25c4.91,0,8.89,3.98,8.89,8.89Z"/>
  <path class="cls-14" d="M381.9,646.46h-110.17c-13.69,0-24.79-11.1-24.79-24.8v-47.19c0-13.69,11.1-24.79,24.79-24.79h80.68c1.78,13.77,4.21,27.62,7.63,41.13,1.85,7.31,3.98,14.51,6.46,21.56h0c1.48,4.2,3.07,8.34,4.8,12.4,3.26,7.65,6.81,14.86,10.6,21.69Z"/>
  <path class="cls-16" d="M753.06,574.47v47.19c0,13.7-11.1,24.8-24.79,24.8h-88.35c3.79-6.83,7.34-14.04,10.6-21.69.16-.37.32-.75.47-1.12,2.43-5.8,4.58-11.74,6.51-17.79,1.63-5.12,3.1-10.33,4.41-15.58,1.48-5.88,2.76-11.82,3.89-17.79,1.44-7.58,2.63-15.21,3.61-22.81h58.86c13.69,0,24.79,11.1,24.79,24.79Z"/>
  <circle class="cls-12" cx="305.45" cy="598.07" r="16.69"/>
  <path class="cls-11" d="M706.19,581.38c0,2.46-1,4.68-2.6,6.3-1.61,1.6-3.84,2.6-6.29,2.6h-31.45c1.48-5.88,2.94-11.82,4.07-17.79h27.38c4.91,0,8.89,3.98,8.89,8.89Z"/>
  <path class="cls-9" d="M706.19,614.75c0,2.46-1,4.69-2.6,6.29-1.61,1.62-3.84,2.61-6.29,2.61h-43.25c2.43-5.8,5.18-11.76,7.11-17.81l36.14.02c4.91,0,8.89,3.98,8.89,8.89Z"/>
  <path class="cls-15" d="M654.74,419.22h-287.66c-5.26,0-9.3,4.64-8.59,9.86,1.18,8.73,1.92,18.66,2.53,29.44.35,6.2.66,12.66.97,19.35h0c.57,12.11,1.17,24.92,2.13,38.03.81,11.12,1.88,22.46,3.4,33.78,1.43,10.69,3.27,21.36,5.69,31.81,2.48,10.78,5.58,21.33,9.47,31.42.77,2.02,1.58,4.01,2.42,5.99,4.22,9.92,8.98,19.06,14.14,27.56,30.97,51.03,76.27,78.97,104.9,114.63,3.48,4.34,10.06,4.34,13.54,0,28.63-35.66,73.93-63.6,104.9-114.63,4.33-7.12,8.37-14.7,12.04-22.81.72-1.56,1.42-3.15,2.1-4.75,1.81-4.26,3.47-8.61,4.98-13.04,1.76-5.1,3.33-10.3,4.72-15.58,1.57-5.85,2.93-11.79,4.11-17.79,1.51-7.54,2.74-15.17,3.76-22.81,1.53-11.32,2.6-22.66,3.4-33.78.57-7.74,1.01-15.36,1.39-22.8.31-6.07.59-12.02.86-17.79.25-5.36.5-10.56.78-15.59.35-6.23.73-12.17,1.22-17.78.39-4.52.84-8.82,1.39-12.86.7-5.22-3.33-9.86-8.59-9.86Z"/>
  <path class="cls-10" d="M566.09,532.39c.17-8.73.29-21.1-.23-26.62-2.49-26.29-27.13-45.03-52.82-46-27.19-1.03-54.42,18.12-57.08,46-.53,5.53-.41,17.89-.23,26.62h-9.22c-3.94,0-7.13,3.19-7.13,7.13v117.01c0,3.94,3.19,7.13,7.13,7.13h128.81c3.94,0,7.13-3.19,7.13-7.13v-117.01c0-3.94-3.19-7.13-7.13-7.13h-9.22ZM520.14,618.68h-18.47l4.74-18.83c-3.39-1.69-5.71-5.22-5.6-9.29.13-5.18,4.27-9.49,9.44-9.82,5.87-.37,10.75,4.28,10.75,10.08,0,3.96-2.29,7.38-5.61,9.04l4.74,18.83h0ZM548.5,531.94h-74.7c-2.83,0-5.13-2.27-5.16-5.1-.07-6-.05-12.36.27-15.79,2.09-22.84,20.63-39.13,41.99-39.49,20.2-.34,40.53,17.95,42.48,39.49.31,3.42.33,9.78.27,15.79-.03,2.83-2.33,5.1-5.16,5.1h0Z"/>
</svg>