<?xml version="1.0" encoding="UTF-8"?>
<svg id="Livello_1" data-name="Livello 1" xmlns="http://www.w3.org/2000/svg" xmlns:xlink="http://www.w3.org/1999/xlink" viewBox="0 0 1268.45 1268.45">
  <defs>
    <style>
      .cls-1 {
        fill: url(#Sfumatura_senza_nome_11);
        filter: url(#drop-shadow-31);
      }
    </style>
    <linearGradient id="Sfumatura_senza_nome_11" data-name="Sfumatura senza nome 11" x1="10.48" y1="620.74" x2="1202.8" y2="620.74" gradientUnits="userSpaceOnUse">
      <stop offset="0" stop-color="#90e0ef"/>
      <stop offset="1" stop-color="#00b4d8"/>
    </linearGradient>
    <filter id="drop-shadow-31" x="-16.85" y="56.34" width="1261" height="1143" filterUnits="userSpaceOnUse">
      <feOffset dx="6.93" dy="6.93"/>
      <feGaussianBlur result="blur" stdDeviation="11.09"/>
      <feFlood flood-color="#000" flood-opacity=".2"/>
      <feComposite in2="blur" operator="in"/>
      <feComposite in="SourceGraphic"/>
    </filter>
  </defs>
  <path class="cls-1" d="M1082.39,506.32l-.03.03-83.97-210.53c22.11-22.57,35.76-53.48,35.76-87.57,0-69.1-56.01-125.12-125.12-125.12-57.61,0-106.12,38.95-120.65,91.94l-198.49,12.15c-17.33-48.31-63.53-82.84-117.78-82.84-69.1,0-125.12,56.01-125.12,125.12,0,25.51,7.65,49.25,20.77,69.03l-189.7,215.12c-13.26-4.78-27.55-7.39-42.45-7.39-69.1,0-125.12,56.01-125.12,125.12s56.02,125.12,125.12,125.12c15.75,0,30.82-2.93,44.7-8.24l191.88,209.69c-15.81,20.95-25.19,47.03-25.19,75.29,0,69.1,56.01,125.12,125.12,125.12,59.56,0,109.4-41.62,122.03-97.36h192.9c12.62,55.75,62.46,97.36,122.03,97.36,69.1,0,125.12-56.01,125.12-125.12s-56.01-125.12-125.12-125.12c-59.56,0-109.4,41.62-122.03,97.36h-192.9c-6.49-28.66-22.82-53.59-45.24-71.04l51.61-73.12c24.65,10.99,51.97,17.11,80.71,17.11,104.65,0,190.38-81.04,197.85-183.79l83.98-13.12c19.33,44.13,63.39,74.95,114.65,74.95,69.1,0,125.12-56.01,125.12-125.12s-53.5-122.55-120.42-125.02ZM226.86,716.94c20.99-22.38,33.84-52.47,33.84-85.56,0-11.87-1.65-23.33-4.74-34.22l161.53-85.98v409.47c-.97.47-1.93.95-2.9,1.46l-187.73-205.17ZM417.5,448.31l-188.19,100.17c-1.33-1.5-2.7-2.98-4.1-4.4l182.7-207.17c3.12,1.87,6.32,3.6,9.59,5.2v106.21ZM827.38,303.05l-92.34,186.03c-17.12-4.81-35.18-7.39-53.84-7.39s-35.9,2.47-52.67,7.08h-.01s-33.19-72.24-33.19-72.24l225.2-119.86c2.2,2.2,4.49,4.33,6.86,6.38ZM596.56,242.43l189.41-11.59c1.16,6.42,2.83,12.67,4.95,18.72l-218.8,116.47-18.94-41.22h-.01c23.88-20.33,40.01-49.46,43.4-82.37ZM473.01,354.6c10.68-.07,21.02-1.48,30.91-4.08l19.12,41.61-50.03,26.63v-64.17ZM497.68,910.75c-7.97-1.65-16.22-2.55-24.68-2.61v-426.52l73.25-38.99,31.35,68.2c-56.86,34.88-94.8,97.61-94.8,169.21,0,60.88,27.44,115.34,70.6,151.74l-55.72,78.96ZM682.16,862.81c-100.93,0-182.75-81.82-182.75-182.75s81.82-182.75,182.75-182.75,182.75,81.82,182.75,182.75-81.82,182.75-182.75,182.75ZM952.65,626.99l-77.31,12.08c-11.29-53.74-44.33-99.47-89.48-127.56h-.01l90.55-182.44c10.41,2.8,21.35,4.31,32.65,4.31,14.64,0,28.67-2.52,41.73-7.14l76.09,190.77c-42.52,18.91-72.53,60.85-74.22,109.98Z"/>
</svg>