<?xml version="1.0" encoding="UTF-8"?>
<svg id="Livello_1" data-name="Livello 1" xmlns="http://www.w3.org/2000/svg" xmlns:xlink="http://www.w3.org/1999/xlink" viewBox="0 0 1268.45 1268.45">
  <defs>
    <style>
      .cls-1 {
        fill: #fff;
        filter: url(#drop-shadow-32);
      }

      .cls-2 {
        fill: url(#Sfumatura_senza_nome_11);
      }

      .cls-3 {
        fill: #00b4d8;
      }

      .cls-4 {
        fill: url(#Sfumatura_senza_nome_11-2);
        filter: url(#drop-shadow-31);
      }
    </style>
    <linearGradient id="Sfumatura_senza_nome_11" data-name="Sfumatura senza nome 11" x1="546.83" y1="299.45" x2="808.08" y2="299.45" gradientUnits="userSpaceOnUse">
      <stop offset="0" stop-color="#90e0ef"/>
      <stop offset="1" stop-color="#00b4d8"/>
    </linearGradient>
    <linearGradient id="Sfumatura_senza_nome_11-2" data-name="Sfumatura senza nome 11" x1="372.02" y1="704.98" x2="982.86" y2="704.98" xlink:href="#Sfumatura_senza_nome_11"/>
    <filter id="drop-shadow-31" x="318.63" y="246.51" width="737" height="937" filterUnits="userSpaceOnUse">
      <feOffset dx="9.66" dy="9.66"/>
      <feGaussianBlur result="blur" stdDeviation="20.69"/>
      <feFlood flood-color="#000" flood-opacity=".25"/>
      <feComposite in2="blur" operator="in"/>
      <feComposite in="SourceGraphic"/>
    </filter>
    <filter id="drop-shadow-32" x="532.63" y="153.51" width="311" height="312" filterUnits="userSpaceOnUse">
      <feOffset dx="9.66" dy="9.66"/>
      <feGaussianBlur result="blur-2" stdDeviation="20.69"/>
      <feFlood flood-color="#000" flood-opacity=".25"/>
      <feComposite in2="blur-2" operator="in"/>
      <feComposite in="SourceGraphic"/>
    </filter>
  </defs>
  <path class="cls-2" d="M800.74,182.41h-246.56c-4.06,0-7.35,3.28-7.35,7.34v219.42c0,4.06,3.3,7.34,7.35,7.34h246.56c4.06,0,7.34-3.28,7.34-7.34v-219.42c0-4.06-3.28-7.34-7.34-7.34Z"/>
  <path class="cls-3" d="M883.88,836.46c.03,10.38-6.98,19.77-16.87,22.9-3.77,1.3-8.01,1.17-11.95,1.18-17.8.15-35.64.36-53.43.72-100.49,2.26-202.32,4.81-302.77,2.95,0,0-2.97-.04-2.97-.04,0,0-.74-.01-.74-.01l-.87-.05c-5.23-.19-10.43-1.97-14.72-4.92-5.72-3.99-9.83-10.12-11.2-16.95-1.04-3.98-.23-14.33-.31-18.58,2.26-102.22,2.28-206.58.46-308.7-.2-14.79,12.08-26.94,26.84-26.99,118.85-1.76,244.72-2.48,363.62-2.22,11.25-.2,21.82,5.98,26.88,16.09,1.65,3.3,2.71,6.92,3,10.6.12,1.86.08,13.14.03,15.33-.16,11.88-.27,35.62-.49,47.49-1.32,86.37-4.62,174.86-4.51,261.21h0ZM882.77,836.46c.15-94.32-3.85-190.61-4.79-284.96-.19-7.36-.16-28.37-.27-35.62.06-3.68-.71-6.77-2.55-9.85-2.87-4.84-8.16-8.09-13.76-8.58,0,0-1.12-.05-1.12-.05l-.57-.03s-.74,0-.74,0c0,0-2.97.01-2.97.01-117.89.24-242.81-.49-360.65-2.23-7.32-.18-14.32,3.66-18.04,10-1.73,2.95-2.66,6.34-2.76,9.78-1.35,78.55-1.8,158.79-.76,237.46.48,22.93.86,63.13,1.57,85.75.4,3.89,2.09,7.62,4.63,10.6,3.36,3.84,8.23,6.36,13.32,6.72.83,0,1.78.09,2.57.05,117.38-2.44,235.84,1.99,353.23,3.58,0,0,5.94.05,5.94.05,0,0,2.97.02,2.97.02,3.41.11,6.78-.26,9.97-1.49,8.7-3.15,14.81-11.98,14.77-21.23h0Z"/>
  <path class="cls-4" d="M971.11,299.47h-142.34v109.7c0,15.45-12.57,28.03-28.03,28.03h-246.56c-15.46,0-28.04-12.58-28.04-28.03v-109.7h-142.36c-6.48,0-11.75,5.27-11.75,11.75v787.52c0,6.48,5.27,11.75,11.75,11.75h199.4l-.02-177.23c0-6.5-5.27-11.75-11.75-11.75h-5.68c-6.5,0-11.75-5.27-11.75-11.75h.01c0-6.5,5.27-11.75,11.75-11.75h224.19c6.5,0,11.75,5.27,11.75,11.75s-5.27,11.75-11.75,11.75h-5.68c-6.5,0-11.75,5.27-11.75,11.75l.02,177.23h198.6c6.5,0,11.75-5.27,11.75-11.75V311.22c0-6.48-5.26-11.75-11.75-11.75ZM900.64,851.25c0,14.08-11.45,25.55-25.55,25.55h-394.55c-14.08,0-25.55-11.46-25.55-25.55v-351.1c0-14.07,11.46-25.53,25.55-25.53h394.55c14.1,0,25.55,11.46,25.55,25.53v351.1Z"/>
  <path class="cls-3" d="M982.86,663.56c63.95-1.2,128.89-1.92,192.89-2.55,5.69-.04,11.26,3.4,13.6,8.64,1.11,2.27,1.46,4.88,1.42,7.38.83,103.24,1.49,212.52,1.59,315.63-.06,25.01.18,80.67.02,105.21.39,9.54-7.27,17.67-16.93,17.46-133.54-.51-269.96-2.6-403.3-3.06,0,0-1.79,0-1.79,0,0,0,0-1.77,0-1.77.2-57.29.11-115.61-.1-172.96-.02-.73-.01-4.05-.02-4.71,0-4.03,1.88-7.96,4.98-10.51,2.26-1.83,5.11-2.99,8.04-3.09,2.41-.11,5.15.04,7.38-.12,11.1-1.5,11.55-17.32.34-19.17-57.21.08-157.67,1.18-213.99,1.58-1.78.02-9.38.08-11.28.1-4.27-.18-8.11,3.51-7.98,7.8,0,0-.02,4.08-.02,4.08,0,0-4.1.03-4.11.03,0,0,4.11-4.11,4.11-4.11.03,3,1.93,5.82,4.71,6.95,1.54.67,3.47.56,5.12.54,0,0,3.44-.02,3.44-.02,8.41-.22,16.01,6.99,16.18,15.41.15,8.88.33,58.3.41,68.11,0,0,.44,110.09.44,110.09l.02,5.19c-123.36.42-287.35.93-410.7.61-3.9.12-7.97-.9-11.16-3.22-4.96-3.41-7.75-9.52-7.41-15.49.16-61.59.75-173.17,1.1-235.83.4-38.36.98-149.43,1.48-186.27.13-7.78,7.05-14.55,14.86-14.36,0,0,.53,0,.53,0,0,0,2.07.02,2.07.02,4.68.07,19.8.19,24.82.25,54.94.64,110.67,1.22,165.5,2.16,0,0,0,1.1,0,1.1-63.09,1.02-127.19,1.79-190.32,2.42,0,0-2.07.02-2.07.02-1.55,0-3.19.29-4.55,1.08-2.97,1.67-4.78,4.98-4.48,8.41,0,0,.01,1.03.01,1.03,0,0,.02,2.07.02,2.07,1.08,115.37,1.97,265.28,2.4,380.65,0,0,.11,33.1.11,33.1,0,0,.01,4.14.01,4.14,0,0,0,1.03,0,1.03s.03.59.03.59c.04.35.07.7.18,1.03.35,1.34,1.2,2.58,2.36,3.38,1.28.96,2.95,1.14,4.5,1.07,0,0,8.27-.02,8.27-.02,0,0,132.4-.11,132.4-.11,66.1.02,198.74.53,264.8.71,0,0-5.21,5.21-5.21,5.21.16-42.71.49-133.83.77-175.46,0-.33,0-1.84.01-2.14.07-3.17-2.15-6.23-5.23-7.13-1.99-.55-3.71-.28-5.61-.36,0,0-1.72-.01-1.72-.01h-.43c-8.55.13-16.11-7.43-15.9-15.99,0,0-.05-4.15-.05-4.15.01,0,4.16.03,4.17.04,0,0-4.11,4.11-4.11,4.11-.04-7.27,5.43-13.99,12.58-15.38,1.98-.48,5.33-.28,7.39-.29,23.26.2,73.95.63,97.76.83,0,0,120.32.91,120.32.91,0,0,1.88.01,1.88.01,10.4-.11,17.32,11.38,12.23,20.52-2.13,3.88-6.17,6.59-10.57,7.05-2.12.17-3.9.04-5.86.07-5.49-.58-10.75,3.35-11.18,8.94-.36,59.19-.29,119.29-.13,178.44,0,0-1.78-1.78-1.78-1.78,130.86-.4,265.04-2.54,396.08-3.02,0,0,4.13-.02,4.13-.02,0,0,2.06-.01,2.06-.01h1.03s.26,0,.26,0c0,0,.16-.01.16-.01,3.73-.05,6.97-3.49,6.7-7.25,0,0,0-.52,0-.52,0,0,0-2.06,0-2.06,0,0,0-4.13,0-4.13-.26-75.23.21-156.05.43-231.05-.13-55.22.97-128.62,1.19-183.6.38-5.64-3.42-10.1-9.47-9.82-15.21-.2-44.17-.41-59.82-.62-44.01-.53-88.02-1.09-132.03-1.92,0,0,0-1.1,0-1.1h0Z"/>
  <path class="cls-1" d="M770.53,330.97c0,5.13-4.16,9.28-9.28,9.28h-33.35c-5.13,0-9.28,4.15-9.28,9.28v33.35c0,5.13-4.16,9.28-9.28,9.28h-63.04c-5.13,0-9.28-4.16-9.28-9.28v-33.35c0-5.13-4.16-9.28-9.28-9.28h-33.35c-5.13,0-9.28-4.16-9.28-9.28v-63.04c0-5.13,4.16-9.28,9.28-9.28h33.35c5.13,0,9.28-4.15,9.28-9.28v-33.35c0-5.13,4.16-9.28,9.28-9.28h63.04c5.13,0,9.28,4.16,9.28,9.28v33.35c0,5.13,4.16,9.28,9.28,9.28h33.35c5.13,0,9.28,4.16,9.28,9.28v63.04Z"/>
</svg>