<?xml version="1.0" encoding="UTF-8"?>
<svg id="Livello_1" data-name="Livello 1" xmlns="http://www.w3.org/2000/svg" xmlns:xlink="http://www.w3.org/1999/xlink" viewBox="0 0 1000 1000">
  <defs>
    <style>
      .cls-1 {
        filter: url(#drop-shadow-16);
      }

      .cls-1, .cls-2 {
        fill: #fff;
      }

      .cls-3 {
        fill: url(#Sfumatura_senza_nome_11);
      }

      .cls-4 {
        fill: #00b4d8;
      }

      .cls-5 {
        fill: url(#Sfumatura_senza_nome_11-2);
        filter: url(#drop-shadow-15);
      }

      .cls-6 {
        fill: url(#Sfumatura_senza_nome_113-2);
      }

      .cls-7 {
        fill: url(#Sfumatura_senza_nome_113);
      }
    </style>
    <linearGradient id="Sfumatura_senza_nome_113" data-name="Sfumatura senza nome 113" x1="361.34" y1="513.61" x2="523.35" y2="513.61" gradientUnits="userSpaceOnUse">
      <stop offset="0" stop-color="#0077b6"/>
      <stop offset="1" stop-color="#03045e"/>
    </linearGradient>
    <linearGradient id="Sfumatura_senza_nome_113-2" data-name="Sfumatura senza nome 113" x1="454.3" y1="602.16" x2="616.31" y2="602.16" xlink:href="#Sfumatura_senza_nome_113"/>
    <linearGradient id="Sfumatura_senza_nome_11" data-name="Sfumatura senza nome 11" x1="389.78" y1="286.92" x2="579.18" y2="286.92" gradientUnits="userSpaceOnUse">
      <stop offset="0" stop-color="#90e0ef"/>
      <stop offset="1" stop-color="#00b4d8"/>
    </linearGradient>
    <linearGradient id="Sfumatura_senza_nome_11-2" data-name="Sfumatura senza nome 11" x1="263.05" y1="580.92" x2="705.89" y2="580.92" xlink:href="#Sfumatura_senza_nome_11"/>
    <filter id="drop-shadow-15" x="225" y="248.07" width="533" height="679" filterUnits="userSpaceOnUse">
      <feOffset dx="7" dy="7"/>
      <feGaussianBlur result="blur" stdDeviation="15"/>
      <feFlood flood-color="#000" flood-opacity=".25"/>
      <feComposite in2="blur" operator="in"/>
      <feComposite in="SourceGraphic"/>
    </filter>
    <filter id="drop-shadow-16" x="379" y="181.07" width="225" height="226" filterUnits="userSpaceOnUse">
      <feOffset dx="7" dy="7"/>
      <feGaussianBlur result="blur-2" stdDeviation="15"/>
      <feFlood flood-color="#000" flood-opacity=".25"/>
      <feComposite in2="blur-2" operator="in"/>
      <feComposite in="SourceGraphic"/>
    </filter>
  </defs>
  <g>
    <path class="cls-7" d="M523.35,460.23v106.75c0,2.63-2.14,4.76-4.76,4.76h0s-152.5,0-152.5,0c-2.62,0-4.76-2.14-4.76-4.76v-97.29c0-2.63,2.14-4.76,4.76-4.76h90.7c1.4,0,2.74-.62,3.64-1.7l5.1-6.08c.91-1.07,2.24-1.7,3.65-1.7h49.41c2.63,0,4.76,2.13,4.76,4.76Z"/>
    <rect class="cls-2" x="394.08" y="501.02" width="96.54" height="8.2" rx="4.1" ry="4.1"/>
    <rect class="cls-2" x="394.08" y="517.71" width="96.54" height="8.2" rx="4.1" ry="4.1"/>
    <rect class="cls-2" x="394.08" y="534.39" width="96.54" height="8.2" rx="4.1" ry="4.1"/>
    <path class="cls-6" d="M616.31,548.78v106.75c0,2.63-2.14,4.76-4.76,4.76h0s-152.5,0-152.5,0c-2.62,0-4.76-2.14-4.76-4.76v-83.79h64.29c2.62,0,4.76-2.14,4.76-4.76v-13.49h26.41c1.4,0,2.74-.61,3.64-1.7l5.1-6.08c.91-1.08,2.24-1.7,3.65-1.7h49.41c2.63,0,4.76,2.14,4.76,4.76Z"/>
    <rect class="cls-2" x="487.04" y="589.58" width="96.54" height="8.2" rx="4.1" ry="4.1"/>
    <rect class="cls-2" x="487.04" y="606.26" width="96.54" height="8.2" rx="4.1" ry="4.1"/>
    <rect class="cls-2" x="487.04" y="622.94" width="96.54" height="8.2" rx="4.1" ry="4.1"/>
  </g>
  <path class="cls-3" d="M573.86,202.07h-178.75c-2.94,0-5.33,2.38-5.33,5.32v159.07c0,2.94,2.39,5.32,5.33,5.32h178.75c2.94,0,5.32-2.38,5.32-5.32v-159.07c0-2.94-2.38-5.32-5.32-5.32Z"/>
  <path class="cls-4" d="M634.13,676.24c.15,9.01-7.55,17.11-16.56,17.4-2.37.18-6.19,0-8.63.11-11.48.16-22.95.22-34.43.48-74.25,1.67-148.55,3.5-222.82,2.06-8.94-.24-17.12-7.06-18.79-15.86-.75-2.9-.17-10.38-.23-13.47,1.17-56.45,1.64-115.78,1.03-172.15-.19-11.14-.51-40.19-.7-51.65-.24-10.58,8.9-19.64,19.46-19.57,83.61-1.24,173.48-1.74,257.16-1.61,0,0,4.3.02,4.3.02h2.15s.54.01.54.01c10.74-.05,20.32,8.54,21.1,19.32.19,19.58-.34,43.14-.61,62.76-1.11,56.4-2.99,115.7-2.97,172.15h0ZM633.33,676.24c0-56.47-1.84-115.74-2.97-172.15-.4-18.65-.56-41.63-.69-60.25.31-7.31-5.76-13.54-13.07-13.44,0,0-.54,0-.54,0h-2.15c-84.8.21-175.63-.34-260.38-1.56-8.41-.72-16.02,5.75-16.15,14.33,0,0-.47,34.43-.47,34.43-.07,8.61-.37,25.83-.36,34.43-.46,54.05.19,111.37,1.42,165.46.65,6.9,6.97,12.64,13.9,12.58,4.17.03,11.76-.18,16.04-.19,80.35-1.29,160.68,1.77,241.02,2.78,4.25-.08,8.58.52,12.69-.69,6.76-2.04,11.74-8.63,11.7-15.72h0Z"/>
  <path class="cls-5" d="M697.37,286.93h-103.19v79.53c0,11.2-9.11,20.32-20.32,20.32h-178.75c-11.21,0-20.33-9.12-20.33-20.32v-79.53h-103.21c-4.7,0-8.52,3.82-8.52,8.52v570.93c0,4.7,3.82,8.52,8.52,8.52h144.56v-128.49c-.01-4.71-3.83-8.52-8.53-8.52h-4.12c-4.71,0-8.52-3.82-8.52-8.52h0c0-4.71,3.82-8.52,8.52-8.52h162.53c4.71,0,8.52,3.82,8.52,8.52s-3.82,8.52-8.52,8.52h-4.12c-4.71,0-8.52,3.82-8.52,8.52v128.49h143.99c4.71,0,8.52-3.82,8.52-8.52V295.45c0-4.7-3.81-8.52-8.52-8.52ZM646.29,686.96c0,10.21-8.3,18.52-18.52,18.52h-286.04c-10.21,0-18.52-8.31-18.52-18.52v-254.54c0-10.2,8.31-18.51,18.52-18.51h286.04c10.22,0,18.52,8.31,18.52,18.51v254.54Z"/>
  <path class="cls-4" d="M705.89,550.89c46.11-.87,92.94-1.38,139.09-1.84,4.37-.28,8.81,2.19,10.61,6.26.8,1.65,1.06,3.54,1.03,5.35.55,39.79.56,93.11.87,133.11.3,55.35.35,112.09.3,167.5,0,0,0,2.99,0,2.99v1.5c.33,6.41-4.8,12.37-11.3,12.63-94.2-.19-199.13-1.91-293.35-2.18,0,0-1.3,0-1.3,0v-1.29s.08-43.61.08-43.61c0-14.66-.05-51.3-.07-65.42.02-5.79-.14-14.87-.05-20.56.31-4.82,4.57-8.94,9.4-9.07,3.27-.15,6.89.57,9.38-1.98,4.26-3.84,1.93-11.32-3.78-12.01-.58-.12-1.85-.06-2.49-.07-44.65.39-117.85.76-161.82,1.34-2.71.33-4.89,2.89-4.8,5.59,0,0,.08,2.96.08,2.96,0,0-3.07.03-3.07.03,0,0,2.98-2.98,2.98-2.98-.01,2.89,2.47,5.44,5.36,5.44.31.02,1.43,0,1.77,0,0,0,2.49-.02,2.49-.02,4.58-.08,8.99,2.8,10.78,7.02.86,1.92,1.03,4.06.98,6.14.21,29.92.46,96.63.57,127.2,0,0,.01,3.74.01,3.74h-3.77c-95.09.2-199.35.84-293.95.43-7.31.36-13.89-5.59-13.43-13.53,0,0,0-3,0-3,.06-14.97.16-56.42.24-71.99.33-75.9.83-152.05,1.55-227.97.02-2.21-.11-4.65.83-6.76.96-2.35,2.76-4.32,4.99-5.49,2.06-1.17,4.56-1.29,6.88-1.19,10.28.05,31.37.37,41.99.45,32,.43,63.99.75,95.99,1.3v.8c-45.74.72-92.21,1.28-137.98,1.75,0,0-1.5.02-1.5.02-1.12,0-2.31.21-3.3.78-1.3.72-2.32,1.9-2.84,3.26-.66,1.62-.33,3.33-.38,5.08,0,0,.11,12,.11,12,.85,96.47,1.45,194.42,1.68,290.96-.09,1.66.39,3.46,1.88,4.41.92.7,2.16.83,3.28.78,94.46-.26,198.94.06,293.95.42,0,0-3.76,3.76-3.76,3.76.1-29.6.33-95.93.53-124.71-.05-1.32.09-3.35,0-4.64-.2-2.66-2.66-4.85-5.34-4.82,0,0-2.49-.02-2.49-.02h-1.25c-6.31.25-12-5.27-11.84-11.6,0,0-.03-3.01-.03-3.01,0,0,3.02.03,3.02.03,0,0-2.98,2.98-2.98,2.98-.07-6.24,5.52-11.67,11.75-11.39,0,0,2.73.02,2.73.02,41.96.38,115.46.94,158.1,1.25,6.81-.6,12.52,5,11.29,11.89-.72,4.26-4.44,7.7-8.73,8.12-3.38.31-6.95-.73-9.73,1.63-1.64,1.33-2.63,3.37-2.65,5.48,0,.69-.02,2.72-.02,3.4-.01,22.36-.18,59.11-.13,81.78,0,0,.09,43.61.09,43.61l-1.3-1.3c93.08-.3,197.06-1.89,290.14-2.2,0,0,1.5,0,1.5,0h.75s.19,0,.19,0h.12c2.85-.06,5.21-2.77,4.87-5.64,0,0,0-1.5,0-1.5v-2.99c-.08-70.8.13-144.47.53-215.36.11-22.53.46-63.01.63-85.25.26-3.68-2.13-7.03-6.12-7.11,0,0-.74,0-.74,0h-1.5c-10.28-.16-31.26-.3-41.88-.45-31.91-.38-63.81-.79-95.72-1.39v-.8h0Z"/>
  <path class="cls-1" d="M551.96,309.77c0,3.72-3.01,6.73-6.73,6.73h-24.18c-3.72,0-6.73,3.01-6.73,6.73v24.18c0,3.72-3.01,6.73-6.73,6.73h-45.7c-3.72,0-6.73-3.01-6.73-6.73v-24.18c0-3.72-3.01-6.73-6.73-6.73h-24.18c-3.72,0-6.73-3.01-6.73-6.73v-45.7c0-3.72,3.01-6.73,6.73-6.73h24.18c3.72,0,6.73-3.01,6.73-6.73v-24.18c0-3.72,3.01-6.73,6.73-6.73h45.7c3.72,0,6.73,3.01,6.73,6.73v24.18c0,3.72,3.01,6.73,6.73,6.73h24.18c3.72,0,6.73,3.01,6.73,6.73v45.7Z"/>
</svg>