<?xml version="1.0" encoding="UTF-8"?>
<svg id="Livello_1" data-name="Livello 1" xmlns="http://www.w3.org/2000/svg" xmlns:xlink="http://www.w3.org/1999/xlink" viewBox="0 0 1268.45 1268.45">
  <defs>
    <style>
      .cls-1 {
        fill: url(#Sfumatura_senza_nome_113);
      }
    </style>
    <linearGradient id="Sfumatura_senza_nome_113" data-name="Sfumatura senza nome 113" x1="511.1" y1="-5070.36" x2="842.74" y2="-5070.36" gradientTransform="translate(0 -4393.44) scale(1 -1)" gradientUnits="userSpaceOnUse">
      <stop offset="0" stop-color="#0077b6"/>
      <stop offset="1" stop-color="#03045e"/>
    </linearGradient>
  </defs>
  <path class="cls-1" d="M809.24,645.1l-23.35-58.56c6.15-6.28,9.95-14.87,9.95-24.36,0-19.22-15.58-34.8-34.8-34.8-16.02,0-29.52,10.83-33.56,25.57l-55.21,3.38c-4.82-13.44-17.67-23.04-32.76-23.04-19.22,0-34.8,15.58-34.8,34.8,0,7.1,2.13,13.7,5.78,19.2l-52.76,59.83c-3.69-1.33-7.66-2.06-11.81-2.06-19.22,0-34.8,15.58-34.8,34.8s15.58,34.8,34.8,34.8c4.38,0,8.57-.81,12.43-2.29l53.37,58.33c-4.4,5.83-7.01,13.08-7.01,20.94,0,19.22,15.58,34.8,34.8,34.8,16.57,0,30.43-11.58,33.94-27.08h53.66c3.51,15.51,17.37,27.08,33.94,27.08,19.22,0,34.8-15.58,34.8-34.8s-15.58-34.8-34.8-34.8c-16.57,0-30.43,11.58-33.94,27.08h-53.66c-1.8-7.97-6.35-14.91-12.58-19.76l14.35-20.34c6.86,3.06,14.45,4.76,22.45,4.76,29.11,0,52.95-22.54,55.03-51.12l23.36-3.65c5.38,12.28,17.63,20.85,31.89,20.85,19.22,0,34.8-15.58,34.8-34.8s-14.88-34.09-33.49-34.77h0ZM726.76,646.54l25.19-50.74c2.9.78,5.94,1.2,9.08,1.2,4.07,0,7.98-.7,11.61-1.99l21.16,53.06c-11.83,5.26-20.17,16.93-20.64,30.59l-21.5,3.36c-3.14-14.95-12.33-27.67-24.89-35.48h0ZM624.31,760.34c-.27.13-.54.27-.81.41l-52.22-57.07c5.84-6.22,9.41-14.59,9.41-23.8,0-3.3-.46-6.49-1.32-9.52l44.93-23.91v113.89h0ZM571.97,656.82c-.37-.42-.75-.83-1.14-1.23l50.82-57.62c.87.52,1.76,1,2.67,1.45v29.54l-52.35,27.86h0ZM639.75,602.89c2.97-.02,5.85-.41,8.6-1.13l5.32,11.57-13.91,7.41v-17.85ZM662.04,594.61c6.64-5.65,11.13-13.76,12.07-22.91l52.68-3.22c.32,1.79.79,3.52,1.38,5.21l-60.86,32.39-5.27-11.47h0ZM646.61,757.58c-2.22-.46-4.51-.71-6.86-.73v-118.63l20.37-10.84,8.72,18.97c-15.82,9.7-26.37,27.15-26.37,47.06,0,16.93,7.63,32.08,19.64,42.21l-15.5,21.96h0ZM683,640.21l-9.23-20.09,62.64-33.34c.61.61,1.25,1.2,1.91,1.77l-25.68,51.74c-4.76-1.34-9.78-2.06-14.97-2.06s-9.98.69-14.65,1.97h0Z"/>
</svg>