<?xml version="1.0" encoding="UTF-8"?>
<svg id="Livello_1" data-name="Livello 1" xmlns="http://www.w3.org/2000/svg" xmlns:xlink="http://www.w3.org/1999/xlink" viewBox="0 0 1000 1000">
  <defs>
    <style>
      .cls-1 {
        filter: url(#drop-shadow-17);
      }

      .cls-1, .cls-2 {
        fill: #fff;
      }

      .cls-3 {
        fill: url(#Sfumatura_senza_nome_14);
      }

      .cls-4 {
        fill: url(#Sfumatura_senza_nome_11);
      }

      .cls-5 {
        fill: url(#Sfumatura_senza_nome_11-4);
      }

      .cls-6 {
        fill: url(#Sfumatura_senza_nome_11-3);
      }

      .cls-7 {
        fill: url(#Sfumatura_senza_nome_11-2);
      }

      .cls-2 {
        filter: url(#drop-shadow-3);
        stroke: #00b4d8;
        stroke-miterlimit: 10;
        stroke-width: 8px;
      }

      .cls-8 {
        fill: url(#Sfumatura_senza_nome_113);
      }
    </style>
    <linearGradient id="Sfumatura_senza_nome_14" data-name="Sfumatura senza nome 14" x1="252.41" y1="570.65" x2="743.46" y2="570.65" gradientUnits="userSpaceOnUse">
      <stop offset="0" stop-color="#90e0ef"/>
      <stop offset="1" stop-color="#00b4d8"/>
    </linearGradient>
    <linearGradient id="Sfumatura_senza_nome_11" data-name="Sfumatura senza nome 11" x1="255.25" y1="2530.25" x2="744.75" y2="2530.25" gradientTransform="translate(0 2848.82) scale(1 -1)" gradientUnits="userSpaceOnUse">
      <stop offset="0" stop-color="#90e0ef"/>
      <stop offset="1" stop-color="#00b4d8"/>
    </linearGradient>
    <linearGradient id="Sfumatura_senza_nome_11-2" data-name="Sfumatura senza nome 11" x1="259.91" y1="2361.1" x2="742.01" y2="2361.1" xlink:href="#Sfumatura_senza_nome_11"/>
    <linearGradient id="Sfumatura_senza_nome_11-3" data-name="Sfumatura senza nome 11" x1="257.01" y1="2198.86" x2="738.94" y2="2198.86" xlink:href="#Sfumatura_senza_nome_11"/>
    <filter id="drop-shadow-3" x="469.87" y="527.02" width="367" height="403" filterUnits="userSpaceOnUse">
      <feOffset dx="7" dy="7"/>
      <feGaussianBlur result="blur" stdDeviation="15"/>
      <feFlood flood-color="#000" flood-opacity=".25"/>
      <feComposite in2="blur" operator="in"/>
      <feComposite in="SourceGraphic"/>
    </filter>
    <linearGradient id="Sfumatura_senza_nome_113" data-name="Sfumatura senza nome 113" x1="582.64" y1="693.07" x2="710.06" y2="693.07" gradientUnits="userSpaceOnUse">
      <stop offset="0" stop-color="#0077b6"/>
      <stop offset="1" stop-color="#03045e"/>
    </linearGradient>
    <linearGradient id="Sfumatura_senza_nome_11-4" data-name="Sfumatura senza nome 11" x1="187.03" y1="296.6" x2="446.68" y2="296.6" gradientTransform="matrix(1,0,0,1,0,0)" xlink:href="#Sfumatura_senza_nome_11"/>
    <filter id="drop-shadow-17" x="186.84" y="166.41" width="275" height="275" filterUnits="userSpaceOnUse">
      <feOffset dx="7" dy="7"/>
      <feGaussianBlur result="blur-2" stdDeviation="15"/>
      <feFlood flood-color="#000" flood-opacity=".25"/>
      <feComposite in2="blur-2" operator="in"/>
      <feComposite in="SourceGraphic"/>
    </filter>
  </defs>
  <g>
    <path class="cls-3" d="M736.48,766.82c.05.24.1.45.13.66.01.1.02.2.01.31,0,.11-.04.31-.07.46-.09.65-.2,1.29-.39,1.92-.31,1.27-.84,2.46-1.42,3.62-1.2,2.29-2.83,4.3-4.6,6.11-3.57,3.62-7.8,6.42-12.12,8.95-8.7,5-18.05,8.62-27.48,11.84-18.93,6.32-38.42,10.7-58,14.34-39.22,7.15-79.01,11.12-118.9,12.71-39.89,1.56-79.95.64-119.79-3.72-9.96-1.1-19.91-2.4-29.82-4.01-4.96-.8-9.91-1.66-14.85-2.59-4.94-.95-9.87-1.98-14.79-3.09-9.84-2.21-19.63-4.81-29.31-7.98-4.84-1.58-9.65-3.34-14.41-5.32-4.76-1.98-9.48-4.16-14.09-6.77-4.6-2.61-9.12-5.62-13.28-9.54-2.07-1.98-4.04-4.22-5.68-6.93-1.63-2.68-2.91-5.91-3.27-9.39-.03-.44-.05-.87-.07-1.31l-.02-.66c0-.24,0-.33,0-.51l.03-1.86.06-3.72.13-7.45.3-14.9,1.2-59.58,1.02-59.58c.28-19.86.47-39.72.56-59.58.4-79.44-.56-158.89-2.03-238.33l-.08-4.3,4.46-.08,59.51-1.03,59.51-.85,59.51-.54,59.51-.43,119.01-.73c39.67-.11,79.34-.17,119.01.04l7.97.04-.05,7.88-.32,55.67-.23,27.84c-.08,9.28-.19,18.56-.33,27.84-.24,18.56-.6,37.11-.99,55.67l-1.37,55.67-1.48,55.67c-.49,18.56-.95,37.11-1.3,55.67-.73,37.11-1.13,74.23-1.16,111.34l-.74.75c.17,0,.4-.09.52-.22ZM735.42,765.76c.12-.13.35-.23.53-.22l-.74.75c-.03-37.11-.43-74.23-1.16-111.34-.35-18.56-.81-37.11-1.3-55.67l-1.48-55.67-1.37-55.67c-.39-18.56-.75-37.11-.99-55.67-.14-9.28-.25-18.56-.33-27.84l-.23-27.84-.32-55.67,7.92,7.92c-39.67.21-79.34.15-119.01.04l-119.01-.73-59.51-.43-59.51-.54-59.51-.85-59.51-1.03,4.38-4.38c-1.48,79.44-2.44,158.89-2.03,238.33.1,19.86.29,39.72.56,59.58l1.02,59.58,1.2,59.58.3,14.9.13,7.45.06,3.72.03,1.86c0,.14,0,.35.01.42l.03.27.04.55c.22,1.45.82,2.95,1.81,4.47.99,1.52,2.35,3.01,3.92,4.41,3.17,2.8,7.03,5.26,11.14,7.4,8.22,4.35,17.32,7.63,26.53,10.52,9.24,2.86,18.71,5.2,28.26,7.29,9.55,2.07,19.2,3.83,28.89,5.41,9.7,1.53,19.44,2.9,29.21,4.07,19.55,2.32,39.2,4.04,58.9,5.2,9.85.63,19.71,1.03,29.58,1.41,9.87.37,19.75.57,29.64.64,19.77.15,39.56-.18,59.32-1.25,19.76-1.07,39.5-2.77,59.11-5.56,9.8-1.4,19.57-3.04,29.25-5.08,9.69-2.02,19.3-4.42,28.74-7.38,9.42-2.96,18.71-6.52,27.32-11.29,4.27-2.43,8.39-5.19,11.82-8.63,1.7-1.72,3.24-3.62,4.35-5.73.53-1.06,1.02-2.15,1.3-3.3.18-.57.27-1.15.35-1.73.02-.16.05-.26.07-.46.02-.21.04-.41.06-.62.05-.41.14-.82.23-1.2Z"/>
    <ellipse class="cls-4" cx="500" cy="318.57" rx="244.75" ry="56.7"/>
    <path class="cls-7" d="M742.01,480.81c0,31.32-107.93,56.7-241.05,56.7s-241.05-25.39-241.05-56.7v-42.87c0,31.32,107.93,56.7,241.05,56.7s241.05-25.39,241.05-56.7v42.87Z"/>
    <path class="cls-6" d="M738.94,643.05c0,31.32-107.89,56.7-240.96,56.7s-240.96-25.39-240.96-56.7v-42.87c0,31.32,107.89,56.7,240.96,56.7s240.96-25.39,240.96-56.7v42.87Z"/>
  </g>
  <path class="cls-2" d="M641.6,873.74c3.09,3.85,8.95,3.85,12.04,0,29.69-36.99,79.56-64.64,105.83-126.42,23.37-54.96,18.05-127.19,23.66-168.77.63-4.64-2.96-8.77-7.64-8.77h-255.74c-4.68,0-8.27,4.13-7.64,8.77,5.61,41.58.29,113.81,23.66,168.77,26.27,61.78,76.14,89.43,105.83,126.42Z"/>
  <path class="cls-8" d="M695.5,666.97c.15-7.77.26-18.79-.21-23.71-2.22-23.42-24.16-40.11-47.04-40.97-24.22-.91-48.46,16.14-50.84,40.97-.47,4.92-.36,15.93-.21,23.71h-8.21c-3.51,0-6.35,2.84-6.35,6.35v104.21c0,3.51,2.84,6.35,6.35,6.35h114.72c3.51,0,6.35-2.84,6.35-6.35v-104.21c0-3.51-2.84-6.35-6.35-6.35h-8.21ZM654.57,743.82h-16.45l4.22-16.77c-3.02-1.5-5.08-4.65-4.99-8.27.12-4.61,3.8-8.46,8.41-8.75,5.23-.33,9.57,3.82,9.57,8.98,0,3.53-2.04,6.57-4.99,8.05l4.22,16.77h0ZM679.83,666.57h-66.53c-2.52,0-4.56-2.02-4.59-4.54-.06-5.34-.04-11.01.24-14.06,1.86-20.34,18.37-34.85,37.4-35.17,17.99-.3,36.09,15.99,37.84,35.17.28,3.05.3,8.71.24,14.06-.03,2.52-2.08,4.54-4.59,4.54h0Z"/>
  <path class="cls-5" d="M330.37,180.27h-27.01c-64.25,0-116.33,52.08-116.33,116.33h0c0,64.25,52.08,116.33,116.33,116.33h27.01c64.24,0,116.32-52.08,116.32-116.32v-.03c0-64.24-52.08-116.32-116.32-116.32Z"/>
  <path class="cls-1" d="M409.37,327.93c0,5.09-4.13,9.23-9.23,9.23h-33.15c-5.1,0-9.23,4.13-9.23,9.22v33.15c0,5.09-4.13,9.23-9.22,9.23h-62.65c-5.09,0-9.22-4.13-9.22-9.23v-33.15c0-5.09-4.13-9.22-9.23-9.22h-33.15c-5.09,0-9.23-4.13-9.23-9.23v-62.65c0-5.09,4.13-9.23,9.23-9.23h33.15c5.1,0,9.23-4.13,9.23-9.22v-33.15c0-5.09,4.13-9.23,9.22-9.23h62.65c5.09,0,9.22,4.13,9.22,9.23v33.15c0,5.09,4.13,9.22,9.23,9.22h33.15c5.09,0,9.23,4.13,9.23,9.23v62.65Z"/>
</svg>