<?xml version="1.0" encoding="UTF-8"?>
<svg id="Livello_1" data-name="Livello 1" xmlns="http://www.w3.org/2000/svg" xmlns:xlink="http://www.w3.org/1999/xlink" viewBox="0 0 1000 1000">
  <defs>
    <style>
      .cls-1 {
        fill: url(#Sfumatura_senza_nome_11);
      }

      .cls-2 {
        filter: url(#drop-shadow-42);
      }

      .cls-3 {
        filter: url(#drop-shadow-45);
        stroke: url(#Sfumatura_senza_nome_9-3);
        stroke-width: 10px;
      }

      .cls-3, .cls-4, .cls-5, .cls-6, .cls-7, .cls-8 {
        fill: none;
        stroke-linecap: round;
        stroke-miterlimit: 10;
      }

      .cls-4 {
        filter: url(#drop-shadow-46);
        stroke: url(#Sfumatura_senza_nome_9-4);
      }

      .cls-4, .cls-5, .cls-6, .cls-7, .cls-8 {
        stroke-width: 7px;
      }

      .cls-5 {
        filter: url(#drop-shadow-48);
        stroke: url(#Sfumatura_senza_nome_9-6);
      }

      .cls-6 {
        filter: url(#drop-shadow-47);
        stroke: url(#Sfumatura_senza_nome_9-5);
      }

      .cls-7 {
        filter: url(#drop-shadow-44);
        stroke: url(#Sfumatura_senza_nome_9-2);
      }

      .cls-8 {
        filter: url(#drop-shadow-43);
        stroke: url(#Sfumatura_senza_nome_9);
      }
    </style>
    <filter id="drop-shadow-42" x="307.25" y="312.92" width="429" height="525" filterUnits="userSpaceOnUse">
      <feOffset dx="5" dy="5"/>
      <feGaussianBlur result="blur" stdDeviation="8"/>
      <feFlood flood-color="#000" flood-opacity=".2"/>
      <feComposite in2="blur" operator="in"/>
      <feComposite in="SourceGraphic"/>
    </filter>
    <linearGradient id="Sfumatura_senza_nome_11" data-name="Sfumatura senza nome 11" x1="326.85" y1="570.61" x2="708.28" y2="570.61" gradientUnits="userSpaceOnUse">
      <stop offset="0" stop-color="#90e0ef"/>
      <stop offset="1" stop-color="#00b4d8"/>
    </linearGradient>
    <linearGradient id="Sfumatura_senza_nome_9" data-name="Sfumatura senza nome 9" x1="295.01" y1="375.2" x2="395.96" y2="375.2" gradientUnits="userSpaceOnUse">
      <stop offset="0" stop-color="#0077b6"/>
      <stop offset="1" stop-color="#03045e"/>
    </linearGradient>
    <filter id="drop-shadow-43" x="275.25" y="351.92" width="150" height="56" filterUnits="userSpaceOnUse">
      <feOffset dx="5" dy="5"/>
      <feGaussianBlur result="blur-2" stdDeviation="8"/>
      <feFlood flood-color="#000" flood-opacity=".2"/>
      <feComposite in2="blur-2" operator="in"/>
      <feComposite in="SourceGraphic"/>
    </filter>
    <linearGradient id="Sfumatura_senza_nome_9-2" data-name="Sfumatura senza nome 9" x1="2304.47" y1="-4950.24" x2="2405.42" y2="-4950.24" gradientTransform="translate(2935.93 -4575.03) rotate(-180)" xlink:href="#Sfumatura_senza_nome_9"/>
    <filter id="drop-shadow-44" x="511.25" y="351.92" width="150" height="56" filterUnits="userSpaceOnUse">
      <feOffset dx="5" dy="5"/>
      <feGaussianBlur result="blur-3" stdDeviation="8"/>
      <feFlood flood-color="#000" flood-opacity=".2"/>
      <feComposite in2="blur-3" operator="in"/>
      <feComposite in="SourceGraphic"/>
    </filter>
    <linearGradient id="Sfumatura_senza_nome_9-3" data-name="Sfumatura senza nome 9" x1="4138.12" y1="-1261.53" x2="4138.12" y2="-1261.53" gradientTransform="translate(-819.55 -3755.48) rotate(90)" xlink:href="#Sfumatura_senza_nome_9"/>
    <filter id="drop-shadow-45" x="441.98" y="382.64" width="5" height="5" filterUnits="userSpaceOnUse">
      <feOffset dx="5" dy="5"/>
      <feGaussianBlur result="blur-4" stdDeviation="8"/>
      <feFlood flood-color="#000" flood-opacity=".2"/>
      <feComposite in2="blur-4" operator="in"/>
      <feComposite in="SourceGraphic"/>
    </filter>
    <linearGradient id="Sfumatura_senza_nome_9-4" data-name="Sfumatura senza nome 9" x1="3965.92" y1="-1285.08" x2="4066.87" y2="-1285.08" gradientTransform="translate(-819.55 -3755.48) rotate(90)" xlink:href="#Sfumatura_senza_nome_9"/>
    <filter id="drop-shadow-46" x="442.25" y="190.92" width="56" height="150" filterUnits="userSpaceOnUse">
      <feOffset dx="5" dy="5"/>
      <feGaussianBlur result="blur-5" stdDeviation="8"/>
      <feFlood flood-color="#000" flood-opacity=".2"/>
      <feComposite in2="blur-5" operator="in"/>
      <feComposite in="SourceGraphic"/>
    </filter>
    <linearGradient id="Sfumatura_senza_nome_9-5" data-name="Sfumatura senza nome 9" x1="3918.6" y1="-3530.54" x2="4019.55" y2="-3530.54" gradientTransform="translate(868.51 -5015.71) rotate(135)" xlink:href="#Sfumatura_senza_nome_9"/>
    <filter id="drop-shadow-47" x="502.25" y="230.92" width="122" height="123" filterUnits="userSpaceOnUse">
      <feOffset dx="5" dy="5"/>
      <feGaussianBlur result="blur-6" stdDeviation="8"/>
      <feFlood flood-color="#000" flood-opacity=".2"/>
      <feComposite in2="blur-6" operator="in"/>
      <feComposite in="SourceGraphic"/>
    </filter>
    <linearGradient id="Sfumatura_senza_nome_9-6" data-name="Sfumatura senza nome 9" x1="2500.95" y1="242.19" x2="2601.9" y2="242.19" gradientTransform="translate(-1260.22 -1688.06) rotate(45)" xlink:href="#Sfumatura_senza_nome_9"/>
    <filter id="drop-shadow-48" x="316.25" y="230.92" width="123" height="123" filterUnits="userSpaceOnUse">
      <feOffset dx="5" dy="5"/>
      <feGaussianBlur result="blur-7" stdDeviation="8"/>
      <feFlood flood-color="#000" flood-opacity=".2"/>
      <feComposite in2="blur-7" operator="in"/>
      <feComposite in="SourceGraphic"/>
    </filter>
  </defs>
  <g class="cls-2">
    <path class="cls-1" d="M498.07,504.92c.76-2.14,1.44-4.28,2.09-6.33.65-2.05,1.32-4.02,2.04-6.02.01-.03.02-.06.04-.08v-.02c2.04-3.49,4.34-6.85,7.14-9.83,2.79-2.97,6.08-5.57,9.86-7.34,3.76-1.78,7.98-2.69,12.19-2.53,4.21.14,8.36,1.31,12.07,3.23,7.47,3.84,13.33,10.26,17.25,17.55,3.92,7.33,5.93,15.63,6.02,23.95l-4.31-.75,2.95-8.68c.02-.06.04-.11.07-.16v-.02c1.83-3.98,4-7.85,6.75-11.37,2.75-3.51,6.1-6.66,10.03-9.01,3.92-2.36,8.4-3.88,13.01-4.33,4.6-.44,9.3.13,13.63,1.67,8.7,3.06,15.9,9.45,20.51,17.21,4.68,7.78,6.79,16.87,6.75,25.79l-6.13-1.3,2.9-6.9c.09-.2.19-.39.31-.57l.03-.04c2.64-3.74,6.1-6.95,10.04-9.32,3.94-2.38,8.33-3.92,12.79-4.69,8.96-1.45,18.11,0,26.28,3.59,8.16,3.57,15.49,9.58,20.03,17.62,2.26,4.01,3.75,8.49,4.22,13.13l.13,1.79c.04.59.1,1.22.06,1.71l-.09,3.13-.18,6.26c-.41,16.51-.24,33.06.04,49.64.21,16.58.64,33.19.62,49.83-.02,16.65-.28,33.29-1.48,49.98-.65,8.42-1.97,16.79-4.09,24.97-1.01,4.1-2.31,8.12-3.7,12.11-.77,1.97-1.45,3.96-2.31,5.9l-1.25,2.91-1.35,2.87c-.44.96-.92,1.9-1.42,2.83-.49.93-.96,1.88-1.47,2.8-1.06,1.82-2.06,3.69-3.22,5.45-2.2,3.6-4.71,7.01-7.33,10.32-2.66,3.28-5.52,6.4-8.55,9.33-3.08,2.88-6.23,5.7-9.67,8.16l-1.27.95-1.31.89-2.62,1.77-2.71,1.63-1.36.81-1.39.75-2.79,1.49-2.86,1.35-1.43.67-1.46.6-2.92,1.2c-7.89,2.94-16.1,4.97-24.44,6-.07,0-.14.01-.21,0-11.2-.46-22.42-.49-33.65-.24l-33.71.95c-11.25.23-22.54.36-33.84-.35-2.82-.23-5.65-.37-8.46-.72l-4.22-.47-4.21-.6c-1.41-.18-2.81-.43-4.2-.69-1.4-.26-2.8-.5-4.19-.78-2.76-.67-5.56-1.2-8.29-2.03-5.52-1.44-10.86-3.48-16.13-5.7-2.57-1.25-5.22-2.35-7.69-3.79l-3.76-2.07-3.64-2.28c-9.69-6.11-18.3-13.8-25.97-22.23-7.7-8.42-14.35-17.75-20.56-27.17-6.25-9.42-12.12-19.08-17.81-28.82-11.35-19.52-21.85-39.5-31.55-59.9-4.88-10.18-9.48-20.51-13.82-30.95-2.19-5.21-4.24-10.5-6.27-15.79l-2.91-8c-.92-2.85-1.81-5.74-2.26-8.78-1.05-6-.84-12.46,1.2-18.53,2.04-6.07,6.14-11.49,11.31-15.2,2.58-1.87,5.41-3.36,8.34-4.47,2.94-1.09,5.98-1.81,9.05-2.22,3.06-.42,6.15-.51,9.19-.31,3.05.19,6.07.62,9.01,1.34,1.49.31,2.92.78,4.37,1.19,1.41.51,2.87.94,4.24,1.55,1.39.57,2.79,1.13,4.11,1.82l2.02.99,1.95,1.09c5.19,2.92,9.96,6.41,14.4,10.16,8.89,7.52,16.5,16.05,24.16,24.16l-7.36,2.92v-58.45s.18-58.45.18-58.45l.29-58.45.18-29.22.1-14.61.06-7.31.02-1.83v-.46s0-.23,0-.23v-.11c0-.09,0,.04.01-.25.02-.21.04-.43.09-.64.04-.22.11-.44.11-.44l.11-.32c.08-.24.13-.36.2-.54.5-1.27.98-2.37,1.48-3.52l1.53-3.38.8-1.7c.28-.59.53-1.1.93-1.84l.17-.3.14-.21.28-.43.57-.85c.36-.58.82-1.09,1.23-1.63.41-.55.86-1.05,1.33-1.55.46-.5.91-1.01,1.42-1.46,3.9-3.79,8.68-6.41,13.64-8.14,4.99-1.69,10.22-2.47,15.42-2.39,5.21.09,10.41,1.04,15.3,2.99,4.89,1.91,9.45,4.91,13,8.94.91,1,1.67,2.06,2.47,3.2.46.72.71,1.23,1.02,1.82l.84,1.69c1.09,2.26,2.1,4.5,3.04,6.87.23.6.46,1.19.68,1.87.11.31.22.72.32,1.13.06.27.11.73.11.99v.45s-.04,3.59-.04,3.59l-.09,7.18-.22,14.35-.56,28.78-.69,29.07c-.44,19.51-.74,39.23-.86,59.1ZM497.92,505.7c-.13-19.09-.42-38.33-.86-57.79l-.69-29.37-.56-29.67-.22-14.87-.09-7.44-.04-3.72c.13-.3-.4-1.51-.81-2.54-.9-2.14-1.94-4.32-3.01-6.43l-.82-1.56c-.26-.48-.58-1.05-.79-1.35-.62-.83-1.3-1.74-2.05-2.53-2.97-3.22-6.81-5.67-11.02-7.2-8.42-3.13-18.13-3.03-26.55-.04-4.19,1.54-8.11,3.8-11.16,6.88-.4.36-.75.77-1.11,1.18-.37.4-.72.8-1.03,1.24-.32.43-.67.84-.94,1.3l-.43.67-.22.34-.11.17-.05.1c-.17.33-.45.92-.69,1.44l-.73,1.62-1.43,3.3c-.46,1.09-.93,2.23-1.31,3.24-.04.11-.1.27-.11.32l-.04.11c-.03.08.03-.08.05-.22.03-.14.04-.27.04-.41v.77s.02,1.83.02,1.83l.06,7.31.1,14.61.18,29.22.29,58.45.19,58.45v58.45s0,0,0,0c0,2.35-1.91,4.26-4.26,4.26-1.22,0-2.33-.52-3.1-1.34-7.75-8.24-15.19-16.5-23.41-23.61-8.21-7.06-17.39-12.82-27.53-15.27-2.52-.64-5.08-1.02-7.64-1.2-2.56-.2-5.13-.14-7.64.19-2.51.32-4.97.88-7.31,1.73-2.33.87-4.53,2.01-6.51,3.42-3.97,2.81-7,6.76-8.6,11.34-1.58,4.59-1.86,9.71-1.01,14.77.35,2.54,1.11,5.05,1.88,7.55l2.79,7.87c1.95,5.22,3.92,10.44,6.05,15.6,4.22,10.34,8.67,20.61,13.38,30.76,4.7,10.16,9.58,20.24,14.67,30.22,5.06,9.99,10.29,19.9,15.77,29.66,5.47,9.77,11.06,19.48,17.05,28.91,5.97,9.48,12.22,18.64,19.53,26.99,7.26,8.35,15.45,15.92,24.69,21.98l3.47,2.26,3.59,2.06c2.36,1.44,4.9,2.54,7.36,3.8,5.05,2.23,10.2,4.32,15.54,5.81,10.62,3.23,21.72,4.81,32.85,5.68,11.15.79,22.37.85,33.59.65,22.44-.46,44.96-1.53,67.51-.71h-.21c8.13-1.06,16.15-3,23.77-6l2.82-1.2,1.41-.6,1.38-.67,2.75-1.35,2.68-1.48,1.34-.74,1.3-.81,2.6-1.62,2.52-1.75,1.25-.88,1.21-.93c13.09-9.83,23.04-23.38,29.78-38.2l1.24-2.8,1.14-2.84c.79-1.88,1.41-3.83,2.1-5.74,1.25-3.88,2.42-7.79,3.31-11.77,1.87-7.94,2.94-16.06,3.38-24.2.14-2.02.16-4.11.24-6.17.06-2.06.15-4.13.18-6.19.05-4.13.16-8.26.15-12.4.08-8.27-.06-16.54-.19-24.82-.36-16.56-.86-33.14-1.31-49.75-.38-16.62-.55-33.27-.19-49.95l.22-6.18.11-3.09c.04-.55-.02-.95-.05-1.39l-.09-1.32c-.35-3.63-1.5-7.2-3.3-10.43-3.6-6.47-9.68-11.64-16.68-14.73-6.99-3.12-14.9-4.39-22.36-3.22-3.72.6-7.3,1.83-10.49,3.7-3.19,1.86-5.98,4.38-8.17,7.39l.34-.61-2.98,6.87v.02c-.71,1.62-2.59,2.36-4.21,1.66-1.22-.53-1.94-1.73-1.92-2.98.13-7.9-1.64-15.84-5.59-22.61-3.91-6.74-9.97-12.28-17.19-14.97-3.59-1.36-7.45-1.89-11.24-1.6-3.79.29-7.51,1.46-10.85,3.39-3.35,1.92-6.31,4.58-8.81,7.65-2.51,3.07-4.59,6.54-6.36,10.19l.08-.19-3.16,8.61-.02.04c-.42,1.15-1.69,1.74-2.84,1.31-.9-.33-1.46-1.2-1.45-2.11.11-7.63-1.55-15.32-4.99-22.16-3.41-6.82-8.62-12.88-15.29-16.56-6.6-3.77-14.82-4.42-21.85-1.35-3.52,1.49-6.71,3.8-9.47,6.54-2.77,2.75-5.15,5.89-7.28,9.22l.05-.1c-.89,2.17-1.84,4.36-2.8,6.47-.97,2.11-1.9,4.14-2.76,6.16Z"/>
  </g>
  <line class="cls-8" x1="298.51" y1="375.2" x2="392.46" y2="375.2"/>
  <line class="cls-7" x1="627.96" y1="375.2" x2="534.02" y2="375.2"/>
  <path class="cls-3" d="M441.98,382.64"/>
  <line class="cls-4" x1="465.53" y1="213.94" x2="465.53" y2="307.89"/>
  <line class="cls-6" x1="591.63" y1="254.11" x2="525.2" y2="320.54"/>
  <line class="cls-5" x1="339.44" y1="254.11" x2="405.87" y2="320.54"/>
</svg>