<?xml version="1.0" encoding="UTF-8"?>
<svg id="Livello_1" data-name="Livello 1" xmlns="http://www.w3.org/2000/svg" xmlns:xlink="http://www.w3.org/1999/xlink" viewBox="0 0 1000 1000">
  <defs>
    <style>
      .cls-1 {
        fill: #fff;
        filter: url(#drop-shadow-20);
      }

      .cls-2 {
        fill: #00b4d8;
      }

      .cls-3 {
        fill: url(#Sfumatura_senza_nome_11);
        filter: url(#drop-shadow-19);
      }

      .cls-4 {
        fill: url(#Sfumatura_senza_nome_5);
      }
    </style>
    <linearGradient id="Sfumatura_senza_nome_5" data-name="Sfumatura senza nome 5" x1="406.37" y1="375.44" x2="595.77" y2="375.44" gradientUnits="userSpaceOnUse">
      <stop offset="0" stop-color="#0077b6"/>
      <stop offset="1" stop-color="#03045e"/>
    </linearGradient>
    <linearGradient id="Sfumatura_senza_nome_11" data-name="Sfumatura senza nome 11" x1="279.64" y1="603.43" x2="722.48" y2="603.43" gradientUnits="userSpaceOnUse">
      <stop offset="0" stop-color="#90e0ef"/>
      <stop offset="1" stop-color="#00b4d8"/>
    </linearGradient>
    <filter id="drop-shadow-19" x="241.37" y="335.87" width="534" height="549" filterUnits="userSpaceOnUse">
      <feOffset dx="7" dy="7"/>
      <feGaussianBlur result="blur" stdDeviation="15"/>
      <feFlood flood-color="#000" flood-opacity=".25"/>
      <feComposite in2="blur" operator="in"/>
      <feComposite in="SourceGraphic"/>
    </filter>
    <filter id="drop-shadow-20" x="395.37" y="269.87" width="226" height="225" filterUnits="userSpaceOnUse">
      <feOffset dx="7" dy="7"/>
      <feGaussianBlur result="blur-2" stdDeviation="15"/>
      <feFlood flood-color="#000" flood-opacity=".25"/>
      <feComposite in2="blur-2" operator="in"/>
      <feComposite in="SourceGraphic"/>
    </filter>
  </defs>
  <path class="cls-4" d="M590.45,290.58h-178.75c-2.94,0-5.33,2.38-5.33,5.32v159.07c0,2.94,2.39,5.32,5.33,5.32h178.75c2.94,0,5.32-2.38,5.32-5.32v-159.07c0-2.94-2.38-5.32-5.32-5.32Z"/>
  <path class="cls-3" d="M713.96,374.45h-103.19v79.53c0,11.2-9.11,20.32-20.32,20.32h-178.75c-11.21,0-20.33-9.12-20.33-20.32v-79.53h-103.21c-4.7,0-8.52,3.82-8.52,8.52v440.93c0,4.7,3.82,8.52,8.52,8.52h144.56v-128.49c-.01-4.71-3.83-8.52-8.53-8.52h-4.12c-4.71,0-8.52-3.82-8.52-8.52h0c0-4.71,3.82-8.52,8.52-8.52h162.53c4.71,0,8.52,3.82,8.52,8.52s-3.82,8.52-8.52,8.52h-4.12c-4.71,0-8.52,3.82-8.52,8.52v128.49h143.99c4.71,0,8.52-3.82,8.52-8.52v-440.93c0-4.7-3.81-8.52-8.52-8.52Z"/>
  <path class="cls-2" d="M722.48,508.41c46.11-.87,92.94-1.38,139.09-1.84,4.37-.28,8.81,2.19,10.61,6.26.8,1.65,1.06,3.54,1.03,5.35.55,39.79.56,93.11.87,133.11.3,55.35.35,112.09.3,167.5,0,0,0,2.99,0,2.99v1.5c.33,6.41-4.8,12.37-11.3,12.63-94.2-.19-199.13-1.91-293.35-2.18,0,0-1.3,0-1.3,0v-1.29s.08-43.61.08-43.61c0-14.66-.05-51.3-.07-65.42.01-5.78-.14-14.87-.05-20.56.31-4.82,4.57-8.94,9.4-9.07,3.27-.15,6.89.57,9.38-1.97,4.26-3.84,1.93-11.32-3.78-12.01-.58-.12-1.85-.06-2.49-.07-44.65.39-117.85.76-161.82,1.34-2.71.33-4.89,2.89-4.8,5.59,0,0,.08,2.96.08,2.96,0,0-3.07.03-3.07.03l2.98-2.98c-.02,2.89,2.47,5.44,5.36,5.44.3.02,1.43,0,1.77,0,0,0,2.49-.02,2.49-.02,4.58-.08,8.99,2.8,10.78,7.02.86,1.92,1.03,4.06.98,6.14.21,29.92.46,96.63.57,127.2,0,0,.01,3.74.01,3.74h-3.77c-95.09.2-199.35.84-293.95.43-7.31.36-13.89-5.59-13.43-13.53,0,0,0-3,0-3,.06-14.97.16-56.42.24-71.99.33-75.9.83-152.05,1.55-227.97.02-2.21-.11-4.65.83-6.76.96-2.35,2.76-4.32,4.99-5.49,2.06-1.17,4.56-1.29,6.88-1.19,10.28.05,31.37.37,41.99.45,32,.43,63.99.75,95.99,1.3v.8c-45.74.72-92.21,1.28-137.98,1.75,0,0-1.5.02-1.5.02-1.12,0-2.31.21-3.3.78-1.3.72-2.32,1.9-2.84,3.26-.66,1.62-.33,3.32-.38,5.08,0,0,.11,12,.11,12,.85,96.47,1.45,194.42,1.68,290.96-.09,1.66.39,3.46,1.88,4.41.92.7,2.16.83,3.28.78,94.46-.26,198.94.06,293.95.41,0,0-3.76,3.76-3.76,3.76.1-29.6.33-95.93.53-124.71-.05-1.31.09-3.35,0-4.64-.2-2.66-2.66-4.85-5.34-4.82,0,0-2.49-.02-2.49-.02h-1.25c-6.31.25-12-5.27-11.84-11.6,0,0-.03-3.01-.03-3.01,0,0,3.02.03,3.02.03l-2.98,2.98c-.07-6.24,5.52-11.67,11.75-11.39,0,0,2.73.02,2.73.02,41.96.38,115.46.94,158.1,1.25,6.81-.6,12.52,5,11.29,11.89-.72,4.26-4.44,7.7-8.73,8.12-3.38.31-6.95-.73-9.73,1.63-1.64,1.33-2.63,3.37-2.65,5.48,0,.69-.02,2.72-.02,3.4-.01,22.36-.18,59.11-.13,81.78,0,0,.09,43.61.09,43.61l-1.3-1.3c93.08-.3,197.06-1.89,290.14-2.2,0,0,1.5,0,1.5,0h.75s.19,0,.19,0h.12c2.85-.06,5.21-2.77,4.87-5.64,0,0,0-1.5,0-1.5v-2.99c-.08-70.8.13-144.47.53-215.36.11-22.53.46-63.01.63-85.25.26-3.68-2.13-7.03-6.12-7.11,0,0-.74,0-.74,0h-1.5c-10.28-.16-31.26-.3-41.88-.45-31.91-.38-63.81-.79-95.72-1.39v-.8h0Z"/>
  <path class="cls-1" d="M568.55,398.29c0,3.72-3.01,6.73-6.73,6.73h-24.18c-3.72,0-6.73,3.01-6.73,6.73v24.18c0,3.72-3.01,6.73-6.73,6.73h-45.7c-3.72,0-6.73-3.01-6.73-6.73v-24.18c0-3.72-3.01-6.73-6.73-6.73h-24.18c-3.72,0-6.73-3.01-6.73-6.73v-45.7c0-3.72,3.01-6.73,6.73-6.73h24.18c3.72,0,6.73-3.01,6.73-6.73v-24.18c0-3.72,3.01-6.73,6.73-6.73h45.7c3.72,0,6.73,3.01,6.73,6.73v24.18c0,3.72,3.01,6.73,6.73,6.73h24.18c3.72,0,6.73,3.01,6.73,6.73v45.7Z"/>
</svg>