<?xml version="1.0" encoding="UTF-8"?>
<svg id="Livello_1" data-name="Livello 1" xmlns="http://www.w3.org/2000/svg" xmlns:xlink="http://www.w3.org/1999/xlink" viewBox="0 0 1000 1000">
  <defs>
    <style>
      .cls-1 {
        fill: none;
        filter: url(#drop-shadow-18);
        stroke: #00b4d8;
        stroke-miterlimit: 10;
        stroke-width: 8px;
      }

      .cls-2 {
        fill: url(#Sfumatura_senza_nome_11);
        filter: url(#drop-shadow-11);
      }

      .cls-3 {
        fill: url(#Sfumatura_senza_nome_113);
      }
    </style>
    <linearGradient id="Sfumatura_senza_nome_11" data-name="Sfumatura senza nome 11" x1="69.06" y1="492.49" x2="930.94" y2="492.49" gradientUnits="userSpaceOnUse">
      <stop offset="0" stop-color="#90e0ef"/>
      <stop offset="1" stop-color="#00b4d8"/>
    </linearGradient>
    <filter id="drop-shadow-11" x="49.84" y="220.41" width="911" height="554" filterUnits="userSpaceOnUse">
      <feOffset dx="5" dy="5"/>
      <feGaussianBlur result="blur" stdDeviation="8"/>
      <feFlood flood-color="#000" flood-opacity=".2"/>
      <feComposite in2="blur" operator="in"/>
      <feComposite in="SourceGraphic"/>
    </filter>
    <linearGradient id="Sfumatura_senza_nome_113" data-name="Sfumatura senza nome 113" x1="322.83" y1="2371.9" x2="654.47" y2="2371.9" gradientTransform="translate(0 2848.82) scale(1 -1)" gradientUnits="userSpaceOnUse">
      <stop offset="0" stop-color="#0077b6"/>
      <stop offset="1" stop-color="#03045e"/>
    </linearGradient>
    <filter id="drop-shadow-18" x="172.84" y="263.41" width="667" height="420" filterUnits="userSpaceOnUse">
      <feOffset dx="5" dy="5"/>
      <feGaussianBlur result="blur-2" stdDeviation="8"/>
      <feFlood flood-color="#000" flood-opacity=".2"/>
      <feComposite in2="blur-2" operator="in"/>
      <feComposite in="SourceGraphic"/>
    </filter>
  </defs>
  <path class="cls-2" d="M910.22,665.43h-32.43c-11.44,0-20.72-9.28-20.72-20.72v-384.26c0-11.44-9.28-20.72-20.72-20.72H163.66c-11.44,0-20.72,9.28-20.72,20.72v384.26c0,11.44-9.28,20.72-20.72,20.72h-32.43c-11.44,0-20.72,9.28-20.72,20.72v38.39c0,11.44,9.28,20.72,20.72,20.72h820.43c11.44,0,20.72-9.28,20.72-20.72v-38.39c0-11.44-9.28-20.72-20.72-20.72ZM822.78,653.32c0,6.01-4.87,10.89-10.89,10.89H188.11c-6.01,0-10.89-4.87-10.89-10.89v-368.74c0-6.01,4.87-10.89,10.89-10.89h623.78c6.01,0,10.89,4.87,10.89,10.89v368.74Z"/>
  <path class="cls-3" d="M620.97,445.11l-23.35-58.56c6.15-6.28,9.95-14.87,9.95-24.36,0-19.22-15.58-34.8-34.8-34.8-16.02,0-29.52,10.83-33.56,25.57l-55.21,3.38c-4.82-13.44-17.67-23.04-32.76-23.04-19.22,0-34.8,15.58-34.8,34.8,0,7.1,2.13,13.7,5.78,19.2l-52.76,59.83c-3.69-1.33-7.66-2.06-11.81-2.06-19.22,0-34.8,15.58-34.8,34.8s15.58,34.8,34.8,34.8c4.38,0,8.57-.81,12.43-2.29l53.37,58.33c-4.4,5.83-7.01,13.08-7.01,20.94,0,19.22,15.58,34.8,34.8,34.8,16.57,0,30.43-11.58,33.94-27.08h53.66c3.51,15.51,17.37,27.08,33.94,27.08,19.22,0,34.8-15.58,34.8-34.8s-15.58-34.8-34.8-34.8c-16.57,0-30.43,11.58-33.94,27.08h-53.66c-1.8-7.97-6.35-14.91-12.58-19.76l14.35-20.34c6.86,3.06,14.45,4.76,22.45,4.76,29.11,0,52.95-22.54,55.03-51.12l23.36-3.65c5.38,12.28,17.63,20.85,31.89,20.85,19.22,0,34.8-15.58,34.8-34.8s-14.88-34.09-33.49-34.77h0ZM538.49,446.54l25.19-50.74c2.9.78,5.94,1.2,9.08,1.2,4.07,0,7.98-.7,11.61-1.99l21.16,53.06c-11.83,5.26-20.17,16.93-20.64,30.59l-21.5,3.36c-3.14-14.95-12.33-27.67-24.89-35.48h0ZM436.04,560.35c-.27.13-.54.27-.81.41l-52.22-57.07c5.84-6.22,9.41-14.59,9.41-23.8,0-3.3-.46-6.49-1.32-9.52l44.93-23.91v113.89h0ZM383.7,456.83c-.37-.42-.75-.83-1.14-1.23l50.82-57.62c.87.52,1.76,1,2.67,1.45v29.54l-52.35,27.86h0ZM451.48,402.9c2.97-.02,5.85-.41,8.6-1.13l5.32,11.57-13.91,7.41v-17.85ZM473.77,394.61c6.64-5.65,11.13-13.76,12.07-22.91l52.68-3.22c.32,1.79.79,3.52,1.38,5.21l-60.86,32.39-5.27-11.47h0ZM458.34,557.59c-2.22-.46-4.51-.71-6.86-.73v-118.63l20.37-10.84,8.72,18.97c-15.82,9.7-26.37,27.15-26.37,47.06,0,16.93,7.63,32.08,19.64,42.21l-15.5,21.96h0ZM494.73,440.22l-9.23-20.09,62.64-33.34c.61.61,1.25,1.2,1.91,1.77l-25.68,51.74c-4.76-1.34-9.78-2.06-14.97-2.06s-9.98.69-14.65,1.97h0Z"/>
  <path class="cls-1" d="M807.01,640.64c0,5.61-4.62,10.15-10.32,10.15H205.32c-5.7,0-10.32-4.54-10.32-10.15v-343.73c0-5.61,4.62-10.15,10.32-10.15h591.37c5.7,0,10.32,4.54,10.32,10.15v343.73Z"/>
</svg>