<?xml version="1.0" encoding="UTF-8"?>
<svg id="Livello_2" data-name="Livello 2" xmlns="http://www.w3.org/2000/svg" xmlns:xlink="http://www.w3.org/1999/xlink" viewBox="0 0 861.87 505.53">
  <defs>
    <style>
      .cls-1 {
        fill: url(#Sfumatura_senza_nome_11);
      }

      .cls-2 {
        fill: url(#Sfumatura_senza_nome_113-3);
      }

      .cls-3 {
        fill: url(#Sfumatura_senza_nome_113-2);
      }

      .cls-4 {
        fill: url(#Sfumatura_senza_nome_113);
      }
    </style>
    <linearGradient id="Sfumatura_senza_nome_11" data-name="Sfumatura senza nome 11" x1="0" y1="252.76" x2="861.87" y2="252.76" gradientUnits="userSpaceOnUse">
      <stop offset="0" stop-color="#90e0ef"/>
      <stop offset="1" stop-color="#00b4d8"/>
    </linearGradient>
    <linearGradient id="Sfumatura_senza_nome_113" data-name="Sfumatura senza nome 113" x1="204.05" y1="235.67" x2="348.15" y2="235.67" gradientUnits="userSpaceOnUse">
      <stop offset="0" stop-color="#0077b6"/>
      <stop offset="1" stop-color="#03045e"/>
    </linearGradient>
    <linearGradient id="Sfumatura_senza_nome_113-2" data-name="Sfumatura senza nome 113" x1="363.6" x2="498.27" xlink:href="#Sfumatura_senza_nome_113"/>
    <linearGradient id="Sfumatura_senza_nome_113-3" data-name="Sfumatura senza nome 113" x1="518.44" x2="662.54" xlink:href="#Sfumatura_senza_nome_113"/>
  </defs>
  <g id="Livello_1-2" data-name="Livello 1">
    <path class="cls-1" d="M841.15,425.7h-32.43c-11.44,0-20.72-9.28-20.72-20.72V20.72c0-11.44-9.28-20.72-20.72-20.72H94.6c-11.44,0-20.72,9.28-20.72,20.72v384.26c0,11.44-9.28,20.72-20.72,20.72H20.72c-11.44,0-20.72,9.28-20.72,20.72v38.39c0,11.44,9.28,20.72,20.72,20.72h820.43c11.44,0,20.72-9.28,20.72-20.72v-38.39c0-11.44-9.28-20.72-20.72-20.72ZM753.71,415.07c0,6.01-4.87,10.89-10.89,10.89H119.05c-6.01,0-10.89-4.87-10.89-10.89V46.33c0-6.01,4.87-10.89,10.89-10.89h623.78c6.01,0,10.89,4.87,10.89,10.89v368.74Z"/>
    <g>
      <path class="cls-4" d="M303.35,330.12c-5.24,0-9.35-1.44-12.31-4.32-2.97-2.88-4.45-7.03-4.45-12.45v-20.44h-64.71c-5.42,0-9.74-1.13-12.97-3.41-3.23-2.27-4.85-5.85-4.85-10.74,0-2.79.74-5.85,2.23-9.17,1.48-3.32,4.15-7.68,7.99-13.1l71.79-104.01c2.44-3.67,5.15-6.46,8.12-8.38,2.97-1.92,6.37-2.88,10.22-2.88,4.54,0,8.29,1.35,11.27,4.06,2.97,2.71,4.45,6.94,4.45,12.71v107.16h12.84c5.06,0,8.86,1.18,11.4,3.54,2.53,2.36,3.8,5.81,3.8,10.35s-1.27,7.99-3.8,10.35c-2.53,2.36-6.33,3.54-11.4,3.54h-12.84v20.44c0,5.42-1.49,9.56-4.45,12.45-2.97,2.88-7.07,4.32-12.31,4.32ZM286.58,265.14v-81.74h7.6l-61.83,90.65v-8.91h54.23Z"/>
      <path class="cls-3" d="M430.94,330.64c-21.84,0-38.51-8.25-50.04-24.76-11.53-16.51-17.29-40.04-17.29-70.61,0-20.61,2.57-37.95,7.73-52.01,5.15-14.06,12.75-24.67,22.79-31.83,10.04-7.16,22.31-10.74,36.81-10.74,22.01,0,38.73,8.04,50.17,24.1,11.44,16.07,17.16,39.48,17.16,70.22,0,20.44-2.58,37.77-7.73,52.01-5.15,14.24-12.71,25.07-22.66,32.49-9.96,7.43-22.27,11.13-36.94,11.13ZM430.94,303.13c11.88,0,20.65-5.5,26.33-16.51,5.67-11,8.51-28.21,8.51-51.61s-2.84-40.39-8.51-50.96c-5.68-10.57-14.46-15.85-26.33-15.85s-20.44,5.29-26.2,15.85c-5.76,10.57-8.65,27.55-8.65,50.96s2.88,40.61,8.65,51.61c5.76,11,14.5,16.51,26.2,16.51Z"/>
      <path class="cls-2" d="M617.74,330.12c-5.24,0-9.35-1.44-12.31-4.32-2.97-2.88-4.45-7.03-4.45-12.45v-20.44h-64.71c-5.42,0-9.74-1.13-12.97-3.41-3.23-2.27-4.85-5.85-4.85-10.74,0-2.79.74-5.85,2.23-9.17,1.48-3.32,4.15-7.68,7.99-13.1l71.79-104.01c2.44-3.67,5.15-6.46,8.12-8.38,2.97-1.92,6.37-2.88,10.22-2.88,4.54,0,8.29,1.35,11.27,4.06,2.97,2.71,4.45,6.94,4.45,12.71v107.16h12.84c5.06,0,8.86,1.18,11.4,3.54,2.53,2.36,3.8,5.81,3.8,10.35s-1.27,7.99-3.8,10.35c-2.53,2.36-6.33,3.54-11.4,3.54h-12.84v20.44c0,5.42-1.49,9.56-4.45,12.45-2.97,2.88-7.07,4.32-12.31,4.32ZM600.97,265.14v-81.74h7.6l-61.83,90.65v-8.91h54.23Z"/>
    </g>
  </g>
</svg>