<?xml version="1.0" encoding="UTF-8"?>
<svg id="Livello_1" data-name="Livello 1" xmlns="http://www.w3.org/2000/svg" xmlns:xlink="http://www.w3.org/1999/xlink" viewBox="0 0 2000 2000">
  <defs>
    <style>
      .cls-1 {
        filter: url(#drop-shadow-35);
      }

      .cls-1, .cls-2, .cls-3 {
        fill: #fff;
      }

      .cls-2 {
        filter: url(#drop-shadow-37);
      }

      .cls-3 {
        filter: url(#drop-shadow-39);
      }

      .cls-4 {
        fill: #00bee0;
      }

      .cls-5 {
        stroke: url(#Sfumatura_senza_nome_113);
      }

      .cls-5, .cls-6, .cls-7, .cls-8, .cls-9, .cls-10, .cls-11, .cls-12, .cls-13, .cls-14, .cls-15, .cls-16, .cls-17, .cls-18, .cls-19, .cls-20, .cls-21, .cls-22, .cls-23, .cls-24, .cls-25, .cls-26 {
        fill: none;
        stroke-linecap: round;
        stroke-miterlimit: 10;
        stroke-width: 5px;
      }

      .cls-6 {
        stroke: url(#Sfumatura_senza_nome_605);
      }

      .cls-7 {
        stroke: url(#Sfumatura_senza_nome_113-5);
      }

      .cls-8 {
        stroke: url(#Sfumatura_senza_nome_113-3);
      }

      .cls-9 {
        stroke: url(#Sfumatura_senza_nome_113-7);
      }

      .cls-10 {
        stroke: url(#Sfumatura_senza_nome_113-9);
      }

      .cls-11 {
        stroke: url(#Sfumatura_senza_nome_605-3);
      }

      .cls-12 {
        stroke: url(#Sfumatura_senza_nome_605-5);
      }

      .cls-13 {
        stroke: url(#Sfumatura_senza_nome_605-7);
      }

      .cls-14 {
        stroke: url(#Sfumatura_senza_nome_113-52);
        stroke-dasharray: 30 30;
      }

      .cls-15 {
        stroke: url(#Sfumatura_senza_nome_113-16);
        stroke-dasharray: 32.34 32.34;
      }

      .cls-27 {
        fill: url(#Sfumatura_senza_nome_11);
      }

      .cls-16 {
        stroke: url(#Sfumatura_senza_nome_113-6);
      }

      .cls-16, .cls-25 {
        stroke-dasharray: 29.19 29.19;
      }

      .cls-28 {
        fill: #00b4d8;
      }

      .cls-17 {
        stroke: url(#Sfumatura_senza_nome_113-8);
        stroke-dasharray: 32.12 32.12;
      }

      .cls-29 {
        fill: url(#Sfumatura_senza_nome_11-9);
        filter: url(#drop-shadow-38);
      }

      .cls-30 {
        fill: url(#Sfumatura_senza_nome_11-5);
        filter: url(#drop-shadow-34);
      }

      .cls-31 {
        fill: url(#Sfumatura_senza_nome_11-7);
        filter: url(#drop-shadow-36);
      }

      .cls-32 {
        fill: url(#Sfumatura_senza_nome_11-8);
      }

      .cls-33 {
        fill: url(#Sfumatura_senza_nome_11-6);
      }

      .cls-34 {
        fill: url(#Sfumatura_senza_nome_11-4);
      }

      .cls-35 {
        fill: url(#Sfumatura_senza_nome_11-3);
      }

      .cls-36 {
        fill: url(#Sfumatura_senza_nome_11-2);
      }

      .cls-37 {
        fill: #00146b;
      }

      .cls-18 {
        stroke: url(#Sfumatura_senza_nome_113-17);
      }

      .cls-19 {
        stroke: url(#Sfumatura_senza_nome_113-19);
      }

      .cls-20 {
        stroke: url(#Sfumatura_senza_nome_113-11);
      }

      .cls-21 {
        stroke: url(#Sfumatura_senza_nome_113-13);
      }

      .cls-22 {
        stroke: url(#Sfumatura_senza_nome_113-15);
      }

      .cls-23 {
        stroke: url(#Sfumatura_senza_nome_113-18);
      }

      .cls-23, .cls-24 {
        stroke-dasharray: 27.41 27.41;
      }

      .cls-24 {
        stroke: url(#Sfumatura_senza_nome_113-10);
      }

      .cls-25 {
        stroke: url(#Sfumatura_senza_nome_113-14);
      }

      .cls-26 {
        stroke: url(#Sfumatura_senza_nome_113-2);
        stroke-dasharray: 28.57 28.57;
      }

      .cls-38 {
        fill: url(#Sfumatura_senza_nome_113-30);
      }

      .cls-39 {
        fill: url(#Sfumatura_senza_nome_113-12);
      }

      .cls-40 {
        fill: url(#Sfumatura_senza_nome_113-29);
      }

      .cls-41 {
        fill: url(#Sfumatura_senza_nome_113-23);
      }

      .cls-42 {
        fill: url(#Sfumatura_senza_nome_113-25);
      }

      .cls-43 {
        fill: url(#Sfumatura_senza_nome_113-22);
      }

      .cls-44 {
        fill: url(#Sfumatura_senza_nome_113-26);
      }

      .cls-45 {
        fill: url(#Sfumatura_senza_nome_113-24);
      }

      .cls-46 {
        fill: url(#Sfumatura_senza_nome_113-21);
      }

      .cls-47 {
        fill: url(#Sfumatura_senza_nome_113-28);
      }

      .cls-48 {
        fill: url(#Sfumatura_senza_nome_113-27);
      }

      .cls-49 {
        fill: url(#Sfumatura_senza_nome_113-39);
      }

      .cls-50 {
        fill: url(#Sfumatura_senza_nome_113-35);
      }

      .cls-51 {
        fill: url(#Sfumatura_senza_nome_113-36);
      }

      .cls-52 {
        fill: url(#Sfumatura_senza_nome_113-20);
      }

      .cls-53 {
        fill: url(#Sfumatura_senza_nome_113-33);
      }

      .cls-54 {
        fill: url(#Sfumatura_senza_nome_113-34);
      }

      .cls-55 {
        fill: url(#Sfumatura_senza_nome_113-31);
      }

      .cls-56 {
        fill: url(#Sfumatura_senza_nome_113-32);
      }

      .cls-57 {
        fill: url(#Sfumatura_senza_nome_113-37);
      }

      .cls-58 {
        fill: url(#Sfumatura_senza_nome_113-38);
      }

      .cls-59 {
        fill: url(#Sfumatura_senza_nome_113-71);
      }

      .cls-60 {
        fill: url(#Sfumatura_senza_nome_113-70);
      }

      .cls-61 {
        fill: url(#Sfumatura_senza_nome_113-49);
      }

      .cls-62 {
        fill: url(#Sfumatura_senza_nome_113-41);
      }

      .cls-63 {
        fill: url(#Sfumatura_senza_nome_113-42);
      }

      .cls-64 {
        fill: url(#Sfumatura_senza_nome_113-43);
      }

      .cls-65 {
        fill: url(#Sfumatura_senza_nome_113-51);
      }

      .cls-66 {
        fill: url(#Sfumatura_senza_nome_113-57);
      }

      .cls-67 {
        fill: url(#Sfumatura_senza_nome_113-54);
      }

      .cls-68 {
        fill: url(#Sfumatura_senza_nome_113-40);
      }

      .cls-69 {
        fill: url(#Sfumatura_senza_nome_113-48);
      }

      .cls-70 {
        fill: url(#Sfumatura_senza_nome_113-44);
      }

      .cls-71 {
        fill: url(#Sfumatura_senza_nome_113-45);
      }

      .cls-72 {
        fill: url(#Sfumatura_senza_nome_113-46);
      }

      .cls-73 {
        fill: url(#Sfumatura_senza_nome_113-47);
      }

      .cls-74 {
        fill: url(#Sfumatura_senza_nome_113-53);
      }

      .cls-75 {
        fill: url(#Sfumatura_senza_nome_113-55);
      }

      .cls-76 {
        fill: url(#Sfumatura_senza_nome_113-58);
      }

      .cls-77 {
        fill: url(#Sfumatura_senza_nome_113-56);
      }

      .cls-78 {
        fill: url(#Sfumatura_senza_nome_113-59);
      }

      .cls-79 {
        fill: url(#Sfumatura_senza_nome_113-50);
      }

      .cls-80 {
        fill: url(#Sfumatura_senza_nome_113-64);
      }

      .cls-81 {
        fill: url(#Sfumatura_senza_nome_113-62);
      }

      .cls-82 {
        fill: url(#Sfumatura_senza_nome_113-65);
      }

      .cls-83 {
        fill: url(#Sfumatura_senza_nome_113-67);
      }

      .cls-84 {
        fill: url(#Sfumatura_senza_nome_113-60);
      }

      .cls-85 {
        fill: url(#Sfumatura_senza_nome_113-63);
      }

      .cls-86 {
        fill: url(#Sfumatura_senza_nome_113-61);
      }

      .cls-87 {
        fill: url(#Sfumatura_senza_nome_113-69);
      }

      .cls-88 {
        fill: url(#Sfumatura_senza_nome_113-66);
      }

      .cls-89 {
        fill: url(#Sfumatura_senza_nome_113-68);
      }

      .cls-90 {
        fill: url(#Sfumatura_senza_nome_605-4);
      }

      .cls-91 {
        fill: url(#Sfumatura_senza_nome_605-6);
      }

      .cls-92 {
        fill: url(#Sfumatura_senza_nome_605-8);
      }

      .cls-93 {
        fill: url(#Sfumatura_senza_nome_605-2);
      }

      .cls-94 {
        fill: url(#Sfumatura_senza_nome_113-4);
      }
    </style>
    <linearGradient id="Sfumatura_senza_nome_113" data-name="Sfumatura senza nome 113" x1="673.88" y1="1038.67" x2="1281.95" y2="1038.67" gradientUnits="userSpaceOnUse">
      <stop offset="0" stop-color="#0077b6"/>
      <stop offset="1" stop-color="#03045e"/>
    </linearGradient>
    <linearGradient id="Sfumatura_senza_nome_113-2" data-name="Sfumatura senza nome 113" x1="673.88" x2="1281.95" xlink:href="#Sfumatura_senza_nome_113"/>
    <linearGradient id="Sfumatura_senza_nome_113-3" data-name="Sfumatura senza nome 113" x1="673.88" x2="1281.95" xlink:href="#Sfumatura_senza_nome_113"/>
    <linearGradient id="Sfumatura_senza_nome_113-4" data-name="Sfumatura senza nome 113" y1="1038.67" x2="1281.95" y2="1038.67" xlink:href="#Sfumatura_senza_nome_113"/>
    <linearGradient id="Sfumatura_senza_nome_605" data-name="Sfumatura senza nome 605" x1="673.88" y1="1008.71" x2="1281.95" y2="1008.71" gradientUnits="userSpaceOnUse">
      <stop offset="0" stop-color="#8edfef"/>
      <stop offset="1" stop-color="#06b6d9"/>
    </linearGradient>
    <linearGradient id="Sfumatura_senza_nome_605-2" data-name="Sfumatura senza nome 605" x1="673.88" y1="1008.71" x2="1281.95" y2="1008.71" xlink:href="#Sfumatura_senza_nome_605"/>
    <linearGradient id="Sfumatura_senza_nome_113-5" data-name="Sfumatura senza nome 113" y1="1530.52" y2="1530.52" xlink:href="#Sfumatura_senza_nome_113"/>
    <linearGradient id="Sfumatura_senza_nome_113-6" data-name="Sfumatura senza nome 113" y1="1530.52" x2="1281.95" y2="1530.52" xlink:href="#Sfumatura_senza_nome_113"/>
    <linearGradient id="Sfumatura_senza_nome_113-7" data-name="Sfumatura senza nome 113" x1="673.88" y1="1523.02" x2="1281.95" y2="1523.02" xlink:href="#Sfumatura_senza_nome_113"/>
    <linearGradient id="Sfumatura_senza_nome_113-8" data-name="Sfumatura senza nome 113" x1="673.88" y1="1330.81" x2="1281.95" y2="1330.81" xlink:href="#Sfumatura_senza_nome_113"/>
    <linearGradient id="Sfumatura_senza_nome_113-9" data-name="Sfumatura senza nome 113" x1="673.88" y1="1154.66" x2="1281.95" y2="1154.66" xlink:href="#Sfumatura_senza_nome_113"/>
    <linearGradient id="Sfumatura_senza_nome_113-10" data-name="Sfumatura senza nome 113" x1="673.88" y1="1147.16" x2="1281.95" y2="1147.16" xlink:href="#Sfumatura_senza_nome_113"/>
    <linearGradient id="Sfumatura_senza_nome_113-11" data-name="Sfumatura senza nome 113" x1="673.88" y1="1147.16" x2="1281.95" y2="1147.16" xlink:href="#Sfumatura_senza_nome_113"/>
    <linearGradient id="Sfumatura_senza_nome_113-12" data-name="Sfumatura senza nome 113" y1="1530.52" x2="1281.95" y2="1530.52" xlink:href="#Sfumatura_senza_nome_113"/>
    <linearGradient id="Sfumatura_senza_nome_605-3" data-name="Sfumatura senza nome 605" y1="1367.79" x2="1281.95" y2="1367.79" xlink:href="#Sfumatura_senza_nome_605"/>
    <linearGradient id="Sfumatura_senza_nome_605-4" data-name="Sfumatura senza nome 605" x1="673.88" y1="1176.18" x2="1281.95" y2="1176.18" xlink:href="#Sfumatura_senza_nome_605"/>
    <linearGradient id="Sfumatura_senza_nome_113-13" data-name="Sfumatura senza nome 113" y1="539.33" y2="539.33" xlink:href="#Sfumatura_senza_nome_113"/>
    <linearGradient id="Sfumatura_senza_nome_113-14" data-name="Sfumatura senza nome 113" y1="539.33" x2="1281.95" y2="539.33" xlink:href="#Sfumatura_senza_nome_113"/>
    <linearGradient id="Sfumatura_senza_nome_113-15" data-name="Sfumatura senza nome 113" x1="673.88" y1="546.83" x2="1281.95" y2="546.83" xlink:href="#Sfumatura_senza_nome_113"/>
    <linearGradient id="Sfumatura_senza_nome_113-16" data-name="Sfumatura senza nome 113" x1="673.88" y1="740.29" x2="1281.95" y2="740.29" xlink:href="#Sfumatura_senza_nome_113"/>
    <linearGradient id="Sfumatura_senza_nome_113-17" data-name="Sfumatura senza nome 113" x1="673.88" y1="917.58" x2="1281.95" y2="917.58" xlink:href="#Sfumatura_senza_nome_113"/>
    <linearGradient id="Sfumatura_senza_nome_113-18" data-name="Sfumatura senza nome 113" x1="673.88" y1="925.08" x2="1281.95" y2="925.08" xlink:href="#Sfumatura_senza_nome_113"/>
    <linearGradient id="Sfumatura_senza_nome_113-19" data-name="Sfumatura senza nome 113" x1="673.88" y1="925.08" x2="1281.95" y2="925.08" xlink:href="#Sfumatura_senza_nome_113"/>
    <linearGradient id="Sfumatura_senza_nome_113-20" data-name="Sfumatura senza nome 113" y1="539.33" x2="1281.95" y2="539.33" xlink:href="#Sfumatura_senza_nome_113"/>
    <linearGradient id="Sfumatura_senza_nome_605-5" data-name="Sfumatura senza nome 605" y1="700.78" y2="700.78" xlink:href="#Sfumatura_senza_nome_605"/>
    <linearGradient id="Sfumatura_senza_nome_605-6" data-name="Sfumatura senza nome 605" x1="673.88" y1="893.66" x2="1281.95" y2="893.66" xlink:href="#Sfumatura_senza_nome_605"/>
    <linearGradient id="Sfumatura_senza_nome_113-21" data-name="Sfumatura senza nome 113" x1="1369.03" y1="890.69" x2="1390.72" y2="890.69" xlink:href="#Sfumatura_senza_nome_113"/>
    <linearGradient id="Sfumatura_senza_nome_113-22" data-name="Sfumatura senza nome 113" x1="1394.23" y1="895.39" x2="1411.31" y2="895.39" xlink:href="#Sfumatura_senza_nome_113"/>
    <linearGradient id="Sfumatura_senza_nome_113-23" data-name="Sfumatura senza nome 113" x1="1414.78" y1="895.39" x2="1429.9" y2="895.39" xlink:href="#Sfumatura_senza_nome_113"/>
    <linearGradient id="Sfumatura_senza_nome_113-24" data-name="Sfumatura senza nome 113" x1="1433.58" y1="895.39" x2="1450.65" y2="895.39" xlink:href="#Sfumatura_senza_nome_113"/>
    <linearGradient id="Sfumatura_senza_nome_113-25" data-name="Sfumatura senza nome 113" x1="1454.63" y1="895.39" x2="1470.22" y2="895.39" xlink:href="#Sfumatura_senza_nome_113"/>
    <linearGradient id="Sfumatura_senza_nome_113-26" data-name="Sfumatura senza nome 113" x1="1476.01" y1="895.24" x2="1486.79" y2="895.24" xlink:href="#Sfumatura_senza_nome_113"/>
    <linearGradient id="Sfumatura_senza_nome_113-27" data-name="Sfumatura senza nome 113" x1="1488.27" y1="895.39" x2="1504.29" y2="895.39" xlink:href="#Sfumatura_senza_nome_113"/>
    <linearGradient id="Sfumatura_senza_nome_113-28" data-name="Sfumatura senza nome 113" x1="1508.12" y1="890.69" x2="1524.53" y2="890.69" xlink:href="#Sfumatura_senza_nome_113"/>
    <linearGradient id="Sfumatura_senza_nome_113-29" data-name="Sfumatura senza nome 113" x1="1529.18" y1="895.39" x2="1546.25" y2="895.39" xlink:href="#Sfumatura_senza_nome_113"/>
    <linearGradient id="Sfumatura_senza_nome_113-30" data-name="Sfumatura senza nome 113" x1="1550.9" y1="895.24" x2="1561.68" y2="895.24" xlink:href="#Sfumatura_senza_nome_113"/>
    <linearGradient id="Sfumatura_senza_nome_113-31" data-name="Sfumatura senza nome 113" x1="1802.04" y1="-213.86" x2="1887.37" y2="-213.86" gradientTransform="translate(56.39 839.56) scale(.73 -.84)" xlink:href="#Sfumatura_senza_nome_113"/>
    <linearGradient id="Sfumatura_senza_nome_113-32" data-name="Sfumatura senza nome 113" x1="-753.76" y1="-1860.15" x2="-599.13" y2="-1860.15" gradientTransform="translate(-130.83 564.56) rotate(-90) scale(.73 -.84)" xlink:href="#Sfumatura_senza_nome_113"/>
    <linearGradient id="Sfumatura_senza_nome_113-33" data-name="Sfumatura senza nome 113" x1="2178.82" y1="956" x2="2333.45" y2="956" gradientTransform="translate(-357.82 1822.06) scale(.8 -.84)" xlink:href="#Sfumatura_senza_nome_113"/>
    <linearGradient id="Sfumatura_senza_nome_113-34" data-name="Sfumatura senza nome 113" x1="-4316.84" y1="-1923.9" x2="-4162.21" y2="-1923.9" gradientTransform="translate(-161.77 42.1) rotate(-90) scale(.23 -.84)" xlink:href="#Sfumatura_senza_nome_113"/>
    <linearGradient id="Sfumatura_senza_nome_113-35" data-name="Sfumatura senza nome 113" x1="-6527.93" y1="-1476.7" x2="-6373.3" y2="-1476.7" gradientTransform="translate(162.8 -1225.1) rotate(-90) scale(.36 -.84)" xlink:href="#Sfumatura_senza_nome_113"/>
    <linearGradient id="Sfumatura_senza_nome_113-36" data-name="Sfumatura senza nome 113" x1="4340.48" y1="2535.08" x2="4425.81" y2="2535.08" gradientTransform="translate(-758.08 3107.68) scale(.51 -.84)" xlink:href="#Sfumatura_senza_nome_113"/>
    <linearGradient id="Sfumatura_senza_nome_113-37" data-name="Sfumatura senza nome 113" x1="2434.3" y1="-866.28" x2="2519.63" y2="-866.28" gradientTransform="translate(236.17 288.44) scale(.51 -.84)" xlink:href="#Sfumatura_senza_nome_113"/>
    <linearGradient id="Sfumatura_senza_nome_113-38" data-name="Sfumatura senza nome 113" x1="-1995.04" y1="-1766.62" x2="-1909.71" y2="-1766.62" gradientTransform="translate(55.92 -38.65) rotate(-90) scale(.54 -.84)" xlink:href="#Sfumatura_senza_nome_113"/>
    <linearGradient id="Sfumatura_senza_nome_113-39" data-name="Sfumatura senza nome 113" x1="8904.88" y1="2103.49" x2="8990.21" y2="2103.49" gradientTransform="translate(-1071.68 2831.05) scale(.29 -.84)" xlink:href="#Sfumatura_senza_nome_113"/>
    <linearGradient id="Sfumatura_senza_nome_113-40" data-name="Sfumatura senza nome 113" x1="4194.3" y1="2585.22" x2="4279.63" y2="2585.22" gradientTransform="translate(-683.58 3306.57) scale(.51 -.84)" xlink:href="#Sfumatura_senza_nome_113"/>
    <linearGradient id="Sfumatura_senza_nome_113-41" data-name="Sfumatura senza nome 113" x1="6644.03" y1="-783.99" x2="6729.36" y2="-783.99" gradientTransform="translate(-487.95 448.5) scale(.29 -.84)" xlink:href="#Sfumatura_senza_nome_113"/>
    <linearGradient id="Sfumatura_senza_nome_113-42" data-name="Sfumatura senza nome 113" x1="1349.09" y1="2790.32" x2="1396.84" y2="2790.32" gradientTransform="translate(0 3848.82) scale(1 -1)" xlink:href="#Sfumatura_senza_nome_113"/>
    <linearGradient id="Sfumatura_senza_nome_113-43" data-name="Sfumatura senza nome 113" x1="1413.15" y1="2866.31" x2="1460.9" y2="2866.31" gradientTransform="translate(0 3848.82) scale(1 -1)" xlink:href="#Sfumatura_senza_nome_113"/>
    <linearGradient id="Sfumatura_senza_nome_113-44" data-name="Sfumatura senza nome 113" x1="1412.52" y1="2713.84" x2="1460.27" y2="2713.84" gradientTransform="translate(0 3848.82) scale(1 -1)" xlink:href="#Sfumatura_senza_nome_113"/>
    <linearGradient id="Sfumatura_senza_nome_113-45" data-name="Sfumatura senza nome 113" x1="1495.54" y1="2713.84" x2="1543.29" y2="2713.84" gradientTransform="translate(0 3848.82) scale(1 -1)" xlink:href="#Sfumatura_senza_nome_113"/>
    <linearGradient id="Sfumatura_senza_nome_113-46" data-name="Sfumatura senza nome 113" x1="1528.02" y1="2790.32" x2="1575.77" y2="2790.32" gradientTransform="translate(0 3848.82) scale(1 -1)" xlink:href="#Sfumatura_senza_nome_113"/>
    <linearGradient id="Sfumatura_senza_nome_113-47" data-name="Sfumatura senza nome 113" x1="1495.54" y1="2870.51" x2="1543.29" y2="2870.51" gradientTransform="translate(0 3848.82) scale(1 -1)" xlink:href="#Sfumatura_senza_nome_113"/>
    <linearGradient id="Sfumatura_senza_nome_113-48" data-name="Sfumatura senza nome 113" x1="1438.37" y1="2781.54" x2="1514.56" y2="2781.54" gradientTransform="translate(0 3848.82) scale(1 -1)" xlink:href="#Sfumatura_senza_nome_113"/>
    <linearGradient id="Sfumatura_senza_nome_11" data-name="Sfumatura senza nome 11" x1="1080.84" y1="3208.25" x2="1125.91" y2="3208.25" gradientTransform="translate(0 3848.82) scale(1 -1)" gradientUnits="userSpaceOnUse">
      <stop offset="0" stop-color="#90e0ef"/>
      <stop offset="1" stop-color="#00b4d8"/>
    </linearGradient>
    <linearGradient id="Sfumatura_senza_nome_113-49" data-name="Sfumatura senza nome 113" x1="1033.31" y1="3158.25" x2="1078.37" y2="3158.25" gradientTransform="translate(0 3848.82) scale(1 -1)" xlink:href="#Sfumatura_senza_nome_113"/>
    <linearGradient id="Sfumatura_senza_nome_11-2" data-name="Sfumatura senza nome 11" x1="1081.47" y1="2536.41" x2="1126.53" y2="2536.41" xlink:href="#Sfumatura_senza_nome_11"/>
    <linearGradient id="Sfumatura_senza_nome_113-50" data-name="Sfumatura senza nome 113" x1="1033.93" y1="2486.41" x2="1079" y2="2486.41" gradientTransform="translate(0 3848.82) scale(1 -1)" xlink:href="#Sfumatura_senza_nome_113"/>
    <linearGradient id="Sfumatura_senza_nome_11-3" data-name="Sfumatura senza nome 11" x1="1079.61" y1="2862.95" x2="1124.67" y2="2862.95" xlink:href="#Sfumatura_senza_nome_11"/>
    <linearGradient id="Sfumatura_senza_nome_113-51" data-name="Sfumatura senza nome 113" x1="1032.08" y1="2812.95" x2="1077.14" y2="2812.95" gradientTransform="translate(0 3848.82) scale(1 -1)" xlink:href="#Sfumatura_senza_nome_113"/>
    <linearGradient id="Sfumatura_senza_nome_605-7" data-name="Sfumatura senza nome 605" x1="243.34" y1="1805.34" x2="461.96" y2="1805.34" xlink:href="#Sfumatura_senza_nome_605"/>
    <linearGradient id="Sfumatura_senza_nome_605-8" data-name="Sfumatura senza nome 605" x1="243.34" y1="1805.34" x2="461.96" y2="1805.34" xlink:href="#Sfumatura_senza_nome_605"/>
    <linearGradient id="Sfumatura_senza_nome_113-52" data-name="Sfumatura senza nome 113" x1="243.34" y1="1885.7" x2="462.92" y2="1885.7" xlink:href="#Sfumatura_senza_nome_113"/>
    <linearGradient id="Sfumatura_senza_nome_113-53" data-name="Sfumatura senza nome 113" x1="243.34" y1="1885.7" x2="462.92" y2="1885.7" xlink:href="#Sfumatura_senza_nome_113"/>
    <linearGradient id="Sfumatura_senza_nome_11-4" data-name="Sfumatura senza nome 11" x1="393.49" y1="201.59" x2="506.83" y2="201.59" gradientTransform="matrix(1,0,0,1,0,0)" xlink:href="#Sfumatura_senza_nome_11"/>
    <linearGradient id="Sfumatura_senza_nome_11-5" data-name="Sfumatura senza nome 11" x1="317.65" y1="377.53" x2="582.66" y2="377.53" gradientTransform="matrix(1,0,0,1,0,0)" xlink:href="#Sfumatura_senza_nome_11"/>
    <filter id="drop-shadow-34" x="293.97" y="178.48" width="320" height="407" filterUnits="userSpaceOnUse">
      <feOffset dx="4.19" dy="4.19"/>
      <feGaussianBlur result="blur" stdDeviation="8.98"/>
      <feFlood flood-color="#000" flood-opacity=".25"/>
      <feComposite in2="blur" operator="in"/>
      <feComposite in="SourceGraphic"/>
    </filter>
    <filter id="drop-shadow-35" x="386.97" y="138.48" width="135" height="135" filterUnits="userSpaceOnUse">
      <feOffset dx="4.19" dy="4.19"/>
      <feGaussianBlur result="blur-2" stdDeviation="8.98"/>
      <feFlood flood-color="#000" flood-opacity=".25"/>
      <feComposite in2="blur-2" operator="in"/>
      <feComposite in="SourceGraphic"/>
    </filter>
    <linearGradient id="Sfumatura_senza_nome_113-54" data-name="Sfumatura senza nome 113" x1="375.88" y1="3484" x2="523.17" y2="3484" gradientTransform="translate(0 3848.82) scale(1 -1)" xlink:href="#Sfumatura_senza_nome_113"/>
    <linearGradient id="Sfumatura_senza_nome_11-6" data-name="Sfumatura senza nome 11" x1="394.28" y1="762.03" x2="507.62" y2="762.03" gradientTransform="matrix(1,0,0,1,0,0)" xlink:href="#Sfumatura_senza_nome_11"/>
    <linearGradient id="Sfumatura_senza_nome_11-7" data-name="Sfumatura senza nome 11" x1="318.44" y1="937.97" x2="583.45" y2="937.97" gradientTransform="matrix(1,0,0,1,0,0)" xlink:href="#Sfumatura_senza_nome_11"/>
    <filter id="drop-shadow-36" x="295.3" y="738.46" width="320" height="407" filterUnits="userSpaceOnUse">
      <feOffset dx="4.19" dy="4.19"/>
      <feGaussianBlur result="blur-3" stdDeviation="8.98"/>
      <feFlood flood-color="#000" flood-opacity=".25"/>
      <feComposite in2="blur-3" operator="in"/>
      <feComposite in="SourceGraphic"/>
    </filter>
    <filter id="drop-shadow-37" x="387.76" y="698.93" width="135" height="135" filterUnits="userSpaceOnUse">
      <feOffset dx="4.19" dy="4.19"/>
      <feGaussianBlur result="blur-4" stdDeviation="8.98"/>
      <feFlood flood-color="#000" flood-opacity=".25"/>
      <feComposite in2="blur-4" operator="in"/>
      <feComposite in="SourceGraphic"/>
    </filter>
    <linearGradient id="Sfumatura_senza_nome_113-55" data-name="Sfumatura senza nome 113" x1="376.67" y1="2923.55" x2="523.96" y2="2923.55" gradientTransform="translate(0 3848.82) scale(1 -1)" xlink:href="#Sfumatura_senza_nome_113"/>
    <linearGradient id="Sfumatura_senza_nome_11-8" data-name="Sfumatura senza nome 11" x1="394.28" y1="1321.96" x2="507.62" y2="1321.96" gradientTransform="matrix(1,0,0,1,0,0)" xlink:href="#Sfumatura_senza_nome_11"/>
    <linearGradient id="Sfumatura_senza_nome_11-9" data-name="Sfumatura senza nome 11" x1="318.44" y1="1497.89" x2="583.45" y2="1497.89" gradientTransform="matrix(1,0,0,1,0,0)" xlink:href="#Sfumatura_senza_nome_11"/>
    <filter id="drop-shadow-38" x="295.3" y="1298.38" width="320" height="407" filterUnits="userSpaceOnUse">
      <feOffset dx="4.19" dy="4.19"/>
      <feGaussianBlur result="blur-5" stdDeviation="8.98"/>
      <feFlood flood-color="#000" flood-opacity=".25"/>
      <feComposite in2="blur-5" operator="in"/>
      <feComposite in="SourceGraphic"/>
    </filter>
    <filter id="drop-shadow-39" x="387.76" y="1258.85" width="135" height="135" filterUnits="userSpaceOnUse">
      <feOffset dx="4.19" dy="4.19"/>
      <feGaussianBlur result="blur-6" stdDeviation="8.98"/>
      <feFlood flood-color="#000" flood-opacity=".25"/>
      <feComposite in2="blur-6" operator="in"/>
      <feComposite in="SourceGraphic"/>
    </filter>
    <linearGradient id="Sfumatura_senza_nome_113-56" data-name="Sfumatura senza nome 113" x1="376.67" y1="2363.63" x2="523.96" y2="2363.63" gradientTransform="translate(0 3848.82) scale(1 -1)" xlink:href="#Sfumatura_senza_nome_113"/>
    <linearGradient id="Sfumatura_senza_nome_113-57" data-name="Sfumatura senza nome 113" x1="386.83" y1="122.5" x2="403.38" y2="122.5" xlink:href="#Sfumatura_senza_nome_113"/>
    <linearGradient id="Sfumatura_senza_nome_113-58" data-name="Sfumatura senza nome 113" x1="482.72" y1="118.06" x2="509.95" y2="118.06" xlink:href="#Sfumatura_senza_nome_113"/>
    <linearGradient id="Sfumatura_senza_nome_113-59" data-name="Sfumatura senza nome 113" x1="452.88" y1="122.65" x2="470.11" y2="122.65" xlink:href="#Sfumatura_senza_nome_113"/>
    <linearGradient id="Sfumatura_senza_nome_113-60" data-name="Sfumatura senza nome 113" x1="408.07" y1="122.65" x2="426.32" y2="122.65" xlink:href="#Sfumatura_senza_nome_113"/>
    <linearGradient id="Sfumatura_senza_nome_113-61" data-name="Sfumatura senza nome 113" x1="429.95" y1="118.21" x2="448.12" y2="118.21" xlink:href="#Sfumatura_senza_nome_113"/>
    <linearGradient id="Sfumatura_senza_nome_113-62" data-name="Sfumatura senza nome 113" x1="389.38" y1="685.98" x2="405.93" y2="685.98" xlink:href="#Sfumatura_senza_nome_113"/>
    <linearGradient id="Sfumatura_senza_nome_113-63" data-name="Sfumatura senza nome 113" x1="410.62" y1="686.13" x2="428.87" y2="686.13" xlink:href="#Sfumatura_senza_nome_113"/>
    <linearGradient id="Sfumatura_senza_nome_113-64" data-name="Sfumatura senza nome 113" x1="432.49" y1="681.69" x2="450.66" y2="681.69" xlink:href="#Sfumatura_senza_nome_113"/>
    <linearGradient id="Sfumatura_senza_nome_113-65" data-name="Sfumatura senza nome 113" x1="455.43" y1="686.13" x2="472.66" y2="686.13" xlink:href="#Sfumatura_senza_nome_113"/>
    <linearGradient id="Sfumatura_senza_nome_113-66" data-name="Sfumatura senza nome 113" x1="487.99" y1="681.54" x2="508.8" y2="681.54" xlink:href="#Sfumatura_senza_nome_113"/>
    <linearGradient id="Sfumatura_senza_nome_113-67" data-name="Sfumatura senza nome 113" x1="386.94" y1="1248.44" x2="403.5" y2="1248.44" xlink:href="#Sfumatura_senza_nome_113"/>
    <linearGradient id="Sfumatura_senza_nome_113-68" data-name="Sfumatura senza nome 113" x1="408.19" y1="1248.59" x2="426.44" y2="1248.59" xlink:href="#Sfumatura_senza_nome_113"/>
    <linearGradient id="Sfumatura_senza_nome_113-69" data-name="Sfumatura senza nome 113" x1="430.06" y1="1244.15" x2="448.23" y2="1244.15" xlink:href="#Sfumatura_senza_nome_113"/>
    <linearGradient id="Sfumatura_senza_nome_113-70" data-name="Sfumatura senza nome 113" x1="453" y1="1248.59" x2="470.22" y2="1248.59" xlink:href="#Sfumatura_senza_nome_113"/>
    <linearGradient id="Sfumatura_senza_nome_113-71" data-name="Sfumatura senza nome 113" x1="484.53" y1="1244" x2="506.88" y2="1244" xlink:href="#Sfumatura_senza_nome_113"/>
  </defs>
  <g>
    <line class="cls-5" x1="706.55" y1="1038.67" x2="721.55" y2="1038.67"/>
    <line class="cls-26" x1="750.13" y1="1038.67" x2="1250.16" y2="1038.67"/>
    <line class="cls-8" x1="1264.45" y1="1038.67" x2="1279.45" y2="1038.67"/>
    <path class="cls-94" d="M676.38,1038.67c14.2,5.27,31.82,14.26,42.74,23.78l-8.6-23.78,8.6-23.77c-10.92,9.52-28.54,18.51-42.74,23.77Z"/>
  </g>
  <g>
    <line class="cls-6" x1="676.38" y1="1008.71" x2="1249.28" y2="1008.71"/>
    <path class="cls-93" d="M1279.45,1008.71c-14.2,5.27-31.82,14.26-42.74,23.78l8.6-23.78-8.6-23.77c10.92,9.52,28.54,18.51,42.74,23.77Z"/>
  </g>
  <g>
    <line class="cls-7" x1="706.55" y1="1530.52" x2="721.55" y2="1530.52"/>
    <line class="cls-16" x1="750.74" y1="1530.52" x2="1028.01" y2="1530.52"/>
    <polyline class="cls-9" points="1042.6 1530.52 1057.6 1530.52 1057.6 1515.52"/>
    <line class="cls-17" x1="1057.6" y1="1483.39" x2="1057.6" y2="1178.22"/>
    <polyline class="cls-10" points="1057.6 1162.16 1057.6 1147.16 1072.6 1147.16"/>
    <line class="cls-24" x1="1100.01" y1="1147.16" x2="1250.75" y2="1147.16"/>
    <line class="cls-20" x1="1264.45" y1="1147.16" x2="1279.45" y2="1147.16"/>
    <path class="cls-39" d="M676.38,1530.52c14.2,5.27,31.82,14.26,42.74,23.78l-8.6-23.78,8.6-23.77c-10.92,9.52-28.54,18.51-42.74,23.77Z"/>
  </g>
  <g>
    <polyline class="cls-11" points="676.38 1559.39 1097.6 1559.39 1097.6 1176.18 1249.27 1176.18"/>
    <path class="cls-90" d="M1279.45,1176.18c-14.2,5.27-31.82,14.26-42.74,23.78l8.6-23.78-8.6-23.77c10.92,9.52,28.54,18.51,42.74,23.77Z"/>
  </g>
  <g>
    <line class="cls-21" x1="706.55" y1="539.33" x2="721.55" y2="539.33"/>
    <line class="cls-25" x1="750.74" y1="539.33" x2="1028.01" y2="539.33"/>
    <polyline class="cls-22" points="1042.6 539.33 1057.6 539.33 1057.6 554.33"/>
    <line class="cls-15" x1="1057.6" y1="586.67" x2="1057.6" y2="893.91"/>
    <polyline class="cls-18" points="1057.6 910.08 1057.6 925.08 1072.6 925.08"/>
    <line class="cls-23" x1="1100.01" y1="925.08" x2="1250.75" y2="925.08"/>
    <line class="cls-19" x1="1264.45" y1="925.08" x2="1279.45" y2="925.08"/>
    <path class="cls-52" d="M676.38,539.33c14.2,5.27,31.82,14.26,42.74,23.78l-8.6-23.78,8.6-23.77c-10.92,9.52-28.54,18.51-42.74,23.77Z"/>
  </g>
  <g>
    <polyline class="cls-12" points="676.38 507.91 1097.6 507.91 1097.6 893.66 1249.28 893.66"/>
    <path class="cls-91" d="M1279.45,893.66c-14.2,5.27-31.82,14.26-42.74,23.78l8.6-23.78-8.6-23.77c10.92,9.52,28.54,18.51,42.74,23.77Z"/>
  </g>
  <path class="cls-28" d="M1637.52,1209.97c-83.24-.17-167.72,2.3-250.87,3.01-30.07.16-62.58.25-92.65.06-8.03.33-15.04-6.29-14.9-14.42,0,0,0-.71,0-.71,0,0,.02-2.85.02-2.85,1.46-112.99,3.05-229.2,1.37-342.09,0,0-.06-5.7-.06-5.7-.17-6.95,5.88-13.16,12.9-13.09,60.81-.78,121.63-1.39,182.45-1.57,43.28-.18,117.15-.6,159.64-.51,0,0,1.43,0,1.43,0,0,0,.73,0,.73,0,0,0,.99.05.99.05.66.01,1.31.16,1.97.25,7.21,1.39,12.57,8.28,12.14,15.63-.27,44.88-.17,95-.91,139.69-.84,59.62-2.35,122.87-2.78,182.45,0,0-.11,22.81-.11,22.81,0,0-.02,5.7-.02,5.7.08,6.07-5.26,11.44-11.35,11.3h0ZM1637.52,1209.17c5.61.06,10.55-4.86,10.42-10.5,0,0-.02-5.7-.02-5.7,0,0-.11-22.81-.11-22.81-.21-43.43-1.34-93.15-2.04-136.84-1.17-59.67-1.5-122.62-1.63-182.45,0,0-.01-2.85-.01-2.85,0,0,0-.71,0-.71,0,0-.03-.46-.03-.46-.1-2.01-1.22-3.94-2.89-5.08-1.28-.87-2.82-1.2-4.36-1.13-22.7.1-47.28-.07-69.84-.11-88.48-.21-185.71-.84-273.68-1.98-4.68-.12-8.92,3.96-8.87,8.71,0,0-.06,5.7-.06,5.7-1.71,112.87-.05,229.14,1.37,342.09,0,0,.02,2.85.02,2.85,0,0,0,.71,0,.71,0,0,.03.51.03.51.19,3.81,3.65,7.05,7.47,6.96,22.94-.2,47.74-.11,70.54-.05,90.77.31,182.84,3.3,273.68,3.12h0Z"/>
  <g>
    <path class="cls-46" d="M1390.72,906.26h-3.52l-4.69-9.98c-.57-1.21-1.24-2.04-2.01-2.5-.77-.46-1.82-.68-3.15-.68h-5.16v13.16h-3.16v-31.13h11.33c2.99,0,5.28.75,6.86,2.25,1.58,1.5,2.36,3.71,2.36,6.62,0,2.41-.61,4.37-1.82,5.85-1.21,1.49-2.94,2.42-5.18,2.8.7.24,1.32.63,1.86,1.19.53.56,1.02,1.31,1.47,2.25l4.8,10.16ZM1380.09,890.09c2.13,0,3.73-.5,4.79-1.5,1.06-1,1.58-2.52,1.58-4.55s-.52-3.49-1.56-4.46-2.64-1.46-4.8-1.46h-7.89v11.97h7.89Z"/>
    <path class="cls-43" d="M1411.31,896.06h-13.91c.1,2.5.7,4.39,1.8,5.67,1.09,1.28,2.64,1.92,4.65,1.92,2.21,0,4.25-.85,6.09-2.56l1.05,2.61c-.83.88-1.9,1.58-3.2,2.1-1.3.51-2.63.77-3.99.77-2.97,0-5.31-.99-7.01-2.96-1.71-1.97-2.56-4.7-2.56-8.17,0-2.21.38-4.16,1.13-5.85.75-1.69,1.82-3.01,3.18-3.95,1.37-.94,2.92-1.41,4.67-1.41,2.53,0,4.51.93,5.94,2.8,1.43,1.87,2.15,4.44,2.15,7.71v1.32ZM1399.25,888.77c-1,1.18-1.6,2.84-1.78,4.99h11.06c-.05-2.18-.53-3.85-1.45-5.01-.91-1.16-2.19-1.74-3.83-1.74s-3,.59-4,1.77Z"/>
    <path class="cls-41" d="M1414.78,903.79l1.05-2.65c1.02.91,2.05,1.57,3.11,1.97s2.25.6,3.58.6c1.41,0,2.48-.27,3.22-.82.74-.54,1.11-1.33,1.11-2.36,0-.85-.25-1.53-.74-2.03-.5-.5-1.32-.9-2.46-1.19l-3.2-.84c-1.62-.41-2.85-1.12-3.71-2.12-.86-1-1.29-2.24-1.29-3.71,0-1.91.67-3.46,1.99-4.64,1.33-1.18,3.1-1.77,5.31-1.77,1.33,0,2.59.24,3.79.73,1.2.49,2.2,1.19,3.01,2.1l-1.05,2.61c-1.75-1.68-3.66-2.52-5.74-2.52-1.33,0-2.36.29-3.11.86s-1.11,1.38-1.11,2.41c0,.85.23,1.54.68,2.05.46.52,1.19.91,2.21,1.17l3.24.88c1.77.47,3.09,1.19,3.95,2.14.86.96,1.29,2.2,1.29,3.73,0,1.88-.67,3.39-2.01,4.5-1.34,1.12-3.17,1.68-5.49,1.68-3.2,0-5.74-.93-7.62-2.78Z"/>
    <path class="cls-45" d="M1450.65,896.06h-13.91c.1,2.5.7,4.39,1.8,5.67,1.09,1.28,2.64,1.92,4.65,1.92,2.21,0,4.25-.85,6.09-2.56l1.05,2.61c-.83.88-1.9,1.58-3.2,2.1-1.3.51-2.63.77-3.99.77-2.97,0-5.31-.99-7.01-2.96-1.71-1.97-2.56-4.7-2.56-8.17,0-2.21.38-4.16,1.13-5.85.75-1.69,1.82-3.01,3.18-3.95,1.37-.94,2.92-1.41,4.67-1.41,2.53,0,4.51.93,5.94,2.8,1.43,1.87,2.15,4.44,2.15,7.71v1.32ZM1438.6,888.77c-1,1.18-1.6,2.84-1.78,4.99h11.06c-.05-2.18-.53-3.85-1.45-5.01-.91-1.16-2.19-1.74-3.83-1.74s-3,.59-4,1.77Z"/>
    <path class="cls-42" d="M1468.44,886.32c1.18,1.4,1.78,3.53,1.78,6.38v13.56h-3.09v-3.67c-.5,1.27-1.25,2.25-2.27,2.94-1.02.69-2.19,1.04-3.52,1.04-1.22,0-2.35-.28-3.38-.84-1.03-.56-1.84-1.34-2.44-2.34-.6-1-.9-2.1-.9-3.31,0-1.62.37-2.88,1.09-3.78.73-.9,1.93-1.55,3.59-1.94s3.99-.6,6.95-.6h.86v-1.46c0-1.8-.33-3.1-.98-3.91-.65-.81-1.71-1.21-3.16-1.21-2.19,0-4.36.77-6.52,2.3l-1.05-2.61c.99-.79,2.18-1.44,3.57-1.92,1.39-.49,2.74-.73,4.04-.73,2.42,0,4.23.7,5.41,2.1ZM1465.63,901.95c1-1.19,1.5-2.73,1.5-4.61v-1.28h-.7c-2.29,0-4.04.11-5.23.33-1.2.22-2.05.59-2.56,1.1-.51.52-.76,1.27-.76,2.27,0,1.15.37,2.1,1.11,2.85s1.67,1.13,2.79,1.13c1.56,0,2.84-.6,3.85-1.79Z"/>
    <path class="cls-44" d="M1486.79,887.31l-2.07.22c-1.95.21-3.37.9-4.24,2.08-.87,1.18-1.31,2.64-1.31,4.37v12.28h-3.16v-21.51h3.09v3.75c1.07-2.5,3.17-3.9,6.29-4.2l1.13-.09.27,3.09Z"/>
    <path class="cls-48" d="M1492.57,905.2c-1.38-.91-2.44-2.2-3.18-3.86-.74-1.66-1.11-3.61-1.11-5.85s.38-4.2,1.15-5.9c.77-1.69,1.85-3.01,3.24-3.95,1.39-.94,3.03-1.41,4.9-1.41,1.28,0,2.53.26,3.75.77,1.22.52,2.21,1.2,2.97,2.05l-1.05,2.65c-1.8-1.65-3.62-2.47-5.47-2.47-1.95,0-3.48.72-4.57,2.16-1.09,1.44-1.64,3.47-1.64,6.09s.55,4.59,1.64,6.01,2.62,2.12,4.57,2.12c1.85,0,3.67-.82,5.47-2.47l1.05,2.65c-.81.85-1.82,1.53-3.05,2.03-1.22.5-2.49.75-3.79.75-1.88,0-3.5-.46-4.88-1.37Z"/>
    <path class="cls-47" d="M1524.53,892.74v13.51h-3.16v-13.29c0-2-.35-3.46-1.04-4.37-.69-.91-1.79-1.37-3.3-1.37-1.75,0-3.14.6-4.18,1.81-1.04,1.21-1.56,2.84-1.56,4.9v12.32h-3.16v-31.13h3.16v13.07c.62-1.3,1.49-2.28,2.6-2.96,1.11-.68,2.38-1.02,3.81-1.02,4.56,0,6.84,2.84,6.84,8.52Z"/>
    <path class="cls-40" d="M1546.25,896.06h-13.91c.1,2.5.7,4.39,1.8,5.67,1.09,1.28,2.64,1.92,4.65,1.92,2.21,0,4.25-.85,6.09-2.56l1.05,2.61c-.83.88-1.9,1.58-3.2,2.1-1.3.51-2.63.77-3.99.77-2.97,0-5.31-.99-7.01-2.96-1.71-1.97-2.56-4.7-2.56-8.17,0-2.21.38-4.16,1.13-5.85.75-1.69,1.82-3.01,3.18-3.95,1.37-.94,2.92-1.41,4.67-1.41,2.53,0,4.51.93,5.94,2.8,1.43,1.87,2.15,4.44,2.15,7.71v1.32ZM1534.2,888.77c-1,1.18-1.6,2.84-1.78,4.99h11.06c-.05-2.18-.53-3.85-1.45-5.01-.91-1.16-2.19-1.74-3.83-1.74s-3,.59-4,1.77Z"/>
    <path class="cls-38" d="M1561.68,887.31l-2.07.22c-1.95.21-3.37.9-4.24,2.08-.87,1.18-1.31,2.64-1.31,4.37v12.28h-3.16v-21.51h3.09v3.75c1.07-2.5,3.17-3.9,6.29-4.2l1.13-.09.27,3.09Z"/>
  </g>
  <g>
    <rect class="cls-55" x="1371.88" y="1013.97" width="62.14" height="10.45" transform="translate(-287.14 1407.3) rotate(-48.93)"/>
    <rect class="cls-56" x="1426.47" y="1002.19" width="10.45" height="112.62"/>
    <rect class="cls-53" x="1385.24" y="1013.79" width="123.5" height="10.45" transform="translate(-308.75 796.45) rotate(-27.93)"/>
    <rect class="cls-54" x="1449.08" y="999.9" width="10.45" height="35.18" transform="translate(-293 705.68) rotate(-24.86)"/>
    <rect class="cls-50" x="1398" y="1069.23" width="10.45" height="55.23" transform="translate(-372.31 1236.79) rotate(-42.52)"/>
    <rect class="cls-51" x="1455.98" y="972.98" width="43.89" height="10.45" transform="translate(-61.12 99.29) rotate(-3.77)"/>
    <rect class="cls-57" x="1478.22" y="1010.89" width="43.89" height="10.45" transform="translate(-84.73 1894.24) rotate(-63.1)"/>
    <rect class="cls-58" x="1534.66" y="993.67" width="10.45" height="45.7" transform="translate(-266.2 638.88) rotate(-21.62)"/>
    <rect class="cls-49" x="1509.93" y="1058.89" width="24.34" height="10.45" transform="translate(-149.28 254.42) rotate(-9.11)"/>
    <rect class="cls-68" x="1455.84" y="1129.75" width="43.89" height="10.45"/>
    <rect class="cls-62" x="1439.31" y="1101.82" width="24.34" height="10.45" transform="translate(-296.84 1632.13) rotate(-54.05)"/>
    <circle class="cls-63" cx="1372.96" cy="1058.51" r="23.87"/>
    <circle class="cls-64" cx="1437.02" cy="982.51" r="23.87"/>
    <circle class="cls-70" cx="1436.4" cy="1134.98" r="23.87"/>
    <circle class="cls-71" cx="1519.41" cy="1134.98" r="23.87"/>
    <circle class="cls-72" cx="1551.89" cy="1058.51" r="23.87"/>
    <circle class="cls-73" cx="1519.41" cy="978.31" r="23.87"/>
    <circle class="cls-69" cx="1476.46" cy="1067.28" r="38.09"/>
  </g>
  <path class="cls-27" d="M1120.76,631.34c.05-2.75.09-6.65-.07-8.39-.79-8.28-8.55-14.19-16.64-14.49-8.57-.32-17.14,5.71-17.98,14.49-.17,1.74-.13,5.64-.07,8.39h-2.9c-1.24,0-2.25,1-2.25,2.25v36.86c0,1.24,1,2.25,2.25,2.25h40.57c1.24,0,2.25-1,2.25-2.25v-36.86c0-1.24-1-2.25-2.25-2.25h-2.9ZM1106.28,658.52h-5.82l1.49-5.93c-1.07-.53-1.8-1.64-1.76-2.93.04-1.63,1.35-2.99,2.97-3.09,1.85-.12,3.39,1.35,3.39,3.18,0,1.25-.72,2.32-1.77,2.85l1.49,5.93h0ZM1115.22,631.2h-23.53c-.89,0-1.61-.72-1.62-1.61-.02-1.89-.01-3.89.09-4.97.66-7.19,6.5-12.32,13.23-12.44,6.36-.11,12.77,5.65,13.38,12.44.1,1.08.1,3.08.08,4.97,0,.89-.73,1.61-1.62,1.61h0Z"/>
  <path class="cls-61" d="M1073.23,681.34c.05-2.75.09-6.65-.07-8.39-.79-8.28-8.55-14.19-16.64-14.49-8.57-.32-17.14,5.71-17.98,14.49-.17,1.74-.13,5.64-.07,8.39h-2.9c-1.24,0-2.25,1-2.25,2.25v36.86c0,1.24,1,2.25,2.25,2.25h40.57c1.24,0,2.25-1,2.25-2.25v-36.86c0-1.24-1-2.25-2.25-2.25h-2.9ZM1058.75,708.52h-5.82l1.49-5.93c-1.07-.53-1.8-1.64-1.76-2.93.04-1.63,1.35-2.99,2.97-3.09,1.85-.12,3.39,1.35,3.39,3.18,0,1.25-.72,2.32-1.77,2.85l1.49,5.93h0ZM1067.68,681.2h-23.53c-.89,0-1.61-.72-1.62-1.61-.02-1.89-.01-3.89.09-4.97.66-7.19,6.5-12.32,13.23-12.44,6.36-.11,12.77,5.65,13.38,12.44.1,1.08.1,3.08.08,4.97,0,.89-.73,1.61-1.62,1.61h0Z"/>
  <path class="cls-36" d="M1121.38,1303.18c.05-2.75.09-6.65-.07-8.39-.79-8.28-8.55-14.19-16.64-14.49-8.57-.32-17.14,5.71-17.98,14.49-.17,1.74-.13,5.64-.07,8.39h-2.9c-1.24,0-2.25,1-2.25,2.25v36.86c0,1.24,1,2.25,2.25,2.25h40.57c1.24,0,2.25-1,2.25-2.25v-36.86c0-1.24-1-2.25-2.25-2.25h-2.9ZM1106.91,1330.36h-5.82l1.49-5.93c-1.07-.53-1.8-1.64-1.76-2.93.04-1.63,1.35-2.99,2.97-3.09,1.85-.12,3.39,1.35,3.39,3.18,0,1.25-.72,2.32-1.77,2.85l1.49,5.93h0ZM1115.84,1303.04h-23.53c-.89,0-1.61-.72-1.62-1.61-.02-1.89-.01-3.89.09-4.97.66-7.19,6.5-12.32,13.23-12.44,6.36-.11,12.77,5.65,13.38,12.44.1,1.08.1,3.08.08,4.97,0,.89-.73,1.61-1.62,1.61h0Z"/>
  <path class="cls-79" d="M1073.85,1353.18c.05-2.75.09-6.65-.07-8.39-.79-8.28-8.55-14.19-16.64-14.49-8.57-.32-17.14,5.71-17.98,14.49-.17,1.74-.13,5.64-.07,8.39h-2.9c-1.24,0-2.25,1-2.25,2.25v36.86c0,1.24,1,2.25,2.25,2.25h40.57c1.24,0,2.25-1,2.25-2.25v-36.86c0-1.24-1-2.25-2.25-2.25h-2.9ZM1059.37,1380.36h-5.82l1.49-5.93c-1.07-.53-1.8-1.64-1.76-2.93.04-1.63,1.35-2.99,2.97-3.09,1.85-.12,3.39,1.35,3.39,3.18,0,1.25-.72,2.32-1.77,2.85l1.49,5.93h0ZM1068.31,1353.04h-23.53c-.89,0-1.61-.72-1.62-1.61-.02-1.89-.01-3.89.09-4.97.66-7.19,6.5-12.32,13.23-12.44,6.36-.11,12.77,5.65,13.38,12.44.1,1.08.1,3.08.08,4.97,0,.89-.73,1.61-1.62,1.61h0Z"/>
  <path class="cls-35" d="M1119.52,976.64c.05-2.75.09-6.65-.07-8.39-.79-8.28-8.55-14.19-16.64-14.49-8.57-.32-17.14,5.71-17.98,14.49-.17,1.74-.13,5.64-.07,8.39h-2.9c-1.24,0-2.25,1-2.25,2.25v36.86c0,1.24,1,2.25,2.25,2.25h40.57c1.24,0,2.25-1,2.25-2.25v-36.86c0-1.24-1-2.25-2.25-2.25h-2.9ZM1105.05,1003.82h-5.82l1.49-5.93c-1.07-.53-1.8-1.64-1.76-2.93.04-1.63,1.35-2.99,2.97-3.09,1.85-.12,3.39,1.35,3.39,3.18,0,1.25-.72,2.32-1.77,2.85l1.49,5.93h0ZM1113.98,976.5h-23.53c-.89,0-1.61-.72-1.62-1.61-.02-1.89-.01-3.89.09-4.97.66-7.19,6.5-12.32,13.23-12.44,6.36-.11,12.77,5.65,13.38,12.44.1,1.08.1,3.08.08,4.97,0,.89-.73,1.61-1.62,1.61h0Z"/>
  <path class="cls-65" d="M1071.99,1026.64c.05-2.75.09-6.65-.07-8.39-.79-8.28-8.55-14.19-16.64-14.49-8.57-.32-17.14,5.71-17.98,14.49-.17,1.74-.13,5.64-.07,8.39h-2.9c-1.24,0-2.25,1-2.25,2.25v36.86c0,1.24,1,2.25,2.25,2.25h40.57c1.24,0,2.25-1,2.25-2.25v-36.86c0-1.24-1-2.25-2.25-2.25h-2.9ZM1057.52,1053.82h-5.82l1.49-5.93c-1.07-.53-1.8-1.64-1.76-2.93.04-1.63,1.35-2.99,2.97-3.09,1.85-.12,3.39,1.35,3.39,3.18,0,1.25-.72,2.32-1.77,2.85l1.49,5.93h0ZM1066.45,1026.5h-23.53c-.89,0-1.61-.72-1.62-1.61-.02-1.89-.01-3.89.09-4.97.66-7.19,6.5-12.32,13.23-12.44,6.36-.11,12.77,5.65,13.38,12.44.1,1.08.1,3.08.08,4.97,0,.89-.73,1.61-1.62,1.61h0Z"/>
  <g>
    <line class="cls-13" x1="245.84" y1="1805.34" x2="429.28" y2="1805.34"/>
    <path class="cls-92" d="M459.46,1805.34c-14.2,5.27-31.82,14.26-42.74,23.78l8.6-23.78-8.6-23.77c10.92,9.52,28.54,18.51,42.74,23.77Z"/>
  </g>
  <g>
    <line class="cls-14" x1="245.84" y1="1885.7" x2="430.25" y2="1885.7"/>
    <path class="cls-74" d="M460.42,1885.7c-14.2,5.27-31.82,14.26-42.74,23.78l8.6-23.78-8.6-23.77c10.92,9.52,28.54,18.51,42.74,23.77Z"/>
  </g>
  <g>
    <path class="cls-4" d="M529.61,1798.78v20.97h-5.1v-20.69c0-3.06-.49-5.3-1.48-6.71-.99-1.42-2.57-2.12-4.75-2.12-2.56,0-4.57.94-6.04,2.81-1.47,1.87-2.2,4.43-2.2,7.67v19.05h-5.1v-20.69c0-3.11-.5-5.35-1.51-6.75-1.01-1.39-2.6-2.09-4.78-2.09-2.56,0-4.57.94-6.04,2.81-1.47,1.87-2.2,4.43-2.2,7.67v19.05h-5.1v-33.37h5.03v5.28c.92-1.96,2.2-3.47,3.84-4.52,1.64-1.05,3.52-1.58,5.66-1.58,4.74,0,7.87,2.19,9.38,6.58.88-2.06,2.22-3.67,4.03-4.83,1.8-1.16,3.86-1.75,6.17-1.75,6.8,0,10.19,4.41,10.19,13.22Z"/>
    <path class="cls-4" d="M543.98,1818.1c-2.2-1.42-3.9-3.44-5.1-6.06-1.2-2.63-1.79-5.67-1.79-9.15s.6-6.52,1.79-9.15c1.2-2.63,2.89-4.65,5.1-6.06,2.2-1.42,4.75-2.12,7.65-2.12s5.45.71,7.68,2.12c2.22,1.42,3.93,3.44,5.13,6.06,1.2,2.63,1.79,5.68,1.79,9.15s-.6,6.52-1.79,9.15c-1.2,2.63-2.91,4.65-5.13,6.06-2.22,1.42-4.78,2.12-7.68,2.12s-5.44-.71-7.65-2.12ZM558.58,1812.38c1.61-2.17,2.42-5.33,2.42-9.49s-.82-7.2-2.45-9.42c-1.64-2.22-3.94-3.32-6.92-3.32s-5.29,1.11-6.92,3.32c-1.64,2.22-2.45,5.36-2.45,9.42s.81,7.26,2.42,9.46c1.61,2.19,3.93,3.29,6.95,3.29s5.34-1.08,6.95-3.25Z"/>
    <path class="cls-4" d="M601.02,1771.44v48.3h-5.1v-6.1c-.92,2.1-2.28,3.72-4.06,4.86-1.78,1.14-3.87,1.71-6.26,1.71-2.69,0-5.06-.73-7.11-2.19-2.06-1.46-3.65-3.5-4.78-6.13-1.13-2.63-1.7-5.68-1.7-9.15s.57-6.44,1.7-9.04c1.13-2.6,2.73-4.61,4.78-6.03,2.05-1.42,4.42-2.12,7.11-2.12,2.39,0,4.48.57,6.26,1.71,1.78,1.14,3.13,2.76,4.06,4.86v-20.69h5.1ZM593.5,1812.31c1.61-2.21,2.42-5.35,2.42-9.42s-.81-7.19-2.42-9.39c-1.62-2.19-3.91-3.29-6.89-3.29s-5.3,1.1-6.95,3.29c-1.66,2.19-2.49,5.28-2.49,9.25s.83,7.23,2.49,9.49c1.66,2.26,3.97,3.39,6.95,3.39s5.28-1.11,6.89-3.32Z"/>
    <path class="cls-4" d="M636.13,1803.92h-22.4c.17,3.88,1.13,6.82,2.89,8.8,1.76,1.99,4.26,2.98,7.49,2.98,3.56,0,6.84-1.32,9.82-3.97l1.7,4.04c-1.34,1.37-3.06,2.46-5.16,3.25-2.1.8-4.24,1.2-6.42,1.2-4.78,0-8.55-1.53-11.29-4.59-2.75-3.06-4.12-7.28-4.12-12.68,0-3.43.61-6.45,1.82-9.08,1.22-2.63,2.93-4.67,5.13-6.13,2.2-1.46,4.71-2.19,7.52-2.19,4.07,0,7.26,1.45,9.56,4.35,2.31,2.9,3.46,6.89,3.46,11.96v2.06ZM616.72,1792.61c-1.62,1.83-2.57,4.41-2.86,7.74h17.81c-.08-3.38-.86-5.97-2.33-7.78-1.47-1.8-3.52-2.71-6.17-2.71s-4.83.91-6.45,2.74Z"/>
    <path class="cls-4" d="M643.62,1771.44h5.1v48.3h-5.1v-48.3Z"/>
    <path class="cls-4" d="M700.25,1786.38v33.37h-4.97v-5.69c-.97,2.01-2.32,3.54-4.06,4.59-1.74,1.05-3.7,1.58-5.88,1.58-3.65,0-6.4-1.11-8.24-3.32-1.85-2.22-2.77-5.49-2.77-9.83v-20.69h5.1v20.55c0,2.97.54,5.15,1.64,6.54,1.09,1.39,2.81,2.09,5.16,2.09,2.68,0,4.84-.95,6.48-2.84,1.64-1.89,2.45-4.4,2.45-7.5v-18.84h5.1Z"/>
    <path class="cls-4" d="M732.28,1787.75c2.05,1.46,3.65,3.51,4.78,6.13,1.13,2.63,1.7,5.68,1.7,9.15s-.57,6.5-1.7,9.08c-1.13,2.58-2.72,4.58-4.75,5.99-2.04,1.42-4.42,2.12-7.14,2.12-2.39,0-4.48-.57-6.26-1.71-1.78-1.14-3.14-2.76-4.06-4.86v18.43h-5.1v-45.7h5.1v5.76c.92-2.1,2.27-3.72,4.06-4.86,1.78-1.14,3.87-1.71,6.26-1.71,2.68,0,5.05.73,7.11,2.19ZM731.08,1812.34c1.64-2.19,2.45-5.3,2.45-9.32s-.82-7.16-2.45-9.42c-1.64-2.26-3.94-3.39-6.92-3.39s-5.28,1.1-6.89,3.29c-1.62,2.19-2.42,5.32-2.42,9.39s.81,7.21,2.42,9.42c1.61,2.22,3.91,3.32,6.89,3.32s5.29-1.1,6.92-3.29Z"/>
    <path class="cls-4" d="M773.56,1771.44v48.3h-5.1v-6.1c-.92,2.1-2.28,3.72-4.06,4.86-1.78,1.14-3.87,1.71-6.26,1.71-2.69,0-5.06-.73-7.11-2.19-2.06-1.46-3.65-3.5-4.78-6.13-1.13-2.63-1.7-5.68-1.7-9.15s.57-6.44,1.7-9.04c1.13-2.6,2.73-4.61,4.78-6.03,2.05-1.42,4.42-2.12,7.11-2.12,2.39,0,4.48.57,6.26,1.71,1.78,1.14,3.13,2.76,4.06,4.86v-20.69h5.1ZM766.04,1812.31c1.61-2.21,2.42-5.35,2.42-9.42s-.81-7.19-2.42-9.39c-1.62-2.19-3.91-3.29-6.89-3.29s-5.3,1.1-6.95,3.29c-1.66,2.19-2.49,5.28-2.49,9.25s.83,7.23,2.49,9.49c1.66,2.26,3.97,3.39,6.95,3.39s5.28-1.11,6.89-3.32Z"/>
    <path class="cls-4" d="M804.17,1788.81c1.91,2.17,2.86,5.47,2.86,9.9v21.03h-4.97v-5.69c-.8,1.96-2.01,3.48-3.65,4.56-1.64,1.07-3.52,1.61-5.66,1.61-1.97,0-3.79-.43-5.44-1.3-1.66-.87-2.97-2.08-3.93-3.63-.97-1.55-1.45-3.27-1.45-5.14,0-2.51.59-4.46,1.76-5.86,1.17-1.39,3.1-2.4,5.79-3.01,2.68-.62,6.42-.93,11.2-.93h1.38v-2.26c0-2.79-.53-4.81-1.57-6.06-1.05-1.26-2.75-1.88-5.1-1.88-3.52,0-7.03,1.19-10.51,3.56l-1.7-4.04c1.59-1.23,3.51-2.23,5.76-2.98,2.24-.75,4.42-1.13,6.51-1.13,3.9,0,6.81,1.09,8.71,3.25ZM799.64,1813.06c1.61-1.85,2.42-4.24,2.42-7.16v-1.99h-1.13c-3.69,0-6.5.17-8.43.51-1.93.34-3.3.91-4.12,1.71-.82.8-1.23,1.98-1.23,3.53,0,1.78.6,3.25,1.79,4.42,1.2,1.16,2.7,1.75,4.5,1.75,2.52,0,4.58-.93,6.2-2.77Z"/>
    <path class="cls-4" d="M832.58,1815.56l-.25,4.39c-.97.18-2.01.27-3.15.27-3.69,0-6.47-1.05-8.34-3.15-1.87-2.1-2.8-5.02-2.8-8.77v-17.54h-5.98v-4.39h5.98v-10.14h5.1v10.14h8.68v4.39h-8.68v17.13c0,5.25,2.22,7.88,6.67,7.88.92,0,1.85-.07,2.77-.21Z"/>
    <path class="cls-4" d="M863.41,1803.92h-22.4c.17,3.88,1.13,6.82,2.89,8.8,1.76,1.99,4.26,2.98,7.49,2.98,3.56,0,6.84-1.32,9.82-3.97l1.7,4.04c-1.34,1.37-3.06,2.46-5.16,3.25-2.1.8-4.24,1.2-6.42,1.2-4.78,0-8.55-1.53-11.29-4.59-2.75-3.06-4.12-7.28-4.12-12.68,0-3.43.61-6.45,1.82-9.08,1.22-2.63,2.93-4.67,5.13-6.13,2.2-1.46,4.71-2.19,7.52-2.19,4.07,0,7.26,1.45,9.56,4.35,2.31,2.9,3.46,6.89,3.46,11.96v2.06ZM844,1792.61c-1.62,1.83-2.57,4.41-2.86,7.74h17.81c-.08-3.38-.86-5.97-2.33-7.78-1.47-1.8-3.52-2.71-6.17-2.71s-4.83.91-6.45,2.74Z"/>
    <path class="cls-4" d="M869.01,1815.91l1.7-4.11c1.64,1.42,3.3,2.43,5,3.05,1.7.62,3.62.92,5.76.92,2.27,0,4-.42,5.19-1.27,1.2-.84,1.79-2.07,1.79-3.67,0-1.32-.4-2.37-1.2-3.15-.8-.78-2.12-1.39-3.96-1.85l-5.16-1.3c-2.6-.64-4.59-1.74-5.98-3.29-1.38-1.55-2.08-3.47-2.08-5.76,0-2.97,1.07-5.37,3.21-7.19,2.14-1.83,4.99-2.74,8.56-2.74,2.14,0,4.17.38,6.1,1.13,1.93.75,3.54,1.84,4.84,3.25l-1.7,4.04c-2.81-2.6-5.89-3.91-9.25-3.91-2.14,0-3.81.45-5,1.34-1.2.89-1.79,2.14-1.79,3.73,0,1.33.37,2.39,1.1,3.19.73.8,1.92,1.4,3.55,1.82l5.22,1.37c2.85.73,4.97,1.84,6.36,3.32,1.38,1.48,2.08,3.42,2.08,5.79,0,2.92-1.08,5.25-3.24,6.99-2.16,1.74-5.11,2.6-8.84,2.6-5.16,0-9.25-1.44-12.27-4.32Z"/>
    <path class="cls-4" d="M920.86,1817.31c-1.17-5.05-1.76-10.24-1.76-15.59s.59-10.53,1.76-15.55c1.17-5.02,3.1-10.25,5.79-15.69l3.52,1.58c-2.1,5.39-3.6,10.48-4.5,15.28-.9,4.8-1.35,9.59-1.35,14.39s.45,9.59,1.35,14.39c.9,4.8,2.4,9.89,4.5,15.28l-3.52,1.58c-2.69-5.39-4.62-10.61-5.79-15.66Z"/>
    <path class="cls-4" d="M963.52,1798.78v20.97h-5.1v-20.62c0-3.11-.56-5.37-1.67-6.78-1.11-1.42-2.88-2.12-5.32-2.12-2.81,0-5.06.94-6.73,2.81-1.68,1.87-2.52,4.41-2.52,7.61v19.12h-5.1v-33.37h5.03v5.48c1.01-2.06,2.41-3.62,4.22-4.69,1.8-1.07,3.86-1.61,6.17-1.61,7.34,0,11.01,4.41,11.01,13.22Z"/>
    <path class="cls-4" d="M977.9,1818.1c-2.2-1.42-3.9-3.44-5.1-6.06-1.2-2.63-1.79-5.67-1.79-9.15s.6-6.52,1.79-9.15c1.2-2.63,2.89-4.65,5.1-6.06,2.2-1.42,4.75-2.12,7.65-2.12s5.45.71,7.68,2.12c2.22,1.42,3.93,3.44,5.13,6.06,1.2,2.63,1.79,5.68,1.79,9.15s-.6,6.52-1.79,9.15c-1.2,2.63-2.91,4.65-5.13,6.06-2.22,1.42-4.78,2.12-7.68,2.12s-5.44-.71-7.65-2.12ZM992.49,1812.38c1.61-2.17,2.42-5.33,2.42-9.49s-.82-7.2-2.45-9.42c-1.64-2.22-3.94-3.32-6.92-3.32s-5.29,1.11-6.92,3.32c-1.64,2.22-2.45,5.36-2.45,9.42s.81,7.26,2.42,9.46c1.61,2.19,3.93,3.29,6.95,3.29s5.34-1.08,6.95-3.25Z"/>
    <path class="cls-4" d="M1023.92,1815.56l-.25,4.39c-.97.18-2.01.27-3.15.27-3.69,0-6.47-1.05-8.34-3.15-1.87-2.1-2.8-5.02-2.8-8.77v-17.54h-5.98v-4.39h5.98v-10.14h5.1v10.14h8.68v4.39h-8.68v17.13c0,5.25,2.22,7.88,6.67,7.88.92,0,1.85-.07,2.77-.21Z"/>
    <path class="cls-4" d="M1072.5,1771.44v48.3h-5.1v-6.1c-.92,2.1-2.28,3.72-4.06,4.86-1.78,1.14-3.87,1.71-6.26,1.71-2.69,0-5.06-.73-7.11-2.19-2.06-1.46-3.65-3.5-4.78-6.13-1.13-2.63-1.7-5.68-1.7-9.15s.57-6.44,1.7-9.04c1.13-2.6,2.73-4.61,4.78-6.03,2.05-1.42,4.42-2.12,7.11-2.12,2.39,0,4.48.57,6.26,1.71,1.78,1.14,3.13,2.76,4.06,4.86v-20.69h5.1ZM1064.98,1812.31c1.61-2.21,2.42-5.35,2.42-9.42s-.81-7.19-2.42-9.39c-1.62-2.19-3.91-3.29-6.89-3.29s-5.3,1.1-6.95,3.29c-1.66,2.19-2.49,5.28-2.49,9.25s.83,7.23,2.49,9.49c1.66,2.26,3.97,3.39,6.95,3.39s5.28-1.11,6.89-3.32Z"/>
    <path class="cls-4" d="M1103.11,1788.81c1.91,2.17,2.86,5.47,2.86,9.9v21.03h-4.97v-5.69c-.8,1.96-2.01,3.48-3.65,4.56-1.64,1.07-3.52,1.61-5.66,1.61-1.97,0-3.79-.43-5.44-1.3-1.66-.87-2.97-2.08-3.93-3.63-.97-1.55-1.45-3.27-1.45-5.14,0-2.51.59-4.46,1.76-5.86,1.17-1.39,3.1-2.4,5.79-3.01,2.68-.62,6.42-.93,11.2-.93h1.38v-2.26c0-2.79-.53-4.81-1.57-6.06-1.05-1.26-2.75-1.88-5.1-1.88-3.52,0-7.03,1.19-10.51,3.56l-1.7-4.04c1.59-1.23,3.51-2.23,5.76-2.98,2.24-.75,4.42-1.13,6.51-1.13,3.9,0,6.81,1.09,8.71,3.25ZM1098.58,1813.06c1.61-1.85,2.42-4.24,2.42-7.16v-1.99h-1.13c-3.69,0-6.5.17-8.43.51-1.93.34-3.3.91-4.12,1.71-.82.8-1.23,1.98-1.23,3.53,0,1.78.6,3.25,1.79,4.42,1.2,1.16,2.7,1.75,4.5,1.75,2.52,0,4.58-.93,6.2-2.77Z"/>
    <path class="cls-4" d="M1131.52,1815.56l-.25,4.39c-.97.18-2.01.27-3.15.27-3.69,0-6.47-1.05-8.34-3.15-1.87-2.1-2.8-5.02-2.8-8.77v-17.54h-5.98v-4.39h5.98v-10.14h5.1v10.14h8.68v4.39h-8.68v17.13c0,5.25,2.22,7.88,6.67,7.88.92,0,1.85-.07,2.77-.21Z"/>
    <path class="cls-4" d="M1157.85,1788.81c1.91,2.17,2.86,5.47,2.86,9.9v21.03h-4.97v-5.69c-.8,1.96-2.01,3.48-3.65,4.56-1.64,1.07-3.52,1.61-5.66,1.61-1.97,0-3.79-.43-5.44-1.3-1.66-.87-2.97-2.08-3.93-3.63-.97-1.55-1.45-3.27-1.45-5.14,0-2.51.59-4.46,1.76-5.86,1.17-1.39,3.1-2.4,5.79-3.01,2.68-.62,6.42-.93,11.2-.93h1.38v-2.26c0-2.79-.53-4.81-1.57-6.06-1.05-1.26-2.75-1.88-5.1-1.88-3.52,0-7.03,1.19-10.51,3.56l-1.7-4.04c1.59-1.23,3.51-2.23,5.76-2.98,2.24-.75,4.42-1.13,6.51-1.13,3.9,0,6.81,1.09,8.71,3.25ZM1153.32,1813.06c1.61-1.85,2.42-4.24,2.42-7.16v-1.99h-1.13c-3.69,0-6.5.17-8.43.51-1.93.34-3.3.91-4.12,1.71-.82.8-1.23,1.98-1.23,3.53,0,1.78.6,3.25,1.79,4.42,1.2,1.16,2.7,1.75,4.5,1.75,2.52,0,4.58-.93,6.2-2.77Z"/>
    <path class="cls-4" d="M1167.51,1831.39c2.1-5.39,3.6-10.48,4.5-15.28.9-4.8,1.35-9.59,1.35-14.39s-.45-9.59-1.35-14.39c-.9-4.8-2.4-9.89-4.5-15.28l3.52-1.58c2.68,5.44,4.61,10.67,5.79,15.69,1.17,5.03,1.76,10.21,1.76,15.55s-.59,10.54-1.76,15.59c-1.17,5.05-3.1,10.27-5.79,15.66l-3.52-1.58Z"/>
  </g>
  <g>
    <path class="cls-37" d="M529.3,1881.84v20.97h-5.1v-20.69c0-3.06-.49-5.3-1.48-6.71-.99-1.42-2.57-2.12-4.75-2.12-2.56,0-4.57.94-6.04,2.81-1.47,1.87-2.2,4.43-2.2,7.67v19.05h-5.1v-20.69c0-3.11-.5-5.35-1.51-6.75-1.01-1.39-2.6-2.09-4.78-2.09-2.56,0-4.57.94-6.04,2.81-1.47,1.87-2.2,4.43-2.2,7.67v19.05h-5.1v-33.37h5.03v5.28c.92-1.96,2.2-3.47,3.84-4.52,1.64-1.05,3.52-1.58,5.66-1.58,4.74,0,7.87,2.19,9.38,6.58.88-2.06,2.22-3.67,4.03-4.83,1.8-1.16,3.86-1.75,6.17-1.75,6.8,0,10.19,4.41,10.19,13.22Z"/>
    <path class="cls-37" d="M543.68,1901.16c-2.2-1.42-3.9-3.44-5.1-6.06-1.2-2.63-1.79-5.67-1.79-9.15s.6-6.52,1.79-9.15c1.2-2.63,2.89-4.65,5.1-6.06,2.2-1.42,4.75-2.12,7.65-2.12s5.45.71,7.68,2.12c2.22,1.42,3.93,3.44,5.13,6.06,1.2,2.63,1.79,5.68,1.79,9.15s-.6,6.52-1.79,9.15c-1.2,2.63-2.91,4.65-5.13,6.06-2.22,1.42-4.78,2.12-7.68,2.12s-5.44-.71-7.65-2.12ZM558.28,1895.44c1.61-2.17,2.42-5.33,2.42-9.49s-.82-7.2-2.45-9.42c-1.64-2.22-3.94-3.32-6.92-3.32s-5.29,1.11-6.92,3.32c-1.64,2.22-2.45,5.36-2.45,9.42s.81,7.26,2.42,9.46c1.61,2.19,3.93,3.29,6.95,3.29s5.34-1.08,6.95-3.25Z"/>
    <path class="cls-37" d="M600.72,1854.5v48.3h-5.1v-6.1c-.92,2.1-2.28,3.72-4.06,4.86-1.78,1.14-3.87,1.71-6.26,1.71-2.69,0-5.06-.73-7.11-2.19-2.06-1.46-3.65-3.5-4.78-6.13-1.13-2.63-1.7-5.68-1.7-9.15s.57-6.44,1.7-9.04c1.13-2.6,2.73-4.61,4.78-6.03,2.05-1.42,4.42-2.12,7.11-2.12,2.39,0,4.48.57,6.26,1.71,1.78,1.14,3.13,2.76,4.06,4.86v-20.69h5.1ZM593.2,1895.37c1.61-2.21,2.42-5.35,2.42-9.42s-.81-7.19-2.42-9.39c-1.62-2.19-3.91-3.29-6.89-3.29s-5.3,1.1-6.95,3.29c-1.66,2.19-2.49,5.28-2.49,9.25s.83,7.23,2.49,9.49c1.66,2.26,3.97,3.39,6.95,3.39s5.28-1.11,6.89-3.32Z"/>
    <path class="cls-37" d="M635.83,1886.98h-22.4c.17,3.88,1.13,6.82,2.89,8.8,1.76,1.99,4.26,2.98,7.49,2.98,3.56,0,6.84-1.32,9.82-3.97l1.7,4.04c-1.34,1.37-3.06,2.46-5.16,3.25-2.1.8-4.24,1.2-6.42,1.2-4.78,0-8.55-1.53-11.29-4.59-2.75-3.06-4.12-7.28-4.12-12.68,0-3.43.61-6.45,1.82-9.08,1.22-2.63,2.93-4.67,5.13-6.13,2.2-1.46,4.71-2.19,7.52-2.19,4.07,0,7.26,1.45,9.56,4.35,2.31,2.9,3.46,6.89,3.46,11.96v2.06ZM616.42,1875.68c-1.62,1.83-2.57,4.41-2.86,7.74h17.81c-.08-3.38-.86-5.97-2.33-7.78-1.47-1.8-3.52-2.71-6.17-2.71s-4.83.91-6.45,2.74Z"/>
    <path class="cls-37" d="M643.32,1854.5h5.1v48.3h-5.1v-48.3Z"/>
  </g>
  <g>
    <path class="cls-34" d="M503.65,150.81h-106.97c-1.76,0-3.19,1.42-3.19,3.18v95.19c0,1.76,1.43,3.18,3.19,3.18h106.97c1.76,0,3.18-1.42,3.18-3.18v-95.19c0-1.76-1.42-3.18-3.18-3.18Z"/>
    <path class="cls-28" d="M539.71,434.57c.09,5.39-4.51,10.24-9.91,10.41-1.75.06-3.44.02-5.17.06-6.87.1-13.74.13-20.6.3-39.97.82-83.88,2-123.63,1.37-2.96-.11-7.46,0-10.47-.21-5.58-.52-10.34-5.3-10.67-10.91.46-32.49,1.1-66.84.75-99.3-.07-13.74-.34-27.47-.5-41.21-.16-5.99,4.92-11.41,10.92-11.67.79-.09,1.88-.03,2.66-.07,49.57-.7,102.35-1.02,151.96-.94,0,0,2.58.01,2.58.01,0,0,1.29,0,1.29,0,7.11-.23,13.33,5.92,13,13.06-.12,46.35-2.21,92.74-2.19,139.08h0ZM539.24,434.57c.03-46.34-2.07-92.73-2.19-139.08.23-4.32-3.51-8.14-7.82-8.05,0,0-.32,0-.32,0h-1.29s-2.58.02-2.58.02c-49.62.09-102.38-.24-151.96-.93,0,0-1.29-.02-1.29-.02-4.95-.49-9.65,3.54-9.67,8.58-.42,27.47-.71,54.94-.53,82.42.16,14.84.42,36.73.73,51.51.17,2.43-.36,7.15,1.09,9.36,1.79,3.4,5.51,4.86,9.26,4.46,1.51-.06,6.13-.06,7.73-.11,39.68-.53,83.73.44,123.63,1.37,6.87.17,13.74.2,20.6.3,3.35-.01,6.93.49,9.87-1.46,2.89-1.73,4.72-5,4.73-8.37h0Z"/>
    <path class="cls-30" d="M577.56,201.6h-61.75v47.59c0,6.7-5.45,12.16-12.16,12.16h-106.97c-6.71,0-12.17-5.46-12.17-12.16v-47.59h-61.76c-2.81,0-5.1,2.29-5.1,5.1v341.67c0,2.81,2.29,5.1,5.1,5.1h86.51v-76.89c0-2.82-2.29-5.1-5.11-5.1h-2.47c-2.82,0-5.1-2.29-5.1-5.1h0c0-2.82,2.29-5.1,5.1-5.1h97.26c2.82,0,5.1,2.29,5.1,5.1s-2.29,5.1-5.1,5.1h-2.47c-2.82,0-5.1,2.29-5.1,5.1v76.89h86.17c2.82,0,5.1-2.29,5.1-5.1V206.69c0-2.81-2.28-5.1-5.1-5.1ZM546.99,440.99c0,6.11-4.97,11.08-11.08,11.08h-171.18c-6.11,0-11.08-4.97-11.08-11.08v-152.33c0-6.1,4.97-11.08,11.08-11.08h171.18c6.12,0,11.08,4.97,11.08,11.08v152.33Z"/>
    <path class="cls-28" d="M582.66,359.56c27.93-.47,56.29-.89,84.25-1.05,3.25.22,5.98,3.17,5.91,6.45,0,0,0,.45,0,.45,0,0,0,.9,0,.9,0,0,.06,7.16.06,7.16.54,54.88.7,118.7.67,173.63,0,0,0,.89,0,.89,0,0,0,.48,0,.48.01,4.06-3.76,7.46-7.79,7.1-19.99-.07-39.98-.23-59.96-.42-38.19-.3-76.37-.78-114.56-.9,0,0-.78,0-.78,0,0,0,0-.77,0-.77.09-24.86,0-50.16-.07-75.04,0,0,0-1.63,0-1.63-.2-4.18,3.39-6.8,7.35-6.34,6.29.74,7.3-7.99,1.01-8.38-17.79.13-61.88.45-79.12.61-2.17.02-14.34.12-16.31.14,0,0-1.63.01-1.63.01-.46.01-.75.04-1.12.16-1.39.42-2.39,1.8-2.35,3.23,0,0,.05,1.77.05,1.77,0,0-1.84.02-1.84.02,0,0,1.78-1.78,1.78-1.78.05,2.3,2.06,3.54,4.26,3.26,0,0,1.49,0,1.49,0,3.81-.1,7.17,3.3,7.01,7.12-.02.53.03,1.71.01,2.24.04,18.32.35,58.19.36,76.87,0,0-2.26,0-2.26,0,0,0-114.88.3-114.88.3,0,0-57.44-.05-57.44-.05,0,0-3.59,0-3.59,0,0,0-.45,0-.45,0,0,0-.66-.03-.66-.03-.44-.04-.89-.11-1.31-.23-3.43-.87-5.86-4.3-5.62-7.83,0,0,0-1.79,0-1.79.24-55.01.46-117.43,1.03-172.32,0,0,.07-7.18.07-7.18,0,0,.02-1.83.02-1.83.05-3.05,2.54-5.82,5.58-6.15.63-.07,1.36-.06,1.97-.05,0,0,3.59.03,3.59.03,14.02.15,64,.75,78.98,1,0,0,0,.48,0,.48l-57.44.78c-3.48.1-17.86.15-21.54.22,0,0-3.59.03-3.59.03,0,0-.9,0-.9,0-.33,0-.48.01-.72.05-1.78.23-3.24,1.88-3.22,3.67,0,0,.01,1.76.01,1.76.51,57.44.95,121.93,1.1,179.5,0,0,0,1.8,0,1.8v.45s.02.26.02.26c.08,1.23,1.14,2.31,2.39,2.39,38.75-.12,136.63.13,176.6.26,0,0-2.25,2.25-2.25,2.25,0,0,.19-47.76.19-47.76-.02-4.05.17-25.57.16-29.11.14-1.81-1.41-3.46-3.23-3.43-1.62-.04-3.54.16-5.13-.57-2.51-1.04-4.24-3.67-4.19-6.37,0,0,.03-1.8.03-1.8h1.75s0,.01,0,.01l-1.78,1.78c-.06-3.74,3.34-7,7.03-6.81,0,0,1.63.01,1.63.01,25.51.22,69.53.57,95.43.75,5.37-.07,8.14,6.77,4.13,10.41-1.76,1.82-4.46,1.63-6.74,1.61-2.37.04-4.25,2.26-4.07,4.6.02,1.08-.03,3.79-.01,4.89-.08,23.79-.13,48.01-.05,71.78,0,0-.78-.78-.78-.78,57.88-.2,115.75-1.09,173.63-1.32,0,0,.9,0,.9,0,.3,0,.64,0,.76-.02,1.5-.08,2.79-1.44,2.78-2.94-.06-27.28.09-75.6.18-103.34-.08-23.6.45-55.27.55-78.76,0,0,0-.9,0-.9,0,0,0-.45,0-.45,0,0-.01-.34-.01-.34-.03-.43-.13-.86-.31-1.26-.64-1.48-2.23-2.36-3.83-2.24,0,0-.89,0-.89,0-6.15-.07-18.71-.15-25.06-.24-19.09-.27-38.19-.46-57.28-.83,0,0,0-.48,0-.48h0Z"/>
    <path class="cls-1" d="M490.54,215.26c0,2.22-1.8,4.03-4.03,4.03h-14.47c-2.22,0-4.03,1.8-4.03,4.03v14.47c0,2.22-1.8,4.03-4.03,4.03h-27.35c-2.22,0-4.03-1.8-4.03-4.03v-14.47c0-2.22-1.8-4.03-4.03-4.03h-14.47c-2.22,0-4.03-1.8-4.03-4.03v-27.35c0-2.22,1.8-4.03,4.03-4.03h14.47c2.22,0,4.03-1.8,4.03-4.03v-14.47c0-2.22,1.8-4.03,4.03-4.03h27.35c2.22,0,4.03,1.8,4.03,4.03v14.47c0,2.22,1.8,4.03,4.03,4.03h14.47c2.22,0,4.03,1.8,4.03,4.03v27.35Z"/>
    <path class="cls-67" d="M508.29,350.7l-10.37-26.01c2.73-2.79,4.42-6.61,4.42-10.82,0-8.54-6.92-15.46-15.46-15.46-7.12,0-13.11,4.81-14.91,11.36l-24.52,1.5c-2.14-5.97-7.85-10.23-14.55-10.23-8.54,0-15.46,6.92-15.46,15.46,0,3.15.95,6.08,2.57,8.53l-23.44,26.57c-1.64-.59-3.4-.91-5.24-.91-8.54,0-15.46,6.92-15.46,15.46s6.92,15.46,15.46,15.46c1.95,0,3.81-.36,5.52-1.02l23.7,25.91c-1.95,2.59-3.11,5.81-3.11,9.3,0,8.54,6.92,15.46,15.46,15.46,7.36,0,13.51-5.14,15.07-12.03h23.83c1.56,6.89,7.72,12.03,15.07,12.03,8.54,0,15.46-6.92,15.46-15.46s-6.92-15.46-15.46-15.46c-7.36,0-13.51,5.14-15.07,12.03h-23.83c-.8-3.54-2.82-6.62-5.59-8.78l6.38-9.03c3.05,1.36,6.42,2.11,9.97,2.11,12.93,0,23.52-10.01,24.44-22.71l10.37-1.62c2.39,5.45,7.83,9.26,14.16,9.26,8.54,0,15.46-6.92,15.46-15.46s-6.61-15.14-14.88-15.44h0ZM471.66,351.33l11.19-22.54c1.29.35,2.64.53,4.03.53,1.81,0,3.54-.31,5.16-.88l9.4,23.57c-5.25,2.34-8.96,7.52-9.17,13.59l-9.55,1.49c-1.39-6.64-5.48-12.29-11.05-15.76h0ZM426.16,401.88c-.12.06-.24.12-.36.18l-23.19-25.35c2.59-2.76,4.18-6.48,4.18-10.57,0-1.47-.2-2.88-.59-4.23l19.95-10.62v50.59h0ZM402.91,355.9c-.16-.18-.33-.37-.51-.54l22.57-25.59c.39.23.78.45,1.19.64v13.12l-23.25,12.38h0ZM433.01,331.95c1.32,0,2.6-.18,3.82-.5l2.36,5.14-6.18,3.29v-7.93ZM442.92,328.27c2.95-2.51,4.94-6.11,5.36-10.18l23.4-1.43c.14.79.35,1.57.61,2.31l-27.03,14.39-2.34-5.09h0ZM436.06,400.65c-.98-.2-2-.32-3.05-.32v-52.69l9.05-4.82,3.87,8.43c-7.02,4.31-11.71,12.06-11.71,20.9,0,7.52,3.39,14.25,8.72,18.75l-6.88,9.75h0ZM452.23,348.52l-4.1-8.92,27.82-14.81c.27.27.55.53.85.79l-11.41,22.98c-2.12-.59-4.35-.91-6.65-.91s-4.43.3-6.51.88h0Z"/>
  </g>
  <g>
    <path class="cls-33" d="M504.44,711.25h-106.97c-1.76,0-3.19,1.42-3.19,3.18v95.19c0,1.76,1.43,3.18,3.19,3.18h106.97c1.76,0,3.18-1.42,3.18-3.18v-95.19c0-1.76-1.42-3.18-3.18-3.18Z"/>
    <path class="cls-28" d="M540.51,995.01c.09,5.39-4.51,10.24-9.91,10.41-1.75.06-3.44.02-5.17.06-6.87.1-13.74.13-20.6.3-39.97.82-83.88,2-123.63,1.37-2.96-.11-7.46,0-10.47-.21-5.58-.52-10.34-5.3-10.67-10.91.46-32.49,1.1-66.84.75-99.3-.07-13.74-.34-27.47-.5-41.21-.16-5.99,4.92-11.41,10.92-11.67.79-.09,1.88-.03,2.66-.07,49.57-.7,102.35-1.02,151.96-.94,0,0,2.58.01,2.58.01,0,0,1.29,0,1.29,0,7.11-.23,13.33,5.92,13,13.06-.12,46.35-2.21,92.74-2.19,139.08h0ZM540.03,995.01c.03-46.34-2.07-92.73-2.19-139.08.23-4.32-3.51-8.14-7.82-8.05,0,0-.32,0-.32,0h-1.29s-2.58.02-2.58.02c-49.62.09-102.38-.24-151.96-.93,0,0-1.29-.02-1.29-.02-4.95-.49-9.65,3.54-9.67,8.58-.42,27.47-.71,54.94-.53,82.42.16,14.84.42,36.73.73,51.51.17,2.43-.36,7.15,1.09,9.36,1.79,3.4,5.51,4.86,9.26,4.46,1.51-.06,6.13-.06,7.73-.11,39.68-.53,83.73.44,123.63,1.37,6.87.17,13.74.2,20.6.3,3.35-.01,6.93.49,9.87-1.46,2.89-1.73,4.72-5,4.73-8.37h0Z"/>
    <path class="cls-31" d="M578.35,762.04h-61.75v47.59c0,6.7-5.45,12.16-12.16,12.16h-106.97c-6.71,0-12.17-5.46-12.17-12.16v-47.59h-61.76c-2.81,0-5.1,2.29-5.1,5.1v341.67c0,2.81,2.29,5.1,5.1,5.1h86.51v-76.89c0-2.82-2.29-5.1-5.11-5.1h-2.47c-2.82,0-5.1-2.29-5.1-5.1h0c0-2.82,2.29-5.1,5.1-5.1h97.26c2.82,0,5.1,2.29,5.1,5.1s-2.29,5.1-5.1,5.1h-2.47c-2.82,0-5.1,2.29-5.1,5.1v76.89h86.17c2.82,0,5.1-2.29,5.1-5.1v-341.67c0-2.81-2.28-5.1-5.1-5.1ZM547.78,1001.43c0,6.11-4.97,11.08-11.08,11.08h-171.18c-6.11,0-11.08-4.97-11.08-11.08v-152.33c0-6.1,4.97-11.08,11.08-11.08h171.18c6.12,0,11.08,4.97,11.08,11.08v152.33Z"/>
    <path class="cls-28" d="M583.45,920c27.93-.47,56.29-.89,84.25-1.05,3.25.22,5.98,3.17,5.91,6.45,0,0,0,.45,0,.45,0,0,0,.9,0,.9,0,0,.06,7.16.06,7.16.54,54.88.7,118.7.67,173.63,0,0,0,.89,0,.89,0,0,0,.48,0,.48.01,4.06-3.76,7.46-7.79,7.1-19.99-.07-39.98-.23-59.96-.42-38.19-.3-76.37-.78-114.56-.9,0,0-.78,0-.78,0,0,0,0-.77,0-.77.09-24.86,0-50.16-.07-75.04,0,0,0-1.63,0-1.63-.2-4.18,3.39-6.8,7.35-6.34,6.29.74,7.3-7.99,1.01-8.38-17.79.13-61.88.45-79.12.61-2.17.02-14.34.12-16.31.14,0,0-1.63.01-1.63.01-.46.01-.75.04-1.12.16-1.39.42-2.39,1.8-2.35,3.23,0,0,.05,1.77.05,1.77,0,0-1.84.02-1.84.02,0,0,1.78-1.78,1.78-1.78.05,2.3,2.06,3.54,4.26,3.26,0,0,1.49,0,1.49,0,3.81-.1,7.17,3.3,7.01,7.12-.02.53.03,1.71.01,2.24.04,18.32.35,58.19.36,76.87,0,0-2.26,0-2.26,0,0,0-114.88.3-114.88.3,0,0-57.44-.05-57.44-.05,0,0-3.59,0-3.59,0,0,0-.45,0-.45,0,0,0-.66-.03-.66-.03-.44-.04-.89-.11-1.31-.23-3.43-.87-5.86-4.3-5.62-7.83,0,0,0-1.79,0-1.79.24-55.01.46-117.43,1.03-172.32,0,0,.07-7.18.07-7.18,0,0,.02-1.83.02-1.83.05-3.05,2.54-5.82,5.58-6.15.63-.07,1.36-.06,1.97-.05,0,0,3.59.03,3.59.03,14.02.15,64,.75,78.98,1,0,0,0,.48,0,.48l-57.44.78c-3.48.1-17.86.15-21.54.22,0,0-3.59.03-3.59.03,0,0-.9,0-.9,0-.33,0-.48.01-.72.05-1.78.23-3.24,1.88-3.22,3.67,0,0,.01,1.76.01,1.76.51,57.44.95,121.93,1.1,179.5,0,0,0,1.8,0,1.8v.45s.02.26.02.26c.08,1.23,1.14,2.31,2.39,2.39,38.75-.12,136.63.13,176.6.26,0,0-2.25,2.25-2.25,2.25,0,0,.19-47.76.19-47.76-.02-4.05.17-25.57.16-29.11.14-1.81-1.41-3.46-3.23-3.43-1.62-.04-3.54.16-5.13-.57-2.51-1.04-4.24-3.67-4.19-6.37,0,0,.03-1.8.03-1.8h1.75s0,.01,0,.01l-1.78,1.78c-.06-3.74,3.34-7,7.03-6.81,0,0,1.63.01,1.63.01,25.51.22,69.53.57,95.43.75,5.37-.07,8.14,6.77,4.13,10.41-1.76,1.82-4.46,1.63-6.74,1.61-2.37.04-4.25,2.26-4.07,4.6.02,1.08-.03,3.79-.01,4.89-.08,23.79-.13,48.01-.05,71.78,0,0-.78-.78-.78-.78,57.88-.2,115.75-1.09,173.63-1.32,0,0,.9,0,.9,0,.3,0,.64,0,.76-.02,1.5-.08,2.79-1.44,2.78-2.94-.06-27.28.09-75.6.18-103.34-.08-23.6.45-55.27.55-78.76,0,0,0-.9,0-.9,0,0,0-.45,0-.45,0,0-.01-.34-.01-.34-.03-.43-.13-.86-.31-1.26-.64-1.48-2.23-2.36-3.83-2.24,0,0-.89,0-.89,0-6.15-.07-18.71-.15-25.06-.24-19.09-.27-38.19-.46-57.28-.83,0,0,0-.48,0-.48h0Z"/>
    <path class="cls-2" d="M491.33,775.71c0,2.22-1.8,4.03-4.03,4.03h-14.47c-2.22,0-4.03,1.8-4.03,4.03v14.47c0,2.22-1.8,4.03-4.03,4.03h-27.35c-2.22,0-4.03-1.8-4.03-4.03v-14.47c0-2.22-1.8-4.03-4.03-4.03h-14.47c-2.22,0-4.03-1.8-4.03-4.03v-27.35c0-2.22,1.8-4.03,4.03-4.03h14.47c2.22,0,4.03-1.8,4.03-4.03v-14.47c0-2.22,1.8-4.03,4.03-4.03h27.35c2.22,0,4.03,1.8,4.03,4.03v14.47c0,2.22,1.8,4.03,4.03,4.03h14.47c2.22,0,4.03,1.8,4.03,4.03v27.35Z"/>
    <path class="cls-75" d="M509.08,911.14l-10.37-26.01c2.73-2.79,4.42-6.61,4.42-10.82,0-8.54-6.92-15.46-15.46-15.46-7.12,0-13.11,4.81-14.91,11.36l-24.52,1.5c-2.14-5.97-7.85-10.23-14.55-10.23-8.54,0-15.46,6.92-15.46,15.46,0,3.15.95,6.08,2.57,8.53l-23.44,26.57c-1.64-.59-3.4-.91-5.24-.91-8.54,0-15.46,6.92-15.46,15.46s6.92,15.46,15.46,15.46c1.95,0,3.81-.36,5.52-1.02l23.7,25.91c-1.95,2.59-3.11,5.81-3.11,9.3,0,8.54,6.92,15.46,15.46,15.46,7.36,0,13.51-5.14,15.07-12.03h23.83c1.56,6.89,7.72,12.03,15.07,12.03,8.54,0,15.46-6.92,15.46-15.46s-6.92-15.46-15.46-15.46c-7.36,0-13.51,5.14-15.07,12.03h-23.83c-.8-3.54-2.82-6.62-5.59-8.78l6.38-9.03c3.05,1.36,6.42,2.11,9.97,2.11,12.93,0,23.52-10.01,24.44-22.71l10.37-1.62c2.39,5.45,7.83,9.26,14.16,9.26,8.54,0,15.46-6.92,15.46-15.46s-6.61-15.14-14.88-15.44h0ZM472.45,911.78l11.19-22.54c1.29.35,2.64.53,4.03.53,1.81,0,3.54-.31,5.16-.88l9.4,23.57c-5.25,2.34-8.96,7.52-9.17,13.59l-9.55,1.49c-1.39-6.64-5.48-12.29-11.05-15.76h0ZM426.95,962.32c-.12.06-.24.12-.36.18l-23.19-25.35c2.59-2.76,4.18-6.48,4.18-10.57,0-1.47-.2-2.88-.59-4.23l19.95-10.62v50.59h0ZM403.7,916.34c-.16-.18-.33-.37-.51-.54l22.57-25.59c.39.23.78.45,1.19.64v13.12l-23.25,12.38h0ZM433.81,892.39c1.32,0,2.6-.18,3.82-.5l2.36,5.14-6.18,3.29v-7.93ZM443.71,888.71c2.95-2.51,4.94-6.11,5.36-10.18l23.4-1.43c.14.79.35,1.57.61,2.31l-27.03,14.39-2.34-5.09h0ZM436.86,961.1c-.98-.2-2-.32-3.05-.32v-52.69l9.05-4.82,3.87,8.43c-7.02,4.31-11.71,12.06-11.71,20.9,0,7.52,3.39,14.25,8.72,18.75l-6.88,9.75h0ZM453.02,908.97l-4.1-8.92,27.82-14.81c.27.27.55.53.85.79l-11.41,22.98c-2.12-.59-4.35-.91-6.65-.91s-4.43.3-6.51.88h0Z"/>
  </g>
  <g>
    <path class="cls-32" d="M504.44,1271.18h-106.97c-1.76,0-3.19,1.42-3.19,3.18v95.19c0,1.76,1.43,3.18,3.19,3.18h106.97c1.76,0,3.18-1.42,3.18-3.18v-95.19c0-1.76-1.42-3.18-3.18-3.18Z"/>
    <path class="cls-28" d="M540.51,1554.94c.09,5.39-4.51,10.24-9.91,10.41-1.75.06-3.44.02-5.17.06-6.87.1-13.74.13-20.6.3-39.97.82-83.88,2-123.63,1.37-2.96-.11-7.46,0-10.47-.21-5.58-.52-10.34-5.3-10.67-10.91.46-32.49,1.1-66.84.75-99.3-.07-13.74-.34-27.47-.5-41.21-.16-5.99,4.92-11.41,10.92-11.67.79-.09,1.88-.03,2.66-.07,49.57-.7,102.35-1.02,151.96-.94,0,0,2.58.01,2.58.01,0,0,1.29,0,1.29,0,7.11-.23,13.33,5.92,13,13.06-.12,46.35-2.21,92.74-2.19,139.08h0ZM540.03,1554.94c.03-46.34-2.07-92.73-2.19-139.08.23-4.32-3.51-8.14-7.82-8.05,0,0-.32,0-.32,0h-1.29s-2.58.02-2.58.02c-49.62.09-102.38-.24-151.96-.93,0,0-1.29-.02-1.29-.02-4.95-.49-9.65,3.54-9.67,8.58-.42,27.47-.71,54.94-.53,82.42.16,14.84.42,36.73.73,51.51.17,2.43-.36,7.15,1.09,9.36,1.79,3.4,5.51,4.86,9.26,4.46,1.51-.06,6.13-.06,7.73-.11,39.68-.53,83.73.44,123.63,1.37,6.87.17,13.74.2,20.6.3,3.35-.01,6.93.49,9.87-1.46,2.89-1.73,4.72-5,4.73-8.37h0Z"/>
    <path class="cls-29" d="M578.35,1321.96h-61.75v47.59c0,6.7-5.45,12.16-12.16,12.16h-106.97c-6.71,0-12.17-5.46-12.17-12.16v-47.59h-61.76c-2.81,0-5.1,2.29-5.1,5.1v341.67c0,2.81,2.29,5.1,5.1,5.1h86.51v-76.89c0-2.82-2.29-5.1-5.11-5.1h-2.47c-2.82,0-5.1-2.29-5.1-5.1h0c0-2.82,2.29-5.1,5.1-5.1h97.26c2.82,0,5.1,2.29,5.1,5.1s-2.29,5.1-5.1,5.1h-2.47c-2.82,0-5.1,2.29-5.1,5.1v76.89h86.17c2.82,0,5.1-2.29,5.1-5.1v-341.67c0-2.81-2.28-5.1-5.1-5.1ZM547.78,1561.35c0,6.11-4.97,11.08-11.08,11.08h-171.18c-6.11,0-11.08-4.97-11.08-11.08v-152.33c0-6.1,4.97-11.08,11.08-11.08h171.18c6.12,0,11.08,4.97,11.08,11.08v152.33Z"/>
    <path class="cls-28" d="M583.45,1479.93c27.93-.47,56.29-.89,84.25-1.05,3.25.22,5.98,3.17,5.91,6.45,0,0,0,.45,0,.45,0,0,0,.9,0,.9,0,0,.06,7.16.06,7.16.54,54.88.7,118.7.67,173.63,0,0,0,.89,0,.89,0,0,0,.48,0,.48.01,4.06-3.76,7.46-7.79,7.1-19.99-.07-39.98-.23-59.96-.42-38.19-.3-76.37-.78-114.56-.9,0,0-.78,0-.78,0,0,0,0-.77,0-.77.09-24.86,0-50.16-.07-75.04,0,0,0-1.63,0-1.63-.2-4.18,3.39-6.8,7.35-6.34,6.29.74,7.3-7.99,1.01-8.38-17.79.13-61.88.45-79.12.61-2.17.02-14.34.12-16.31.14,0,0-1.63.01-1.63.01-.46.01-.75.04-1.12.16-1.39.42-2.39,1.8-2.35,3.23,0,0,.05,1.77.05,1.77,0,0-1.84.02-1.84.02,0,0,1.78-1.78,1.78-1.78.05,2.3,2.06,3.54,4.26,3.26,0,0,1.49,0,1.49,0,3.81-.1,7.17,3.3,7.01,7.12-.02.53.03,1.71.01,2.24.04,18.32.35,58.19.36,76.87,0,0-2.26,0-2.26,0,0,0-114.88.3-114.88.3,0,0-57.44-.05-57.44-.05,0,0-3.59,0-3.59,0,0,0-.45,0-.45,0,0,0-.66-.03-.66-.03-.44-.04-.89-.11-1.31-.23-3.43-.87-5.86-4.3-5.62-7.83,0,0,0-1.79,0-1.79.24-55.01.46-117.43,1.03-172.32,0,0,.07-7.18.07-7.18,0,0,.02-1.83.02-1.83.05-3.05,2.54-5.82,5.58-6.15.63-.07,1.36-.06,1.97-.05,0,0,3.59.03,3.59.03,14.02.15,64,.75,78.98,1,0,0,0,.48,0,.48l-57.44.78c-3.48.1-17.86.15-21.54.22,0,0-3.59.03-3.59.03,0,0-.9,0-.9,0-.33,0-.48.01-.72.05-1.78.23-3.24,1.88-3.22,3.67,0,0,.01,1.76.01,1.76.51,57.44.95,121.93,1.1,179.5,0,0,0,1.8,0,1.8v.45s.02.26.02.26c.08,1.23,1.14,2.31,2.39,2.39,38.75-.12,136.63.13,176.6.26,0,0-2.25,2.25-2.25,2.25,0,0,.19-47.76.19-47.76-.02-4.05.17-25.57.16-29.11.14-1.81-1.41-3.46-3.23-3.43-1.62-.04-3.54.16-5.13-.57-2.51-1.04-4.24-3.67-4.19-6.37,0,0,.03-1.8.03-1.8h1.75s0,.01,0,.01l-1.78,1.78c-.06-3.74,3.34-7,7.03-6.81,0,0,1.63.01,1.63.01,25.51.22,69.53.57,95.43.75,5.37-.07,8.14,6.77,4.13,10.41-1.76,1.82-4.46,1.63-6.74,1.61-2.37.04-4.25,2.26-4.07,4.6.02,1.08-.03,3.79-.01,4.89-.08,23.79-.13,48.01-.05,71.78,0,0-.78-.78-.78-.78,57.88-.2,115.75-1.09,173.63-1.32,0,0,.9,0,.9,0,.3,0,.64,0,.76-.02,1.5-.08,2.79-1.44,2.78-2.94-.06-27.28.09-75.6.18-103.34-.08-23.6.45-55.27.55-78.76,0,0,0-.9,0-.9,0,0,0-.45,0-.45,0,0-.01-.34-.01-.34-.03-.43-.13-.86-.31-1.26-.64-1.48-2.23-2.36-3.83-2.24,0,0-.89,0-.89,0-6.15-.07-18.71-.15-25.06-.24-19.09-.27-38.19-.46-57.28-.83,0,0,0-.48,0-.48h0Z"/>
    <path class="cls-3" d="M491.33,1335.63c0,2.22-1.8,4.03-4.03,4.03h-14.47c-2.22,0-4.03,1.8-4.03,4.03v14.47c0,2.22-1.8,4.03-4.03,4.03h-27.35c-2.22,0-4.03-1.8-4.03-4.03v-14.47c0-2.22-1.8-4.03-4.03-4.03h-14.47c-2.22,0-4.03-1.8-4.03-4.03v-27.35c0-2.22,1.8-4.03,4.03-4.03h14.47c2.22,0,4.03-1.8,4.03-4.03v-14.47c0-2.22,1.8-4.03,4.03-4.03h27.35c2.22,0,4.03,1.8,4.03,4.03v14.47c0,2.22,1.8,4.03,4.03,4.03h14.47c2.22,0,4.03,1.8,4.03,4.03v27.35Z"/>
    <path class="cls-77" d="M509.08,1471.06l-10.37-26.01c2.73-2.79,4.42-6.61,4.42-10.82,0-8.54-6.92-15.46-15.46-15.46-7.12,0-13.11,4.81-14.91,11.36l-24.52,1.5c-2.14-5.97-7.85-10.23-14.55-10.23-8.54,0-15.46,6.92-15.46,15.46,0,3.15.95,6.08,2.57,8.53l-23.44,26.57c-1.64-.59-3.4-.91-5.24-.91-8.54,0-15.46,6.92-15.46,15.46s6.92,15.46,15.46,15.46c1.95,0,3.81-.36,5.52-1.02l23.7,25.91c-1.95,2.59-3.11,5.81-3.11,9.3,0,8.54,6.92,15.46,15.46,15.46,7.36,0,13.51-5.14,15.07-12.03h23.83c1.56,6.89,7.72,12.03,15.07,12.03,8.54,0,15.46-6.92,15.46-15.46s-6.92-15.46-15.46-15.46c-7.36,0-13.51,5.14-15.07,12.03h-23.83c-.8-3.54-2.82-6.62-5.59-8.78l6.38-9.03c3.05,1.36,6.42,2.11,9.97,2.11,12.93,0,23.52-10.01,24.44-22.71l10.37-1.62c2.39,5.45,7.83,9.26,14.16,9.26,8.54,0,15.46-6.92,15.46-15.46s-6.61-15.14-14.88-15.44h0ZM472.45,1471.7l11.19-22.54c1.29.35,2.64.53,4.03.53,1.81,0,3.54-.31,5.16-.88l9.4,23.57c-5.25,2.34-8.96,7.52-9.17,13.59l-9.55,1.49c-1.39-6.64-5.48-12.29-11.05-15.76h0ZM426.95,1522.24c-.12.06-.24.12-.36.18l-23.19-25.35c2.59-2.76,4.18-6.48,4.18-10.57,0-1.47-.2-2.88-.59-4.23l19.95-10.62v50.59h0ZM403.7,1476.27c-.16-.18-.33-.37-.51-.54l22.57-25.59c.39.23.78.45,1.19.64v13.12l-23.25,12.38h0ZM433.81,1452.32c1.32,0,2.6-.18,3.82-.5l2.36,5.14-6.18,3.29v-7.93ZM443.71,1448.63c2.95-2.51,4.94-6.11,5.36-10.18l23.4-1.43c.14.79.35,1.57.61,2.31l-27.03,14.39-2.34-5.09h0ZM436.86,1521.02c-.98-.2-2-.32-3.05-.32v-52.69l9.05-4.82,3.87,8.43c-7.02,4.31-11.71,12.06-11.71,20.9,0,7.52,3.39,14.25,8.72,18.75l-6.88,9.75h0ZM453.02,1468.89l-4.1-8.92,27.82-14.81c.27.27.55.53.85.79l-11.41,22.98c-2.12-.59-4.35-.91-6.65-.91s-4.43.3-6.51.88h0Z"/>
  </g>
  <g>
    <path class="cls-66" d="M403.38,120.06v13.2h-3.19v-12.98c0-1.96-.35-3.38-1.04-4.27-.7-.9-1.81-1.34-3.33-1.34-1.77,0-3.17.59-4.22,1.77-1.05,1.18-1.58,2.77-1.58,4.78v12.04h-3.19v-21.01h3.15v3.45c.63-1.29,1.51-2.27,2.64-2.95,1.13-.68,2.42-1.01,3.87-1.01,4.59,0,6.89,2.77,6.89,8.32Z"/>
    <path class="cls-76" d="M497.74,102.85h-2.8l-12.22,30.41h3.31l3.08-7.81h14.5l3.07,7.81h3.27l-12.21-30.41ZM490.25,122.52l6.11-15.57,6.11,15.57h-12.22Z"/>
    <path class="cls-78" d="M461.95,111.74c-1.76,0-3.33.46-4.71,1.38-1.38.92-2.45,2.2-3.21,3.86-.77,1.65-1.15,3.55-1.15,5.71,0,3.39.86,6.05,2.59,7.98,1.72,1.93,4.07,2.89,7.07,2.89,1.37,0,2.71-.25,4.02-.76,1.31-.5,2.39-1.18,3.23-2.04l-1.06-2.55c-1.87,1.67-3.92,2.5-6.15,2.5-2.02,0-3.59-.62-4.69-1.87-1.1-1.25-1.71-3.1-1.81-5.55h14.03v-1.29c0-3.19-.73-5.7-2.17-7.53-1.45-1.82-3.44-2.73-5.99-2.73ZM456.15,121.05c.19-2.1.79-3.72,1.8-4.87,1.01-1.15,2.36-1.73,4.04-1.73s2.94.57,3.86,1.71c.92,1.13,1.41,2.76,1.46,4.89h-11.16Z"/>
    <path class="cls-84" d="M421.99,113.07c-1.4-.89-3-1.33-4.81-1.33s-3.41.44-4.79,1.33c-1.38.89-2.45,2.17-3.19,3.82-.75,1.65-1.13,3.57-1.13,5.76s.38,4.1,1.13,5.76c.74,1.65,1.81,2.92,3.19,3.81,1.38.89,2.97,1.34,4.79,1.34s3.41-.45,4.81-1.34c1.39-.89,2.46-2.16,3.21-3.81.75-1.66,1.12-3.58,1.12-5.76s-.37-4.11-1.12-5.76-1.82-2.93-3.21-3.82ZM421.53,128.62c-1.01,1.37-2.46,2.05-4.35,2.05s-3.35-.69-4.36-2.07c-1.01-1.38-1.52-3.36-1.52-5.95s.52-4.54,1.54-5.93c1.03-1.4,2.47-2.09,4.34-2.09s3.31.69,4.33,2.09c1.03,1.39,1.54,3.37,1.54,5.93s-.51,4.61-1.52,5.97Z"/>
    <path class="cls-86" d="M444.93,115.88c-.57-1.33-1.42-2.35-2.54-3.07-1.12-.71-2.42-1.07-3.92-1.07-1.68,0-3.17.44-4.45,1.33-1.29.89-2.29,2.16-3,3.8s-1.06,3.53-1.06,5.69.35,4.11,1.06,5.76c.71,1.65,1.71,2.94,3,3.86,1.28.92,2.77,1.38,4.45,1.38,1.5,0,2.8-.36,3.92-1.08,1.12-.72,1.97-1.74,2.54-3.06v3.84h3.2v-30.41h-3.2v13.03ZM443.42,128.58c-1.02,1.39-2.45,2.09-4.32,2.09s-3.32-.71-4.35-2.14c-1.04-1.42-1.56-3.41-1.56-5.97s.52-4.44,1.56-5.82c1.03-1.38,2.48-2.07,4.35-2.07s3.3.69,4.32,2.07c1.01,1.38,1.51,3.35,1.51,5.91s-.5,4.53-1.51,5.93Z"/>
  </g>
  <g>
    <path class="cls-81" d="M405.93,683.54v13.2h-3.19v-12.98c0-1.95-.35-3.38-1.04-4.27-.7-.89-1.81-1.34-3.33-1.34-1.76,0-3.17.59-4.22,1.77-1.05,1.18-1.58,2.78-1.58,4.79v12.03h-3.19v-21h3.15v3.45c.63-1.29,1.51-2.28,2.64-2.95,1.13-.68,2.42-1.01,3.86-1.01,4.6,0,6.9,2.78,6.9,8.32Z"/>
    <path class="cls-85" d="M414.94,695.7c-1.38-.89-2.44-2.16-3.19-3.82-.75-1.65-1.12-3.57-1.12-5.76s.37-4.1,1.12-5.76c.75-1.65,1.81-2.93,3.19-3.82,1.38-.89,2.98-1.34,4.79-1.34s3.42.45,4.81,1.34c1.39.89,2.46,2.16,3.21,3.82.75,1.65,1.12,3.57,1.12,5.76s-.38,4.1-1.12,5.76c-.75,1.65-1.82,2.93-3.21,3.82-1.39.89-3,1.34-4.81,1.34s-3.41-.45-4.79-1.34ZM424.08,692.1c1.01-1.37,1.52-3.36,1.52-5.97s-.51-4.54-1.54-5.93c-1.02-1.39-2.47-2.09-4.33-2.09s-3.31.7-4.34,2.09c-1.02,1.4-1.54,3.37-1.54,5.93s.51,4.57,1.52,5.95c1.01,1.38,2.46,2.07,4.36,2.07s3.34-.68,4.35-2.05Z"/>
    <path class="cls-80" d="M450.66,666.33v30.41h-3.19v-3.84c-.58,1.32-1.43,2.34-2.54,3.06-1.12.72-2.42,1.08-3.92,1.08-1.68,0-3.17-.46-4.45-1.38-1.29-.92-2.29-2.21-3-3.86-.71-1.65-1.06-3.57-1.06-5.76s.35-4.05,1.06-5.69c.71-1.64,1.71-2.9,3-3.8,1.29-.89,2.77-1.34,4.45-1.34,1.5,0,2.8.36,3.92,1.08,1.12.72,1.96,1.74,2.54,3.06v-13.03h3.19ZM445.95,692.06c1.01-1.39,1.52-3.37,1.52-5.93s-.51-4.53-1.52-5.91-2.45-2.07-4.32-2.07-3.32.69-4.36,2.07-1.56,3.32-1.56,5.82.52,4.55,1.56,5.97c1.04,1.42,2.49,2.13,4.36,2.13s3.3-.7,4.32-2.09Z"/>
    <path class="cls-82" d="M472.66,686.78h-14.03c.1,2.44.71,4.29,1.81,5.54,1.1,1.25,2.67,1.88,4.69,1.88,2.23,0,4.28-.83,6.15-2.5l1.06,2.54c-.84.86-1.92,1.55-3.23,2.05-1.31.5-2.65.75-4.02.75-3,0-5.35-.96-7.08-2.89-1.72-1.93-2.58-4.59-2.58-7.98,0-2.16.38-4.06,1.14-5.71.76-1.65,1.83-2.94,3.21-3.86,1.38-.92,2.95-1.38,4.71-1.38,2.55,0,4.55.91,5.99,2.74,1.44,1.83,2.17,4.33,2.17,7.53v1.29ZM460.5,679.66c-1.01,1.15-1.61,2.78-1.79,4.87h11.15c-.05-2.13-.54-3.76-1.46-4.9-.92-1.14-2.21-1.7-3.86-1.7s-3.03.58-4.04,1.73Z"/>
    <path class="cls-88" d="M507.48,683.71c.88,1.27,1.32,2.85,1.32,4.74,0,2.67-.8,4.72-2.4,6.15-1.6,1.42-3.88,2.13-6.82,2.13h-11.59v-30.41h11.15c2.86,0,5.08.69,6.66,2.07,1.58,1.38,2.36,3.34,2.36,5.87,0,1.64-.39,3.05-1.16,4.23-.78,1.18-1.86,2.06-3.25,2.63,1.6.46,2.84,1.32,3.72,2.59ZM491.18,679.83h7.49c2.08,0,3.65-.46,4.71-1.38,1.06-.92,1.6-2.26,1.6-4.01,0-3.45-2.1-5.18-6.31-5.18h-7.49v10.57ZM504.09,692.49c1.04-.88,1.56-2.25,1.56-4.12,0-3.74-2.13-5.61-6.38-5.61h-8.08v11.04h8.08c2.18,0,3.79-.44,4.83-1.32Z"/>
  </g>
  <g>
    <path class="cls-83" d="M403.5,1246v13.2h-3.19v-12.98c0-1.96-.35-3.38-1.04-4.27-.7-.89-1.81-1.34-3.33-1.34-1.76,0-3.17.59-4.22,1.77-1.05,1.18-1.58,2.78-1.58,4.79v12.03h-3.19v-21h3.15v3.45c.63-1.29,1.51-2.28,2.64-2.95,1.13-.68,2.42-1.01,3.86-1.01,4.6,0,6.9,2.78,6.9,8.32Z"/>
    <path class="cls-89" d="M412.5,1258.16c-1.38-.89-2.44-2.16-3.19-3.82-.75-1.65-1.12-3.57-1.12-5.76s.37-4.1,1.12-5.76c.75-1.65,1.81-2.93,3.19-3.82,1.38-.89,2.98-1.34,4.79-1.34s3.42.45,4.81,1.34c1.39.89,2.46,2.16,3.21,3.82.75,1.65,1.12,3.57,1.12,5.76s-.38,4.1-1.12,5.76c-.75,1.65-1.82,2.93-3.21,3.82-1.39.89-3,1.34-4.81,1.34s-3.41-.45-4.79-1.34ZM421.65,1254.56c1.01-1.37,1.52-3.36,1.52-5.97s-.51-4.54-1.54-5.93c-1.02-1.39-2.47-2.09-4.33-2.09s-3.31.7-4.34,2.09c-1.02,1.4-1.54,3.37-1.54,5.93s.51,4.57,1.52,5.95c1.01,1.38,2.46,2.07,4.36,2.07s3.34-.68,4.35-2.05Z"/>
    <path class="cls-87" d="M448.23,1228.79v30.41h-3.19v-3.84c-.58,1.32-1.43,2.34-2.54,3.06-1.12.72-2.42,1.08-3.92,1.08-1.68,0-3.17-.46-4.45-1.38-1.29-.92-2.29-2.21-3-3.86-.71-1.65-1.06-3.57-1.06-5.76s.35-4.05,1.06-5.69c.71-1.64,1.71-2.9,3-3.8,1.29-.89,2.77-1.34,4.45-1.34,1.5,0,2.8.36,3.92,1.08,1.12.72,1.96,1.74,2.54,3.06v-13.03h3.19ZM443.52,1254.52c1.01-1.39,1.52-3.37,1.52-5.93s-.51-4.53-1.52-5.91c-1.01-1.38-2.45-2.07-4.32-2.07s-3.32.69-4.36,2.07c-1.04,1.38-1.56,3.32-1.56,5.82s.52,4.55,1.56,5.97,2.49,2.13,4.36,2.13,3.3-.7,4.32-2.09Z"/>
    <path class="cls-60" d="M470.22,1249.24h-14.03c.1,2.44.71,4.29,1.81,5.54,1.1,1.25,2.67,1.88,4.69,1.88,2.23,0,4.28-.83,6.15-2.5l1.06,2.54c-.84.86-1.92,1.55-3.23,2.05-1.31.5-2.65.75-4.02.75-3,0-5.35-.96-7.08-2.89-1.72-1.93-2.58-4.59-2.58-7.98,0-2.16.38-4.06,1.14-5.71.76-1.65,1.83-2.94,3.21-3.86,1.38-.92,2.95-1.38,4.71-1.38,2.55,0,4.55.91,5.99,2.74,1.44,1.83,2.17,4.33,2.17,7.53v1.29ZM458.06,1242.12c-1.01,1.15-1.61,2.78-1.79,4.87h11.15c-.05-2.13-.54-3.76-1.46-4.9-.92-1.14-2.21-1.7-3.86-1.7s-3.03.58-4.04,1.73Z"/>
    <path class="cls-59" d="M490.56,1257.67c-1.95-1.25-3.44-3.05-4.47-5.39-1.04-2.34-1.56-5.11-1.56-8.3s.52-5.95,1.56-8.28c1.04-2.33,2.53-4.12,4.47-5.37,1.94-1.25,4.23-1.88,6.86-1.88,1.92,0,3.68.32,5.28.97,1.6.65,3,1.6,4.18,2.87l-1.22,2.72c-1.34-1.24-2.65-2.13-3.94-2.67-1.29-.55-2.71-.82-4.26-.82-3.05,0-5.41,1.09-7.08,3.26-1.67,2.17-2.5,5.24-2.5,9.21s.83,7.08,2.5,9.25c1.67,2.17,4.03,3.26,7.08,3.26,1.55,0,2.97-.27,4.26-.82,1.29-.55,2.6-1.44,3.94-2.67l1.22,2.72c-1.18,1.27-2.58,2.22-4.18,2.87-1.6.65-3.36.97-5.28.97-2.63,0-4.91-.63-6.86-1.88Z"/>
  </g>
</svg>