<?xml version="1.0" encoding="UTF-8"?>
<svg id="Livello_1" data-name="Livello 1" xmlns="http://www.w3.org/2000/svg" xmlns:xlink="http://www.w3.org/1999/xlink" viewBox="0 0 2000 2000">
  <defs>
    <style>
      .cls-1 {
        filter: url(#drop-shadow-74);
      }

      .cls-1, .cls-2, .cls-3 {
        fill: #fff;
      }

      .cls-2 {
        filter: url(#drop-shadow-76);
      }

      .cls-3 {
        filter: url(#drop-shadow-78);
      }

      .cls-4 {
        stroke: url(#Sfumatura_senza_nome_599-4);
      }

      .cls-4, .cls-5, .cls-6, .cls-7, .cls-8, .cls-9, .cls-10, .cls-11, .cls-12, .cls-13, .cls-14, .cls-15, .cls-16, .cls-17, .cls-18, .cls-19, .cls-20, .cls-21, .cls-22, .cls-23, .cls-24, .cls-25 {
        fill: none;
        stroke-linecap: round;
        stroke-miterlimit: 10;
      }

      .cls-4, .cls-5, .cls-6, .cls-7, .cls-8, .cls-9, .cls-10, .cls-11, .cls-12, .cls-13, .cls-14, .cls-15, .cls-16, .cls-17, .cls-20, .cls-21, .cls-22, .cls-23, .cls-25 {
        stroke-width: 5px;
      }

      .cls-4, .cls-14 {
        stroke-dasharray: 29.19 29.19;
      }

      .cls-5 {
        stroke: url(#Sfumatura_senza_nome_605);
      }

      .cls-6, .cls-13 {
        stroke: url(#Sfumatura_senza_nome_599);
      }

      .cls-7 {
        stroke: url(#Sfumatura_senza_nome_605-3);
      }

      .cls-8 {
        stroke: url(#Sfumatura_senza_nome_605-5);
      }

      .cls-9 {
        stroke: url(#Sfumatura_senza_nome_599-3);
      }

      .cls-10 {
        stroke: url(#Sfumatura_senza_nome_599-9);
      }

      .cls-11 {
        stroke: url(#Sfumatura_senza_nome_599-5);
      }

      .cls-12 {
        stroke: url(#Sfumatura_senza_nome_599-7);
      }

      .cls-13 {
        stroke-dasharray: 28.57 28.57;
      }

      .cls-26 {
        fill: url(#Sfumatura_senza_nome_11);
      }

      .cls-27 {
        fill: #00b4d8;
      }

      .cls-14 {
        stroke: url(#Sfumatura_senza_nome_599-12);
      }

      .cls-15 {
        stroke: url(#Sfumatura_senza_nome_599-16);
      }

      .cls-15, .cls-17 {
        stroke-dasharray: 27.41 27.41;
      }

      .cls-16 {
        stroke: url(#Sfumatura_senza_nome_599-6);
        stroke-dasharray: 32.12 32.12;
      }

      .cls-28 {
        fill: url(#Sfumatura_senza_nome_11-5);
        filter: url(#drop-shadow-73);
      }

      .cls-29 {
        fill: url(#Sfumatura_senza_nome_11-7);
        filter: url(#drop-shadow-77);
      }

      .cls-30 {
        fill: url(#Sfumatura_senza_nome_11-6);
        filter: url(#drop-shadow-75);
      }

      .cls-31 {
        fill: url(#Sfumatura_senza_nome_11-8);
      }

      .cls-32 {
        fill: url(#Sfumatura_senza_nome_11-9);
      }

      .cls-33 {
        fill: url(#Sfumatura_senza_nome_11-4);
      }

      .cls-34 {
        fill: url(#Sfumatura_senza_nome_11-3);
      }

      .cls-35 {
        fill: url(#Sfumatura_senza_nome_11-2);
      }

      .cls-17 {
        stroke: url(#Sfumatura_senza_nome_599-8);
      }

      .cls-36 {
        fill: #50b0d3;
      }

      .cls-18 {
        stroke: url(#Sfumatura_senza_nome_599-21);
      }

      .cls-18, .cls-19, .cls-24 {
        stroke-width: 5.91px;
      }

      .cls-19 {
        stroke: url(#Sfumatura_senza_nome_599-19);
      }

      .cls-20 {
        stroke: url(#Sfumatura_senza_nome_599-11);
      }

      .cls-21 {
        stroke: url(#Sfumatura_senza_nome_599-13);
      }

      .cls-22 {
        stroke: url(#Sfumatura_senza_nome_599-15);
      }

      .cls-23 {
        stroke: url(#Sfumatura_senza_nome_599-17);
      }

      .cls-37 {
        fill: url(#Sfumatura_senza_nome_113-30);
      }

      .cls-38 {
        fill: url(#Sfumatura_senza_nome_113-13);
      }

      .cls-39 {
        fill: url(#Sfumatura_senza_nome_113-18);
      }

      .cls-40 {
        fill: url(#Sfumatura_senza_nome_113-19);
      }

      .cls-41 {
        fill: url(#Sfumatura_senza_nome_113-11);
      }

      .cls-42 {
        fill: url(#Sfumatura_senza_nome_113-12);
      }

      .cls-43 {
        fill: url(#Sfumatura_senza_nome_113-10);
      }

      .cls-44 {
        fill: url(#Sfumatura_senza_nome_113-15);
      }

      .cls-45 {
        fill: url(#Sfumatura_senza_nome_113-16);
      }

      .cls-46 {
        fill: url(#Sfumatura_senza_nome_113-14);
      }

      .cls-47 {
        fill: url(#Sfumatura_senza_nome_113-17);
      }

      .cls-48 {
        fill: url(#Sfumatura_senza_nome_113-29);
      }

      .cls-49 {
        fill: url(#Sfumatura_senza_nome_113-23);
      }

      .cls-50 {
        fill: url(#Sfumatura_senza_nome_113-25);
      }

      .cls-51 {
        fill: url(#Sfumatura_senza_nome_113-22);
      }

      .cls-52 {
        fill: url(#Sfumatura_senza_nome_113-26);
      }

      .cls-53 {
        fill: url(#Sfumatura_senza_nome_113-24);
      }

      .cls-54 {
        fill: url(#Sfumatura_senza_nome_113-21);
      }

      .cls-55 {
        fill: url(#Sfumatura_senza_nome_113-28);
      }

      .cls-56 {
        fill: url(#Sfumatura_senza_nome_113-27);
      }

      .cls-57 {
        fill: url(#Sfumatura_senza_nome_113-39);
      }

      .cls-58 {
        fill: url(#Sfumatura_senza_nome_113-35);
      }

      .cls-59 {
        fill: url(#Sfumatura_senza_nome_113-36);
      }

      .cls-60 {
        fill: url(#Sfumatura_senza_nome_113-20);
      }

      .cls-61 {
        fill: url(#Sfumatura_senza_nome_113-33);
      }

      .cls-62 {
        fill: url(#Sfumatura_senza_nome_113-34);
      }

      .cls-63 {
        fill: url(#Sfumatura_senza_nome_113-31);
      }

      .cls-64 {
        fill: url(#Sfumatura_senza_nome_113-32);
      }

      .cls-65 {
        fill: url(#Sfumatura_senza_nome_113-37);
      }

      .cls-66 {
        fill: url(#Sfumatura_senza_nome_113-38);
      }

      .cls-67 {
        fill: url(#Sfumatura_senza_nome_113-49);
      }

      .cls-68 {
        fill: url(#Sfumatura_senza_nome_113-41);
      }

      .cls-69 {
        fill: url(#Sfumatura_senza_nome_113-42);
      }

      .cls-70 {
        fill: url(#Sfumatura_senza_nome_113-43);
      }

      .cls-71 {
        fill: url(#Sfumatura_senza_nome_113-51);
      }

      .cls-72 {
        fill: url(#Sfumatura_senza_nome_113-57);
      }

      .cls-73 {
        fill: url(#Sfumatura_senza_nome_113-54);
      }

      .cls-74 {
        fill: url(#Sfumatura_senza_nome_113-40);
      }

      .cls-75 {
        fill: url(#Sfumatura_senza_nome_113-48);
      }

      .cls-76 {
        fill: url(#Sfumatura_senza_nome_113-44);
      }

      .cls-77 {
        fill: url(#Sfumatura_senza_nome_113-45);
      }

      .cls-78 {
        fill: url(#Sfumatura_senza_nome_113-46);
      }

      .cls-79 {
        fill: url(#Sfumatura_senza_nome_113-47);
      }

      .cls-80 {
        fill: url(#Sfumatura_senza_nome_113-53);
      }

      .cls-81 {
        fill: url(#Sfumatura_senza_nome_113-55);
      }

      .cls-82 {
        fill: url(#Sfumatura_senza_nome_113-52);
      }

      .cls-83 {
        fill: url(#Sfumatura_senza_nome_113-58);
      }

      .cls-84 {
        fill: url(#Sfumatura_senza_nome_113-56);
      }

      .cls-85 {
        fill: url(#Sfumatura_senza_nome_113-59);
      }

      .cls-86 {
        fill: url(#Sfumatura_senza_nome_113-50);
      }

      .cls-87 {
        fill: url(#Sfumatura_senza_nome_113-64);
      }

      .cls-88 {
        fill: url(#Sfumatura_senza_nome_113-62);
      }

      .cls-89 {
        fill: url(#Sfumatura_senza_nome_113-65);
      }

      .cls-90 {
        fill: url(#Sfumatura_senza_nome_113-67);
      }

      .cls-91 {
        fill: url(#Sfumatura_senza_nome_113-60);
      }

      .cls-92 {
        fill: url(#Sfumatura_senza_nome_113-63);
      }

      .cls-93 {
        fill: url(#Sfumatura_senza_nome_113-61);
      }

      .cls-94 {
        fill: url(#Sfumatura_senza_nome_113-66);
      }

      .cls-95 {
        fill: url(#Sfumatura_senza_nome_113-68);
      }

      .cls-96 {
        fill: url(#Sfumatura_senza_nome_599-18);
      }

      .cls-97 {
        fill: url(#Sfumatura_senza_nome_599-10);
      }

      .cls-98 {
        fill: url(#Sfumatura_senza_nome_599-23);
      }

      .cls-99 {
        fill: url(#Sfumatura_senza_nome_599-22);
      }

      .cls-100 {
        fill: url(#Sfumatura_senza_nome_599-2);
      }

      .cls-101 {
        fill: url(#Sfumatura_senza_nome_605-4);
      }

      .cls-102 {
        fill: url(#Sfumatura_senza_nome_605-6);
      }

      .cls-103 {
        fill: url(#Sfumatura_senza_nome_605-2);
      }

      .cls-104 {
        fill: url(#Sfumatura_senza_nome_11-10);
      }

      .cls-105 {
        fill: url(#Sfumatura_senza_nome_11-12);
      }

      .cls-106 {
        fill: url(#Sfumatura_senza_nome_11-11);
      }

      .cls-107 {
        fill: url(#Sfumatura_senza_nome_113-4);
      }

      .cls-108 {
        fill: url(#Sfumatura_senza_nome_113-3);
      }

      .cls-109 {
        fill: url(#Sfumatura_senza_nome_113-2);
      }

      .cls-110 {
        fill: url(#Sfumatura_senza_nome_113-5);
      }

      .cls-111 {
        fill: url(#Sfumatura_senza_nome_113-6);
      }

      .cls-112 {
        fill: url(#Sfumatura_senza_nome_113-8);
      }

      .cls-113 {
        fill: url(#Sfumatura_senza_nome_113-7);
      }

      .cls-114 {
        fill: url(#Sfumatura_senza_nome_113-9);
      }

      .cls-115 {
        fill: url(#Sfumatura_senza_nome_6);
      }

      .cls-24 {
        stroke: url(#Sfumatura_senza_nome_599-20);
        stroke-dasharray: 37.95 37.95;
      }

      .cls-25 {
        stroke: url(#Sfumatura_senza_nome_599-14);
        stroke-dasharray: 32.34 32.34;
      }

      .cls-116 {
        fill: url(#Sfumatura_senza_nome_113);
      }
    </style>
    <linearGradient id="Sfumatura_senza_nome_599" data-name="Sfumatura senza nome 599" x1="545.78" y1="1114.28" x2="1153.85" y2="1114.28" gradientUnits="userSpaceOnUse">
      <stop offset="0" stop-color="#0077b6"/>
      <stop offset="1" stop-color="#03045e"/>
    </linearGradient>
    <linearGradient id="Sfumatura_senza_nome_599-2" data-name="Sfumatura senza nome 599" y1="1114.28" y2="1114.28" xlink:href="#Sfumatura_senza_nome_599"/>
    <linearGradient id="Sfumatura_senza_nome_605" data-name="Sfumatura senza nome 605" x1="545.77" y1="1084.31" x2="1153.85" y2="1084.31" gradientUnits="userSpaceOnUse">
      <stop offset="0" stop-color="#8edfef"/>
      <stop offset="1" stop-color="#06b6d9"/>
    </linearGradient>
    <linearGradient id="Sfumatura_senza_nome_605-2" data-name="Sfumatura senza nome 605" x1="545.78" y1="1084.32" x2="1153.85" y2="1084.32" xlink:href="#Sfumatura_senza_nome_605"/>
    <linearGradient id="Sfumatura_senza_nome_599-3" data-name="Sfumatura senza nome 599" y1="1606.12" y2="1606.12" xlink:href="#Sfumatura_senza_nome_599"/>
    <linearGradient id="Sfumatura_senza_nome_599-4" data-name="Sfumatura senza nome 599" y1="1606.12" y2="1606.12" xlink:href="#Sfumatura_senza_nome_599"/>
    <linearGradient id="Sfumatura_senza_nome_599-5" data-name="Sfumatura senza nome 599" y1="1598.62" y2="1598.62" xlink:href="#Sfumatura_senza_nome_599"/>
    <linearGradient id="Sfumatura_senza_nome_599-6" data-name="Sfumatura senza nome 599" y1="1406.41" y2="1406.41" xlink:href="#Sfumatura_senza_nome_599"/>
    <linearGradient id="Sfumatura_senza_nome_599-7" data-name="Sfumatura senza nome 599" y1="1230.26" y2="1230.26" xlink:href="#Sfumatura_senza_nome_599"/>
    <linearGradient id="Sfumatura_senza_nome_599-8" data-name="Sfumatura senza nome 599" y1="1222.76" y2="1222.76" xlink:href="#Sfumatura_senza_nome_599"/>
    <linearGradient id="Sfumatura_senza_nome_599-9" data-name="Sfumatura senza nome 599" y1="1222.76" y2="1222.76" xlink:href="#Sfumatura_senza_nome_599"/>
    <linearGradient id="Sfumatura_senza_nome_599-10" data-name="Sfumatura senza nome 599" y1="1606.12" y2="1606.12" xlink:href="#Sfumatura_senza_nome_599"/>
    <linearGradient id="Sfumatura_senza_nome_605-3" data-name="Sfumatura senza nome 605" y1="1443.39" y2="1443.39" xlink:href="#Sfumatura_senza_nome_605"/>
    <linearGradient id="Sfumatura_senza_nome_605-4" data-name="Sfumatura senza nome 605" x1="545.78" y1="1251.79" x2="1153.85" y2="1251.79" xlink:href="#Sfumatura_senza_nome_605"/>
    <linearGradient id="Sfumatura_senza_nome_599-11" data-name="Sfumatura senza nome 599" y1="614.93" y2="614.93" xlink:href="#Sfumatura_senza_nome_599"/>
    <linearGradient id="Sfumatura_senza_nome_599-12" data-name="Sfumatura senza nome 599" y1="614.93" y2="614.93" xlink:href="#Sfumatura_senza_nome_599"/>
    <linearGradient id="Sfumatura_senza_nome_599-13" data-name="Sfumatura senza nome 599" y1="622.43" y2="622.43" xlink:href="#Sfumatura_senza_nome_599"/>
    <linearGradient id="Sfumatura_senza_nome_599-14" data-name="Sfumatura senza nome 599" y1="815.9" y2="815.9" xlink:href="#Sfumatura_senza_nome_599"/>
    <linearGradient id="Sfumatura_senza_nome_599-15" data-name="Sfumatura senza nome 599" y1="993.19" y2="993.19" xlink:href="#Sfumatura_senza_nome_599"/>
    <linearGradient id="Sfumatura_senza_nome_599-16" data-name="Sfumatura senza nome 599" y1="1000.69" y2="1000.69" xlink:href="#Sfumatura_senza_nome_599"/>
    <linearGradient id="Sfumatura_senza_nome_599-17" data-name="Sfumatura senza nome 599" y1="1000.69" y2="1000.69" xlink:href="#Sfumatura_senza_nome_599"/>
    <linearGradient id="Sfumatura_senza_nome_599-18" data-name="Sfumatura senza nome 599" y1="614.93" y2="614.93" xlink:href="#Sfumatura_senza_nome_599"/>
    <linearGradient id="Sfumatura_senza_nome_605-5" data-name="Sfumatura senza nome 605" y1="776.39" y2="776.39" xlink:href="#Sfumatura_senza_nome_605"/>
    <linearGradient id="Sfumatura_senza_nome_605-6" data-name="Sfumatura senza nome 605" x1="545.78" y1="969.27" x2="1153.85" y2="969.27" xlink:href="#Sfumatura_senza_nome_605"/>
    <linearGradient id="Sfumatura_senza_nome_599-19" data-name="Sfumatura senza nome 599" x1="1515.44" y1="1562.63" x2="1515.44" y2="1260.13" xlink:href="#Sfumatura_senza_nome_599"/>
    <linearGradient id="Sfumatura_senza_nome_599-20" data-name="Sfumatura senza nome 599" x1="1515.44" y1="1562.63" x2="1515.44" y2="1260.13" xlink:href="#Sfumatura_senza_nome_599"/>
    <linearGradient id="Sfumatura_senza_nome_599-21" data-name="Sfumatura senza nome 599" x1="1515.44" y1="1562.63" x2="1515.44" y2="1260.13" xlink:href="#Sfumatura_senza_nome_599"/>
    <linearGradient id="Sfumatura_senza_nome_599-22" data-name="Sfumatura senza nome 599" x1="1515.44" y1="1562.63" x2="1515.44" y2="1260.13" xlink:href="#Sfumatura_senza_nome_599"/>
    <linearGradient id="Sfumatura_senza_nome_599-23" data-name="Sfumatura senza nome 599" x1="1515.44" y1="1562.63" x2="1515.44" y2="1260.13" xlink:href="#Sfumatura_senza_nome_599"/>
    <linearGradient id="Sfumatura_senza_nome_11" data-name="Sfumatura senza nome 11" x1="1373.96" y1="1640.51" x2="1649.58" y2="1640.51" gradientUnits="userSpaceOnUse">
      <stop offset="0" stop-color="#90e0ef"/>
      <stop offset="1" stop-color="#00b4d8"/>
    </linearGradient>
    <linearGradient id="Sfumatura_senza_nome_113" data-name="Sfumatura senza nome 113" x1="1463.2" y1="1619.74" x2="1497.78" y2="1619.74" gradientUnits="userSpaceOnUse">
      <stop offset="0" stop-color="#0077b6"/>
      <stop offset="1" stop-color="#03045e"/>
    </linearGradient>
    <linearGradient id="Sfumatura_senza_nome_113-2" data-name="Sfumatura senza nome 113" x1="1500.33" y1="1614.72" x2="1523.15" y2="1614.72" xlink:href="#Sfumatura_senza_nome_113"/>
    <linearGradient id="Sfumatura_senza_nome_113-3" data-name="Sfumatura senza nome 113" x1="1525.77" x2="1560.35" xlink:href="#Sfumatura_senza_nome_113"/>
    <linearGradient id="Sfumatura_senza_nome_113-4" data-name="Sfumatura senza nome 113" x1="1350.25" y1="654.9" x2="1368.48" y2="654.9" xlink:href="#Sfumatura_senza_nome_113"/>
    <linearGradient id="Sfumatura_senza_nome_113-5" data-name="Sfumatura senza nome 113" x1="1371.41" y1="659.62" x2="1389.69" y2="659.62" xlink:href="#Sfumatura_senza_nome_113"/>
    <linearGradient id="Sfumatura_senza_nome_113-6" data-name="Sfumatura senza nome 113" x1="1393.46" y1="655.05" x2="1412.74" y2="655.05" xlink:href="#Sfumatura_senza_nome_113"/>
    <linearGradient id="Sfumatura_senza_nome_113-7" data-name="Sfumatura senza nome 113" x1="1417.8" y1="659.62" x2="1436.08" y2="659.62" xlink:href="#Sfumatura_senza_nome_113"/>
    <linearGradient id="Sfumatura_senza_nome_113-8" data-name="Sfumatura senza nome 113" x1="1441.06" y1="659.47" x2="1452.6" y2="659.47" xlink:href="#Sfumatura_senza_nome_113"/>
    <linearGradient id="Sfumatura_senza_nome_113-9" data-name="Sfumatura senza nome 113" x1="1454.95" y1="659.62" x2="1471.64" y2="659.62" xlink:href="#Sfumatura_senza_nome_113"/>
    <linearGradient id="Sfumatura_senza_nome_113-10" data-name="Sfumatura senza nome 113" x1="1474.98" y1="656.6" x2="1488.62" y2="656.6" xlink:href="#Sfumatura_senza_nome_113"/>
    <linearGradient id="Sfumatura_senza_nome_113-11" data-name="Sfumatura senza nome 113" x1="1491.72" y1="655.05" x2="1495.82" y2="655.05" xlink:href="#Sfumatura_senza_nome_113"/>
    <linearGradient id="Sfumatura_senza_nome_113-12" data-name="Sfumatura senza nome 113" x1="1500.54" y1="659.62" x2="1519.91" y2="659.62" xlink:href="#Sfumatura_senza_nome_113"/>
    <linearGradient id="Sfumatura_senza_nome_113-13" data-name="Sfumatura senza nome 113" x1="1524.97" y1="659.47" x2="1542.54" y2="659.47" xlink:href="#Sfumatura_senza_nome_113"/>
    <linearGradient id="Sfumatura_senza_nome_113-14" data-name="Sfumatura senza nome 113" x1="1558.27" y1="659.62" x2="1574.46" y2="659.62" xlink:href="#Sfumatura_senza_nome_113"/>
    <linearGradient id="Sfumatura_senza_nome_113-15" data-name="Sfumatura senza nome 113" x1="1578.39" y1="659.62" x2="1596.67" y2="659.62" xlink:href="#Sfumatura_senza_nome_113"/>
    <linearGradient id="Sfumatura_senza_nome_113-16" data-name="Sfumatura senza nome 113" x1="1601.65" y1="659.47" x2="1613.19" y2="659.47" xlink:href="#Sfumatura_senza_nome_113"/>
    <linearGradient id="Sfumatura_senza_nome_113-17" data-name="Sfumatura senza nome 113" x1="1614.95" y1="659.75" x2="1635.66" y2="659.75" xlink:href="#Sfumatura_senza_nome_113"/>
    <linearGradient id="Sfumatura_senza_nome_113-18" data-name="Sfumatura senza nome 113" x1="1637.7" y1="659.62" x2="1655.98" y2="659.62" xlink:href="#Sfumatura_senza_nome_113"/>
    <linearGradient id="Sfumatura_senza_nome_113-19" data-name="Sfumatura senza nome 113" x1="1660.96" y1="659.47" x2="1672.51" y2="659.47" xlink:href="#Sfumatura_senza_nome_113"/>
    <linearGradient id="Sfumatura_senza_nome_113-20" data-name="Sfumatura senza nome 113" x1="1472.47" y1="1672.39" x2="1490" y2="1672.39" xlink:href="#Sfumatura_senza_nome_113"/>
    <linearGradient id="Sfumatura_senza_nome_113-21" data-name="Sfumatura senza nome 113" x1="1495.15" y1="1672.13" x2="1511.61" y2="1672.13" xlink:href="#Sfumatura_senza_nome_113"/>
    <linearGradient id="Sfumatura_senza_nome_113-22" data-name="Sfumatura senza nome 113" x1="1515.61" y1="1672.13" x2="1534.2" y2="1672.13" xlink:href="#Sfumatura_senza_nome_113"/>
    <linearGradient id="Sfumatura_senza_nome_113-23" data-name="Sfumatura senza nome 113" x1="1539.26" y1="1671.98" x2="1551.01" y2="1671.98" xlink:href="#Sfumatura_senza_nome_113"/>
    <linearGradient id="Sfumatura_senza_nome_11-2" data-name="Sfumatura senza nome 11" x1="952.74" y1="3132.65" x2="997.81" y2="3132.65" gradientTransform="translate(0 3848.82) scale(1 -1)" xlink:href="#Sfumatura_senza_nome_11"/>
    <linearGradient id="Sfumatura_senza_nome_113-24" data-name="Sfumatura senza nome 113" x1="905.21" y1="3082.65" x2="950.27" y2="3082.65" gradientTransform="translate(0 3848.82) scale(1 -1)" xlink:href="#Sfumatura_senza_nome_113"/>
    <linearGradient id="Sfumatura_senza_nome_11-3" data-name="Sfumatura senza nome 11" x1="953.37" y1="2460.81" x2="998.43" y2="2460.81" gradientTransform="translate(0 3848.82) scale(1 -1)" xlink:href="#Sfumatura_senza_nome_11"/>
    <linearGradient id="Sfumatura_senza_nome_113-25" data-name="Sfumatura senza nome 113" x1="905.83" y1="2410.81" x2="950.9" y2="2410.81" gradientTransform="translate(0 3848.82) scale(1 -1)" xlink:href="#Sfumatura_senza_nome_113"/>
    <linearGradient id="Sfumatura_senza_nome_11-4" data-name="Sfumatura senza nome 11" x1="951.51" y1="2787.35" x2="996.57" y2="2787.35" gradientTransform="translate(0 3848.82) scale(1 -1)" xlink:href="#Sfumatura_senza_nome_11"/>
    <linearGradient id="Sfumatura_senza_nome_113-26" data-name="Sfumatura senza nome 113" x1="903.98" y1="2737.35" x2="949.04" y2="2737.35" gradientTransform="translate(0 3848.82) scale(1 -1)" xlink:href="#Sfumatura_senza_nome_113"/>
    <linearGradient id="Sfumatura_senza_nome_113-27" data-name="Sfumatura senza nome 113" x1="1492.91" y1="2440.98" x2="1537.97" y2="2440.98" gradientTransform="translate(0 3848.82) scale(1 -1)" xlink:href="#Sfumatura_senza_nome_113"/>
    <linearGradient id="Sfumatura_senza_nome_113-28" data-name="Sfumatura senza nome 113" x1="265.41" y1="330.54" x2="281.96" y2="330.54" xlink:href="#Sfumatura_senza_nome_113"/>
    <linearGradient id="Sfumatura_senza_nome_113-29" data-name="Sfumatura senza nome 113" x1="361.3" y1="326.1" x2="388.53" y2="326.1" xlink:href="#Sfumatura_senza_nome_113"/>
    <linearGradient id="Sfumatura_senza_nome_113-30" data-name="Sfumatura senza nome 113" x1="331.46" y1="330.69" x2="348.69" y2="330.69" xlink:href="#Sfumatura_senza_nome_113"/>
    <linearGradient id="Sfumatura_senza_nome_113-31" data-name="Sfumatura senza nome 113" x1="286.65" y1="330.69" x2="304.9" y2="330.69" xlink:href="#Sfumatura_senza_nome_113"/>
    <linearGradient id="Sfumatura_senza_nome_113-32" data-name="Sfumatura senza nome 113" x1="308.53" y1="326.25" x2="326.7" y2="326.25" xlink:href="#Sfumatura_senza_nome_113"/>
    <linearGradient id="Sfumatura_senza_nome_113-33" data-name="Sfumatura senza nome 113" x1="269.1" y1="845.27" x2="285.66" y2="845.27" xlink:href="#Sfumatura_senza_nome_113"/>
    <linearGradient id="Sfumatura_senza_nome_113-34" data-name="Sfumatura senza nome 113" x1="290.35" y1="845.42" x2="308.6" y2="845.42" xlink:href="#Sfumatura_senza_nome_113"/>
    <linearGradient id="Sfumatura_senza_nome_113-35" data-name="Sfumatura senza nome 113" x1="312.22" y1="840.98" x2="330.39" y2="840.98" xlink:href="#Sfumatura_senza_nome_113"/>
    <linearGradient id="Sfumatura_senza_nome_113-36" data-name="Sfumatura senza nome 113" x1="335.16" y1="845.42" x2="352.38" y2="845.42" xlink:href="#Sfumatura_senza_nome_113"/>
    <linearGradient id="Sfumatura_senza_nome_113-37" data-name="Sfumatura senza nome 113" x1="367.71" y1="840.82" x2="388.53" y2="840.82" xlink:href="#Sfumatura_senza_nome_113"/>
    <linearGradient id="Sfumatura_senza_nome_113-38" data-name="Sfumatura senza nome 113" x1="267.53" y1="1360.34" x2="284.08" y2="1360.34" xlink:href="#Sfumatura_senza_nome_113"/>
    <linearGradient id="Sfumatura_senza_nome_113-39" data-name="Sfumatura senza nome 113" x1="288.77" y1="1360.49" x2="307.02" y2="1360.49" xlink:href="#Sfumatura_senza_nome_113"/>
    <linearGradient id="Sfumatura_senza_nome_113-40" data-name="Sfumatura senza nome 113" x1="310.65" y1="1356.05" x2="328.81" y2="1356.05" xlink:href="#Sfumatura_senza_nome_113"/>
    <linearGradient id="Sfumatura_senza_nome_113-41" data-name="Sfumatura senza nome 113" x1="333.58" y1="1360.49" x2="350.81" y2="1360.49" xlink:href="#Sfumatura_senza_nome_113"/>
    <linearGradient id="Sfumatura_senza_nome_113-42" data-name="Sfumatura senza nome 113" x1="365.11" y1="1355.9" x2="387.46" y2="1355.9" xlink:href="#Sfumatura_senza_nome_113"/>
    <linearGradient id="Sfumatura_senza_nome_113-43" data-name="Sfumatura senza nome 113" x1="270.44" y1="1448.52" x2="383.51" y2="1448.52" xlink:href="#Sfumatura_senza_nome_113"/>
    <linearGradient id="Sfumatura_senza_nome_11-5" data-name="Sfumatura senza nome 11" x1="194.78" y1="1584.63" x2="459.16" y2="1584.63" xlink:href="#Sfumatura_senza_nome_11"/>
    <filter id="drop-shadow-73" x="171.9" y="1424.68" width="319" height="328" filterUnits="userSpaceOnUse">
      <feOffset dx="4.18" dy="4.18"/>
      <feGaussianBlur result="blur" stdDeviation="8.95"/>
      <feFlood flood-color="#000" flood-opacity=".25"/>
      <feComposite in2="blur" operator="in"/>
      <feComposite in="SourceGraphic"/>
    </filter>
    <filter id="drop-shadow-74" x="263.9" y="1385.68" width="135" height="135" filterUnits="userSpaceOnUse">
      <feOffset dx="4.18" dy="4.18"/>
      <feGaussianBlur result="blur-2" stdDeviation="8.95"/>
      <feFlood flood-color="#000" flood-opacity=".25"/>
      <feComposite in2="blur-2" operator="in"/>
      <feComposite in="SourceGraphic"/>
    </filter>
    <linearGradient id="Sfumatura_senza_nome_113-44" data-name="Sfumatura senza nome 113" x1="271.07" y1="931.52" x2="384.14" y2="931.52" xlink:href="#Sfumatura_senza_nome_113"/>
    <linearGradient id="Sfumatura_senza_nome_11-6" data-name="Sfumatura senza nome 11" x1="195.41" y1="1067.63" x2="459.78" y2="1067.63" xlink:href="#Sfumatura_senza_nome_11"/>
    <filter id="drop-shadow-75" x="171.95" y="907.99" width="320" height="328" filterUnits="userSpaceOnUse">
      <feOffset dx="4.18" dy="4.18"/>
      <feGaussianBlur result="blur-3" stdDeviation="8.95"/>
      <feFlood flood-color="#000" flood-opacity=".25"/>
      <feComposite in2="blur-3" operator="in"/>
      <feComposite in="SourceGraphic"/>
    </filter>
    <filter id="drop-shadow-76" x="264.53" y="868.67" width="135" height="135" filterUnits="userSpaceOnUse">
      <feOffset dx="4.18" dy="4.18"/>
      <feGaussianBlur result="blur-4" stdDeviation="8.95"/>
      <feFlood flood-color="#000" flood-opacity=".25"/>
      <feComposite in2="blur-4" operator="in"/>
      <feComposite in="SourceGraphic"/>
    </filter>
    <linearGradient id="Sfumatura_senza_nome_113-45" data-name="Sfumatura senza nome 113" x1="269.72" y1="419.48" x2="382.79" y2="419.48" xlink:href="#Sfumatura_senza_nome_113"/>
    <linearGradient id="Sfumatura_senza_nome_11-7" data-name="Sfumatura senza nome 11" x1="194.06" y1="555.59" x2="458.43" y2="555.59" xlink:href="#Sfumatura_senza_nome_11"/>
    <filter id="drop-shadow-77" x="170.58" y="395.82" width="320" height="328" filterUnits="userSpaceOnUse">
      <feOffset dx="4.18" dy="4.18"/>
      <feGaussianBlur result="blur-5" stdDeviation="8.95"/>
      <feFlood flood-color="#000" flood-opacity=".25"/>
      <feComposite in2="blur-5" operator="in"/>
      <feComposite in="SourceGraphic"/>
    </filter>
    <filter id="drop-shadow-78" x="263.18" y="356.63" width="135" height="135" filterUnits="userSpaceOnUse">
      <feOffset dx="4.18" dy="4.18"/>
      <feGaussianBlur result="blur-6" stdDeviation="8.95"/>
      <feFlood flood-color="#000" flood-opacity=".25"/>
      <feComposite in2="blur-6" operator="in"/>
      <feComposite in="SourceGraphic"/>
    </filter>
    <linearGradient id="Sfumatura_senza_nome_11-8" data-name="Sfumatura senza nome 11" x1="1504.87" y1="918.62" x2="1515.44" y2="918.62" xlink:href="#Sfumatura_senza_nome_11"/>
    <linearGradient id="Sfumatura_senza_nome_11-9" data-name="Sfumatura senza nome 11" x1="-1129.77" y1="-4712.82" x2="-1119.2" y2="-4712.82" gradientTransform="translate(2634.64 5723.91)" xlink:href="#Sfumatura_senza_nome_11"/>
    <linearGradient id="Sfumatura_senza_nome_113-46" data-name="Sfumatura senza nome 113" x1="1500.59" y1="1011.09" x2="1519.72" y2="1011.09" xlink:href="#Sfumatura_senza_nome_113"/>
    <linearGradient id="Sfumatura_senza_nome_11-10" data-name="Sfumatura senza nome 11" x1="1388.56" y1="840.95" x2="1632.42" y2="840.95" xlink:href="#Sfumatura_senza_nome_11"/>
    <linearGradient id="Sfumatura_senza_nome_113-47" data-name="Sfumatura senza nome 113" x1="1408.71" y1="840.95" x2="1424.79" y2="840.95" xlink:href="#Sfumatura_senza_nome_113"/>
    <linearGradient id="Sfumatura_senza_nome_113-48" data-name="Sfumatura senza nome 113" x1="1442.26" y1="840.95" x2="1458.33" y2="840.95" xlink:href="#Sfumatura_senza_nome_113"/>
    <linearGradient id="Sfumatura_senza_nome_113-49" data-name="Sfumatura senza nome 113" x1="1475.8" y1="840.95" x2="1491.88" y2="840.95" xlink:href="#Sfumatura_senza_nome_113"/>
    <linearGradient id="Sfumatura_senza_nome_113-50" data-name="Sfumatura senza nome 113" x1="1534.06" y1="832.91" x2="1553.65" y2="832.91" xlink:href="#Sfumatura_senza_nome_113"/>
    <linearGradient id="Sfumatura_senza_nome_113-51" data-name="Sfumatura senza nome 113" x1="1534.06" y1="848.99" x2="1553.65" y2="848.99" xlink:href="#Sfumatura_senza_nome_113"/>
    <linearGradient id="Sfumatura_senza_nome_113-52" data-name="Sfumatura senza nome 113" x1="1561.4" y1="832.91" x2="1609.83" y2="832.91" xlink:href="#Sfumatura_senza_nome_113"/>
    <linearGradient id="Sfumatura_senza_nome_113-53" data-name="Sfumatura senza nome 113" x1="1561.4" y1="848.99" x2="1609.83" y2="848.99" xlink:href="#Sfumatura_senza_nome_113"/>
    <linearGradient id="Sfumatura_senza_nome_11-11" data-name="Sfumatura senza nome 11" x1="1388.23" y1="894.87" x2="1632.08" y2="894.87" xlink:href="#Sfumatura_senza_nome_11"/>
    <linearGradient id="Sfumatura_senza_nome_113-54" data-name="Sfumatura senza nome 113" x1="1408.38" y1="894.87" x2="1424.46" y2="894.87" xlink:href="#Sfumatura_senza_nome_113"/>
    <linearGradient id="Sfumatura_senza_nome_113-55" data-name="Sfumatura senza nome 113" x1="1441.92" y1="894.87" x2="1458" y2="894.87" xlink:href="#Sfumatura_senza_nome_113"/>
    <linearGradient id="Sfumatura_senza_nome_113-56" data-name="Sfumatura senza nome 113" x1="1475.47" y1="894.87" x2="1491.55" y2="894.87" xlink:href="#Sfumatura_senza_nome_113"/>
    <linearGradient id="Sfumatura_senza_nome_113-57" data-name="Sfumatura senza nome 113" x1="1533.73" y1="886.83" x2="1553.32" y2="886.83" xlink:href="#Sfumatura_senza_nome_113"/>
    <linearGradient id="Sfumatura_senza_nome_113-58" data-name="Sfumatura senza nome 113" x1="1533.73" y1="902.91" x2="1553.32" y2="902.91" xlink:href="#Sfumatura_senza_nome_113"/>
    <linearGradient id="Sfumatura_senza_nome_113-59" data-name="Sfumatura senza nome 113" x1="1561.07" y1="886.83" x2="1609.5" y2="886.83" xlink:href="#Sfumatura_senza_nome_113"/>
    <linearGradient id="Sfumatura_senza_nome_113-60" data-name="Sfumatura senza nome 113" x1="1561.07" y1="902.91" x2="1609.5" y2="902.91" xlink:href="#Sfumatura_senza_nome_113"/>
    <linearGradient id="Sfumatura_senza_nome_11-12" data-name="Sfumatura senza nome 11" x1="1388.56" y1="948.79" x2="1632.42" y2="948.79" xlink:href="#Sfumatura_senza_nome_11"/>
    <linearGradient id="Sfumatura_senza_nome_113-61" data-name="Sfumatura senza nome 113" x1="1408.71" y1="948.79" x2="1424.79" y2="948.79" xlink:href="#Sfumatura_senza_nome_113"/>
    <linearGradient id="Sfumatura_senza_nome_113-62" data-name="Sfumatura senza nome 113" x1="1442.26" y1="948.79" x2="1458.33" y2="948.79" xlink:href="#Sfumatura_senza_nome_113"/>
    <linearGradient id="Sfumatura_senza_nome_113-63" data-name="Sfumatura senza nome 113" x1="1475.8" y1="948.79" x2="1491.88" y2="948.79" xlink:href="#Sfumatura_senza_nome_113"/>
    <linearGradient id="Sfumatura_senza_nome_113-64" data-name="Sfumatura senza nome 113" x1="1534.06" y1="940.75" x2="1553.65" y2="940.75" xlink:href="#Sfumatura_senza_nome_113"/>
    <linearGradient id="Sfumatura_senza_nome_113-65" data-name="Sfumatura senza nome 113" x1="1534.06" y1="956.83" x2="1553.65" y2="956.83" xlink:href="#Sfumatura_senza_nome_113"/>
    <linearGradient id="Sfumatura_senza_nome_113-66" data-name="Sfumatura senza nome 113" x1="1561.4" y1="940.75" x2="1609.83" y2="940.75" xlink:href="#Sfumatura_senza_nome_113"/>
    <linearGradient id="Sfumatura_senza_nome_113-67" data-name="Sfumatura senza nome 113" x1="1561.4" y1="956.83" x2="1609.83" y2="956.83" xlink:href="#Sfumatura_senza_nome_113"/>
    <linearGradient id="Sfumatura_senza_nome_113-68" data-name="Sfumatura senza nome 113" x1="1418.05" y1="1183.52" x2="1602.6" y2="1183.52" xlink:href="#Sfumatura_senza_nome_113"/>
    <linearGradient id="Sfumatura_senza_nome_6" data-name="Sfumatura senza nome 6" x1="1297.62" y1="2872.72" x2="1725.13" y2="2872.72" gradientTransform="translate(0 3848.82) scale(1 -1)" gradientUnits="userSpaceOnUse">
      <stop offset="0" stop-color="#a1ddec"/>
      <stop offset="1" stop-color="#50b0d3"/>
    </linearGradient>
  </defs>
  <g>
    <line class="cls-6" x1="578.45" y1="1114.28" x2="593.45" y2="1114.28"/>
    <line class="cls-13" x1="622.02" y1="1114.28" x2="1122.06" y2="1114.28"/>
    <line class="cls-6" x1="1136.35" y1="1114.28" x2="1151.35" y2="1114.28"/>
    <path class="cls-100" d="M548.27,1114.28c14.2,5.27,31.82,14.26,42.74,23.78l-8.6-23.78,8.6-23.77c-10.92,9.52-28.54,18.51-42.74,23.77Z"/>
  </g>
  <g>
    <line class="cls-5" x1="548.27" y1="1084.31" x2="1121.17" y2="1084.31"/>
    <path class="cls-103" d="M1151.35,1084.31c-14.2,5.27-31.82,14.26-42.74,23.78l8.6-23.78-8.6-23.77c10.92,9.52,28.54,18.51,42.74,23.77Z"/>
  </g>
  <g>
    <line class="cls-9" x1="578.45" y1="1606.12" x2="593.45" y2="1606.12"/>
    <line class="cls-4" x1="622.64" y1="1606.12" x2="899.91" y2="1606.12"/>
    <polyline class="cls-11" points="914.5 1606.12 929.5 1606.12 929.5 1591.12"/>
    <line class="cls-16" x1="929.5" y1="1559" x2="929.5" y2="1253.82"/>
    <polyline class="cls-12" points="929.5 1237.76 929.5 1222.76 944.5 1222.76"/>
    <line class="cls-17" x1="971.91" y1="1222.76" x2="1122.65" y2="1222.76"/>
    <line class="cls-10" x1="1136.35" y1="1222.76" x2="1151.35" y2="1222.76"/>
    <path class="cls-97" d="M548.27,1606.12c14.2,5.27,31.82,14.26,42.74,23.78l-8.6-23.78,8.6-23.77c-10.92,9.52-28.54,18.51-42.74,23.77Z"/>
  </g>
  <g>
    <polyline class="cls-7" points="548.27 1635 969.5 1635 969.5 1251.79 1121.17 1251.79"/>
    <path class="cls-101" d="M1151.35,1251.79c-14.2,5.27-31.82,14.26-42.74,23.78l8.6-23.78-8.6-23.77c10.92,9.52,28.54,18.51,42.74,23.77Z"/>
  </g>
  <g>
    <line class="cls-20" x1="578.45" y1="614.93" x2="593.45" y2="614.93"/>
    <line class="cls-14" x1="622.64" y1="614.93" x2="899.91" y2="614.93"/>
    <polyline class="cls-21" points="914.5 614.93 929.5 614.93 929.5 629.93"/>
    <line class="cls-25" x1="929.5" y1="662.27" x2="929.5" y2="969.52"/>
    <polyline class="cls-22" points="929.5 985.69 929.5 1000.69 944.5 1000.69"/>
    <line class="cls-15" x1="971.91" y1="1000.69" x2="1122.65" y2="1000.69"/>
    <line class="cls-23" x1="1136.35" y1="1000.69" x2="1151.35" y2="1000.69"/>
    <path class="cls-96" d="M548.27,614.93c14.2,5.27,31.82,14.26,42.74,23.78l-8.6-23.78,8.6-23.77c-10.92,9.52-28.54,18.51-42.74,23.77Z"/>
  </g>
  <g>
    <polyline class="cls-8" points="548.27 583.52 969.5 583.52 969.5 969.27 1121.17 969.27"/>
    <path class="cls-102" d="M1151.35,969.27c-14.2,5.27-31.82,14.26-42.74,23.78l8.6-23.78-8.6-23.77c10.92,9.52,28.54,18.51,42.74,23.77Z"/>
  </g>
  <g>
    <line class="cls-19" x1="1515.44" y1="1524" x2="1515.44" y2="1506.26"/>
    <line class="cls-24" x1="1515.44" y1="1468.31" x2="1515.44" y2="1335.48"/>
    <line class="cls-18" x1="1515.44" y1="1316.5" x2="1515.44" y2="1298.76"/>
    <path class="cls-99" d="M1515.44,1559.68c6.23-16.79,16.86-37.62,28.12-50.53l-28.12,10.17-28.11-10.17c11.26,12.91,21.89,33.74,28.11,50.53Z"/>
    <path class="cls-98" d="M1515.44,1263.08c6.23,16.79,16.86,37.62,28.12,50.53l-28.12-10.17-28.11,10.17c11.26-12.91,21.89-33.74,28.11-50.53Z"/>
  </g>
  <path class="cls-26" d="M1642.96,1695.81h-10.37c-3.66,0-6.63-2.97-6.63-6.63v-122.88c0-3.66-2.97-6.63-6.63-6.63h-215.12c-3.66,0-6.63,2.97-6.63,6.63v122.88c0,3.66-2.97,6.63-6.63,6.63h-10.37c-3.66,0-6.63,2.97-6.63,6.63v12.28c0,3.66,2.97,6.63,6.63,6.63h262.36c3.66,0,6.63-2.97,6.63-6.63v-12.28c0-3.66-2.97-6.63-6.63-6.63ZM1614.99,1692.41c0,1.92-1.56,3.48-3.48,3.48h-199.48c-1.92,0-3.48-1.56-3.48-3.48v-117.92c0-1.92,1.56-3.48,3.48-3.48h199.48c1.92,0,3.48,1.56,3.48,3.48v117.92Z"/>
  <g>
    <path class="cls-116" d="M1497.78,1604.36l-29.12,15.39,29.12,15.3v5.77l-34.58-18.48v-5.35l34.58-18.31v5.69Z"/>
    <path class="cls-109" d="M1500.33,1647.08l18.07-66.56,4.75,1.84-18.07,66.56-4.75-1.84Z"/>
    <path class="cls-108" d="M1560.35,1616.98v5.35l-34.58,18.48v-5.77l29.12-15.3-29.12-15.39v-5.69l34.58,18.31Z"/>
  </g>
  <g>
    <path class="cls-107" d="M1350.25,639.26h18.24v3.06h-14.85v10.78h14.01v3.06h-14.01v14.37h-3.39v-31.27Z"/>
    <path class="cls-110" d="M1389.69,660.29h-14.89c.11,2.51.75,4.41,1.92,5.7,1.17,1.29,2.83,1.93,4.98,1.93,2.37,0,4.54-.86,6.53-2.57l1.13,2.62c-.89.89-2.04,1.59-3.43,2.11-1.39.52-2.82.78-4.27.78-3.18,0-5.68-.99-7.51-2.97-1.83-1.98-2.74-4.72-2.74-8.21,0-2.22.4-4.18,1.21-5.88.81-1.7,1.94-3.02,3.41-3.97,1.46-.95,3.13-1.42,5-1.42,2.71,0,4.83.94,6.36,2.82,1.53,1.88,2.3,4.46,2.3,7.74v1.33ZM1376.79,652.97c-1.07,1.18-1.71,2.85-1.9,5.01h11.84c-.06-2.19-.57-3.87-1.55-5.03-.98-1.17-2.34-1.75-4.1-1.75s-3.21.59-4.29,1.77Z"/>
    <path class="cls-111" d="M1412.74,639.26v31.27h-3.39v-3.95c-.61,1.36-1.51,2.41-2.7,3.15-1.19.74-2.57,1.11-4.16,1.11-1.79,0-3.36-.47-4.73-1.42-1.37-.95-2.43-2.27-3.18-3.97-.75-1.7-1.13-3.67-1.13-5.92s.38-4.17,1.13-5.86c.75-1.69,1.81-2.99,3.18-3.9,1.37-.92,2.94-1.38,4.73-1.38,1.59,0,2.98.37,4.16,1.11,1.18.74,2.08,1.79,2.7,3.15v-13.4h3.39ZM1407.74,665.72c1.07-1.43,1.61-3.47,1.61-6.1s-.54-4.66-1.61-6.08c-1.07-1.42-2.6-2.13-4.58-2.13s-3.52.71-4.62,2.13c-1.1,1.42-1.65,3.42-1.65,5.99s.55,4.68,1.65,6.14c1.1,1.46,2.64,2.2,4.62,2.2s3.51-.72,4.58-2.15Z"/>
    <path class="cls-113" d="M1436.08,660.29h-14.89c.11,2.51.75,4.41,1.92,5.7,1.17,1.29,2.83,1.93,4.98,1.93,2.37,0,4.54-.86,6.53-2.57l1.13,2.62c-.89.89-2.04,1.59-3.43,2.11-1.39.52-2.82.78-4.27.78-3.18,0-5.68-.99-7.51-2.97-1.83-1.98-2.74-4.72-2.74-8.21,0-2.22.4-4.18,1.21-5.88.81-1.7,1.94-3.02,3.41-3.97,1.46-.95,3.13-1.42,5-1.42,2.71,0,4.83.94,6.36,2.82,1.53,1.88,2.3,4.46,2.3,7.74v1.33ZM1423.18,652.97c-1.07,1.18-1.71,2.85-1.9,5.01h11.84c-.06-2.19-.57-3.87-1.55-5.03-.98-1.17-2.34-1.75-4.1-1.75s-3.21.59-4.29,1.77Z"/>
    <path class="cls-112" d="M1452.6,651.5l-2.22.22c-2.09.21-3.6.9-4.54,2.08-.93,1.18-1.4,2.65-1.4,4.39v12.33h-3.39v-21.6h3.3v3.77c1.14-2.51,3.39-3.92,6.73-4.21l1.21-.09.29,3.1Z"/>
    <path class="cls-114" d="M1469.73,650.5c1.27,1.41,1.9,3.54,1.9,6.41v13.62h-3.3v-3.68c-.53,1.27-1.34,2.26-2.43,2.95-1.09.7-2.34,1.04-3.76,1.04-1.31,0-2.52-.28-3.62-.84-1.1-.56-1.97-1.35-2.61-2.35-.64-1-.96-2.11-.96-3.33,0-1.63.39-2.89,1.17-3.79.78-.9,2.06-1.55,3.85-1.95,1.78-.4,4.27-.6,7.45-.6h.92v-1.46c0-1.8-.35-3.11-1.05-3.93-.7-.81-1.83-1.22-3.39-1.22-2.34,0-4.67.77-6.99,2.31l-1.13-2.62c1.06-.8,2.34-1.44,3.83-1.93,1.49-.49,2.93-.73,4.33-.73,2.59,0,4.52.7,5.79,2.11ZM1466.72,666.21c1.07-1.2,1.61-2.74,1.61-4.64v-1.29h-.75c-2.46,0-4.32.11-5.61.33-1.28.22-2.2.59-2.74,1.11-.54.52-.82,1.28-.82,2.28,0,1.15.4,2.11,1.19,2.86.79.75,1.79,1.13,2.99,1.13,1.67,0,3.05-.6,4.12-1.8Z"/>
    <path class="cls-43" d="M1488.62,667.83l-.17,2.84c-.64.12-1.34.18-2.09.18-2.45,0-4.3-.68-5.54-2.04-1.24-1.36-1.86-3.25-1.86-5.68v-11.36h-3.97v-2.84h3.97v-6.57h3.39v6.57h5.77v2.84h-5.77v11.09c0,3.4,1.48,5.1,4.43,5.1.61,0,1.23-.04,1.84-.13Z"/>
    <path class="cls-41" d="M1495.82,639.57v4.04h-4.1v-4.04h4.1ZM1492.05,648.93h3.39v21.6h-3.39v-21.6Z"/>
    <path class="cls-42" d="M1505.12,669.47c-1.46-.92-2.59-2.23-3.39-3.93-.79-1.7-1.19-3.67-1.19-5.92s.4-4.22,1.19-5.92c.79-1.7,1.92-3.01,3.39-3.93,1.46-.92,3.16-1.38,5.08-1.38s3.62.46,5.1,1.38c1.48.92,2.61,2.23,3.41,3.93.79,1.7,1.19,3.68,1.19,5.92s-.4,4.22-1.19,5.92c-.79,1.7-1.93,3.01-3.41,3.93-1.48.92-3.18,1.38-5.1,1.38s-3.62-.46-5.08-1.38ZM1514.83,665.76c1.07-1.4,1.61-3.45,1.61-6.14s-.54-4.66-1.63-6.1c-1.09-1.43-2.62-2.15-4.6-2.15s-3.51.72-4.6,2.15c-1.09,1.43-1.63,3.47-1.63,6.1s.54,4.7,1.61,6.12c1.07,1.42,2.61,2.13,4.62,2.13s3.55-.7,4.62-2.11Z"/>
    <path class="cls-38" d="M1542.54,656.96v13.57h-3.39v-13.35c0-2.01-.37-3.47-1.11-4.39-.74-.92-1.92-1.38-3.54-1.38-1.87,0-3.36.61-4.48,1.82-1.12,1.21-1.67,2.85-1.67,4.92v12.38h-3.39v-21.6h3.35v3.55c.67-1.33,1.6-2.34,2.8-3.04,1.2-.69,2.57-1.04,4.1-1.04,4.88,0,7.32,2.85,7.32,8.56Z"/>
    <path class="cls-46" d="M1558.27,668.05l1.13-2.66c1.09.92,2.2,1.57,3.33,1.97,1.13.4,2.41.6,3.83.6,1.51,0,2.66-.27,3.45-.82.79-.55,1.19-1.34,1.19-2.37,0-.86-.27-1.54-.79-2.04-.53-.5-1.41-.9-2.64-1.2l-3.43-.84c-1.73-.41-3.05-1.12-3.97-2.13-.92-1.01-1.38-2.25-1.38-3.73,0-1.92.71-3.47,2.13-4.66,1.42-1.18,3.32-1.77,5.69-1.77,1.42,0,2.77.24,4.06.73,1.28.49,2.36,1.19,3.22,2.11l-1.13,2.62c-1.87-1.69-3.92-2.53-6.15-2.53-1.42,0-2.53.29-3.33.86-.79.58-1.19,1.38-1.19,2.42,0,.86.24,1.55.73,2.06.49.52,1.28.91,2.36,1.18l3.47.89c1.9.47,3.3,1.19,4.22,2.15.92.96,1.38,2.21,1.38,3.75,0,1.89-.72,3.4-2.15,4.52-1.44,1.12-3.4,1.69-5.88,1.69-3.43,0-6.15-.93-8.16-2.79Z"/>
    <path class="cls-44" d="M1596.67,660.29h-14.89c.11,2.51.75,4.41,1.92,5.7,1.17,1.29,2.83,1.93,4.98,1.93,2.37,0,4.54-.86,6.53-2.57l1.13,2.62c-.89.89-2.04,1.59-3.43,2.11-1.39.52-2.82.78-4.27.78-3.18,0-5.68-.99-7.51-2.97-1.83-1.98-2.74-4.72-2.74-8.21,0-2.22.4-4.18,1.21-5.88.81-1.7,1.94-3.02,3.41-3.97,1.46-.95,3.13-1.42,5-1.42,2.71,0,4.83.94,6.36,2.82,1.53,1.88,2.3,4.46,2.3,7.74v1.33ZM1583.76,652.97c-1.07,1.18-1.71,2.85-1.9,5.01h11.84c-.06-2.19-.57-3.87-1.55-5.03-.98-1.17-2.34-1.75-4.1-1.75s-3.21.59-4.29,1.77Z"/>
    <path class="cls-45" d="M1613.19,651.5l-2.22.22c-2.09.21-3.6.9-4.54,2.08-.93,1.18-1.4,2.65-1.4,4.39v12.33h-3.39v-21.6h3.3v3.77c1.14-2.51,3.39-3.92,6.73-4.21l1.21-.09.29,3.1Z"/>
    <path class="cls-47" d="M1635.66,648.97l-8.79,21.56h-3.18l-8.74-21.56h3.6l6.82,17.65,6.9-17.65h3.39Z"/>
    <path class="cls-39" d="M1655.98,660.29h-14.89c.11,2.51.75,4.41,1.92,5.7,1.17,1.29,2.83,1.93,4.98,1.93,2.37,0,4.54-.86,6.53-2.57l1.13,2.62c-.89.89-2.04,1.59-3.43,2.11-1.39.52-2.82.78-4.27.78-3.18,0-5.68-.99-7.51-2.97-1.83-1.98-2.74-4.72-2.74-8.21,0-2.22.4-4.18,1.21-5.88.81-1.7,1.94-3.02,3.41-3.97,1.46-.95,3.13-1.42,5-1.42,2.71,0,4.83.94,6.36,2.82,1.53,1.88,2.3,4.46,2.3,7.74v1.33ZM1643.08,652.97c-1.07,1.18-1.71,2.85-1.9,5.01h11.84c-.06-2.19-.57-3.87-1.55-5.03-.98-1.17-2.34-1.75-4.1-1.75s-3.21.59-4.29,1.77Z"/>
    <path class="cls-40" d="M1672.51,651.5l-2.22.22c-2.09.21-3.6.9-4.54,2.08-.93,1.18-1.4,2.65-1.4,4.39v12.33h-3.39v-21.6h3.3v3.77c1.14-2.51,3.39-3.92,6.73-4.21l1.21-.09.29,3.1Z"/>
  </g>
  <g>
    <path class="cls-60" d="M1490,1661.76v20.95h-3.36v-3.57c-.65,1.26-1.57,2.22-2.74,2.88-1.18.66-2.5.99-3.98.99-2.47,0-4.33-.69-5.57-2.09-1.25-1.39-1.87-3.45-1.87-6.17v-12.99h3.45v12.91c0,1.86.37,3.23,1.11,4.11.74.88,1.9,1.31,3.49,1.31,1.81,0,3.28-.59,4.38-1.79,1.11-1.19,1.66-2.76,1.66-4.71v-11.83h3.45Z"/>
    <path class="cls-54" d="M1495.15,1680.3l1.15-2.58c1.11.89,2.23,1.53,3.38,1.91s2.45.58,3.89.58c1.53,0,2.7-.26,3.51-.8.81-.53,1.21-1.3,1.21-2.3,0-.83-.27-1.49-.81-1.98-.54-.49-1.43-.87-2.68-1.16l-3.49-.82c-1.76-.4-3.11-1.09-4.04-2.06-.94-.97-1.4-2.18-1.4-3.61,0-1.86.72-3.37,2.17-4.52,1.45-1.15,3.38-1.72,5.79-1.72,1.45,0,2.82.24,4.13.71,1.3.47,2.4,1.16,3.28,2.04l-1.15,2.54c-1.9-1.63-3.99-2.45-6.25-2.45-1.45,0-2.57.28-3.38.84-.81.56-1.21,1.34-1.21,2.34,0,.83.25,1.5.74,2,.5.5,1.3.88,2.4,1.14l3.53.86c1.93.46,3.36,1.15,4.3,2.09.94.93,1.4,2.14,1.4,3.64,0,1.84-.73,3.3-2.19,4.39-1.46,1.09-3.45,1.63-5.98,1.63-3.49,0-6.25-.9-8.3-2.71Z"/>
    <path class="cls-51" d="M1534.2,1672.77h-15.15c.11,2.44.77,4.28,1.96,5.53s2.88,1.87,5.06,1.87c2.41,0,4.62-.83,6.64-2.5l1.15,2.54c-.91.86-2.07,1.54-3.49,2.04-1.42.5-2.87.75-4.34.75-3.23,0-5.78-.96-7.64-2.88-1.86-1.92-2.79-4.57-2.79-7.96,0-2.15.41-4.05,1.23-5.7.82-1.65,1.98-2.93,3.47-3.85,1.49-.92,3.18-1.38,5.08-1.38,2.75,0,4.91.91,6.47,2.73,1.56,1.82,2.34,4.32,2.34,7.51v1.29ZM1521.08,1665.68c-1.09,1.15-1.74,2.77-1.94,4.86h12.04c-.06-2.12-.58-3.75-1.57-4.88-.99-1.13-2.38-1.7-4.17-1.7s-3.27.57-4.36,1.72Z"/>
    <path class="cls-49" d="M1551.01,1664.26l-2.25.22c-2.13.2-3.67.88-4.62,2.02-.95,1.15-1.43,2.57-1.43,4.26v11.96h-3.45v-20.95h3.36v3.66c1.16-2.44,3.45-3.8,6.85-4.09l1.23-.09.3,3.01Z"/>
  </g>
  <path class="cls-35" d="M992.66,706.95c.05-2.75.09-6.65-.07-8.39-.79-8.28-8.55-14.19-16.64-14.49-8.57-.32-17.14,5.71-17.98,14.49-.17,1.74-.13,5.64-.07,8.39h-2.9c-1.24,0-2.25,1-2.25,2.25v36.86c0,1.24,1,2.25,2.25,2.25h40.57c1.24,0,2.25-1,2.25-2.25v-36.86c0-1.24-1-2.25-2.25-2.25h-2.9ZM978.18,734.13h-5.82l1.49-5.93c-1.07-.53-1.8-1.64-1.76-2.93.04-1.63,1.35-2.99,2.97-3.09,1.85-.12,3.39,1.35,3.39,3.18,0,1.25-.72,2.32-1.77,2.85l1.49,5.93h0ZM987.12,706.8h-23.53c-.89,0-1.61-.72-1.62-1.61-.02-1.89-.01-3.89.09-4.97.66-7.19,6.5-12.32,13.23-12.44,6.36-.11,12.77,5.65,13.38,12.44.1,1.08.1,3.08.08,4.97,0,.89-.73,1.61-1.62,1.61h0Z"/>
  <path class="cls-53" d="M945.12,756.95c.05-2.75.09-6.65-.07-8.39-.79-8.28-8.55-14.19-16.64-14.49-8.57-.32-17.14,5.71-17.98,14.49-.17,1.74-.13,5.64-.07,8.39h-2.9c-1.24,0-2.25,1-2.25,2.25v36.86c0,1.24,1,2.25,2.25,2.25h40.57c1.24,0,2.25-1,2.25-2.25v-36.86c0-1.24-1-2.25-2.25-2.25h-2.9ZM930.65,784.13h-5.82l1.49-5.93c-1.07-.53-1.8-1.64-1.76-2.93.04-1.63,1.35-2.99,2.97-3.09,1.85-.12,3.39,1.35,3.39,3.18,0,1.25-.72,2.32-1.77,2.85l1.49,5.93h0ZM939.58,756.8h-23.53c-.89,0-1.61-.72-1.62-1.61-.02-1.89-.01-3.89.09-4.97.66-7.19,6.5-12.32,13.23-12.44,6.36-.11,12.77,5.65,13.38,12.44.1,1.08.1,3.08.08,4.97,0,.89-.73,1.61-1.62,1.61h0Z"/>
  <path class="cls-34" d="M993.28,1378.79c.05-2.75.09-6.65-.07-8.39-.79-8.28-8.55-14.19-16.64-14.49-8.57-.32-17.14,5.71-17.98,14.49-.17,1.74-.13,5.64-.07,8.39h-2.9c-1.24,0-2.25,1-2.25,2.25v36.86c0,1.24,1,2.25,2.25,2.25h40.57c1.24,0,2.25-1,2.25-2.25v-36.86c0-1.24-1-2.25-2.25-2.25h-2.9ZM978.81,1405.97h-5.82l1.49-5.93c-1.07-.53-1.8-1.64-1.76-2.93.04-1.63,1.35-2.99,2.97-3.09,1.85-.12,3.39,1.35,3.39,3.18,0,1.25-.72,2.32-1.77,2.85l1.49,5.93h0ZM987.74,1378.64h-23.53c-.89,0-1.61-.72-1.62-1.61-.02-1.89-.01-3.89.09-4.97.66-7.19,6.5-12.32,13.23-12.44,6.36-.11,12.77,5.65,13.38,12.44.1,1.08.1,3.08.08,4.97,0,.89-.73,1.61-1.62,1.61h0Z"/>
  <path class="cls-50" d="M945.75,1428.79c.05-2.75.09-6.65-.07-8.39-.79-8.28-8.55-14.19-16.64-14.49-8.57-.32-17.14,5.71-17.98,14.49-.17,1.74-.13,5.64-.07,8.39h-2.9c-1.24,0-2.25,1-2.25,2.25v36.86c0,1.24,1,2.25,2.25,2.25h40.57c1.24,0,2.25-1,2.25-2.25v-36.86c0-1.24-1-2.25-2.25-2.25h-2.9ZM931.27,1455.97h-5.82l1.49-5.93c-1.07-.53-1.8-1.64-1.76-2.93.04-1.63,1.35-2.99,2.97-3.09,1.85-.12,3.39,1.35,3.39,3.18,0,1.25-.72,2.32-1.77,2.85l1.49,5.93h0ZM940.21,1428.64h-23.53c-.89,0-1.61-.72-1.62-1.61-.02-1.89-.01-3.89.09-4.97.66-7.19,6.5-12.32,13.23-12.44,6.36-.11,12.77,5.65,13.38,12.44.1,1.08.1,3.08.08,4.97,0,.89-.73,1.61-1.62,1.61h0Z"/>
  <path class="cls-33" d="M991.42,1052.25c.05-2.75.09-6.65-.07-8.39-.79-8.28-8.55-14.19-16.64-14.49-8.57-.32-17.14,5.71-17.98,14.49-.17,1.74-.13,5.64-.07,8.39h-2.9c-1.24,0-2.25,1-2.25,2.25v36.86c0,1.24,1,2.25,2.25,2.25h40.57c1.24,0,2.25-1,2.25-2.25v-36.86c0-1.24-1-2.25-2.25-2.25h-2.9ZM976.95,1079.43h-5.82l1.49-5.93c-1.07-.53-1.8-1.64-1.76-2.93.04-1.63,1.35-2.99,2.97-3.09,1.85-.12,3.39,1.35,3.39,3.18,0,1.25-.72,2.32-1.77,2.85l1.49,5.93h0ZM985.88,1052.1h-23.53c-.89,0-1.61-.72-1.62-1.61-.02-1.89-.01-3.89.09-4.97.66-7.19,6.5-12.32,13.23-12.44,6.36-.11,12.77,5.65,13.38,12.44.1,1.08.1,3.08.08,4.97,0,.89-.73,1.61-1.62,1.61h0Z"/>
  <path class="cls-52" d="M943.89,1102.25c.05-2.75.09-6.65-.07-8.39-.79-8.28-8.55-14.19-16.64-14.49-8.57-.32-17.14,5.71-17.98,14.49-.17,1.74-.13,5.64-.07,8.39h-2.9c-1.24,0-2.25,1-2.25,2.25v36.86c0,1.24,1,2.25,2.25,2.25h40.57c1.24,0,2.25-1,2.25-2.25v-36.86c0-1.24-1-2.25-2.25-2.25h-2.9ZM929.42,1129.43h-5.82l1.49-5.93c-1.07-.53-1.8-1.64-1.76-2.93.04-1.63,1.35-2.99,2.97-3.09,1.85-.12,3.39,1.35,3.39,3.18,0,1.25-.72,2.32-1.77,2.85l1.49,5.93h0ZM938.35,1102.1h-23.53c-.89,0-1.61-.72-1.62-1.61-.02-1.89-.01-3.89.09-4.97.66-7.19,6.5-12.32,13.23-12.44,6.36-.11,12.77,5.65,13.38,12.44.1,1.08.1,3.08.08,4.97,0,.89-.73,1.61-1.62,1.61h0Z"/>
  <path class="cls-56" d="M1532.82,1398.61c.05-2.75.09-6.65-.07-8.39-.79-8.28-8.55-14.19-16.64-14.49-8.57-.32-17.14,5.71-17.98,14.49-.17,1.74-.13,5.64-.07,8.39h-2.9c-1.24,0-2.25,1-2.25,2.25v36.86c0,1.24,1,2.25,2.25,2.25h40.57c1.24,0,2.25-1,2.25-2.25v-36.86c0-1.24-1-2.25-2.25-2.25h-2.9ZM1518.35,1425.79h-5.82l1.49-5.93c-1.07-.53-1.8-1.64-1.76-2.93.04-1.63,1.35-2.99,2.97-3.09,1.85-.12,3.39,1.35,3.39,3.18,0,1.25-.72,2.32-1.77,2.85l1.49,5.93h0ZM1527.28,1398.47h-23.53c-.89,0-1.61-.72-1.62-1.61-.02-1.89-.01-3.89.09-4.97.66-7.19,6.5-12.32,13.23-12.44,6.36-.11,12.77,5.65,13.38,12.44.1,1.08.1,3.08.08,4.97,0,.89-.73,1.61-1.62,1.61h0Z"/>
  <g>
    <path class="cls-55" d="M281.96,328.1v13.2h-3.19v-12.98c0-1.96-.35-3.38-1.04-4.27-.7-.9-1.81-1.34-3.33-1.34-1.77,0-3.17.59-4.22,1.77-1.05,1.18-1.58,2.77-1.58,4.78v12.04h-3.19v-21.01h3.15v3.45c.63-1.29,1.51-2.27,2.64-2.95,1.13-.68,2.42-1.01,3.87-1.01,4.59,0,6.89,2.77,6.89,8.32Z"/>
    <path class="cls-48" d="M376.32,310.89h-2.8l-12.22,30.41h3.31l3.08-7.81h14.5l3.07,7.81h3.27l-12.21-30.41ZM368.83,330.56l6.11-15.57,6.11,15.57h-12.22Z"/>
    <path class="cls-37" d="M340.53,319.78c-1.76,0-3.33.46-4.71,1.38-1.38.92-2.45,2.2-3.21,3.86-.77,1.65-1.15,3.55-1.15,5.71,0,3.39.86,6.05,2.59,7.98,1.72,1.93,4.07,2.89,7.07,2.89,1.37,0,2.71-.25,4.02-.76,1.31-.5,2.39-1.18,3.23-2.04l-1.06-2.55c-1.87,1.67-3.92,2.5-6.15,2.5-2.02,0-3.59-.62-4.69-1.87-1.1-1.25-1.71-3.1-1.81-5.55h14.03v-1.29c0-3.19-.73-5.7-2.17-7.53-1.45-1.82-3.44-2.73-5.99-2.73ZM334.73,329.09c.19-2.1.79-3.72,1.8-4.87,1.01-1.15,2.36-1.73,4.04-1.73s2.94.57,3.86,1.71c.92,1.13,1.41,2.76,1.46,4.89h-11.16Z"/>
    <path class="cls-63" d="M300.57,321.11c-1.4-.89-3-1.33-4.81-1.33s-3.41.44-4.79,1.33c-1.38.89-2.45,2.17-3.19,3.82-.75,1.65-1.13,3.57-1.13,5.76s.38,4.1,1.13,5.76c.74,1.65,1.81,2.92,3.19,3.81,1.38.89,2.97,1.34,4.79,1.34s3.41-.45,4.81-1.34c1.39-.89,2.46-2.16,3.21-3.81.75-1.66,1.12-3.58,1.12-5.76s-.37-4.11-1.12-5.76-1.82-2.93-3.21-3.82ZM300.11,336.66c-1.01,1.37-2.46,2.05-4.35,2.05s-3.35-.69-4.36-2.07c-1.01-1.38-1.52-3.36-1.52-5.95s.52-4.54,1.54-5.93c1.03-1.4,2.47-2.09,4.34-2.09s3.31.69,4.33,2.09c1.03,1.39,1.54,3.37,1.54,5.93s-.51,4.61-1.52,5.97Z"/>
    <path class="cls-64" d="M323.5,323.92c-.57-1.33-1.42-2.35-2.54-3.07-1.12-.71-2.42-1.07-3.92-1.07-1.68,0-3.17.44-4.45,1.33-1.29.89-2.29,2.16-3,3.8s-1.06,3.53-1.06,5.69.35,4.11,1.06,5.76c.71,1.65,1.71,2.94,3,3.86,1.28.92,2.77,1.38,4.45,1.38,1.5,0,2.8-.36,3.92-1.08,1.12-.72,1.97-1.74,2.54-3.06v3.84h3.2v-30.41h-3.2v13.03ZM321.99,336.62c-1.02,1.39-2.45,2.09-4.32,2.09s-3.32-.71-4.35-2.14c-1.04-1.42-1.56-3.41-1.56-5.97s.52-4.44,1.56-5.82c1.03-1.38,2.48-2.07,4.35-2.07s3.3.69,4.32,2.07c1.01,1.38,1.51,3.35,1.51,5.91s-.5,4.53-1.51,5.93Z"/>
  </g>
  <g>
    <path class="cls-61" d="M285.66,842.83v13.2h-3.19v-12.98c0-1.95-.35-3.38-1.04-4.27-.7-.89-1.81-1.34-3.33-1.34-1.76,0-3.17.59-4.22,1.77-1.05,1.18-1.58,2.78-1.58,4.79v12.03h-3.19v-21h3.15v3.45c.63-1.29,1.51-2.28,2.64-2.95,1.13-.68,2.42-1.01,3.86-1.01,4.6,0,6.9,2.78,6.9,8.32Z"/>
    <path class="cls-62" d="M294.66,854.99c-1.38-.89-2.44-2.16-3.19-3.82-.75-1.65-1.12-3.57-1.12-5.76s.37-4.1,1.12-5.76c.75-1.65,1.81-2.93,3.19-3.82,1.38-.89,2.98-1.34,4.79-1.34s3.42.45,4.81,1.34c1.39.89,2.46,2.16,3.21,3.82.75,1.65,1.12,3.57,1.12,5.76s-.38,4.1-1.12,5.76c-.75,1.65-1.82,2.93-3.21,3.82-1.39.89-3,1.34-4.81,1.34s-3.41-.45-4.79-1.34ZM303.81,851.39c1.01-1.37,1.52-3.36,1.52-5.97s-.51-4.54-1.54-5.93c-1.02-1.39-2.47-2.09-4.33-2.09s-3.31.7-4.34,2.09c-1.02,1.4-1.54,3.37-1.54,5.93s.51,4.57,1.52,5.95c1.01,1.38,2.46,2.07,4.36,2.07s3.34-.68,4.35-2.05Z"/>
    <path class="cls-58" d="M330.39,825.62v30.41h-3.19v-3.84c-.58,1.32-1.43,2.34-2.54,3.06-1.12.72-2.42,1.08-3.92,1.08-1.68,0-3.17-.46-4.45-1.38-1.29-.92-2.29-2.21-3-3.86-.71-1.65-1.06-3.57-1.06-5.76s.35-4.05,1.06-5.69c.71-1.64,1.71-2.9,3-3.8,1.29-.89,2.77-1.34,4.45-1.34,1.5,0,2.8.36,3.92,1.08,1.12.72,1.96,1.74,2.54,3.06v-13.03h3.19ZM325.68,851.35c1.01-1.39,1.52-3.37,1.52-5.93s-.51-4.53-1.52-5.91-2.45-2.07-4.32-2.07-3.32.69-4.36,2.07-1.56,3.32-1.56,5.82.52,4.55,1.56,5.97c1.04,1.42,2.49,2.13,4.36,2.13s3.3-.7,4.32-2.09Z"/>
    <path class="cls-59" d="M352.38,846.07h-14.03c.1,2.44.71,4.29,1.81,5.54,1.1,1.25,2.67,1.88,4.69,1.88,2.23,0,4.28-.83,6.15-2.5l1.06,2.54c-.84.86-1.92,1.55-3.23,2.05-1.31.5-2.65.75-4.02.75-3,0-5.35-.96-7.08-2.89-1.72-1.93-2.58-4.59-2.58-7.98,0-2.16.38-4.06,1.14-5.71.76-1.65,1.83-2.94,3.21-3.86,1.38-.92,2.95-1.38,4.71-1.38,2.55,0,4.55.91,5.99,2.74,1.44,1.83,2.17,4.33,2.17,7.53v1.29ZM340.22,838.95c-1.01,1.15-1.61,2.78-1.79,4.87h11.15c-.05-2.13-.54-3.76-1.46-4.9-.92-1.14-2.21-1.7-3.86-1.7s-3.03.58-4.04,1.73Z"/>
    <path class="cls-65" d="M387.2,843c.88,1.27,1.32,2.85,1.32,4.74,0,2.67-.8,4.72-2.4,6.15-1.6,1.42-3.88,2.13-6.82,2.13h-11.59v-30.41h11.15c2.86,0,5.08.69,6.66,2.07,1.58,1.38,2.36,3.34,2.36,5.87,0,1.64-.39,3.05-1.16,4.23-.78,1.18-1.86,2.06-3.25,2.63,1.6.46,2.84,1.32,3.72,2.59ZM370.91,839.12h7.49c2.08,0,3.65-.46,4.71-1.38,1.06-.92,1.6-2.26,1.6-4.01,0-3.45-2.1-5.18-6.31-5.18h-7.49v10.57ZM383.82,851.78c1.04-.88,1.56-2.25,1.56-4.12,0-3.74-2.13-5.61-6.38-5.61h-8.08v11.04h8.08c2.18,0,3.79-.44,4.83-1.32Z"/>
  </g>
  <g>
    <path class="cls-66" d="M284.08,1357.9v13.2h-3.19v-12.98c0-1.96-.35-3.38-1.04-4.27-.7-.89-1.81-1.34-3.33-1.34-1.76,0-3.17.59-4.22,1.77-1.05,1.18-1.58,2.78-1.58,4.79v12.03h-3.19v-21h3.15v3.45c.63-1.29,1.51-2.28,2.64-2.95,1.13-.68,2.42-1.01,3.86-1.01,4.6,0,6.9,2.78,6.9,8.32Z"/>
    <path class="cls-57" d="M293.09,1370.06c-1.38-.89-2.44-2.16-3.19-3.82-.75-1.65-1.12-3.57-1.12-5.76s.37-4.1,1.12-5.76c.75-1.65,1.81-2.93,3.19-3.82,1.38-.89,2.98-1.34,4.79-1.34s3.42.45,4.81,1.34c1.39.89,2.46,2.16,3.21,3.82.75,1.65,1.12,3.57,1.12,5.76s-.38,4.1-1.12,5.76c-.75,1.65-1.82,2.93-3.21,3.82-1.39.89-3,1.34-4.81,1.34s-3.41-.45-4.79-1.34ZM302.23,1366.46c1.01-1.37,1.52-3.36,1.52-5.97s-.51-4.54-1.54-5.93c-1.02-1.39-2.47-2.09-4.33-2.09s-3.31.7-4.34,2.09c-1.02,1.4-1.54,3.37-1.54,5.93s.51,4.57,1.52,5.95c1.01,1.38,2.46,2.07,4.36,2.07s3.34-.68,4.35-2.05Z"/>
    <path class="cls-74" d="M328.81,1340.69v30.41h-3.19v-3.84c-.58,1.32-1.43,2.34-2.54,3.06-1.12.72-2.42,1.08-3.92,1.08-1.68,0-3.17-.46-4.45-1.38-1.29-.92-2.29-2.21-3-3.86-.71-1.65-1.06-3.57-1.06-5.76s.35-4.05,1.06-5.69c.71-1.64,1.71-2.9,3-3.8,1.29-.89,2.77-1.34,4.45-1.34,1.5,0,2.8.36,3.92,1.08,1.12.72,1.96,1.74,2.54,3.06v-13.03h3.19ZM324.1,1366.42c1.01-1.39,1.52-3.37,1.52-5.93s-.51-4.53-1.52-5.91c-1.01-1.38-2.45-2.07-4.32-2.07s-3.32.69-4.36,2.07c-1.04,1.38-1.56,3.32-1.56,5.82s.52,4.55,1.56,5.97,2.49,2.13,4.36,2.13,3.3-.7,4.32-2.09Z"/>
    <path class="cls-68" d="M350.81,1361.14h-14.03c.1,2.44.71,4.29,1.81,5.54,1.1,1.25,2.67,1.88,4.69,1.88,2.23,0,4.28-.83,6.15-2.5l1.06,2.54c-.84.86-1.92,1.55-3.23,2.05-1.31.5-2.65.75-4.02.75-3,0-5.35-.96-7.08-2.89-1.72-1.93-2.58-4.59-2.58-7.98,0-2.16.38-4.06,1.14-5.71.76-1.65,1.83-2.94,3.21-3.86,1.38-.92,2.95-1.38,4.71-1.38,2.55,0,4.55.91,5.99,2.74,1.44,1.83,2.17,4.33,2.17,7.53v1.29ZM338.65,1354.02c-1.01,1.15-1.61,2.78-1.79,4.87h11.15c-.05-2.13-.54-3.76-1.46-4.9-.92-1.14-2.21-1.7-3.86-1.7s-3.03.58-4.04,1.73Z"/>
    <path class="cls-69" d="M371.14,1369.57c-1.95-1.25-3.44-3.05-4.47-5.39-1.04-2.34-1.56-5.11-1.56-8.3s.52-5.95,1.56-8.28c1.04-2.33,2.53-4.12,4.47-5.37,1.94-1.25,4.23-1.88,6.86-1.88,1.92,0,3.68.32,5.28.97,1.6.65,3,1.6,4.18,2.87l-1.22,2.72c-1.34-1.24-2.65-2.13-3.94-2.67-1.29-.55-2.71-.82-4.26-.82-3.05,0-5.41,1.09-7.08,3.26-1.67,2.17-2.5,5.24-2.5,9.21s.83,7.08,2.5,9.25c1.67,2.17,4.03,3.26,7.08,3.26,1.55,0,2.97-.27,4.26-.82,1.29-.55,2.6-1.44,3.94-2.67l1.22,2.72c-1.18,1.27-2.58,2.22-4.18,2.87-1.6.65-3.36.97-5.28.97-2.63,0-4.91-.63-6.86-1.88Z"/>
  </g>
  <g>
    <path class="cls-70" d="M380.34,1397.87h-106.71c-1.76,0-3.18,1.42-3.18,3.18v94.96c0,1.76,1.43,3.18,3.18,3.18h106.71c1.76,0,3.18-1.42,3.18-3.18v-94.96c0-1.76-1.42-3.18-3.18-3.18Z"/>
    <path class="cls-28" d="M454.07,1447.93h-61.6v47.48c0,6.69-5.44,12.13-12.13,12.13h-106.71c-6.69,0-12.14-5.44-12.14-12.13v-47.48h-61.62c-2.81,0-5.09,2.28-5.09,5.09v263.23c0,2.81,2.28,5.09,5.09,5.09h86.3v-76.71c0-2.81-2.29-5.09-5.09-5.09h-2.46c-2.81,0-5.09-2.28-5.09-5.09h0c0-2.81,2.28-5.09,5.09-5.09h97.03c2.81,0,5.09,2.28,5.09,5.09s-2.28,5.09-5.09,5.09h-2.46c-2.81,0-5.09,2.28-5.09,5.09v76.71h85.96c2.81,0,5.09-2.28,5.09-5.09v-263.23c0-2.81-2.27-5.09-5.09-5.09Z"/>
    <path class="cls-27" d="M459.16,1527.91c26.03-.47,52.51-.79,78.57-1.03,0,0,3.57-.03,3.57-.03,0,0,.89,0,.89,0,2.6-.17,5.23,1.31,6.3,3.72.64,1.24.61,2.71.61,4.07.62,51.99.65,112.08.74,164.28,0,2.6.02,15.63-.05,18.07-.58,4.48-4.26,6.85-8.63,6.45-57.74-.22-115.47-1.11-173.21-1.31,0,0-.78,0-.78,0v-.77c.09-24.8.01-50.04-.07-74.86,0,0,0-1.63,0-1.63-.11-1.86.71-3.79,2.17-4.98,1.81-1.66,4.48-1.3,6.69-1.39,5.7-.99,4.49-8.97-1.34-8.32-25.64.19-69.16.52-94.39.74,0,0-1.63.01-1.63.01-.46.01-.75.04-1.11.16-1.38.42-2.38,1.8-2.34,3.22,0,0,.05,1.76.05,1.76l-1.83.02s0,0,0,0c0,0,1.78-1.78,1.78-1.78.05,2.29,2.06,3.53,4.25,3.26,0,0,1.49,0,1.49,0,3.8-.1,7.15,3.29,7,7.1-.02.53.02,1.7.01,2.23.04,18.28.34,58.05.36,76.69-41.04.11-137.7.41-177.74.25-3.98.25-7.79-2.95-7.99-6.99.14-55.9.46-118.99,1.01-174.78,0,0,.07-7.16.07-7.16,0,0,.02-1.83.02-1.83.05-3.04,2.53-5.81,5.57-6.14.56-.11,1.41-.03,1.96-.05,0,0,3.58.03,3.58.03,13.99.15,63.84.75,78.79.99,0,0,0,.48,0,.48,0,0-57.3.78-57.3.78-3.5.1-17.79.15-21.49.22,0,0-3.58.03-3.58.03,0,0-.9,0-.9,0-.32,0-.48.01-.72.05-1.77.23-3.23,1.88-3.22,3.67.53,58.83.95,124.37,1.13,183.32.08,1.23,1.14,2.3,2.38,2.38,0,0,.24.01.24.01,0,0,.45,0,.45,0h3.58c35.99-.15,134.57.14,171.91.25,0,0-2.24,2.24-2.24,2.24.07-18.49.23-57.92.35-75.94,0,0,0-.74,0-.74.14-1.81-1.4-3.45-3.23-3.43-1.62-.04-3.53.16-5.12-.57-2.51-1.04-4.23-3.66-4.18-6.36,0,0,.03-1.79.03-1.79h1.75s0,.01,0,.01l-1.78,1.78c-.06-3.73,3.33-6.98,7.02-6.8,0,0,1.63.01,1.63.01,25.06.22,68.92.57,94.39.74,2.51-.21,5.14,1.02,6.23,3.37,1.86,3.56-.68,8.26-4.7,8.58-2.03.19-4.14-.43-5.8.98-.88.72-1.46,1.78-1.55,2.91-.01.53-.03,1.81-.03,2.37-.01,5.92-.05,16.77-.06,22.78-.08,17.36-.04,34.72,0,52.07,0,0-.77-.77-.77-.77,58.04-.2,116.07-1.1,174.1-1.32.29,0,.63,0,.76-.02.7-.05,1.37-.34,1.87-.84.66-.67.99-1.57.91-2.51,0,0,0-.89,0-.89,0,0,0-1.79,0-1.79-.1-57.31.21-121.39.73-178.57,0,0,0-.89,0-.89,0,0,0-.45,0-.45,0,0-.01-.34-.01-.34-.03-.43-.13-.86-.31-1.26-.64-1.47-2.22-2.35-3.82-2.23,0,0-.89,0-.89,0-6.13-.07-18.67-.15-25-.24-19.05-.27-38.09-.45-57.14-.83v-.48h0Z"/>
    <path class="cls-1" d="M367.26,1462.17c0,2.22-1.8,4.02-4.02,4.02h-14.43c-2.22,0-4.02,1.8-4.02,4.02v14.43c0,2.22-1.8,4.02-4.02,4.02h-27.28c-2.22,0-4.02-1.8-4.02-4.02v-14.43c0-2.22-1.8-4.02-4.02-4.02h-14.43c-2.22,0-4.02-1.8-4.02-4.02v-27.28c0-2.22,1.8-4.02,4.02-4.02h14.43c2.22,0,4.02-1.8,4.02-4.02v-14.43c0-2.22,1.8-4.02,4.02-4.02h27.28c2.22,0,4.02,1.8,4.02,4.02v14.43c0,2.22,1.8,4.02,4.02,4.02h14.43c2.22,0,4.02,1.8,4.02,4.02v27.28Z"/>
  </g>
  <g>
    <path class="cls-76" d="M380.96,880.86h-106.71c-1.76,0-3.18,1.42-3.18,3.18v94.96c0,1.76,1.43,3.18,3.18,3.18h106.71c1.76,0,3.18-1.42,3.18-3.18v-94.96c0-1.76-1.42-3.18-3.18-3.18Z"/>
    <path class="cls-30" d="M454.7,930.93h-61.6v47.48c0,6.69-5.44,12.13-12.13,12.13h-106.71c-6.69,0-12.14-5.44-12.14-12.13v-47.48h-61.62c-2.81,0-5.09,2.28-5.09,5.09v263.23c0,2.81,2.28,5.09,5.09,5.09h86.3v-76.71c0-2.81-2.29-5.09-5.09-5.09h-2.46c-2.81,0-5.09-2.28-5.09-5.09h0c0-2.81,2.28-5.09,5.09-5.09h97.03c2.81,0,5.09,2.28,5.09,5.09s-2.28,5.09-5.09,5.09h-2.46c-2.81,0-5.09,2.28-5.09,5.09v76.71h85.96c2.81,0,5.09-2.28,5.09-5.09v-263.23c0-2.81-2.27-5.09-5.09-5.09Z"/>
    <path class="cls-27" d="M459.78,1010.9c26.03-.47,52.51-.79,78.57-1.03,0,0,3.57-.03,3.57-.03,0,0,.89,0,.89,0,2.6-.17,5.23,1.31,6.3,3.72.64,1.24.61,2.71.61,4.07.62,51.99.65,112.08.74,164.28,0,2.6.02,15.63-.05,18.07-.58,4.48-4.26,6.85-8.63,6.45-57.74-.22-115.47-1.11-173.21-1.31,0,0-.78,0-.78,0v-.77c.09-24.8.01-50.04-.07-74.86,0,0,0-1.63,0-1.63-.11-1.86.71-3.79,2.17-4.98,1.81-1.66,4.48-1.3,6.69-1.39,5.7-.99,4.49-8.97-1.34-8.32-25.64.19-69.16.52-94.39.74,0,0-1.63.01-1.63.01-.46.01-.75.04-1.11.16-1.38.42-2.38,1.8-2.34,3.22,0,0,.05,1.76.05,1.76l-1.83.02s0,0,0,0c0,0,1.78-1.78,1.78-1.78.05,2.29,2.06,3.53,4.25,3.26,0,0,1.49,0,1.49,0,3.8-.1,7.15,3.29,7,7.1-.02.53.02,1.7.01,2.23.04,18.28.34,58.05.36,76.69-41.04.11-137.7.41-177.74.25-3.98.25-7.79-2.95-7.99-6.99.14-55.9.46-118.99,1.01-174.78,0,0,.07-7.16.07-7.16,0,0,.02-1.83.02-1.83.05-3.04,2.53-5.81,5.57-6.14.56-.11,1.41-.03,1.96-.05,0,0,3.58.03,3.58.03,13.99.15,63.84.75,78.79.99,0,0,0,.48,0,.48,0,0-57.3.78-57.3.78-3.5.1-17.79.15-21.49.22,0,0-3.58.03-3.58.03,0,0-.9,0-.9,0-.32,0-.48.01-.72.05-1.77.23-3.23,1.88-3.22,3.67.53,58.83.95,124.37,1.13,183.32.08,1.23,1.14,2.3,2.38,2.38,0,0,.24.01.24.01,0,0,.45,0,.45,0h3.58c35.99-.15,134.57.14,171.91.25,0,0-2.24,2.24-2.24,2.24.07-18.49.23-57.92.35-75.94,0,0,0-.74,0-.74.14-1.81-1.4-3.45-3.23-3.43-1.62-.04-3.53.16-5.12-.57-2.51-1.04-4.23-3.66-4.18-6.36,0,0,.03-1.79.03-1.79h1.75s0,.01,0,.01l-1.78,1.78c-.06-3.73,3.33-6.98,7.02-6.8,0,0,1.63.01,1.63.01,25.06.22,68.92.57,94.39.74,2.51-.21,5.14,1.02,6.23,3.37,1.86,3.56-.68,8.26-4.7,8.58-2.03.19-4.14-.43-5.8.98-.88.72-1.46,1.78-1.55,2.91-.01.53-.03,1.81-.03,2.37-.01,5.92-.05,16.77-.06,22.78-.08,17.36-.04,34.72,0,52.07,0,0-.77-.77-.77-.77,58.04-.2,116.07-1.1,174.1-1.32.29,0,.63,0,.76-.02.7-.05,1.37-.34,1.87-.84.66-.67.99-1.57.91-2.51,0,0,0-.89,0-.89,0,0,0-1.79,0-1.79-.1-57.31.21-121.39.73-178.57,0,0,0-.89,0-.89,0,0,0-.45,0-.45,0,0-.01-.34-.01-.34-.03-.43-.13-.86-.31-1.26-.64-1.47-2.22-2.35-3.82-2.23,0,0-.89,0-.89,0-6.13-.07-18.67-.15-25-.24-19.05-.27-38.09-.45-57.14-.83v-.48h0Z"/>
    <path class="cls-2" d="M367.89,945.16c0,2.22-1.8,4.02-4.02,4.02h-14.43c-2.22,0-4.02,1.8-4.02,4.02v14.43c0,2.22-1.8,4.02-4.02,4.02h-27.28c-2.22,0-4.02-1.8-4.02-4.02v-14.43c0-2.22-1.8-4.02-4.02-4.02h-14.43c-2.22,0-4.02-1.8-4.02-4.02v-27.28c0-2.22,1.8-4.02,4.02-4.02h14.43c2.22,0,4.02-1.8,4.02-4.02v-14.43c0-2.22,1.8-4.02,4.02-4.02h27.28c2.22,0,4.02,1.8,4.02,4.02v14.43c0,2.22,1.8,4.02,4.02,4.02h14.43c2.22,0,4.02,1.8,4.02,4.02v27.28Z"/>
  </g>
  <g>
    <path class="cls-77" d="M379.61,368.82h-106.71c-1.76,0-3.18,1.42-3.18,3.18v94.96c0,1.76,1.43,3.18,3.18,3.18h106.71c1.76,0,3.18-1.42,3.18-3.18v-94.96c0-1.76-1.42-3.18-3.18-3.18Z"/>
    <path class="cls-29" d="M453.35,418.89h-61.6v47.48c0,6.69-5.44,12.13-12.13,12.13h-106.71c-6.69,0-12.14-5.44-12.14-12.13v-47.48h-61.62c-2.81,0-5.09,2.28-5.09,5.09v263.23c0,2.81,2.28,5.09,5.09,5.09h86.3v-76.71c0-2.81-2.29-5.09-5.09-5.09h-2.46c-2.81,0-5.09-2.28-5.09-5.09h0c0-2.81,2.28-5.09,5.09-5.09h97.03c2.81,0,5.09,2.28,5.09,5.09s-2.28,5.09-5.09,5.09h-2.46c-2.81,0-5.09,2.28-5.09,5.09v76.71h85.96c2.81,0,5.09-2.28,5.09-5.09v-263.23c0-2.81-2.27-5.09-5.09-5.09Z"/>
    <path class="cls-27" d="M458.43,498.86c26.03-.47,52.51-.79,78.57-1.03,0,0,3.57-.03,3.57-.03,0,0,.89,0,.89,0,2.6-.17,5.23,1.31,6.3,3.72.64,1.24.61,2.71.61,4.07.62,51.99.65,112.08.74,164.28,0,2.6.02,15.63-.05,18.07-.58,4.48-4.26,6.85-8.63,6.45-57.74-.22-115.47-1.11-173.21-1.31,0,0-.78,0-.78,0v-.77c.09-24.8.01-50.04-.07-74.86,0,0,0-1.63,0-1.63-.11-1.86.71-3.79,2.17-4.98,1.81-1.66,4.48-1.3,6.69-1.39,5.7-.99,4.49-8.97-1.34-8.32-25.64.19-69.16.52-94.39.74,0,0-1.63.01-1.63.01-.46.01-.75.04-1.11.16-1.38.42-2.38,1.8-2.34,3.22,0,0,.05,1.76.05,1.76l-1.83.02s0,0,0,0c0,0,1.78-1.78,1.78-1.78.05,2.29,2.06,3.53,4.25,3.26,0,0,1.49,0,1.49,0,3.8-.1,7.15,3.29,7,7.1-.02.53.02,1.7.01,2.23.04,18.28.34,58.05.36,76.69-41.04.11-137.7.41-177.74.25-3.98.25-7.79-2.95-7.99-6.99.14-55.9.46-118.99,1.01-174.78,0,0,.07-7.16.07-7.16,0,0,.02-1.83.02-1.83.05-3.04,2.53-5.81,5.57-6.14.56-.11,1.41-.03,1.96-.05,0,0,3.58.03,3.58.03,13.99.15,63.84.75,78.79.99,0,0,0,.48,0,.48,0,0-57.3.78-57.3.78-3.5.1-17.79.15-21.49.22,0,0-3.58.03-3.58.03,0,0-.9,0-.9,0-.32,0-.48.01-.72.05-1.77.23-3.23,1.88-3.22,3.67.53,58.83.95,124.37,1.13,183.32.08,1.23,1.14,2.3,2.38,2.38,0,0,.24.01.24.01,0,0,.45,0,.45,0h3.58c35.99-.15,134.57.14,171.91.25,0,0-2.24,2.24-2.24,2.24.07-18.49.23-57.92.35-75.94,0,0,0-.74,0-.74.14-1.81-1.4-3.45-3.23-3.43-1.62-.04-3.53.16-5.12-.57-2.51-1.04-4.23-3.66-4.18-6.36,0,0,.03-1.79.03-1.79h1.75s0,.01,0,.01l-1.78,1.78c-.06-3.73,3.33-6.98,7.02-6.8,0,0,1.63.01,1.63.01,25.06.22,68.92.57,94.39.74,2.51-.21,5.14,1.02,6.23,3.37,1.86,3.56-.68,8.26-4.7,8.58-2.03.19-4.14-.43-5.8.98-.88.72-1.46,1.78-1.55,2.91-.01.53-.03,1.81-.03,2.37-.01,5.92-.05,16.77-.06,22.78-.08,17.36-.04,34.72,0,52.07,0,0-.77-.77-.77-.77,58.04-.2,116.07-1.1,174.1-1.32.29,0,.63,0,.76-.02.7-.05,1.37-.34,1.87-.84.66-.67.99-1.57.91-2.51,0,0,0-.89,0-.89,0,0,0-1.79,0-1.79-.1-57.31.21-121.39.73-178.57,0,0,0-.89,0-.89,0,0,0-.45,0-.45,0,0-.01-.34-.01-.34-.03-.43-.13-.86-.31-1.26-.64-1.47-2.22-2.35-3.82-2.23,0,0-.89,0-.89,0-6.13-.07-18.67-.15-25-.24-19.05-.27-38.09-.45-57.14-.83v-.48h0Z"/>
    <path class="cls-3" d="M366.54,433.12c0,2.22-1.8,4.02-4.02,4.02h-14.43c-2.22,0-4.02,1.8-4.02,4.02v14.43c0,2.22-1.8,4.02-4.02,4.02h-27.28c-2.22,0-4.02-1.8-4.02-4.02v-14.43c0-2.22-1.8-4.02-4.02-4.02h-14.43c-2.22,0-4.02-1.8-4.02-4.02v-27.28c0-2.22,1.8-4.02,4.02-4.02h14.43c2.22,0,4.02-1.8,4.02-4.02v-14.43c0-2.22,1.8-4.02,4.02-4.02h27.28c2.22,0,4.02,1.8,4.02,4.02v14.43c0,2.22,1.8,4.02,4.02,4.02h14.43c2.22,0,4.02,1.8,4.02,4.02v27.28Z"/>
  </g>
  <g>
    <g>
      <rect class="cls-31" x="1504.87" y="826.16" width="10.57" height="184.93" rx="3.13" ry="3.13"/>
      <rect class="cls-32" x="1504.87" y="918.62" width="10.57" height="184.93" rx="3.13" ry="3.13" transform="translate(2521.25 -499.07) rotate(90)"/>
      <circle class="cls-78" cx="1510.16" cy="1011.09" r="9.56"/>
    </g>
    <g>
      <rect class="cls-104" x="1388.56" y="817.64" width="243.86" height="46.63" rx="11.95" ry="11.95"/>
      <circle class="cls-79" cx="1416.75" cy="840.95" r="8.04"/>
      <circle class="cls-75" cx="1450.29" cy="840.95" r="8.04"/>
      <circle class="cls-67" cx="1483.84" cy="840.95" r="8.04"/>
      <rect class="cls-86" x="1534.06" y="828.63" width="19.59" height="8.57" rx="4.29" ry="4.29"/>
      <rect class="cls-71" x="1534.06" y="844.71" width="19.59" height="8.57" rx="4.29" ry="4.29"/>
      <rect class="cls-82" x="1561.4" y="828.63" width="48.43" height="8.57" rx="4.29" ry="4.29"/>
      <rect class="cls-80" x="1561.4" y="844.71" width="48.43" height="8.57" rx="4.29" ry="4.29"/>
    </g>
    <g>
      <rect class="cls-106" x="1388.23" y="871.56" width="243.86" height="46.63" rx="11.95" ry="11.95"/>
      <circle class="cls-73" cx="1416.42" cy="894.87" r="8.04"/>
      <circle class="cls-81" cx="1449.96" cy="894.87" r="8.04"/>
      <circle class="cls-84" cx="1483.51" cy="894.87" r="8.04"/>
      <rect class="cls-72" x="1533.73" y="882.55" width="19.59" height="8.57" rx="4.29" ry="4.29"/>
      <rect class="cls-83" x="1533.73" y="898.62" width="19.59" height="8.57" rx="4.29" ry="4.29"/>
      <rect class="cls-85" x="1561.07" y="882.55" width="48.43" height="8.57" rx="4.29" ry="4.29"/>
      <rect class="cls-91" x="1561.07" y="898.62" width="48.43" height="8.57" rx="4.29" ry="4.29"/>
    </g>
    <g>
      <rect class="cls-105" x="1388.56" y="925.47" width="243.86" height="46.63" rx="11.95" ry="11.95"/>
      <circle class="cls-93" cx="1416.75" cy="948.79" r="8.04"/>
      <circle class="cls-88" cx="1450.29" cy="948.79" r="8.04"/>
      <circle class="cls-92" cx="1483.84" cy="948.79" r="8.04"/>
      <rect class="cls-87" x="1534.06" y="936.46" width="19.59" height="8.57" rx="4.29" ry="4.29"/>
      <rect class="cls-89" x="1534.06" y="952.54" width="19.59" height="8.57" rx="4.29" ry="4.29"/>
      <rect class="cls-94" x="1561.4" y="936.46" width="48.43" height="8.57" rx="4.29" ry="4.29"/>
      <rect class="cls-90" x="1561.4" y="952.54" width="48.43" height="8.57" rx="4.29" ry="4.29"/>
    </g>
    <polygon class="cls-95" points="1577.9 1259.92 1445.33 1260.86 1418.05 1106.17 1602.6 1107.54 1577.9 1259.92"/>
    <path class="cls-36" d="M1655.87,1025.96c.14,8.7-7.29,16.52-15.99,16.8-2.29.17-5.98,0-8.33.1-11.08.15-22.16.21-33.24.46-71.68,1.61-143.41,3.38-215.11,1.99-8.63-.23-16.53-6.82-18.14-15.31-.72-2.8-.16-10.02-.22-13,1.13-54.5,1.58-111.77.99-166.19-.18-10.75-.49-38.8-.68-49.86-.23-10.21,8.59-18.96,18.79-18.89,80.72-1.2,167.48-1.68,248.26-1.55l4.15.02h2.08s.52,0,.52,0c10.37-.05,19.62,8.24,20.37,18.65.18,18.9-.33,41.65-.59,60.59-1.07,54.45-2.89,111.7-2.87,166.19h0ZM1655.1,1025.96c0-54.52-1.78-111.74-2.87-166.19-.39-18-.54-40.19-.67-58.17.3-7.06-5.56-13.07-12.62-12.97h-2.6c-81.87.2-169.55-.33-251.37-1.51-8.12-.7-15.47,5.55-15.59,13.83l-.45,33.24c-.07,8.31-.36,24.94-.35,33.24-.44,52.17.18,107.52,1.37,159.74.63,6.66,6.73,12.2,13.42,12.14,4.04,0,11.34-.14,15.49-.18,77.57-1.25,155.12,1.71,232.68,2.68,4.1-.08,8.28.5,12.25-.67,6.53-1.97,11.33-8.33,11.3-15.18h0Z"/>
    <path class="cls-115" d="M1305.85,692.29c-4.54,0-8.23,3.69-8.23,8.23v551.18c0,4.54,3.69,8.23,8.23,8.23h139.56v-124.04c0-4.55-3.7-8.23-8.23-8.23-5.63.8-12.29-1.61-12.2-8.23h0c0-4.55,3.69-8.23,8.23-8.23h156.91c4.55,0,8.23,3.69,8.23,8.23.07,6.63-6.56,9.01-12.2,8.23-4.55,0-8.23,3.69-8.23,8.23v124.04h139.01c4.55,0,8.23-3.69,8.23-8.23v-551.18c0-4.54-3.68-8.23-8.23-8.23h0-411.07ZM1667.98,1036c0,9.86-8.01,17.88-17.88,17.88h-276.14c-9.86,0-17.88-8.02-17.88-17.88v-245.73c0-9.85,8.02-17.87,17.88-17.87h276.14c9.87,0,17.88,8.02,17.88,17.87v245.73Z"/>
    <path class="cls-36" d="M1871.78,1249.65v-2.89c.05-53.49,0-108.27-.29-161.7-.3-38.62-.31-90.09-.84-128.5.03-1.75-.22-3.57-.99-5.16-1.74-3.93-6.02-6.31-10.24-6.04-44.55.44-89.76.94-134.28,1.78v.83c30.81.58,61.6.98,92.41,1.34,10.25.15,30.51.29,40.43.42h1.45s.71,0,.71,0c3.85.08,6.16,3.31,5.91,6.86-.16,21.47-.5,60.55-.61,82.3-.39,68.44-.59,139.56-.51,207.91v4.33c.33,2.77-1.95,5.39-4.7,5.44h-2.47c-89.86.3-190.02,1.82-279.88,2.11-91.72-.34-322.43-3.02-413.62-2.77-1.08.05-2.28-.08-3.17-.75-1.44-.92-1.9-2.65-1.82-4.26-.21-93.2-.8-187.76-1.62-280.89l-.11-11.58c.05-1.7-.27-3.34.37-4.9.5-1.31,1.49-2.45,2.74-3.15.96-.55,2.1-.75,3.19-.75l1.45-.02c44.19-.45,89.05-.99,133.21-1.69v-.77c-30.89-.53-61.78-.84-92.67-1.25-10.25-.08-30.61-.39-40.54-.43-2.24-.1-4.65.02-6.64,1.15-2.15,1.13-3.89,3.03-4.82,5.3-.91,2.04-.78,4.39-.8,6.53-.7,73.29-1.18,146.81-1.5,220.08-.08,15.03-.17,55.05-.23,69.5v2.9c-.44,7.67,5.91,13.41,12.97,13.06,91.33.41,321.79-2.6,413.59-2.78,90.96.26,192.07,1.92,283.01,2.11,6.28-.25,11.24-6,10.91-12.19v-1.45Z"/>
  </g>
</svg>