<?xml version="1.0" encoding="UTF-8"?>
<svg id="Livello_1" data-name="Livello 1" xmlns="http://www.w3.org/2000/svg" xmlns:xlink="http://www.w3.org/1999/xlink" viewBox="0 0 1000 1000">
  <defs>
    <style>
      .cls-1 {
        fill: #00b4d8;
      }

      .cls-2 {
        stroke: url(#Sfumatura_senza_nome_190-3);
        stroke-width: 4.02px;
      }

      .cls-2, .cls-3, .cls-4 {
        fill: none;
        stroke-miterlimit: 10;
      }

      .cls-3 {
        stroke: url(#Sfumatura_senza_nome_190-2);
        stroke-width: 4.18px;
      }

      .cls-4 {
        stroke: url(#Sfumatura_senza_nome_190);
        stroke-width: 4px;
      }

      .cls-5 {
        fill: url(#Sfumatura_senza_nome_11-8);
      }

      .cls-6 {
        fill: url(#Sfumatura_senza_nome_11-5);
      }

      .cls-7 {
        fill: url(#Sfumatura_senza_nome_11-6);
      }

      .cls-8 {
        fill: url(#Sfumatura_senza_nome_11-7);
      }

      .cls-9 {
        fill: url(#Sfumatura_senza_nome_11-4);
      }

      .cls-10 {
        filter: url(#drop-shadow-114);
      }

      .cls-10, .cls-11, .cls-12 {
        fill: #fff;
      }

      .cls-11 {
        filter: url(#drop-shadow-116);
      }

      .cls-12 {
        filter: url(#drop-shadow-112);
      }

      .cls-13 {
        fill: url(#Sfumatura_senza_nome_113-4);
      }

      .cls-14 {
        fill: url(#Sfumatura_senza_nome_113-3);
      }

      .cls-15 {
        fill: url(#Sfumatura_senza_nome_113-2);
      }

      .cls-16 {
        fill: url(#Sfumatura_senza_nome_11);
        filter: url(#drop-shadow-111);
      }

      .cls-17 {
        fill: url(#Sfumatura_senza_nome_11-3);
        filter: url(#drop-shadow-115);
      }

      .cls-18 {
        fill: url(#Sfumatura_senza_nome_11-2);
        filter: url(#drop-shadow-113);
      }

      .cls-19 {
        fill: url(#Sfumatura_senza_nome_113);
      }
    </style>
    <linearGradient id="Sfumatura_senza_nome_190" data-name="Sfumatura senza nome 190" x1="566.27" y1="401.02" x2="636.93" y2="401.02" gradientUnits="userSpaceOnUse">
      <stop offset="0" stop-color="#030660"/>
      <stop offset="1" stop-color="#0076b5"/>
    </linearGradient>
    <linearGradient id="Sfumatura_senza_nome_190-2" data-name="Sfumatura senza nome 190" x1="566.18" y1="553.58" y2="553.58" gradientTransform="translate(0 1260.37) scale(1 -1.09)" xlink:href="#Sfumatura_senza_nome_190"/>
    <linearGradient id="Sfumatura_senza_nome_190-3" data-name="Sfumatura senza nome 190" x1="1037.13" y1="461.32" x2="1041.15" y2="461.32" gradientTransform="translate(81.3 1561.55) rotate(-90)" xlink:href="#Sfumatura_senza_nome_190"/>
    <linearGradient id="Sfumatura_senza_nome_113" data-name="Sfumatura senza nome 113" x1="449.95" y1="85.59" x2="551.18" y2="85.59" gradientUnits="userSpaceOnUse">
      <stop offset="0" stop-color="#0077b6"/>
      <stop offset="1" stop-color="#03045e"/>
    </linearGradient>
    <linearGradient id="Sfumatura_senza_nome_11" data-name="Sfumatura senza nome 11" x1="382.21" y1="207.45" x2="618.91" y2="207.45" gradientUnits="userSpaceOnUse">
      <stop offset="0" stop-color="#90e0ef"/>
      <stop offset="1" stop-color="#00b4d8"/>
    </linearGradient>
    <filter id="drop-shadow-111" x="361.43" y="64.46" width="287" height="295" filterUnits="userSpaceOnUse">
      <feOffset dx="3.74" dy="3.74"/>
      <feGaussianBlur result="blur" stdDeviation="8.02"/>
      <feFlood flood-color="#000" flood-opacity=".25"/>
      <feComposite in2="blur" operator="in"/>
      <feComposite in="SourceGraphic"/>
    </filter>
    <filter id="drop-shadow-112" x="444.04" y="28.65" width="122" height="122" filterUnits="userSpaceOnUse">
      <feOffset dx="3.74" dy="3.74"/>
      <feGaussianBlur result="blur-2" stdDeviation="8.02"/>
      <feFlood flood-color="#000" flood-opacity=".25"/>
      <feComposite in2="blur-2" operator="in"/>
      <feComposite in="SourceGraphic"/>
    </filter>
    <linearGradient id="Sfumatura_senza_nome_113-2" data-name="Sfumatura senza nome 113" x1="216.54" y1="400.55" x2="317.77" y2="400.55" xlink:href="#Sfumatura_senza_nome_113"/>
    <linearGradient id="Sfumatura_senza_nome_11-2" data-name="Sfumatura senza nome 11" x1="148.8" y1="522.41" x2="385.49" y2="522.41" xlink:href="#Sfumatura_senza_nome_11"/>
    <filter id="drop-shadow-113" x="128.01" y="379.43" width="287" height="295" filterUnits="userSpaceOnUse">
      <feOffset dx="3.74" dy="3.74"/>
      <feGaussianBlur result="blur-3" stdDeviation="8.02"/>
      <feFlood flood-color="#000" flood-opacity=".25"/>
      <feComposite in2="blur-3" operator="in"/>
      <feComposite in="SourceGraphic"/>
    </filter>
    <filter id="drop-shadow-114" x="210.62" y="343.62" width="122" height="122" filterUnits="userSpaceOnUse">
      <feOffset dx="3.74" dy="3.74"/>
      <feGaussianBlur result="blur-4" stdDeviation="8.02"/>
      <feFlood flood-color="#000" flood-opacity=".25"/>
      <feComposite in2="blur-4" operator="in"/>
      <feComposite in="SourceGraphic"/>
    </filter>
    <linearGradient id="Sfumatura_senza_nome_113-3" data-name="Sfumatura senza nome 113" y1="722.21" y2="722.21" xlink:href="#Sfumatura_senza_nome_113"/>
    <linearGradient id="Sfumatura_senza_nome_11-3" data-name="Sfumatura senza nome 11" y1="844.07" y2="844.07" xlink:href="#Sfumatura_senza_nome_11"/>
    <filter id="drop-shadow-115" x="361.43" y="701.09" width="287" height="295" filterUnits="userSpaceOnUse">
      <feOffset dx="3.74" dy="3.74"/>
      <feGaussianBlur result="blur-5" stdDeviation="8.02"/>
      <feFlood flood-color="#000" flood-opacity=".25"/>
      <feComposite in2="blur-5" operator="in"/>
      <feComposite in="SourceGraphic"/>
    </filter>
    <filter id="drop-shadow-116" x="444.04" y="665.28" width="122" height="122" filterUnits="userSpaceOnUse">
      <feOffset dx="3.74" dy="3.74"/>
      <feGaussianBlur result="blur-6" stdDeviation="8.02"/>
      <feFlood flood-color="#000" flood-opacity=".25"/>
      <feComposite in2="blur-6" operator="in"/>
      <feComposite in="SourceGraphic"/>
    </filter>
    <linearGradient id="Sfumatura_senza_nome_113-4" data-name="Sfumatura senza nome 113" x1="618.91" y1="522.41" x2="862.67" y2="522.41" xlink:href="#Sfumatura_senza_nome_113"/>
    <linearGradient id="Sfumatura_senza_nome_11-4" data-name="Sfumatura senza nome 11" x1="696.13" y1="535.36" x2="719.21" y2="535.36" xlink:href="#Sfumatura_senza_nome_11"/>
    <linearGradient id="Sfumatura_senza_nome_11-5" data-name="Sfumatura senza nome 11" x1="729.25" y1="517.4" x2="752.33" y2="517.4" xlink:href="#Sfumatura_senza_nome_11"/>
    <linearGradient id="Sfumatura_senza_nome_11-6" data-name="Sfumatura senza nome 11" x1="762.37" y1="545.48" x2="785.45" y2="545.48" xlink:href="#Sfumatura_senza_nome_11"/>
    <linearGradient id="Sfumatura_senza_nome_11-7" data-name="Sfumatura senza nome 11" x1="795.48" y1="560.08" x2="818.57" y2="560.08" xlink:href="#Sfumatura_senza_nome_11"/>
    <linearGradient id="Sfumatura_senza_nome_11-8" data-name="Sfumatura senza nome 11" x1="663.01" y1="572.85" x2="686.09" y2="572.85" xlink:href="#Sfumatura_senza_nome_11"/>
  </defs>
  <polyline class="cls-4" points="636.93 475.52 568.27 475.52 568.27 324.52"/>
  <polyline class="cls-3" points="636.93 575.44 568.27 575.44 568.27 740.12"/>
  <line class="cls-2" x1="618.91" y1="522.41" x2="466.34" y2="522.41"/>
  <g>
    <path class="cls-19" d="M548.34,40.23h-95.54c-1.57,0-2.85,1.27-2.85,2.84v85.02c0,1.57,1.28,2.84,2.85,2.84h95.54c1.57,0,2.84-1.27,2.84-2.84V43.08c0-1.57-1.27-2.84-2.84-2.84Z"/>
    <path class="cls-16" d="M614.35,85.06h-55.15v42.51c0,5.99-4.87,10.86-10.86,10.86h-95.54c-5.99,0-10.87-4.87-10.87-10.86v-42.51h-55.17c-2.51,0-4.55,2.04-4.55,4.55v235.67c0,2.51,2.04,4.55,4.55,4.55h77.27v-68.68c0-2.52-2.05-4.55-4.56-4.55h-2.2c-2.52,0-4.55-2.04-4.55-4.55h0c0-2.52,2.04-4.55,4.55-4.55h86.87c2.52,0,4.55,2.04,4.55,4.55s-2.04,4.55-4.55,4.55h-2.2c-2.52,0-4.55,2.04-4.55,4.55v68.68h76.96c2.52,0,4.55-2.04,4.55-4.55V89.61c0-2.51-2.04-4.55-4.55-4.55Z"/>
    <path class="cls-1" d="M618.91,156.66c24.95-.42,50.28-.8,75.24-.94,2.9.2,5.34,2.83,5.28,5.76,0,0,0,.4,0,.4v.8s.06,6.39.06,6.39c.43,49.26.62,105.81.6,155.08,0,0,0,.8,0,.8v.43c0,3.63-3.36,6.66-6.96,6.34-17.85-.06-35.71-.21-53.56-.38-34.11-.27-68.21-.7-102.32-.8h-.7s0-.69,0-.69c.08-22.2,0-44.8-.06-67.02v-1.46c-.19-3.72,3.02-6.08,6.56-5.67,5.6.67,6.53-7.14.9-7.48-15.89.12-55.27.41-70.66.55-1.94.02-12.8.11-14.57.12,0,0-1.46.01-1.46.01-.41.01-.67.04-1,.14-1.24.37-2.13,1.61-2.1,2.88l.04,1.58s-1.64.01-1.64.01c0,0,1.59-1.59,1.59-1.59.05,2.05,1.84,3.16,3.81,2.91,0,0,1.33,0,1.33,0,3.4-.1,6.4,2.96,6.26,6.36-.02.48.02,1.52.01,2,.03,16.37.31,51.97.32,68.66,0,0-2.02,0-2.02,0l-102.61.27c-1.63-.19-56.25.31-56.67-.29-3.07-.78-5.24-3.84-5.02-6.99,0,0,0-1.6,0-1.6.21-49.13.41-104.89.92-153.91,0,0,.06-6.41.06-6.41l.02-1.63c.05-2.72,2.27-5.2,4.98-5.49.56-.06,1.22-.05,1.76-.04l3.21.03,6.41.06c7.55,0,55.36.74,64.13.83,0,0,0,.43,0,.43-8.64.18-56.29.73-64.13.83,0,0-6.41.06-6.41.06l-3.21.03h-.8c-.29.01-.43.02-.65.05-1.19.15-2.24,1.02-2.66,2.13-.14.37-.22.76-.22,1.15v1.57c.47,51.31.86,108.9.99,160.32v1.6s0,.4,0,.4v.23c.09,1.1,1.03,2.06,2.15,2.13,34.61-.11,122.03.11,157.73.23,0,0-2.01,2.01-2.01,2.01l.17-42.66c-.02-3.61.15-22.84.14-26,.12-1.63-1.25-3.08-2.89-3.07-1.45-.03-3.16.14-4.58-.51-2.24-.93-3.78-3.28-3.74-5.69l.03-1.61h1.57s0,.01,0,.01l-1.59,1.59c-.05-3.34,2.98-6.25,6.28-6.09,0,0,1.46.01,1.46.01,22.78.2,62.1.51,85.23.67,4.78-.09,7.27,6.09,3.69,9.3-1.58,1.63-3.98,1.45-6.02,1.44-2.12.04-3.79,1.99-3.63,4.11.02.97-.02,3.38-.01,4.37,0,3.76-.04,13.61-.05,17.48-.07,15.54-.03,31.08,0,46.62l-.69-.69c51.69-.18,103.39-.98,155.08-1.18h.8c.26,0,.57,0,.68-.02,1.34-.07,2.5-1.28,2.48-2.63-.08-24.99.12-66.83.2-92.3-.11-21.08.36-49.36.45-70.34,0,0,0-.8,0-.8v-.4s0-.31,0-.31c-.03-.39-.12-.77-.28-1.13-.57-1.32-1.99-2.11-3.42-2,0,0-.8,0-.8,0-5.49-.07-16.71-.13-22.38-.21-17.05-.25-34.11-.41-51.16-.74v-.43h0Z"/>
    <path class="cls-12" d="M536.63,97.8c0,1.99-1.61,3.6-3.6,3.6h-12.92c-1.99,0-3.6,1.61-3.6,3.6v12.92c0,1.99-1.61,3.6-3.6,3.6h-24.43c-1.99,0-3.6-1.61-3.6-3.6v-12.92c0-1.99-1.61-3.6-3.6-3.6h-12.92c-1.99,0-3.6-1.61-3.6-3.6v-24.43c0-1.99,1.61-3.6,3.6-3.6h12.92c1.99,0,3.6-1.61,3.6-3.6v-12.92c0-1.99,1.61-3.6,3.6-3.6h24.43c1.99,0,3.6,1.61,3.6,3.6v12.92c0,1.99,1.61,3.6,3.6,3.6h12.92c1.99,0,3.6,1.61,3.6,3.6v24.43Z"/>
  </g>
  <g>
    <path class="cls-15" d="M314.93,355.2h-95.54c-1.57,0-2.85,1.27-2.85,2.84v85.02c0,1.57,1.28,2.84,2.85,2.84h95.54c1.57,0,2.84-1.27,2.84-2.84v-85.02c0-1.57-1.27-2.84-2.84-2.84Z"/>
    <path class="cls-18" d="M380.94,400.02h-55.15v42.51c0,5.99-4.87,10.86-10.86,10.86h-95.54c-5.99,0-10.87-4.87-10.87-10.86v-42.51h-55.17c-2.51,0-4.55,2.04-4.55,4.55v235.67c0,2.51,2.04,4.55,4.55,4.55h77.27v-68.68c0-2.52-2.05-4.55-4.56-4.55h-2.2c-2.52,0-4.55-2.04-4.55-4.55h0c0-2.52,2.04-4.55,4.55-4.55h86.87c2.52,0,4.55,2.04,4.55,4.55s-2.04,4.55-4.55,4.55h-2.2c-2.52,0-4.55,2.04-4.55,4.55v68.68h76.96c2.52,0,4.55-2.04,4.55-4.55v-235.67c0-2.51-2.04-4.55-4.55-4.55Z"/>
    <path class="cls-1" d="M385.49,471.62c24.95-.42,50.28-.8,75.24-.94,2.9.2,5.34,2.83,5.28,5.76,0,0,0,.4,0,.4v.8s.06,6.39.06,6.39c.43,49.26.62,105.81.6,155.08,0,0,0,.8,0,.8v.43c0,3.63-3.36,6.66-6.96,6.34-17.85-.06-35.71-.21-53.56-.38-34.11-.27-68.21-.7-102.32-.8h-.7s0-.69,0-.69c.08-22.2,0-44.8-.06-67.02v-1.46c-.19-3.72,3.02-6.08,6.56-5.67,5.6.67,6.53-7.14.9-7.48-15.89.12-55.27.41-70.66.55-1.94.02-12.8.11-14.57.12,0,0-1.46.01-1.46.01-.41.01-.67.04-1,.14-1.24.37-2.13,1.61-2.1,2.88l.04,1.58s-1.64.01-1.64.01c0,0,1.59-1.59,1.59-1.59.05,2.05,1.84,3.16,3.81,2.91,0,0,1.33,0,1.33,0,3.4-.1,6.4,2.96,6.26,6.36-.02.48.02,1.52.01,2,.03,16.37.31,51.97.32,68.66,0,0-2.02,0-2.02,0l-102.61.27c-1.63-.19-56.25.31-56.67-.29-3.07-.78-5.24-3.84-5.02-6.99,0,0,0-1.6,0-1.6.21-49.13.41-104.89.92-153.91,0,0,.06-6.41.06-6.41l.02-1.63c.05-2.72,2.27-5.2,4.98-5.49.56-.06,1.22-.05,1.76-.04l3.21.03,6.41.06c7.55,0,55.36.74,64.13.83,0,0,0,.43,0,.43-8.64.18-56.29.73-64.13.83,0,0-6.41.06-6.41.06l-3.21.03h-.8c-.29.01-.43.02-.65.05-1.19.15-2.24,1.02-2.66,2.13-.14.37-.22.76-.22,1.15v1.57c.47,51.31.86,108.9.99,160.32v1.6s0,.4,0,.4v.23c.09,1.1,1.03,2.06,2.15,2.13,34.61-.11,122.03.11,157.73.23,0,0-2.01,2.01-2.01,2.01l.17-42.66c-.02-3.61.15-22.84.14-26,.12-1.63-1.25-3.08-2.89-3.07-1.45-.03-3.16.14-4.58-.51-2.24-.93-3.78-3.28-3.74-5.69l.03-1.61h1.57s0,.01,0,.01l-1.59,1.59c-.05-3.34,2.98-6.25,6.28-6.09,0,0,1.46.01,1.46.01,22.78.2,62.1.51,85.23.67,4.78-.09,7.27,6.09,3.69,9.3-1.58,1.63-3.98,1.45-6.02,1.44-2.12.04-3.79,1.99-3.63,4.11.02.97-.02,3.38-.01,4.37,0,3.76-.04,13.61-.05,17.48-.07,15.54-.03,31.08,0,46.62l-.69-.69c51.69-.18,103.39-.98,155.08-1.18h.8c.26,0,.57,0,.68-.02,1.34-.07,2.5-1.28,2.48-2.63-.08-24.99.12-66.83.2-92.3-.11-21.08.36-49.36.45-70.34,0,0,0-.8,0-.8v-.4s0-.31,0-.31c-.03-.39-.12-.77-.28-1.13-.57-1.32-1.99-2.11-3.42-2,0,0-.8,0-.8,0-5.49-.07-16.71-.13-22.38-.21-17.05-.25-34.11-.41-51.16-.74v-.43h0Z"/>
    <path class="cls-10" d="M303.22,412.76c0,1.99-1.61,3.6-3.6,3.6h-12.92c-1.99,0-3.6,1.61-3.6,3.6v12.92c0,1.99-1.61,3.6-3.6,3.6h-24.43c-1.99,0-3.6-1.61-3.6-3.6v-12.92c0-1.99-1.61-3.6-3.6-3.6h-12.92c-1.99,0-3.6-1.61-3.6-3.6v-24.43c0-1.99,1.61-3.6,3.6-3.6h12.92c1.99,0,3.6-1.61,3.6-3.6v-12.92c0-1.99,1.61-3.6,3.6-3.6h24.43c1.99,0,3.6,1.61,3.6,3.6v12.92c0,1.99,1.61,3.6,3.6,3.6h12.92c1.99,0,3.6,1.61,3.6,3.6v24.43Z"/>
  </g>
  <g>
    <path class="cls-14" d="M548.34,676.86h-95.54c-1.57,0-2.85,1.27-2.85,2.84v85.02c0,1.57,1.28,2.84,2.85,2.84h95.54c1.57,0,2.84-1.27,2.84-2.84v-85.02c0-1.57-1.27-2.84-2.84-2.84Z"/>
    <path class="cls-17" d="M614.35,721.68h-55.15v42.51c0,5.99-4.87,10.86-10.86,10.86h-95.54c-5.99,0-10.87-4.87-10.87-10.86v-42.51h-55.17c-2.51,0-4.55,2.04-4.55,4.55v235.67c0,2.51,2.04,4.55,4.55,4.55h77.27v-68.68c0-2.52-2.05-4.55-4.56-4.55h-2.2c-2.52,0-4.55-2.04-4.55-4.55h0c0-2.52,2.04-4.55,4.55-4.55h86.87c2.52,0,4.55,2.04,4.55,4.55s-2.04,4.55-4.55,4.55h-2.2c-2.52,0-4.55,2.04-4.55,4.55v68.68h76.96c2.52,0,4.55-2.04,4.55-4.55v-235.67c0-2.51-2.04-4.55-4.55-4.55Z"/>
    <path class="cls-1" d="M618.91,793.28c24.95-.42,50.28-.8,75.24-.94,2.9.2,5.34,2.83,5.28,5.76,0,0,0,.4,0,.4v.8s.06,6.39.06,6.39c.43,49.26.62,105.81.6,155.08,0,0,0,.8,0,.8v.43c0,3.63-3.36,6.66-6.96,6.34-17.85-.06-35.71-.21-53.56-.38-34.11-.27-68.21-.7-102.32-.8h-.7s0-.69,0-.69c.08-22.2,0-44.8-.06-67.02v-1.46c-.19-3.72,3.02-6.08,6.56-5.67,5.6.67,6.53-7.14.9-7.48-15.89.12-55.27.41-70.66.55-1.94.02-12.8.11-14.57.12,0,0-1.46.01-1.46.01-.41.01-.67.04-1,.14-1.24.37-2.13,1.61-2.1,2.88l.04,1.58s-1.64.01-1.64.01c0,0,1.59-1.59,1.59-1.59.05,2.05,1.84,3.16,3.81,2.91,0,0,1.33,0,1.33,0,3.4-.1,6.4,2.96,6.26,6.36-.02.48.02,1.52.01,2,.03,16.37.31,51.97.32,68.66,0,0-2.02,0-2.02,0l-102.61.27c-1.63-.19-56.25.31-56.67-.29-3.07-.78-5.24-3.84-5.02-6.99,0,0,0-1.6,0-1.6.21-49.13.41-104.89.92-153.91,0,0,.06-6.41.06-6.41l.02-1.63c.05-2.72,2.27-5.2,4.98-5.49.56-.06,1.22-.05,1.76-.04l3.21.03,6.41.06c7.55,0,55.36.74,64.13.83,0,0,0,.43,0,.43-8.64.18-56.29.73-64.13.83,0,0-6.41.06-6.41.06l-3.21.03h-.8c-.29.01-.43.02-.65.05-1.19.15-2.24,1.02-2.66,2.13-.14.37-.22.76-.22,1.15v1.57c.47,51.31.86,108.9.99,160.32v1.6s0,.4,0,.4v.23c.09,1.1,1.03,2.06,2.15,2.13,34.61-.11,122.03.11,157.73.23,0,0-2.01,2.01-2.01,2.01l.17-42.66c-.02-3.61.15-22.84.14-26,.12-1.63-1.25-3.08-2.89-3.07-1.45-.03-3.16.14-4.58-.51-2.24-.93-3.78-3.28-3.74-5.69l.03-1.61h1.57s0,.01,0,.01l-1.59,1.59c-.05-3.34,2.98-6.25,6.28-6.09,0,0,1.46.01,1.46.01,22.78.2,62.1.51,85.23.67,4.78-.09,7.27,6.09,3.69,9.3-1.58,1.63-3.98,1.45-6.02,1.44-2.12.04-3.79,1.99-3.63,4.11.02.97-.02,3.38-.01,4.37,0,3.76-.04,13.61-.05,17.48-.07,15.54-.03,31.08,0,46.62l-.69-.69c51.69-.18,103.39-.98,155.08-1.18h.8c.26,0,.57,0,.68-.02,1.34-.07,2.5-1.28,2.48-2.63-.08-24.99.12-66.83.2-92.3-.11-21.08.36-49.36.45-70.34,0,0,0-.8,0-.8v-.4s0-.31,0-.31c-.03-.39-.12-.77-.28-1.13-.57-1.32-1.99-2.11-3.42-2,0,0-.8,0-.8,0-5.49-.07-16.71-.13-22.38-.21-17.05-.25-34.11-.41-51.16-.74v-.43h0Z"/>
    <path class="cls-11" d="M536.63,734.42c0,1.99-1.61,3.6-3.6,3.6h-12.92c-1.99,0-3.6,1.61-3.6,3.6v12.92c0,1.99-1.61,3.6-3.6,3.6h-24.43c-1.99,0-3.6-1.61-3.6-3.6v-12.92c0-1.99-1.61-3.6-3.6-3.6h-12.92c-1.99,0-3.6-1.61-3.6-3.6v-24.43c0-1.99,1.61-3.6,3.6-3.6h12.92c1.99,0,3.6-1.61,3.6-3.6v-12.92c0-1.99,1.61-3.6,3.6-3.6h24.43c1.99,0,3.6,1.61,3.6,3.6v12.92c0,1.99,1.61,3.6,3.6,3.6h12.92c1.99,0,3.6,1.61,3.6,3.6v24.43Z"/>
  </g>
  <circle class="cls-13" cx="740.79" cy="522.41" r="121.88"/>
  <g>
    <rect class="cls-9" x="696.13" y="481.33" width="23.08" height="108.05" rx="2.46" ry="2.46"/>
    <rect class="cls-6" x="729.25" y="445.41" width="23.08" height="143.97" rx="2.3" ry="2.3"/>
    <rect class="cls-7" x="762.37" y="501.58" width="23.08" height="87.81" rx="2.44" ry="2.44"/>
    <rect class="cls-8" x="795.48" y="530.77" width="23.08" height="58.62" rx="2.86" ry="2.86"/>
    <rect class="cls-5" x="663.01" y="556.32" width="23.08" height="33.06" rx="2.79" ry="2.79"/>
  </g>
</svg>