<?xml version="1.0" encoding="UTF-8"?>
<svg id="Livello_1" data-name="Livello 1" xmlns="http://www.w3.org/2000/svg" xmlns:xlink="http://www.w3.org/1999/xlink" viewBox="0 0 1000 1000">
  <defs>
    <style>
      .cls-1 {
        fill: url(#Sfumatura_senza_nome_11);
      }

      .cls-2 {
        fill: url(#Sfumatura_senza_nome_11-5);
      }

      .cls-3 {
        fill: url(#Sfumatura_senza_nome_11-6);
      }

      .cls-4 {
        fill: url(#Sfumatura_senza_nome_11-4);
      }

      .cls-5 {
        fill: url(#Sfumatura_senza_nome_11-3);
      }

      .cls-6 {
        fill: url(#Sfumatura_senza_nome_11-2);
      }

      .cls-7 {
        fill: #50b0d3;
      }

      .cls-8 {
        fill: url(#Sfumatura_senza_nome_113-2);
        filter: url(#drop-shadow-111);
      }

      .cls-9 {
        fill: none;
        filter: url(#drop-shadow-112);
        stroke: url(#Sfumatura_senza_nome_14);
        stroke-miterlimit: 10;
        stroke-width: 4.1px;
      }

      .cls-10 {
        fill: url(#Sfumatura_senza_nome_6);
      }

      .cls-11 {
        fill: url(#Sfumatura_senza_nome_113);
      }
    </style>
    <linearGradient id="Sfumatura_senza_nome_113" data-name="Sfumatura senza nome 113" x1="414.18" y1="790.93" x2="583.57" y2="790.93" gradientUnits="userSpaceOnUse">
      <stop offset="0" stop-color="#0077b6"/>
      <stop offset="1" stop-color="#03045e"/>
    </linearGradient>
    <linearGradient id="Sfumatura_senza_nome_6" data-name="Sfumatura senza nome 6" x1="303.66" y1="-11091.41" x2="696.04" y2="-11091.41" gradientTransform="translate(0 -10490.85) scale(1 -1)" gradientUnits="userSpaceOnUse">
      <stop offset="0" stop-color="#a1ddec"/>
      <stop offset="1" stop-color="#50b0d3"/>
    </linearGradient>
    <linearGradient id="Sfumatura_senza_nome_11" data-name="Sfumatura senza nome 11" x1="423.59" y1="317.25" x2="591.41" y2="317.25" gradientUnits="userSpaceOnUse">
      <stop offset="0" stop-color="#90e0ef"/>
      <stop offset="1" stop-color="#00b4d8"/>
    </linearGradient>
    <linearGradient id="Sfumatura_senza_nome_11-2" data-name="Sfumatura senza nome 11" x1="439.63" y1="567.82" x2="470.25" y2="567.82" xlink:href="#Sfumatura_senza_nome_11"/>
    <linearGradient id="Sfumatura_senza_nome_11-3" data-name="Sfumatura senza nome 11" x1="483.57" y1="544" x2="514.19" y2="544" xlink:href="#Sfumatura_senza_nome_11"/>
    <linearGradient id="Sfumatura_senza_nome_11-4" data-name="Sfumatura senza nome 11" x1="527.5" y1="581.25" x2="558.13" y2="581.25" xlink:href="#Sfumatura_senza_nome_11"/>
    <linearGradient id="Sfumatura_senza_nome_11-5" data-name="Sfumatura senza nome 11" x1="571.44" y1="600.61" x2="602.07" y2="600.61" xlink:href="#Sfumatura_senza_nome_11"/>
    <linearGradient id="Sfumatura_senza_nome_11-6" data-name="Sfumatura senza nome 11" x1="395.69" y1="617.56" x2="426.32" y2="617.56" xlink:href="#Sfumatura_senza_nome_11"/>
    <linearGradient id="Sfumatura_senza_nome_113-2" data-name="Sfumatura senza nome 113" x1="684.36" y1="348.67" x2="771.93" y2="348.67" xlink:href="#Sfumatura_senza_nome_113"/>
    <filter id="drop-shadow-111" x="675.96" y="277.93" width="109" height="146" filterUnits="userSpaceOnUse">
      <feOffset dx="2.05" dy="2.05"/>
      <feGaussianBlur result="blur" stdDeviation="3.28"/>
      <feFlood flood-color="#000" flood-opacity=".2"/>
      <feComposite in2="blur" operator="in"/>
      <feComposite in="SourceGraphic"/>
    </filter>
    <linearGradient id="Sfumatura_senza_nome_14" data-name="Sfumatura senza nome 14" x1="620.63" y1="210.03" x2="1130.44" y2="210.03" gradientUnits="userSpaceOnUse">
      <stop offset="0" stop-color="#90e0ef"/>
      <stop offset="1" stop-color="#00b4d8"/>
    </linearGradient>
    <filter id="drop-shadow-112" x="614.96" y="250.93" width="229" height="255" filterUnits="userSpaceOnUse">
      <feOffset dx="2.05" dy="2.05"/>
      <feGaussianBlur result="blur-2" stdDeviation="3.28"/>
      <feFlood flood-color="#000" flood-opacity=".2"/>
      <feComposite in2="blur-2" operator="in"/>
      <feComposite in="SourceGraphic"/>
    </filter>
  </defs>
  <g>
    <polygon class="cls-11" points="560.9 861.06 439.23 861.92 414.18 719.94 583.57 721.2 560.9 861.06"/>
    <path class="cls-7" d="M632.47,646.32c.13,7.98-6.69,15.16-14.67,15.42-2.1.16-5.48,0-7.65.09-10.17.14-20.34.19-30.51.43-65.79,1.48-131.63,3.1-197.44,1.83-7.92-.21-15.17-6.26-16.65-14.05-.66-2.57-.15-9.2-.2-11.94,1.04-50.02,1.45-102.59.91-152.54-.17-9.87-.45-35.61-.62-45.77-.21-9.37,7.89-17.4,17.24-17.34,74.09-1.1,153.72-1.54,227.87-1.43l3.81.02h1.91s.48,0,.48,0c9.52-.04,18.01,7.57,18.7,17.12.17,17.35-.3,38.23-.54,55.61-.98,49.98-2.65,102.52-2.63,152.54h0ZM631.76,646.32c0-50.04-1.63-102.56-2.63-152.54-.35-16.53-.5-36.89-.61-53.39.27-6.48-5.1-12-11.58-11.91h-2.38c-75.14.19-155.62-.3-230.72-1.38-7.45-.64-14.2,5.1-14.31,12.7l-.42,30.51c-.06,7.63-.33,22.89-.32,30.51-.41,47.88.17,98.68,1.26,146.61.58,6.11,6.18,11.2,12.32,11.15,3.7,0,10.41-.13,14.21-.17,71.2-1.14,142.38,1.57,213.57,2.46,3.77-.07,7.6.46,11.24-.61,5.99-1.81,10.4-7.65,10.37-13.93h0Z"/>
    <path class="cls-10" d="M688.49,340.07h-88.22v47.66c0,7.49-6.09,13.57-13.58,13.57h-158.39c-7.49,0-13.58-6.09-13.58-13.57v-47.66h-103.52c-4.16,0-7.55,3.38-7.55,7.55v505.9c0,4.16,3.38,7.55,7.55,7.55h128.09v-113.85c0-4.17-3.39-7.55-7.56-7.55-5.17.74-11.28-1.48-11.2-7.55,0-2.09.84-3.97,2.22-5.34s3.25-2.21,5.33-2.21h144.02c4.17,0,7.55,3.38,7.55,7.55.06,6.09-6.03,8.27-11.2,7.55-4.17,0-7.55,3.38-7.55,7.55v113.85h127.59c4.17,0,7.55-3.38,7.55-7.55v-505.9c0-4.16-3.38-7.55-7.55-7.55ZM643.59,655.53c0,9.05-7.35,16.41-16.41,16.41h-253.46c-9.05,0-16.41-7.36-16.41-16.41v-225.55c0-9.04,7.36-16.4,16.41-16.4h253.46c9.06,0,16.41,7.36,16.41,16.4v225.55Z"/>
    <path class="cls-7" d="M830.65,851.63v-2.65c.04-49.1,0-99.37-.27-148.42-.27-35.44-.28-82.69-.77-117.95.03-1.6-.2-3.28-.91-4.74-1.6-3.61-5.53-5.8-9.4-5.55-40.89.41-82.39.86-123.25,1.63v.76c28.28.53,56.54.9,84.82,1.23,9.41.14,28,.27,37.11.39h1.33s.66,0,.66,0c3.54.07,5.65,3.04,5.42,6.3-.15,19.71-.46,55.58-.56,75.54-.35,62.82-.54,128.09-.47,190.83v3.98c.3,2.54-1.79,4.94-4.32,4.99h-2.27c-82.48.27-174.41,1.67-256.88,1.94-84.19-.31-295.94-2.77-379.64-2.54-.99.04-2.09-.07-2.91-.69-1.32-.84-1.75-2.44-1.67-3.91-.19-85.54-.74-172.34-1.49-257.82l-.1-10.63c.04-1.56-.25-3.07.34-4.5.46-1.2,1.36-2.25,2.52-2.89.88-.5,1.93-.69,2.92-.69l1.33-.02c40.56-.42,81.73-.91,122.26-1.55v-.71c-28.35-.49-56.7-.77-85.06-1.15-9.41-.07-28.1-.35-37.21-.4-2.06-.09-4.27.02-6.1,1.05-1.98,1.04-3.57,2.78-4.42,4.86-.83,1.87-.72,4.03-.74,5.99-.64,67.27-1.08,134.75-1.37,202-.07,13.8-.16,50.52-.21,63.79v2.66c-.41,7.04,5.42,12.31,11.9,11.99,83.82.37,295.36-2.39,379.61-2.56,83.49.24,176.29,1.77,259.76,1.93,5.76-.23,10.31-5.51,10.01-11.19v-1.33Z"/>
    <path class="cls-1" d="M586.7,242.06h-158.39c-2.61,0-4.72,2.11-4.72,4.71v140.95c0,2.61,2.12,4.71,4.72,4.71h158.39c2.61,0,4.71-2.11,4.71-4.71v-140.95c0-2.61-2.11-4.71-4.71-4.71ZM567.06,337.5c0,.91-.2,1.78-.58,2.56-.95,2.01-3,3.4-5.38,3.4h-21.43c-3.29,0-5.96,2.67-5.96,5.96v21.42c0,3.3-2.67,5.96-5.96,5.96h-40.49c-3.29,0-5.96-2.67-5.96-5.96v-21.42c0-3.3-2.67-5.96-5.95-5.96h-21.43c-2.37,0-4.43-1.39-5.38-3.4-.38-.78-.58-1.65-.58-2.56v-40.49c0-3.3,2.67-5.96,5.96-5.96h21.43c3.29,0,5.95-2.67,5.95-5.96v-21.43c0-3.29,2.68-5.96,5.96-5.96h40.49c3.3,0,5.96,2.68,5.96,5.96v21.43c0,3.3,2.68,5.96,5.96,5.96h21.43c3.3,0,5.96,2.67,5.96,5.96v40.49Z"/>
    <path class="cls-1" d="M586.7,242.06h-158.39c-2.61,0-4.72,2.11-4.72,4.71v140.95c0,2.61,2.12,4.71,4.72,4.71h158.39c2.61,0,4.71-2.11,4.71-4.71v-140.95c0-2.61-2.11-4.71-4.71-4.71ZM567.06,337.5c0,.91-.2,1.78-.58,2.56-.95,2.01-3,3.4-5.38,3.4h-21.43c-3.29,0-5.96,2.67-5.96,5.96v21.42c0,3.3-2.67,5.96-5.96,5.96h-40.49c-3.29,0-5.96-2.67-5.96-5.96v-21.42c0-3.3-2.67-5.96-5.95-5.96h-21.43c-2.37,0-4.43-1.39-5.38-3.4-.38-.78-.58-1.65-.58-2.56v-40.49c0-3.3,2.67-5.96,5.96-5.96h21.43c3.29,0,5.95-2.67,5.95-5.96v-21.43c0-3.29,2.68-5.96,5.96-5.96h40.49c3.3,0,5.96,2.68,5.96,5.96v21.43c0,3.3,2.68,5.96,5.96,5.96h21.43c3.3,0,5.96,2.67,5.96,5.96v40.49Z"/>
  </g>
  <g>
    <rect class="cls-6" x="439.63" y="496.14" width="30.62" height="143.35" rx="3.27" ry="3.27"/>
    <rect class="cls-5" x="483.57" y="448.5" width="30.62" height="191" rx="3.05" ry="3.05"/>
    <rect class="cls-4" x="527.5" y="523" width="30.62" height="116.49" rx="3.23" ry="3.23"/>
    <rect class="cls-2" x="571.44" y="561.73" width="30.62" height="77.76" rx="3.79" ry="3.79"/>
    <rect class="cls-3" x="395.69" y="595.63" width="30.62" height="43.87" rx="3.7" ry="3.7"/>
  </g>
  <g>
    <path class="cls-8" d="M761.93,330.73c.1-5.34.18-12.91-.14-16.3-1.53-16.09-16.61-27.57-32.33-28.16-16.65-.63-33.31,11.09-34.94,28.16-.32,3.38-.25,10.95-.14,16.3h-5.64c-2.41,0-4.36,1.95-4.36,4.36v71.63c0,2.41,1.95,4.36,4.36,4.36h78.85c2.41,0,4.36-1.95,4.36-4.36v-71.63c0-2.41-1.95-4.36-4.36-4.36h-5.64ZM733.8,383.56h-11.31l2.9-11.53c-2.08-1.03-3.49-3.2-3.43-5.69.08-3.17,2.61-5.81,5.78-6.01,3.59-.23,6.58,2.62,6.58,6.17,0,2.42-1.4,4.52-3.43,5.53l2.9,11.53h0ZM751.16,330.46h-45.72c-1.73,0-3.14-1.39-3.16-3.12-.04-3.67-.03-7.57.17-9.66,1.28-13.98,12.63-23.95,25.7-24.17,12.36-.21,24.81,10.99,26.01,24.17.19,2.1.2,5.99.16,9.66-.02,1.73-1.43,3.12-3.16,3.12h0Z"/>
    <path class="cls-9" d="M723.59,490.63c2.34,2.91,6.76,2.91,9.1,0,22.45-27.97,60.16-48.87,80.02-95.58,17.67-41.56,13.65-96.17,17.89-127.61.47-3.51-2.24-6.63-5.78-6.63h-193.37c-3.54,0-6.25,3.12-5.78,6.63,4.24,31.44.22,86.05,17.89,127.61,19.86,46.71,57.57,67.62,80.02,95.58Z"/>
  </g>
</svg>