<?xml version="1.0" encoding="UTF-8"?>
<svg id="Livello_1" data-name="Livello 1" xmlns="http://www.w3.org/2000/svg" xmlns:xlink="http://www.w3.org/1999/xlink" viewBox="0 0 1000 1000">
  <defs>
    <style>
      .cls-1 {
        fill: url(#Sfumatura_senza_nome_11);
      }

      .cls-2 {
        fill: url(#Sfumatura_senza_nome_11-8);
      }

      .cls-3 {
        fill: url(#Sfumatura_senza_nome_11-9);
      }

      .cls-4 {
        fill: url(#Sfumatura_senza_nome_11-5);
      }

      .cls-5 {
        fill: url(#Sfumatura_senza_nome_11-6);
      }

      .cls-6 {
        fill: url(#Sfumatura_senza_nome_11-7);
      }

      .cls-7 {
        fill: url(#Sfumatura_senza_nome_11-4);
      }

      .cls-8 {
        fill: url(#Sfumatura_senza_nome_11-3);
      }

      .cls-9 {
        fill: url(#Sfumatura_senza_nome_11-2);
      }

      .cls-10 {
        fill: url(#Sfumatura_senza_nome_11-16);
      }

      .cls-11 {
        fill: url(#Sfumatura_senza_nome_11-10);
      }

      .cls-12 {
        fill: url(#Sfumatura_senza_nome_11-15);
      }

      .cls-13 {
        fill: url(#Sfumatura_senza_nome_11-12);
      }

      .cls-14 {
        fill: url(#Sfumatura_senza_nome_11-11);
      }

      .cls-15 {
        fill: url(#Sfumatura_senza_nome_11-13);
      }

      .cls-16 {
        fill: url(#Sfumatura_senza_nome_11-18);
      }

      .cls-17 {
        fill: url(#Sfumatura_senza_nome_11-19);
      }

      .cls-18 {
        fill: url(#Sfumatura_senza_nome_11-17);
      }

      .cls-19 {
        fill: url(#Sfumatura_senza_nome_11-14);
      }

      .cls-20 {
        fill: url(#Sfumatura_senza_nome_11-21);
      }

      .cls-21 {
        fill: url(#Sfumatura_senza_nome_11-20);
      }

      .cls-22 {
        fill: url(#Sfumatura_senza_nome_113);
      }
    </style>
    <linearGradient id="Sfumatura_senza_nome_11" data-name="Sfumatura senza nome 11" x1="137.01" y1="501.02" x2="861.14" y2="501.02" gradientUnits="userSpaceOnUse">
      <stop offset="0" stop-color="#90e0ef"/>
      <stop offset="1" stop-color="#00b4d8"/>
    </linearGradient>
    <linearGradient id="Sfumatura_senza_nome_113" data-name="Sfumatura senza nome 113" x1="140.24" y1="258.17" x2="861.63" y2="258.17" gradientUnits="userSpaceOnUse">
      <stop offset="0" stop-color="#0077b6"/>
      <stop offset="1" stop-color="#03045e"/>
    </linearGradient>
    <linearGradient id="Sfumatura_senza_nome_11-2" data-name="Sfumatura senza nome 11" x1="141.46" y1="406.14" x2="856.79" y2="406.14" xlink:href="#Sfumatura_senza_nome_11"/>
    <linearGradient id="Sfumatura_senza_nome_11-3" data-name="Sfumatura senza nome 11" x1="140.48" y1="600.61" x2="855.81" y2="600.61" xlink:href="#Sfumatura_senza_nome_11"/>
    <linearGradient id="Sfumatura_senza_nome_11-4" data-name="Sfumatura senza nome 11" x1="142.34" y1="503.38" x2="857.67" y2="503.38" xlink:href="#Sfumatura_senza_nome_11"/>
    <linearGradient id="Sfumatura_senza_nome_11-5" data-name="Sfumatura senza nome 11" x1="141.46" y1="697.85" x2="856.79" y2="697.85" xlink:href="#Sfumatura_senza_nome_11"/>
    <linearGradient id="Sfumatura_senza_nome_11-6" data-name="Sfumatura senza nome 11" x1="281.74" y1="797.91" x2="281.74" y2="320.4" xlink:href="#Sfumatura_senza_nome_11"/>
    <linearGradient id="Sfumatura_senza_nome_11-7" data-name="Sfumatura senza nome 11" x1="500.01" y1="320.4" x2="500.01" y2="797.91" xlink:href="#Sfumatura_senza_nome_11"/>
    <linearGradient id="Sfumatura_senza_nome_11-8" data-name="Sfumatura senza nome 11" x1="718.27" y1="797.91" x2="718.27" y2="320.4" xlink:href="#Sfumatura_senza_nome_11"/>
    <linearGradient id="Sfumatura_senza_nome_11-9" data-name="Sfumatura senza nome 11" x1="582.52" y1="265.65" x2="645" y2="265.65" xlink:href="#Sfumatura_senza_nome_11"/>
    <linearGradient id="Sfumatura_senza_nome_11-10" data-name="Sfumatura senza nome 11" x1="177.42" y1="258.17" x2="249.15" y2="258.17" xlink:href="#Sfumatura_senza_nome_11"/>
    <linearGradient id="Sfumatura_senza_nome_11-11" data-name="Sfumatura senza nome 11" x1="878.3" y1="-86.59" x2="882.57" y2="-86.59" gradientTransform="translate(-504.61 346.57)" xlink:href="#Sfumatura_senza_nome_11"/>
    <linearGradient id="Sfumatura_senza_nome_11-12" data-name="Sfumatura senza nome 11" x1="864.96" y1="-86.59" x2="869.22" y2="-86.59" gradientTransform="translate(-504.61 346.57)" xlink:href="#Sfumatura_senza_nome_11"/>
    <linearGradient id="Sfumatura_senza_nome_11-13" data-name="Sfumatura senza nome 11" x1="891.65" y1="-86.59" x2="895.91" y2="-86.59" gradientTransform="translate(-504.61 346.57)" xlink:href="#Sfumatura_senza_nome_11"/>
    <linearGradient id="Sfumatura_senza_nome_11-14" data-name="Sfumatura senza nome 11" x1="904.99" y1="-86.59" x2="909.26" y2="-86.59" gradientTransform="translate(-504.61 346.57)" xlink:href="#Sfumatura_senza_nome_11"/>
    <linearGradient id="Sfumatura_senza_nome_11-15" data-name="Sfumatura senza nome 11" x1="1449.67" y1="-256.95" x2="1453.93" y2="-256.95" gradientTransform="translate(-1069.22 516.93)" xlink:href="#Sfumatura_senza_nome_11"/>
    <linearGradient id="Sfumatura_senza_nome_11-16" data-name="Sfumatura senza nome 11" x1="927.08" y1="-86.59" x2="931.34" y2="-86.59" gradientTransform="translate(-504.61 346.57)" xlink:href="#Sfumatura_senza_nome_11"/>
    <linearGradient id="Sfumatura_senza_nome_11-17" data-name="Sfumatura senza nome 11" x1="756.6" y1="272.33" x2="772.48" y2="272.33" xlink:href="#Sfumatura_senza_nome_11"/>
    <linearGradient id="Sfumatura_senza_nome_11-18" data-name="Sfumatura senza nome 11" x1="779.38" y1="259.98" x2="795.26" y2="259.98" xlink:href="#Sfumatura_senza_nome_11"/>
    <linearGradient id="Sfumatura_senza_nome_11-19" data-name="Sfumatura senza nome 11" x1="802.16" y1="279.29" x2="818.03" y2="279.29" xlink:href="#Sfumatura_senza_nome_11"/>
    <linearGradient id="Sfumatura_senza_nome_11-20" data-name="Sfumatura senza nome 11" x1="824.93" y1="289.33" x2="840.81" y2="289.33" xlink:href="#Sfumatura_senza_nome_11"/>
    <linearGradient id="Sfumatura_senza_nome_11-21" data-name="Sfumatura senza nome 11" x1="733.82" y1="298.12" x2="749.7" y2="298.12" xlink:href="#Sfumatura_senza_nome_11"/>
  </defs>
  <path class="cls-1" d="M828.87,800.5c-53.66-.02-107.32.23-160.98.78l-80.49.91-80.49,1c-26.83.28-53.66.62-80.49.78l-40.24.3-40.24.16c-26.83.09-53.66.05-80.49.02-26.83.02-53.66-.18-80.49-.29l-10.06-.05-5.03-.04h-.64s-.72-.04-.72-.04l-1.44-.08c-.96-.02-1.91-.21-2.86-.36-7.61-1.27-14.63-5.49-19.33-11.53-2.36-3.01-4.16-6.46-5.28-10.12l-.7-2.78c-.18-.94-.29-1.89-.43-2.83-.13-.94-.11-1.9-.17-2.85l-.03-.71v-.63s.01-1.26.01-1.26l.18-20.12.78-80.49.71-80.49.43-80.49c.14-53.66.14-107.32-.08-160.98l-.17-40.24-.26-40.24-.13-20.12-.08-10.06-.04-5.03-.02-2.52.12-2.73c.62-7.28,4.08-14.29,9.49-19.25,5.37-5,12.68-7.9,20.06-7.95l160.98-1.28,160.98-.71,160.98-.5,80.49-.11h80.49s10.06.02,10.06.02h5.03s.64.02.64.02l.75.04,1.5.08c1,.02,1.99.21,2.98.36,7.92,1.28,15.26,5.64,20.19,11.92,2.48,3.13,4.38,6.72,5.56,10.55l.74,2.91c.19.98.32,1.97.47,2.96.14.99.13,1.99.19,2.98l.03.75v1.89s-.06,20.12-.06,20.12c-.06,26.83-.12,53.66-.31,80.49l-.23,40.24-.37,40.24c-.21,26.83-.6,53.66-.92,80.49l-1,80.49-.92,80.49c-.32,26.83-.42,53.66-.62,80.49l-.1,20.12-.04,10.06-.02,5.03v2.52s-.15,2.56-.15,2.56c-.66,6.82-3.94,13.34-9.03,17.91-5.05,4.62-11.85,7.23-18.69,7.23ZM828.87,799.5c6.6-.02,13.13-2.55,17.97-7.01,4.87-4.42,8.02-10.68,8.61-17.23l.12-2.46v-2.51s-.02-5.03-.02-5.03l-.04-10.06-.1-20.12c-.21-26.83-.3-53.66-.62-80.49l-.92-80.49-1-80.49c-.32-26.83-.71-53.66-.92-80.49l-.37-40.24-.23-40.24c-.19-26.83-.25-53.66-.31-80.49l-.05-20.12v-1.26s0-.62,0-.62l-.03-.51c-.06-.68-.04-1.36-.14-2.04-.12-.67-.2-1.34-.32-2.01l-.51-1.97c-.82-2.58-2.12-5.01-3.82-7.13-3.38-4.25-8.36-7.17-13.7-8-.67-.09-1.33-.24-2.01-.23l-1.02-.05-.51-.03h-.62s-5.03.01-5.03.01l-10.06.03h-80.49s-80.49-.11-80.49-.11l-160.98-.5-160.98-.71-160.98-1.28c-6.05-.05-12.07,2.21-16.6,6.29-4.55,4.04-7.52,9.8-8.15,15.89l-.14,2.29-.02,2.51-.04,5.03-.08,10.06-.13,20.12-.26,40.24-.17,40.24c-.22,53.66-.22,107.32-.08,160.98l.43,80.49.71,80.49.78,80.49.18,20.12v1.26s.02.62.02.62l.04.54c.06.72.05,1.45.16,2.17.13.71.22,1.43.36,2.14l.56,2.09c.89,2.74,2.29,5.32,4.1,7.55,3.62,4.49,8.91,7.54,14.56,8.39.71.09,1.41.24,2.13.23l1.07.04.54.03h.62s5.03-.04,5.03-.04l10.06-.05c26.83-.11,53.66-.31,80.49-.29,26.83-.03,53.66-.07,80.49.02l40.24.16,40.24.3c26.83.16,53.66.51,80.49.78l80.49,1,80.49.91c53.66.56,107.32.8,160.98.78Z"/>
  <path class="cls-22" d="M168.51,195.94h664.87c15.6,0,28.26,12.66,28.26,28.26v96.19H140.24v-96.19c0-15.6,12.66-28.26,28.26-28.26Z"/>
  <path class="cls-9" d="M141.46,405.84c29.81-1.15,59.61-1.65,89.42-2.03l22.35-.22,22.35-.11c14.9-.08,29.81-.02,44.71.16l44.71.83,22.35.44,22.35.26c14.9.08,29.81.08,44.71-.05l11.18-.1,11.18-.17,22.35-.35c14.9-.25,29.81-.58,44.71-.77,14.9-.21,29.81-.32,44.71-.41l44.71-.3c7.45-.07,14.9-.07,22.35-.07h22.35c59.61.25,119.22,1.01,178.83,2.9v.6c-59.61,1.89-119.22,2.65-178.83,2.9h-22.35c-7.45,0-14.9,0-22.35-.07l-44.71-.3c-14.9-.1-29.81-.21-44.71-.41-14.9-.19-29.81-.51-44.71-.77l-22.35-.35-11.18-.17-11.18-.1c-14.9-.13-29.81-.13-44.71-.05l-22.35.26-22.35.44-44.71.83c-14.9.18-29.81.24-44.71.16l-22.35-.11-22.35-.22c-29.81-.38-59.61-.88-89.42-2.03v-.6Z"/>
  <path class="cls-8" d="M140.48,600.31c29.81-1.15,59.61-1.65,89.42-2.03l22.35-.22,22.35-.11c14.9-.08,29.81-.02,44.71.16l44.71.83,22.35.44,22.35.26c14.9.08,29.81.08,44.71-.05l11.18-.1,11.18-.17,22.35-.35c14.9-.25,29.81-.58,44.71-.77,14.9-.21,29.81-.32,44.71-.41l44.71-.3c7.45-.07,14.9-.07,22.35-.07h22.35c59.61.25,119.22,1.01,178.83,2.9v.6c-59.61,1.89-119.22,2.65-178.83,2.9h-22.35c-7.45,0-14.9,0-22.35-.07l-44.71-.3c-14.9-.1-29.81-.21-44.71-.41-14.9-.19-29.81-.51-44.71-.77l-22.35-.35-11.18-.17-11.18-.1c-14.9-.13-29.81-.13-44.71-.05l-22.35.26-22.35.44-44.71.83c-14.9.18-29.81.24-44.71.16l-22.35-.11-22.35-.22c-29.81-.38-59.61-.88-89.42-2.03v-.6Z"/>
  <path class="cls-7" d="M142.34,503.38l22.35-.45,22.35-.34,44.71-.67c29.81-.35,59.61-.67,89.42-.87,29.81-.28,59.61-.34,89.42-.5l89.42-.17,89.42.16c29.81.17,59.61.22,89.42.5,29.81.2,59.61.52,89.42.87l44.71.68,22.35.34,22.35.45-22.35.45-22.35.34-44.71.68c-29.81.35-59.61.67-89.42.87-29.81.28-59.61.33-89.42.5l-89.42.16-89.42-.17c-29.81-.16-59.61-.22-89.42-.5-29.81-.2-59.61-.52-89.42-.87l-44.71-.67-22.35-.34-22.35-.45Z"/>
  <path class="cls-4" d="M141.46,697.85l22.35-.45,22.35-.34,44.71-.67c29.81-.35,59.61-.67,89.42-.87,29.81-.28,59.61-.34,89.42-.5l89.42-.17,89.42.16c29.81.17,59.61.22,89.42.5,29.81.2,59.61.52,89.42.87l44.71.68,22.35.34,22.35.45-22.35.45-22.35.34-44.71.68c-29.81.35-59.61.67-89.42.87-29.81.28-59.61.33-89.42.5l-89.42.16-89.42-.17c-29.81-.16-59.61-.22-89.42-.5-29.81-.2-59.61-.52-89.42-.87l-44.71-.67-22.35-.34-22.35-.45Z"/>
  <path class="cls-5" d="M281.5,797.91c-.88-19.9-1.38-39.79-1.65-59.69l-.18-14.92-.09-14.92c-.07-9.95-.02-19.9.13-29.84l.68-29.84.36-14.92.21-14.92c.07-9.95.07-19.9-.04-29.84-.07-9.95-.34-19.9-.51-29.84-.21-9.95-.47-19.9-.62-29.84-.17-9.95-.26-19.9-.34-29.84l-.25-29.84c-.09-9.95-.06-19.9-.06-29.84.21-39.79.82-79.59,2.37-119.38h.49c1.55,39.79,2.16,79.59,2.37,119.38,0,9.95.03,19.9-.06,29.84l-.25,29.84c-.08,9.95-.17,19.9-.34,29.84-.15,9.95-.42,19.9-.63,29.84-.17,9.95-.44,19.9-.51,29.84-.11,9.95-.11,19.9-.04,29.84l.21,14.92.36,14.92.68,29.84c.15,9.95.2,19.9.13,29.84l-.09,14.92-.18,14.92c-.27,19.9-.77,39.79-1.65,59.69h-.49Z"/>
  <path class="cls-6" d="M500.01,320.4l.37,14.92.28,14.92.55,29.84c.29,19.9.55,39.79.71,59.69.23,19.9.28,39.79.41,59.69l.14,59.69-.13,59.69c-.14,19.9-.18,39.79-.41,59.69-.17,19.9-.42,39.79-.71,59.69l-.55,29.84-.28,14.92-.37,14.92-.37-14.92-.28-14.92-.55-29.84c-.29-19.9-.55-39.79-.71-59.69-.23-19.9-.27-39.79-.41-59.69l-.13-59.69.14-59.69c.13-19.9.18-39.79.41-59.69.16-19.9.42-39.79.71-59.69l.55-29.84.28-14.92.37-14.92Z"/>
  <path class="cls-2" d="M718.03,797.91c-.88-19.9-1.38-39.79-1.65-59.69l-.18-14.92-.09-14.92c-.07-9.95-.02-19.9.13-29.84l.68-29.84.36-14.92.21-14.92c.07-9.95.07-19.9-.04-29.84-.07-9.95-.34-19.9-.51-29.84-.21-9.95-.47-19.9-.62-29.84-.17-9.95-.26-19.9-.34-29.84l-.25-29.84c-.09-9.95-.06-19.9-.06-29.84.21-39.79.82-79.59,2.37-119.38h.49c1.55,39.79,2.16,79.59,2.37,119.38,0,9.95.03,19.9-.06,29.84l-.25,29.84c-.08,9.95-.17,19.9-.34,29.84-.15,9.95-.42,19.9-.63,29.84-.17,9.95-.44,19.9-.51,29.84-.11,9.95-.11,19.9-.04,29.84l.21,14.92.36,14.92.68,29.84c.15,9.95.2,19.9.13,29.84l-.09,14.92-.18,14.92c-.27,19.9-.77,39.79-1.65,59.69h-.49Z"/>
  <path class="cls-3" d="M596.59,222.4v42.6c0,1.67,1.32,4.87,2.44,6.2,6.48,7.66,16.72.83,22.33-4.32v-44.47h10.51l-.02,44.87c.57,2.86.07,8.52,3.98,9.16,5.24.85,6.01-4.29,6.97-8.19l2.2-.05c-.47,3.78-1.06,7.5-3.56,10.51-5.13,6.19-15.91,4.72-18.87-2.91-.7-1.81-.71-3.59-1.4-5.35-6.51,6.61-15.13,14.94-25.22,10.95-1.85-.73-3.17-2.11-5-2.69.36,2.45.12,5.22.42,7.64.57,4.58,3.87,12.45,3.68,16.14-.35,6.94-9.41,8.95-11.91,2.6s3.26-15.95,2.94-22.8l-.02-59.88h10.51Z"/>
  <path class="cls-11" d="M243.16,217.14c.27.09.42,1.24.46,1.57.59,5.53,1.27,12.05,1.48,17.56.02.62.24,1.81-.46,1.94-3.27.6-2.34-1.23-2.73-3.55-1.56-9.18-5.65-11.59-14.63-11.98h-30.41s26,31.71,26,31.71l-29.7,33.18h35.59c3.67-.4,7.65-.84,10.86-2.81,3.78-2.32,5.64-7.14,6.79-11.24l2.76.56-3.69,25.13h-68.02c.09-.95-.28-2.08.37-2.87l33.09-36.6-33.46-40.3v-2.31s65.7,0,65.7,0Z"/>
  <g>
    <rect class="cls-14" x="373.69" y="217.14" width="4.26" height="85.68" rx=".76" ry=".76"/>
    <rect class="cls-13" x="360.35" y="217.14" width="4.26" height="85.68" rx=".76" ry=".76"/>
    <rect class="cls-15" x="387.04" y="217.14" width="4.26" height="85.68" rx=".76" ry=".76"/>
    <rect class="cls-19" x="400.38" y="217.14" width="4.26" height="85.68" rx=".76" ry=".76"/>
    <rect class="cls-12" x="380.45" y="217.14" width="4.26" height="85.68" rx=".76" ry=".76" transform="translate(288.41 -192.89) rotate(44.06)"/>
    <rect class="cls-10" x="422.47" y="217.14" width="4.26" height="85.68" rx=".76" ry=".76"/>
  </g>
  <g>
    <rect class="cls-18" x="756.6" y="235.17" width="15.88" height="74.31" rx="1.69" ry="1.69"/>
    <rect class="cls-16" x="779.38" y="210.47" width="15.88" height="99.01" rx="1.58" ry="1.58"/>
    <rect class="cls-17" x="802.16" y="249.1" width="15.88" height="60.39" rx="1.68" ry="1.68"/>
    <rect class="cls-21" x="824.93" y="269.17" width="15.88" height="40.31" rx="1.97" ry="1.97"/>
    <rect class="cls-20" x="733.82" y="286.75" width="15.88" height="22.74" rx="1.92" ry="1.92"/>
  </g>
</svg>